<svg width="48" height="48" viewBox="0 0 48 48" fill="none" xmlns="http://www.w3.org/2000/svg">
<g clip-path="url(#clip0_6277_53070)">
<path d="M10.3339 10.6011C10.3339 10.6011 8.30246 12.2726 6.27106 15.5228C4.23965 18.7731 1.00722 24.4004 1.3743 29.4077C1.3743 29.4077 -12.5747 32.2196 -13.3124 32.4833C-14.0501 32.747 -15.6218 33.6273 -13.8684 35.0315C-12.115 36.4392 -3.24448 43.82 -3.24448 43.82C-3.24448 43.82 -7.95592 53.838 -8.32656 54.4545C-8.6972 55.0711 -9.52759 57.4411 -6.29515 56.6499C-3.06272 55.8587 18.4345 50.1886 18.4345 50.1886C18.4345 50.1886 43.5634 54.312 44.7609 54.6719C46.3789 55.1566 47.2092 53.9699 45.7302 52.5194C44.3617 51.1794 38.1356 39.1655 38.1356 39.1655C38.1356 39.1655 44.9212 33.1569 45.8443 32.3657C46.7673 31.5745 48.7061 30.4305 44.8286 29.2901C40.9475 28.1461 31.3928 25.1061 31.3928 25.1061C31.3928 25.1061 29.0834 14.3859 22.9856 8.84769C22.0055 8.06364 20.7689 7.35443 21.4139 9.11142C22.059 10.8684 22.8003 17.6362 19.4752 20.7118C16.1501 23.7874 13.103 23.7874 12.1764 16.845C12.0837 15.088 12.1301 12.1443 12.686 10.6047C12.686 10.6047 12.8321 10.0986 12.9854 9.68164C13.1778 9.16131 13.3418 8.71939 12.7787 8.89046C11.763 9.19695 10.3303 10.6047 10.3303 10.6047L10.3339 10.6011Z" fill="#EBFF32"/>
<path d="M31.3965 25.0992C31.3965 25.0992 29.0871 14.3791 22.9893 8.84085C22.0093 8.0568 20.7726 7.34759 21.4177 9.10458C22.0627 10.8616 22.804 17.6294 19.4789 20.705C16.1538 23.7806 13.1067 23.7806 12.1801 16.8382C12.0874 15.0812 12.1338 12.1374 12.6897 10.5978C12.6897 10.5978 12.8359 10.0918 12.9891 9.6748C13.1816 9.15447 13.3455 8.71255 12.7824 8.88362C11.7667 9.19011 10.334 10.5978 10.334 10.5978C10.334 10.5978 8.30262 12.2693 6.27121 15.5195C4.2398 18.7698 1.00737 24.3972 1.37445 29.4044C1.37445 29.4044 7.57202 34.5471 16.7098 34.964C28.2781 35.4915 31.1898 26.2646 31.3965 25.0992Z" fill="#5BB3FD"/>
<path d="M11.5421 26.9945C11.5421 26.9945 9.00458 27.0052 8.56979 29.9454C8.135 32.8892 8.17777 37.5293 10.6618 38.3169C13.1458 39.1046 14.8422 37.1979 15.0168 35.0025C15.1915 32.8072 15.6797 26.8306 11.5421 26.9945Z" fill="white"/>
<path d="M11.77 38.7627C11.3815 38.7627 10.9788 38.6985 10.569 38.5667C8.05999 37.7719 7.77488 33.4062 8.29164 29.91C8.74069 26.8772 11.3388 26.7382 11.5276 26.7311C12.522 26.6919 13.3416 26.9805 13.9653 27.5935C15.7401 29.3398 15.4265 33.3028 15.2911 34.9957C15.1806 36.4105 14.507 37.6222 13.4913 38.2673C12.971 38.5952 12.3901 38.7627 11.77 38.7627ZM11.5419 27.2585C11.4421 27.2585 9.23607 27.3191 8.84048 29.9849C8.44845 32.64 8.40569 37.3264 10.7436 38.0677C11.6417 38.3528 12.4863 38.2709 13.1813 37.8289C14.0544 37.2765 14.6353 36.211 14.7351 34.9814C14.867 33.3349 15.1664 29.5358 13.5662 27.9606C13.0494 27.4545 12.3937 27.2229 11.549 27.2585H11.5383H11.5419Z" fill="black"/>
<path d="M11.6703 28.5381C11.6703 28.5381 9.64597 28.6094 9.53549 31.0257C9.4357 33.1996 9.25751 36.6744 11.4101 36.9916C13.9369 37.3658 14.1721 34.9388 14.0652 32.1447C13.9903 30.1026 13.5413 28.5809 11.6703 28.5381Z" fill="#2CE69D" fill-opacity="0.807843"/>
<path d="M11.8128 29.6252C11.8128 29.6252 10.2447 29.5646 10.1699 31.4784C10.1057 33.1107 10.095 35.3417 11.5099 35.6125C13.2455 35.944 13.5342 34.1193 13.4308 32.1057C13.3631 30.8049 13.1778 29.7214 11.8164 29.6252H11.8128Z" fill="black"/>
<path d="M10.797 30.9189C10.797 30.9189 10.2054 30.9367 10.1448 31.6887C10.0842 32.4407 10.045 33.2105 10.6366 33.378C11.2282 33.5455 11.6416 33.1142 11.663 32.5725C11.6844 32.0272 11.8198 30.8262 10.7934 30.9224L10.797 30.9189Z" fill="white"/>
<path d="M19.8957 34.9892C19.8957 34.9892 19.7638 36.3613 18.2848 37.1739C16.8058 37.9865 16.6062 37.4697 16.3639 37.2737C16.1215 37.0777 14.5962 34.9999 15.9469 33.8452C17.2976 32.6905 19.2969 33.5601 19.8957 34.9892Z" fill="#FF7140"/>
<path d="M16.6636 37.9332C16.6137 37.9332 16.5638 37.9225 16.5211 37.894C15.762 37.4556 14.953 36.1583 15.0064 34.9965C15.0421 34.2018 15.4626 33.5924 16.2181 33.236C18.0215 32.3878 19.5361 33.7634 20.0885 34.6081C20.1705 34.7328 20.1277 34.8932 19.9994 34.9716C19.8711 35.05 19.7 35.0108 19.6181 34.886C19.5646 34.8041 18.2674 32.8618 16.4676 33.71C15.8938 33.9808 15.5909 34.4192 15.5624 35.0215C15.5196 35.9588 16.2003 37.0921 16.8097 37.4449C16.9416 37.5197 16.9808 37.6837 16.9024 37.8084C16.8489 37.8904 16.7598 37.9367 16.6636 37.9367V37.9332Z" fill="#231815"/>
<path d="M17.6613 38.9916C17.2836 38.9916 16.8809 38.9345 16.4532 38.8241C16.3071 38.7849 16.218 38.6387 16.2607 38.4998C16.2999 38.3608 16.4532 38.2752 16.6029 38.3144C17.5936 38.5746 18.424 38.4891 19.0691 38.0685C20.3022 37.2631 20.5018 35.4633 20.5053 35.4455C20.5196 35.2994 20.6514 35.196 20.8082 35.2103C20.9615 35.2246 21.072 35.3529 21.0577 35.499C21.0506 35.5809 20.8332 37.5553 19.3863 38.5033C18.8909 38.8276 18.3135 38.9916 17.6649 38.9916H17.6613Z" fill="black"/>
<path d="M9.96665 40.5026C9.83123 40.5026 9.71362 40.41 9.69223 40.2781C9.37505 38.2111 8.65515 36.7962 7.55391 36.0799C6.50613 35.3992 5.46548 35.6166 5.45479 35.6166C5.30511 35.6522 5.15899 35.5596 5.12335 35.4206C5.08771 35.278 5.18037 35.139 5.33006 35.1034C5.37995 35.0927 6.60592 34.829 7.85684 35.6344C9.09707 36.4363 9.89894 37.9687 10.2411 40.1962C10.2625 40.3387 10.1591 40.4741 10.0059 40.4955C9.9916 40.4955 9.97734 40.4955 9.96665 40.4955V40.5026Z" fill="black"/>
<path d="M27.1374 33.6816C27.3121 31.4862 27.7647 26.6536 23.627 26.8175C23.627 26.8175 21.0895 26.8282 20.6548 29.7684C20.22 32.7086 20.2627 37.3523 22.7467 38.14C22.7467 38.14 23.0604 38.3039 24.1153 38.3039C24.1153 38.3039 24.0119 34.2945 26.8987 33.7136L27.141 33.6816H27.1374Z" fill="white"/>
<path d="M24.397 38.5673H24.1119C23.146 38.5673 22.754 38.4354 22.6364 38.382C20.1453 37.573 19.8602 33.2179 20.3769 29.7289C20.8402 26.5962 23.5951 26.5499 23.6236 26.5499C24.732 26.5071 25.6229 26.8065 26.2716 27.4409C27.7933 28.9377 27.551 31.9634 27.4227 33.5886L27.3977 33.9057L26.9344 33.9699C24.3257 34.4973 24.3898 38.2572 24.3898 38.2929L24.397 38.5637V38.5673ZM22.8752 37.908C22.8752 37.908 23.1247 38.0149 23.8374 38.0363C23.8695 37.0811 24.1867 33.9913 26.8347 33.4531L26.8739 33.446C26.9986 31.8815 27.1875 29.1052 25.8688 27.808C25.3307 27.2769 24.6001 27.0382 23.6343 27.0774C23.5309 27.0774 21.3213 27.1344 20.9258 29.8037C20.5337 32.4588 20.491 37.1453 22.8289 37.8866L22.8752 37.9044V37.908Z" fill="black"/>
<path d="M23.4955 36.8139C21.3429 36.4967 21.5247 33.0219 21.6209 30.8479C21.7314 28.4352 23.7557 28.3604 23.7557 28.3604C25.6303 28.4031 26.033 29.957 26.1078 31.9991L26.0579 33.4496C26.0579 33.4496 25.1563 34.0982 24.6039 34.8003C24.6039 34.8003 23.9588 35.6449 23.8198 36.0405C23.6808 36.4361 23.4955 36.8139 23.4955 36.8139Z" fill="#2CE69D" fill-opacity="0.807843"/>
<path d="M27.7756 34.1585C28.4349 34.1906 29.2403 34.7074 29.5254 34.9675C30.2168 35.5948 30.2525 36.4287 30.1135 37.2591C29.9745 38.0895 29.3936 38.9555 28.6238 39.3689C28.0856 39.6576 27.1875 39.8465 26.4926 39.6647C25.762 39.4723 24.953 38.902 24.7962 38.1964C24.6394 37.4907 24.8532 36.1472 25.263 35.5449C25.263 35.5449 26.0115 34.073 27.7756 34.1621V34.1585Z" fill="#FF7140"/>
<path d="M27.1197 34.5359C27.1197 34.5359 26.4604 34.6678 26.3072 35.2131C26.1503 35.7583 26.4533 36.3499 27.1304 36.1682C27.8075 35.9864 28.1532 35.6478 28.2316 35.3022C28.2922 35.0277 27.9608 34.3827 27.1233 34.5359H27.1197Z" fill="white"/>
<path d="M25.3271 18.506C24.9672 20.1347 22.7291 25.2952 17.0839 24.7998C11.4387 24.3044 12.1729 16.7241 12.1729 16.7241C13.0959 23.6665 16.1466 23.7699 19.4717 20.6942C22.7968 17.6186 22.0591 10.8508 21.4104 9.09384C20.7654 7.33685 21.9985 8.04606 22.9821 8.83011C22.9821 8.83011 26.8382 11.6848 25.3271 18.5096V18.506Z" fill="#EBFF32"/>
<path d="M18.673 25.3202C18.5519 25.3202 18.4378 25.2418 18.4057 25.1242C18.3665 24.9852 18.4556 24.8391 18.6018 24.8035C24.8635 23.2247 24.6354 16.7705 23.944 13.0641C23.2383 9.2935 21.517 8.56647 21.4992 8.55934C21.3566 8.50232 21.2925 8.34907 21.3495 8.21364C21.4101 8.07822 21.5705 8.01763 21.713 8.07109C21.795 8.10316 23.7302 8.91929 24.4893 12.9714C25.2163 16.856 25.4337 23.6238 18.7443 25.3131C18.7194 25.3202 18.698 25.3202 18.673 25.3202Z" fill="#5BB3FD"/>
<path d="M23.5343 29.6252C23.5343 29.6252 22.0196 29.5647 21.9448 31.3858C21.8806 32.9361 21.8058 35.0744 23.2385 35.3132C24.8244 35.5733 25.195 33.8948 25.0952 31.981C25.0275 30.7443 24.8493 29.7143 23.5343 29.6252Z" fill="black"/>
<path d="M22.5758 30.9189C22.5758 30.9189 21.9842 30.9367 21.9236 31.6887C21.863 32.4407 21.8238 33.2105 22.4154 33.378C23.007 33.5455 23.4204 33.1142 23.4418 32.5725C23.4632 32.0272 23.5986 30.8262 22.5722 30.9224L22.5758 30.9189Z" fill="white"/>
<path d="M34.2963 28.7722C34.3891 28.0725 34.6558 27.4077 34.9186 26.7544C35.7188 24.7754 36.4686 22.9122 37.2688 20.9331C37.377 20.6664 37.4736 20.3804 37.6747 20.1717C37.9762 19.8586 38.5405 19.7774 38.8304 19.8006C39.3445 19.8431 39.9282 20.6703 40.0789 21.1651C40.4114 22.2706 39.9398 23.0823 39.7697 24.2265C39.5571 25.6373 38.8111 26.9284 37.8679 28.003C37.091 28.8881 36.1826 29.6419 35.2588 30.3686C34.7524 30.7667 34.6055 30.7938 34.3968 30.1328C34.2576 29.696 34.2383 29.2244 34.2963 28.7761V28.7722Z" fill="#FFC20B"/>
<path d="M34.6402 30.836L29.333 30.4727L33.4187 33.0509L32.1664 35.6291L35.1543 36.2205L35.1002 40.9518L39.1821 35.3121L34.6402 30.836Z" fill="#FF7140"/>
<path d="M39.758 24.4045C41.2926 24.8027 42.8581 24.6751 44.4042 24.3272C44.8565 24.2267 45.3088 24.0914 45.7687 24.0798C46.2287 24.0682 46.7235 24.1958 47.0366 24.5359C47.3767 24.9109 47.4386 25.4559 47.427 25.9623C47.4154 26.3759 47.3613 26.7972 47.1835 27.1683C47.0057 27.5394 46.6926 27.8641 46.2944 27.98C47.168 27.9568 47.914 28.7763 47.9913 29.646C48.0687 30.5157 47.6009 31.3661 46.9438 31.9421C47.3729 32.0542 47.6435 32.5141 47.6512 32.9587C47.6589 33.4032 47.4463 33.8206 47.1796 34.1763C46.5766 34.9803 45.6566 35.7108 44.6555 35.792C44.6555 35.792 41.5825 37.1642 37.748 35.5601C33.9135 33.9559 34.215 29.1512 34.215 29.1512C34.3774 27.8331 34.6866 26.917 35.4133 25.7767C36.14 24.6364 38.2235 24.0102 39.7542 24.4045H39.758Z" fill="#FFC20B"/>
<path d="M38.4514 38.0531L42.3129 39.0001C42.6608 39.0852 43.0203 38.7373 43.1092 38.2232L46.4219 19.5301C46.4489 19.3871 46.4489 19.2402 46.4296 19.101L45.73 14.3814C45.4091 13.2295 44.3655 12.9744 43.6774 13.8789L41.4355 17.8757C41.3698 17.9955 41.3195 18.1308 41.2963 18.2738L37.9837 36.9669C37.8909 37.481 38.1035 37.9681 38.4514 38.0531Z" fill="black"/>
<mask id="mask0_6277_53070" style="mask-type:luminance" maskUnits="userSpaceOnUse" x="37" y="13" width="10" height="27">
<path d="M38.4514 38.0531L42.3129 39.0001C42.6608 39.0852 43.0203 38.7373 43.1092 38.2232L46.4219 19.5301C46.4489 19.3871 46.4489 19.2402 46.4296 19.101L45.73 14.3814C45.4091 13.2295 44.3655 12.9744 43.6774 13.8789L41.4355 17.8757C41.3698 17.9955 41.3195 18.1308 41.2963 18.2738L37.9837 36.9669C37.8909 37.481 38.1035 37.9681 38.4514 38.0531Z" fill="white"/>
</mask>
<g mask="url(#mask0_6277_53070)">
<path d="M45.2897 35.1807C45.4173 35.1498 45.5294 35.0184 45.5603 34.8444C45.5989 34.6164 45.4907 34.396 45.3168 34.3535L38.2508 32.6566C38.0769 32.6141 37.9029 32.7648 37.8643 32.9929C37.8256 33.2209 37.9338 33.4413 38.1078 33.4838L45.1737 35.1807C45.2124 35.1884 45.2549 35.1884 45.2897 35.1807Z" fill="white"/>
<path d="M44.6173 34.1878L38.2471 32.6571L40.346 19.2441L46.7123 20.6705L44.6173 34.1878Z" fill="#FF7140"/>
<path d="M43.6775 39.6533L37.2803 38.2656L37.2996 34.752L43.6814 36.1126L43.6775 39.6533Z" fill="#FF8D8D"/>
<path d="M47.0177 20.0713L40.6514 18.7107L41.2389 17.7637L47.5936 19.1166L47.0177 20.0713Z" fill="#FF7140"/>
<path d="M47.7985 19.3868C47.9261 19.3558 48.0382 19.2244 48.0691 19.0505C48.1077 18.8224 47.9995 18.6021 47.8256 18.5596L40.7596 16.8626C40.5857 16.8201 40.4117 16.9709 40.3731 17.1989C40.3344 17.427 40.4426 17.6473 40.6166 17.6898L47.6825 19.3868C47.7212 19.3945 47.7637 19.3945 47.7985 19.3868Z" fill="white"/>
<path d="M47.5275 20.9405C47.6551 20.9095 47.7672 20.7781 47.7981 20.6042C47.8367 20.3761 47.7285 20.1558 47.5546 20.1133L40.4886 18.4164C40.3147 18.3738 40.1407 18.5246 40.1021 18.7526C40.0634 18.9807 40.1716 19.201 40.3456 19.2436L47.4115 20.9405C47.4502 20.9482 47.4927 20.9482 47.5275 20.9405Z" fill="white"/>
<path d="M46.1131 18.7299L45.5913 18.123L45.0965 18.4941L44.7679 17.9413L44.1533 18.2544L43.732 17.6746L43.0749 17.9336L42.5995 17.2958L41.9617 17.7017C41.9617 17.7017 41.521 15.6143 41.6949 15.3747C41.9462 15.0345 43.473 14.9147 45.8387 15.6453C46.2561 15.7728 46.2639 16.2212 46.2832 16.5073C46.3064 16.8667 46.403 17.7287 46.3296 18.3085L46.117 18.726L46.1131 18.7299Z" fill="#FFE7BD"/>
<path d="M45.0192 36.7354C45.1468 36.7045 45.2589 36.573 45.2898 36.3991C45.3284 36.171 45.2202 35.9507 45.0463 35.9082L37.9803 34.2113C37.8064 34.1688 37.6324 34.3195 37.5938 34.5476C37.5551 34.7756 37.6633 34.996 37.8373 35.0385L44.9032 36.7354C44.9419 36.7431 44.9844 36.7431 45.0192 36.7354Z" fill="white"/>
</g>
<path d="M46.2444 24.2227C46.1941 24.7097 45.1543 25.3514 44.5784 25.4712C43.9406 25.6026 43.2216 25.7418 42.723 25.8655C42.0156 26.0355 41.3005 26.3216 40.8328 26.855C40.3651 27.3884 40.2221 28.2234 40.6666 28.7684C41.057 29.2438 41.7528 29.3752 42.3906 29.3984C41.3546 29.5453 40.7323 30.6044 40.8096 31.5901C40.829 31.853 41.1382 32.657 42.263 32.9817C42.263 32.9817 41.0415 33.5151 41.3237 35.0419C41.459 35.7532 42.2669 35.989 43.0206 36.159C45.135 35.958 46.7276 35.0651 47.4195 33.8436" fill="#FFC20B"/>
<path d="M46.2444 24.2227C46.1941 24.7097 45.1543 25.3514 44.5784 25.4712C43.9406 25.6026 43.2216 25.7418 42.723 25.8655C42.0156 26.0355 41.3005 26.3216 40.8328 26.855C40.3651 27.3884 40.2221 28.2234 40.6666 28.7684C41.057 29.2438 41.7528 29.3752 42.3906 29.3984C41.3546 29.5453 40.7323 30.6044 40.8096 31.5901C40.829 31.853 41.1382 32.657 42.263 32.9817C42.263 32.9817 41.0415 33.5151 41.3237 35.0419C41.459 35.7532 42.2669 35.989 43.0206 36.159C45.135 35.958 46.7276 35.0651 47.4195 33.8436" stroke="#DD9300" stroke-width="0.242343" stroke-linecap="round" stroke-linejoin="round"/>
<path d="M46.2444 27.918C46.4648 27.8639 46.5382 28.0262 46.2599 28.1344C44.9186 28.6524 44.0643 29.1858 42.553 29.4835C42.236 29.5453 41.9925 29.5105 42.0118 29.4062C42.0311 29.3018 42.2669 29.2631 42.5839 29.2013C43.8672 28.95 46.1671 27.9334 46.2444 27.918Z" fill="#DD9300"/>
<path d="M46.8358 31.8525C47.0562 31.7984 47.1296 31.9608 46.8513 32.069C45.51 32.587 44.1687 32.7648 42.7424 33.0315C42.437 33.0895 42.1819 33.0586 42.2012 32.9542C42.2206 32.8498 42.4563 32.8112 42.7733 32.7493C44.0566 32.4981 46.7585 31.8719 46.8358 31.8525Z" fill="#DD9300"/>
</g>
<defs>
<clipPath id="clip0_6277_53070">
<path d="M0 0H48V45.3333C48 46.8061 46.8061 48 45.3333 48H2.66667C1.19391 48 0 46.8061 0 45.3333V0Z" fill="white"/>
</clipPath>
</defs>
</svg>
