<svg width="40" height="40" viewBox="0 0 40 40" fill="none" xmlns="http://www.w3.org/2000/svg">
<rect x="1" y="1" width="38" height="38" rx="3" stroke="#2CE69D" stroke-width="2"/>
<g clip-path="url(#clip0_5438_56887)">
<path d="M9.75003 9.95084C9.75003 9.95084 8.22648 11.2044 6.70292 13.6421C5.17937 16.0798 2.75505 20.3003 3.03035 24.0557C3.03035 24.0557 -7.43139 26.1647 -7.98468 26.3625C-8.53797 26.5603 -9.71672 27.2205 -8.40165 28.2736C-7.08658 29.3294 -0.433727 34.865 -0.433727 34.865C-0.433727 34.865 -3.96731 42.3785 -4.24529 42.8409C-4.52327 43.3033 -5.14606 45.0808 -2.72173 44.4874C-0.297409 43.894 15.8255 39.6414 15.8255 39.6414C15.8255 39.6414 34.6722 42.734 35.5703 43.004C36.7838 43.3675 37.4066 42.4774 36.2973 41.3895C35.2709 40.3845 30.6014 31.3742 30.6014 31.3742C30.6014 31.3742 35.6906 26.8676 36.3828 26.2743C37.0751 25.6809 38.5292 24.8229 35.6211 23.9675C32.7103 23.1095 25.5442 20.8296 25.5442 20.8296C25.5442 20.8296 23.8122 12.7895 19.2388 8.63577C18.5038 8.04773 17.5763 7.51582 18.0601 8.83356C18.5439 10.1513 19.0998 15.2271 16.606 17.5339C14.1122 19.8406 11.8269 19.8406 11.1319 14.6338C11.0624 13.316 11.0972 11.1082 11.5141 9.95351C11.5141 9.95351 11.6237 9.57396 11.7387 9.26123C11.883 8.87098 12.006 8.53954 11.5836 8.66784C10.8219 8.89771 9.74736 9.95351 9.74736 9.95351L9.75003 9.95084Z" fill="#EBFF32"/>
<path d="M25.5469 20.8242C25.5469 20.8242 23.8148 12.7841 19.2415 8.6304C18.5065 8.04236 17.579 7.51045 18.0628 8.82819C18.5466 10.1459 19.1025 15.2218 16.6087 17.5285C14.1149 19.8352 11.8295 19.8352 11.1346 14.6284C11.0651 13.3107 11.0998 11.1028 11.5168 9.94814C11.5168 9.94814 11.6264 9.56859 11.7413 9.25586C11.8857 8.86561 12.0086 8.53417 11.5863 8.66247C10.8245 8.89234 9.75003 9.94814 9.75003 9.94814C9.75003 9.94814 8.22647 11.2017 6.70292 13.6394C5.17936 16.0771 2.75504 20.2976 3.03035 24.053C3.03035 24.053 7.67853 27.9101 14.5319 28.2228C23.2081 28.6184 25.3919 21.6982 25.5469 20.8242Z" fill="#5BB3FD"/>
<path d="M10.6562 22.2461C10.6562 22.2461 8.75307 22.2542 8.42698 24.4593C8.10088 26.6671 8.13296 30.1472 9.99597 30.7379C11.859 31.3287 13.1313 29.8987 13.2623 28.2521C13.3932 26.6056 13.7594 22.1232 10.6562 22.2461Z" fill="white"/>
<path d="M10.827 31.0723C10.5357 31.0723 10.2336 31.0241 9.92623 30.9252C8.0445 30.3292 7.83067 27.0549 8.21824 24.4328C8.55503 22.1581 10.5036 22.0539 10.6452 22.0485C11.391 22.0191 12.0057 22.2356 12.4735 22.6954C13.8046 24.0051 13.5694 26.9774 13.4678 28.247C13.385 29.3081 12.8798 30.2169 12.118 30.7007C11.7278 30.9466 11.2921 31.0723 10.827 31.0723ZM10.6559 22.4441C10.5811 22.4441 8.92656 22.4896 8.62987 24.4889C8.33585 26.4802 8.30378 29.9951 10.0572 30.551C10.7308 30.7649 11.3643 30.7034 11.8855 30.372C12.5403 29.9577 12.976 29.1585 13.0509 28.2363C13.1498 27.0014 13.3743 24.1521 12.1741 22.9707C11.7866 22.5911 11.2948 22.4174 10.6613 22.4441H10.6533H10.6559Z" fill="black"/>
<path d="M10.7524 23.4038C10.7524 23.4038 9.23424 23.4573 9.15138 25.2695C9.07653 26.9 8.94289 29.506 10.5573 29.7439C12.4524 30.0246 12.6288 28.2043 12.5486 26.1088C12.4925 24.5772 12.1557 23.4359 10.7524 23.4038Z" fill="#2CE69D" fill-opacity="0.807843"/>
<path d="M10.8596 24.2189C10.8596 24.2189 9.68354 24.1735 9.62741 25.6088C9.5793 26.833 9.57128 28.5062 10.6324 28.7094C11.9341 28.958 12.1506 27.5894 12.0731 26.0793C12.0223 25.1036 11.8833 24.2911 10.8623 24.2189H10.8596Z" fill="black"/>
<path d="M10.0975 25.1894C10.0975 25.1894 9.65379 25.2028 9.60835 25.7668C9.56291 26.3307 9.53351 26.9081 9.97721 27.0337C10.4209 27.1593 10.731 26.8359 10.747 26.4296C10.763 26.0207 10.8646 25.1199 10.0948 25.1921L10.0975 25.1894Z" fill="white"/>
<path d="M16.921 28.2419C16.921 28.2419 16.8221 29.271 15.7129 29.8804C14.6036 30.4898 14.4539 30.1023 14.2722 29.9553C14.0904 29.8082 12.9464 28.2499 13.9594 27.3839C14.9725 26.5179 16.472 27.1701 16.921 28.2419Z" fill="#FF7140"/>
<path d="M14.4967 30.4496C14.4593 30.4496 14.4219 30.4416 14.3898 30.4202C13.8205 30.0915 13.2137 29.1185 13.2538 28.2472C13.2806 27.6511 13.596 27.194 14.1626 26.9267C15.5151 26.2906 16.6511 27.3223 17.0654 27.9558C17.1269 28.0494 17.0948 28.1696 16.9986 28.2284C16.9023 28.2872 16.7741 28.2578 16.7126 28.1643C16.6725 28.1028 15.6995 26.6461 14.3497 27.2822C13.9194 27.4854 13.6922 27.8141 13.6708 28.2659C13.6387 28.9688 14.1493 29.8188 14.6063 30.0834C14.7052 30.1396 14.7346 30.2625 14.6758 30.3561C14.6357 30.4175 14.5689 30.4523 14.4967 30.4523V30.4496Z" fill="#231815"/>
<path d="M15.245 31.2432C14.9617 31.2432 14.6597 31.2004 14.3389 31.1176C14.2293 31.0882 14.1625 30.9786 14.1946 30.8743C14.224 30.7701 14.3389 30.7059 14.4512 30.7353C15.1942 30.9305 15.817 30.8663 16.3008 30.5509C17.2257 29.9468 17.3753 28.597 17.378 28.5836C17.3887 28.4741 17.4876 28.3965 17.6052 28.4072C17.7201 28.4179 17.803 28.5142 17.7923 28.6237C17.787 28.6852 17.6239 30.166 16.5387 30.877C16.1672 31.1202 15.7342 31.2432 15.2477 31.2432H15.245Z" fill="black"/>
<path d="M9.47511 32.3767C9.37354 32.3767 9.28533 32.3072 9.2693 32.2083C9.03141 30.6581 8.49148 29.5969 7.66555 29.0597C6.87972 28.5491 6.09923 28.7122 6.09121 28.7122C5.97895 28.7389 5.86936 28.6694 5.84263 28.5652C5.81591 28.4583 5.8854 28.354 5.99766 28.3273C6.03508 28.3193 6.95456 28.1215 7.89275 28.7256C8.82292 29.327 9.42433 30.4763 9.68092 32.1469C9.69696 32.2538 9.61945 32.3554 9.50451 32.3714C9.49382 32.3714 9.48313 32.3714 9.47511 32.3714V32.3767Z" fill="black"/>
<path d="M22.3525 27.2609C22.4834 25.6144 22.8229 21.99 19.7197 22.1129C19.7197 22.1129 17.8165 22.1209 17.4905 24.3261C17.1644 26.5312 17.1964 30.014 19.0594 30.6047C19.0594 30.6047 19.2947 30.7277 20.0858 30.7277C20.0858 30.7277 20.0083 27.7207 22.1734 27.285L22.3551 27.2609H22.3525Z" fill="white"/>
<path d="M20.297 30.9252H20.0832C19.3588 30.9252 19.0648 30.8263 18.9766 30.7862C17.1082 30.1795 16.8944 26.9132 17.282 24.2964C17.6294 21.9469 19.6956 21.9122 19.717 21.9122C20.5482 21.8801 21.2165 22.1046 21.7029 22.5804C22.8443 23.703 22.6625 25.9723 22.5663 27.1912L22.5476 27.4291L22.2001 27.4772C20.2435 27.8728 20.2916 30.6927 20.2916 30.7194L20.297 30.9225V30.9252ZM19.1557 30.4307C19.1557 30.4307 19.3428 30.5109 19.8773 30.527C19.9014 29.8106 20.1393 27.4932 22.1253 27.0896L22.1547 27.0843C22.2482 25.9109 22.3899 23.8287 21.4009 22.8557C20.9973 22.4575 20.4494 22.2784 19.725 22.3078C19.6475 22.3078 17.9903 22.3505 17.6936 24.3525C17.3996 26.3439 17.3675 29.8587 19.1209 30.4147L19.1557 30.4281V30.4307Z" fill="black"/>
<path d="M19.6207 29.6101C18.0062 29.3723 18.1426 26.7662 18.2147 25.1357C18.2976 23.3262 19.8158 23.27 19.8158 23.27C21.2217 23.3021 21.5238 24.4675 21.5799 25.9991L21.5425 27.0869C21.5425 27.0869 20.8662 27.5734 20.4519 28.1C20.4519 28.1 19.9681 28.7334 19.8639 29.0301C19.7597 29.3268 19.6207 29.6101 19.6207 29.6101Z" fill="#2CE69D" fill-opacity="0.807843"/>
<path d="M22.8308 27.6189C23.3253 27.643 23.9294 28.0305 24.1432 28.2256C24.6618 28.6961 24.6885 29.3215 24.5842 29.9443C24.48 30.5671 24.0443 31.2166 23.467 31.5267C23.0634 31.7432 22.3898 31.8848 21.8686 31.7485C21.3206 31.6042 20.7139 31.1765 20.5963 30.6473C20.4787 30.1181 20.639 29.1104 20.9464 28.6587C20.9464 28.6587 21.5077 27.5547 22.8308 27.6216V27.6189Z" fill="#FF7140"/>
<path d="M22.3391 27.9022C22.3391 27.9022 21.8446 28.0011 21.7296 28.41C21.612 28.819 21.8392 29.2627 22.3471 29.1264C22.8549 28.9901 23.1142 28.7361 23.173 28.4769C23.2184 28.271 22.9699 27.7872 22.3417 27.9022H22.3391Z" fill="white"/>
<path d="M20.9946 15.8795C20.7247 17.101 19.0461 20.9714 14.8122 20.5999C10.5783 20.2283 11.1289 14.5431 11.1289 14.5431C11.8212 19.7499 14.1092 19.8274 16.603 17.5207C19.0969 15.214 18.5436 10.1381 18.0571 8.82038C17.5733 7.50264 18.4981 8.03455 19.2358 8.62258C19.2358 8.62258 22.1279 10.7636 20.9946 15.8822V15.8795Z" fill="#EBFF32"/>
<path d="M16.0043 20.9899C15.9134 20.9899 15.8279 20.9311 15.8038 20.8429C15.7744 20.7387 15.8412 20.6291 15.9508 20.6024C20.6471 19.4183 20.4761 14.5776 19.9575 11.7978C19.4283 8.96988 18.1373 8.42461 18.1239 8.41926C18.017 8.37649 17.9689 8.26156 18.0116 8.15999C18.0571 8.05842 18.1774 8.01298 18.2843 8.05307C18.3457 8.07713 19.7971 8.68922 20.3665 11.7283C20.9117 14.6418 21.0748 19.7176 16.0577 20.9846C16.039 20.9899 16.023 20.9899 16.0043 20.9899Z" fill="#5BB3FD"/>
<path d="M19.6504 24.2189C19.6504 24.2189 18.5145 24.1735 18.4583 25.5393C18.4102 26.7021 18.3541 28.3058 19.4286 28.4849C20.618 28.68 20.896 27.4211 20.8212 25.9857C20.7704 25.0582 20.6367 24.2857 19.6504 24.2189Z" fill="black"/>
<path d="M18.9315 25.1894C18.9315 25.1894 18.4878 25.2028 18.4423 25.7668C18.3969 26.3307 18.3675 26.9081 18.8112 27.0337C19.2549 27.1593 19.565 26.8359 19.581 26.4296C19.597 26.0207 19.6986 25.1199 18.9288 25.1921L18.9315 25.1894Z" fill="white"/>
<path d="M27.7222 23.5796C27.7918 23.0549 27.9918 22.5563 28.189 22.0663C28.7891 20.582 29.3515 19.1847 29.9516 17.7003C30.0328 17.5003 30.1052 17.2858 30.256 17.1292C30.4821 16.8944 30.9054 16.8335 31.1228 16.8509C31.5084 16.8828 31.9461 17.5032 32.0592 17.8743C32.3085 18.7034 31.9548 19.3122 31.8273 20.1703C31.6678 21.2285 31.1083 22.1968 30.4009 23.0027C29.8182 23.6666 29.137 24.2319 28.4441 24.7769C28.0643 25.0755 27.9541 25.0958 27.7976 24.6001C27.6932 24.2725 27.6787 23.9188 27.7222 23.5825V23.5796Z" fill="#FFC20B"/>
<path d="M27.9804 25.1275L24 24.855L27.0643 26.7886L26.125 28.7223L28.366 29.1659L28.3254 32.7143L31.3868 28.4846L27.9804 25.1275Z" fill="#FF7140"/>
<path d="M31.8186 20.3036C32.9696 20.6022 34.1437 20.5066 35.3033 20.2457C35.6425 20.1703 35.9817 20.0688 36.3267 20.0601C36.6717 20.0514 37.0427 20.1471 37.2776 20.4022C37.5327 20.6834 37.5791 21.0922 37.5704 21.472C37.5617 21.7821 37.5211 22.0981 37.3877 22.3765C37.2544 22.6548 37.0195 22.8983 36.7209 22.9853C37.3761 22.9679 37.9356 23.5825 37.9936 24.2347C38.0516 24.887 37.7008 25.5248 37.208 25.9568C37.5298 26.0409 37.7327 26.3858 37.7385 26.7192C37.7443 27.0526 37.5849 27.3657 37.3848 27.6324C36.9326 28.2354 36.2426 28.7834 35.4917 28.8442C35.4917 28.8442 33.187 29.8734 30.3111 28.6703C27.4353 27.4672 27.6614 23.8637 27.6614 23.8637C27.7832 22.8751 28.0151 22.188 28.5601 21.3328C29.1051 20.4776 30.6677 20.0079 31.8157 20.3036H31.8186Z" fill="#FFC20B"/>
<path d="M30.8388 30.5401L33.735 31.2503C33.9959 31.3141 34.2655 31.0532 34.3322 30.6676L36.8166 16.6478C36.8369 16.5405 36.8369 16.4304 36.8224 16.326L36.2977 12.7863C36.0571 11.9224 35.2743 11.731 34.7583 12.4094L33.0769 15.407C33.0276 15.4969 32.9899 15.5984 32.9725 15.7056L30.488 29.7254C30.4184 30.111 30.5779 30.4763 30.8388 30.5401Z" fill="black"/>
<mask id="mask0_5438_56887" style="mask-type:luminance" maskUnits="userSpaceOnUse" x="30" y="12" width="7" height="20">
<path d="M30.8388 30.5401L33.735 31.2503C33.9959 31.3141 34.2655 31.0532 34.3322 30.6676L36.8166 16.6478C36.8369 16.5405 36.8369 16.4304 36.8224 16.326L36.2977 12.7863C36.0571 11.9224 35.2743 11.731 34.7583 12.4094L33.0769 15.407C33.0276 15.4969 32.9899 15.5984 32.9725 15.7056L30.488 29.7254C30.4184 30.111 30.5779 30.4763 30.8388 30.5401Z" fill="white"/>
</mask>
<g mask="url(#mask0_5438_56887)">
<path d="M35.9675 28.3863C36.0632 28.3631 36.1473 28.2645 36.1705 28.134C36.1995 27.963 36.1183 27.7978 35.9878 27.7659L30.6884 26.4932C30.5579 26.4613 30.4274 26.5744 30.3984 26.7454C30.3695 26.9164 30.4506 27.0817 30.5811 27.1136L35.8806 28.3863C35.9095 28.3921 35.9414 28.3921 35.9675 28.3863Z" fill="white"/>
<path d="M35.4622 27.6408L30.6846 26.4928L32.2588 16.4331L37.0335 17.5029L35.4622 27.6408Z" fill="#FF7140"/>
<path d="M34.7579 31.7405L29.96 30.6997L29.9745 28.0645L34.7608 29.0849L34.7579 31.7405Z" fill="#FF8D8D"/>
<path d="M37.263 17.0535L32.4883 16.033L32.9289 15.3228L37.695 16.3374L37.263 17.0535Z" fill="#FF7140"/>
<path d="M37.8484 16.5406C37.9441 16.5174 38.0281 16.4188 38.0513 16.2883C38.0803 16.1173 37.9991 15.952 37.8687 15.9202L32.5692 14.6475C32.4388 14.6156 32.3083 14.7286 32.2793 14.8997C32.2503 15.0707 32.3315 15.236 32.4619 15.2679L37.7614 16.5406C37.7904 16.5464 37.8223 16.5464 37.8484 16.5406Z" fill="white"/>
<path d="M37.6453 17.7061C37.7409 17.6829 37.825 17.5843 37.8482 17.4539C37.8772 17.2828 37.796 17.1176 37.6656 17.0857L32.3661 15.813C32.2356 15.7811 32.1052 15.8942 32.0762 16.0652C32.0472 16.2363 32.1284 16.4015 32.2588 16.4334L37.5583 17.7061C37.5873 17.7119 37.6192 17.7119 37.6453 17.7061Z" fill="white"/>
<path d="M36.5843 16.0476L36.193 15.5925L35.8219 15.8708L35.5755 15.4562L35.1145 15.6911L34.7985 15.2562L34.3057 15.4504L33.9491 14.9721L33.4708 15.2765C33.4708 15.2765 33.1403 13.711 33.2707 13.5313C33.4592 13.2761 34.6043 13.1863 36.3785 13.7342C36.6916 13.8299 36.6974 14.1662 36.7119 14.3807C36.7293 14.6503 36.8018 15.2968 36.7467 15.7316L36.5872 16.0447L36.5843 16.0476Z" fill="#FFE7BD"/>
<path d="M35.7644 29.5513C35.8601 29.5281 35.9441 29.4295 35.9673 29.2991C35.9963 29.128 35.9152 28.9628 35.7847 28.9309L30.4852 27.6582C30.3548 27.6263 30.2243 27.7394 30.1953 27.9104C30.1663 28.0815 30.2475 28.2467 30.378 28.2786L35.6774 29.5513C35.7064 29.5571 35.7383 29.5571 35.7644 29.5513Z" fill="white"/>
</g>
<path d="M36.6837 20.1675C36.646 20.5328 35.8661 21.014 35.4342 21.1039C34.9558 21.2024 34.4166 21.3068 34.0426 21.3996C33.5121 21.5271 32.9758 21.7417 32.625 22.1417C32.2742 22.5418 32.1669 23.168 32.5003 23.5768C32.7931 23.9334 33.315 24.0319 33.7933 24.0493C33.0163 24.1595 32.5496 24.9538 32.6076 25.6931C32.6221 25.8902 32.854 26.4932 33.6976 26.7367C33.6976 26.7367 32.7815 27.1368 32.9932 28.2819C33.0946 28.8154 33.7005 28.9922 34.2658 29.1198C35.8516 28.969 37.046 28.2993 37.565 27.3832" fill="#FFC20B"/>
<path d="M36.6837 20.1675C36.646 20.5328 35.8661 21.014 35.4342 21.1039C34.9558 21.2024 34.4166 21.3068 34.0426 21.3996C33.5121 21.5271 32.9758 21.7417 32.625 22.1417C32.2742 22.5418 32.1669 23.168 32.5003 23.5768C32.7931 23.9334 33.315 24.0319 33.7933 24.0493C33.0163 24.1595 32.5496 24.9538 32.6076 25.6931C32.6221 25.8902 32.854 26.4932 33.6976 26.7367C33.6976 26.7367 32.7815 27.1368 32.9932 28.2819C33.0946 28.8154 33.7005 28.9922 34.2658 29.1198C35.8516 28.969 37.046 28.2993 37.565 27.3832" stroke="#DD9300" stroke-width="0.181757" stroke-linecap="round" stroke-linejoin="round"/>
<path d="M36.6841 22.9392C36.8493 22.8986 36.9044 23.0204 36.6957 23.1016C35.6897 23.49 35.049 23.8901 33.9155 24.1133C33.6777 24.1597 33.4951 24.1336 33.5096 24.0554C33.5241 23.9771 33.7009 23.9481 33.9387 23.9017C34.9011 23.7133 36.6261 22.9508 36.6841 22.9392Z" fill="#DD9300"/>
<path d="M37.1271 25.8904C37.2924 25.8498 37.3475 25.9716 37.1387 26.0527C36.1328 26.4412 35.1268 26.5746 34.057 26.7746C33.828 26.8181 33.6367 26.7949 33.6512 26.7166C33.6657 26.6383 33.8425 26.6094 34.0802 26.563C35.0427 26.3745 37.0691 25.9049 37.1271 25.8904Z" fill="#DD9300"/>
</g>
<defs>
<clipPath id="clip0_5438_56887">
<path d="M2 2H38V36C38 37.1046 37.1046 38 36 38H4C2.89543 38 2 37.1046 2 36V2Z" fill="white"/>
</clipPath>
</defs>
</svg>
