<svg width="40" height="40" viewBox="0 0 40 40" fill="none" xmlns="http://www.w3.org/2000/svg">
<rect x="1" y="1" width="38" height="38" rx="3" stroke="#5BB3FD" stroke-width="2"/>
<path d="M34.1095 5.80273C33.1764 5.95594 32.3968 6.83581 31.8038 7.6719C30.4891 9.52355 29.328 11.5022 27.8848 13.24C26.4375 14.9778 24.6501 16.4968 22.531 17.0834L21.5771 17.578C21.9172 18.2303 22.8005 18.2215 23.4931 18.0727C25.5707 17.6262 27.5572 16.7244 29.2865 15.4331C30.4767 14.5445 31.6462 13.437 33.0976 13.3013C33.6533 13.2487 34.2339 13.3407 34.7689 13.2181C35.8886 10.7011 35.3163 8.00896 34.1095 5.80273Z" fill="black"/>
<path d="M36.9125 7.47947C36.643 6.59961 35.4694 5.89047 34.5985 5.78541C34.4326 5.7679 34.2709 5.77228 34.1133 5.79854C35.3201 8.00477 35.8924 10.6969 34.7727 13.2139C34.8846 13.1876 34.9966 13.157 35.1044 13.1045C36.0665 12.6667 36.8628 11.3229 36.9996 10.2285C37.1157 9.30924 37.1862 8.35496 36.9125 7.4751V7.47947Z" fill="#2CE69D"/>
<path d="M23.6463 6.79639C22.821 6.93646 22.0372 7.453 21.4359 8.08773C20.0922 9.50602 19.3955 11.4452 18.5081 13.2181C17.9648 14.3124 17.3054 15.3805 16.418 16.1991C15.883 16.6894 14.643 17.4467 14.7343 18.3747C14.8545 19.6004 16.5092 18.4579 16.9612 18.0858C17.9109 17.3066 18.6408 16.2735 19.3997 15.3017C20.3494 14.0804 21.44 12.8635 22.8791 12.417C23.4887 12.2288 24.1398 12.1806 24.7369 11.9705C25.1682 10.1013 25.8235 8.04833 23.6463 6.79639Z" fill="black"/>
<path d="M26.5328 9.12074C26.4291 8.01763 25.5997 7.03271 24.5713 6.80946C24.2602 6.74379 23.9492 6.74817 23.6465 6.8007C25.8278 8.05265 25.1726 10.1057 24.7372 11.9748C24.8491 11.9354 24.9652 11.8917 25.0731 11.8347C26.0186 11.3576 26.6365 10.2239 26.5328 9.12512V9.12074Z" fill="#2CE69D"/>
<path d="M5.12969 18.1166C5.91349 17.1098 7.02489 16.2518 8.17777 16.4751C9.65412 16.7596 10.4421 18.5719 11.3461 19.9595C13.092 22.6516 16.0489 24.2231 18.9518 23.9999C21.8506 23.7766 24.6042 21.7674 26.0308 18.8301C26.404 18.0641 26.6902 17.2455 27.1049 16.5101C27.5196 15.7747 28.1002 15.1181 28.83 14.8861C29.5599 14.6585 30.3561 14.8861 30.9865 15.372C31.6168 15.8579 32.0979 16.5539 32.4919 17.3024C34.5737 21.2728 34.0885 26.819 31.3639 30.2246C28.8839 33.3282 25.023 34.4707 21.3737 34.4357C17.7243 34.4007 14.1495 33.3457 10.5416 32.7329C9.29747 32.5228 8.03262 32.3564 6.84657 31.8836C5.93007 31.5159 5.04675 30.9425 4.38737 30.1064C3.83996 29.406 3.57041 28.4517 3.34232 27.5544C2.81979 25.4882 2.90273 23.2295 3.54138 21.2115C3.89802 20.0777 4.43714 19.0184 5.13384 18.121L5.12969 18.1166Z" fill="#F878F3"/>
<path d="M25.6949 21.172C25.2719 19.5217 24.4425 17.6219 21.3239 16.4706C19.2089 15.687 17.4174 15.7002 16.389 15.814C15.8001 15.8797 15.46 15.976 15.46 15.976C15.46 15.976 14.7343 16.0766 13.7473 16.4443C12.1424 17.0397 9.84908 18.331 8.8289 21.0275C7.18253 25.3874 8.96576 27.3004 10.2928 28.0883C12.188 29.2177 16.1526 30.4565 20.9258 28.2503C24.8655 26.4249 26.1179 22.8223 25.6949 21.172Z" fill="#FFE240"/>
<path d="M17.8945 21.7234C17.8945 21.7234 18.3051 22.5333 19.5451 22.4063C20.785 22.2794 23.041 20.7517 23.2857 18.8956C23.5345 17.0396 22.6222 16.6719 21.942 16.8163C21.2619 16.9608 18.0106 17.6831 17.8945 21.7234Z" fill="#FF7140"/>
<path d="M12.8267 19.2416C12.7231 19.1584 14.9459 21.0626 15.7919 18.3354C15.7919 18.3354 16.9572 21.9643 15.6882 22.9361C14.8588 23.5709 13.9589 23.085 13.8967 22.4021C13.8345 21.7192 14.8588 20.8744 12.8267 19.2416Z" fill="black"/>
<path d="M16.1109 22.3628C16.0487 22.6036 15.887 22.8137 15.7045 22.9538C14.8751 23.5885 13.9006 23.0807 13.884 22.3979C13.8757 22.1308 14.1452 21.75 14.7092 21.6362C15.2732 21.5224 16.2851 21.6756 16.1109 22.3628Z" fill="#FF3F12"/>
<path d="M17.9733 22.0213C17.9733 22.0213 17.9526 22.0213 17.9443 22.0213C17.8282 22.0169 17.7411 21.9162 17.7453 21.7936C17.8116 20.0645 18.3217 18.7251 19.2672 17.8145C20.644 16.4838 22.4314 16.5582 22.5061 16.5626C22.6222 16.567 22.7093 16.672 22.701 16.7902C22.6968 16.9128 22.6014 17.0047 22.4853 17.0003C22.4687 17.0003 20.7933 16.9347 19.5451 18.1429C18.6866 18.9746 18.2222 20.209 18.16 21.8111C18.1558 21.9206 18.0729 22.0081 17.9733 22.0213Z" fill="black"/>
<path d="M21.727 18.3572C20.7109 18.9043 20.599 18.0113 20.7607 17.7662C20.8975 17.5605 21.2003 17.2541 21.8306 17.3372C22.461 17.4204 22.2287 18.0858 21.7228 18.3572H21.727Z" fill="white"/>
<path d="M14.7097 17.0353C14.7097 17.0353 8.37722 13.2444 7.43584 12.6403C7.15384 12.4609 11.558 19.0401 11.558 19.0401L14.8549 17.4949L18.0274 19.1539L25.2142 13.4239L15.112 17.0659L14.7097 17.0353Z" fill="black"/>
<path d="M17.6255 18.0594C17.6255 18.0594 17.5841 18.0594 17.5633 18.0463C17.5136 18.0156 17.497 17.95 17.526 17.8975L18.2849 16.4748C18.3139 16.4223 18.3761 16.4047 18.4259 16.431C18.4757 16.4617 18.4923 16.5273 18.4632 16.5798L17.7043 18.0025C17.6877 18.0332 17.6546 18.055 17.6255 18.0594Z" fill="white"/>
<path d="M18.8857 17.911C18.8857 17.911 18.8484 17.911 18.8276 17.8979C18.7779 17.8716 18.7571 17.8059 18.782 17.749L19.7317 15.823C19.7566 15.7704 19.8188 15.7485 19.8727 15.7748C19.9225 15.8011 19.9432 15.8667 19.9183 15.9236L18.9686 17.8497C18.9521 17.8847 18.9189 17.9066 18.8857 17.9066V17.911Z" fill="white"/>
<path d="M10.7248 16.7375C10.6833 16.7375 10.6418 16.72 10.6211 16.6763C10.5962 16.6237 10.6211 16.5581 10.6709 16.5318L11.8901 15.9102C11.944 15.8839 12.0021 15.9102 12.0269 15.9627C12.0518 16.0153 12.0269 16.0809 11.9772 16.1072L10.7579 16.7288C10.7579 16.7288 10.7331 16.7375 10.7206 16.7375H10.7248Z" fill="white"/>
<path d="M11.4915 17.4556C11.4459 17.46 11.4003 17.4337 11.3837 17.3856C11.3629 17.3287 11.392 17.2674 11.4459 17.2455L12.9554 16.6546C13.0093 16.6327 13.0674 16.6633 13.0881 16.7202C13.1088 16.7771 13.0798 16.8384 13.0259 16.8603L11.5164 17.4513C11.5164 17.4513 11.4998 17.4556 11.4915 17.4556Z" fill="white"/>
</svg>
