<svg width="48" height="48" viewBox="0 0 48 48" fill="none" xmlns="http://www.w3.org/2000/svg">
<path d="M38.1091 9.80273C37.1761 9.95594 36.3964 10.8358 35.8034 11.6719C34.4888 13.5236 33.3276 15.5022 31.8844 17.24C30.4371 18.9778 28.6497 20.4968 26.5306 21.0834L25.5768 21.578C25.9168 22.2303 26.8002 22.2215 27.4927 22.0727C29.5704 21.6262 31.5568 20.7244 33.2861 19.4331C34.4763 18.5445 35.6458 17.437 37.0973 17.3013C37.653 17.2487 38.2336 17.3407 38.7685 17.2181C39.8882 14.7011 39.3159 12.009 38.1091 9.80273Z" fill="black"/>
<path d="M40.9127 11.4795C40.6431 10.5996 39.4695 9.89047 38.5986 9.78541C38.4327 9.7679 38.271 9.77228 38.1134 9.79854C39.3202 12.0048 39.8925 14.6969 38.7728 17.2139C38.8848 17.1876 38.9967 17.157 39.1045 17.1045C40.0667 16.6667 40.8629 15.3229 40.9997 14.2285C41.1159 13.3092 41.1864 12.355 40.9127 11.4751V11.4795Z" fill="#2CE69D"/>
<path d="M27.6463 10.7964C26.821 10.9365 26.0372 11.453 25.4359 12.0877C24.0922 13.506 23.3955 15.4452 22.5081 17.2181C21.9648 18.3124 21.3054 19.3805 20.418 20.1991C19.883 20.6894 18.643 21.4467 18.7343 22.3747C18.8545 23.6004 20.5092 22.4579 20.9612 22.0858C21.9109 21.3066 22.6408 20.2735 23.3997 19.3017C24.3494 18.0804 25.44 16.8635 26.8791 16.417C27.4887 16.2288 28.1398 16.1806 28.7369 15.9705C29.1682 14.1013 29.8235 12.0483 27.6463 10.7964Z" fill="black"/>
<path d="M30.5326 13.1207C30.4289 12.0176 29.5995 11.0327 28.571 10.8095C28.26 10.7438 27.949 10.7482 27.6462 10.8007C29.8276 12.0526 29.1724 14.1057 28.7369 15.9748C28.8489 15.9354 28.965 15.8917 29.0728 15.8347C30.0183 15.3576 30.6363 14.2239 30.5326 13.1251V13.1207Z" fill="#2CE69D"/>
<path d="M9.12969 22.1166C9.91349 21.1098 11.0249 20.2518 12.1778 20.4751C13.6541 20.7596 14.4421 22.5719 15.3461 23.9595C17.092 26.6516 20.0489 28.2231 22.9518 27.9999C25.8506 27.7766 28.6042 25.7674 30.0308 22.8301C30.404 22.0641 30.6902 21.2455 31.1049 20.5101C31.5196 19.7747 32.1002 19.1181 32.83 18.8861C33.5599 18.6585 34.3561 18.8861 34.9865 19.372C35.6168 19.8579 36.0979 20.5539 36.4919 21.3024C38.5737 25.2728 38.0885 30.819 35.3639 34.2246C32.8839 37.3282 29.023 38.4707 25.3737 38.4357C21.7243 38.4007 18.1495 37.3457 14.5416 36.7329C13.2975 36.5228 12.0326 36.3564 10.8466 35.8836C9.93007 35.5159 9.04675 34.9425 8.38737 34.1064C7.83996 33.406 7.57041 32.4517 7.34232 31.5544C6.81979 29.4882 6.90273 27.2295 7.54138 25.2115C7.89802 24.0777 8.43714 23.0184 9.13384 22.121L9.12969 22.1166Z" fill="#F878F3"/>
<path d="M29.6949 25.172C29.2719 23.5217 28.4425 21.6219 25.3239 20.4706C23.2089 19.687 21.4174 19.7002 20.389 19.814C19.8001 19.8797 19.46 19.976 19.46 19.976C19.46 19.976 18.7343 20.0766 17.7473 20.4443C16.1424 21.0397 13.8491 22.331 12.8289 25.0275C11.1825 29.3874 12.9658 31.3004 14.2928 32.0883C16.188 33.2177 20.1526 34.4565 24.9258 32.2503C28.8655 30.4249 30.1179 26.8223 29.6949 25.172Z" fill="#FFE240"/>
<path d="M21.8943 25.7234C21.8943 25.7234 22.3048 26.5333 23.5448 26.4063C24.7848 26.2794 27.0408 24.7517 27.2854 22.8956C27.5343 21.0396 26.6219 20.6719 25.9418 20.8163C25.2617 20.9608 22.0104 21.6831 21.8943 25.7234Z" fill="#FF7140"/>
<path d="M16.8266 23.2416C16.723 23.1584 18.9458 25.0626 19.7918 22.3354C19.7918 22.3354 20.9571 25.9643 19.6881 26.9361C18.8587 27.5709 17.9588 27.085 17.8966 26.4021C17.8344 25.7192 18.8587 24.8744 16.8266 23.2416Z" fill="black"/>
<path d="M20.1111 26.3628C20.0489 26.6036 19.8871 26.8137 19.7046 26.9538C18.8752 27.5885 17.9007 27.0807 17.8841 26.3979C17.8758 26.1308 18.1454 25.75 18.7094 25.6362C19.2734 25.5224 20.2852 25.6756 20.1111 26.3628Z" fill="#FF3F12"/>
<path d="M21.9731 26.0213C21.9731 26.0213 21.9524 26.0213 21.9441 26.0213C21.828 26.0169 21.7409 25.9162 21.745 25.7936C21.8114 24.0645 22.3215 22.7251 23.267 21.8145C24.6438 20.4838 26.4312 20.5582 26.5058 20.5626C26.6219 20.567 26.709 20.672 26.7007 20.7902C26.6966 20.9128 26.6012 21.0047 26.4851 21.0003C26.4685 21.0003 24.7931 20.9347 23.5448 22.1429C22.6864 22.9746 22.2219 24.209 22.1597 25.8111C22.1556 25.9206 22.0726 26.0081 21.9731 26.0213Z" fill="black"/>
<path d="M25.7261 22.3572C24.7101 22.9043 24.5981 22.0113 24.7598 21.7662C24.8967 21.5605 25.1994 21.2541 25.8298 21.3372C26.4601 21.4204 26.2279 22.0858 25.722 22.3572H25.7261Z" fill="white"/>
<path d="M18.7094 21.0353C18.7094 21.0353 12.3769 17.2444 11.4355 16.6403C11.1535 16.4609 15.5576 23.0401 15.5576 23.0401L18.8545 21.4949L22.027 23.1539L29.2138 17.4239L19.1116 21.0659L18.7094 21.0353Z" fill="black"/>
<path d="M21.6247 22.0594C21.6247 22.0594 21.5832 22.0594 21.5625 22.0463C21.5127 22.0156 21.4961 21.95 21.5251 21.8975L22.2841 20.4748C22.3131 20.4223 22.3753 20.4047 22.4251 20.431C22.4748 20.4617 22.4914 20.5273 22.4624 20.5798L21.7035 22.0025C21.6869 22.0332 21.6537 22.055 21.6247 22.0594Z" fill="white"/>
<path d="M22.8855 21.911C22.8855 21.911 22.8481 21.911 22.8274 21.8979C22.7776 21.8716 22.7569 21.8059 22.7818 21.749L23.7315 19.823C23.7563 19.7704 23.8185 19.7485 23.8725 19.7748C23.9222 19.8011 23.943 19.8667 23.9181 19.9236L22.9684 21.8497C22.9518 21.8847 22.9186 21.9066 22.8855 21.9066V21.911Z" fill="white"/>
<path d="M14.724 20.7375C14.6826 20.7375 14.6411 20.72 14.6204 20.6763C14.5955 20.6237 14.6204 20.5581 14.6701 20.5318L15.8894 19.9102C15.9433 19.8839 16.0013 19.9102 16.0262 19.9627C16.0511 20.0153 16.0262 20.0809 15.9764 20.1072L14.7572 20.7288C14.7572 20.7288 14.7323 20.7375 14.7199 20.7375H14.724Z" fill="white"/>
<path d="M15.4913 21.4556C15.4456 21.46 15.4 21.4337 15.3834 21.3856C15.3627 21.3287 15.3917 21.2674 15.4456 21.2455L16.9552 20.6546C17.0091 20.6327 17.0671 20.6633 17.0879 20.7202C17.1086 20.7771 17.0796 20.8384 17.0257 20.8603L15.5161 21.4513C15.5161 21.4513 15.4996 21.4556 15.4913 21.4556Z" fill="white"/>
</svg>
