<svg width="40" height="40" viewBox="0 0 40 40" fill="none" xmlns="http://www.w3.org/2000/svg">
<path d="M33.6599 30.5347C33.6599 30.5347 24.7886 39.6001 20.4819 39.8968C16.1752 40.1963 11.9184 40.2074 9.41145 34.2063C6.90452 28.2052 8.03042 16.3611 8.03042 16.3611C8.03042 16.3611 8.53236 15.1242 9.69986 15.1769C10.8646 15.2268 11.5107 16.3999 11.4303 17.0849C11.4303 17.0849 11.5024 23.0582 11.9295 23.8846C12.3565 24.711 12.6255 23.893 12.6255 23.893L13.8291 13.7515C13.8291 13.7515 14.3726 12.487 15.7758 12.8697C17.1791 13.2551 17.1513 14.2757 17.1513 14.2757L17.1902 24.3006C17.1902 24.6057 17.4009 24.8913 17.706 24.9273C17.9223 24.9551 18.1746 24.8719 18.3937 24.5003C18.9067 23.6323 20.5984 13.208 20.5984 13.208C20.5984 13.208 21.1669 11.7992 22.1181 11.8131C23.0692 11.827 23.7209 13.1858 23.8069 14.1897C23.8818 15.0743 23.133 23.5214 22.9472 25.5569C22.9195 25.873 23.1552 26.1586 23.4741 26.1669C23.8097 26.178 24.2062 26.0089 24.392 25.2573C24.747 23.8125 26.4164 15.0327 26.4164 15.0327C26.4164 15.0327 27.1874 13.7321 28.6294 14.528C30.0715 15.3239 29.5806 16.9268 29.5806 16.9268L27.2844 29.5114C27.2844 29.5114 26.9739 31.1337 28.1497 30.3683C29.9494 29.198 31.6854 27.0405 32.9195 27.5424C33.9317 27.9556 34.8552 29.1176 33.6599 30.5291V30.5347Z" fill="#CCCCCC"/>
<path d="M26.0589 30.8729C26.0312 30.7287 25.948 30.6039 25.826 30.5208C25.704 30.4376 25.557 30.4071 25.4128 30.4348C25.1216 30.4902 18.2553 31.8241 16.1033 33.8707C15.9092 34.0565 15.8759 34.3533 16.0229 34.5751C16.0395 34.6001 16.0589 34.625 16.0811 34.65C16.2891 34.8691 16.6385 34.8802 16.8604 34.6694C18.7739 32.853 25.5514 31.5302 25.618 31.5163C25.9175 31.4581 26.1116 31.1697 26.0562 30.8702L26.0589 30.8729Z" fill="#A5A5A5"/>
<path d="M11.0005 1.92675C10.9589 2.20129 10.5429 2.38154 10.2961 2.22902C9.60835 1.80195 8.71816 1.55792 7.67268 1.95171C6.6993 2.31776 6.30552 3.03878 6.18072 3.77644C6.13358 4.06208 5.67878 4.23679 5.45138 4.05376C4.86902 3.58787 4.0759 3.33828 3.0221 3.69047C1.00324 4.3699 0.673237 6.1364 1.26115 8.06651L2.03763 10.6095C2.24284 11.2778 2.78638 12.4925 3.30219 13.0055C3.98716 13.6877 5.0465 14.3117 6.43308 13.843C7.63663 13.4353 8.01655 12.4592 8.08866 11.5607C8.11361 11.2501 8.62387 11.0615 8.84295 11.2778C9.4891 11.9129 10.4209 12.3483 11.6965 11.8713C12.9528 11.4026 13.5102 10.5318 13.5767 9.47805C13.5961 9.173 14.0953 8.97611 14.3255 9.18132C15.0604 9.83856 16.1086 10.3017 17.4481 9.70822C19.392 8.843 19.4364 7.10146 18.5157 5.30445L16.9988 2.33717C16.7298 1.81027 16.3499 1.33606 15.8618 0.939504C15.0548 0.282266 13.7653 -0.388838 12.2928 0.271173C11.4469 0.651095 11.1003 1.27506 11.0032 1.92675H11.0005Z" fill="#A5A5A5"/>
<path d="M39.3975 21.949C39.1036 21.2807 38.0886 21.1531 36.885 21.3861C36.0891 20.0827 35.3237 19.639 34.5805 19.969C33.915 20.2657 33.8013 21.3001 34.0536 22.5397C33.2023 23.1304 32.6282 23.8597 32.7225 24.4782C32.8889 25.5569 33.9011 25.7594 35.2239 25.4321C35.8395 26.35 36.6022 26.974 37.2344 26.8797C38.3548 26.7133 38.5156 25.6096 38.1163 24.1731C39.3171 23.416 39.7192 22.6784 39.3975 21.949Z" fill="#A5A5A5"/>
<path d="M30.665 13.0528C30.3461 13.0528 30.0272 12.9197 29.7998 12.6618C29.3811 12.1848 29.4282 11.4555 29.9052 11.0367L33.3467 8.0112C33.8236 7.59245 34.553 7.63682 34.9717 8.11658C35.3905 8.59356 35.3433 9.3229 34.8664 9.74165L31.4249 12.7672C31.2058 12.9585 30.934 13.0528 30.665 13.0528Z" fill="#CCCCCC"/>
<path d="M32.9253 16.9904C32.2902 16.9904 31.7772 16.4774 31.7744 15.8423C31.7744 15.2073 32.2847 14.6887 32.9225 14.6887L37.3845 14.6748H37.3873C38.0223 14.6748 38.5354 15.1878 38.5381 15.8229C38.5381 16.4579 38.0279 16.9765 37.3901 16.9765L32.928 16.9904H32.9253Z" fill="#CCCCCC"/>
<path d="M26.9516 10.5515C26.3387 10.5515 25.8285 10.0662 25.8007 9.44777L25.5983 4.65576C25.5705 4.02071 26.0642 3.48549 26.6992 3.45776C27.3065 3.43557 27.8723 3.92365 27.8972 4.5587L28.0997 9.35071C28.1274 9.98577 27.6338 10.521 26.9987 10.5487C26.9821 10.5487 26.9654 10.5487 26.9488 10.5487L26.9516 10.5515Z" fill="#CCCCCC"/>
</svg>
