<svg width="40" height="40" viewBox="0 0 40 40" fill="none" xmlns="http://www.w3.org/2000/svg">
<g clip-path="url(#clip0_15011_35140)">
<path d="M35.5948 14.6582C35.4363 22.0583 35.3507 30.2606 35.5758 35.3748C35.6867 37.8985 33.6956 40.0006 31.2099 40.0006H9.50095C7.24984 40.0006 5.36969 38.2663 5.15092 35.993C4.68802 31.1928 4.00951 22.7781 4 14.6582C5.50238 14.6582 7.4375 14.6646 7.34789 14.6646C7.24326 20.5713 7.84884 26.9949 8.24834 30.5206V30.5238C8.42272 32.0552 9.90972 33.2251 11.6916 33.2251H28.8825C30.8514 33.2251 32.4272 31.8079 32.3384 30.1053C32.145 26.3132 32.3923 14.6646 32.3923 14.6646C32.3923 14.6646 34.0544 14.6582 35.5948 14.6582Z" fill="#CCCCCC"/>
<path d="M10.2047 13.7833L10.7437 1.54175C10.9086 0.492291 11.7932 -0.164018 12.7634 0.0357278L29.3296 3.46946C30.3569 3.68189 31.0988 4.77257 30.9847 5.89812L29.9415 16.1042C29.8337 17.1664 28.9935 17.8861 28.017 17.7497L11.9549 16.3515C10.8357 16.193 10.0145 14.9882 10.2047 13.7833Z" fill="#A5A5A5"/>
<path d="M11.0354 26.7858C11.0068 24.8613 11.0037 22.0458 11.0068 20.1974C11.0068 19.1479 11.771 18.3711 12.719 18.4504L27.6619 19.6964C28.5687 19.7725 29.3264 20.6096 29.3994 21.6146L29.7576 26.4656C29.8337 27.5024 29.1552 28.3521 28.2263 28.3775L12.9568 28.834C11.9453 28.8657 11.0544 27.9177 11.0386 26.789L11.0354 26.7858Z" fill="#CCCCCC"/>
<path d="M20.5121 34.8232C20.3852 34.7947 20.2552 34.782 20.1253 34.7851C19.5704 34.801 18.0929 34.931 17.7505 35.8061C17.5539 36.3134 17.6459 36.8619 17.8012 37.3026C17.9819 37.8162 18.4227 38.1903 18.9585 38.2981L19.8684 38.4789C20.1728 38.5391 20.4899 38.5074 20.7784 38.3869L21.5615 38.054C22.0371 37.8511 22.3827 37.4262 22.4778 36.9189C22.5698 36.4465 22.4334 35.9551 22.1132 35.5968L21.9896 35.4573C21.774 35.2163 21.4886 35.0483 21.1747 34.9754L20.5121 34.8264V34.8232Z" fill="#A5A5A5"/>
</g>
<defs>
<clipPath id="clip0_15011_35140">
<rect width="40" height="40" fill="white"/>
</clipPath>
</defs>
</svg>
