<svg width="40" height="40" viewBox="0 0 40 40" fill="none" xmlns="http://www.w3.org/2000/svg">
<g clip-path="url(#clip0_15011_35136)">
<path d="M35.5916 14.7373H30.4743C30.3507 20.048 30.2651 26.3226 30.4299 30.0956C30.5029 31.7855 29.168 33.1964 27.5035 33.1964H12.9442C11.435 33.1964 10.1763 32.0328 10.0273 30.5109C9.68801 27.0011 9.17755 20.6124 9.26316 14.7373H4C4.00951 22.8572 4.68802 31.2719 5.15092 36.0721C5.36969 38.3454 7.24984 40.0797 9.50095 40.0797H31.2099C33.6956 40.0797 35.6867 37.9776 35.5758 35.4539C35.3507 30.3397 35.4363 22.1374 35.5948 14.7373H35.5916Z" fill="#FFD000"/>
<path d="M8.24834 30.6029C8.42272 32.1343 9.90972 33.3042 11.6916 33.3042H28.8825C30.8514 33.3042 32.4272 31.887 32.3384 30.1844C32.145 26.3924 32.2433 20.0829 32.3923 14.7437H7.34789C7.24326 20.6504 7.84884 27.074 8.24834 30.5997V30.6029Z" fill="white"/>
<path d="M10.2047 13.8625L10.7437 1.62085C10.9086 0.571392 11.7932 -0.0849169 12.7634 0.114829L29.3296 3.54856C30.3569 3.76099 31.0988 4.85167 30.9847 5.97723L29.9415 16.1833C29.8337 17.2455 28.9935 17.9652 28.017 17.8288L11.9549 16.4306C10.8357 16.2721 10.0145 15.0673 10.2047 13.8625Z" fill="#FF1D46"/>
<path d="M11.0354 26.8649C11.0068 24.9404 11.0037 22.1249 11.0068 20.2765C11.0068 19.227 11.771 18.4502 12.719 18.5295L27.6619 19.7755C28.5687 19.8516 29.3264 20.6887 29.3994 21.6937L29.7576 26.5447C29.8337 27.5815 29.1552 28.4312 28.2263 28.4566L12.9568 28.9131C11.9453 28.9448 11.0544 27.9968 11.0386 26.8681L11.0354 26.8649Z" fill="#FF577B"/>
<path d="M20.5121 34.9023C20.3852 34.8738 20.2552 34.8611 20.1253 34.8642C19.5704 34.8801 18.0929 35.0101 17.7505 35.8852C17.5539 36.3925 17.6459 36.941 17.8012 37.3817C17.9819 37.8953 18.4227 38.2694 18.9585 38.3772L19.8684 38.558C20.1728 38.6182 20.4899 38.5865 20.7784 38.466L21.5615 38.1331C22.0371 37.9302 22.3827 37.5053 22.4778 36.998C22.5698 36.5256 22.4334 36.0342 22.1132 35.6759L21.9896 35.5364C21.774 35.2954 21.4886 35.1274 21.1747 35.0545L20.5121 34.9055V34.9023Z" fill="#FF1D46"/>
</g>
<defs>
<clipPath id="clip0_15011_35136">
<rect width="40" height="40" fill="white"/>
</clipPath>
</defs>
</svg>
