<svg width="40" height="40" viewBox="0 0 40 40" fill="none" xmlns="http://www.w3.org/2000/svg">
<path d="M1.34863 9.87635V1.8803C1.34863 1.39501 1.74364 1 2.22893 1H10.05C10.5353 1 10.9304 1.39501 10.9304 1.8803V4.99802C10.9304 5.48332 10.5353 5.87832 10.05 5.87832H7.02261C6.53732 5.87832 6.14231 6.27333 6.14231 6.75862V9.87635C6.14231 10.3616 5.74731 10.7566 5.26201 10.7566H2.22893C1.74364 10.7566 1.34863 10.3616 1.34863 9.87635Z" fill="#CCCCCC"/>
<path d="M40.0002 9.51802V1.8803C40.0002 1.39501 39.6052 1 39.1199 1H31.2988C30.8135 1 30.4185 1.39501 30.4185 1.8803V4.81745C30.4185 5.30274 30.8135 5.69775 31.2988 5.69775H36.1827C36.6934 5.69775 37.0969 6.12944 37.063 6.6373L36.8712 9.45595C36.8373 9.96381 37.2408 10.3955 37.7515 10.3955H39.1199C39.6052 10.3955 40.0002 10.0005 40.0002 9.5152V9.51802Z" fill="#CCCCCC"/>
<path d="M39.1199 39.513H27.7861C27.3008 39.513 26.9058 39.118 26.9058 38.6327V36.4602C26.9058 36.0116 27.2443 35.6335 27.6901 35.5855L33.8917 34.9027C34.3375 34.8548 34.6761 34.4767 34.6761 34.0281V29.288C34.6761 28.8027 35.0711 28.4077 35.5564 28.4077H39.1171C39.6024 28.4077 39.9974 28.8027 39.9974 29.288V38.6355C39.9974 39.1208 39.6024 39.5158 39.1171 39.5158L39.1199 39.513Z" fill="#CCCCCC"/>
<path d="M12.279 38.6329V36.5168C12.279 36.0315 11.884 35.6365 11.3987 35.6365H5.67962C5.23383 35.6365 4.85575 35.3036 4.80497 34.8578L4.13628 29.2177C4.08267 28.7747 3.70741 28.439 3.26162 28.439H0.880299C0.395006 28.4418 0 28.8368 0 29.3221V38.6329C0 39.1182 0.395006 39.5132 0.880299 39.5132H11.3987C11.884 39.5132 12.279 39.1182 12.279 38.6329Z" fill="#CCCCCC"/>
<path d="M29.8343 25.2422L24.6005 20.6263C24.6851 20.6263 24.7641 20.6263 24.8431 20.6263C29.4026 20.6517 29.4026 15.7593 29.4026 15.7593C29.3349 9.85956 24.3494 9.67334 24.3494 9.67334L15.8257 9.69873C15.8257 9.69873 11.0602 9.25294 11.0546 15.1526C11.0546 17.5622 12.0026 18.9475 12.9168 19.7234C13.6391 20.3357 14.4319 20.6319 15.2332 20.6291C15.2811 20.6291 15.3348 20.6291 15.3855 20.6291L9.41249 27.3753C8.45883 28.4502 8.6789 30.1347 9.89496 30.9021C11.2493 31.757 13.1368 32.1746 15.0159 30.0528C15.0159 30.0528 15.7241 28.9242 17.1574 30.1967C18.5907 31.4664 20.4106 31.5172 22.5493 29.102C22.5493 29.102 23.1361 28.0383 24.3437 29.1076C25.3312 29.9823 27.9693 31.0206 30.0515 28.6901C30.9516 27.6856 30.85 26.1366 29.8399 25.245L29.8343 25.2422Z" fill="#A5A5A5"/>
<path d="M17.9332 17.7768C17.0924 17.568 16.356 16.3632 16.356 14.4362C16.356 12.6219 16.7735 11.5611 17.6623 11.341C18.8163 11.0589 19.7784 12.1056 19.5865 15.181C19.4765 16.9416 18.6893 17.9686 17.9332 17.7768Z" fill="white"/>
<path d="M18.3733 17.1304C17.7526 16.9639 17.208 15.999 17.208 14.4584C17.208 13.0082 17.5155 12.1589 18.173 11.984C19.025 11.7583 19.736 12.5963 19.5922 15.0538C19.5103 16.4617 18.9319 17.2827 18.3733 17.1304Z" fill="#A5A5A5"/>
<path d="M21.6095 17.7768C20.8393 17.568 20.1621 16.3632 20.1621 14.4362C20.1621 12.6219 20.5458 11.5611 21.3612 11.341C22.4193 11.0589 23.3024 12.1056 23.1247 15.181C23.0231 16.9416 22.3036 17.9686 21.6095 17.7768Z" fill="white"/>
<path d="M21.9114 17.1304C21.2906 16.9639 20.7461 15.999 20.7461 14.4584C20.7461 13.0082 21.0536 12.1589 21.711 11.984C22.5631 11.7583 23.2741 12.5963 23.1302 15.0538C23.0484 16.4617 22.47 17.2827 21.9114 17.1304Z" fill="#A5A5A5"/>
</svg>
