<svg width="40" height="40" viewBox="0 0 40 40" fill="none" xmlns="http://www.w3.org/2000/svg">
<g clip-path="url(#clip0_15011_35138)">
<path d="M6.45278 30.6501C4.05833 30.6501 2.14167 30.4474 1.16389 29.9585C0.113889 29.4335 0 28.6057 0 28.2751C0 27.114 0.541666 25.4724 3.12778 24.2474C4.45833 23.6168 5.77778 23.3668 5.83333 23.3585L5.88889 23.3501L32.5778 19.5807C36.5222 18.9668 38.3833 19.264 39.0056 20.6057C39.5083 21.6946 38.8083 22.8418 37.9861 23.5501L37.9222 23.6029C33.2917 27.0946 22.7056 28.9807 18.3694 29.6279C14.3333 30.2307 9.90278 30.6529 6.45833 30.6529L6.45278 30.6501ZM2.72222 27.7835C4.44167 28.214 10.075 28.2196 17.6944 27.1001C26.0111 25.8807 32.7167 23.9418 35.8778 21.8612C35.275 21.8612 34.3611 21.9224 32.9639 22.139H32.9444L6.27778 25.9085C5.26667 26.1029 3.25556 26.8001 2.72222 27.7807V27.7835Z" fill="#FF7800"/>
<path d="M18.8997 38.7279C11.7636 37.8584 5.50244 32.864 5.50244 24.8584C5.50244 17.3279 9.04411 12.9251 16.5997 12.0168C26.3886 10.8418 34.5663 15.1862 32.9247 27.9501C31.9858 35.2612 25.3163 39.5223 18.8969 38.7279H18.8997Z" fill="#FFD000"/>
<path d="M18.8997 38.7279C11.7636 37.8584 5.50244 32.864 5.50244 24.8584C5.50244 17.3279 9.04411 12.9251 16.5997 12.0168C26.3886 10.8418 34.5663 15.1862 32.9247 27.9501C31.9858 35.2612 25.3163 39.5223 18.8969 38.7279H18.8997Z" fill="#FFD000"/>
<mask id="mask0_15011_35138" style="mask-type:luminance" maskUnits="userSpaceOnUse" x="5" y="11" width="29" height="28">
<path d="M18.8997 38.7279C11.7636 37.8584 5.50244 32.864 5.50244 24.8584C5.50244 17.3279 9.04411 12.9251 16.5997 12.0168C26.3886 10.8418 34.5663 15.1862 32.9247 27.9501C31.9858 35.2612 25.3163 39.5223 18.8969 38.7279H18.8997Z" fill="white"/>
</mask>
<g mask="url(#mask0_15011_35138)">
<path d="M-3.21119 24.0528C0.461031 23.1445 4.03325 21.9056 7.62214 20.7223C11.2471 19.5251 14.8916 18.4306 18.6444 17.7139C22.4944 16.9778 26.3916 16.5028 30.2194 15.6473C34.0471 14.7917 37.536 13.7056 41.1555 12.6056C45.2083 11.3751 49.2749 10.1667 53.4471 9.40006C53.8305 9.33061 54.0471 8.86672 53.9499 8.51394C53.8388 8.11117 53.4471 7.93894 53.0638 8.01117C45.6027 9.38061 38.5138 12.1695 31.1582 13.9501C27.3582 14.8695 23.4888 15.3917 19.6416 16.0695C15.8555 16.7389 12.1749 17.7278 8.51936 18.9139C4.49714 20.2167 0.513809 21.6473 -3.59452 22.6639C-4.49452 22.8862 -4.11397 24.2778 -3.21119 24.0528Z" fill="#FFB400"/>
<path d="M1.58866 27.3583C8.48866 25.2194 15.5553 23.675 22.6164 22.1805C29.6359 20.6944 36.6748 19.2583 43.5859 17.3222C47.4053 16.25 51.1831 15.0222 54.8664 13.5472C55.2276 13.4028 55.4803 13.0666 55.3692 12.6611C55.2748 12.3194 54.847 12.0111 54.4831 12.1583C47.8637 14.8139 40.9553 16.6583 34.0137 18.2472C26.9887 19.8555 19.9053 21.2083 12.8859 22.85C8.96088 23.7666 5.05533 24.7778 1.20533 25.9722C0.321994 26.2472 0.699772 27.6361 1.58866 27.3611V27.3583Z" fill="#FFB400"/>
<path d="M55.186 20.4082C46.886 20.8443 38.8193 22.986 30.961 25.5693C23.0387 28.1749 15.2582 31.2138 7.21651 33.4415C2.38318 34.7804 -2.51682 35.8443 -7.42238 36.8777C-8.32794 37.0693 -7.9446 38.4582 -7.03905 38.2665C-2.68071 37.3471 1.67206 36.4054 5.97762 35.2693C10.036 34.1971 14.0304 32.9165 17.9998 31.5582C25.8054 28.8888 33.5415 25.9415 41.5637 23.9693C46.036 22.8693 50.586 22.0888 55.1887 21.8471C56.111 21.7999 56.1165 20.3582 55.1887 20.4054L55.186 20.4082Z" fill="#FFB400"/>
<path d="M11.4803 39.3529C16.1886 36.5085 21.5914 35.0196 26.9442 33.9418C32.7664 32.7696 38.6803 32.1446 44.522 31.0863C47.8275 30.4863 51.1136 29.7474 54.3081 28.6974C55.1859 28.4085 54.8081 27.0168 53.9248 27.3085C48.1803 29.1974 42.1775 30.0752 36.2164 30.9557C30.4831 31.8029 24.7164 32.6641 19.1775 34.4168C16.2525 35.3418 13.3859 36.5196 10.7553 38.1085C9.96365 38.5863 10.6859 39.8335 11.4831 39.3529H11.4803Z" fill="#FFB400"/>
</g>
<path d="M18.3641 10.2498C18.2113 8.26367 17.1307 5.38867 14.5891 5.38867C12.9613 5.38867 11.9752 6.75812 11.3863 8.18867C10.7974 6.75534 9.81128 5.38867 8.1835 5.38867C5.93628 5.38867 5.01128 7.60256 4.57239 9.38867C4.47516 9.78312 4.40016 11.5609 4.42239 11.9664C4.67239 16.672 6.22794 22.2553 11.3918 22.2553C16.5557 22.2553 18.2335 14.2637 18.3946 11.6164C18.3974 11.5526 18.3668 10.2776 18.3641 10.2498Z" fill="#A33EFF"/>
<path d="M3.91381 7.06643C3.82214 7.06643 3.7277 7.04976 3.63325 7.01643C3.21381 6.86087 2.99714 6.39976 3.14714 5.97754C3.19436 5.84976 4.31381 2.85254 7.63325 2.85254C7.66381 2.85254 7.69436 2.85254 7.72492 2.85254C8.17492 2.86087 8.53325 3.23032 8.52492 3.68032C8.51659 4.12476 8.15547 4.48032 7.71103 4.48032C7.68603 4.48032 7.66103 4.48032 7.63881 4.48032C5.47214 4.48032 4.70825 6.45254 4.67492 6.53587C4.5527 6.86365 4.24159 7.06643 3.91103 7.06643H3.91381Z" fill="#C8AAFF"/>
<path d="M1.22216 7.1361H1.21105C0.761045 7.13054 0.402711 6.7611 0.408267 6.31387C0.408267 6.21387 0.474934 3.84165 3.7166 1.62499C6.41938 -0.225014 8.84438 0.35832 8.94993 0.386097C9.38605 0.497208 9.64993 0.938875 9.53882 1.37499C9.42771 1.8111 8.98327 2.07221 8.54993 1.96388C8.48049 1.94721 6.70549 1.55276 4.63327 2.96943C2.12216 4.6861 2.03327 6.31943 2.03327 6.3361C2.02771 6.78332 1.66382 7.13888 1.21938 7.13888L1.22216 7.1361Z" fill="#C8AAFF"/>
<path d="M6.45278 30.6502C4.05833 30.6502 2.14167 30.4474 1.16389 29.9585C0.113889 29.4335 0 28.6058 0 28.2752H2.59444C2.59444 27.9224 2.39722 27.6863 2.30278 27.628C3.22222 28.2002 9.23611 28.3447 17.7 27.103C26.4583 25.8169 33.4333 23.7335 36.3583 21.5308L37.9194 23.6002C33.2889 27.0919 22.7028 28.978 18.3667 29.6252C14.3306 30.228 9.9 30.6502 6.45556 30.6502H6.45278Z" fill="#FF7800"/>
<path d="M34.3583 30.3777C33.9055 31.8471 33.1444 33.5416 31.8944 34.5888C31.5278 34.8971 31.5667 35.7166 31.9722 35.8943C32.9833 36.3443 34.1055 37.3082 34.6472 39.3555C34.8028 39.9499 35.3528 39.9777 35.5222 39.3943C35.9361 37.9805 36.6167 36.3138 37.6778 35.386C38.0139 35.0916 37.9833 34.3499 37.625 34.1193C36.7528 33.5666 35.7194 32.4999 35.2389 30.4527C35.0944 29.8416 34.5389 29.786 34.3583 30.3749V30.3777Z" fill="#C8AAFF"/>
</g>
<defs>
<clipPath id="clip0_15011_35138">
<rect width="40" height="40" fill="white"/>
</clipPath>
</defs>
</svg>
