<svg width="40" height="40" viewBox="0 0 40 40" fill="none" xmlns="http://www.w3.org/2000/svg">
<g clip-path="url(#clip0_15011_35142)">
<path d="M6.45278 30.3728C4.05833 30.3728 2.14167 30.17 1.16389 29.6811C0.113889 29.1561 0 28.3283 0 27.9978C0 26.8367 0.541666 25.195 3.12778 23.97C4.45833 23.3395 5.77778 23.0895 5.83333 23.0811L5.88889 23.0728L32.5778 19.3033C36.5222 18.6895 38.3833 18.9867 39.0056 20.3283C39.5083 21.4172 38.8083 22.5645 37.9861 23.2728L37.9222 23.3256C33.2917 26.8172 22.7056 28.7034 18.3694 29.3506C14.3333 29.9534 9.90278 30.3756 6.45833 30.3756L6.45278 30.3728ZM2.72222 27.5061C4.44167 27.9367 10.075 27.9422 17.6944 26.8228C26.0111 25.6033 32.7167 23.6645 35.8778 21.5839C35.275 21.5839 34.3611 21.645 32.9639 21.8617H32.9444L6.27778 25.6311C5.26667 25.8256 3.25556 26.5228 2.72222 27.5034V27.5061Z" fill="#A5A5A5"/>
<path d="M18.8997 38.4505C11.7636 37.5811 5.50244 32.5866 5.50244 24.5811C5.50244 17.0505 9.04411 12.6478 16.5997 11.7394C26.3886 10.5644 34.5663 14.9089 32.9247 27.6728C31.9858 34.9839 25.3163 39.245 18.8969 38.4505H18.8997Z" fill="#CCCCCC"/>
<mask id="mask0_15011_35142" style="mask-type:luminance" maskUnits="userSpaceOnUse" x="5" y="11" width="29" height="28">
<path d="M18.8997 38.4505C11.7636 37.5811 5.50244 32.5866 5.50244 24.5811C5.50244 17.0505 9.04411 12.6478 16.5997 11.7394C26.3886 10.5644 34.5663 14.9089 32.9247 27.6728C31.9858 34.9839 25.3163 39.245 18.8969 38.4505H18.8997Z" fill="white"/>
</mask>
<g mask="url(#mask0_15011_35142)">
<path d="M-3.21119 23.7755C0.461031 22.8672 4.03325 21.6283 7.62214 20.4449C11.2471 19.2477 14.8916 18.1533 18.6444 17.4366C22.4944 16.7005 26.3916 16.2255 30.2194 15.3699C34.0471 14.5144 37.536 13.4283 41.1555 12.3283C45.2083 11.0977 49.2749 9.88938 53.4471 9.12271C53.8305 9.05327 54.0471 8.58938 53.9499 8.2366C53.8388 7.83382 53.4471 7.6616 53.0638 7.73382C45.6027 9.10327 38.5138 11.8922 31.1582 13.6727C27.3582 14.5922 23.4888 15.1144 19.6416 15.7922C15.8555 16.4616 12.1749 17.4505 8.51936 18.6366C4.49714 19.9394 0.513809 21.3699 -3.59452 22.3866C-4.49452 22.6088 -4.11397 24.0005 -3.21119 23.7755Z" fill="#E5E5E5"/>
<path d="M1.58866 27.081C8.48866 24.9421 15.5553 23.3976 22.6164 21.9032C29.6359 20.4171 36.6748 18.981 43.5859 17.0449C47.4053 15.9726 51.1831 14.7449 54.8664 13.2699C55.2276 13.1254 55.4803 12.7893 55.3692 12.3837C55.2748 12.0421 54.847 11.7337 54.4831 11.881C47.8637 14.5365 40.9553 16.381 34.0137 17.9699C26.9887 19.5782 19.9053 20.931 12.8859 22.5726C8.96088 23.4893 5.05533 24.5004 1.20533 25.6949C0.321994 25.9699 0.699772 27.3587 1.58866 27.0837V27.081Z" fill="#E5E5E5"/>
<path d="M55.186 20.1309C46.886 20.567 38.8193 22.7086 30.961 25.292C23.0387 27.8975 15.2582 30.9364 7.21651 33.1642C2.38318 34.5031 -2.51682 35.567 -7.42238 36.6003C-8.32794 36.792 -7.9446 38.1809 -7.03905 37.9892C-2.68071 37.0698 1.67206 36.1281 5.97762 34.992C10.036 33.9198 14.0304 32.6392 17.9998 31.2809C25.8054 28.6114 33.5415 25.6642 41.5637 23.692C46.036 22.592 50.586 21.8114 55.1887 21.5698C56.111 21.5225 56.1165 20.0809 55.1887 20.1281L55.186 20.1309Z" fill="#E5E5E5"/>
<path d="M11.4803 39.0756C16.1886 36.2312 21.5914 34.7423 26.9442 33.6645C32.7664 32.4923 38.6803 31.8673 44.522 30.8089C47.8275 30.2089 51.1136 29.47 54.3081 28.42C55.1859 28.1312 54.8081 26.7395 53.9248 27.0312C48.1803 28.92 42.1775 29.7978 36.2164 30.6784C30.4831 31.5256 24.7164 32.3867 19.1775 34.1395C16.2525 35.0645 13.3859 36.2423 10.7553 37.8312C9.96365 38.3089 10.6859 39.5562 11.4831 39.0756H11.4803Z" fill="#E5E5E5"/>
</g>
<path d="M18.3641 9.97244C18.2113 7.98633 17.1307 5.11133 14.5891 5.11133C12.9613 5.11133 11.9752 6.48077 11.3863 7.91133C10.7974 6.47799 9.81128 5.11133 8.1835 5.11133C5.93628 5.11133 5.01128 7.32522 4.57239 9.11133C4.47516 9.50577 4.40016 11.2836 4.42239 11.6891C4.67239 16.3947 6.22794 21.978 11.3918 21.978C16.5557 21.978 18.2335 13.9863 18.3946 11.3391C18.3974 11.2752 18.3668 10.0002 18.3641 9.97244Z" fill="#A5A5A5"/>
<path d="M3.91381 6.78908C3.82214 6.78908 3.7277 6.77242 3.63325 6.73908C3.21381 6.58353 2.99714 6.12242 3.14714 5.7002C3.19436 5.57242 4.31381 2.5752 7.63325 2.5752C7.66381 2.5752 7.69436 2.5752 7.72492 2.5752C8.17492 2.58353 8.53325 2.95297 8.52492 3.40297C8.51659 3.84742 8.15547 4.20297 7.71103 4.20297C7.68603 4.20297 7.66103 4.20297 7.63881 4.20297C5.47214 4.20297 4.70825 6.1752 4.67492 6.25853C4.5527 6.58631 4.24159 6.78908 3.91103 6.78908H3.91381Z" fill="#CCCCCC"/>
<path d="M1.22216 6.85875H1.21105C0.761045 6.8532 0.402711 6.48375 0.408267 6.03653C0.408267 5.93653 0.474934 3.56431 3.7166 1.34764C6.41938 -0.502357 8.84438 0.0809758 8.94993 0.108754C9.38605 0.219865 9.64993 0.661531 9.53882 1.09764C9.42771 1.53375 8.98327 1.79486 8.54993 1.68653C8.48049 1.66986 6.70549 1.27542 4.63327 2.69209C2.12216 4.40875 2.03327 6.04209 2.03327 6.05875C2.02771 6.50598 1.66382 6.86153 1.21938 6.86153L1.22216 6.85875Z" fill="#CCCCCC"/>
<path d="M6.45278 30.3729C4.05833 30.3729 2.14167 30.1701 1.16389 29.6812C0.113889 29.1562 0 28.3284 0 27.9979H2.59444C2.59444 27.6451 2.39722 27.409 2.30278 27.3506C3.22222 27.9229 9.23611 28.0673 17.7 26.8256C26.4583 25.5395 33.4333 23.4562 36.3583 21.2534L37.9194 23.3229C33.2889 26.8145 22.7028 28.7006 18.3667 29.3479C14.3306 29.9506 9.9 30.3729 6.45556 30.3729H6.45278Z" fill="#A5A5A5"/>
<path d="M34.3583 30.1003C33.9055 31.5698 33.1444 33.2642 31.8944 34.3114C31.5278 34.6198 31.5667 35.4392 31.9722 35.617C32.9833 36.067 34.1055 37.0309 34.6472 39.0781C34.8028 39.6726 35.3528 39.7003 35.5222 39.117C35.9361 37.7031 36.6167 36.0364 37.6778 35.1087C38.0139 34.8142 37.9833 34.0726 37.625 33.842C36.7528 33.2892 35.7194 32.2226 35.2389 30.1753C35.0944 29.5642 34.5389 29.5087 34.3583 30.0976V30.1003Z" fill="#CCCCCC"/>
</g>
<defs>
<clipPath id="clip0_15011_35142">
<rect width="40" height="40" fill="white"/>
</clipPath>
</defs>
</svg>
