<svg width="40" height="29" viewBox="0 0 40 29" fill="none" xmlns="http://www.w3.org/2000/svg">
<g clip-path="url(#clip0_7467_7151)">
<path d="M1.77117 22.6208C1.71125 22.6208 1.65546 22.5815 1.64099 22.5237C1.35171 21.4078 4.12472 19.9924 6.50307 19.0006C9.80299 17.6244 14.3055 16.2358 19.1779 15.0952C28.1954 12.9813 37.8266 11.9688 38.3349 13.9277C38.3535 13.9959 38.308 14.0662 38.2357 14.0827C38.1634 14.0992 38.091 14.0579 38.0724 13.9897C37.7129 12.597 30.0592 12.8098 19.2399 15.3432C14.382 16.4817 9.89598 17.8641 6.60845 19.2341C3.47589 20.542 1.71538 21.7488 1.89928 22.4637C1.91788 22.5319 1.87242 22.6022 1.8001 22.6187C1.78977 22.6208 1.77944 22.6228 1.76704 22.6228L1.77117 22.6208Z" fill="#2CE69D"/>
<path d="M16.9666 5.62654C16.9666 5.62654 15.983 6.43448 14.9974 8.01109C14.0138 9.58563 12.4475 12.3111 12.6252 14.737C12.6252 14.737 5.86832 16.0987 5.51085 16.2268C5.15337 16.3549 4.39296 16.7806 5.24223 17.4604C6.09149 18.1423 10.3874 21.7171 10.3874 21.7171C10.3874 21.7171 8.10616 26.5709 7.92639 26.8684C7.74662 27.166 7.34368 28.3148 8.90996 27.9326C10.4762 27.5503 21.7977 23.335 21.7977 23.335C21.7977 23.335 33.9704 25.3331 34.551 25.5067C35.3342 25.7402 35.7371 25.1658 35.0201 24.4632C34.3568 23.8144 30.4328 19.4606 30.4328 19.4606C30.4328 19.4606 34.6833 16.5657 35.1317 16.1834C35.5801 15.8011 36.5182 15.2474 34.6399 14.6936C32.7595 14.1398 27.168 12.65 27.168 12.65C27.168 12.65 26.0502 7.45525 23.0953 4.77522C22.6201 4.39501 22.0208 4.052 22.3349 4.90333C22.649 5.75466 23.0065 9.03186 21.3947 10.5237C19.783 12.0136 18.3076 12.0136 17.8592 8.64958C17.8138 7.79826 17.8365 6.37249 18.1051 5.62654C18.1051 5.62654 18.1754 5.38065 18.2498 5.18022C18.3428 4.92813 18.4233 4.71323 18.1485 4.79795C17.6567 4.94672 16.9624 5.62861 16.9624 5.62861L16.9666 5.62654Z" fill="#EDFF4A"/>
<path d="M27.1702 12.65C27.1702 12.65 26.0524 7.45525 23.0975 4.77522C22.6222 4.39501 22.023 4.052 22.3371 4.90333C22.6512 5.75466 23.0087 9.03185 21.3969 10.5237C19.7852 12.0136 18.3098 12.0136 17.8614 8.64958C17.816 7.79826 17.8387 6.37249 18.1073 5.62654C18.1073 5.62654 18.1776 5.38065 18.252 5.18022C18.3449 4.92813 18.4255 4.71323 18.1507 4.79795C17.6589 4.94672 16.9646 5.62861 16.9646 5.62861C16.9646 5.62861 15.9811 6.43654 14.9954 8.01315C14.0119 9.5877 12.4456 12.3132 12.6233 14.7391C12.6233 14.7391 15.6257 17.229 20.0517 17.4315C25.6556 17.6877 27.0649 13.2162 27.1661 12.6521L27.1702 12.65Z" fill="#5BB3FD"/>
<path d="M24.2299 9.45588C24.0543 10.2452 22.9716 12.7455 20.2357 12.5058C17.4999 12.2661 17.8574 8.59215 17.8574 8.59215C18.3058 11.9561 19.7832 12.0037 21.3929 10.5138C23.0046 9.02401 22.6451 5.74682 22.3331 4.89342C22.021 4.04003 22.6182 4.3851 23.0935 4.76531C23.0935 4.76531 24.9614 6.14975 24.2279 9.45381L24.2299 9.45588Z" fill="#EDFF4A"/>
<path d="M20.0623 12.2683C19.1593 12.2683 18.3473 11.7414 18.027 11.2248C17.9898 11.1648 18.0105 11.0863 18.0745 11.0491C18.1386 11.014 18.2212 11.0326 18.2584 11.0946C18.5105 11.4996 19.2668 12.0513 20.1553 12.01C21.0666 11.9687 21.8559 11.3157 22.4407 10.1255C23.8706 7.2099 22.2733 4.58772 22.2568 4.56086C22.2196 4.50094 22.2402 4.42242 22.3043 4.38522C22.3683 4.34803 22.451 4.36869 22.4882 4.43068C22.5047 4.45754 24.1743 7.19543 22.6845 10.2329C21.891 11.8529 20.8785 12.2311 20.1698 12.2641C20.1346 12.2641 20.0995 12.2662 20.0644 12.2662L20.0623 12.2683Z" fill="#5BB3FD"/>
<path d="M21.0067 12.7541C20.9468 12.7541 20.893 12.7169 20.8765 12.6591C20.8579 12.5909 20.8992 12.5206 20.9716 12.502C24.0049 11.7375 23.8934 8.61112 23.5586 6.81548C23.2177 4.98884 22.3829 4.63757 22.3746 4.63343C22.3064 4.60657 22.2734 4.53218 22.3023 4.46606C22.3312 4.40201 22.4097 4.37101 22.4779 4.39787C22.5172 4.4144 23.4553 4.80907 23.8231 6.77002C24.1744 8.65244 24.2818 11.9317 21.0398 12.7479C21.0274 12.75 21.017 12.752 21.0046 12.752L21.0067 12.7541Z" fill="#5BB3FD"/>
<path d="M5.53599 23.6388C3.30849 23.6388 1.84553 23.3227 1.65749 22.5892C1.63889 22.521 1.68435 22.4507 1.75667 22.4342C1.829 22.4176 1.90132 22.459 1.91991 22.5272C2.27946 23.9199 9.93314 23.707 20.7524 21.1737C25.6104 20.0352 30.0964 18.6528 33.3839 17.2828C36.5165 15.9748 38.277 14.7681 38.0931 14.0531C38.0745 13.985 38.1199 13.9147 38.1923 13.8982C38.2646 13.8816 38.3369 13.923 38.3555 13.9912C38.6448 15.107 35.8718 16.5224 33.4934 17.5142C30.1935 18.8904 25.691 20.279 20.8186 21.4196C15.1692 22.7441 9.27811 23.6368 5.54012 23.6368L5.53599 23.6388Z" fill="#2CE69D"/>
<path d="M17.1753 14.1325C17.1753 14.1325 15.9459 14.1366 15.7351 15.5624C15.5243 16.9882 15.545 19.2363 16.7476 19.6165C17.9502 19.9988 18.7726 19.0752 18.8573 18.011C18.9421 16.9468 19.1797 14.0519 17.1753 14.1325Z" fill="white"/>
<path d="M17.287 19.8303C17.0989 19.8303 16.9047 19.7993 16.7063 19.7352C15.4913 19.3488 15.3529 17.2349 15.6029 15.5406C15.8199 14.0714 17.0804 14.0032 17.1692 14.0011C17.6507 13.9825 18.0474 14.1231 18.3491 14.4206C19.2087 15.2657 19.0558 17.1874 18.9917 18.0057C18.938 18.6917 18.6115 19.2785 18.1197 19.5906C17.8676 19.7497 17.5866 19.8303 17.2849 19.8303H17.287ZM17.1754 14.2574C17.1258 14.2574 16.0596 14.2863 15.8674 15.5778C15.6773 16.863 15.6567 19.1339 16.789 19.4934C17.225 19.6319 17.6321 19.5906 17.9709 19.3777C18.3945 19.1091 18.6756 18.5946 18.7231 17.9995C18.7871 17.2019 18.9318 15.3608 18.1569 14.5983C17.9069 14.3524 17.5887 14.2408 17.1795 14.2574H17.1754Z" fill="black"/>
<path d="M17.2375 14.876C17.2375 14.876 16.256 14.9111 16.2043 16.0806C16.1568 17.1345 16.068 18.8165 17.1115 18.9714C18.3347 19.1512 18.4484 17.9775 18.3988 16.622C18.3616 15.6343 18.1446 14.8966 17.2375 14.876Z" fill="#2CE69D"/>
<path d="M17.3057 15.4015C17.3057 15.4015 16.5453 15.3705 16.5102 16.3003C16.4792 17.0917 16.473 18.1724 17.159 18.3026C18 18.4617 18.1405 17.5794 18.0889 16.6041C18.0558 15.9739 17.967 15.449 17.3057 15.4036V15.4015Z" fill="black"/>
<path d="M16.8162 16.0328C16.8162 16.0328 16.5289 16.0411 16.5 16.4047C16.4711 16.7684 16.4525 17.1403 16.7397 17.223C17.0269 17.3056 17.2274 17.0949 17.2377 16.8325C17.248 16.57 17.3141 15.9873 16.8162 16.0328Z" fill="white"/>
<path d="M21.2213 18.0002C21.2213 18.0002 21.1572 18.6656 20.4402 19.0582C19.7005 19.4652 19.6261 19.2028 19.5083 19.1057C19.3905 19.0086 18.6528 18.0044 19.3079 17.4464C19.9629 16.8885 20.9299 17.308 21.2213 18.0002Z" fill="#FF7140"/>
<path d="M19.6572 19.4287C19.6345 19.4287 19.6097 19.4225 19.587 19.4101C19.2192 19.1973 18.8286 18.5691 18.8534 18.0071C18.8699 17.6227 19.0745 17.3272 19.4403 17.1537C20.3143 16.7425 21.0479 17.4078 21.3144 17.819C21.3537 17.8789 21.333 17.9575 21.271 17.9947C21.209 18.0319 21.1264 18.0133 21.0871 17.9533C21.0603 17.9141 20.4342 16.9739 19.5601 17.383C19.2832 17.5132 19.1344 17.7281 19.122 18.0174C19.1014 18.4699 19.4299 19.0216 19.7275 19.1911C19.7915 19.2283 19.8122 19.3068 19.7729 19.3667C19.7481 19.406 19.7027 19.4287 19.6572 19.4287Z" fill="black"/>
<path d="M16.411 20.6715C16.3449 20.6715 16.2891 20.626 16.2788 20.5619C16.1238 19.5598 15.7767 18.8758 15.2436 18.5287C14.7373 18.1981 14.2311 18.3034 14.2269 18.3055C14.1546 18.322 14.0823 18.2786 14.0658 18.2105C14.0492 18.1423 14.0926 18.0741 14.1649 18.0575C14.1897 18.0513 14.7828 17.9232 15.3882 18.3158C15.9895 18.7043 16.378 19.4482 16.5433 20.5268C16.5536 20.5971 16.504 20.6611 16.4296 20.6715C16.4234 20.6715 16.4172 20.6715 16.411 20.6715Z" fill="black"/>
<path d="M24.7299 17.3692C24.8147 16.3051 25.0337 13.9639 23.0293 14.0445C23.0293 14.0445 21.7999 14.0486 21.5891 15.4744C21.3784 16.9002 21.399 19.1483 22.6016 19.5285C22.6016 19.5285 22.7545 19.6091 23.2649 19.6091C23.2649 19.6091 23.2153 17.6668 24.6122 17.3858L24.7299 17.3692Z" fill="white"/>
<path d="M23.4012 19.7353H23.2628C22.7958 19.7353 22.6036 19.6712 22.5478 19.6464C21.3411 19.2538 21.2027 17.1462 21.4527 15.4559C21.6779 13.9392 23.0107 13.9165 23.0252 13.9165C23.5624 13.8958 23.9943 14.0405 24.3063 14.3484C25.044 15.0736 24.9262 16.5407 24.8642 17.328L24.8518 17.4809L24.6286 17.5119C23.364 17.7681 23.395 19.5886 23.3971 19.6072L23.4012 19.7373V19.7353ZM22.6656 19.4171C22.6656 19.4171 22.7855 19.4687 23.1305 19.479C23.1471 19.0162 23.3 17.5181 24.5832 17.2598H24.6038C24.6638 16.4994 24.7567 15.1542 24.1162 14.5261C23.8558 14.2698 23.5004 14.1541 23.0334 14.1727C22.9838 14.1727 21.9114 14.1996 21.7213 15.4931C21.5312 16.7784 21.5105 19.0493 22.6429 19.4088L22.6656 19.4191V19.4171Z" fill="black"/>
<path d="M22.9655 18.886C21.922 18.7331 22.0108 17.049 22.0583 15.9952C22.1121 14.8257 23.0915 14.7905 23.0915 14.7905C23.9986 14.8112 24.1949 15.5654 24.2321 16.5531L24.2073 17.2557C24.2073 17.2557 23.7713 17.5697 23.5027 17.9107C23.5027 17.9107 23.1886 18.3198 23.1225 18.512C23.0564 18.7042 22.9655 18.886 22.9655 18.886Z" fill="#2CE69D"/>
<path d="M25.0398 17.6015C25.358 17.618 25.7486 17.8681 25.887 17.992C26.2217 18.2958 26.2383 18.7008 26.1722 19.1017C26.106 19.5025 25.8229 19.9241 25.451 20.1224C25.1907 20.2609 24.7547 20.3539 24.4199 20.2671C24.0666 20.1741 23.674 19.8972 23.5975 19.5563C23.5211 19.2153 23.6244 18.5644 23.8248 18.271C23.8248 18.271 24.1864 17.5581 25.0419 17.6015H25.0398Z" fill="#FF7140"/>
<path d="M24.7217 17.7873C24.7217 17.7873 24.4035 17.8514 24.3271 18.1138C24.2506 18.3762 24.3994 18.6655 24.7259 18.5766C25.0524 18.4878 25.2218 18.3245 25.259 18.1572C25.29 18.0229 25.1267 17.7108 24.7217 17.7852V17.7873Z" fill="white"/>
<path d="M22.9842 15.4015C22.9842 15.4015 22.2507 15.3725 22.2135 16.2549C22.1825 17.007 22.1474 18.0422 22.8396 18.1559C23.6083 18.2819 23.788 17.4699 23.7384 16.5421C23.7075 15.9429 23.6207 15.4449 22.9822 15.4015H22.9842Z" fill="black"/>
<path d="M22.521 16.0328C22.521 16.0328 22.2338 16.0411 22.2048 16.4047C22.1759 16.7684 22.1573 17.1403 22.4445 17.223C22.7318 17.3056 22.9322 17.0949 22.9425 16.8325C22.9528 16.57 23.019 15.9873 22.521 16.0328Z" fill="white"/>
<path d="M21.0043 20.3223C20.9589 19.8264 20.7274 19.4482 20.4464 19.4482C20.1323 19.4482 19.8782 19.9173 19.8782 20.4959C19.8782 20.6075 19.8906 20.7149 19.9071 20.8162C20.0476 20.6426 20.4278 20.2624 21.0023 20.3244L21.0043 20.3223Z" fill="black"/>
<path d="M20.4464 21.539C20.7605 21.539 21.0147 21.0699 21.0147 20.4914C21.0147 20.4314 21.0105 20.3757 21.0043 20.3178C20.4299 20.2558 20.0497 20.636 19.9092 20.8096C19.9836 21.2311 20.1943 21.5369 20.4464 21.5369V21.539Z" fill="#912407"/>
<path d="M9.62306 10.8149L12.0985 12.1539L9.56314 13.2057L10.6769 15.5365L7.78403 14.5323L6.47398 16.892L5.41602 13.6871L9.62306 10.8149Z" fill="#FF7140"/>
<path d="M9.71389 11.1434C9.36675 12.1477 8.81297 12.9783 7.86866 13.5135C7.86866 13.5135 4.72371 15.0591 2.57266 12.9329C0.419544 10.8046 0.4836 8.3539 0.4836 8.3539C0.4836 8.3539 0.495998 7.41372 1.0725 7.1699C1.65314 6.924 2.21105 7.37033 2.21105 7.37033C2.58506 5.82265 4.25878 6.50661 4.25878 6.50661C3.76287 5.37219 3.60996 4.11173 3.65955 2.87607C3.68021 2.35328 3.73394 1.8243 3.91991 1.33458C4.10588 0.844864 4.43855 0.394404 4.90555 0.158843C5.37254 -0.0767188 5.9821 -0.0643208 6.38504 0.268358C6.68259 0.512185 6.83963 0.890323 6.91195 1.26846C6.98427 1.6466 6.98014 2.033 7.0194 2.41527C7.10412 3.2604 7.39134 4.08487 7.8542 4.79775C8.33152 5.53543 8.99068 6.15326 9.39981 6.93227C10.09 8.24026 10.1933 9.74868 9.70976 11.1455L9.71389 11.1434Z" fill="#FFE240"/>
<path d="M6.73613 11.5878C6.63075 11.5878 6.5419 11.5072 6.53156 11.4018C6.44478 10.5257 6.77539 9.63716 7.38702 9.01519C7.31264 9.03172 7.23825 9.05239 7.16179 9.07098C7.02955 9.10405 6.89731 9.13917 6.76506 9.16397C6.12863 9.29002 5.59345 9.15984 5.2959 8.80649C5.03967 8.50274 4.97355 8.03162 5.12026 7.57703C5.32483 6.9468 5.88687 6.40955 6.62042 6.14506C7.30024 5.89917 8.02139 5.89504 8.63715 5.92603C8.7508 5.93223 8.83965 6.02935 8.83346 6.143C8.82726 6.25664 8.72807 6.34136 8.61649 6.3393C8.04205 6.31037 7.37256 6.31243 6.76093 6.53353C6.14516 6.7567 5.67817 7.19476 5.51286 7.70514C5.43021 7.95723 5.41368 8.30851 5.60998 8.542C5.891 8.87468 6.45511 8.80443 6.68447 8.76103C6.81052 8.73624 6.9345 8.70318 7.05848 8.67218C7.38702 8.58746 7.72797 8.50068 8.08544 8.53374C8.1743 8.542 8.24868 8.60606 8.26935 8.69285C8.29001 8.77963 8.25075 8.87055 8.1743 8.91601C7.35603 9.40573 6.84771 10.412 6.94276 11.3625C6.9531 11.4762 6.87044 11.5774 6.75679 11.5878C6.7506 11.5878 6.74233 11.5878 6.73613 11.5878Z" fill="#B16101"/>
<path d="M2.10561 11.3154C2.01882 11.3154 1.92997 11.3072 1.84318 11.2906C1.31627 11.1853 0.847214 10.7906 0.588923 10.2347C0.390555 9.80701 0.307902 9.29456 0.334764 8.66226C0.340963 8.54861 0.442213 8.46183 0.549663 8.46596C0.663311 8.47009 0.752163 8.56721 0.745964 8.68086C0.721168 9.2429 0.791423 9.69543 0.960862 10.0591C1.1613 10.491 1.53117 10.8071 1.92171 10.8856C2.33084 10.9662 2.7751 10.7575 2.92387 10.4186L2.92801 10.3814C2.94041 10.2678 3.04372 10.1872 3.15737 10.1996C3.27102 10.212 3.3516 10.3153 3.33921 10.429L3.33094 10.4951C3.33094 10.5137 3.32474 10.5302 3.31854 10.5468C3.13671 11.0117 2.63252 11.3175 2.10354 11.3175L2.10561 11.3154Z" fill="#B16101"/>
<path d="M3.79623 10.6066C3.43049 10.6066 3.06475 10.5074 2.75687 10.3069C2.07085 9.85441 1.7423 8.92456 1.98819 8.14143C2.02332 8.03191 2.13903 7.97199 2.24855 8.00711C2.35807 8.04224 2.41799 8.15796 2.38286 8.26747C2.18863 8.88117 2.44692 9.60852 2.98416 9.96393C3.52141 10.3173 4.29215 10.2677 4.7798 9.84821C4.86659 9.77383 4.99677 9.78209 5.07116 9.86888C5.14554 9.95566 5.13521 10.0858 5.05049 10.1602C4.70542 10.4578 4.25082 10.6086 3.79623 10.6086V10.6066Z" fill="#B16101"/>
<path d="M4.27557 22.0487C4.19085 21.9351 4.03174 21.9061 3.89536 21.9289C3.75899 21.9516 3.63294 22.0177 3.50069 22.0611C3.0647 22.2037 2.56878 22.0942 2.18238 21.8379C1.85796 21.623 1.59554 21.2945 1.51289 20.9164C1.4199 20.4907 1.55834 20.0506 1.76704 19.6724C2.03153 19.1992 2.4448 18.7736 2.97378 18.6496C3.40564 18.5483 3.87263 18.6579 4.2549 18.8914C4.52353 19.0567 4.75909 19.286 4.90166 19.5691C5.04424 19.8522 5.08763 20.1869 4.99052 20.4845C4.94919 20.6126 4.88307 20.7304 4.85414 20.8626C4.82521 20.9949 4.84381 21.1478 4.94506 21.2366" fill="#FFC200"/>
<path d="M4.82276 21.8155C4.12434 21.6833 3.07877 21.4394 2.37622 21.2803C2.34936 21.2741 2.3287 21.2555 2.31836 21.2307C2.05594 20.6067 2.36176 20.1005 3.05398 20.1459L2.95479 20.2823C2.66964 19.4826 3.00025 18.9536 3.85778 19.3586C3.87844 19.3669 3.89497 19.3834 3.90324 19.4041C4.19459 20.0943 4.61406 21.0613 4.87648 21.7515C4.52934 21.1047 4.06648 20.148 3.74207 19.4785L3.78752 19.5239C3.06431 19.2223 2.9424 19.5653 3.14696 20.2141C3.17382 20.2802 3.11803 20.3567 3.04778 20.3505C2.48574 20.3092 2.29563 20.6646 2.47747 21.1625L2.41961 21.113C3.11597 21.3072 4.14293 21.5985 4.82482 21.8155H4.82276Z" fill="white"/>
<path d="M4.12669 22.1597C4.12669 22.1597 4.0771 22.1287 4.13909 22.0584C4.20108 21.9882 4.93876 21.1368 4.93876 21.1368C4.93876 21.1368 5.01728 21.0232 5.06687 21.0769C5.11646 21.1306 5.40781 21.4633 5.40781 21.4633C5.40781 21.4633 5.47807 21.5295 5.36029 21.6782C5.24251 21.827 4.6846 22.4138 4.6846 22.4138C4.6846 22.4138 4.59781 22.5006 4.54202 22.4634C4.48623 22.4262 4.12669 22.1576 4.12669 22.1576V22.1597Z" fill="#FF7300"/>
<path d="M1.66751 19.0609C1.56833 19.1746 1.42575 19.2139 1.3493 19.1457L0.681874 18.563C0.60542 18.4968 0.624017 18.3501 0.723201 18.2365C0.822385 18.1228 0.964961 18.0836 1.04142 18.1518L1.70884 18.7345C1.78529 18.8006 1.7667 18.9473 1.66751 19.0609Z" fill="#FFC200"/>
<path d="M1.27488 21.3224C1.31414 21.4671 1.26455 21.6096 1.1633 21.6365L0.270644 21.8803C0.169394 21.9093 0.0536793 21.8121 0.014419 21.6675C-0.0248412 21.5229 0.0247507 21.3803 0.126001 21.3534L1.01865 21.1096C1.1199 21.0807 1.23562 21.1778 1.27488 21.3224Z" fill="#FFC200"/>
<path d="M5.33767 19.6239C5.28394 19.4834 5.30667 19.3429 5.38933 19.3119L6.11668 19.0308C6.19933 18.9978 6.31091 19.0866 6.36463 19.2271C6.41836 19.3676 6.39563 19.5082 6.31298 19.5392L5.58563 19.8202C5.50298 19.8532 5.39139 19.7644 5.33767 19.6239Z" fill="#FFC200"/>
<path d="M3.89909 18.2966C3.75031 18.2739 3.64286 18.1705 3.65939 18.0672L3.80197 17.1601C3.8185 17.0568 3.95281 16.9907 4.10159 17.0155C4.25036 17.0403 4.35781 17.1415 4.34128 17.2448L4.19871 18.152C4.18217 18.2553 4.04786 18.3214 3.89909 18.2966Z" fill="#FFC200"/>
<path d="M2.51082 23.7342C2.36204 23.7073 2.25666 23.6061 2.27319 23.5089L2.42817 22.6493C2.44676 22.5522 2.58107 22.4944 2.72985 22.5212C2.87863 22.5481 2.98401 22.6493 2.96748 22.7465L2.8125 23.6061C2.79391 23.7032 2.65959 23.761 2.51082 23.7342Z" fill="#FFC200"/>
<path d="M35.1893 17.5493C35.2471 17.3985 35.1769 17.2249 35.0694 17.1051C34.962 16.9852 34.8215 16.9046 34.6975 16.8034C34.2884 16.4686 34.0879 15.921 34.0962 15.3879C34.1045 14.9395 34.2594 14.4829 34.5756 14.1667C34.9289 13.8134 35.4434 13.6729 35.9394 13.644C36.5634 13.6068 37.2308 13.7452 37.6792 14.1812C38.045 14.5366 38.2289 15.0594 38.2371 15.5739C38.2433 15.9376 38.1669 16.3075 37.9809 16.6215C37.7949 16.9356 37.4974 17.1836 37.1502 17.2745C37.0015 17.3138 36.8444 17.3241 36.6998 17.3778C36.5551 17.4315 36.4167 17.5431 36.3919 17.6981" fill="#FFC200"/>
<path d="M35.7552 17.9325C35.4556 17.1721 35.0485 16.0046 34.7695 15.2235C34.7592 15.1967 34.7654 15.1677 34.7799 15.1471C34.8687 15.021 34.972 14.9177 35.0939 14.8289C35.5403 14.4838 36.0217 14.7545 36.2614 15.1925L36.094 15.1822C36.1994 15.0458 36.3151 14.9281 36.4536 14.8247C37.0756 14.3474 37.4413 14.8516 37.5219 15.4777C37.4434 15.7133 37.2264 15.924 37.1004 16.1451C36.7016 16.732 36.2614 17.3746 35.8482 17.9449C36.1994 17.3353 36.6044 16.6658 36.9764 16.0645C37.1045 15.8579 37.2285 15.6471 37.3607 15.4426L37.3483 15.5046C37.3194 15.3517 37.2822 15.2008 37.2181 15.0686C36.9888 14.5416 36.4805 15.021 36.2552 15.3021C36.2139 15.3599 36.1209 15.3537 36.0879 15.2917C35.7696 14.707 35.3006 14.7421 34.9224 15.2421L34.9328 15.1657C35.1787 15.9612 35.5361 17.1349 35.7531 17.9284L35.7552 17.9325Z" fill="white"/>
<path d="M34.9911 17.4727C34.9911 17.4727 34.9911 17.4045 35.0965 17.4231C35.2019 17.4417 36.4851 17.6277 36.4851 17.6277C36.4851 17.6277 36.6421 17.6339 36.6214 17.7145C36.6008 17.7951 36.4582 18.2848 36.4582 18.2848C36.4582 18.2848 36.4396 18.3943 36.2206 18.3716C36.0015 18.3489 35.0882 18.1732 35.0882 18.1732C35.0882 18.1732 34.9518 18.1443 34.9498 18.0658C34.9477 17.9872 34.989 17.4748 34.989 17.4748L34.9911 17.4727Z" fill="#FF7300"/>
<path d="M36.4724 13.1661C36.3009 13.1393 36.1749 13.0256 36.1935 12.912L36.3443 11.9036C36.3608 11.7879 36.5158 11.7156 36.6873 11.7424C36.8588 11.7693 36.9849 11.8829 36.9663 11.9966L36.8154 13.0049C36.7989 13.1207 36.6439 13.193 36.4724 13.1661Z" fill="#FFC200"/>
<path d="M34.0342 14.1893C33.9185 14.3175 33.7491 14.3567 33.6602 14.2741L32.8709 13.5591C32.78 13.4785 32.8027 13.307 32.9184 13.1789C33.0341 13.0508 33.2036 13.0115 33.2924 13.0942L34.0818 13.8091C34.1727 13.8897 34.15 14.0612 34.0342 14.1893Z" fill="#FFC200"/>
<path d="M38.196 17.0777C38.2993 16.9372 38.4501 16.8732 38.5307 16.9331L39.2539 17.4641C39.3366 17.5241 39.3201 17.6873 39.2168 17.8278C39.1134 17.9683 38.9626 18.0324 38.882 17.9725L38.1588 17.4414C38.0761 17.3815 38.0927 17.2182 38.196 17.0777Z" fill="#FFC200"/>
<path d="M38.5945 14.8574C38.5242 14.6983 38.5573 14.5309 38.6689 14.4813L39.638 14.0577C39.7496 14.0102 39.8942 14.099 39.9645 14.2582C40.0347 14.4173 40.0017 14.5846 39.8901 14.6342L38.921 15.0578C38.8094 15.1053 38.6647 15.0165 38.5945 14.8574Z" fill="#FFC200"/>
<path d="M32.4619 16.8813C32.3957 16.7201 32.4288 16.5548 32.5342 16.5114L33.462 16.1291C33.5674 16.0858 33.7079 16.1808 33.774 16.342C33.8401 16.5032 33.807 16.6685 33.7017 16.7119L32.7739 17.0941C32.6685 17.1375 32.528 17.0425 32.4619 16.8813Z" fill="#FFC200"/>
</g>
<defs>
<clipPath id="clip0_7467_7151">
<rect width="40" height="28.0153" fill="white"/>
</clipPath>
</defs>
</svg>
