<svg width="24" height="24" viewBox="0 0 24 24" fill="none" xmlns="http://www.w3.org/2000/svg">
<path d="M5.10546 5.10547C8.91308 1.29786 15.0869 1.29786 18.8945 5.10547C22.7021 8.91308 22.7021 15.0869 18.8945 18.8945C15.0869 22.7021 8.91308 22.7021 5.10546 18.8945C1.29785 15.0869 1.29785 8.91308 5.10546 5.10547ZM5.66015 6.7207C2.95477 9.96194 3.12294 14.7909 6.16601 17.834C9.20905 20.877 14.0371 21.0442 17.2783 18.3389L5.66015 6.7207ZM17.834 6.16602C14.7909 3.12295 9.96193 2.95477 6.7207 5.66016L18.3389 17.2783C21.0442 14.0371 20.877 9.20905 17.834 6.16602Z" fill="black"/>
</svg>
