<svg width="24" height="24" viewBox="0 0 24 24" fill="none" xmlns="http://www.w3.org/2000/svg">
<path d="M9.00877 2.75098C10.1633 0.749867 13.0515 0.749866 14.206 2.75098L21.5605 15.498C22.7144 17.498 21.2709 19.9971 18.9619 19.9971H4.25291C1.94418 19.9968 0.501478 17.4979 1.65525 15.498L9.00877 2.75098ZM12.9072 3.5C12.33 2.49977 10.8859 2.49991 10.3086 3.5L2.95408 16.248C2.37732 17.2479 3.0987 18.4968 4.25291 18.4971H18.9619C20.1163 18.4971 20.8383 17.248 20.2617 16.248L12.9072 3.5ZM11.6152 14.7471C12.0293 14.7471 12.365 15.0831 12.3652 15.4971V15.5049C12.3652 15.9191 12.0294 16.2549 11.6152 16.2549H11.6074C11.1933 16.2547 10.8574 15.919 10.8574 15.5049V15.4971C10.8576 15.0831 11.1935 14.7472 11.6074 14.7471H11.6152ZM10.8574 12.4971V8.74707C10.8576 8.33314 11.1935 7.99721 11.6074 7.99707C12.0215 7.99707 12.3572 8.33305 12.3574 8.74707V12.4971C12.3574 12.9113 12.0216 13.2471 11.6074 13.2471C11.1933 13.2469 10.8574 12.9112 10.8574 12.4971Z" fill="black"/>
</svg>
