<svg width="160" height="106" viewBox="0 0 160 106" fill="none" xmlns="http://www.w3.org/2000/svg">
<g clip-path="url(#clip0_26866_1389)">
<mask id="mask0_26866_1389" style="mask-type:luminance" maskUnits="userSpaceOnUse" x="0" y="0" width="160" height="106">
<path d="M160 0H0V106H160V0Z" fill="white"/>
</mask>
<g mask="url(#mask0_26866_1389)">
<path d="M151.875 20.5285L147.937 23.792C147.405 24.2352 146.551 24.0771 146.171 23.4622L143.47 19.1441C142.938 18.2921 141.634 18.4021 141.372 19.3227L139.764 24.9531C139.536 25.7536 138.478 25.9734 137.845 25.3551L135.027 22.6034C134.277 21.8683 133.025 22.3389 133.07 23.3351L133.24 27.2582C133.264 27.8285 132.835 28.2991 132.244 28.3438L128.88 28.6048C127.915 28.6804 127.542 29.7969 128.25 30.4736L131.314 33.3765C131.843 33.878 131.794 34.6887 131.214 35.0666L129.378 36.2655C128.593 36.7774 128.838 37.966 129.782 38.2477L132.807 39.1512C133.527 39.3642 133.89 40.1508 133.554 40.7657L131.335 44.8228C130.854 45.7023 131.801 46.75 132.79 46.434L137.824 44.8159C138.554 44.5823 139.349 45.1079 139.404 45.8603L139.598 48.66C139.667 49.6528 140.96 50.1338 141.634 49.4158L144.438 46.4168C144.829 46.0011 145.507 45.953 145.994 46.3206C147.045 47.1142 148.518 48.6497 149.6 49.828C150.219 50.5048 151.336 50.2987 151.568 49.4673L152.74 45.2385C152.909 44.6236 153.601 44.311 154.237 44.5583L158.732 46.3C159.637 46.6504 160.516 45.8775 160.211 44.9946C159.762 43.7029 158.752 42.1364 158.012 41.0852C157.584 40.4738 157.843 39.6733 158.541 39.4535L163.333 37.9454C164.219 37.6671 164.336 36.5197 163.53 35.9907L160.125 33.7475C159.62 33.4142 159.44 32.7821 159.71 32.2875L162.282 27.5811C162.715 26.7945 161.988 25.8188 161.051 25.9219L154.742 26.6296C153.984 26.7154 153.31 26.0765 153.39 25.3516L153.805 21.5763C153.915 20.5663 152.653 19.893 151.868 20.5422L151.875 20.5285Z" fill="#5BB3FD"/>
<path d="M115.866 38.3885C115.866 38.3885 115.873 38.4059 115.876 38.4128C115.876 38.4059 115.869 38.3989 115.866 38.3885Z" fill="#2CE69D"/>
<path d="M115.883 38.4195C115.883 38.4195 115.883 38.4126 115.879 38.4091C115.879 38.4126 115.879 38.416 115.883 38.4195Z" fill="#2CE69D"/>
<path d="M124.761 35.2624C123.092 33.2871 120.353 32.1844 117.767 32.4146C116.315 32.5417 114.949 33.0226 113.808 33.9364C113.798 33.9433 113.791 33.9501 113.781 33.9604C113.234 33.6685 112.664 33.4245 112.073 33.2322C109.455 32.3802 106.503 32.686 104.089 33.9914C103.823 34.1357 103.564 34.2937 103.311 34.462C103.097 34.6063 102.931 34.7746 102.858 35.0288C102.8 35.2452 102.82 35.5304 102.938 35.7262C103.18 36.1247 103.775 36.3858 104.21 36.0938C104.573 35.8499 104.954 35.63 105.348 35.4376C105.538 35.3449 105.732 35.2624 105.925 35.1834C105.974 35.1662 106.022 35.1456 106.074 35.1284C106.178 35.0907 106.285 35.0563 106.392 35.022C106.81 34.8914 107.239 34.7884 107.671 34.7162C107.775 34.699 107.875 34.6819 107.979 34.6681C107.993 34.6681 108.007 34.6647 108.02 34.6612C108.065 34.6578 108.114 34.6509 108.121 34.6509C108.342 34.6303 108.567 34.6166 108.791 34.6132C109.248 34.6028 109.704 34.6303 110.154 34.6853C110.866 34.7987 111.564 34.9945 112.232 35.2693C112.339 35.3174 112.446 35.3655 112.55 35.417C112.19 36.0628 111.986 36.7843 112.041 37.5125C112.138 38.7733 112.806 40.0306 113.943 40.6627C114.572 41.0131 115.264 41.1265 115.976 41.0131C116.816 40.8791 117.591 40.2505 117.777 39.4088C118.113 37.9076 117.051 36.5335 116.021 35.5647C115.831 35.3861 115.634 35.2178 115.433 35.0529C115.675 34.9017 115.928 34.7712 116.19 34.6578C116.253 34.6303 116.484 34.5548 116.197 34.6509C116.242 34.6338 116.291 34.6166 116.336 34.5994C116.429 34.5651 116.522 34.5376 116.616 34.5067C116.816 34.4448 117.02 34.3967 117.228 34.3555C117.324 34.3349 117.425 34.3177 117.525 34.304C117.566 34.2971 117.611 34.2902 117.653 34.2868C117.847 34.2696 118.037 34.2559 118.23 34.2524C118.597 34.2456 118.963 34.2662 119.326 34.3108C119.911 34.407 120.481 34.5651 121.027 34.7884C121.546 35.022 122.04 35.314 122.493 35.6575C122.822 35.9289 123.13 36.2243 123.403 36.5507C123.717 36.9251 124.392 36.9285 124.727 36.5816C125.097 36.1968 125.097 35.6644 124.758 35.2659L124.761 35.2624ZM107.934 34.6681C107.934 34.6681 107.958 34.6681 107.989 34.6612C107.958 34.6647 107.934 34.6681 107.934 34.6681ZM114.074 38.1068C114.074 38.1068 114.057 38.0725 114.05 38.0553C113.988 37.911 114.054 38.045 114.074 38.1068ZM114.078 38.124C114.078 38.124 114.078 38.1309 114.078 38.1343C114.078 38.1343 114.078 38.1274 114.078 38.124ZM115.841 39.1306C115.841 39.1306 115.848 39.1306 115.852 39.1306C115.848 39.1306 115.845 39.1306 115.841 39.1306ZM115.969 38.7218C115.969 38.7218 115.969 38.7492 115.969 38.7664C115.962 38.7011 115.959 38.605 115.969 38.7218ZM115.98 38.8111C115.98 38.8111 115.98 38.8076 115.98 38.8008C115.98 38.8008 115.98 38.8076 115.98 38.8111ZM115.527 37.7771C115.603 37.8835 115.672 37.9935 115.734 38.1103C115.772 38.1755 115.807 38.2442 115.838 38.313C115.841 38.3233 115.855 38.3542 115.865 38.3851C115.841 38.3267 115.824 38.2546 115.865 38.3645C115.872 38.3817 115.876 38.4023 115.883 38.4194C115.886 38.4298 115.893 38.4366 115.897 38.4401C115.893 38.4401 115.89 38.4298 115.883 38.4194C115.9 38.471 115.917 38.5225 115.931 38.5775C115.945 38.6359 115.948 38.7252 115.973 38.787C115.973 38.8008 115.973 38.8145 115.973 38.8248C115.973 38.8557 115.973 38.8866 115.973 38.9141C115.966 38.945 115.959 38.9725 115.948 39.0034C115.941 39.0172 115.931 39.0344 115.924 39.0481C115.907 39.0653 115.886 39.0859 115.865 39.1031C115.848 39.1134 115.831 39.1237 115.814 39.134C115.82 39.134 115.831 39.1306 115.838 39.1271C115.827 39.1271 115.817 39.134 115.803 39.134C115.751 39.158 115.71 39.1615 115.731 39.1512C115.675 39.1683 115.616 39.1821 115.558 39.1958C115.52 39.1958 115.478 39.1993 115.44 39.1993C115.395 39.1993 115.354 39.1993 115.309 39.1924C115.208 39.1718 115.112 39.1443 115.015 39.1134C114.901 39.055 114.79 38.9897 114.686 38.9176C114.562 38.8076 114.448 38.6874 114.341 38.5603C114.261 38.4435 114.185 38.3233 114.123 38.1962C114.109 38.1687 114.095 38.1412 114.081 38.1103C114.071 38.0519 113.998 37.8767 113.991 37.8492C113.971 37.7702 113.953 37.6877 113.936 37.6087C113.943 37.6534 113.926 37.5778 113.922 37.5228C113.919 37.4988 113.915 37.4747 113.912 37.4473C113.915 37.4713 113.919 37.4885 113.922 37.5057C113.912 37.3545 113.919 37.2068 113.933 37.0591C113.971 36.877 114.023 36.7018 114.088 36.5266C114.109 36.4819 114.13 36.4373 114.154 36.3926C114.168 36.4029 114.182 36.4132 114.195 36.4235C114.683 36.822 115.146 37.2721 115.533 37.7702L115.527 37.7771Z" fill="#2CE69D"/>
<path d="M115.724 39.1582C115.748 39.1512 115.772 39.1443 115.796 39.1409C115.796 39.1409 115.803 39.1409 115.807 39.1374C115.762 39.1478 115.734 39.1547 115.724 39.1616V39.1582Z" fill="#2CE69D"/>
<path d="M113.916 37.5126C113.916 37.5126 113.916 37.5195 113.916 37.5264C113.916 37.5472 113.922 37.568 113.926 37.5888C113.926 37.5991 113.929 37.6061 113.933 37.6165C113.933 37.5991 113.926 37.568 113.916 37.5126Z" fill="#2CE69D"/>
<path d="M123.859 20.0304C123.859 20.0304 123.856 20.0408 123.852 20.0442C123.852 20.0408 123.856 20.0339 123.859 20.0304Z" fill="#FFC200"/>
<path d="M129.481 22.806C129.657 21.0953 128.917 19.2849 127.61 18.165C126.877 17.5363 126.013 17.1069 125.045 16.9901C125.038 16.9901 125.028 16.9901 125.021 16.9901C124.907 16.595 124.761 16.2103 124.578 15.8393C123.776 14.2007 122.262 12.9399 120.516 12.3971C120.322 12.3387 120.128 12.2872 119.931 12.246C119.762 12.2116 119.606 12.2082 119.451 12.2941C119.319 12.3662 119.191 12.5071 119.153 12.6548C119.074 12.9536 119.222 13.359 119.565 13.4311C119.852 13.4895 120.132 13.5686 120.408 13.6682C120.54 13.7163 120.671 13.7678 120.799 13.8228C120.83 13.8365 120.861 13.8537 120.892 13.8674C120.958 13.9018 121.024 13.9327 121.089 13.9705C121.345 14.1079 121.594 14.2625 121.829 14.4342C121.885 14.4755 121.94 14.5167 121.995 14.5579C122.002 14.5648 122.009 14.5682 122.016 14.5751C122.04 14.5957 122.064 14.6163 122.068 14.6198C122.182 14.7159 122.289 14.8156 122.396 14.9186C122.611 15.1316 122.811 15.3583 122.991 15.6022C123.268 15.9939 123.496 16.4164 123.672 16.8596C123.7 16.9317 123.724 17.0073 123.748 17.0794C123.271 17.2065 122.829 17.447 122.504 17.8077C121.94 18.4364 121.646 19.3398 121.867 20.1712C121.992 20.6349 122.255 21.0128 122.638 21.3014C123.091 21.638 123.752 21.7136 124.246 21.4113C125.124 20.8754 125.294 19.7349 125.283 18.7936C125.283 18.6219 125.273 18.4501 125.256 18.2783C125.439 18.323 125.622 18.3814 125.799 18.4535C125.84 18.4707 125.985 18.5463 125.805 18.4535C125.833 18.4673 125.864 18.481 125.895 18.4948C125.954 18.5222 126.013 18.5532 126.068 18.5841C126.189 18.6528 126.31 18.7249 126.424 18.8039C126.48 18.8417 126.535 18.8795 126.587 18.9207C126.611 18.9379 126.632 18.9551 126.656 18.9723C126.753 19.0547 126.85 19.1406 126.94 19.2299C127.112 19.4017 127.271 19.5837 127.417 19.7796C127.641 20.1025 127.828 20.446 127.977 20.8101C128.105 21.1674 128.195 21.535 128.24 21.9094C128.26 22.1911 128.26 22.4728 128.233 22.7545C128.198 23.0774 128.509 23.4003 128.831 23.3969C129.187 23.3969 129.443 23.1496 129.477 22.8026L129.481 22.806ZM123.164 19.0478C123.164 19.0478 123.171 19.0238 123.178 19.0135C123.219 18.9173 123.185 19.0135 123.164 19.0478ZM123.157 19.0581L123.154 19.0616C123.154 19.0616 123.154 19.0616 123.157 19.0581ZM123.489 20.3601C123.489 20.3601 123.492 20.3601 123.496 20.3635C123.496 20.3635 123.492 20.3635 123.489 20.3601ZM123.745 20.233C123.745 20.233 123.731 20.2467 123.724 20.2536C123.752 20.2193 123.797 20.1746 123.745 20.233ZM123.707 20.2811C123.707 20.2811 123.707 20.2811 123.707 20.2742C123.707 20.2742 123.707 20.2777 123.707 20.2811ZM123.994 19.5872C123.976 19.6731 123.956 19.7555 123.932 19.8414C123.918 19.8895 123.9 19.9376 123.883 19.9857C123.883 19.9925 123.869 20.0131 123.862 20.0338C123.88 19.996 123.907 19.9547 123.873 20.0235C123.866 20.0338 123.859 20.0441 123.855 20.0578C123.855 20.0647 123.852 20.0715 123.852 20.075C123.852 20.075 123.852 20.0647 123.852 20.0612C123.835 20.0922 123.817 20.1265 123.8 20.1574C123.779 20.1918 123.738 20.233 123.717 20.2742C123.71 20.2811 123.707 20.288 123.7 20.2914C123.686 20.3051 123.669 20.3189 123.655 20.3326C123.638 20.3429 123.62 20.3532 123.603 20.3635C123.593 20.3635 123.582 20.3704 123.568 20.3704C123.551 20.3704 123.534 20.3704 123.513 20.3704C123.499 20.367 123.485 20.3635 123.475 20.3601C123.479 20.3601 123.486 20.367 123.489 20.3704C123.482 20.367 123.475 20.3635 123.468 20.3601C123.434 20.3464 123.413 20.3292 123.427 20.3326C123.392 20.312 123.358 20.2914 123.326 20.2708C123.306 20.2536 123.288 20.2364 123.271 20.2158C123.25 20.1952 123.233 20.1746 123.212 20.1506C123.174 20.0922 123.143 20.0338 123.116 19.9754C123.091 19.8929 123.071 19.8105 123.057 19.728C123.05 19.6181 123.057 19.5082 123.071 19.3982C123.091 19.3055 123.112 19.2162 123.147 19.1268C123.154 19.1062 123.16 19.0891 123.167 19.0684C123.192 19.0341 123.24 18.9207 123.25 18.9036C123.278 18.8555 123.309 18.8108 123.34 18.7661C123.32 18.7902 123.351 18.7455 123.375 18.718C123.385 18.7043 123.396 18.6906 123.406 18.6768C123.396 18.6906 123.389 18.7009 123.382 18.7077C123.447 18.6322 123.524 18.5669 123.603 18.5051C123.707 18.4398 123.817 18.3814 123.932 18.3333C123.963 18.323 123.994 18.3127 124.028 18.3024C124.028 18.3127 124.028 18.3264 124.032 18.3367C124.066 18.7558 124.063 19.1818 124.004 19.5975L123.994 19.5872Z" fill="#FFC200"/>
<path d="M123.42 20.319C123.42 20.319 123.448 20.3363 123.462 20.3467C123.462 20.3467 123.465 20.3467 123.469 20.3467C123.441 20.3294 123.427 20.319 123.42 20.319Z" fill="#FFC200"/>
<path d="M123.375 18.6975C123.375 18.6975 123.372 18.701 123.368 18.7044C123.361 18.7148 123.351 18.7252 123.344 18.7391C123.34 18.7425 123.337 18.7495 123.333 18.7529C123.34 18.746 123.354 18.7252 123.375 18.6975Z" fill="#FFC200"/>
<path d="M143.833 35.0872C143.297 34.1322 143.18 33.002 143.066 31.9233C142.907 30.4152 141.624 28.1513 140.531 27.0898C139.439 26.0283 139.702 29.6938 139.805 29.711C140.635 29.8552 141.192 31.5454 141.416 32.3527C141.603 33.0294 141.79 33.7028 141.977 34.3795C142.101 34.8295 142.253 35.3208 142.651 35.5716C143.048 35.8223 143.889 35.6471 143.864 35.1834L143.837 35.0872H143.833Z" fill="black"/>
<path d="M148.508 33.0707C148.207 33.0638 148.02 32.7409 148.172 32.4798C148.732 31.5145 149.697 29.5014 149.292 27.6738C148.736 25.1592 146.8 23.287 148.134 22.7339C149.631 22.1121 150.261 22.5381 150.644 23.0087C151.028 23.4793 153.984 26.7738 149.189 32.9229C149.113 33.0226 148.992 33.081 148.864 33.0775L148.508 33.0707Z" fill="black"/>
<path d="M151.909 33.3043C151.909 33.3043 153.289 32.3802 155.083 31.9267C156.878 31.4732 159.34 31.7652 160.083 33.6169C160.826 35.4685 159.858 38.4675 156.29 39.4465C153.562 40.1954 152.176 40.7966 151.342 41.865C150.509 42.9334 148.079 45.0735 145.136 45.0976C142.194 45.1251 141.471 44.73 139.259 45.6369C137.046 46.5404 135.113 45.4239 134.992 43.8987C134.871 42.3734 135.832 40.4909 137.907 39.4294C139.981 38.3679 140.7 38.598 142.28 38.1308C143.86 37.6636 151.28 34.0669 151.906 33.3043H151.909Z" fill="#F878F3"/>
<path d="M144.825 32.0436C144.825 32.0436 141.427 33.6135 141.077 36.6709C140.728 39.7283 141.921 40.3948 143.449 40.6421C144.977 40.8894 148.172 40.7795 151.177 38.7046C154.178 36.6263 153.877 35.0838 153.289 34.1082C152.701 33.1326 151.28 31.518 148.933 31.329C146.429 31.1298 144.825 32.0402 144.825 32.0402V32.0436Z" fill="#FFE240"/>
<path d="M143.239 36.427C143.367 36.427 143.944 36.3926 144.373 37.0591C144.801 37.7255 144.328 38.1446 143.792 38.1206C143.256 38.0965 142.765 37.65 142.699 37.1484C142.634 36.6469 143.017 36.427 143.239 36.4304V36.427Z" fill="#FF7140"/>
<path d="M151.467 35.9976C151.425 36.1384 151.294 36.7911 150.44 37.0556C149.586 37.3202 149.271 36.6606 149.458 36.0766C149.645 35.4926 150.281 35.0872 150.848 35.1731C151.415 35.259 151.54 35.7571 151.47 35.9976H151.467Z" fill="#FF7140"/>
<path d="M146.378 35.9735C146.33 35.9735 146.281 35.9838 146.243 36.0147C146.202 36.0491 146.184 36.1109 146.184 36.1659C146.181 36.2896 146.226 36.4132 146.298 36.5163C146.371 36.6193 146.464 36.7052 146.565 36.7808C146.599 36.8083 146.641 36.8529 146.62 36.8907C146.61 36.9113 146.585 36.9216 146.561 36.9285C146.468 36.9629 146.381 37.0041 146.295 37.0556C146.215 37.1003 146.139 37.1587 146.098 37.2377C146.039 37.3511 146.067 37.4953 146.146 37.5915C146.226 37.6877 146.357 37.7392 146.485 37.7427C146.613 37.7461 146.738 37.7015 146.848 37.6396C146.98 37.564 147.097 37.4507 147.128 37.3064C147.156 37.1896 147.125 37.0694 147.139 36.9526C147.156 36.7945 147.256 36.64 147.211 36.4888C147.173 36.3514 147.038 36.3033 146.948 36.2071C146.859 36.1109 146.731 36.0388 146.599 36.001C146.527 35.9804 146.451 35.9735 146.374 35.9769L146.378 35.9735Z" fill="#FFA6A6"/>
<path d="M146.806 36.7189C146.53 36.6124 146.343 36.5094 146.305 36.2346C146.267 35.9597 146.606 36.0868 146.782 36.2174C146.958 36.3479 147.121 36.5918 147.304 36.4304C147.55 36.2174 146.803 35.8223 146.803 35.8223C146.25 35.599 146.011 35.8258 145.97 36.293C145.928 36.7602 146.44 36.8323 146.44 36.8323C146.44 36.8323 146.077 36.8495 145.945 37.1724C145.814 37.4953 146.015 37.8079 146.302 37.8972C146.589 37.9866 146.889 37.8388 147.021 37.7255C147.152 37.6121 147.301 37.4713 147.135 37.3751C146.969 37.2789 146.91 37.5571 146.73 37.6362C146.551 37.7152 146.274 37.7117 146.187 37.485C146.101 37.2583 146.398 37.0762 146.627 37.0625C146.627 37.0625 146.727 37.0625 146.806 36.9079C146.886 36.7533 146.806 36.7224 146.799 36.7189H146.806Z" fill="#231815"/>
<path d="M147.311 36.1281C147.162 36.3205 147.083 36.5575 147.045 36.798C147.021 36.9594 147.01 37.1209 147.038 37.2824C147.066 37.4438 147.131 37.5984 147.245 37.7152C147.287 37.7564 147.335 37.7942 147.391 37.808C147.446 37.8217 147.515 37.808 147.55 37.7564C147.598 37.6843 147.557 37.5881 147.515 37.5125C147.429 37.3373 147.37 37.1449 147.37 36.9491C147.37 36.7533 147.436 36.5541 147.567 36.4098C147.653 36.317 147.761 36.2518 147.847 36.159C147.947 36.0491 148.054 35.7708 147.812 35.8121C147.612 35.8464 147.436 35.9701 147.311 36.1281Z" fill="#231815"/>
<path d="M144.825 32.0436C144.825 32.0436 141.427 33.6135 141.077 36.6709C140.728 39.7283 141.921 40.3948 143.449 40.6421C144.977 40.8894 148.172 40.7795 151.177 38.7046C154.178 36.6263 153.877 35.0838 153.289 34.1082C152.701 33.1326 151.28 31.518 148.933 31.329C146.429 31.1298 144.825 32.0402 144.825 32.0402V32.0436Z" fill="#FFE240"/>
<path d="M143.239 36.427C143.367 36.427 143.944 36.3926 144.373 37.0591C144.801 37.7255 144.328 38.1446 143.792 38.1206C143.256 38.0965 142.765 37.65 142.699 37.1484C142.634 36.6469 143.017 36.427 143.239 36.4304V36.427Z" fill="#FF7140"/>
<path d="M151.467 35.9976C151.425 36.1384 151.294 36.7911 150.44 37.0556C149.586 37.3202 149.271 36.6606 149.458 36.0766C149.645 35.4926 150.281 35.0872 150.848 35.1731C151.415 35.259 151.54 35.7571 151.47 35.9976H151.467Z" fill="#FF7140"/>
<path d="M146.378 35.9735C146.33 35.9735 146.281 35.9838 146.243 36.0147C146.202 36.0491 146.184 36.1109 146.184 36.1659C146.181 36.2896 146.226 36.4132 146.298 36.5163C146.371 36.6193 146.464 36.7052 146.565 36.7808C146.599 36.8083 146.641 36.8529 146.62 36.8907C146.61 36.9113 146.585 36.9216 146.561 36.9285C146.468 36.9629 146.381 37.0041 146.295 37.0556C146.215 37.1003 146.139 37.1587 146.098 37.2377C146.039 37.3511 146.067 37.4953 146.146 37.5915C146.226 37.6877 146.357 37.7392 146.485 37.7427C146.613 37.7461 146.738 37.7015 146.848 37.6396C146.98 37.564 147.097 37.4507 147.128 37.3064C147.156 37.1896 147.125 37.0694 147.139 36.9526C147.156 36.7945 147.256 36.64 147.211 36.4888C147.173 36.3514 147.038 36.3033 146.948 36.2071C146.859 36.1109 146.731 36.0388 146.599 36.001C146.527 35.9804 146.451 35.9735 146.374 35.9769L146.378 35.9735Z" fill="#FFA6A6"/>
<path d="M146.786 36.7293C146.54 36.6365 146.374 36.5438 146.343 36.2999C146.312 36.056 146.609 36.1659 146.768 36.2827C146.927 36.3995 147.069 36.6125 147.232 36.4716C147.449 36.2827 146.786 35.9323 146.786 35.9323C146.295 35.733 146.084 35.9357 146.046 36.3514C146.008 36.7671 146.464 36.8289 146.464 36.8289C146.464 36.8289 146.143 36.8426 146.025 37.1312C145.907 37.4198 146.084 37.6946 146.34 37.7736C146.595 37.8526 146.862 37.7221 146.979 37.619C147.097 37.5159 147.228 37.3923 147.08 37.3098C146.931 37.2274 146.882 37.4713 146.723 37.54C146.564 37.6087 146.319 37.6053 146.243 37.406C146.167 37.2068 146.43 37.0453 146.634 37.0316C146.634 37.0316 146.72 37.0316 146.793 36.8942C146.865 36.7568 146.793 36.7293 146.789 36.7258L146.786 36.7293Z" fill="#231815"/>
<path d="M147.311 36.1281C147.162 36.3205 147.083 36.5575 147.045 36.798C147.021 36.9594 147.01 37.1209 147.038 37.2824C147.066 37.4438 147.131 37.5984 147.245 37.7152C147.287 37.7564 147.335 37.7942 147.391 37.808C147.446 37.8217 147.515 37.808 147.55 37.7564C147.598 37.6843 147.557 37.5881 147.515 37.5125C147.429 37.3373 147.37 37.1449 147.37 36.9491C147.37 36.7533 147.436 36.5541 147.567 36.4098C147.653 36.317 147.761 36.2518 147.847 36.159C147.947 36.0491 148.054 35.7708 147.812 35.8121C147.612 35.8464 147.436 35.9701 147.311 36.1281Z" fill="#231815"/>
<path d="M147.951 34.9807C147.927 34.9326 147.913 34.8742 147.941 34.8227C147.968 34.7678 148.044 34.7403 148.11 34.7437C148.176 34.7471 148.234 34.7781 148.286 34.8124C148.421 34.9017 148.521 35.022 148.622 35.1388C148.629 35.046 148.636 34.9533 148.642 34.8605C148.649 34.7712 148.656 34.6784 148.708 34.5994C148.76 34.5204 148.867 34.462 148.957 34.4895C149.037 34.5135 149.075 34.5926 149.099 34.6647C149.133 34.7643 149.154 34.8708 149.158 34.9773C149.158 35.0117 149.168 35.0563 149.206 35.0598C149.241 35.0632 149.265 35.0288 149.282 35.0014C149.33 34.9189 149.386 34.8399 149.445 34.7643C149.479 34.7197 149.524 34.6716 149.583 34.675C149.621 34.675 149.652 34.699 149.666 34.7265C149.68 34.754 149.683 34.7918 149.676 34.8227C149.652 34.9601 149.517 35.0838 149.534 35.2212C149.534 35.2487 149.548 35.2762 149.541 35.3002C149.528 35.3586 149.455 35.3861 149.393 35.3998C149.082 35.4823 148.763 35.5544 148.445 35.5613C148.394 35.5613 148.331 35.5613 148.286 35.5338C148.245 35.5098 148.252 35.4582 148.238 35.4205C148.2 35.3174 148.127 35.2281 148.058 35.1388C148.02 35.0872 147.982 35.0323 147.954 34.9773L147.951 34.9807Z" fill="black"/>
<path d="M144.162 35.8464C144.13 35.8017 144.11 35.7502 144.124 35.6987C144.141 35.6437 144.2 35.6059 144.258 35.6025C144.317 35.5991 144.376 35.6162 144.428 35.6437C144.563 35.709 144.673 35.8086 144.784 35.9048C144.774 35.8155 144.763 35.7296 144.753 35.6403C144.742 35.5578 144.732 35.4685 144.763 35.3861C144.794 35.3036 144.881 35.2349 144.967 35.2521C145.043 35.2658 145.092 35.3311 145.123 35.3964C145.171 35.4857 145.206 35.5819 145.23 35.6815C145.237 35.7124 145.254 35.7537 145.285 35.7502C145.316 35.7502 145.334 35.7159 145.344 35.6849C145.372 35.6025 145.406 35.5201 145.448 35.441C145.468 35.3964 145.503 35.3449 145.555 35.338C145.586 35.3346 145.621 35.3517 145.638 35.3758C145.655 35.3998 145.666 35.4342 145.666 35.4651C145.669 35.5991 145.569 35.733 145.607 35.8601C145.614 35.8842 145.628 35.9082 145.628 35.9357C145.628 35.9907 145.565 36.025 145.51 36.0491C145.247 36.1659 144.977 36.2793 144.694 36.3308C144.646 36.3377 144.594 36.3445 144.549 36.3308C144.507 36.3136 144.507 36.2655 144.487 36.2312C144.435 36.1384 144.352 36.0663 144.279 35.9907C144.238 35.946 144.193 35.9014 144.158 35.8533L144.162 35.8464Z" fill="black"/>
<path d="M148.28 35.5407C148.324 35.5647 148.383 35.5681 148.439 35.5681C148.76 35.5613 149.075 35.4891 149.386 35.4067C149.448 35.3895 149.521 35.362 149.535 35.3071C149.542 35.2796 149.535 35.2521 149.528 35.228C149.51 35.0906 149.649 34.967 149.669 34.8296C149.676 34.7952 149.673 34.7608 149.659 34.7334C149.642 34.7059 149.611 34.6818 149.576 34.6818C149.517 34.6818 149.472 34.7265 149.438 34.7712C149.379 34.8467 149.327 34.9257 149.275 35.0082C149.258 35.0357 149.234 35.07 149.199 35.0666C149.161 35.0632 149.154 35.0185 149.151 34.9841C149.144 34.8777 149.123 34.7746 149.092 34.6715C149.068 34.5994 149.03 34.5238 148.95 34.4963C148.86 34.4688 148.75 34.5272 148.701 34.6063C148.653 34.6853 148.643 34.778 148.636 34.8673C148.629 34.9601 148.622 35.0528 148.615 35.1456C148.515 35.0254 148.414 34.9051 148.28 34.8192C148.228 34.7849 148.169 34.754 148.103 34.7505C148.037 34.7471 147.965 34.7746 147.934 34.8296C147.906 34.8811 147.923 34.9395 147.944 34.9876C147.972 35.046 148.01 35.0975 148.048 35.149C148.114 35.2384 148.19 35.3277 148.228 35.4307C148.241 35.4685 148.235 35.5235 148.276 35.5441L148.28 35.5407Z" fill="black"/>
<path d="M144.549 36.3239C144.594 36.3411 144.646 36.3342 144.694 36.3239C144.977 36.2758 145.247 36.1625 145.51 36.0422C145.562 36.0182 145.624 35.9838 145.628 35.9289C145.628 35.9014 145.617 35.8808 145.607 35.8533C145.569 35.7262 145.669 35.5922 145.666 35.4582C145.666 35.4273 145.659 35.3929 145.638 35.3689C145.617 35.3449 145.586 35.3277 145.555 35.3311C145.503 35.338 145.472 35.3895 145.448 35.4342C145.41 35.5132 145.375 35.5956 145.344 35.6781C145.334 35.7056 145.316 35.7399 145.285 35.7433C145.251 35.7433 145.237 35.7056 145.23 35.6746C145.206 35.575 145.171 35.4788 145.123 35.3895C145.088 35.3242 145.04 35.259 144.967 35.2452C144.881 35.2315 144.794 35.3002 144.763 35.3792C144.732 35.4582 144.742 35.5475 144.753 35.6334L144.784 35.8979C144.673 35.8017 144.563 35.7021 144.428 35.6369C144.376 35.6128 144.317 35.5922 144.258 35.5956C144.2 35.5991 144.141 35.6369 144.124 35.6918C144.11 35.7433 144.13 35.7949 144.162 35.8395C144.196 35.8911 144.238 35.9357 144.283 35.9769C144.359 36.0525 144.438 36.1247 144.49 36.2174C144.511 36.2518 144.511 36.3033 144.552 36.317L144.549 36.3239Z" fill="black"/>
<path d="M148.93 31.3118C146.426 31.1126 144.822 32.0229 144.822 32.0229C144.822 32.0229 142.277 33.2012 141.368 35.496C141.379 35.496 141.385 35.4891 141.392 35.4857C145.144 35.0322 148.307 33.2734 151.741 32.4008C151.018 31.8546 150.098 31.3977 148.93 31.305V31.3118Z" fill="#FFE240"/>
<path d="M144.421 32.2359C144.421 32.2359 144.504 33.5688 146.195 33.5276C146.769 33.507 147.156 33.3455 146.997 33.0226C146.838 32.6997 145.925 32.2634 146.523 31.4492C146.523 31.4492 145.593 31.542 144.424 32.2359H144.421Z" fill="black"/>
<path d="M140.013 29.821C139.186 29.711 138.422 29.2301 138.464 28.7389C138.467 28.4915 138.536 28.1411 139.107 27.9797C139.107 27.9797 137.658 28.1308 137.05 27.2995C136.635 26.7327 137.261 26.3204 138.654 26.238C139.619 26.1796 140.414 26.8357 140.566 27.1483C140.773 27.5709 140.811 29.924 140.016 29.8175L140.013 29.821Z" fill="#2CE69D"/>
<path d="M150.644 23.0122C150.578 22.0194 150.039 21.1227 149.465 21.2499C149.171 21.2945 148.763 21.4319 148.666 22.1293C148.666 22.1293 148.608 20.3979 147.519 19.8139C146.775 19.4154 146.384 20.2227 146.516 21.8751C146.606 23.0225 147.519 23.8538 147.916 23.9809C148.456 24.1561 150.682 23.5584 150.644 23.0122Z" fill="#2CE69D"/>
<path d="M132.7 30.3705L132.655 30.1301C132.627 29.9686 132.741 29.8209 132.904 29.8037L134.754 29.6113L133.073 28.8143C132.925 28.7456 132.869 28.5636 132.949 28.4227L133.07 28.2097C133.149 28.0689 133.336 28.0242 133.471 28.117L135.013 29.1476L134.242 27.4643C134.173 27.3166 134.249 27.1414 134.401 27.0864L134.633 27.0005C134.785 26.9456 134.954 27.028 134.999 27.186L135.511 28.9621L136.009 27.1792C136.054 27.0211 136.22 26.9352 136.375 26.9902L136.607 27.0727C136.762 27.1276 136.835 27.2994 136.769 27.4505L136.016 29.1373L137.551 28.0895C137.686 27.9967 137.872 28.038 137.952 28.1788L138.076 28.3918C138.159 28.5327 138.104 28.7113 137.955 28.7834L136.285 29.5942L138.139 29.7728C138.301 29.79 138.415 29.9377 138.388 30.0991L138.346 30.3396C138.318 30.5011 138.159 30.6041 138 30.5629L136.195 30.1163L137.499 31.4355C137.613 31.5523 137.606 31.7412 137.478 31.8443L137.288 32.0023C137.164 32.1088 136.973 32.0847 136.88 31.9542L135.787 30.4598L135.933 32.3046C135.947 32.4661 135.815 32.6069 135.653 32.6069H135.407C135.245 32.6069 135.113 32.4695 135.124 32.308L135.252 30.4667L134.169 31.9714C134.073 32.1053 133.886 32.1294 133.761 32.0229L133.571 31.8649C133.447 31.7618 133.436 31.5729 133.547 31.4561L134.837 30.1266L133.035 30.587C132.876 30.6282 132.717 30.5251 132.69 30.3671L132.7 30.3705Z" fill="#FF0AD2"/>
<path d="M133.229 30.6557L134.778 29.8759L133.046 29.7351C132.818 29.7179 132.652 29.5083 132.686 29.2816C132.721 29.0549 132.942 28.9071 133.167 28.9587L134.857 29.3503L133.62 28.1376C133.457 27.9762 133.464 27.7117 133.637 27.5605C133.81 27.4094 134.076 27.4368 134.214 27.6224L135.255 28.9999L135.093 27.2788C135.072 27.0521 135.248 26.8528 135.48 26.8494C135.711 26.846 135.895 27.0349 135.884 27.2651L135.791 28.9862L136.78 27.5674C136.911 27.3784 137.174 27.3407 137.354 27.4849C137.534 27.6292 137.551 27.8937 137.395 28.0621L136.209 29.3194L137.886 28.8625C138.108 28.8007 138.336 28.9415 138.381 29.1648C138.426 29.3881 138.267 29.6045 138.038 29.632L136.317 29.8381L137.897 30.5595C138.108 30.6557 138.19 30.9065 138.08 31.1092C137.969 31.3118 137.71 31.3737 137.516 31.25L136.064 30.3087L136.808 31.8684C136.908 32.0745 136.808 32.3218 136.593 32.4043C136.379 32.4867 136.137 32.3699 136.071 32.1501L135.566 30.5011L135.127 32.1707C135.068 32.3905 134.833 32.5176 134.615 32.4421C134.398 32.3665 134.29 32.126 134.38 31.9165L135.061 30.3294L133.644 31.329C133.457 31.463 133.194 31.408 133.077 31.2122C132.959 31.0164 133.032 30.7622 133.236 30.6591L133.229 30.6557Z" fill="#FF94F0"/>
<path d="M147.111 19.6147L147.048 19.2678C147.007 19.0376 147.169 18.8212 147.401 18.7972L150.046 18.5189L147.643 17.3784C147.432 17.2788 147.349 17.0211 147.467 16.8184L147.643 16.5127C147.761 16.31 148.023 16.2482 148.217 16.3787L150.423 17.8559L149.32 15.4443C149.223 15.2313 149.327 14.984 149.548 14.9015L149.88 14.7813C150.101 14.7023 150.343 14.8225 150.406 15.0458L151.139 17.5879L151.854 15.0389C151.917 14.8157 152.159 14.692 152.38 14.771L152.712 14.8912C152.933 14.9702 153.04 15.2176 152.943 15.4306L151.861 17.8456L154.057 16.3478C154.25 16.2173 154.517 16.2757 154.634 16.4749L154.814 16.7772C154.931 16.9799 154.852 17.2375 154.641 17.3372L152.252 18.4983L154.904 18.7525C155.135 18.7765 155.301 18.9895 155.263 19.2197L155.205 19.5667C155.167 19.7968 154.938 19.9445 154.71 19.8861L152.127 19.2472L153.995 21.1366C154.157 21.3015 154.147 21.5729 153.967 21.724L153.697 21.9507C153.517 22.1019 153.248 22.0675 153.109 21.882L151.547 19.7453L151.754 22.3836C151.771 22.6172 151.588 22.813 151.353 22.8164H151C150.765 22.8164 150.582 22.6206 150.596 22.3905L150.779 19.7522L149.23 21.9061C149.095 22.095 148.826 22.1294 148.646 21.9817L148.373 21.7584C148.193 21.6106 148.179 21.3393 148.342 21.1709L150.188 19.2678L147.609 19.9274C147.38 19.9858 147.152 19.8415 147.111 19.6113V19.6147Z" fill="#FF0AD2"/>
<path d="M147.864 20.0269L150.081 18.9104L147.602 18.7112C147.273 18.6837 147.038 18.3848 147.086 18.0619C147.138 17.739 147.453 17.526 147.774 17.6016L150.195 18.1615L148.424 16.4233C148.189 16.1931 148.203 15.8118 148.449 15.5988C148.698 15.3824 149.078 15.4236 149.275 15.6847L150.765 17.6566L150.533 15.1969C150.502 14.8705 150.758 14.5888 151.087 14.582C151.415 14.5751 151.681 14.8499 151.664 15.1763L151.529 17.6394L152.943 15.6057C153.13 15.3377 153.51 15.2828 153.766 15.4889C154.022 15.695 154.05 16.0729 153.825 16.3134L152.127 18.1134L154.527 17.4607C154.845 17.3749 155.17 17.5741 155.232 17.897C155.294 18.2199 155.07 18.5257 154.745 18.5669L152.28 18.8623L154.541 19.8929C154.841 20.0303 154.959 20.391 154.8 20.6762C154.641 20.9613 154.271 21.054 153.994 20.8754L151.913 19.5288L152.978 21.7617C153.12 22.0572 152.978 22.411 152.67 22.5278C152.362 22.6446 152.02 22.4797 151.923 22.1671L151.201 19.807L150.572 22.198C150.489 22.514 150.15 22.6961 149.839 22.5896C149.527 22.4831 149.372 22.1362 149.5 21.8339L150.475 19.5631L148.445 20.9922C148.175 21.1812 147.802 21.1056 147.633 20.8239C147.463 20.5422 147.567 20.1781 147.861 20.0303L147.864 20.0269Z" fill="#FF94F0"/>
<path d="M102.43 115.488C102.306 115.54 102.16 115.509 102.077 115.406C100.504 113.389 104.933 108.082 108.927 103.987C114.472 98.2982 122.463 91.541 131.435 84.9556C148.038 72.7706 166.86 62.2827 169.626 65.8245C169.723 65.9482 169.692 66.1268 169.56 66.2264C169.429 66.3226 169.242 66.302 169.145 66.1783C167.182 63.6603 151.702 70.785 131.784 85.4056C122.84 91.9704 114.874 98.707 109.352 104.368C104.09 109.769 101.548 113.764 102.555 115.056C102.651 115.179 102.62 115.358 102.489 115.457C102.468 115.471 102.447 115.485 102.427 115.492L102.43 115.488Z" fill="#2CE69D"/>
<path d="M119.413 61.9084C119.413 61.9084 117.781 64.4573 116.716 68.7343C115.651 73.0112 114.123 80.3077 116.329 85.6427C116.329 85.6427 102.011 93.695 101.296 94.2481C100.58 94.8012 99.1694 96.3196 101.604 97.2299C104.038 98.1369 116.436 103.029 116.436 103.029C116.436 103.029 114.863 115.65 114.676 116.454C114.489 117.258 114.431 120.147 117.698 118.127C120.965 116.107 143.518 98.2605 143.518 98.2605C143.518 98.2605 172.613 93.7878 174.058 93.75C176.008 93.7019 176.496 92.1079 174.349 91.0533C172.364 90.0777 160.232 83.1625 160.232 83.1625C160.232 83.1625 167.728 73.5024 168.457 72.3104C169.187 71.1184 170.908 69.1774 166.234 69.3148C161.559 69.4522 147.768 70.2183 147.768 70.2183C147.768 70.2183 141.375 59.3388 132.686 55.4706C131.324 54.9622 129.713 54.6324 131.054 56.3192C132.396 58.0059 135.642 65.1307 133.094 69.679C130.546 74.2239 127.196 75.3128 123.686 68.0644C122.953 66.1784 121.944 62.9458 122.003 61.0701C122.003 61.0701 121.982 60.4655 122.003 59.9571C122.027 59.3182 122.051 58.7788 121.491 59.167C120.485 59.8644 119.416 61.9118 119.416 61.9118L119.413 61.9084Z" fill="#EDFF4A"/>
<path d="M147.768 70.2183C147.768 70.2183 141.375 59.3388 132.686 55.4706C131.324 54.9622 129.713 54.6324 131.054 56.3192C132.396 58.0059 135.642 65.1307 133.094 69.679C130.546 74.2239 127.196 75.3128 123.686 68.0644C122.953 66.1784 121.944 62.9458 122.002 61.0701C122.002 61.0701 121.982 60.4655 122.002 59.9571C122.027 59.3182 122.051 58.7788 121.491 59.167C120.485 59.8644 119.416 61.9118 119.416 61.9118C119.416 61.9118 117.784 64.4608 116.719 68.7377C115.655 73.0146 114.126 80.3112 116.332 85.6462C116.332 85.6462 124.99 89.0471 135.179 86.237C148.082 82.6815 147.961 71.5649 147.771 70.2218L147.768 70.2183Z" fill="#5BB3FD"/>
<path d="M126.629 79.3765C126.629 79.3765 123.846 80.2938 124.423 83.6603C125 87.0269 126.719 92.0802 129.73 92.0527C132.742 92.0253 133.924 89.3389 133.326 86.8792C132.728 84.4195 131.117 77.7173 126.629 79.3765Z" fill="white"/>
<path d="M131.113 92.1421C130.688 92.2795 130.221 92.3551 129.723 92.3586C126.681 92.386 124.796 87.7209 124.108 83.7188C123.51 80.2457 126.318 79.1671 126.522 79.0915C127.6 78.693 128.606 78.717 129.509 79.1636C132.088 80.4347 133.167 84.8765 133.627 86.7728C134.011 88.3565 133.71 89.9229 132.825 90.9879C132.372 91.5307 131.791 91.9223 131.11 92.1421H131.113ZM126.726 79.6652C126.615 79.703 124.216 80.5549 124.738 83.6055C125.26 86.6422 126.902 91.778 129.737 91.7505C130.826 91.7402 131.725 91.3486 132.33 90.6203C133.091 89.7031 133.347 88.3358 133.011 86.9583C132.562 85.1135 131.528 80.8572 129.201 79.7098C128.451 79.3388 127.645 79.3217 126.733 79.6617H126.722L126.726 79.6652Z" fill="black"/>
<path d="M127.327 81.0153C127.327 81.0153 125.128 81.8191 125.875 84.4918C126.549 86.8999 127.6 90.7612 130.079 90.3386C132.99 89.8439 132.375 87.1129 131.255 84.0967C130.439 81.8947 129.398 80.3935 127.327 81.0153Z" fill="#2CE69D"/>
<path d="M127.874 82.1523C127.874 82.1523 126.128 82.6436 126.733 84.7631C127.248 86.5701 128.04 89.0092 129.689 88.7962C131.715 88.5385 131.38 86.443 130.536 84.2822C129.993 82.8875 129.402 81.7676 127.87 82.1523H127.874Z" fill="black"/>
<path d="M127.227 83.9318C127.227 83.9318 126.584 84.1654 126.788 85.0036C126.992 85.8418 127.227 86.6972 127.935 86.6732C128.648 86.6457 128.945 86.0273 128.772 85.4262C128.599 84.825 128.319 83.4646 127.223 83.9318H127.227Z" fill="white"/>
<path d="M138.685 85.1204C138.685 85.1204 139.034 86.6663 137.7 88.0817C136.324 89.5451 135.961 89.0057 135.622 88.8752C135.283 88.7447 132.863 87.0236 133.934 85.2819C135.003 83.5402 137.513 83.7738 138.685 85.117V85.1204Z" fill="#FF7140"/>
<path d="M136.192 89.4901C136.137 89.5073 136.078 89.5107 136.02 89.5004C135.027 89.2943 133.672 88.1675 133.312 86.8759C133.067 85.9964 133.309 85.1823 134.011 84.5227C135.688 82.9528 137.849 83.9112 138.754 84.6395C138.886 84.746 138.9 84.9384 138.786 85.0689C138.671 85.1994 138.467 85.2166 138.336 85.1136C138.246 85.0414 136.127 83.3856 134.45 84.9555C133.917 85.4537 133.741 86.0445 133.928 86.7075C134.218 87.745 135.373 88.7412 136.172 88.9095C136.341 88.9439 136.448 89.1088 136.403 89.2703C136.376 89.3767 136.293 89.4592 136.189 89.4935L136.192 89.4901Z" fill="black"/>
<path d="M129.754 94.6878C129.606 94.7359 129.443 94.674 129.374 94.54C128.281 92.3964 126.985 91.1116 125.516 90.72C124.122 90.349 123.054 90.9605 123.043 90.9639C122.891 91.0532 122.698 91.0086 122.608 90.8677C122.518 90.7269 122.57 90.5379 122.718 90.4486C122.77 90.4177 124.022 89.6929 125.685 90.1291C127.334 90.562 128.769 91.9498 129.945 94.2583C130.021 94.4061 129.955 94.5916 129.796 94.6671C129.782 94.674 129.768 94.6809 129.751 94.6843L129.754 94.6878Z" fill="black"/>
<path d="M146.17 81.108C145.572 78.6484 144.331 73.2103 139.843 74.8696C139.843 74.8696 137.06 75.7868 137.637 79.1534C138.215 82.5199 139.933 87.5732 142.945 87.5458C142.945 87.5458 143.349 87.6145 144.507 87.2366C144.507 87.2366 142.955 82.8978 145.915 81.2283L146.17 81.1046V81.108Z" fill="white"/>
<path d="M144.919 87.4221L144.608 87.5251C143.546 87.8687 143.066 87.8652 142.92 87.8515C139.892 87.8584 138.014 83.207 137.326 79.2118C136.711 75.6253 139.719 74.5913 139.75 74.581C140.953 74.1378 142.039 74.1447 142.979 74.6085C145.192 75.7009 146.011 79.0915 146.454 80.9122L146.54 81.2661L146.053 81.4997C143.377 83.0077 144.798 87.0889 144.812 87.1301L144.915 87.4221H144.919ZM143.01 87.2469C143.01 87.2469 143.321 87.2744 144.113 87.0442C143.809 85.9896 143.041 82.5028 145.759 80.9706L145.8 80.95C145.375 79.198 144.587 76.0994 142.668 75.1547C141.887 74.7665 140.995 74.7699 139.95 75.1547C139.836 75.1925 137.426 76.041 137.952 79.0984C138.474 82.1352 140.116 87.2709 142.951 87.2434H143.01V87.2469Z" fill="black"/>
<path d="M143.294 85.8281C140.815 86.2507 139.764 82.3894 139.089 79.9813C138.343 77.3086 140.541 76.5048 140.541 76.5048C142.616 75.8796 143.619 77.4357 144.435 79.6378L144.901 81.2386C144.901 81.2386 144.144 82.2692 143.788 83.2345C143.788 83.2345 143.38 84.3888 143.373 84.8697C143.366 85.3506 143.294 85.8281 143.294 85.8281Z" fill="#2CE69D"/>
<path d="M147.049 81.4C147.785 81.2007 148.853 81.4756 149.261 81.6576C150.247 82.0939 150.586 82.994 150.731 83.949C150.876 84.904 150.551 86.0617 149.853 86.7831C149.365 87.2881 148.445 87.8171 147.619 87.8686C146.748 87.9202 145.652 87.5869 145.227 86.8724C144.801 86.1578 144.552 84.6154 144.787 83.8081C144.787 83.8081 145.078 81.9325 147.049 81.4Z" fill="#FF7140"/>
<path d="M111.032 114.262C106.471 116.21 103.201 116.845 102.167 115.519C102.07 115.396 102.101 115.217 102.233 115.117C102.364 115.021 102.551 115.042 102.647 115.165C104.611 117.683 120.09 110.559 140.009 95.9381C148.953 89.3733 156.919 82.6367 162.441 76.9754C167.703 71.5751 170.244 67.5799 169.238 66.2882C169.141 66.1645 169.173 65.9859 169.304 65.8863C169.439 65.7901 169.622 65.8107 169.719 65.9344C171.292 67.9509 166.863 73.2584 162.87 77.3533C157.324 83.0421 149.33 89.7993 140.362 96.3847C129.961 104.018 118.687 110.988 111.035 114.255L111.032 114.262Z" fill="#2CE69D"/>
<path d="M146.461 82.0493C146.461 82.0493 145.787 82.4272 145.811 83.0765C145.835 83.7257 146.382 84.2651 147.059 83.8254C147.737 83.3857 147.996 82.8944 147.958 82.489C147.927 82.1661 147.329 81.5821 146.465 82.0493H146.461Z" fill="white"/>
<path d="M138.726 65.1855C138.916 67.0921 138.311 73.5264 131.929 75.0036C125.546 76.4807 123.631 67.9406 123.631 67.9406C127.14 75.1891 130.532 74.2134 133.08 69.6651C135.628 65.1202 132.385 57.9955 131.04 56.3053C129.699 54.6186 131.31 54.9484 132.672 55.4568C132.672 55.4568 137.938 57.1985 138.726 65.1855Z" fill="#EDFF4A"/>
<path d="M131.362 74.5984C129.315 75.2649 127.082 74.6775 125.972 73.7465C125.841 73.6366 125.83 73.4442 125.951 73.3171C126.069 73.19 126.269 73.1728 126.401 73.2827C127.272 74.011 129.398 74.6946 131.383 73.9492C133.419 73.1831 134.726 71.1322 135.169 68.0199C136.248 60.3936 130.678 55.6632 130.622 55.6151C130.491 55.5051 130.481 55.3128 130.598 55.1857C130.716 55.0586 130.916 55.0414 131.048 55.1513C131.106 55.1994 136.925 60.1393 135.798 68.0852C135.2 72.3209 133.184 73.9217 131.601 74.516C131.521 74.5469 131.442 74.5744 131.362 74.5984Z" fill="#5BB3FD"/>
<path d="M133.865 75.0036C133.731 75.0482 133.578 75.0036 133.499 74.8833C133.406 74.7425 133.45 74.5536 133.599 74.4608C139.909 70.4999 137.34 63.5366 135.248 59.7372C133.119 55.8725 130.965 55.6939 130.944 55.6904C130.767 55.6801 130.64 55.5358 130.657 55.3675C130.674 55.1992 130.83 55.0721 131.006 55.0824C131.106 55.0892 133.53 55.2885 135.815 59.4383C138.011 63.4198 140.683 70.7335 133.941 74.9624C133.917 74.9761 133.893 74.9898 133.865 74.9967V75.0036Z" fill="#5BB3FD"/>
<path d="M140.756 77.9647C140.756 77.9647 139.069 78.4422 139.643 80.4553C140.131 82.1695 140.819 84.533 142.478 84.2788C144.314 83.9971 144.12 82.0321 143.318 79.9778C142.803 78.6518 142.236 77.5937 140.756 77.9647Z" fill="black"/>
<path d="M140.168 79.7236C140.168 79.7236 139.525 79.9572 139.729 80.7954C139.933 81.6371 140.168 82.489 140.877 82.465C141.589 82.4375 141.886 81.8192 141.714 81.218C141.541 80.6168 141.261 79.2564 140.165 79.7236H140.168Z" fill="white"/>
<path d="M140.175 91.304C139.688 90.2115 138.796 89.5485 138.059 89.7856C137.24 90.0535 136.929 91.3349 137.361 92.654C137.444 92.9082 137.554 93.1418 137.679 93.3548C137.917 92.8395 138.626 91.6475 140.175 91.304Z" fill="black"/>
<path d="M139.629 94.5572C140.448 94.2892 140.759 93.0079 140.327 91.6887C140.282 91.5547 140.23 91.4276 140.172 91.304C138.623 91.6509 137.914 92.8395 137.675 93.3548C138.184 94.2514 138.965 94.7702 139.629 94.5572Z" fill="#912407"/>
<path d="M105.853 82.6676C105.611 82.3997 105.196 82.3619 104.85 82.4546C104.504 82.5474 104.196 82.7432 103.868 82.8841C102.786 83.3513 101.489 83.1898 100.442 82.6298C99.56 82.1592 98.8097 81.3897 98.5054 80.445C98.1666 79.3869 98.4121 78.2292 98.8616 77.2227C99.4251 75.9551 100.383 74.7768 101.71 74.3336C102.793 73.9729 104.017 74.1413 105.047 74.6462C105.776 75.0035 106.433 75.5325 106.866 76.2162C107.298 76.8998 107.488 77.7414 107.315 78.5212C107.239 78.8545 107.101 79.1739 107.059 79.514C107.018 79.8541 107.101 80.2423 107.381 80.445" fill="#FFC200"/>
<path d="M107.194 81.9394C105.375 81.7711 102.637 81.3966 100.801 81.1596C100.732 81.1493 100.673 81.1081 100.642 81.0497C99.8193 79.5244 100.483 78.164 102.271 78.1159L102.049 78.4869C101.13 76.522 101.849 75.0929 104.141 75.9242C104.196 75.9414 104.245 75.9792 104.273 76.0273C105.185 77.714 106.489 80.074 107.322 81.7676C106.281 80.2011 104.867 77.8823 103.875 76.254L104.003 76.3571C102.08 75.7628 101.845 76.6628 102.527 78.2636C102.609 78.4251 102.488 78.6312 102.305 78.6347C100.853 78.6656 100.452 79.6137 101.036 80.8367L100.874 80.7233C102.706 81.0531 105.403 81.5512 107.198 81.9394H107.194Z" fill="white"/>
<path d="M105.497 82.9769C105.497 82.9769 105.359 82.9082 105.504 82.7158C105.649 82.5234 107.333 80.184 107.333 80.184C107.333 80.184 107.506 79.8783 107.648 80.0019C107.789 80.1256 108.612 80.9054 108.612 80.9054C108.612 80.9054 108.809 81.0531 108.54 81.4619C108.27 81.8707 106.987 83.4956 106.987 83.4956C106.987 83.4956 106.787 83.7361 106.631 83.6571C106.475 83.5781 105.497 82.9769 105.497 82.9769Z" fill="#FF7300"/>
<path d="M98.4609 75.6768C98.2327 75.9894 97.8801 76.1199 97.6692 75.9688L95.8229 74.6428C95.612 74.4916 95.6258 74.1137 95.854 73.8011C96.0822 73.4885 96.4348 73.358 96.6458 73.5091L98.492 74.8352C98.7029 74.9863 98.6891 75.3642 98.4609 75.6768Z" fill="#FFC200"/>
<path d="M97.9975 81.5305C98.1358 81.8912 98.039 82.2622 97.7832 82.355L95.5566 83.1898C95.3007 83.286 94.9861 83.0695 94.8478 82.7088C94.7095 82.3481 94.8063 81.9771 95.0621 81.8844L97.2887 81.0496C97.5446 80.9534 97.8592 81.1698 97.9975 81.5305Z" fill="#FFC200"/>
<path d="M107.993 76.2505C107.82 75.9036 107.844 75.5429 108.052 75.4432L109.846 74.5569C110.05 74.4573 110.358 74.6531 110.531 75.0001C110.704 75.3471 110.679 75.7078 110.472 75.8074L108.677 76.6937C108.473 76.7933 108.166 76.5975 107.993 76.2505Z" fill="#FFC200"/>
<path d="M103.993 73.2069C103.606 73.1828 103.305 72.9458 103.322 72.6778L103.474 70.335C103.491 70.067 103.82 69.8712 104.207 69.8952C104.594 69.9193 104.895 70.1563 104.878 70.4243L104.726 72.7671C104.708 73.0351 104.38 73.2309 103.993 73.2069Z" fill="#FFC200"/>
<path d="M101.735 87.3705C101.348 87.3362 101.054 87.106 101.075 86.8518L101.268 84.6292C101.289 84.3749 101.621 84.1963 102.008 84.2307C102.396 84.265 102.689 84.4952 102.669 84.7494L102.475 86.972C102.454 87.2262 102.122 87.4049 101.735 87.3705Z" fill="#FFC200"/>
<path d="M151.484 65.6699C151.495 65.426 151.315 65.213 151.1 65.0928C150.886 64.9726 150.648 64.921 150.423 64.8351C149.676 64.55 149.13 63.8561 148.891 63.09C148.691 62.4442 148.698 61.7193 149.005 61.1182C149.348 60.4483 150.022 60.0051 150.724 59.7303C151.605 59.3868 152.629 59.27 153.483 59.6856C154.178 60.0223 154.686 60.6853 154.942 61.417C155.122 61.9358 155.187 62.5026 155.066 63.0351C154.945 63.5675 154.634 64.0656 154.178 64.3611C153.981 64.4882 153.759 64.5741 153.576 64.7183C153.393 64.8626 153.248 65.0894 153.286 65.3195" fill="#FFC200"/>
<path d="M152.48 65.9551C151.692 65.0069 150.554 63.5263 149.783 62.5404C149.759 62.5061 149.752 62.4648 149.762 62.427C149.832 62.2072 149.932 62.0114 150.067 61.8224C150.547 61.1182 151.367 61.2797 151.92 61.795L151.674 61.8602C151.764 61.6163 151.875 61.393 152.024 61.18C152.694 60.2044 153.459 60.7541 153.87 61.6163C153.87 61.9908 153.656 62.3927 153.576 62.7706C153.279 63.7977 152.947 64.9245 152.618 65.9345C152.836 64.897 153.106 63.7496 153.358 62.7156C153.445 62.3583 153.528 62.0011 153.621 61.6472L153.631 61.7434C153.517 61.5373 153.393 61.3381 153.241 61.18C152.66 60.5342 152.155 61.4583 151.961 61.9667C151.93 62.0698 151.795 62.1041 151.716 62.032C150.983 61.3415 150.323 61.6129 150.011 62.5061L149.991 62.3927C150.72 63.4164 151.789 64.9314 152.477 65.962L152.48 65.9551Z" fill="white"/>
<path d="M151.163 65.6528C151.163 65.6528 151.129 65.5531 151.291 65.5325C151.454 65.5119 153.386 65.1753 153.386 65.1753C153.386 65.1753 153.614 65.11 153.625 65.2371C153.635 65.3642 153.656 66.1303 153.656 66.1303C153.656 66.1303 153.68 66.2952 153.355 66.3639C153.03 66.4326 151.63 66.6112 151.63 66.6112C151.63 66.6112 151.419 66.6318 151.381 66.5219C151.343 66.412 151.16 65.6562 151.16 65.6562L151.163 65.6528Z" fill="#FF7300"/>
<path d="M151.267 58.7994C151.008 58.844 150.773 58.7375 150.745 58.5658L150.489 57.0508C150.461 56.879 150.648 56.7038 150.907 56.6592C151.167 56.6145 151.402 56.721 151.429 56.8928L151.685 58.4077C151.713 58.5795 151.526 58.7547 151.267 58.7994Z" fill="#FFC200"/>
<path d="M148.238 61.4032C148.131 61.6437 147.906 61.7742 147.74 61.7021L146.264 61.0494C146.094 60.9738 146.046 60.7196 146.153 60.4826C146.26 60.2455 146.485 60.1116 146.651 60.1837L148.127 60.8364C148.297 60.912 148.345 61.1662 148.238 61.4032Z" fill="#FFC200"/>
<path d="M155.592 63.5881C155.675 63.3408 155.862 63.1759 156.007 63.224L157.297 63.6465C157.445 63.6946 157.497 63.9351 157.414 64.1824C157.331 64.4298 157.145 64.5947 156.999 64.5466L155.71 64.124C155.561 64.0759 155.509 63.8355 155.592 63.5881Z" fill="#FFC200"/>
<path d="M155.122 60.225C154.946 60.0292 154.914 59.7716 155.053 59.6513L156.249 58.5932C156.387 58.473 156.64 58.5314 156.813 58.7272C156.985 58.923 157.02 59.1807 156.882 59.3009L155.685 60.359C155.547 60.4792 155.295 60.4208 155.122 60.225Z" fill="#FFC200"/>
<path d="M147.239 65.9928C147.069 65.7935 147.038 65.5427 147.17 65.4294L148.328 64.4469C148.459 64.3335 148.705 64.4057 148.878 64.6049C149.051 64.8042 149.078 65.0549 148.947 65.1683L147.789 66.1508C147.657 66.2642 147.412 66.192 147.239 65.9928Z" fill="#FFC200"/>
</g>
</g>
<defs>
<clipPath id="clip0_26866_1389">
<rect width="160" height="106" fill="white"/>
</clipPath>
</defs>
</svg>
