<svg width="160" height="106" viewBox="0 0 160 106" fill="none" xmlns="http://www.w3.org/2000/svg">
<g clip-path="url(#clip0_25209_119583)">
<mask id="mask0_25209_119583" style="mask-type:luminance" maskUnits="userSpaceOnUse" x="0" y="0" width="160" height="106">
<path d="M149.198 0H10.8017C4.83607 0 0 4.92899 0 11.0092V94.9908C0 101.071 4.83607 106 10.8017 106H149.198C155.164 106 160 101.071 160 94.9908V11.0092C160 4.92899 155.164 0 149.198 0Z" fill="white"/>
</mask>
<g mask="url(#mask0_25209_119583)">
<path d="M139.512 96.1336C139.358 94.4426 139.077 92.7673 138.681 91.1194C138.492 90.3426 138.281 89.5736 138.042 88.8124C137.923 88.4318 137.799 88.0513 137.668 87.6746C137.649 87.6236 137.511 87.1999 137.63 87.5648C137.749 87.9296 137.607 87.5098 137.588 87.4549C137.511 87.247 137.434 87.039 137.353 86.8311C136.152 83.7119 134.593 80.7458 132.822 77.9248C132.61 77.5835 132.391 77.2461 132.171 76.9086C132.075 76.7596 131.975 76.6105 131.879 76.4614C131.817 76.3672 131.756 76.277 131.694 76.1828C131.652 76.124 131.386 75.7159 131.586 76.0259C131.79 76.3397 131.544 75.967 131.517 75.9239C131.467 75.8493 131.417 75.7787 131.367 75.7042C131.251 75.5394 131.14 75.3746 131.024 75.2098C130.782 74.8645 130.535 74.5193 130.285 74.1779C129.338 72.8753 128.357 71.6002 127.325 70.3643C126.301 69.1402 125.223 67.9632 124.072 66.8685C123.795 66.6057 123.514 66.3506 123.233 66.0956C122.967 65.8563 123.337 66.1898 123.364 66.2094C123.279 66.1505 123.202 66.0721 123.125 66.0014C122.948 65.8524 122.771 65.7033 122.59 65.5581C122.001 65.0794 121.393 64.6282 120.762 64.2045C120.096 63.7572 119.41 63.3413 118.706 62.9608C118.617 62.9137 118.048 62.6312 118.39 62.796C118.733 62.9608 118.159 62.6861 118.067 62.6469C117.678 62.4703 117.285 62.3016 116.889 62.1486C116.254 61.9054 115.607 61.6935 114.949 61.5287C114.652 61.4542 114.352 61.3953 114.056 61.3286C114.826 61.5052 114.152 61.3521 113.983 61.3247C113.813 61.2972 113.625 61.2698 113.444 61.2462C112.758 61.1599 112.066 61.1089 111.373 61.1011C111.042 61.0971 110.714 61.101 110.383 61.1167C110.237 61.1246 110.091 61.1324 109.944 61.1403C109.533 61.1638 110.422 61.0971 110.137 61.1246C110.029 61.1364 109.918 61.1442 109.81 61.156C109.14 61.2266 108.47 61.3404 107.812 61.4895C107.492 61.564 107.177 61.6464 106.861 61.7366C106.703 61.7837 106.549 61.8308 106.391 61.8818C106.222 61.9367 105.564 62.2232 106.249 61.925C105.637 62.1918 105.021 62.435 104.432 62.7567C104.147 62.9098 103.87 63.0745 103.597 63.2511C103.462 63.3374 103.327 63.4316 103.192 63.5218C103.793 63.1216 103.269 63.4708 103.123 63.5846C102.58 64.0044 102.072 64.4635 101.607 64.9696C101.537 65.0441 101.16 65.4835 101.426 65.1657C101.691 64.8479 101.333 65.2874 101.272 65.3658C101.079 65.6169 100.894 65.8798 100.725 66.1505C100.567 66.4016 100.421 66.6606 100.282 66.9274C100.248 66.9902 100.186 67.0765 100.171 67.1471C100.171 67.1549 100.417 66.5978 100.29 66.9038C100.225 67.0529 100.159 67.202 100.097 67.355C99.8704 67.9279 99.6933 68.5203 99.5663 69.1245C99.4546 69.6542 99.6433 68.6066 99.574 69.0735C99.5547 69.2187 99.5316 69.3599 99.5124 69.5051C99.4739 69.8268 99.4469 70.1485 99.4354 70.4703C99.4238 70.7606 99.4238 71.0509 99.4354 71.3413C99.4392 71.4707 99.4469 71.6002 99.4546 71.7258C99.4739 72.1103 99.4007 71.2 99.4354 71.4786C99.4469 71.5728 99.4546 71.6708 99.4662 71.765C99.5355 72.3535 99.651 72.9381 99.8049 73.507C99.8434 73.6443 99.8819 73.7817 99.9243 73.919C99.982 74.0995 100.186 74.5977 99.9012 73.8837C100.017 74.1779 100.128 74.4761 100.263 74.7664C100.509 75.3 100.802 75.7983 101.114 76.2966C101.256 76.5242 100.767 75.8101 100.987 76.1083C101.025 76.1593 101.06 76.2103 101.098 76.2613C101.183 76.3751 101.268 76.4849 101.356 76.5948C101.541 76.8263 101.737 77.0499 101.945 77.2657C102.053 77.3795 102.165 77.4893 102.276 77.5953C102.323 77.6384 102.369 77.6816 102.415 77.7247C102.646 77.9444 102.207 77.5364 102.211 77.5482C102.219 77.607 102.488 77.7757 102.538 77.815C102.673 77.9209 102.811 78.0268 102.954 78.1249C103.189 78.2897 103.427 78.4388 103.674 78.58C103.785 78.6428 103.897 78.7017 104.009 78.7605C104.34 78.9371 103.562 78.5565 103.808 78.6624C103.897 78.6977 103.985 78.7448 104.074 78.7801C104.64 79.0234 105.225 79.196 105.826 79.3333C106.207 79.4197 105.329 79.2549 105.602 79.2902C105.683 79.302 105.768 79.3176 105.849 79.3294C105.98 79.349 106.114 79.3647 106.245 79.3804C106.576 79.4157 106.911 79.4354 107.246 79.4393C107.55 79.4393 107.85 79.4197 108.154 79.4118C107.392 79.4354 107.943 79.4275 108.135 79.404C108.305 79.3843 108.474 79.3608 108.64 79.3333C109.267 79.2313 109.883 79.0783 110.487 78.8821C110.649 78.8311 111.257 78.58 110.553 78.8704C110.68 78.8194 110.811 78.7723 110.942 78.7174C111.265 78.584 111.581 78.4427 111.892 78.2858C112.173 78.1445 112.451 77.9954 112.72 77.8385C113.005 77.6698 113.359 77.505 113.605 77.2775C113.601 77.2775 113.143 77.611 113.409 77.4148C113.467 77.3716 113.521 77.3324 113.578 77.2892C113.717 77.1833 113.856 77.0774 113.99 76.9675C114.248 76.7596 114.498 76.5438 114.741 76.3201C114.957 76.12 115.164 75.9121 115.368 75.7002C115.488 75.5747 115.599 75.4452 115.715 75.3157C115.811 75.2059 115.934 75.0058 115.557 75.5041C115.619 75.4217 115.688 75.3432 115.75 75.2647C116.15 74.7586 116.512 74.2172 116.824 73.6522C116.889 73.5345 116.951 73.4129 117.012 73.2952C117.193 72.9499 116.816 73.7385 116.924 73.4874C116.958 73.4089 116.993 73.3344 117.028 73.2559C117.155 72.9617 117.27 72.6635 117.37 72.3614C117.466 72.075 117.547 71.7846 117.613 71.4864C117.624 71.4394 117.686 71.2785 117.667 71.2393C117.663 71.2314 117.563 71.8552 117.617 71.5178C117.647 71.3217 117.674 71.1255 117.697 70.9254C117.744 70.4938 117.767 70.0583 117.763 69.6228C117.763 69.407 117.755 69.1912 117.744 68.9754V68.9048C117.724 68.6615 117.728 68.7126 117.755 69.0578C117.701 69.0068 117.717 68.6969 117.709 68.6302C117.601 67.7474 117.416 66.8764 117.174 66.0211C117.058 65.6052 116.927 65.1893 116.789 64.7813C116.727 64.6008 116.747 64.3536 116.812 64.8401C116.8 64.7616 116.739 64.64 116.716 64.5694C116.635 64.3457 116.546 64.1221 116.462 63.8985C115.388 61.1442 114.01 58.5233 112.381 56.0673C112.189 55.7769 112.485 56.2163 112.497 56.236C112.443 56.1536 112.385 56.0751 112.331 55.9927C112.231 55.8475 112.131 55.7024 112.027 55.5611C111.8 55.2433 111.569 54.9255 111.33 54.6156C110.891 54.0388 110.437 53.4739 109.968 52.9246C109.017 51.8064 107.997 50.747 106.923 49.7544C106.807 49.6485 106.692 49.5425 106.576 49.4405C106.526 49.3974 106.23 49.1345 106.522 49.3895C106.815 49.6446 106.515 49.3856 106.465 49.3425C106.184 49.0992 105.899 48.8638 105.61 48.6284C105.048 48.1733 104.471 47.7378 103.882 47.3219C102.684 46.4744 101.429 45.7054 100.128 45.0267C99.9705 44.9443 99.8126 44.8658 99.6548 44.7873C100.282 45.113 99.7203 44.8226 99.5701 44.752C99.2314 44.5911 98.8888 44.4381 98.5462 44.289C97.8532 43.9909 97.1526 43.7162 96.4405 43.473C95.7745 43.2415 95.1047 43.0375 94.4272 42.857C94.1077 42.7707 93.7843 42.6922 93.4571 42.6177C93.2955 42.5823 93.1338 42.5431 92.9683 42.5117C92.8951 42.496 92.822 42.4803 92.7488 42.4686C92.3408 42.3822 93.2608 42.5627 92.8759 42.4921C91.4785 42.241 90.0657 42.0762 88.6453 42.0174C87.9485 41.9899 87.2518 41.9821 86.555 42.0017C86.2355 42.0095 85.9122 42.0213 85.5926 42.0409C85.404 42.0527 85.2154 42.0644 85.0268 42.0762C84.8843 42.0841 84.6149 42.1154 85.2616 42.0566C85.15 42.0684 85.0345 42.0762 84.9228 42.088C83.5062 42.2214 82.1012 42.4529 80.7153 42.7785C80.0301 42.9394 79.3526 43.1199 78.6828 43.3278C78.3556 43.4298 78.0323 43.5318 77.7089 43.6456C77.5472 43.7005 77.3855 43.7594 77.2277 43.8143C76.9583 43.9124 77.7666 43.6103 77.3778 43.7594C77.2701 43.7986 77.1661 43.8418 77.0583 43.881C75.7534 44.3911 74.4869 44.9913 73.2666 45.6858C72.643 46.0389 72.0309 46.4195 71.4381 46.8236C71.3765 46.8668 71.3149 46.9099 71.2495 46.9531C70.9069 47.1846 71.6075 46.698 71.3765 46.8628C71.2379 46.9609 71.0993 47.0629 70.9646 47.161C70.6759 47.3768 70.391 47.5965 70.1139 47.8202C69.036 48.6912 68.0313 49.6485 67.1074 50.6843C66.761 51.0727 66.0527 51.2689 65.5599 51.2414C65.0325 51.2139 64.4205 50.9432 64.0779 50.5195C63.7237 50.084 63.4735 49.5229 63.5312 48.9423C63.589 48.3341 63.8354 47.8829 64.2395 47.4317C68.397 42.7707 74.1866 39.7418 80.188 38.4156C86.2163 37.0856 92.6603 37.4073 98.4692 39.573C104.451 41.8055 109.744 45.78 113.79 50.7784C115.784 53.2463 117.52 55.9574 118.918 58.8176C120.565 62.1878 121.963 65.8484 122.043 69.6542C122.178 76.2613 116.966 81.5776 111.011 83.296C108.231 84.0964 105.052 84.0533 102.403 82.8056C99.7549 81.5579 97.6184 79.4157 96.402 76.6968C95.1625 73.9307 94.8622 70.9136 95.4473 67.9436C96.0209 65.0284 97.7224 62.3879 99.9936 60.54C104.875 56.5695 111.9 55.7612 117.728 57.8171C124.276 60.1241 129.184 65.4247 133.238 70.9411C137.495 76.7321 141.152 83.1038 142.869 90.1856C143.269 91.8335 143.547 93.5088 143.701 95.1998C143.755 95.8079 143.743 96.3376 143.397 96.8712C143.112 97.3106 142.58 97.7147 142.065 97.805C141.51 97.9031 140.894 97.8403 140.425 97.495C140.005 97.1851 139.559 96.6868 139.509 96.1375L139.512 96.1336Z" fill="#00DFFF"/>
<path d="M45.5118 17.0798C45.5118 17.0798 43.5331 14.6238 39.676 12.1677C35.8226 9.7116 29.1515 5.80384 23.2117 6.24719C23.2117 6.24719 19.8781 -10.6119 19.5624 -11.5025C19.2467 -12.3931 18.2074 -14.2921 16.5405 -12.1734C14.8737 -10.0508 6.11999 0.664113 6.11999 0.664113C6.11999 0.664113 -5.75952 -5.02882 -6.49092 -5.47609C-7.22232 -5.92337 -10.0324 -6.92777 -9.09702 -3.02001C-8.15775 0.891674 -1.4327 26.8689 -1.4327 26.8689C-1.4327 26.8689 -6.32154 57.2403 -6.74884 58.6881C-7.32241 60.642 -5.9135 61.6464 -4.19663 59.8612C-2.60679 58.2094 11.6402 50.6842 11.6402 50.6842C11.6402 50.6842 18.7656 58.8843 19.7048 60.0024C20.6441 61.1206 21.9991 63.4629 23.3541 58.7744C24.7092 54.0859 28.3161 42.5352 28.3161 42.5352C28.3161 42.5352 41.031 39.7457 47.5943 32.3774C48.5259 31.1925 49.3651 29.6977 47.2825 30.4785C45.2 31.2592 37.1738 32.1538 33.5245 28.1322C29.8752 24.1146 29.8752 20.4305 38.1092 19.3123C40.1918 19.2024 43.6833 19.2574 45.5079 19.9283C45.5079 19.9283 46.1084 20.1048 46.6012 20.2892C47.2209 20.5246 47.7406 20.7208 47.5405 20.0381C47.1748 18.8101 45.5079 17.0798 45.5079 17.0798H45.5118Z" fill="#EDFF4A"/>
<path d="M28.3161 42.5352C28.3161 42.5352 41.0309 39.7456 47.5943 32.3774C48.5259 31.1925 49.3651 29.6976 47.2825 30.4784C45.1999 31.2592 37.1738 32.1537 33.5244 28.1322C29.8751 24.1146 29.8751 20.4304 38.1092 19.3123C40.1918 19.2024 43.6832 19.2573 45.5079 19.9282C45.5079 19.9282 46.1084 20.1048 46.6011 20.2892C47.2209 20.5246 47.7406 20.7208 47.5404 20.0381C47.1747 18.8101 45.5079 17.0798 45.5079 17.0798C45.5079 17.0798 43.5293 14.6237 39.6721 12.1676C35.8226 9.71157 29.1514 5.8038 23.2117 6.24715C23.2117 6.24715 17.1141 13.737 16.6214 24.7816C15.9977 38.7648 26.938 42.2802 28.3199 42.5313L28.3161 42.5352Z" fill="#5BB3FD"/>
<path d="M36.1382 35.1944C34.2057 34.7589 28.0889 32.0557 28.674 25.2289C29.2592 18.406 38.2516 19.2927 38.2516 19.2927C30.0175 20.4109 29.8982 24.095 33.5475 28.1165C37.1968 32.1342 45.2191 31.2435 47.3055 30.4628C49.3881 29.682 48.5489 31.1729 47.6174 32.3617C47.6174 32.3617 44.2298 37.0228 36.142 35.1944H36.1382Z" fill="#EDFF4A"/>
<path d="M28.058 27.1553C28.058 27.0062 28.1504 26.8728 28.289 26.8336C28.4545 26.7865 28.6277 26.8924 28.6701 27.0729C30.5409 34.6373 38.1937 34.3666 42.5898 33.527C47.0591 32.6756 47.9252 30.5922 47.9329 30.5726C47.9983 30.4039 48.1831 30.3215 48.3409 30.3921C48.4988 30.4628 48.5758 30.6589 48.5065 30.8316C48.468 30.9296 47.4979 33.2719 42.6976 34.1861C38.0898 35.065 30.0636 35.3278 28.0618 27.2455C28.0541 27.2181 28.0503 27.1867 28.0503 27.1592L28.058 27.1553Z" fill="#5BB3FD"/>
<path d="M26.4376 34.8806C26.4376 34.8806 26.4222 38.3058 22.5265 38.8943C18.6308 39.4828 12.4832 39.4239 11.44 36.0733C10.3968 32.7227 12.922 30.4275 15.8323 30.196C18.7425 29.9606 26.657 29.2975 26.4376 34.8845V34.8806Z" fill="white"/>
<path d="M11.5088 32.2479C12.3596 30.8747 13.9687 29.9684 15.8395 29.8193C18.0799 29.6388 23.3306 29.2151 25.6442 31.6084C26.4564 32.448 26.8413 33.5584 26.7875 34.9002C26.7798 35.1552 26.595 38.6628 22.5761 39.267C17.9452 39.9654 12.1633 39.5809 11.1085 36.1949C10.9353 35.6417 10.8506 35.1003 10.8506 34.5745C10.8506 33.7388 11.07 32.9502 11.505 32.2519L11.5088 32.2479ZM26.0868 34.8649C26.133 33.7271 25.8251 32.8404 25.1553 32.1459C23.0689 29.9841 18.0376 30.3921 15.8549 30.5687C14.2266 30.7021 12.8177 31.4829 12.0863 32.6638C11.5011 33.6054 11.3934 34.7432 11.7706 35.9556C12.7522 39.1101 18.9615 39.0551 22.476 38.5255C26.006 37.9919 26.083 35.0179 26.0868 34.8806V34.8688V34.8649Z" fill="black"/>
<path d="M24.3934 34.704C24.3934 34.704 24.2972 37.4387 21.1021 37.5838C18.2227 37.7172 13.6187 37.9605 13.1991 35.0571C12.7064 31.6476 15.9168 31.3298 19.62 31.4711C22.3224 31.5731 24.3395 32.1773 24.3934 34.704Z" fill="#2CE69D"/>
<path d="M22.9535 34.5118C22.9535 34.5118 23.0343 36.6265 20.4975 36.7324C18.3341 36.8187 15.3816 36.8344 15.0236 34.9237C14.5847 32.5814 16.9983 32.1891 19.6699 32.3342C21.3906 32.4245 22.8265 32.6756 22.9535 34.5157V34.5118Z" fill="black"/>
<path d="M21.2369 35.885C21.2369 35.885 21.2138 36.6853 20.2168 36.7638C19.2198 36.8423 18.2035 36.8972 17.9803 36.0968C17.757 35.2964 18.3267 34.7393 19.0504 34.7118C19.7703 34.6844 21.364 34.5 21.2369 35.885Z" fill="white"/>
<path d="M15.8513 23.6007C15.8513 23.6007 14.0343 23.7811 12.9565 25.7743C11.8786 27.7674 12.5638 28.042 12.8256 28.3677C13.0874 28.6933 15.8359 30.7531 17.3641 28.9287C18.8924 27.1043 17.7414 24.4089 15.8513 23.5967V23.6007Z" fill="#FF7140"/>
<path d="M11.952 27.9675C11.952 28.0342 11.9674 28.1009 12.0021 28.1597C12.5795 29.1837 14.3002 30.2745 15.84 30.2038C16.8948 30.1568 17.6993 29.5879 18.169 28.5678C19.293 26.1313 17.4722 24.0872 16.352 23.3456C16.1865 23.2358 15.9747 23.2907 15.8708 23.4673C15.7707 23.6438 15.8208 23.8714 15.9824 23.9812C16.0941 24.0558 18.6617 25.8017 17.5415 28.2343C17.1835 29.0072 16.6022 29.4192 15.8054 29.4545C14.5658 29.5133 13.0607 28.5952 12.5949 27.7713C12.4948 27.5947 12.2792 27.5398 12.1137 27.6457C12.0059 27.7164 11.9443 27.838 11.9443 27.9675H11.952Z" fill="black"/>
<path d="M8.54883 37.0071C8.54883 37.1915 8.67201 37.3484 8.84909 37.3759C11.5899 37.8036 13.4569 38.7766 14.4077 40.2596C15.3085 41.6721 15.0237 43.0767 15.0198 43.0924C14.9736 43.2925 15.093 43.4926 15.2816 43.5396C15.4702 43.5867 15.655 43.4612 15.7012 43.2611C15.7166 43.1905 16.0669 41.5387 14.9967 39.8516C13.9381 38.1763 11.9017 37.0934 8.95302 36.6344C8.76055 36.603 8.58347 36.7442 8.55653 36.9522C8.55653 36.9718 8.55653 36.9875 8.55653 37.0071H8.54883Z" fill="black"/>
<path d="M17.5835 13.8312C20.4937 13.5958 26.8915 12.9877 26.6721 18.5707C26.6721 18.5707 26.6567 21.9959 22.761 22.5844C18.8653 23.173 12.7177 23.1141 11.6745 19.7635C11.6745 19.7635 11.4551 19.3397 11.4551 17.9155C11.4551 17.9155 16.7635 18.0529 17.5373 14.1608L17.5796 13.8351L17.5835 13.8312Z" fill="white"/>
<path d="M11.4669 17.5389C11.517 17.5389 16.4944 17.6291 17.195 14.1058L17.2797 13.482L17.6993 13.4467C19.8511 13.2701 23.8584 12.9445 25.8448 15.0004C26.6878 15.8714 27.0843 17.0759 27.0266 18.5747C27.0266 18.6139 26.965 22.3294 22.8152 22.9572C18.1958 23.6555 12.4293 23.271 11.3553 19.9086C11.286 19.7517 11.1128 19.222 11.1128 17.9194V17.5349L11.4708 17.5428L11.4669 17.5389ZM11.9828 19.5791L12.0097 19.6418C12.9913 22.7963 19.2006 22.7414 22.7151 22.2117C26.2528 21.6781 26.3221 18.6924 26.326 18.555C26.376 17.2525 26.0603 16.2637 25.3597 15.5379C23.639 13.7567 19.9666 14.0156 17.8917 14.1804L17.884 14.2353C17.1757 17.8096 13.0799 18.2372 11.8172 18.2804C11.848 19.2416 11.9866 19.5751 11.9866 19.5791H11.9828Z" fill="black"/>
<path d="M13.4301 18.7473C13.8497 21.6546 18.4537 21.4074 21.3331 21.274C24.5282 21.1288 24.6244 18.3942 24.6244 18.3942C24.5705 15.8675 22.5072 15.3221 19.8049 15.2162L17.884 15.2829C17.884 15.2829 17.0255 16.4992 16.094 17.2485C16.094 17.2485 14.9738 18.1195 14.4502 18.3079C13.9267 18.4962 13.4263 18.7434 13.4263 18.7434L13.4301 18.7473Z" fill="#2CE69D"/>
<path d="M16.9483 12.9641C16.906 12.0774 16.2208 10.9867 15.8782 10.6022C15.0505 9.66844 13.9419 9.62135 12.8448 9.80576C11.7477 9.99016 10.5967 10.7788 10.0501 11.8146C9.66896 12.5404 9.41875 13.7567 9.65741 14.6905C9.91148 15.6752 10.666 16.7699 11.6014 16.9818C12.533 17.1936 14.3153 16.9072 15.116 16.3501C15.116 16.3501 17.0677 15.3418 16.9483 12.9602V12.9641Z" fill="#FF7140"/>
<path d="M16.4478 13.8548C16.4478 13.8548 16.2746 14.7415 15.5547 14.9533C14.8349 15.1652 14.0496 14.7533 14.2883 13.843C14.5269 12.9328 14.9773 12.462 15.4354 12.3599C15.8011 12.2776 16.6557 12.7248 16.4517 13.8548H16.4478Z" fill="white"/>
<path d="M22.9535 18.6924C22.9535 18.6924 23.0305 20.7365 20.6207 20.8385C18.5651 20.9248 15.7357 21.0268 15.4201 19.0926C15.0736 16.9504 17.2948 16.4482 19.8316 16.5894C21.4676 16.6796 22.8303 16.919 22.9497 18.6963L22.9535 18.6924Z" fill="black"/>
<path d="M21.2369 19.9871C21.2369 19.9871 21.2138 20.7875 20.2168 20.866C19.2198 20.9445 18.2035 20.9994 17.9803 20.199C17.757 19.3986 18.3267 18.8415 19.0504 18.814C19.7703 18.7866 21.364 18.6021 21.2369 19.9871Z" fill="white"/>
<path d="M9.10706 28.4775C9.10706 28.4775 10.2196 23.6281 13.3569 23.2397C13.3569 23.2397 10.5545 21.4937 8.05615 23.8282C7.37479 24.5423 7.03603 25.3623 7.89062 25.8998C8.74906 26.4373 9.08011 27.94 9.10321 28.4775H9.10706Z" fill="black"/>
<path d="M10.1116 22.7963C9.50725 22.7217 8.67576 23.1847 8.04445 23.7889C7.36309 24.503 6.95889 25.4603 7.90587 25.7624C7.99055 25.7899 8.59107 25.9547 9.39177 24.7462C10.1925 23.5378 10.4889 22.8394 10.1116 22.7924V22.7963Z" fill="#912407"/>
<path d="M24.8129 49.2757C25.5866 49.2561 26.345 49.4366 27.0995 49.6131C29.3745 50.1546 31.511 50.6607 33.786 51.1982C34.094 51.2727 34.4173 51.3316 34.6791 51.516C35.0679 51.7906 35.2527 52.4027 35.2758 52.7244C35.3181 53.3012 34.5213 54.0859 34.0131 54.333C32.8737 54.8902 31.919 54.5096 30.6564 54.5174C29.0935 54.5253 27.5768 53.925 26.2564 53.0736C25.1709 52.3713 24.2008 51.5003 23.2615 50.6097C22.7457 50.1192 22.6918 49.9662 23.3693 49.621C23.8158 49.3934 24.324 49.2914 24.8206 49.2796L24.8129 49.2757Z" fill="#FFC20B"/>
<path d="M22.6417 50.0094L22.1375 44.1046L20.0433 49.0482L17.0484 48.1105L16.9137 51.5003L11.79 52.2576L18.5728 55.7808L22.6417 50.0094Z" fill="#FF7140"/>
<path d="M30.4564 54.5371C30.2832 56.2948 30.6874 57.9976 31.3225 59.6415C31.5073 60.1241 31.7267 60.5949 31.8191 61.1049C31.9115 61.615 31.8576 62.176 31.5381 62.5802C31.1917 63.0196 30.6104 63.1844 30.0638 63.255C29.6172 63.3138 29.1514 63.3256 28.7203 63.1922C28.2891 63.0588 27.8849 62.7724 27.6925 62.3526C27.8657 63.3099 27.1074 64.2712 26.1796 64.5105C25.2519 64.7459 24.2549 64.3771 23.5235 63.7493C23.4734 64.2398 23.0231 64.6203 22.5457 64.7027C22.0684 64.7851 21.5795 64.6243 21.1522 64.3928C20.1821 63.867 19.2352 62.9803 18.9811 61.8896C18.9811 61.8896 16.9794 58.7391 18.0688 54.2428C19.1543 49.7465 24.3973 49.2522 24.3973 49.2522C25.8486 49.2051 26.8918 49.3895 28.243 49.9937C29.5941 50.5979 30.6258 52.7872 30.4564 54.5371Z" fill="#FFC20B"/>
<path d="M15.4896 55.4473L15.1201 59.8612C15.0854 60.2614 15.5243 60.5949 16.094 60.6067L36.8466 61.0382C37.0083 61.0382 37.1661 61.0186 37.3124 60.9715L42.2936 59.3904C43.4869 58.8372 43.587 57.6484 42.4899 57.0442L37.7936 55.2629C37.655 55.2119 37.501 55.1805 37.3393 55.1766L16.5867 54.745C16.017 54.7332 15.5243 55.0471 15.4935 55.4473H15.4896Z" fill="#00DFFF"/>
<mask id="mask1_25209_119583" style="mask-type:luminance" maskUnits="userSpaceOnUse" x="15" y="54" width="29" height="8">
<path d="M15.4896 55.4473L15.1201 59.8612C15.0854 60.2614 15.5243 60.5949 16.094 60.6067L36.8466 61.0382C37.0083 61.0382 37.1661 61.0186 37.3124 60.9715L42.2936 59.3904C43.4869 58.8372 43.587 57.6484 42.4899 57.0442L37.7936 55.2629C37.655 55.2119 37.501 55.1805 37.3393 55.1766L16.5867 54.745C16.017 54.7332 15.5243 55.0471 15.4935 55.4473H15.4896Z" fill="white"/>
</mask>
<g mask="url(#mask1_25209_119583)">
<path d="M19.7433 62.4821C19.7972 62.6194 19.9589 62.7175 20.1514 62.7214C20.4054 62.7254 20.621 62.5684 20.6402 62.3683L21.2831 54.2939C21.2985 54.0938 21.106 53.929 20.852 53.9251C20.5979 53.9211 20.3823 54.0781 20.3631 54.2782L19.7202 62.3526C19.7202 62.3997 19.7202 62.4429 19.7395 62.4821H19.7433Z" fill="white"/>
<path d="M20.7056 61.568L21.283 54.2978H36.1266L35.6608 61.5523L20.7056 61.568Z" fill="#00DFFF"/>
<path d="M14.6387 61.4777L15.0621 54.1958L18.8616 53.6151L18.4651 60.8735L14.6387 61.4777Z" fill="#00DFFF"/>
<path d="M36.3574 61.7877L36.7539 54.5411L37.8741 55.0315L37.4892 62.2585L36.3574 61.7877Z" fill="#00DFFF"/>
<path d="M37.2277 62.5292C37.2816 62.6665 37.4433 62.7646 37.6357 62.7685C37.8898 62.7724 38.1054 62.6155 38.1246 62.4154L38.7675 54.3409C38.7829 54.1408 38.5904 53.976 38.3363 53.9721C38.0823 53.9682 37.8667 54.1251 37.8475 54.3252L37.2046 62.3997C37.2046 62.4468 37.2046 62.4899 37.2238 62.5292H37.2277Z" fill="white"/>
<path d="M35.507 62.5017C35.5609 62.639 35.7226 62.7371 35.915 62.741C36.1691 62.745 36.3847 62.588 36.4039 62.3879L37.0468 54.3135C37.0622 54.1134 36.8697 53.9486 36.6156 53.9447C36.3616 53.9407 36.146 54.0977 36.1267 54.2978L35.4839 62.3722C35.4839 62.4193 35.4839 62.4625 35.5031 62.5017H35.507Z" fill="white"/>
<path d="M37.6548 60.5596L38.2207 59.8808L37.7356 59.3983L38.2784 58.9431L37.8357 58.3193L38.3939 57.7583L38.0051 57.0795L38.6133 56.4478L38.0667 55.8161C38.0667 55.8161 40.2493 54.9687 40.5342 55.1217C40.9422 55.3375 41.331 57.001 40.9422 59.7278C40.873 60.2065 40.3918 60.2928 40.0838 60.3674C39.6989 60.4576 38.7865 60.7087 38.1475 60.7283L37.6625 60.5635L37.6548 60.5596Z" fill="#FFE7BD"/>
<path d="M18.0226 62.4507C18.0765 62.5881 18.2382 62.6862 18.4307 62.6901C18.6847 62.694 18.9003 62.5371 18.9195 62.337L19.5624 54.2625C19.5778 54.0624 19.3853 53.8976 19.1313 53.8937C18.8772 53.8898 18.6616 54.0467 18.6424 54.2468L17.9995 62.3213C17.9995 62.3684 17.9995 62.4115 18.0188 62.4507H18.0226Z" fill="white"/>
</g>
<path d="M31.7459 61.6503C31.2146 61.6778 30.3408 60.6459 30.1175 60.0299C29.8673 59.3511 29.594 58.5821 29.3784 58.0525C29.0743 57.3031 28.647 56.5655 27.9926 56.1418C27.3382 55.718 26.4105 55.7023 25.8985 56.2869C25.4481 56.797 25.425 57.5895 25.5097 58.2957C25.1748 57.1815 23.9275 56.6753 22.8766 56.9304C22.5956 56.9971 21.7795 57.4757 21.6217 58.7705C21.6217 58.7705 20.8364 57.515 19.2389 58.0917C18.4921 58.3624 18.3766 59.2923 18.3188 60.1515C18.8924 62.4468 20.1281 64.0436 21.564 64.5968" fill="#FFC20B"/>
<path d="M31.7459 61.6503C31.2146 61.6778 30.3408 60.6459 30.1175 60.0299C29.8673 59.3511 29.594 58.5821 29.3784 58.0525C29.0743 57.3031 28.647 56.5655 27.9926 56.1418C27.3382 55.718 26.4105 55.7023 25.8985 56.2869C25.4481 56.797 25.425 57.5895 25.5097 58.2957C25.1748 57.1815 23.9275 56.6753 22.8766 56.9304C22.5956 56.9971 21.7795 57.4757 21.6217 58.7705C21.6217 58.7705 20.8364 57.515 19.2389 58.0917C18.4921 58.3624 18.3766 59.2923 18.3188 60.1515C18.8924 62.4468 20.1281 64.0436 21.564 64.5968" stroke="#DD9300" stroke-width="0.288711" stroke-linecap="round" stroke-linejoin="round"/>
<path d="M27.7541 62.2858C27.8503 62.5213 27.6848 62.6272 27.5231 62.3368C26.7378 60.9479 26.0141 60.1005 25.4405 58.4879C25.3174 58.1505 25.3174 57.8759 25.4328 57.8798C25.5483 57.8798 25.6292 58.1348 25.7524 58.4722C26.2412 59.8415 27.7233 62.1995 27.7579 62.2819L27.7541 62.2858Z" fill="#DD9300"/>
<path d="M23.6003 63.612C23.6965 63.8474 23.531 63.9533 23.3693 63.663C22.584 62.2741 22.1644 60.8303 21.637 59.304C21.5254 58.9784 21.5138 58.692 21.6293 58.6959C21.7448 58.6959 21.8256 58.9509 21.9488 59.2883C22.4377 60.6576 23.5695 63.5257 23.6041 63.6081L23.6003 63.612Z" fill="#DD9300"/>
</g>
</g>
<defs>
<clipPath id="clip0_25209_119583">
<rect width="160" height="106" fill="white"/>
</clipPath>
</defs>
</svg>
