<svg width="160" height="106" viewBox="0 0 160 106" fill="none" xmlns="http://www.w3.org/2000/svg">
<g clip-path="url(#clip0_25209_119491)">
<path d="M55.4061 36.3219C55.3252 36.1218 55.0404 36.1375 54.9865 36.3494L54.155 39.5823C54.1165 39.7275 53.951 39.7981 53.8239 39.7157L49.7781 37.1772C49.5818 37.0517 49.3547 37.2831 49.474 37.4872L54.4129 45.746C54.513 45.9148 54.7671 45.8794 54.8132 45.6872L55.5177 42.9408C55.5639 42.7642 55.7833 42.7132 55.8988 42.8545L58.9206 46.5033C59.0823 46.6994 59.3864 46.5111 59.294 46.2757L55.3984 36.3258L55.4061 36.3219Z" fill="#EDFF4A"/>
<path d="M128.677 59.1329C128.927 59.023 128.866 58.6464 128.593 58.6268L117.491 57.846C117.263 57.8303 117.129 58.101 117.275 58.2776L119.377 60.8278C119.512 60.9926 119.408 61.2437 119.2 61.2594L113.726 61.7341C113.433 61.7577 113.402 62.1814 113.687 62.252L125.671 65.1946C125.913 65.2535 126.09 64.9631 125.929 64.767L123.457 61.7655C123.346 61.6282 123.396 61.4242 123.554 61.3536L128.677 59.129V59.1329Z" fill="#EDFF4A"/>
<path d="M131.217 18.979C131.667 18.6808 131.294 18.5239 131.217 17.9982C131.14 17.4724 131.448 17.0918 131.606 16.6563C131.995 15.5892 131.679 14.3062 130.185 13.8825C128.692 13.4587 126.798 14.0158 126.617 16.3621C126.486 18.0413 127.383 19.085 128.245 19.6146C128.734 19.9167 129.365 19.8814 129.835 19.5518C130.193 19.3007 130.809 19.2458 131.213 18.979H131.217Z" fill="black"/>
<path d="M126.779 15.4675C127.094 13.8785 128.826 13.4587 130.128 13.8275C131.371 14.1806 131.791 14.9457 131.76 15.903C131.76 15.903 131.148 16.7662 129.319 16.6799C127.66 16.5975 126.671 16.0129 126.779 15.4675Z" fill="#2CE69D"/>
<path d="M138.885 22.5925C139.035 22.6632 139.216 22.6592 139.366 22.5847C149.044 17.7392 147.866 12.1326 147.658 11.3361C147.45 10.5397 146.734 8.13853 144.478 8.02867C142.407 7.92666 141.722 9.82169 142.011 11.1204C142.215 12.0424 143.374 12.7643 142.596 16.1777C141.984 18.8731 139.197 20.9172 138.054 21.6588C138.054 21.6588 137.815 21.8902 138.15 22.1727C138.485 22.4552 138.889 22.5886 138.889 22.5886L138.885 22.5925Z" fill="black"/>
<path d="M127.521 21.3723C127.521 21.3723 125.982 20.6112 124.065 20.5366C122.148 20.4621 119.618 21.4704 119.056 23.9226C118.494 26.3747 119.842 29.7724 123.664 30.0196C126.586 30.2079 128.095 30.5728 129.084 31.6518C130.074 32.7307 132.841 34.6964 135.902 33.947C138.966 33.1976 139.67 32.5267 142.076 33.0446C144.478 33.5625 146.365 31.6871 146.315 29.796C146.265 27.9088 145.056 25.8686 142.777 25.1231C140.498 24.3777 139.389 24.5738 137.692 24.4522C135.975 24.3306 128.261 22.1295 127.521 21.3684V21.3723Z" fill="#F878F3"/>
<path d="M134.077 18.4572C134.077 18.4572 129.808 17.798 127.441 20.5759C125.073 23.3537 125.759 24.7818 127.044 26.0138C128.33 27.2457 131.429 29.2114 135.66 29.1133C139.89 29.0152 140.629 27.3046 140.722 25.9667C140.814 24.6288 140.541 22.1217 138.443 20.415C136.202 18.5945 134.074 18.4533 134.074 18.4533L134.077 18.4572Z" fill="#FFE240"/>
<path d="M131.733 18.4611C131.733 18.4611 131.221 20.003 133.038 20.6857C133.654 20.9093 134.139 20.8976 134.112 20.4699C134.085 20.0422 133.342 19.132 134.339 18.4886C134.339 18.4886 133.384 18.1629 131.733 18.4611Z" fill="black"/>
<path d="M131.098 22.2725C131.336 21.4179 131.065 20.5907 130.492 20.4249C129.92 20.2591 129.262 20.8174 129.024 21.672C128.786 22.5266 129.057 23.3538 129.63 23.5196C130.202 23.6855 130.86 23.1271 131.098 22.2725Z" fill="white"/>
<path d="M135.368 23.3048C135.606 22.4503 135.335 21.6231 134.762 21.4572C134.19 21.2914 133.532 21.8498 133.294 22.7044C133.056 23.559 133.327 24.3862 133.9 24.552C134.472 24.7178 135.13 24.1594 135.368 23.3048Z" fill="white"/>
<path d="M137.773 24.6994C137.638 24.6877 137.045 24.5817 136.51 25.2291C135.975 25.8765 136.418 26.3708 136.976 26.4101C137.534 26.4493 138.108 26.0373 138.239 25.5194C138.369 25.0015 138 24.7269 137.773 24.7033V24.6994Z" fill="#FF7140"/>
<path d="M126.694 29.0898C126.694 29.0898 126.694 27.3831 125.497 27.4733C123.938 27.591 124.092 30.0902 124.946 30.5807C125.801 31.0711 126.925 30.4747 126.694 29.0898Z" fill="black"/>
<path d="M140.287 33.1348C140.287 33.1348 141.357 31.7812 140.352 31.1456C139.043 30.3178 137.453 32.5267 137.823 33.4173C138.062 33.9901 139.182 34.6297 140.287 33.1348Z" fill="black"/>
<path d="M146.65 11.497C146.138 11.858 145.676 12.0659 144.321 12.1248C142.28 12.215 141.984 11.089 141.984 11.089C141.695 9.79029 142.342 7.94627 144.417 8.0012C146.384 8.0522 146.992 9.22924 147.277 10.112C147.277 10.112 147.504 10.8967 146.653 11.497H146.65Z" fill="#2CE69D"/>
<path d="M129.085 21.4273C129.085 21.4273 128.607 22.6435 129.239 23.3027C129.239 23.3027 129.458 23.5616 129.82 23.5616C130.182 23.5616 130.443 22.3218 130.024 21.7097C129.681 21.2115 129.281 21.0506 129.085 21.4273Z" fill="black"/>
<path d="M133.342 22.467C133.342 22.467 132.865 23.6833 133.496 24.3424C133.496 24.3424 133.715 24.6013 134.077 24.6013C134.439 24.6013 134.701 23.3615 134.281 22.7495C133.939 22.2512 133.538 22.0903 133.342 22.467Z" fill="black"/>
<path d="M131.044 26.7043C130.682 26.5474 130.516 26.1079 130.674 25.7234L130.786 25.4566C130.943 25.0721 131.371 24.8838 131.733 25.0407C132.094 25.1977 132.26 25.6371 132.102 26.0216L131.991 26.2884C131.833 26.6729 131.405 26.8612 131.044 26.7043ZM131.552 25.4762C131.417 25.4174 131.255 25.488 131.198 25.6332L131.086 25.9C131.028 26.0452 131.086 26.2099 131.225 26.2688C131.363 26.3276 131.521 26.257 131.579 26.1118L131.69 25.8451C131.748 25.6999 131.69 25.5351 131.552 25.4762Z" fill="black"/>
<path d="M137.396 21.2625L133.754 19.956C133.616 19.905 133.469 19.8814 133.323 19.8775C133.208 19.7873 133.077 19.7127 132.942 19.6656L129.3 18.3591C128.588 18.1041 127.803 18.4886 127.549 19.2184L127.129 20.4307C126.567 22.055 127.237 23.8559 128.684 24.621C128.823 24.6955 128.969 24.7583 129.116 24.8132C129.982 25.1232 130.898 25.0486 131.672 24.6563C132.033 25.4566 132.703 26.1001 133.569 26.41C135.286 27.026 137.18 26.0922 137.788 24.3306L138.231 23.0516C138.481 22.3218 138.108 21.5214 137.396 21.2664V21.2625ZM137.45 22.7691L137.007 24.0481C136.499 25.5194 134.913 26.2923 133.469 25.7784C132.522 25.437 131.856 24.6327 131.672 23.6754C130.94 24.3032 129.924 24.5072 128.977 24.1658C127.533 23.6479 126.775 22.0315 127.279 20.5602L127.722 19.2811C127.872 18.8417 128.346 18.6141 128.777 18.7672L132.453 20.0854C132.599 20.1364 132.726 20.2306 132.823 20.3522C132.969 20.3169 133.127 20.3248 133.273 20.3797L136.949 21.698C137.38 21.851 137.604 22.3336 137.454 22.773L137.45 22.7691Z" fill="#06B94F"/>
<path d="M127.96 20.725L128.38 19.5126C128.395 19.4734 128.411 19.4381 128.434 19.4028C128.395 19.4224 128.365 19.4538 128.349 19.5009L127.907 20.7799C127.768 21.1801 127.756 21.5881 127.841 21.9726C127.783 21.5607 127.818 21.133 127.96 20.725Z" fill="#06B94F"/>
<path d="M133.462 20.7996C133.388 20.7721 133.311 20.7643 133.238 20.776C133.165 20.7839 133.088 20.776 133.019 20.7525C132.95 20.7289 132.884 20.6858 132.834 20.6309C132.784 20.5759 132.719 20.5328 132.645 20.5092L129.004 19.2027C128.784 19.1242 128.55 19.2145 128.43 19.4067C128.469 19.3871 128.515 19.3832 128.557 19.3989L132.234 20.7172C132.291 20.7368 132.33 20.7878 132.341 20.8506C132.361 20.9722 132.445 21.0742 132.557 21.1134C132.669 21.1527 132.799 21.1291 132.888 21.0467C132.934 21.0036 132.996 20.9918 133.054 21.0114L136.73 22.3297C136.814 22.3611 136.861 22.4592 136.83 22.5455L136.387 23.8245C135.998 24.9467 134.79 25.5352 133.693 25.1428C132.753 24.8054 132.18 23.8677 132.295 22.8633C132.314 22.7064 132.222 22.5612 132.076 22.5063C131.929 22.4553 131.768 22.5102 131.687 22.6436C131.16 23.5028 130.136 23.8677 129.196 23.5303C128.488 23.2753 127.995 22.671 127.841 21.9766C127.949 22.7495 128.388 23.4518 129.092 23.8206C129.196 23.8756 129.304 23.9226 129.412 23.9619C130.501 24.3503 131.679 23.8952 132.272 22.93C132.141 24.06 132.78 25.1703 133.87 25.5587C135.132 26.0099 136.518 25.3272 136.965 24.0286L137.407 22.7495C137.5 22.4866 137.365 22.1963 137.107 22.1061L133.465 20.7996H133.462Z" fill="#2CE69D"/>
<path d="M136.945 21.6941L133.269 20.3758C133.123 20.3248 132.965 20.317 132.818 20.3483C132.722 20.2267 132.599 20.1326 132.449 20.0815L128.773 18.7633C128.342 18.6103 127.872 18.8417 127.718 19.2772L127.275 20.5563C126.767 22.0276 127.529 23.644 128.973 24.1619C129.92 24.5033 130.936 24.2953 131.667 23.6715C131.856 24.6288 132.518 25.4371 133.465 25.7745C134.909 26.2924 136.495 25.5155 137.003 24.0442L137.446 22.7652C137.596 22.3258 137.369 21.8471 136.941 21.6902L136.945 21.6941ZM137.403 22.7495L136.96 24.0285C136.514 25.3272 135.124 26.0099 133.866 25.5587C132.776 25.1703 132.137 24.0599 132.268 22.93C131.675 23.8951 130.497 24.3503 129.408 23.9618C129.3 23.9226 129.192 23.8755 129.088 23.8206C128.384 23.4479 127.945 22.7456 127.837 21.9766C127.753 21.5921 127.764 21.1801 127.903 20.7838L128.345 19.5048C128.361 19.4616 128.392 19.4263 128.43 19.4067C128.553 19.2145 128.788 19.1242 129.004 19.2027L132.645 20.5092C132.718 20.5367 132.784 20.5798 132.834 20.6308C132.884 20.6858 132.949 20.725 133.019 20.7525C133.088 20.7799 133.165 20.7878 133.238 20.776C133.311 20.7682 133.384 20.776 133.461 20.7995L137.103 22.1061C137.361 22.1963 137.492 22.4866 137.403 22.7495Z" fill="#2CE69D"/>
<path d="M135.275 21.0624C135.255 20.9368 135.14 20.8466 135.017 20.8662L133.115 21.1448C132.992 21.1644 132.903 21.2821 132.923 21.4076C132.938 21.5057 133.011 21.5803 133.1 21.5999C133.127 21.6038 133.154 21.6077 133.18 21.5999L135.082 21.3213C135.205 21.3017 135.294 21.184 135.275 21.0585V21.0624Z" fill="black"/>
<path d="M131.922 21.1369C132.006 21.0427 131.999 20.8976 131.906 20.8073L130.366 19.3674C130.274 19.2811 130.132 19.289 130.043 19.3831C129.978 19.4577 129.966 19.5636 130.008 19.646C130.02 19.6695 130.035 19.6931 130.058 19.7127L131.598 21.1526C131.691 21.2389 131.833 21.2311 131.922 21.1369Z" fill="black"/>
<path d="M137.362 38.7528C143.882 36.1809 136.345 41.4333 137.76 41.011C140.419 40.2206 144.756 38.598 146.098 38.46C147.64 38.3011 146.664 39.6686 144.776 40.3628C137.366 43.495 128.729 49.2033 115.538 54.1254C110.225 56.1076 98.3957 60.2685 86.2712 62.2717C77.347 63.7479 64.5209 58.8216 67.229 42.7674C70.1421 25.4836 90.3906 16.2417 90.6491 16.0828C96.6683 12.3818 94.7029 15.8569 87.3954 20.1183C84.0309 22.0838 84.5971 25.446 88.4417 23.3592C92.2862 21.2725 98.3916 17.4251 94.4608 21.2767C91.1004 24.5678 101.067 18.6086 107.422 16.7268C110.315 15.8695 107.566 17.4921 106.778 18.433C106.253 19.0603 107.746 19.077 108.161 18.9683C118.8 16.2124 108.694 21.0174 102.823 23.3551C97.1114 25.63 91.3056 32.0032 95.7902 31.0539C100.271 30.1004 94.2434 34.3994 98.5557 33.7387C102.864 33.0779 112.005 27.1522 114.381 26.2196C116.892 25.2369 119.091 25.952 113.753 28.7246C108.415 31.4972 107.976 34.1861 112.687 32.3043C117.397 30.4266 114 34.0063 112.248 35.0769C110.048 36.4193 106.594 39.5515 118.652 37.8495C122.345 37.0675 126.69 38.5646 123.301 41.0695C119.912 43.5745 132.024 40.8521 137.37 38.7444L137.362 38.7528Z" fill="url(#paint0_linear_25209_119491)"/>
<path d="M101.547 40.9691C101.461 41.0109 101.366 41.0486 101.28 41.0904C101.366 41.0528 101.457 41.0109 101.547 40.9691Z" fill="#5BB3FD"/>
<path d="M73.2274 43.633C75.9723 42.0857 73.7936 45.1803 78.3233 42.9179C82.8531 40.6555 83.4521 40.1788 83.9937 41.8181C84.5353 43.4574 87.268 41.7303 88.4784 40.9524C89.6929 40.1746 87.3911 43.2859 92.0111 41.5086C96.6311 39.7313 97.6076 39.2044 97.0209 40.9399C97.0209 40.9399 96.7173 42.1903 98.7975 39.5557C99.294 38.9284 99.8848 38.4475 100.496 38.0753C93.4102 39.9739 80.8098 42.0774 92.1054 28.9755C89.816 31.4261 85.6596 35.4992 82.6274 36.3691C78.229 37.6278 75.2912 35.1772 87.0833 26.9097C87.0833 26.9097 74.1218 34.9096 83.485 26.0356C83.485 26.0356 77.2853 30.6148 81.8971 25.5547C81.8971 25.5547 80.2107 26.2322 81.7248 24.6347C81.8766 24.4758 72.099 33.1699 70.8107 43.2065C70.8107 43.2357 70.8066 43.265 70.8025 43.2901C70.7778 43.6497 70.8394 44.9796 73.2315 43.6288L73.2274 43.633Z" fill="#5BB3FD"/>
<path d="M101.986 40.7726C101.834 40.8396 101.695 40.9065 101.547 40.9692C101.69 40.9023 101.834 40.8396 101.986 40.7726Z" fill="#EDFF4A"/>
<path d="M109.137 47.5472C109.584 47.1918 110.187 46.782 110.942 46.3219C111.143 46.2007 111.34 46.0794 111.566 45.9456C111.566 45.9456 93.9599 50.8844 102.047 44.8667C102.047 44.8667 87.8874 47.2127 101.28 41.0946C101.366 41.057 101.456 41.0151 101.546 40.9733C101.69 40.9064 101.834 40.8395 101.985 40.7768C103.04 40.3251 104.082 39.702 105.309 39.3507C105.309 39.3507 93.8122 41.0277 104.652 36.8249C104.652 36.8249 102.461 36.8876 100.496 38.0836C99.8847 38.4558 99.2939 38.9367 98.7974 39.564C96.7172 42.1986 97.0208 40.9482 97.0208 40.9482C97.6116 39.2127 96.631 39.7397 92.011 41.517C87.391 43.2943 89.6928 40.1829 88.4783 40.9608C87.2638 41.7386 84.5311 43.4657 83.9936 41.8264C83.452 40.1871 82.853 40.6639 78.3232 42.9263C73.7935 45.1887 75.9722 42.0899 73.2273 43.6414C70.8352 44.9921 70.7736 43.6665 70.7983 43.3026C70.7983 43.2483 70.8065 43.219 70.8065 43.219C69.8956 47.4971 70.9624 50.9513 72.8211 54.2759C72.9565 54.5143 73.0919 54.7484 73.2396 54.9743C73.3011 55.0705 73.3668 55.1708 73.4324 55.267C73.617 55.5305 73.814 55.7814 74.0191 56.0281C74.1217 56.1452 74.2161 56.2665 74.3228 56.3794C74.4294 56.4965 74.5484 56.6052 74.6633 56.7181C76.3866 58.441 79.9193 59.1436 83.7187 59.1812C90.1113 59.244 104.328 55.3381 113.893 51.6873C116.769 50.5917 115.784 49.9936 117.659 49.2242C117.659 49.2242 103.992 51.6455 109.141 47.5556L109.137 47.5472Z" fill="#EDFF4A"/>
<path d="M80.0225 45.8243C80.0225 45.8243 80.4902 47.0454 81.8688 47.2378C83.2433 47.426 83.2433 46.2007 83.1818 45.7992C83.1203 45.3977 82.9028 43.5828 81.6842 43.5786C80.4656 43.5744 80.0225 45.8285 80.0225 45.8285V45.8243Z" fill="#FF7140"/>
<path d="M73.654 46.2466C73.654 46.2466 73.4037 46.8405 73.8632 47.9612C74.3269 49.0819 74.9628 49.5169 75.9435 50.3156C76.9241 51.1143 79.5911 51.8629 79.8167 50.1985C80.0383 48.5341 78.5653 44.9252 77.1416 44.5362C75.7178 44.1473 73.654 46.2424 73.654 46.2424V46.2466Z" fill="#FF7140"/>
<path d="M76.7973 41.4835C76.7973 41.4835 77.1543 42.6669 78.5904 42.3115L78.2621 42.5582C78.2621 42.5582 78.7422 42.6544 78.9391 42.6042C78.9391 42.6042 78.7422 43.0893 78.2785 43.1186C78.2785 43.1186 78.6478 43.3026 78.8981 43.2482C78.8981 43.2482 78.6478 43.5619 78.4344 43.612C78.2211 43.6622 79.1812 43.52 79.374 43.3946C79.5669 43.2691 79.3207 44.2979 78.1185 44.2895C76.9163 44.2811 76.3132 43.5368 76.0752 43.1813C76.0752 43.1813 76.3009 43.382 76.8055 43.3486C76.8055 43.3486 76.4116 43.0893 76.3911 42.7088C76.3911 42.7088 76.4896 42.876 76.9204 42.876C76.9204 42.876 76.4445 42.7548 76.4978 42.1358C76.4978 42.1358 76.4896 42.2655 76.9081 42.416C76.9081 42.416 76.547 41.5127 76.7973 41.4835Z" fill="black"/>
<path d="M78.0444 41.2827C77.9295 41.2953 77.8269 41.1824 77.8146 41.0193C77.7982 40.852 77.8802 40.6973 77.9992 40.6763C79.3778 40.4171 79.4968 39.1165 79.4968 39.0998C79.5091 38.9325 79.6158 38.8112 79.7348 38.828C79.8538 38.8489 79.9359 38.9994 79.9236 39.1667C79.9194 39.2378 79.7635 40.9607 78.0526 41.2785H78.0444V41.2827Z" fill="black"/>
<path d="M82.9429 41.5504C82.9429 41.5504 83.1029 42.6837 84.7072 42.4871C84.7072 42.4871 84.4364 42.7757 84.0958 42.7673C84.0958 42.7673 84.1615 42.9639 84.7482 42.8928C84.7482 42.8928 84.5308 43.1228 83.9727 43.1646C83.9727 43.1646 84.3379 43.2733 84.7277 43.173C84.7277 43.173 84.2312 43.8755 82.9921 43.3068C82.7254 43.0559 82.4054 42.508 82.3931 42.278C82.3931 42.278 82.668 42.6544 83.066 42.7339C83.066 42.7339 82.7664 42.5415 82.7788 42.1275C82.7788 42.1275 82.8034 42.2279 83.0988 42.3951C83.0988 42.3951 82.8198 41.9184 82.9388 41.5462L82.9429 41.5504Z" fill="black"/>
<path d="M83.0251 47.3758C82.9923 47.3758 82.9595 47.3758 82.9266 47.3548C82.82 47.2921 82.7666 47.1248 82.8035 46.9701C82.8364 46.7945 82.9718 45.3977 82.5984 44.5906C82.4466 44.2602 82.2332 44.0762 81.946 44.0219C80.7397 43.7919 80.1161 45.6277 80.075 45.7574C80.0545 45.8828 79.9807 45.9832 79.8822 45.9957C79.7632 46.0083 79.6606 45.887 79.6483 45.7155C79.636 45.4897 79.9437 44.7579 80.3089 44.2602C80.8013 43.5911 81.3839 43.2984 81.9994 43.4155C82.4384 43.4991 82.7707 43.8128 82.9923 44.3481C83.4231 45.3935 83.2549 46.9827 83.1974 47.1876C83.1646 47.3005 83.0949 47.3716 83.0169 47.3799L83.0251 47.3758Z" fill="black"/>
<path d="M79.9111 51.1102C79.7921 51.1227 79.6895 50.9931 79.6813 50.8258C79.4967 46.9115 78.1632 45.5106 77.7611 45.1761C75.7629 43.7668 73.6621 46.4934 73.5596 46.6355C73.5103 46.7359 73.4242 46.7861 73.3339 46.7568C73.219 46.7192 73.1493 46.5519 73.1739 46.3888C73.2149 46.1504 73.9617 45.3057 74.7371 44.7872C75.8901 44.0177 77.0061 43.9633 77.9662 44.6408C78.4299 45.0255 79.9111 46.5728 80.1121 50.7882C80.1203 50.9554 80.0342 51.0976 79.9152 51.1143L79.9111 51.1102Z" fill="black"/>
<path d="M80.3586 46.9366C80.3586 46.9366 82.1599 49.7301 83.2267 48.0197C83.2267 48.0197 82.923 49.2325 83.0995 50.0814C83.2759 50.9303 82.7958 51.2691 82.4553 50.7505C82.1188 50.2278 81.3844 48.7892 81.011 48.1243C80.6787 47.5305 80.055 46.3846 80.3545 46.9366H80.3586Z" fill="black"/>
<path d="M82.4187 50.6962C82.3571 50.6 82.2792 50.1693 82.5172 49.9978C82.7551 49.8263 83.0177 49.8096 83.0957 50.0814C83.3337 50.8969 82.751 51.3444 82.4146 50.6962H82.4187Z" fill="#912407"/>
<path d="M76.5266 45.1384C76.5266 45.1384 76.0917 44.9084 75.7635 45.3099C75.4352 45.7113 75.6158 46.2759 76.1656 46.2968C76.7154 46.3177 76.859 45.8786 76.8508 45.728C76.8426 45.5775 76.8261 45.3099 76.5266 45.1426V45.1384Z" fill="white"/>
<path d="M84.4329 47.3214C84.4329 47.3214 84.0226 47.2587 83.6697 47.083C83.3907 46.945 83.1691 46.715 83.0296 46.5227C82.6275 45.9748 82.5947 45.7532 82.4388 45.7992C82.1557 45.8786 82.7588 47.1039 83.723 47.4092C84.6873 47.7145 85.9264 47.7521 89.2868 47.1876C92.6472 46.623 93.0287 46.2676 94.514 45.8954C95.9993 45.5232 99.5239 44.5154 98.7771 45.565C98.0303 46.6147 99.1751 46.8196 101.017 46.0585C102.86 45.2974 104.099 44.4526 105.966 43.265C107.833 42.0773 107.283 41.4542 109.991 41.2368C112.699 41.0193 113.819 38.5813 111.246 39.2796C108.674 39.978 107.291 41.1448 106.503 41.8933C105.711 42.6419 102.49 44.5739 102.433 44.0804C102.375 43.587 103.077 43.5786 105.202 41.7846C107.332 39.9906 108.341 37.5609 106.749 38.3722C105.153 39.1835 104.267 42.324 102.174 43.3486C100.082 44.3732 97.3616 44.8206 96.5574 44.4568C95.7532 44.093 97.3041 42.5624 93.4842 44.4108C92.6184 44.8248 91.8799 45.7197 89.4632 46.3219C87.0465 46.9241 85.3355 47.4803 84.437 47.3214H84.4329Z" fill="#64E7EA"/>
<path d="M98.8143 24.0659C99.1877 23.585 97.8706 23.8861 96.7423 25.3205C95.6098 26.7507 95.6098 27.47 96.8695 26.9305C98.125 26.3953 98.3753 25.8558 99.5693 25.4083C100.763 24.9609 103.213 23.171 102.08 23.3508C100.948 23.5307 98.1865 24.873 98.8143 24.0659Z" fill="white"/>
<path d="M104.969 20.8459C104.772 20.9003 103.336 22.4559 104.53 22.2761C105.724 22.0963 106.29 20.4863 104.969 20.8459Z" fill="white"/>
<path d="M91.7648 24.3796C91.5227 24.4883 89.7871 25.3205 90.4928 25.655C91.1986 25.9896 92.0479 25.5881 92.331 25.2536C92.6141 24.919 92.8028 23.9112 91.7648 24.3796Z" fill="white"/>
<path d="M89.3605 27.332C89.221 27.3446 88.5604 28.206 89.1718 28.206C89.7832 28.206 90.0211 27.2651 89.3605 27.332Z" fill="white"/>
<path d="M84.3222 23.5098C83.9242 23.7063 81.9671 24.3838 83.3334 24.7183C84.6997 25.0529 84.6505 24.5176 85.2659 23.9781C85.8814 23.4387 85.4054 22.9703 84.3222 23.5098Z" fill="white"/>
<path d="M106.979 33.1072C106.741 33.0946 105.424 34.1819 106.507 34.5834C107.59 34.9848 108.157 33.1741 106.979 33.1072Z" fill="white"/>
<path d="M108.863 34.5834C108.715 34.5834 108.297 35.3236 108.908 35.3905C109.519 35.4574 109.331 34.5834 108.863 34.5834Z" fill="white"/>
<path d="M109.005 41.563C108.878 41.6424 106.416 42.5708 107.828 42.7046C109.239 42.8385 110.606 42.6377 110.56 43.3068C110.515 43.9759 113.81 43.5745 113.621 42.6335C113.433 41.6926 108.394 42.4328 110.511 41.5588C112.633 40.6848 109.235 41.4166 109.005 41.5588V41.563Z" fill="white"/>
<path d="M120.826 43.0852C120.826 43.0852 119.288 44.2937 120.732 44.2937C122.176 44.2937 121.151 42.7213 120.826 43.0852Z" fill="white"/>
<path d="M122.493 44.3857C122.493 44.3857 121.676 45.3685 122.365 45.2807C123.055 45.1928 122.817 44.0219 122.493 44.3857Z" fill="white"/>
<path d="M109.113 44.1599C109.113 44.1599 108.423 44.967 109.24 44.921C110.056 44.875 109.847 43.3904 109.113 44.1599Z" fill="white"/>
<path d="M125.631 47.1374C125.356 47.2545 123.654 48.346 124.782 48.5467C125.914 48.7474 125.205 48.5467 126.288 48.0783C127.371 47.61 126.571 46.736 125.627 47.1374H125.631Z" fill="white"/>
<path d="M120.593 47.8066C120.445 47.8358 120.548 48.8813 121.065 48.5467C121.582 48.2122 121.582 47.6058 120.593 47.8066Z" fill="white"/>
<path d="M85.3106 29.5275C85.2203 29.5651 84.0879 30.4684 85.1834 30.5562C86.283 30.644 86.6892 28.9462 85.3106 29.5275Z" fill="#5BB3FD"/>
<path d="M83.7719 31.0915C83.6735 31.1208 82.9226 32.2123 83.9279 31.9404C84.9331 31.6686 84.3669 30.9117 83.7719 31.0915Z" fill="#5BB3FD"/>
<path d="M93.0697 29.8411C92.9548 29.9582 92.3147 31.1835 93.1312 30.782C93.9477 30.3805 93.5621 29.3392 93.0697 29.8411Z" fill="#5BB3FD"/>
<path d="M97.7801 36.8667C97.7801 36.8667 97.2139 37.8495 98.0632 37.54C98.9125 37.2264 98.133 36.2395 97.7801 36.8667Z" fill="#5BB3FD"/>
<path d="M95.5807 35.5243C95.5807 35.5243 93.8862 36.0596 94.8258 36.5071C95.7654 36.9545 96.9306 36.5531 96.5532 36.2394C96.1757 35.9258 96.9922 35.2567 95.5807 35.5243Z" fill="#5BB3FD"/>
<path d="M113.29 47.3841C113.29 47.3841 112.662 47.7438 113.162 48.0574C113.663 48.3711 114.295 47.6978 114.012 47.5221C113.729 47.3465 113.54 47.2963 113.29 47.3883V47.3841Z" fill="#EDFF4A"/>
<path d="M115.427 47.6058C115.427 47.6058 113.95 48.8144 115.743 48.4547C117.536 48.0951 117.409 47.5598 116.81 47.5598C116.211 47.5598 116.81 46.9785 115.427 47.6058Z" fill="#EDFF4A"/>
<path d="M103.242 44.1139C103.114 44.1264 102.269 44.6492 102.991 44.829C103.713 45.0088 103.746 44.0679 103.242 44.1139Z" fill="#EDFF4A"/>
<path d="M104.152 42.5039C104.152 42.5039 103.869 43.0391 104.374 42.9973C104.879 42.9555 104.477 41.9895 104.152 42.5039Z" fill="#EDFF4A"/>
<path d="M91.1211 31.3634C90.998 31.4261 90.2718 32.2583 90.8052 32.3043C91.3386 32.3503 91.9417 30.9577 91.1211 31.3634Z" fill="#EDFF4A"/>
<path d="M127.157 39.886C127.157 39.886 125.557 41.1614 126.686 41.2953C127.814 41.4291 130.263 41.0276 129.701 40.5551C129.135 40.0867 128.241 39.5472 130.218 38.6774C132.196 37.8076 130.358 37.8034 127.157 39.886Z" fill="#5BB3FD"/>
<path d="M123.674 35.9927C123.674 35.9927 122.968 37.4689 124.474 37.0005C125.98 36.5322 123.965 35.1772 123.674 35.9927Z" fill="#5BB3FD"/>
<path d="M126.924 36.1265C127.708 35.8463 127.679 37.2682 126.969 37.0674C126.969 37.0674 126.625 36.9587 126.608 36.6325C126.592 36.3063 126.846 36.1558 126.924 36.1307V36.1265Z" fill="#5BB3FD"/>
<path d="M142.704 37.8704C142.704 37.8704 141.432 38.6106 142.516 38.8113C143.599 39.012 143.176 37.5358 142.704 37.8704Z" fill="#5BB3FD"/>
<path d="M101.912 29.2808C101.912 29.2808 98.7072 31.4303 101.157 31.5641C103.606 31.6979 102.663 29.0132 101.912 29.2808Z" fill="#5BB3FD"/>
<path d="M104.079 26.596C104.079 26.596 102.573 28.206 103.796 28.206C105.018 28.206 104.834 26.1903 104.079 26.596Z" fill="#5BB3FD"/>
<path d="M98.6128 15.3174C98.6128 15.3174 96.0689 17.1951 97.5747 17.0613C99.0805 16.9275 99.3472 14.7989 98.6128 15.3174Z" fill="#5BB3FD"/>
</g>
<defs>
<linearGradient id="paint0_linear_25209_119491" x1="78.0897" y1="66.7839" x2="125.5" y2="20.268" gradientUnits="userSpaceOnUse">
<stop stop-color="#55FFFF"/>
<stop offset="0.1" stop-color="#5AFBFD"/>
<stop offset="0.22" stop-color="#6AF2F9"/>
<stop offset="0.36" stop-color="#85E2F2"/>
<stop offset="0.51" stop-color="#AACDE8"/>
<stop offset="0.67" stop-color="#D9B1DC"/>
<stop offset="0.78" stop-color="#FF9CD3"/>
</linearGradient>
<clipPath id="clip0_25209_119491">
<rect width="160" height="106" fill="white"/>
</clipPath>
</defs>
</svg>
