<svg width="160" height="106" viewBox="0 0 160 106" fill="none" xmlns="http://www.w3.org/2000/svg">
<g clip-path="url(#clip0_25209_119423)">
<mask id="mask0_25209_119423" style="mask-type:luminance" maskUnits="userSpaceOnUse" x="0" y="0" width="160" height="106">
<path d="M149.198 0H10.8017C4.83607 0 0 4.92899 0 11.0092V94.9908C0 101.071 4.83607 106 10.8017 106H149.198C155.164 106 160 101.071 160 94.9908V11.0092C160 4.92899 155.164 0 149.198 0Z" fill="white"/>
</mask>
<g mask="url(#mask0_25209_119423)">
<path d="M114.987 19.2014L111.407 17.8557C110.876 17.6556 110.58 17.0749 110.726 16.5178L112.116 11.2054C112.351 10.3148 111.484 9.53795 110.645 9.87929L105.01 12.1902C104.332 12.4688 103.585 12.0097 103.508 11.2721L103.112 7.43105C103.004 6.40703 101.711 6.06177 101.125 6.90139L98.1883 11.1348C97.7918 11.7076 96.9757 11.7704 96.4984 11.2603L93.1378 7.67823C92.4757 6.97201 91.3016 7.41143 91.2515 8.3923L90.932 14.3716C90.8858 15.223 89.9658 15.7095 89.2575 15.2583L86.1086 13.2574C85.2694 12.7238 84.2185 13.5046 84.4649 14.4815L85.4273 18.3186C85.5658 18.8758 85.2694 19.4486 84.7382 19.6448L81.7087 20.763C80.8425 21.0847 80.727 22.2853 81.5162 22.7718L84.9191 24.859C85.5081 25.22 85.6274 26.0361 85.1732 26.5579L83.7373 28.2136C83.1253 28.9198 83.5911 30.0341 84.5149 30.0733L87.4713 30.191C88.1719 30.2185 88.6685 30.9051 88.4876 31.5956L87.2866 36.1743C87.0248 37.1669 88.1103 37.9634 88.9534 37.3945L93.234 34.5068C93.8538 34.087 94.693 34.4048 94.8931 35.1346L95.6476 37.8535C95.9171 38.8187 97.199 38.9639 97.6686 38.0811L99.6242 34.397C99.8975 33.883 100.51 33.6672 101.029 33.9065C102.153 34.4244 103.824 35.5622 105.056 36.4529C105.764 36.9629 106.742 36.4725 106.784 35.5897L106.992 31.1052C107.023 30.4539 107.589 29.9674 108.224 30.0498L112.701 30.6265C113.602 30.7403 114.252 29.7516 113.786 28.9551C113.109 27.7899 111.862 26.503 110.969 25.6477C110.449 25.1533 110.522 24.2941 111.119 23.8978L115.203 21.1788C115.958 20.6766 115.83 19.5114 114.984 19.1936L114.987 19.2014Z" fill="#17C137"/>
<path d="M110.28 69.869C110.28 69.869 112.555 72.6232 116.955 75.354C121.355 78.0847 128.957 82.4162 135.679 81.8316C135.679 81.8316 139.674 100.88 140.04 101.884C140.406 102.889 141.611 105.027 143.47 102.602C145.329 100.178 155.103 87.9208 155.103 87.9208C155.103 87.9208 168.634 94.2062 169.466 94.7044C170.297 95.2027 173.496 96.3013 172.383 91.8874C171.271 87.4735 159.95 55.513 159.95 55.513C159.95 55.513 164.196 20.8846 164.658 19.2407C165.281 17.02 163.676 15.9018 161.751 17.9459C159.973 19.8371 148.193 31.3524 148.193 31.3524C148.193 31.3524 140.017 22.1637 138.939 20.9121C137.861 19.6605 136.298 17.0239 134.824 22.352C133.35 27.68 129.415 40.8079 129.415 40.8079C129.415 40.8079 115.053 44.1429 107.712 52.5744C106.673 53.9319 105.741 55.6347 108.089 54.7205C110.441 53.8063 119.515 52.6881 123.699 57.1883C127.883 61.6925 127.93 65.8631 118.622 67.2402C116.262 67.3933 112.308 67.3776 110.233 66.6439C110.233 66.6439 109.548 66.4516 108.99 66.2476C108.286 65.9926 107.693 65.7729 107.931 66.5458C108.359 67.9308 110.272 69.869 110.272 69.869H110.28Z" fill="#EDFF4A"/>
<path d="M129.423 40.8079C129.423 40.8079 115.06 44.1429 107.719 52.5744C106.68 53.9319 105.748 55.6347 108.097 54.7205C110.449 53.8063 119.522 52.6881 123.706 57.1883C127.891 61.6925 127.937 65.8631 118.629 67.2402C116.269 67.3933 112.316 67.3776 110.241 66.6439C110.241 66.6439 109.556 66.4516 108.997 66.2476C108.293 65.9926 107.7 65.7729 107.939 66.5458C108.366 67.9308 110.279 69.869 110.279 69.869C110.279 69.869 112.554 72.6232 116.954 75.3539C121.354 78.0847 128.957 82.4162 135.678 81.8316C135.678 81.8316 142.488 73.2667 142.9 60.7548C143.423 44.9119 130.986 41.0747 129.419 40.8118L129.423 40.8079Z" fill="#5BB3FD"/>
<path d="M120.662 49.2237C122.852 49.6906 129.82 52.6685 129.246 60.4056C128.672 68.1426 118.475 67.2559 118.475 67.2559C127.783 65.8788 127.872 61.7003 123.687 57.2001C119.503 52.696 110.426 53.8181 108.078 54.7323C105.726 55.6464 106.661 53.9437 107.7 52.5861C107.7 52.5861 111.477 47.262 120.662 49.2237Z" fill="#EDFF4A"/>
<path d="M129.92 58.2202C129.92 58.3889 129.82 58.5419 129.662 58.589C129.473 58.6439 129.277 58.5262 129.227 58.3261C127.006 49.7809 118.344 50.1967 113.378 51.2051C108.328 52.2291 107.377 54.5989 107.366 54.6224C107.292 54.8147 107.085 54.9088 106.904 54.8303C106.723 54.7519 106.634 54.5322 106.707 54.336C106.75 54.2222 107.816 51.5582 113.244 50.4596C118.448 49.4042 127.537 48.9962 129.908 58.1221C129.916 58.1535 129.92 58.1888 129.92 58.2202Z" fill="#5BB3FD"/>
<path d="M156.512 88.5995C156.512 88.5995 168.876 94.418 169.731 94.9006C170.585 95.3832 173.969 96.2189 172.733 91.7736C171.498 87.3283 159.953 55.513 159.953 55.513C159.953 55.513 164.549 20.5707 164.977 18.8915C165.554 16.6237 163.706 15.2191 161.809 17.3417C160.049 19.3035 148.189 31.1915 148.189 31.1915L130.739 35.4328L129.654 40.188C129.654 40.188 139.308 39.525 145.633 38.752C149.032 38.3361 151.654 38.1831 152.258 40.0821C153.49 43.9467 155.103 74.3142 154.987 77.7826C154.872 81.2509 153.44 81.4314 152.25 81.604C151.061 81.7766 135.751 83.0086 135.751 83.0086L136.671 87.0145L153.609 87.8698C153.609 87.8698 155.43 88.2268 156.508 88.5956L156.512 88.5995Z" fill="#2689E9"/>
<path d="M137.272 18.146C136.502 18.7306 135.625 19.1465 134.755 19.5624C132.607 20.5864 130.259 21.634 127.941 21.1161C126.69 20.8375 125.562 20.1156 124.307 19.8527C122.791 19.5349 121.205 19.9194 119.803 20.5943C119.045 20.9591 118.321 21.4103 117.521 21.6575C116.716 21.9047 115.792 21.9165 115.099 21.4378C114.78 21.2181 114.545 20.8689 114.426 20.4922C114.291 22.0616 115.103 23.7605 116.574 24.2078C118.579 24.8159 120.589 23.015 122.675 23.172C123.711 23.2504 124.8 23.6702 125.809 23.9292C127.325 24.3176 127.783 24.5295 128.992 24.451C128.992 24.451 128.261 28.0645 130.64 28.1312C133.192 28.2018 137.249 26.6756 139.047 25.6045C140.529 24.7178 139.49 22.1244 137.784 21.2926C137.784 21.2926 137.8 21.2848 137.823 21.2691C138.204 21.0219 139.794 20.8179 139.286 15.2505C139.266 15.0504 139.243 14.8582 139.22 14.662C139.205 15.07 139.147 15.4781 139.016 15.8704C138.704 16.7963 138.038 17.5614 137.265 18.146H137.272Z" fill="#E4E28B"/>
<path d="M136.187 10.303C135.652 10.6679 135.263 10.7346 134.659 10.511C134.054 10.2873 133.535 9.87538 133.023 9.47126C133.781 10.4325 133.581 11.6762 132.576 12.3668C131.571 13.0573 130.116 13.0141 129.396 11.9627C129.631 12.6767 129.766 13.5046 129.381 14.148C128.942 14.8817 127.934 15.0975 127.133 14.8189C126.332 14.5404 125.72 13.8812 125.235 13.175C124.892 12.6767 124.442 11.947 124.034 11.3035C123.664 10.7189 122.718 9.75767 122.144 9.92246C121.882 9.99701 121.705 10.0794 121.551 10.1775C121.59 12.2059 122.552 13.9636 122.552 13.9636C120.974 14.6738 119.303 15.176 117.798 16.0391C116.297 16.9023 114.93 18.2127 114.51 19.9194C114.464 20.1038 114.441 20.2961 114.422 20.4883C114.537 20.865 114.776 21.2102 115.096 21.4339C115.788 21.9125 116.716 21.9008 117.517 21.6536C118.321 21.4064 119.045 20.9552 119.8 20.5903C121.197 19.9155 122.787 19.531 124.304 19.8488C125.558 20.1117 126.686 20.8336 127.937 21.1122C130.255 21.6301 132.599 20.5786 134.751 19.5585C135.621 19.1426 136.499 18.7267 137.269 18.1421C138.038 17.5575 138.708 16.7924 139.02 15.8665C139.151 15.4741 139.209 15.0661 139.224 14.6581C138.928 12.0843 138.242 9.77729 137.299 7.94504C137.411 8.85528 136.918 9.79691 136.183 10.303H136.187Z" fill="#E81413"/>
<path d="M132.479 27.1896C132.479 27.3387 132.398 27.48 132.256 27.5467C132.067 27.633 131.844 27.5467 131.756 27.3544C131.344 26.4285 131.19 25.4045 131.317 24.4C131.344 24.1882 131.532 24.0391 131.74 24.0666C131.948 24.094 132.091 24.2863 132.067 24.4942C131.963 25.3456 132.098 26.2519 132.445 27.0366C132.468 27.0876 132.479 27.1386 132.479 27.1896Z" fill="black"/>
<path d="M135.49 26.4559C135.49 26.6129 135.401 26.762 135.247 26.8208C135.051 26.8954 134.836 26.7973 134.759 26.6011L133.792 24.0391C133.777 24.0155 133.769 23.992 133.758 23.9645L133.715 23.8311C133.654 23.631 133.754 23.4192 133.946 23.3485C134.139 23.2779 134.351 23.376 134.424 23.5722L135.463 26.3225C135.478 26.3657 135.486 26.4128 135.49 26.4559Z" fill="black"/>
<path d="M138.211 25.2279C138.211 25.4083 138.088 25.5731 137.907 25.6084C137.703 25.6477 137.503 25.5143 137.464 25.3063C137.295 24.4471 136.841 23.6624 136.179 23.0974C136.021 22.9601 135.998 22.7169 136.133 22.556C136.267 22.3912 136.506 22.3716 136.664 22.5089C137.457 23.1837 138.003 24.1254 138.204 25.1572C138.207 25.1808 138.211 25.2043 138.211 25.2279Z" fill="black"/>
<path d="M110.643 16.6277L111.566 19.0571C111.675 19.344 111.992 19.4865 112.273 19.3754L122.64 15.2834C122.922 15.1723 123.062 14.8496 122.953 14.5626L122.03 12.1333C121.921 11.8464 121.604 11.7038 121.323 11.815L110.956 15.907C110.674 16.0181 110.534 16.3408 110.643 16.6277Z" fill="#DD9300"/>
<path d="M100.602 25.1219C101.276 26.8953 103.05 27.8487 104.567 27.2524L106.149 26.6286C106.453 26.5069 106.603 26.1617 106.488 25.8517L104.894 21.6536C104.775 21.3437 104.436 21.1906 104.132 21.3083L100.36 22.7993C100.055 22.9209 99.9053 23.2662 100.021 23.5761L100.61 25.1219H100.602Z" fill="#FFD400"/>
<path d="M98.2037 18.817L98.7772 20.3314C98.8658 20.5668 99.1237 20.6845 99.3547 20.5904L104.313 18.6326L102.357 13.4811L100.136 14.356C98.3961 15.0426 97.53 17.0397 98.2037 18.8131V18.817Z" fill="#FFD400"/>
<path d="M108.07 26.8561L110.761 25.7928C112.805 24.9846 113.821 22.6423 113.028 20.5589L110.734 14.5168C109.941 12.4335 107.643 11.3977 105.599 12.2059L102.357 13.485L107.308 26.5108C107.427 26.8208 107.766 26.9738 108.07 26.8561ZM107.897 15.8194C108.232 15.686 108.59 15.8194 108.701 16.1058L110.476 20.7747C110.588 21.0651 110.407 21.4064 110.072 21.5398L108.316 22.2343C107.982 22.3677 107.624 22.2343 107.512 21.9478L105.737 17.2789C105.626 16.9886 105.807 16.6473 106.141 16.5139L107.897 15.8194Z" fill="#FFD400"/>
<path d="M106.79 17.0364L108.45 21.4049C108.559 21.6918 108.876 21.8343 109.157 21.7232L109.236 21.692C109.518 21.5809 109.658 21.2582 109.549 20.9713L107.889 16.6029C107.78 16.3159 107.463 16.1734 107.181 16.2845L107.102 16.3157C106.821 16.4268 106.681 16.7495 106.79 17.0364Z" fill="#FFD400"/>
<path d="M107.4 20.531L107.528 20.8676C107.695 21.3061 108.178 21.5239 108.609 21.3541L109.366 21.0551C109.796 20.8853 110.01 20.3922 109.843 19.9537L109.715 19.6171C109.549 19.1786 109.065 18.9609 108.635 19.1307L107.877 19.4296C107.447 19.5994 107.233 20.0925 107.4 20.531Z" fill="#FF7140"/>
<path d="M106.463 18.0659L106.591 18.4025C106.758 18.8409 107.241 19.0587 107.672 18.8889L108.429 18.5899C108.859 18.4201 109.073 17.927 108.906 17.4886L108.778 17.152C108.612 16.7135 108.128 16.4957 107.698 16.6655L106.94 16.9645C106.51 17.1343 106.296 17.6274 106.463 18.0659Z" fill="#FF7140"/>
<path d="M137.722 4.48459L139.558 9.31828C139.67 9.61254 139.57 9.91857 139.343 10.001L122.332 16.0156C122.113 16.0941 121.851 15.9332 121.743 15.6507L120.369 12.0372C120.261 11.7547 120.35 11.4566 120.561 11.3624L137.11 4.13147C137.333 4.03339 137.611 4.19425 137.722 4.48851V4.48459Z" fill="#004472"/>
<path d="M136.264 10.613C137.022 10.1461 136.96 9.14956 136.845 8.23932C136.318 6.02649 135.317 4.85338 133.727 4.33156C130.936 3.41347 130.466 5.98333 130.466 5.98333C130.466 5.98333 129.327 4.76706 127.337 5.43013C126.155 5.82247 125.774 6.42276 125.547 7.67434C125.547 7.67434 124.631 6.74056 122.929 7.55272C121.855 8.06669 121.532 9.08286 121.555 10.1854C121.709 10.0873 121.89 10.0049 122.148 9.93033C122.721 9.76947 123.664 10.7268 124.038 11.3114C124.446 11.9548 124.9 12.6885 125.239 13.1829C125.724 13.8891 126.336 14.5482 127.137 14.8268C127.937 15.1054 128.946 14.8896 129.385 14.1559C129.77 13.5124 129.635 12.6846 129.4 11.9705C129.989 13.0456 131.448 13.2613 132.541 12.7317C132.834 12.5904 133.627 11.8881 133.534 10.5032C133.534 10.5032 134.643 11.6135 136.264 10.613Z" fill="#E4E28B"/>
<path d="M142.523 84.8331V84.8448C142.523 85.1626 142.265 85.4177 141.953 85.4177L139.69 85.398C139.378 85.398 139.124 85.1352 139.127 84.8174C139.127 84.4996 139.385 84.2445 139.697 84.2445L141.961 84.2642C142.269 84.2642 142.519 84.5231 142.523 84.8331Z" fill="black"/>
<path d="M163.915 88.117C163.915 88.1954 163.899 88.2778 163.868 88.3524C163.745 88.6466 163.41 88.78 163.122 88.6506L158.456 86.5868C158.167 86.4613 158.036 86.1199 158.163 85.8257C158.287 85.5314 158.621 85.398 158.91 85.5275L163.576 87.5912C163.787 87.6854 163.915 87.8933 163.918 88.113L163.915 88.117ZM153.54 84.935V84.9468C153.54 85.2646 153.282 85.5196 152.97 85.5196L147.885 85.4726C147.573 85.4726 147.327 85.2097 147.323 84.8919C147.323 84.5741 147.581 84.3191 147.893 84.3191L152.978 84.3661C153.286 84.3661 153.536 84.6251 153.54 84.935Z" fill="black"/>
<path d="M155.992 27.582C155.992 27.735 155.938 27.888 155.819 28.0018L152.019 31.7604C151.796 31.9841 151.438 31.9762 151.219 31.7487C151.003 31.5211 151.007 31.1562 151.23 30.9326L155.03 27.1739C155.253 26.9503 155.611 26.9581 155.83 27.1857C155.934 27.2955 155.988 27.4368 155.988 27.582H155.992ZM147.104 34.4912C147.104 34.758 146.927 35.0012 146.657 35.0601L141.48 36.2096C141.175 36.2763 140.871 36.0802 140.806 35.7702C140.737 35.4603 140.933 35.1503 141.237 35.0836L146.415 33.934C146.719 33.8673 147.023 34.0635 147.088 34.3735C147.096 34.4127 147.1 34.4519 147.1 34.4912H147.104Z" fill="black"/>
<path d="M135.902 36.9904C135.902 37.2572 135.725 37.5005 135.459 37.5593C133.657 37.9674 133.346 38.0458 133.296 38.0615C132.995 38.1478 132.68 37.9791 132.591 37.6731C132.503 37.3671 132.664 37.0493 132.961 36.9551C133.018 36.9355 133.134 36.9002 135.213 36.4294C135.517 36.3587 135.821 36.5549 135.886 36.8688C135.894 36.908 135.898 36.9473 135.898 36.9865L135.902 36.9904Z" fill="black"/>
<path d="M136.379 45.6377C136.379 45.6377 136.498 49.1531 137.969 50.4596C139.439 51.7661 143.947 53.6102 145.929 52.7431C147.912 51.876 147.916 49.4317 147.104 47.4778C146.291 45.5239 143.115 42.754 140.671 42.7304C138.227 42.7069 136.39 44.2292 136.375 45.6377H136.379Z" fill="#FF7140"/>
<path d="M131.197 67.0676C131.197 67.0676 131.359 70.3829 135.108 70.7988C138.858 71.2147 144.724 70.9165 145.575 67.6326C146.426 64.3487 143.912 62.23 141.125 62.1162C138.338 62.0024 130.747 61.6729 131.201 67.0676H131.197Z" fill="white"/>
<path d="M146.041 66.1574C146.065 66.6596 146.007 67.1853 145.868 67.7228C145.014 71.0225 139.524 71.6188 135.082 71.1245C131.236 70.6968 130.913 67.3266 130.898 67.0912C130.79 65.8043 131.105 64.7253 131.841 63.8857C133.935 61.4885 138.958 61.6925 141.106 61.7788H141.137C142.893 61.8534 144.459 62.6616 145.325 63.9485C145.768 64.6037 146.011 65.3492 146.045 66.1535L146.041 66.1574ZM131.502 67.0519C131.51 67.1814 131.71 70.0887 135.136 70.4693C138.523 70.8459 144.475 70.6537 145.279 67.5424C145.587 66.3457 145.433 65.2393 144.829 64.3408C144.07 63.2187 142.685 62.5125 141.114 62.4458H141.083C139.02 62.3595 134.189 62.1633 132.28 64.3487C131.664 65.0549 131.41 65.9377 131.502 67.0441V67.0559V67.0519Z" fill="black"/>
<path d="M133.142 66.8165C133.142 66.8165 133.354 69.457 136.414 69.4766C139.17 69.4923 143.578 69.5512 143.851 66.7223C144.175 63.4031 141.091 63.2226 137.561 63.5012C134.986 63.7052 133.084 64.3683 133.142 66.8165Z" fill="#2CE69D"/>
<path d="M134.758 66.5654C134.758 66.5654 134.774 68.6174 137.199 68.6174C139.27 68.6174 142.092 68.5154 142.349 66.6557C142.665 64.3722 140.344 64.0858 137.799 64.3291C136.16 64.486 134.797 64.7842 134.758 66.5654Z" fill="black"/>
<path d="M136.125 67.9543C136.125 67.9543 136.182 68.7194 137.126 68.7547C138.069 68.79 139.035 68.8057 139.212 68.0289C139.389 67.252 138.823 66.742 138.142 66.7459C137.46 66.7498 135.948 66.6321 136.125 67.9543Z" fill="white"/>
<path d="M140.817 55.7367C140.817 55.7367 142.561 55.8387 143.678 57.7259C144.829 59.6758 144.151 59.9034 143.916 60.233C143.681 60.5625 141.145 62.6577 139.605 60.9549C138.065 59.2482 139.047 56.5959 140.817 55.7367Z" fill="#FF7140"/>
<path d="M144.705 59.8092C144.705 59.8681 144.698 59.927 144.671 59.9819C144.166 60.9863 142.584 62.1045 141.118 62.0966C140.12 62.0927 139.335 61.5787 138.846 60.6214C137.676 58.3262 139.316 56.2938 140.344 55.5366C140.482 55.4346 140.671 55.4738 140.767 55.6268C140.863 55.7799 140.829 55.9839 140.69 56.0859C140.586 56.1604 138.188 57.9691 139.378 60.3036C139.759 61.0491 140.34 61.4296 141.114 61.4336C142.311 61.4414 143.72 60.488 144.132 59.6602C144.213 59.4993 144.397 59.4444 144.544 59.5307C144.64 59.5895 144.698 59.6955 144.701 59.8092H144.705Z" fill="black"/>
<path d="M148.351 68.4251C148.359 68.586 148.255 68.7312 148.105 68.7626C145.491 69.2883 143.735 70.3084 142.896 71.7993C142.092 73.2196 142.434 74.5614 142.438 74.5732C142.484 74.7498 142.392 74.9302 142.23 74.9812C142.069 75.0283 141.899 74.9263 141.853 74.7497C141.834 74.6831 141.434 73.1137 142.377 71.4462C143.312 69.7944 145.202 68.6684 147.989 68.1113C148.155 68.0799 148.316 68.1976 148.347 68.3781C148.347 68.3937 148.351 68.4094 148.351 68.4251Z" fill="black"/>
<path d="M130.563 49.2434C130.563 49.2434 131.613 51.6838 134.466 53.5003C134.466 53.5003 131.725 51.9545 132.483 47.9212C132.483 47.9212 132.603 48.3017 132.903 49.3375C132.903 49.3375 132.895 48.0389 133.303 47.47C133.303 47.47 132.899 50.3576 135.609 52.951C135.609 52.951 133.627 50.7147 134.566 47.3091C134.566 47.3091 134.604 48.6862 135.136 49.7966C135.136 49.7966 134.778 48.1016 135.505 47.2973C135.505 47.2973 135.255 51.9466 138.466 55.4581C138.466 55.4581 132.322 56.2899 129.97 49.7613C129.97 49.7613 130.474 50.7617 131.101 51.1502C131.101 51.1502 130.728 50.2282 130.559 49.2394L130.563 49.2434Z" fill="black"/>
<path d="M146.414 61.512C146.414 61.512 148.043 57.0157 142.003 55.0658C142.003 55.0658 147.25 52.9471 150.206 55.9721C151.018 57.0981 151.222 58.2477 149.563 58.6479C147.904 59.0481 146.688 60.8372 146.411 61.5081L146.414 61.512Z" fill="black"/>
<path d="M147.338 54.4812C148.374 54.5871 148.589 55.0736 149.371 56.0467C150.183 57.1727 150.395 58.695 148.693 58.7656C148.539 58.7735 147.088 58.695 146.295 56.902C145.502 55.1129 146.695 54.4106 147.338 54.4773V54.4812Z" fill="#912407"/>
<path d="M145.391 52.9118V52.9196C145.395 53.1041 145.264 53.2531 145.094 53.2531C141.688 53.3041 139.189 52.3939 137.665 50.5499C135.825 48.3174 136.117 45.5632 136.133 45.4494C136.152 45.2689 136.306 45.1434 136.472 45.1669C136.637 45.1904 136.756 45.3591 136.737 45.5396C136.737 45.5671 136.468 48.1213 138.123 50.1222C139.52 51.8132 141.861 52.645 145.079 52.5979C145.245 52.5979 145.383 52.7352 145.391 52.9157V52.9118Z" fill="black"/>
<path d="M137.291 46.9756C137.291 46.9756 137.426 48.0977 138.5 48.3253C139.57 48.5528 140.086 47.9094 140.136 47.2738C140.186 46.6382 140.009 45.5671 139.043 45.01C138.076 44.4528 136.937 45.2925 137.291 46.9756Z" fill="white"/>
</g>
<path d="M83.2059 14.0852C83.2059 14.0852 84.2607 12.1078 87.1555 13.7282C88.7492 14.6188 92.0867 16.4667 93.2685 17.122C93.7766 17.4044 94.2193 17.8046 94.5465 18.3068C94.9584 18.9424 95.2664 19.837 94.7428 20.81C93.4648 23.1915 90.5315 21.3279 90.5315 21.3279L85.1037 18.3304C85.1037 18.3304 81.9741 16.4942 83.2021 14.0891L83.2059 14.0852Z" fill="#EDFF4A"/>
<path d="M99.1889 32.1723C99.3582 32.8511 98.954 33.5455 98.2842 33.7142C96.7367 34.1027 95.9245 32.8825 95.759 32.2194C95.5588 31.4033 95.0045 31.6897 95.0045 31.6897C93.4069 32.0978 92.6563 31.5446 92.4176 30.5794C92.1789 29.6142 91.5553 29.8889 91.5553 29.8889C90.1503 30.2498 89.4766 29.5161 89.1533 28.7511C88.8607 28.0645 89.2533 27.2758 89.9655 27.0954L95.3586 25.7104C96.5135 25.4122 97.6837 26.1263 97.9763 27.3033L99.1889 32.1762V32.1723Z" fill="#FF7135"/>
</g>
<defs>
<clipPath id="clip0_25209_119423">
<rect width="160" height="106" fill="white"/>
</clipPath>
</defs>
</svg>
