<svg width="160" height="106" viewBox="0 0 160 106" fill="none" xmlns="http://www.w3.org/2000/svg">
<path d="M146.047 12.5776C146.047 10.6199 144.18 9.03107 141.875 9.03107H91.0034C88.6984 9.03107 86.832 10.6199 86.832 12.5776V16.6459H146.047V12.5776Z" fill="#FF0AD1"/>
<path d="M86.832 16.6459L88.3443 75.9484C88.3443 77.9061 90.2107 79.495 92.5157 79.495H145.777C148.082 79.495 149.949 77.9061 149.949 75.9484L146.047 16.6459H86.832Z" fill="#F878F3"/>
<path d="M132.455 14.9236C133.454 14.9236 134.264 14.0981 134.264 13.0797C134.264 12.0614 133.454 11.2358 132.455 11.2358C131.456 11.2358 130.646 12.0614 130.646 13.0797C130.646 14.0981 131.456 14.9236 132.455 14.9236Z" fill="#1DFFEE"/>
<path d="M137.077 14.9236C138.076 14.9236 138.885 14.0981 138.885 13.0797C138.885 12.0614 138.076 11.2358 137.077 11.2358C136.078 11.2358 135.268 12.0614 135.268 13.0797C135.268 14.0981 136.078 14.9236 137.077 14.9236Z" fill="#FFE500"/>
<path d="M141.702 14.9236C142.701 14.9236 143.511 14.0981 143.511 13.0797C143.511 12.0614 142.701 11.2358 141.702 11.2358C140.703 11.2358 139.894 12.0614 139.894 13.0797C139.894 14.0981 140.703 14.9236 141.702 14.9236Z" fill="#FF1D46"/>
<mask id="mask0_25209_119617" style="mask-type:luminance" maskUnits="userSpaceOnUse" x="86" y="16" width="65" height="64">
<path d="M86.9902 16.4929L88.5025 75.7954C88.5025 77.7531 90.3689 79.342 92.6739 79.342H145.935C148.24 79.342 150.107 77.7531 150.107 75.7954L146.205 16.4929H86.9902Z" fill="white"/>
</mask>
<g mask="url(#mask0_25209_119617)">
<path d="M172.657 66.8468C172.637 66.8468 172.618 66.8468 172.595 66.8468C172.399 66.8311 172.256 66.6663 172.272 66.4741C172.633 62.2606 151.504 56.0189 119.48 53.4453C105.103 52.2919 91.5233 52.1389 81.2065 53.0412C71.3669 53.8964 65.3832 55.7011 65.1946 57.8706C65.1792 58.0589 65.006 58.2001 64.8136 58.1845C64.6174 58.1688 64.475 58.004 64.4904 57.8118C64.7752 54.4692 73.7027 52.998 81.145 52.3507C91.4886 51.4405 105.126 51.5975 119.541 52.7548C146.205 54.8968 173.484 60.6325 172.984 66.5251C172.968 66.6938 172.83 66.8272 172.66 66.839L172.657 66.8468Z" fill="#2CE69D"/>
<path d="M161.485 54.4496C156.391 52.0329 141.156 45.2929 141.156 45.2929C140.606 46.8857 134.503 59.2594 118.66 56.1012C106.15 53.6061 98.7614 45.0811 98.7614 45.0811C98.7614 45.0811 78.8821 46.1246 77.8008 46.3404C76.7234 46.5562 74.3568 47.4663 76.4578 49.8085C78.5589 52.1506 89.1258 64.3869 89.1258 64.3869C89.1258 64.3869 80.3598 77.4942 79.7095 78.2828C79.0592 79.0714 77.3775 82.2334 82.0145 81.798C86.6553 81.3625 120.865 74.0026 120.865 74.0026C120.865 74.0026 154.597 85.0503 156.171 85.8035C158.291 86.8196 159.708 85.3249 157.995 82.9788C156.414 80.8054 147.271 66.478 147.271 66.478C147.271 66.478 160.731 59.9067 162.182 58.9848C163.636 58.0667 166.569 56.8623 161.478 54.4456L161.485 54.4496Z" fill="#EDFF4A"/>
<path d="M118.664 56.1012C134.506 59.2594 140.609 46.8896 141.16 45.2929C141.16 45.2929 140.402 29.7297 133.24 20.6711C132.063 19.3608 130.52 18.1054 131.016 20.7143C131.509 23.3232 130.997 32.9938 125.713 36.6266C120.43 40.2595 116.224 39.62 116.52 29.663C116.79 27.1718 117.521 23.0407 118.633 20.9928C118.633 20.9928 118.948 20.3102 119.256 19.757C119.641 19.0626 119.968 18.4781 119.149 18.5997C117.679 18.8194 115.385 20.4985 115.385 20.4985C115.385 20.4985 112.203 22.4208 108.662 26.5715C105.122 30.7223 99.3885 37.9566 98.7651 45.081C98.7651 45.081 106.153 53.6061 118.664 56.1012Z" fill="#5BB3FD"/>
<path d="M116.547 36.9052C117.063 38.1606 118.918 40.0594 121.434 40.3379C123.262 40.5459 126.021 39.9339 128.827 35.8812C134.006 28.4037 131.186 20.4946 130.916 19.7845C130.908 20.012 130.932 20.3063 131.005 20.6947C131.497 23.3036 130.985 32.9742 125.702 36.607C120.419 40.2399 116.232 39.4592 116.528 29.5022C116.528 29.5022 115.543 33.3076 116.428 36.7483C116.478 36.7914 116.52 36.8424 116.547 36.9091V36.9052Z" fill="#EDFF4A"/>
<path d="M133.233 20.6515C132.775 20.1454 132.267 19.6472 131.84 19.3765C132.421 19.8316 134.314 21.6951 134.422 26.7873C134.503 30.4908 133.979 35.8891 130.893 39.4513C132.748 37.78 133.871 35.7753 134.276 34.7513C137.904 25.4731 133.233 20.6476 133.233 20.6476V20.6515Z" fill="#EDFF4A"/>
<path d="M123.57 42.1309C132.521 41.2207 133.663 32.1386 133.548 26.807C133.486 23.9509 132.848 22.2326 132.259 21.2361C132.971 24.2452 133.663 30.4477 129.546 36.3952C126.829 40.3184 124.082 41.2638 122.061 41.2638C121.811 41.2638 121.569 41.2481 121.342 41.2246C120.134 41.0912 119.037 40.6087 118.117 39.981C118.918 40.8441 120.007 41.5228 121.48 41.8837C122.15 42.0485 122.793 42.1426 123.412 42.1819C123.462 42.1544 123.516 42.1387 123.574 42.1309H123.57Z" fill="#EDFF4A"/>
<path d="M155.963 72.2137C145.662 73.0768 132.17 72.9238 117.913 71.7782C103.498 70.6209 90.0261 68.5848 79.9748 66.0504C72.7443 64.2261 64.1899 61.3505 64.4747 58.0079C64.4901 57.8196 64.6632 57.6784 64.8557 57.6941C65.0519 57.7098 65.1943 57.8745 65.1789 58.0668C64.9942 60.2402 70.5893 62.9746 80.1518 65.3874C90.1646 67.9139 103.598 69.9422 117.971 71.0956C132.186 72.2372 145.639 72.3902 155.898 71.5311C156.013 71.5232 156.129 71.5114 156.24 71.5036C166.08 70.6484 172.064 68.8437 172.252 66.6742C172.268 66.4859 172.441 66.3446 172.633 66.3603C172.829 66.376 172.972 66.5408 172.956 66.733C172.672 70.0756 163.744 71.5468 156.302 72.1941C156.186 72.2059 156.071 72.2137 155.955 72.2215L155.963 72.2137Z" fill="#2CE69D"/>
<path d="M124.371 50.6794C124.371 50.6794 126.187 61.6447 131.035 60.9581C135.884 60.2716 133.637 48.2314 132.455 45.3635C132.455 45.3635 128.627 49.0748 124.371 50.6794Z" fill="white"/>
<path d="M124.594 50.5774C124.594 50.5774 125.894 57.2271 128.73 57.3997C131.567 57.5724 133.579 54.8772 132.455 45.3596C132.455 45.3596 130.093 48.6276 124.594 50.5774Z" fill="#2CE69D"/>
<path d="M111.056 50.0635C111.056 50.0635 108.22 63.0217 113.065 64.6263C117.91 66.2308 119.922 52.0133 119.922 52.0133C119.922 52.0133 114.72 53.0451 111.056 50.0635Z" fill="white"/>
<path d="M112.003 50.9776C112.003 50.9776 110.133 59.1456 112.684 60.9817C114.516 62.2999 117.471 61.5545 119.926 52.0094C119.926 52.0094 115.462 53.3864 112.007 50.9776H112.003Z" fill="#2CE69D"/>
<path d="M132.786 45.2341L132.586 44.7515L132.205 45.1203C132.174 45.1517 129.385 47.8234 125.987 49.5692C125.625 49.7418 125.275 49.9066 124.948 50.0478C124.894 50.0713 124.84 50.0949 124.79 50.1184C121.842 51.4013 120.361 51.5621 120.345 51.5661L120.334 51.7269L120.326 51.7073L120.345 51.5818L120.28 51.5935L120.272 51.5739L120.253 51.5975L119.853 51.6759C119.803 51.6877 114.773 52.6371 111.287 49.8006L110.833 49.4319L110.71 49.9929C110.59 50.5343 107.866 63.2689 112.953 64.9519C113.246 65.05 113.534 65.0971 113.823 65.0971C114.3 65.0971 114.766 64.9637 115.216 64.693C118.752 62.5784 120.215 52.488 120.276 52.0604L120.299 51.8878C120.299 51.8878 120.315 51.8917 120.33 51.8917C120.349 51.8917 120.376 51.8917 120.399 51.8917C120.846 51.8603 122.116 51.5739 124.032 50.8089C124.182 51.6798 125.944 61.3347 130.593 61.3347C130.754 61.3347 130.916 61.323 131.082 61.2994C132.044 61.1621 132.809 60.6246 133.356 59.7027C135.545 56.0189 133.652 47.3604 132.775 45.238L132.786 45.2341ZM114.843 64.1045C114.304 64.4262 113.761 64.489 113.18 64.2967C109.228 62.9864 110.833 53.1196 111.295 50.6755C111.518 50.8324 111.749 50.9501 111.98 51.0835C111.776 52.0329 110.39 59.1103 114.25 59.0593C116.559 59.0279 118.121 56.7603 119.052 54.7674C118.371 57.9334 117.001 62.8099 114.843 64.1045ZM132.748 59.3575C132.309 60.0989 131.732 60.5109 130.985 60.6168C127.237 61.1504 125.375 53.7827 124.871 51.3778C125.413 52.7391 126.795 55.3323 129.381 54.9949C132.471 54.5869 132.313 49.0513 132.401 46.2816C133.337 49.2632 134.537 56.3445 132.748 59.3575Z" fill="black"/>
<path d="M115.728 52.4135C115.728 52.4135 114.958 53.6179 115.431 54.5359C115.905 55.4539 116.967 55.1675 117.44 54.7634C118.148 54.1632 118.798 52.4684 118.564 52.2997L115.728 52.4135Z" fill="white"/>
<path d="M129.084 48.4001C129.084 48.4001 129.084 50.3499 130.327 50.2361C131.57 50.1223 132.04 48.8041 131.509 46.5679L129.084 48.404V48.4001Z" fill="white"/>
<path d="M120.869 56.5995C120.869 56.5995 120.515 57.2311 120.926 57.8627C121.338 58.4944 122.639 58.9534 123.824 58.667C125.009 58.3806 125.952 57.694 126.071 57.0624C126.191 56.4308 125.836 54.2534 124.594 53.9082C123.351 53.5629 121.223 55.9718 120.869 56.6034V56.5995Z" fill="#FF7140"/>
<path d="M105.681 57.2861C105.681 57.2861 103.968 57.7451 104.322 59.9224C104.676 62.0998 105.68 65.4855 108.755 66.686C111.83 67.8904 112.303 65.1363 112.303 64.0496C112.303 62.9629 109.821 56.0817 105.684 57.2861H105.681Z" fill="#FF7140"/>
<path d="M125.894 57.9726C125.864 57.9726 125.829 57.9687 125.794 57.9608C125.606 57.9098 125.498 57.7176 125.552 57.5371C125.556 57.5175 126.075 55.7325 125.448 54.787C125.248 54.4849 124.952 54.3044 124.536 54.2456C122.508 53.9474 120.784 57.184 120.769 57.2154C120.68 57.3841 120.469 57.4508 120.292 57.3645C120.118 57.2782 120.049 57.0703 120.138 56.9016C120.218 56.7486 122.123 53.1824 124.644 53.563C125.263 53.6532 125.733 53.9435 126.044 54.4143C126.841 55.6226 126.256 57.6391 126.229 57.7254C126.183 57.8745 126.044 57.9726 125.891 57.9726H125.894Z" fill="black"/>
<path d="M122.539 63.5866C122.3 63.5866 122.146 63.5121 122.112 63.4886C121.942 63.3944 121.885 63.1826 121.985 63.0178C122.081 62.8609 122.285 62.802 122.454 62.8844C122.489 62.8962 122.985 63.0295 123.84 61.8997C124.844 60.5697 125.914 59.279 127.041 59.4242C127.661 59.5026 128.165 60.0166 128.538 60.9463C128.607 61.1229 128.519 61.323 128.334 61.3897C128.153 61.4564 127.945 61.37 127.876 61.1935C127.691 60.7266 127.376 60.1617 126.949 60.1068C126.145 60.0126 124.975 61.5584 124.413 62.3077C123.612 63.3709 122.951 63.5866 122.543 63.5866H122.539Z" fill="black"/>
<path d="M112.357 66.6898C112.357 66.6898 112.349 66.6898 112.345 66.6898C112.149 66.682 111.995 66.525 112.003 66.3328C112.126 63.1315 111.403 60.7031 109.859 59.1063C108.12 57.3095 105.931 57.2311 105.907 57.2311C105.711 57.2271 105.557 57.0663 105.561 56.878C105.565 56.6897 105.734 56.5327 105.927 56.5445C106.027 56.5445 108.436 56.6308 110.379 58.6356C112.061 60.3696 112.846 62.9706 112.715 66.3603C112.707 66.5446 112.549 66.6898 112.361 66.6898H112.357Z" fill="black"/>
<path d="M107.866 58.4904C107.866 58.4904 106.981 57.5175 105.796 57.9726C104.615 58.4316 105.704 59.585 106.504 60.0519C107.17 60.4403 109.563 60.2676 107.862 58.4904H107.866Z" fill="white"/>
<path d="M119.607 69.2242C120.6 68.059 121.843 66.5996 122.935 65.5364C124.225 64.281 126.903 63.4964 127.442 65.6816C127.442 65.6816 128.188 67.7765 123.478 73.6927C123.478 73.6927 127.041 73.6456 126.614 76.8155C126.614 76.8155 127.957 76.3918 128.846 77.2784C129.731 78.1572 129.077 79.9266 129.077 79.9266C129.077 79.9266 127.426 84.5559 121.946 86.9608C116.463 89.3618 111.807 84.1597 111.807 84.1597C110.46 82.4649 110.04 80.5033 110.129 78.3691C110.217 76.2427 110.968 74.2066 111.083 72.0842C111.099 71.837 111.026 71.5938 110.926 71.3662C110.772 71.0132 110.664 70.6287 110.598 70.2599C110.51 69.7695 110.552 69.2477 110.779 68.8083C111.064 68.2512 111.622 67.8785 112.211 67.6902C113.558 67.2587 115.143 67.7687 116.005 68.9064C116.867 70.0441 116.948 71.7389 116.194 72.9551C116.194 72.9551 119.064 69.8637 119.607 69.2203V69.2242Z" fill="#FFC20B"/>
</g>
<path d="M124.186 86.4548L132.567 79.4205L133.121 83.3633L140.301 77.3256H121.042C118.979 77.3256 117.305 79.0321 117.305 81.135V86.7922L124.186 81.4135V86.4508V86.4548Z" fill="#2CE69D"/>
<path d="M154.013 96.2312V81.1349C154.013 79.0321 152.339 77.3255 150.276 77.3255H140.298L133.117 82.0568L132.563 79.4165L124.182 84.7638V81.4134L117.302 86.7921V96.2273C117.302 96.2273 117.302 96.2469 117.302 96.2548H154.009C154.009 96.2548 154.009 96.2352 154.009 96.2273L154.013 96.2312Z" fill="#F878F3"/>
<path d="M117.306 96.2587C117.321 98.3498 118.987 100.037 121.038 100.037H150.276C152.331 100.037 153.993 98.3459 154.009 96.2587H117.302H117.306Z" fill="#FF0AD1"/>
<path d="M143.011 87.0236C141.614 87.0236 140.298 86.3331 139.482 85.1758C139.374 85.0228 139.409 84.8109 139.559 84.7011C139.709 84.5912 139.917 84.6265 140.025 84.7795C140.714 85.7603 141.829 86.3449 143.011 86.3449C144.192 86.3449 145.258 85.7956 145.958 84.8345C146.07 84.6854 146.278 84.654 146.424 84.7638C146.57 84.8776 146.601 85.0895 146.493 85.2385C145.678 86.3566 144.377 87.0236 143.011 87.0236Z" fill="black"/>
<path d="M140.421 85.8976C140.352 86.2075 140.313 86.5331 140.313 86.8705C140.313 88.8086 141.522 90.3818 143.011 90.3818C144.5 90.3818 145.709 88.8086 145.709 86.8705C145.709 86.5331 145.67 86.2075 145.601 85.8976C144.9 86.5018 144 86.8705 143.011 86.8705C142.022 86.8705 141.118 86.5057 140.421 85.8976Z" fill="#CE2146"/>
<path d="M143.011 90.7192C141.341 90.7192 139.979 88.993 139.979 86.8706C139.979 86.5214 140.017 86.1683 140.094 85.8231C140.121 85.7054 140.202 85.6152 140.313 85.5759C140.425 85.5367 140.544 85.5603 140.633 85.6387C141.295 86.2115 142.137 86.5293 143.007 86.5293C143.877 86.5293 144.719 86.2115 145.381 85.6387C145.47 85.5603 145.593 85.5367 145.701 85.5759C145.812 85.6152 145.893 85.7093 145.92 85.8231C145.997 86.1683 146.035 86.5214 146.035 86.8706C146.035 88.993 144.677 90.7192 143.003 90.7192H143.011ZM140.663 86.5057C140.652 86.6274 140.648 86.749 140.648 86.8706C140.648 88.6203 141.71 90.0405 143.015 90.0405C144.319 90.0405 145.381 88.6164 145.381 86.8706C145.381 86.749 145.377 86.6274 145.366 86.5057C144.669 86.9647 143.854 87.2119 143.019 87.2119C142.183 87.2119 141.368 86.9647 140.671 86.5057H140.663Z" fill="black"/>
<path d="M142.891 89.4521C142.707 89.4521 142.557 89.2991 142.557 89.1107V86.8706C142.557 86.6823 142.707 86.5293 142.891 86.5293C143.076 86.5293 143.226 86.6823 143.226 86.8706V89.1107C143.226 89.2991 143.076 89.4521 142.891 89.4521Z" fill="black"/>
<path d="M145.847 82.1392C146.542 82.1392 147.105 81.5649 147.105 80.8564C147.105 80.1479 146.542 79.5735 145.847 79.5735C145.152 79.5735 144.588 80.1479 144.588 80.8564C144.588 81.5649 145.152 82.1392 145.847 82.1392Z" fill="black"/>
<path d="M140.005 82.0451C140.7 82.0451 141.264 81.4708 141.264 80.7622C141.264 80.0537 140.7 79.4794 140.005 79.4794C139.31 79.4794 138.747 80.0537 138.747 80.7622C138.747 81.4708 139.31 82.0451 140.005 82.0451Z" fill="black"/>
<path d="M143.369 82.7316H142.784C142.448 82.7316 142.176 83.0091 142.176 83.3515V83.9478C142.176 84.2901 142.448 84.5677 142.784 84.5677H143.369C143.704 84.5677 143.977 84.2901 143.977 83.9478V83.3515C143.977 83.0091 143.704 82.7316 143.369 82.7316Z" fill="#FF0AD1"/>
<path d="M132.886 84.9207C132.886 84.6196 132.647 84.3754 132.351 84.3754C132.056 84.3754 131.816 84.6196 131.816 84.9207V85.6661C131.816 85.9673 132.056 86.2115 132.351 86.2115C132.647 86.2115 132.886 85.9673 132.886 85.6661V84.9207Z" fill="#FF0AD1"/>
<path d="M135.091 84.9207C135.091 84.6196 134.852 84.3754 134.556 84.3754C134.261 84.3754 134.021 84.6196 134.021 84.9207V85.6661C134.021 85.9673 134.261 86.2115 134.556 86.2115C134.852 86.2115 135.091 85.9673 135.091 85.6661V84.9207Z" fill="#FF0AD1"/>
<path d="M137.292 84.9207C137.292 84.6196 137.053 84.3754 136.758 84.3754C136.462 84.3754 136.223 84.6196 136.223 84.9207V85.6661C136.223 85.9673 136.462 86.2115 136.758 86.2115C137.053 86.2115 137.292 85.9673 137.292 85.6661V84.9207Z" fill="#FF0AD1"/>
<path d="M132.886 87.5925C132.886 87.2913 132.647 87.0472 132.351 87.0472C132.056 87.0472 131.816 87.2913 131.816 87.5925V88.3379C131.816 88.6391 132.056 88.8832 132.351 88.8832C132.647 88.8832 132.886 88.6391 132.886 88.3379V87.5925Z" fill="#FF0AD1"/>
<path d="M135.091 87.5925C135.091 87.2913 134.852 87.0472 134.556 87.0472C134.261 87.0472 134.021 87.2913 134.021 87.5925V88.3379C134.021 88.6391 134.261 88.8832 134.556 88.8832C134.852 88.8832 135.091 88.6391 135.091 88.3379V87.5925Z" fill="#FF0AD1"/>
<path d="M137.292 87.5925C137.292 87.2913 137.053 87.0472 136.758 87.0472C136.462 87.0472 136.223 87.2913 136.223 87.5925V88.3379C136.223 88.6391 136.462 88.8832 136.758 88.8832C137.053 88.8832 137.292 88.6391 137.292 88.3379V87.5925Z" fill="#FF0AD1"/>
<path d="M132.886 90.2641C132.886 89.963 132.647 89.7188 132.351 89.7188C132.056 89.7188 131.816 89.963 131.816 90.2641V91.0095C131.816 91.3107 132.056 91.5548 132.351 91.5548C132.647 91.5548 132.886 91.3107 132.886 91.0095V90.2641Z" fill="#FF0AD1"/>
<path d="M135.091 90.2641C135.091 89.963 134.852 89.7188 134.556 89.7188C134.261 89.7188 134.021 89.963 134.021 90.2641V91.0095C134.021 91.3107 134.261 91.5548 134.556 91.5548C134.852 91.5548 135.091 91.3107 135.091 91.0095V90.2641Z" fill="#FF0AD1"/>
<path d="M137.292 90.2641C137.292 89.963 137.053 89.7188 136.758 89.7188C136.462 89.7188 136.223 89.963 136.223 90.2641V91.0095C136.223 91.3107 136.462 91.5548 136.758 91.5548C137.053 91.5548 137.292 91.3107 137.292 91.0095V90.2641Z" fill="#FF0AD1"/>
<path d="M122.219 97.8751C120.68 97.8751 119.426 96.5961 119.426 95.0269C119.426 93.4576 120.68 92.1786 122.219 92.1786C123.759 92.1786 125.013 93.4576 125.013 95.0269C125.013 96.5961 123.759 97.8751 122.219 97.8751ZM122.219 92.8574C121.046 92.8574 120.091 93.8303 120.091 95.0269C120.091 96.2234 121.046 97.1964 122.219 97.1964C123.393 97.1964 124.347 96.2234 124.347 95.0269C124.347 93.8303 123.393 92.8574 122.219 92.8574Z" fill="#FF0AD1"/>
<path d="M129.511 97.8751C127.972 97.8751 126.718 96.5961 126.718 95.0269C126.718 93.4576 127.972 92.1786 129.511 92.1786C131.051 92.1786 132.305 93.4576 132.305 95.0269C132.305 96.5961 131.051 97.8751 129.511 97.8751ZM129.511 92.8574C128.338 92.8574 127.383 93.8303 127.383 95.0269C127.383 96.2234 128.338 97.1964 129.511 97.1964C130.685 97.1964 131.639 96.2234 131.639 95.0269C131.639 93.8303 130.685 92.8574 129.511 92.8574Z" fill="#FF0AD1"/>
<path d="M141.652 97.8751C140.113 97.8751 138.858 96.5961 138.858 95.0269C138.858 93.4576 140.113 92.1786 141.652 92.1786C143.191 92.1786 144.446 93.4576 144.446 95.0269C144.446 96.5961 143.191 97.8751 141.652 97.8751ZM141.652 92.8574C140.478 92.8574 139.524 93.8303 139.524 95.0269C139.524 96.2234 140.478 97.1964 141.652 97.1964C142.826 97.1964 143.78 96.2234 143.78 95.0269C143.78 93.8303 142.826 92.8574 141.652 92.8574Z" fill="#FF0AD1"/>
<path d="M148.945 97.8751C147.405 97.8751 146.151 96.5961 146.151 95.0269C146.151 93.4576 147.405 92.1786 148.945 92.1786C150.484 92.1786 151.738 93.4576 151.738 95.0269C151.738 96.5961 150.484 97.8751 148.945 97.8751ZM148.945 92.8574C147.771 92.8574 146.817 93.8303 146.817 95.0269C146.817 96.2234 147.771 97.1964 148.945 97.1964C150.118 97.1964 151.073 96.2234 151.073 95.0269C151.073 93.8303 150.118 92.8574 148.945 92.8574Z" fill="#FF0AD1"/>
<path d="M151.469 86.2115H148.806C148.363 86.2115 148.009 86.5763 148.009 87.0236V89.8483C148.009 90.2994 148.367 90.6604 148.806 90.6604H151.469C151.911 90.6604 152.265 90.2955 152.265 89.8483V87.0236C152.265 86.5724 151.907 86.2115 151.469 86.2115ZM150.137 89.6246C149.495 89.6246 148.971 89.0911 148.971 88.4359C148.971 87.7808 149.495 87.2472 150.137 87.2472C150.78 87.2472 151.303 87.7808 151.303 88.4359C151.303 89.0911 150.78 89.6246 150.137 89.6246Z" fill="white"/>
<path d="M123.22 86.2115H120.557C120.115 86.2115 119.761 86.5763 119.761 87.0236V89.8483C119.761 90.2994 120.119 90.6604 120.557 90.6604H123.22C123.663 90.6604 124.017 90.2955 124.017 89.8483V87.0236C124.017 86.5724 123.659 86.2115 123.22 86.2115ZM121.889 89.6246C121.246 89.6246 120.723 89.0911 120.723 88.4359C120.723 87.7808 121.246 87.2472 121.889 87.2472C122.531 87.2472 123.055 87.7808 123.055 88.4359C123.055 89.0911 122.531 89.6246 121.889 89.6246Z" fill="white"/>
<path d="M93.7049 26.0302L91.4615 24.5394C91.3268 24.4491 91.2421 24.3001 91.2421 24.1392L91.2267 21.4871C91.2267 21.0831 90.7457 20.8555 90.4186 21.1027L88.2753 22.7269C88.1444 22.8249 87.9751 22.8563 87.8173 22.8053L85.2314 22.0011C84.8351 21.8795 84.4656 22.2522 84.608 22.6327L85.5277 25.1278C85.5854 25.2808 85.5585 25.4495 85.4623 25.579L83.8807 27.7328C83.6383 28.0624 83.8884 28.5214 84.304 28.5057L87.0169 28.4233C87.1824 28.4194 87.3402 28.4939 87.4364 28.6234L89.0449 30.7576C89.2912 31.0832 89.8145 30.993 89.9299 30.6046L90.688 28.0584C90.7342 27.9054 90.8535 27.7799 91.0113 27.7289L93.5856 26.8972C93.9781 26.7716 94.0513 26.2577 93.7088 26.0262L93.7049 26.0302Z" fill="#FFC20B"/>
<path d="M106.234 84.3558C106.092 84.1636 106.057 83.9046 106.134 83.6692L107.443 79.7775C107.643 79.1811 107.104 78.6358 106.531 78.8516L102.782 80.2679C102.555 80.3542 102.305 80.3189 102.113 80.1776L98.9806 77.8394C98.4996 77.4824 97.8107 77.863 97.8107 78.4867V82.5551C97.8146 82.8022 97.6991 83.0376 97.499 83.1867L94.2513 85.6308C93.7548 86.0035 93.8664 86.7882 94.4398 86.9569L98.1917 88.0514C98.4187 88.1181 98.5958 88.2986 98.665 88.53L99.7925 92.3787C99.9657 92.9671 100.728 93.0691 101.082 92.5513L103.394 89.1617C103.537 88.9537 103.764 88.8321 104.002 88.8282L107.947 88.7615C108.551 88.7497 108.909 88.0318 108.555 87.5414L106.234 84.3519V84.3558Z" fill="#FFC20B"/>
<path d="M152.015 40.1535L150.322 39.2669C150.218 39.212 150.149 39.1139 150.137 39.0001L149.926 37.1327C149.895 36.8463 149.541 36.7207 149.325 36.9208L147.936 38.2194C147.851 38.2979 147.732 38.3332 147.617 38.3096L145.735 37.9291C145.446 37.8702 145.215 38.1605 145.342 38.4195L146.178 40.1104C146.228 40.2124 146.224 40.334 146.166 40.4321L145.215 42.0641C145.069 42.3152 145.281 42.6173 145.573 42.578L147.478 42.323C147.594 42.3073 147.709 42.3505 147.79 42.4329L149.083 43.8217C149.279 44.0335 149.641 43.9315 149.695 43.6491L150.037 41.8012C150.056 41.6875 150.133 41.5933 150.241 41.5462L151.992 40.7734C152.261 40.6557 152.273 40.2869 152.015 40.1535Z" fill="#FFC20B"/>
</svg>
