<svg width="160" height="106" viewBox="0 0 160 106" fill="none" xmlns="http://www.w3.org/2000/svg">
<g clip-path="url(#clip0_25209_119449)">
<mask id="mask0_25209_119449" style="mask-type:luminance" maskUnits="userSpaceOnUse" x="0" y="0" width="160" height="106">
<path d="M149.198 0H10.8017C4.83607 0 0 4.92899 0 11.0092V94.9908C0 101.071 4.83607 106 10.8017 106H149.198C155.164 106 160 101.071 160 94.9908V11.0092C160 4.92899 155.164 0 149.198 0Z" fill="white"/>
</mask>
<g mask="url(#mask0_25209_119449)">
<path d="M126.307 67.5688C126.307 67.5688 122.777 64.6105 119.243 58.8548C115.713 53.0952 110.093 43.1374 110.736 34.2665C110.736 34.2665 86.4997 29.2877 85.2179 28.8208C83.9321 28.3539 81.2067 26.7963 84.2555 24.3088C87.3043 21.8174 102.714 8.74444 102.714 8.74444C102.714 8.74444 94.5298 -8.99743 93.8869 -10.0881C93.244 -11.1789 91.8005 -15.3809 97.4169 -13.9802C103.033 -12.5795 144.75 -5.61933 144.75 -5.61933C144.75 -5.61933 187.299 -4.47368 189.381 -5.10928C192.191 -5.96459 193.635 -3.86555 191.067 -1.29568C188.692 1.07801 174.614 16.9915 174.614 16.9915C174.614 16.9915 189.862 27.5731 191.467 28.9738C193.073 30.3744 196.445 32.3989 189.701 34.4195C182.96 36.444 162.897 41.8898 162.897 41.8898C162.897 41.8898 158.885 60.8754 148.292 70.6801C146.586 72.0729 144.438 73.3245 145.562 70.2132C146.686 67.1019 147.968 55.1158 142.19 49.67C136.412 44.2242 131.115 44.2242 129.51 56.5164C129.348 59.6277 129.429 64.842 130.392 67.5649C130.392 67.5649 130.646 68.4633 130.915 69.201C131.25 70.1269 131.539 70.9037 130.553 70.6016C128.786 70.0563 126.3 67.5649 126.3 67.5649L126.307 67.5688Z" fill="#EDFF4A"/>
<path d="M162.901 41.9761C162.901 41.9761 158.889 60.9617 148.296 70.7664C146.59 72.1592 144.442 73.4108 145.566 70.2995C146.69 67.1882 147.972 55.202 142.194 49.7563C136.416 44.3105 131.119 44.3105 129.514 56.6027C129.352 59.714 129.433 64.9283 130.395 67.6512C130.395 67.6512 130.65 68.5496 130.919 69.2873C131.254 70.2132 131.543 70.99 130.557 70.6879C128.79 70.1426 126.303 67.6512 126.303 67.6512C126.303 67.6512 122.774 64.6929 119.24 58.9372C115.71 53.1775 110.089 43.2198 110.732 34.3489C110.732 34.3489 121.499 25.2425 137.375 24.5049C157.477 23.5712 162.535 39.9123 162.893 41.9761H162.901Z" fill="#5BB3FD"/>
<path d="M128.401 38.6255C128.401 38.6255 123.994 38.6059 123.235 33.3955C122.477 28.1852 122.554 19.9655 126.869 18.5727C131.184 17.1799 134.133 20.5541 134.437 24.4422C134.741 28.3304 135.592 38.9158 128.401 38.6216V38.6255Z" fill="white"/>
<path d="M131.793 18.659C133.559 19.7968 134.726 21.9469 134.922 24.45C135.157 27.4475 135.704 34.4666 132.616 37.5583C131.535 38.6451 130.11 39.1591 128.382 39.0884C128.055 39.0767 123.539 38.8295 122.762 33.4583C121.861 27.2671 122.357 19.5339 126.719 18.1254C127.431 17.8939 128.132 17.7802 128.805 17.7802C129.883 17.7802 130.896 18.0744 131.796 18.6551L131.793 18.659ZM128.42 38.1586C129.883 38.2214 131.026 37.8094 131.923 36.9109C134.707 34.1213 134.183 27.3926 133.956 24.4775C133.787 22.3 132.778 20.4167 131.257 19.4358C130.049 18.6551 128.582 18.5099 127.019 19.0121C122.958 20.3265 123.027 28.6285 123.712 33.3288C124.398 38.0487 128.228 38.1547 128.405 38.1547H128.424L128.42 38.1586Z" fill="black"/>
<path d="M128.628 35.8908C128.628 35.8908 125.11 35.7614 124.921 31.4887C124.752 27.6398 124.436 21.4839 128.174 20.9228C132.562 20.2637 132.97 24.556 132.79 29.5074C132.659 33.1209 131.881 35.8202 128.628 35.8908Z" fill="#2CE69D"/>
<path d="M128.875 33.9644C128.875 33.9644 126.149 34.0742 126.018 30.6804C125.907 27.7889 125.887 23.8379 128.347 23.3593C131.361 22.7747 131.866 25.9998 131.681 29.5701C131.562 31.8732 131.242 33.7917 128.875 33.9605V33.9644Z" fill="black"/>
<path d="M127.112 31.6692C127.112 31.6692 126.084 31.6378 125.98 30.3078C125.876 28.9777 125.807 27.6163 126.839 27.3142C127.87 27.0121 128.586 27.7811 128.621 28.7423C128.655 29.7075 128.894 31.834 127.112 31.6692Z" fill="white"/>
<path d="M142.922 24.4657C142.922 24.4657 142.691 22.0332 140.123 20.5933C137.471 19.1063 137.205 20.0675 136.782 20.4167C136.358 20.7659 133.714 24.4422 136.058 26.4863C138.406 28.5304 141.875 26.9924 142.918 24.4618L142.922 24.4657Z" fill="#FF7140"/>
<path d="M137.301 19.2514C137.217 19.2514 137.132 19.2749 137.051 19.3181C135.735 20.091 134.33 22.3902 134.418 24.45C134.48 25.8585 135.207 26.9375 136.524 27.5652C139.657 29.0679 142.29 26.6314 143.245 25.1366C143.383 24.9169 143.314 24.6305 143.087 24.4931C142.86 24.3558 142.564 24.4264 142.425 24.6422C142.333 24.7874 140.081 28.2283 136.947 26.7256C135.95 26.2469 135.423 25.4662 135.377 24.4068C135.303 22.7511 136.481 20.7384 137.544 20.1146C137.771 19.9812 137.844 19.6948 137.706 19.475C137.613 19.3299 137.455 19.2514 137.294 19.2514H137.301Z" fill="#231815"/>
<path d="M139.034 17.3799C138.375 17.3799 137.675 17.478 136.936 17.6742C136.678 17.7409 136.528 17.9998 136.597 18.247C136.666 18.4942 136.932 18.6433 137.19 18.5727C138.91 18.1136 140.354 18.2627 141.474 19.0082C143.618 20.4363 143.965 23.6222 143.969 23.6535C143.996 23.9086 144.227 24.0969 144.496 24.0734C144.762 24.0498 144.954 23.8223 144.927 23.5633C144.912 23.4142 144.538 19.9223 142.025 18.2431C141.162 17.6664 140.162 17.3799 139.038 17.3799H139.034Z" fill="black"/>
<path d="M125.664 14.7003C125.43 14.7003 125.222 14.869 125.187 15.1004C124.637 18.765 123.386 21.2642 121.476 22.5315C119.659 23.736 117.846 23.3554 117.831 23.3515C117.573 23.2926 117.315 23.4496 117.253 23.7007C117.192 23.9518 117.353 24.2029 117.611 24.2617C117.7 24.2813 119.829 24.7482 122 23.3201C124.155 21.9037 125.549 19.1848 126.142 15.2378C126.18 14.9827 125.999 14.7473 125.734 14.7081C125.711 14.7081 125.688 14.7042 125.664 14.7042V14.7003Z" fill="black"/>
<path d="M155.498 26.7806C155.802 30.6687 156.587 39.2297 149.396 38.9354C149.396 38.9354 144.989 38.9158 144.23 33.7055C143.472 28.4951 143.549 20.2755 147.864 18.8826C147.864 18.8826 148.411 18.5884 150.243 18.5884C150.243 18.5884 150.066 25.6859 155.078 26.7217L155.498 26.7806Z" fill="white"/>
<path d="M150.725 18.6041C150.725 18.6708 150.609 25.325 155.144 26.2627L155.948 26.3725L155.991 26.9336C156.218 29.8134 156.637 35.1689 153.989 37.8251C152.865 38.9511 151.317 39.4808 149.389 39.4023C149.339 39.4023 144.554 39.3199 143.749 33.7722C142.852 27.5967 143.345 19.8871 147.676 18.4511C147.876 18.3608 148.561 18.1254 150.24 18.1254H150.732L150.721 18.6041H150.725ZM148.099 19.2946L148.018 19.3299C143.957 20.6443 144.026 28.9463 144.712 33.6466C145.397 38.3744 149.239 38.4725 149.42 38.4725C151.098 38.5392 152.368 38.1154 153.304 37.1777C155.594 34.8786 155.267 29.9625 155.051 27.1925L154.982 27.1808C150.378 26.2313 149.831 20.7541 149.774 19.0671C148.534 19.1063 148.107 19.2946 148.103 19.2946H148.099Z" fill="black"/>
<path d="M149.169 21.2328C145.428 21.7938 145.743 27.9497 145.916 31.7987C146.105 36.0713 149.624 36.2008 149.624 36.2008C152.876 36.1262 153.581 33.372 153.712 29.7585L153.623 27.1925C153.623 27.1925 152.056 26.0429 151.094 24.7992C151.094 24.7992 149.97 23.3004 149.731 22.6021C149.489 21.8998 149.169 21.2328 149.169 21.2328Z" fill="#2CE69D"/>
<path d="M156.614 25.937C157.757 25.8782 159.159 24.964 159.655 24.5089C160.86 23.3985 160.918 21.9194 160.679 20.452C160.44 18.9846 159.428 17.4467 158.092 16.7169C157.157 16.2068 155.594 15.8694 154.389 16.1911C153.123 16.5286 151.714 17.5408 151.44 18.7885C151.167 20.0361 151.537 22.4177 152.253 23.4848C152.253 23.4848 153.55 26.0939 156.618 25.937H156.614Z" fill="#FF7140"/>
<path d="M155.467 25.2661C155.467 25.2661 154.324 25.0307 154.054 24.0695C153.785 23.1082 154.308 22.0567 155.482 22.3785C156.657 22.7002 157.257 23.2966 157.392 23.9086C157.5 24.3951 156.922 25.5369 155.467 25.2661Z" fill="white"/>
<path d="M152.353 53.6523C151.725 50.7686 147.837 41.6309 138.029 42.5058C128.216 43.3807 129.498 56.8107 129.498 56.8107C131.104 44.5146 136.404 44.3341 142.182 49.7838C147.96 55.2296 146.675 67.2157 145.555 70.327C144.434 73.4383 146.579 72.1867 148.284 70.7939C148.284 70.7939 154.986 65.7366 152.357 53.6563L152.353 53.6523Z" fill="#EDFF4A"/>
<path d="M137.405 43.3689C134.168 43.3689 131.257 45.2953 130.106 47.1825C129.972 47.4062 130.049 47.6926 130.276 47.822C130.503 47.9554 130.799 47.8809 130.934 47.6573C131.835 46.1781 134.549 44.1615 137.736 44.3105C141.004 44.4636 143.838 46.8451 145.932 51.1962C151.063 61.8562 145.331 71.4412 145.273 71.5393C145.139 71.759 145.212 72.0494 145.443 72.1788C145.674 72.3122 145.966 72.2377 146.101 72.0141C146.163 71.916 152.149 61.9072 146.806 50.7999C143.957 44.8794 140.327 43.4945 137.786 43.3728C137.659 43.365 137.532 43.365 137.405 43.365V43.3689Z" fill="#5BB3FD"/>
<path d="M140.793 41.5877C140.581 41.5877 140.385 41.725 140.327 41.9369C140.258 42.188 140.412 42.443 140.67 42.5097C151.548 45.3071 151.152 56.7362 149.951 63.3001C148.727 69.9778 145.736 71.2647 145.705 71.2765C145.459 71.3746 145.343 71.6492 145.447 71.8886C145.551 72.1279 145.832 72.2377 146.078 72.1397C146.221 72.0808 149.585 70.637 150.902 63.4649C152.164 56.5871 152.542 44.597 140.92 41.6112C140.878 41.5995 140.835 41.5956 140.797 41.5956L140.793 41.5877Z" fill="#5BB3FD"/>
<path d="M149.243 33.9644C149.243 33.9644 146.61 34.0703 146.483 30.8453C146.375 28.0988 146.244 24.3127 148.731 23.8929C151.487 23.4299 152.134 26.4039 151.953 29.7938C151.837 31.9791 151.529 33.8035 149.243 33.9644Z" fill="black"/>
<path d="M147.576 31.6692C147.576 31.6692 146.548 31.6378 146.444 30.3078C146.34 28.9777 146.271 27.6163 147.302 27.3142C148.334 27.0121 149.05 27.7811 149.085 28.7423C149.119 29.7036 149.358 31.834 147.576 31.6692Z" fill="white"/>
<path d="M127.115 18.8788C123.982 19.3496 123.05 22.8532 122.839 26.6158C122.177 26.8355 121.534 27.0631 120.902 27.2985C121.068 22.3549 122.234 17.5056 125.622 16.407C127.647 15.7518 129.548 15.944 131.115 16.9563C133.086 18.2275 134.395 20.6718 134.614 23.4927C134.626 23.6261 134.637 23.7792 134.649 23.9204C134.068 23.991 133.498 24.0813 132.928 24.1676C132.432 20.6325 130.942 18.302 127.119 18.8788H127.115Z" fill="white"/>
<path d="M131.978 39.6142C130.815 40.7795 129.333 41.3091 127.435 41.2307H127.412C127.185 41.2307 122.219 41.0934 121.33 34.9728C121.015 32.8031 120.807 30.0371 120.899 27.3024C121.53 27.067 122.173 26.8434 122.835 26.6197C122.72 28.6795 122.816 30.8178 122.893 32.5834C123.139 38.1272 127.701 38.292 127.701 38.292C131.92 38.1978 132.925 34.702 133.098 30.0135C133.175 27.9066 133.163 25.8978 132.921 24.1715C133.491 24.0852 134.06 23.9949 134.642 23.9243C134.946 27.8949 135.454 36.1263 131.974 39.6142H131.978Z" fill="white"/>
<path d="M125.426 15.8341C121.68 17.0465 120.406 22.2215 120.264 27.5417C120.052 27.6241 119.836 27.6987 119.628 27.781C119.682 25.1955 120.01 22.7159 120.691 20.6286C121.73 19.53 122.589 18.1215 123.247 16.3991C123.828 15.893 124.483 15.5006 125.229 15.2613C126.153 14.9631 127.058 14.814 127.932 14.814C129.329 14.814 130.638 15.1946 131.808 15.9479C133.579 17.0896 134.876 19.016 135.496 21.3309C135.307 21.99 135.211 22.6609 135.223 23.3201C134.776 18.3334 130.973 14.045 125.426 15.8341Z" fill="black"/>
<path d="M135.253 23.6968C135.257 23.7439 135.273 23.7831 135.277 23.8302C135.273 23.8302 135.269 23.8302 135.265 23.8302C135.265 23.787 135.257 23.7399 135.253 23.6968Z" fill="black"/>
<path opacity="0.47" d="M135.253 23.6968C135.257 23.7439 135.273 23.7831 135.277 23.8302C135.273 23.8302 135.269 23.8302 135.265 23.8302C135.265 23.787 135.257 23.7399 135.253 23.6968Z" fill="white"/>
<path d="M120.714 35.0551C121.696 41.8113 127.412 41.8349 127.412 41.8349C136.516 42.2076 135.677 29.1386 135.265 23.834C135.269 23.834 135.273 23.834 135.277 23.834C135.369 24.6227 135.608 25.3328 136.031 25.9292C136.27 30.3823 136.177 37.1503 132.875 40.4577C131.47 41.8662 129.622 42.5332 127.385 42.4391C126.962 42.4273 121.107 42.1056 120.098 35.1414C119.756 32.7756 119.575 30.2371 119.629 27.785C119.836 27.7026 120.052 27.6241 120.264 27.5456C120.194 30.1704 120.395 32.8266 120.718 35.0591L120.714 35.0551Z" fill="black"/>
<path d="M134.645 23.9204C134.634 23.7752 134.622 23.6222 134.611 23.4927C134.391 20.6717 133.082 18.2274 131.111 16.9562C129.541 15.944 127.643 15.7557 125.618 16.4069C122.227 17.5016 121.064 22.3549 120.899 27.2985C120.683 27.3769 120.471 27.4593 120.26 27.5417C120.402 22.2254 121.676 17.0465 125.422 15.8341C130.969 14.0411 134.772 18.3294 135.219 23.3201C135.219 23.3672 135.211 23.4142 135.211 23.4613C135.211 23.5437 135.246 23.6143 135.25 23.6967C135.25 23.7399 135.257 23.787 135.261 23.8301C135.049 23.8537 134.853 23.8929 134.641 23.9204H134.645Z" fill="black"/>
<path d="M121.334 34.9688C122.223 41.0894 127.189 41.2228 127.416 41.2267H127.439C129.337 41.3052 130.819 40.7755 131.982 39.6103C135.465 36.1184 134.953 27.8909 134.649 23.9204C134.857 23.8929 135.057 23.8537 135.269 23.8301C135.677 29.1347 136.52 42.2037 127.416 41.8309C127.416 41.8309 121.7 41.8074 120.718 35.0512C120.395 32.8188 120.194 30.1626 120.264 27.5378C120.475 27.4554 120.687 27.3769 120.903 27.2946C120.81 30.0292 121.018 32.7952 121.334 34.9649V34.9688Z" fill="black"/>
<path d="M127.116 18.8787C130.938 18.302 132.428 20.6325 132.925 24.1676C132.343 24.2578 131.758 24.3441 131.192 24.4461C130.607 22.6767 129.452 21.633 127.339 22.0411C125.614 22.3745 124.833 24.0342 124.498 26.0783C123.932 26.2509 123.385 26.4314 122.839 26.6158C123.051 22.8532 123.982 19.3496 127.116 18.8787Z" fill="#2CE69D"/>
<path d="M124.282 28.5893C124.151 29.2994 124.205 30.1783 124.271 31.0454C124.279 31.1317 124.298 31.1944 124.309 31.2729C124.309 31.3592 124.317 31.4495 124.317 31.5319C124.49 35.934 128.02 35.7888 128.02 35.7888C131.088 35.5691 131.504 33.0816 131.658 30.0959C131.766 27.9733 131.685 25.9488 131.188 24.4461C131.758 24.3402 132.339 24.2578 132.921 24.1675C133.163 25.8939 133.175 27.9027 133.098 30.0096C132.924 34.6942 131.92 38.19 127.701 38.2881C127.701 38.2881 123.139 38.1233 122.893 32.5794C122.816 30.8139 122.716 28.6756 122.835 26.6158C123.382 26.4314 123.928 26.2509 124.494 26.0783C124.363 26.8747 124.298 27.73 124.279 28.5893H124.282Z" fill="#2CE69D"/>
<path d="M127.339 22.045C129.452 21.6369 130.611 22.6766 131.192 24.45C128.833 24.8855 126.6 25.4427 124.498 26.0822C124.833 24.0381 125.611 22.3824 127.339 22.045Z" fill="black"/>
<path d="M131.662 30.0998C131.508 33.0856 131.092 35.5731 128.024 35.7928C128.024 35.7928 124.49 35.934 124.321 31.5358C124.321 31.4495 124.313 31.3632 124.313 31.2769C124.548 32.76 125.741 32.8188 125.741 32.8188C128.051 33.0346 127.743 30.2764 127.697 29.0248C127.651 27.7732 126.719 26.7845 125.387 27.173C124.725 27.3652 124.417 27.8988 124.286 28.5932C124.309 27.734 124.375 26.8787 124.502 26.0822C126.604 25.4427 128.836 24.8856 131.196 24.4501C131.693 25.9528 131.773 27.9773 131.666 30.0998H131.662Z" fill="black"/>
<path d="M124.313 31.2768C124.302 31.1984 124.279 31.1356 124.275 31.0493C124.209 30.1783 124.152 29.2994 124.286 28.5932C124.263 29.5074 124.286 30.4215 124.317 31.2768H124.313Z" fill="white"/>
<path opacity="0.47" d="M124.313 31.2768C124.302 31.1984 124.279 31.1356 124.275 31.0493C124.209 30.1783 124.152 29.2994 124.286 28.5932C124.263 29.5074 124.286 30.4215 124.317 31.2768H124.313Z" fill="white"/>
<path d="M125.384 27.169C126.716 26.7806 127.651 27.7732 127.693 29.0209C127.74 30.2724 128.048 33.0306 125.738 32.8148C125.738 32.8148 124.545 32.7599 124.31 31.2729C124.279 30.4176 124.256 29.5034 124.279 28.5893C124.41 27.8909 124.718 27.3612 125.38 27.169H125.384Z" fill="white"/>
<path opacity="0.47" d="M125.384 27.169C126.716 26.7806 127.651 27.7732 127.693 29.0209C127.74 30.2724 128.048 33.0306 125.738 32.8148C125.738 32.8148 124.545 32.7599 124.31 31.2729C124.279 30.4176 124.256 29.5034 124.279 28.5893C124.41 27.8909 124.718 27.3612 125.38 27.169H125.384Z" fill="white"/>
<path d="M145.601 23.7124V23.7164C143.569 23.4927 141.397 23.4182 139.061 23.5241C138.199 23.5633 137.363 23.6497 136.524 23.7281C136.509 23.6183 136.474 23.5202 136.47 23.4064C136.374 21.2563 137.902 18.6512 139.284 17.839C139.442 17.7488 139.534 17.5997 139.569 17.4388C140.166 17.38 141.066 17.5879 142.614 18.4589C145.817 20.2559 146.209 23.2102 146.236 23.4378C145.994 23.4025 145.744 23.5045 145.609 23.7164L145.601 23.7124Z" fill="#FF7140"/>
<path d="M138.499 26.4157C137.317 25.8468 136.666 24.9366 136.516 23.7321C137.355 23.6536 138.191 23.5712 139.053 23.5281C141.39 23.4182 143.561 23.4967 145.593 23.7203C145.447 23.944 142.541 28.3539 138.499 26.4157Z" fill="#FF7140"/>
<path d="M138.275 18.2313C137.867 18.5688 135.866 21.2956 136.124 23.7634C136.047 23.7713 135.966 23.7752 135.889 23.783C135.881 23.6771 135.873 23.5594 135.866 23.4613C135.808 22.7237 135.677 22.0135 135.496 21.3348C136.058 19.3652 137.371 17.5487 138.63 16.811C138.73 16.7522 138.841 16.7247 138.953 16.7247C139.165 16.7247 139.369 16.8267 139.488 17.0151C139.573 17.1485 139.592 17.3015 139.561 17.4427C138.834 17.5133 138.576 17.9842 138.275 18.2353V18.2313Z" fill="#231815"/>
<path d="M146.236 23.4771C146.236 23.4771 146.232 23.4417 146.228 23.4339C146.309 23.4457 146.386 23.4731 146.459 23.5163C146.598 23.5987 146.683 23.7242 146.725 23.8655C146.513 23.8341 146.305 23.7988 146.09 23.7713C146.136 23.6732 146.19 23.5751 146.232 23.4731L146.236 23.4771Z" fill="#231815"/>
<path d="M146.725 23.8694C146.771 24.0263 146.756 24.2029 146.659 24.3519C145.424 26.2941 142.009 29.4524 137.944 27.5025C137.12 27.1062 136.485 26.5726 136.027 25.9253C135.985 25.1209 135.931 24.399 135.885 23.783C135.962 23.7752 136.043 23.7713 136.12 23.7634C136.208 24.6109 136.558 25.427 137.336 26.1018C140.285 28.6677 144.592 26.8708 146.09 23.7752" fill="#231815"/>
<path d="M135.889 23.7791C135.688 23.7987 135.477 23.8066 135.28 23.8262C135.277 23.7791 135.261 23.7399 135.257 23.6928C135.25 23.6143 135.246 23.5202 135.238 23.4417C135.238 23.3986 135.226 23.3554 135.223 23.3162C135.211 22.657 135.307 21.9861 135.496 21.327C135.677 22.0057 135.808 22.7159 135.865 23.4535C135.873 23.5516 135.881 23.6693 135.889 23.7752V23.7791Z" fill="#231815"/>
<path d="M135.889 23.7792C135.935 24.3991 135.989 25.1171 136.031 25.9214C135.608 25.3211 135.369 24.6109 135.277 23.8263C135.477 23.8027 135.685 23.7988 135.885 23.7792H135.889Z" fill="#231815"/>
<path d="M135.223 23.3201C135.226 23.3632 135.234 23.4025 135.238 23.4456C135.246 23.5202 135.25 23.6143 135.257 23.6967C135.25 23.6143 135.219 23.5437 135.219 23.4613C135.219 23.4142 135.226 23.3671 135.226 23.3201H135.223Z" fill="#231815"/>
<path d="M146.09 23.7752C145.928 23.7556 145.759 23.736 145.593 23.7203V23.7163C145.732 23.5045 145.982 23.4025 146.221 23.4378C146.221 23.4456 146.228 23.4809 146.228 23.4809C146.186 23.5829 146.132 23.6771 146.086 23.7791L146.09 23.7752Z" fill="#231815"/>
<path d="M139.276 17.843C137.898 18.6551 136.37 21.2603 136.462 23.4103C136.466 23.5241 136.504 23.6222 136.516 23.7321C136.385 23.7438 136.25 23.7517 136.119 23.7635C135.862 21.2995 137.867 18.5727 138.271 18.2314C138.572 17.9803 138.83 17.5095 139.557 17.4388C139.526 17.5997 139.43 17.7488 139.272 17.839L139.276 17.843Z" fill="#231815"/>
<path d="M138.499 26.4157C142.541 28.3539 145.451 23.9439 145.593 23.7203C145.759 23.7399 145.924 23.7556 146.09 23.7752C144.596 26.8708 140.285 28.6678 137.336 26.1018C136.558 25.4231 136.208 24.6109 136.12 23.7634C136.251 23.7517 136.385 23.7438 136.516 23.732C136.666 24.9365 137.317 25.8507 138.499 26.4157Z" fill="#231815"/>
<path d="M120.691 20.6325C120.202 21.1504 119.682 21.6134 119.113 21.99C116.295 23.8458 113.538 23.2377 113.423 23.2141C113.088 23.1357 112.884 22.8139 112.961 22.4883C113.038 22.1627 113.373 21.9586 113.708 22.0371C113.731 22.041 116.079 22.5393 118.435 20.9738C120.914 19.3299 122.531 16.0852 123.247 11.3378C123.293 11.0357 123.559 10.8199 123.863 10.8199C123.894 10.8199 123.924 10.8199 123.955 10.8278C124.298 10.8749 124.533 11.1848 124.483 11.5144C124.205 13.3545 123.79 14.9827 123.247 16.4069C122.1 17.4074 121.268 18.8787 120.691 20.6364V20.6325Z" fill="black"/>
<path d="M120.691 20.6325C121.268 18.8748 122.096 17.4035 123.247 16.403C122.589 18.1293 121.73 19.5339 120.691 20.6325Z" fill="black"/>
<path d="M83.3238 16.713C84.6865 17.3251 86.1762 17.5722 87.6506 17.8155C92.0967 18.5492 96.2811 19.2436 100.727 19.9773C101.328 20.0754 101.951 20.2127 102.548 20.0793C103.441 19.8753 104.207 18.9258 104.481 18.3687C104.966 17.3721 104.115 15.379 103.38 14.5512C101.744 12.7071 99.7687 12.6679 97.5168 11.7106C94.7336 10.5257 91.5924 10.4669 88.6245 11.0044C86.1762 11.4477 83.8203 12.2795 81.4991 13.1662C80.2249 13.6566 80.017 13.8881 80.9794 15.0141C81.6146 15.7557 82.4422 16.3167 83.3238 16.7091V16.713Z" fill="#FFC20B"/>
<path d="M103.932 8.08024L101.14 12.0406L106.273 15.8L109.065 11.8396L103.932 8.08024Z" fill="#698E8B"/>
<path d="M139.561 17.4388C139.592 17.2976 139.573 17.1446 139.488 17.0112C139.373 16.8228 139.165 16.7208 138.953 16.7208C138.842 16.7208 138.73 16.7483 138.63 16.8071C137.371 17.5487 136.055 19.3613 135.496 21.3309C134.877 19.016 133.579 17.0896 131.809 15.9479C130.638 15.1946 129.326 14.814 127.932 14.814C127.058 14.814 126.154 14.9631 125.23 15.2613C124.483 15.5046 123.829 15.8969 123.247 16.3991C123.79 14.9749 124.206 13.3506 124.483 11.5105C124.533 11.1809 124.298 10.871 123.956 10.8239C123.925 10.8199 123.894 10.816 123.863 10.816C123.559 10.816 123.293 11.0318 123.247 11.3339C122.531 16.0813 120.911 19.326 118.435 20.9699C116.08 22.5354 113.731 22.0371 113.708 22.0332C113.373 21.9547 113.038 22.1587 112.961 22.4844C112.885 22.81 113.089 23.1318 113.423 23.2102C113.539 23.2377 116.295 23.8419 119.113 21.9861C119.683 21.6095 120.202 21.1465 120.691 20.6286C120.006 22.7119 119.683 25.1916 119.629 27.781C115.568 29.3857 112.207 31.1827 109.693 32.7128C108.565 27.6202 109.482 22.0803 112.707 17.5055C118.69 9.01908 130.292 7.08089 138.618 13.1819C140.986 14.916 142.818 17.1249 144.112 19.5771C143.692 19.1808 143.215 18.7963 142.61 18.4589C141.063 17.5918 140.158 17.3839 139.565 17.4388H139.561Z" fill="#EDFF4A"/>
<path d="M120.098 35.1375C121.11 42.1017 126.965 42.4234 127.385 42.4352C129.625 42.5254 131.473 41.8584 132.874 40.4538C136.173 37.1464 136.27 30.3784 136.031 25.9253C136.489 26.5726 137.124 27.1062 137.948 27.5025C141.463 29.1857 144.488 27.0552 146.04 25.1916C146.902 30.0567 145.913 35.2592 142.856 39.5907C136.874 48.0771 125.272 50.0153 116.945 43.9143C113.107 41.1012 110.651 37.0679 109.689 32.7089C112.207 31.1788 115.567 29.3818 119.624 27.7771C119.571 30.2293 119.752 32.7678 120.094 35.1336L120.098 35.1375Z" fill="#5BB3FD"/>
<path d="M149.166 20.248C150.201 23.0219 150.701 25.9724 150.655 28.9385C150.663 27.4672 150.555 25.9998 150.309 24.556C150.059 23.0886 149.67 21.6487 149.166 20.248Z" fill="#2CE69D"/>
<path d="M146.663 24.352C146.494 24.6149 146.286 24.9013 146.04 25.1916C145.693 23.2377 145.039 21.3466 144.107 19.5771C145.917 21.276 146.209 23.2534 146.228 23.4339C146.309 23.4457 146.386 23.4731 146.459 23.5163C146.598 23.5987 146.683 23.7242 146.725 23.8655C146.771 24.0224 146.756 24.199 146.66 24.3481L146.663 24.352Z" fill="#2CE69D"/>
<path d="M107.056 14.4531C106.274 15.5634 105.605 16.7169 105.031 17.9057C104.858 17.4467 104.881 16.9209 105.185 16.4933L109.362 10.5689C109.758 10.0039 110.463 9.83126 111.071 10.0627C109.597 11.3339 108.234 12.7856 107.056 14.457V14.4531Z" fill="#2CE69D"/>
<path d="M150.655 28.9385C150.663 27.4672 150.555 25.9998 150.309 24.556C150.059 23.0886 149.67 21.6487 149.166 20.248C147.626 16.1127 144.924 12.3776 141.139 9.60368C132.286 3.1182 120.433 4.00883 112.607 11.0867L111.425 10.2197C111.317 10.1412 111.194 10.102 111.075 10.0588C109.601 11.33 108.238 12.7817 107.06 14.4531C106.279 15.5634 105.609 16.7169 105.035 17.9057C105.135 18.1686 105.282 18.4158 105.524 18.5923L106.706 19.4594C104.592 24.5403 104.377 30.1312 105.878 35.2474C107.276 40.0144 110.159 44.3655 114.428 47.4964C124.694 55.0138 138.995 52.6283 146.371 42.1644C149.2 38.1507 150.586 33.5328 150.659 28.9424L150.655 28.9385ZM146.725 23.8694C146.771 24.0263 146.756 24.2029 146.66 24.3519C146.49 24.6148 146.282 24.9012 146.036 25.1916C146.898 30.0567 145.909 35.2592 142.852 39.5906C136.87 48.0771 125.268 50.0153 116.942 43.9143C113.104 41.1012 110.648 37.0679 109.685 32.7089C108.557 27.6163 109.474 22.0763 112.699 17.5016C118.682 9.01516 130.284 7.07697 138.61 13.1779C140.978 14.9121 142.81 17.121 144.104 19.5732C145.913 21.272 146.205 23.2495 146.225 23.4299C146.305 23.4417 146.382 23.4692 146.456 23.5123C146.594 23.5947 146.679 23.7203 146.721 23.8615L146.725 23.8694Z" fill="black"/>
<path d="M138.791 12.9308C147.241 19.1181 149.177 31.1631 143.102 39.7751C140.161 43.9457 135.8 46.7 130.826 47.5318C125.853 48.3635 120.856 47.1669 116.764 44.1694C112.672 41.1718 109.966 36.7266 109.154 31.6575C108.338 26.5884 109.512 21.4996 112.453 17.3251C116.137 12.103 121.93 9.32123 127.805 9.32123C131.616 9.32123 135.465 10.4943 138.791 12.9269V12.9308ZM130.73 46.9197C135.546 46.1154 139.761 43.4514 142.61 39.4141C148.484 31.0807 146.613 19.4241 138.437 13.4369C130.261 7.44974 118.824 9.35654 112.949 17.69C110.105 21.7272 108.969 26.6551 109.758 31.5594C110.547 36.4637 113.161 40.7638 117.126 43.6672C120.267 45.9663 123.951 47.1708 127.743 47.1708C128.736 47.1708 129.733 47.0884 130.734 46.9236L130.73 46.9197Z" fill="#698E8B"/>
<path d="M147.657 34.6079C148.858 30.5157 148.792 26.1764 147.557 22.1823" stroke="white" stroke-width="1.94784" stroke-miterlimit="10" stroke-linecap="round"/>
<path d="M75.8844 -8.37649L76.8863 -9.79752C78.0926 -11.5085 80.4349 -11.8994 82.1137 -10.67L103.737 5.16648C104.703 5.87393 104.924 7.24832 104.23 8.23285L101.372 12.2857C100.678 13.2702 99.3297 13.4953 98.3637 12.7878L76.7404 -3.04865C75.0617 -4.27812 74.6781 -6.66551 75.8844 -8.37649Z" fill="black"/>
<path d="M79.975 13.7782L74.832 23.9439L74.6434 13.5507L68.6228 12.9896L70.8209 6.83371L62.2173 1.6626L76.8607 0.430634L79.975 13.7782Z" fill="#FF7140"/>
<path d="M97.1822 11.5301C98.1407 8.26188 100.081 5.52331 102.398 3.0633C103.076 2.34531 103.807 1.66263 104.338 0.82693C104.87 -0.00876617 105.178 -1.06025 104.9 -2.01758C104.6 -3.06121 103.68 -3.78705 102.752 -4.32064C101.994 -4.76007 101.174 -5.12495 100.308 -5.21519C99.4418 -5.30543 98.5141 -5.08964 97.8713 -4.48543C98.8683 -6.06658 98.2062 -8.35003 96.7241 -9.46429C95.2421 -10.5786 93.1941 -10.6609 91.4349 -10.092C91.6967 -11.0062 91.1655 -12.0185 90.3725 -12.5246C89.5795 -13.0307 88.5902 -13.1092 87.6586 -13.015C85.5529 -12.8032 83.2201 -11.9204 81.9844 -10.1705C81.9844 -10.1705 76.1448 -6.04304 74.8552 2.7965C73.5618 11.64 82.5619 16.4344 82.5619 16.4344C85.1141 17.6036 87.1119 18.0548 89.9606 17.9881C92.7553 17.9254 96.2275 14.7866 97.1822 11.5262V11.5301Z" fill="#FFC20B"/>
<path opacity="0.5" d="M138.395 13.225C130.068 7.12798 118.466 9.06224 112.484 17.5487C106.502 26.0351 108.4 37.8604 116.726 43.9575C125.053 50.0545 136.655 48.1202 142.637 39.6338C148.619 31.1474 146.721 19.3221 138.395 13.225ZM140.308 33.7996C139.696 36.2204 138.73 38.6176 137.021 40.4067C132.809 44.8088 125.78 44.8755 120.695 42.1487C119.217 41.3562 117.866 40.3126 116.726 39.0688C113.739 35.7967 112.249 31.1984 112.592 26.7453C112.938 22.2921 115.082 18.0352 118.347 15.0534C120.71 12.8915 123.717 11.3614 126.889 11.2005C131.912 10.9494 136.713 14.2961 139.065 18.8277C141.417 23.3554 141.563 28.8365 140.308 33.7996Z" fill="white"/>
</g>
</g>
<defs>
<clipPath id="clip0_25209_119449">
<rect width="160" height="106" fill="white"/>
</clipPath>
</defs>
</svg>
