<svg width="160" height="106" viewBox="0 0 160 106" fill="none" xmlns="http://www.w3.org/2000/svg">
<g clip-path="url(#clip0_25209_119539)">
<mask id="mask0_25209_119539" style="mask-type:luminance" maskUnits="userSpaceOnUse" x="8" y="-1" width="152" height="99">
<path d="M149.724 -0.52124H18.6314C12.9807 -0.52124 8.3999 4.05958 8.3999 9.7103V87.7595C8.3999 93.4103 12.9807 97.9911 18.6314 97.9911H149.724C155.374 97.9911 159.955 93.4103 159.955 87.7595V9.7103C159.955 4.05958 155.374 -0.52124 149.724 -0.52124Z" fill="white"/>
</mask>
<g mask="url(#mask0_25209_119539)">
<path d="M139.222 33.3931C139.222 33.3931 145.578 34.9027 152.67 33.3931C159.758 31.8835 168.644 23.7194 168.4 13.6629C168.156 3.60639 160.013 -8.32433 145.785 -5.69534C134.905 -3.68258 129.038 -3.68258 124.393 -6.95332C119.747 -10.2204 107.769 -15.2487 97.2568 -9.46927C86.7444 -3.68623 82.9231 -2.6215 73.6323 -2.36991C64.3415 -2.11831 61.0744 9.13419 63.0289 16.4232C64.9833 23.7158 70.77 32.3831 79.8165 33.1378C88.863 33.8926 91.0617 31.3767 97.4172 30.3739C103.773 29.3676 125.807 29.7978 139.222 33.3894V33.3931Z" fill="#F878F3"/>
<path d="M126.927 39.548C128.812 41.9327 129.585 44.9373 130.325 47.8106C131.361 51.8288 133.246 55.8653 136.743 58.3265C140.236 60.7878 145.625 61.1378 148.717 58.2354C150.278 56.7695 151.073 54.713 151.499 52.6675C152.061 49.9911 151.802 46.837 149.468 45.2509C147.929 44.2044 145.815 44.1752 144.163 45.0503C142.511 45.9218 141.366 47.5225 140.987 49.2837C140.892 49.7176 140.812 50.2098 140.436 50.4687C140.196 50.6328 139.886 50.6693 139.59 50.6583C137.187 50.5745 135.765 48.1387 134.817 46.0385C134.026 44.2809 133.235 42.5271 132.444 40.7695C131.919 39.5991 131.295 38.3338 130.081 37.7978C128.867 37.2618 126.555 38.0494 126.81 39.2964L126.927 39.548Z" fill="black"/>
<path d="M112.728 35.8798C112.531 35.7668 112.287 35.7486 112.076 35.8288C91.2114 43.7741 92.5241 55.2673 92.7903 56.8972C93.0565 58.538 94.0519 63.4569 98.6244 64.0913C102.825 64.6711 104.593 60.9993 104.262 58.3484C104.025 56.4632 101.808 54.8151 104.061 48.1278C105.789 43.0011 111.572 39.4678 114.176 38.0968C114.176 38.0968 114.621 37.8087 114.139 37.0977C113.658 36.3867 112.725 35.8798 112.725 35.8798H112.728Z" fill="black"/>
<path d="M94.8795 56.755C95.9917 56.1241 96.9725 55.7923 99.7547 55.9199C103.933 56.1096 104.313 58.4104 104.313 58.4104C104.644 61.0612 102.96 64.6747 98.7519 64.1533C94.7446 63.6574 93.7638 61.1451 93.359 59.3256C93.359 59.3256 93.0236 57.8051 94.8832 56.755H94.8795Z" fill="#2CE69D"/>
<path d="M145.949 51.7085C143.948 51.4313 140.885 49.9254 140.987 49.28C141.268 47.5006 142.515 45.816 144.166 44.9446C145.818 44.0731 147.999 44.1205 149.537 45.167C151.248 46.3302 151.795 48.4377 151.758 50.5015C151.758 50.5015 151.248 52.4414 145.949 51.7121V51.7085Z" fill="#2CE69D"/>
<path d="M119.336 41.9473C119.336 41.9473 131.722 40.93 136.331 31.7595C140.94 22.589 138.008 19.136 133.538 16.6091C129.068 14.0858 119.011 10.7604 107.277 13.8197C95.5435 16.8753 94.7048 22.0603 95.4049 25.7796C96.105 29.5024 98.6647 36.1898 105.742 39.4678C113.297 42.9682 119.339 41.9473 119.339 41.9473H119.336Z" fill="#FFEE40"/>
<path d="M122.723 33.2181C124.439 33.2181 125.83 31.1954 125.83 28.7003C125.83 26.2052 124.439 24.1825 122.723 24.1825C121.007 24.1825 119.616 26.2052 119.616 28.7003C119.616 31.1954 121.007 33.2181 122.723 33.2181Z" fill="white"/>
<path d="M122.61 29.5572C122.61 29.5572 124.473 29.5134 124.659 27.3439C124.827 25.3894 124.174 23.9418 122.424 24.0221C120.469 24.1096 120.327 25.7504 120.375 27.0339C120.422 28.3174 121.075 29.5134 122.61 29.5572Z" fill="#231815"/>
<path d="M110.059 33.2181C111.775 33.2181 113.166 31.1954 113.166 28.7003C113.166 26.2052 111.775 24.1825 110.059 24.1825C108.344 24.1825 106.953 26.2052 106.953 28.7003C106.953 31.1954 108.344 33.2181 110.059 33.2181Z" fill="white"/>
<path d="M110.588 29.6374C110.588 29.6374 112.451 29.5937 112.637 27.4241C112.805 25.4697 112.152 24.0221 110.402 24.1023C108.448 24.1898 108.305 25.8307 108.353 27.1142C108.4 28.3977 109.053 29.5937 110.588 29.6374Z" fill="#231815"/>
<path d="M103.601 26.8297C103.981 26.7787 105.72 26.6729 106.745 24.5471C107.769 22.4213 106.187 21.3566 104.604 21.6228C103.022 21.889 101.716 23.3949 101.716 24.9008C101.716 26.4068 102.949 26.9172 103.601 26.8261V26.8297Z" fill="#FF7140"/>
<path d="M128.331 26.3557C127.952 26.3047 126.212 26.199 125.188 24.0732C124.163 21.9474 125.746 20.8826 127.328 21.1488C128.911 21.415 130.216 22.9209 130.216 24.4268C130.216 25.9328 128.984 26.4433 128.331 26.3521V26.3557Z" fill="#FF7140"/>
<path d="M116.685 27.3731C116.685 27.3731 118.905 25.8234 118.034 25.2473C117.381 24.817 116.962 25.6447 116.451 26.1333C115.941 26.6219 114.916 27.1506 114.916 26.2646C114.916 25.3785 115.474 24.9811 116.313 24.5362C116.685 24.3576 116.965 24.4487 117.057 24.0039C117.151 23.5627 116.357 23.4715 115.613 23.5153C114.869 23.559 113.844 23.1069 114.03 22.3521C114.216 21.5973 115.102 21.477 115.708 21.6557C116.313 21.8343 116.594 22.7021 117.104 22.3193C117.593 21.9546 117.057 21.5645 116.594 21.2546C116.127 20.9446 115.102 20.5909 114.22 20.9884C113.334 21.3858 112.823 22.4505 113.381 23.4241C113.939 24.3977 115.102 24.3102 115.102 24.3102C115.102 24.3102 113.494 24.7404 113.822 26.2026C114.147 27.6648 115.011 28.2956 116.685 27.3658V27.3731Z" fill="#231815"/>
<path d="M121.034 41.6921C121.034 41.6921 122.314 37.4296 117.005 35.6137C115.2 35.0157 113.804 35.0813 113.931 36.2773C114.063 37.5098 116.316 39.9309 113.523 41.7942C113.523 41.7942 116.316 42.6256 121.031 41.6957L121.034 41.6921Z" fill="black"/>
<path d="M150.048 23.0703L148.334 22.6036V23.9418L150.679 24.5616V23.1505C150.471 23.1505 150.26 23.1287 150.048 23.0703Z" fill="#FFFFCA"/>
<path d="M83.6378 23.0703C83.5904 23.0849 83.543 23.0885 83.4956 23.0995V24.5617L85.8402 23.9418V22.4723L83.6378 23.074V23.0703Z" fill="#FFFFCA"/>
<path d="M117.089 15.6756L117.016 15.6938L117.089 15.7157L117.158 15.6938L117.089 15.6756Z" fill="#FFFFCA"/>
<path d="M117.159 15.6939L117.921 15.4568L117.089 15.6756L117.159 15.6939Z" fill="#FFFFCA"/>
<path d="M117.016 15.6939L117.089 15.6756L116.254 15.4568L117.016 15.6939Z" fill="#FFFFCA"/>
<path d="M116.254 15.4568L117.089 15.6756L117.921 15.4568V14.95H116.254V15.4568Z" fill="#FFFFCA"/>
<path d="M120.258 -22.9352V-22.7346L148.338 -13.9142V22.6036L150.052 23.0703C150.263 23.1287 150.475 23.1505 150.683 23.1505V-14.8877L120.261 -22.9352H120.258Z" fill="#2CE69D"/>
<path d="M118.551 12.7148V-23.1321C118.551 -23.1795 118.559 -23.2232 118.559 -23.2706L117.92 -23.4712V14.95H119.288C119.488 14.95 119.678 14.888 119.831 14.7823C119.058 14.3957 118.548 13.6045 118.548 12.7148H118.551Z" fill="#08C053"/>
<path d="M115.135 -23.1211V12.7112C115.135 13.5535 114.675 14.3046 113.972 14.713C114.139 14.8588 114.358 14.95 114.599 14.95H116.254V-23.4712L115.135 -23.1211Z" fill="#08C053"/>
<path d="M117.089 -23.7337L116.254 -23.4711V14.95H117.921V-23.4711L117.089 -23.7337Z" fill="#08C053"/>
<path d="M118.551 -23.1321V12.7148C118.551 13.6045 119.062 14.3957 119.835 14.7822C120.09 14.6072 120.261 14.3119 120.261 13.9801V-22.7383L118.562 -23.2706C118.562 -23.2232 118.555 -23.1795 118.555 -23.1321H118.551Z" fill="#08C053"/>
<path d="M115.135 12.7148V-23.1211L113.629 -22.6471V13.9801C113.629 14.2754 113.764 14.5379 113.972 14.713C114.675 14.3046 115.135 13.5534 115.135 12.7111V12.7148Z" fill="#08C053"/>
<path d="M117.089 15.7157L148.338 25.5352V23.9418L117.159 15.6938L117.089 15.7157Z" fill="#FFFFCA"/>
<path d="M120.258 14.95C120.108 14.9099 119.966 14.8516 119.831 14.7823C119.674 14.888 119.488 14.95 119.288 14.95H117.92V15.4532L117.158 15.6939L148.338 23.9418V22.6036L120.258 14.95Z" fill="#FFFFCA"/>
<path d="M85.8369 23.9418V25.5352L117.089 15.7157L117.016 15.6938L85.8369 23.9418Z" fill="#FFFFCA"/>
<path d="M116.254 15.4568V14.9536H114.599C114.358 14.9536 114.143 14.8625 113.972 14.7166C113.8 14.8151 113.622 14.8989 113.425 14.9536L85.8369 22.4723V23.9418L117.016 15.6938L116.254 15.4532V15.4568Z" fill="#FFFFCA"/>
<path d="M151.27 -17.2469L121.479 -25.3673C120.87 -25.5313 120.269 -25.4402 119.769 -25.1667C120.061 -24.999 120.261 -24.689 120.261 -24.3281V-22.9315L150.682 -14.8841V23.1542C151.915 23.1432 152.98 22.1478 152.98 20.8388V-15.0117C152.98 -16.0582 152.28 -16.9735 151.273 -17.2469H151.27Z" fill="#2CE69D"/>
<path d="M119.835 14.7823C119.97 14.8516 120.112 14.9099 120.262 14.95L148.342 22.6036V-13.9142L120.262 -22.7346V13.9837C120.262 14.3192 120.094 14.6109 119.835 14.7859V14.7823Z" fill="#2CE69D"/>
<path d="M113.629 -22.8586V-24.3317C113.629 -24.6526 113.786 -24.9333 114.026 -25.1083C113.505 -25.4256 112.859 -25.5459 112.207 -25.3672L82.4164 -17.2469C81.4064 -16.9734 80.71 -16.0546 80.71 -15.0117V20.8351C80.71 22.3155 82.07 23.3985 83.4957 23.0995V-14.8877L113.632 -22.8586H113.629Z" fill="#2CE69D"/>
<path d="M85.8368 22.4723V-13.9142L113.629 -22.6471V-22.8586L83.4922 -14.8878V23.0995C83.5396 23.0885 83.587 23.0812 83.6344 23.0703L85.8368 22.4686V22.4723Z" fill="#2CE69D"/>
<path d="M113.629 13.9801V-22.6471L85.8369 -13.9142V22.4723L113.425 14.9536C113.622 14.8989 113.8 14.8151 113.972 14.7166C113.764 14.538 113.629 14.2791 113.629 13.9837V13.9801Z" fill="#2CE69D"/>
<path d="M157.836 20.7039L154.803 0.42675C154.529 -2.2861 153.494 9.04297 151.091 9.04297C150.617 9.04297 148.028 9.14872 147.569 9.12319C145.359 8.99557 143.951 11.7558 145.107 13.8999C146.329 16.1715 150.136 18.6984 152.316 21.0138C153.924 22.7203 158.084 23.1943 157.836 20.7075V20.7039Z" fill="#F878F3"/>
<path d="M84.0464 6.43225C83.587 6.45778 83.113 6.47236 82.639 6.47236C80.236 6.47236 79.5432 -2.24232 79.2734 0.474182L78.7775 5.42587C78.5296 7.91265 79.8058 20.1497 81.4174 18.4395C83.5979 16.1241 85.2898 13.4806 86.5113 11.2053C87.6636 9.06124 86.2561 6.30098 84.0501 6.4286L84.0464 6.43225Z" fill="#F878F3"/>
<path d="M130.347 56.7038C130.336 56.6528 130.322 56.609 130.311 56.558C130.3 56.4924 130.292 56.434 130.281 56.3647C129.76 53.6811 126.223 50.6728 124.776 49.5388C124.447 49.2836 123.973 49.3748 123.766 49.7357C122.85 51.3292 120.703 55.4495 121.224 58.1295C121.239 58.1952 121.253 58.2535 121.268 58.3192C121.275 58.3666 121.279 58.4176 121.29 58.465C121.778 60.9664 124.199 62.5999 126.701 62.1113C129.202 61.6227 130.836 59.2016 130.347 56.7002V56.7038Z" fill="#F878F3"/>
<path d="M124.123 48.8935C125.512 48.6236 126.42 47.2745 126.15 45.8853C125.881 44.496 124.531 43.5881 123.142 43.8579C121.753 44.1277 120.845 45.4769 121.115 46.8661C121.385 48.2554 122.734 49.1633 124.123 48.8935Z" fill="#F878F3"/>
<path d="M115.157 48.2918C114.052 47.4386 112.462 47.6464 111.609 48.7513C110.756 49.8561 110.963 51.4459 112.068 52.2991C113.173 53.1524 114.763 52.9445 115.616 51.8397C116.469 50.7349 116.261 49.1451 115.157 48.2918Z" fill="#F878F3"/>
<path d="M114.508 61.6155C114.304 61.7905 114.03 61.8488 113.775 61.7723C113.366 61.6483 113.133 61.218 113.257 60.8096C113.337 60.5435 113.527 60.4085 113.633 60.3502C113.738 60.2955 113.954 60.2116 114.223 60.2919C115.492 60.6747 116.83 59.9527 117.21 58.6875L117.618 57.3347C118.001 56.0658 117.279 54.7276 116.014 54.3484C115.784 54.2791 115.551 54.2463 115.321 54.2463C114.442 54.2463 113.618 54.7349 113.202 55.5225C111.128 55.8251 109.312 57.2946 108.666 59.4313C107.78 62.3739 109.454 65.4842 112.397 66.3703C114.234 66.9245 116.2 66.5015 117.655 65.2435C118.654 64.3757 118.763 62.8625 117.895 61.8598C117.027 60.8607 115.514 60.7513 114.511 61.6191L114.508 61.6155Z" fill="#F878F3"/>
</g>
</g>
<defs>
<clipPath id="clip0_25209_119539">
<rect width="160" height="106" fill="white"/>
</clipPath>
</defs>
</svg>
