<svg width="48" height="42" viewBox="0 0 48 42" fill="none" xmlns="http://www.w3.org/2000/svg">
<g id="black logo 1">
<g id="&#235;&#160;&#136;&#236;&#157;&#180;&#236;&#150;&#180; 3">
<g id="Group">
<path id="Vector" d="M46.1702 28.0256H24.6587V26.3422C24.6587 25.3321 23.839 24.5197 22.8362 24.5197H12.9918V21.1674H46.1775C47.1876 21.1674 48 20.3477 48 19.3449V1.82251C48 0.812443 47.1802 0 46.1775 0H36.8381C35.828 0 35.0156 0.819762 35.0156 1.82251V4.6624H25.1711C24.161 4.6624 23.3486 5.48216 23.3486 6.4849V8.16834H1.82251C0.812443 8.16834 0 8.98811 0 9.99085V39.1729C0 40.183 0.819762 40.9954 1.82251 40.9954H46.1702C47.1802 40.9954 47.9927 40.1757 47.9927 39.1729V29.8335C47.9927 28.8234 47.1729 28.011 46.1702 28.011V28.0256Z" fill="white"/>
<g id="Group_2">
<path id="Vector_2" d="M38.69 18.1738C39.056 18.1738 39.3487 17.881 39.3487 17.5151V14.3092H43.7257V17.5151C43.7257 17.881 44.0184 18.1738 44.3844 18.1738C44.7504 18.1738 45.0431 17.881 45.0431 17.5151V13.6871C45.0431 13.6871 45.0431 13.6651 45.0431 13.6505C45.0431 13.6358 45.0431 13.6212 45.0431 13.6139V10.0787C45.0431 8.10976 43.4695 6.50684 41.5372 6.50684C39.6049 6.50684 38.0312 8.10976 38.0312 10.0787V17.5151C38.0312 17.881 38.324 18.1738 38.69 18.1738ZM41.5372 7.81699C42.7449 7.81699 43.7257 8.82706 43.7257 10.0713V12.9844H39.3487V10.0713C39.3487 8.82706 40.3295 7.81699 41.5372 7.81699Z" fill="black"/>
<path id="Vector_3" d="M14.6753 17.5149C14.6753 17.6027 14.6972 17.6906 14.7265 17.7711C14.807 17.9541 14.968 18.0931 15.1657 18.1517C15.2169 18.1663 15.2755 18.1737 15.334 18.1737C15.334 18.1737 15.3633 18.1737 15.3706 18.1737C15.3999 18.1737 15.4365 18.1737 15.4658 18.1663C15.5097 18.159 15.5463 18.1444 15.5829 18.1297C15.6195 18.1151 15.6561 18.0931 15.6927 18.0712C15.7951 17.998 15.883 17.9028 15.9269 17.7857C15.9415 17.7565 15.9488 17.7272 15.9562 17.6979C15.9562 17.6833 15.9635 17.6759 15.9635 17.6613C15.9635 17.632 15.9708 17.5954 15.9708 17.5588C15.9708 17.5515 15.9708 17.5369 15.9708 17.5296V17.493V17.0758C15.9708 15.8315 16.9516 14.8214 18.1593 14.8214C19.367 14.8214 20.3477 15.8315 20.3477 17.0758V17.5296C20.3477 17.8955 20.6405 18.1883 21.0065 18.1883C21.3724 18.1883 21.6652 17.8955 21.6652 17.5296V17.0758C21.6652 15.1069 20.0916 13.5039 18.1593 13.5039C17.3322 13.5039 16.571 13.7967 15.9708 14.2871V11.8425C15.9708 11.4765 15.678 11.1837 15.3121 11.1837C14.9461 11.1837 14.6533 11.4765 14.6533 11.8425V17.449V17.5222L14.6753 17.5149Z" fill="black"/>
<path id="Vector_4" d="M26.3564 17.5151C26.3564 17.881 26.6492 18.1738 27.0152 18.1738C27.0152 18.1738 27.0371 18.1738 27.0518 18.1738C27.0884 18.1738 27.1177 18.1738 27.1469 18.1665C27.1689 18.1665 27.1835 18.1518 27.1982 18.1518C27.2201 18.1518 27.2421 18.1372 27.2714 18.1299C27.2787 18.1299 27.2933 18.1226 27.3006 18.1152C27.5202 18.0054 27.6739 17.7859 27.6739 17.5224V15.9194C27.6739 14.6752 28.6547 13.6651 29.8624 13.6651C31.0701 13.6651 32.0509 14.6752 32.0509 15.9194V17.5224C32.0509 17.8883 32.3436 18.1811 32.7096 18.1811C33.0756 18.1811 33.3683 17.8883 33.3683 17.5224V15.9194C33.3683 13.9505 31.7947 12.3476 29.8624 12.3476C29.0353 12.3476 28.2741 12.6404 27.6739 13.1308V9.50041C27.6739 9.13445 27.3811 8.84167 27.0152 8.84167C26.6492 8.84167 26.3564 9.13445 26.3564 9.50041V16.666V17.5151Z" fill="black"/>
<path id="Vector_5" d="M9.99822 14.7557C9.99822 12.7794 8.42457 11.1765 6.49227 11.1765C4.55998 11.1765 2.98633 12.7794 2.98633 14.7557V15.2753C2.98633 15.2753 2.98633 15.2826 2.98633 15.29C2.98633 15.2973 2.98633 15.2973 2.98633 15.3046V17.5224C2.98633 17.8883 3.2791 18.1811 3.64507 18.1811C4.01103 18.1811 4.3038 17.8883 4.3038 17.5224V15.9487H8.68075V17.5224C8.68075 17.8883 8.97352 18.1811 9.33948 18.1811C9.70545 18.1811 9.99822 17.8883 9.99822 17.5224V15.3119C9.99822 15.3119 9.99822 15.2973 9.99822 15.29C9.99822 15.2826 9.99822 15.2753 9.99822 15.268V14.7557ZM6.49227 12.5013C7.65604 12.5013 8.60755 13.4455 8.67343 14.6312H4.31112C4.377 13.4455 5.32851 12.5013 6.49227 12.5013Z" fill="black"/>
<path id="Vector_6" d="M18.1739 32.1829C17.3468 32.1829 16.5856 32.4757 15.9854 32.9661V29.3357C15.9854 28.9698 15.6927 28.677 15.3267 28.677C14.9607 28.677 14.668 28.9698 14.668 29.3357V36.4574V37.3577C14.668 37.7237 14.9607 38.0164 15.3267 38.0164C15.4145 38.0164 15.5024 37.9945 15.5829 37.9652C15.8171 37.8627 15.9854 37.6285 15.9854 37.3577V35.7548C15.9854 34.5105 16.9662 33.5004 18.1739 33.5004C19.3816 33.5004 20.3624 34.5105 20.3624 35.7548V37.3577C20.3624 37.7237 20.6552 38.0164 21.0211 38.0164C21.3871 38.0164 21.6799 37.7237 21.6799 37.3577V35.7548C21.6799 33.7859 20.1062 32.1829 18.1739 32.1829Z" fill="black"/>
<path id="Vector_7" d="M29.8556 33.3321C29.0285 33.3321 28.2673 33.6248 27.6671 34.1152V31.6706C27.6671 31.3046 27.3743 31.0118 27.0083 31.0118C26.6424 31.0118 26.3496 31.3046 26.3496 31.6706V37.2772V37.3504C26.3496 37.4382 26.3716 37.526 26.4008 37.6065C26.4814 37.7895 26.6424 37.9286 26.84 37.9871C26.8912 38.0018 26.9498 38.0091 27.0083 38.0091C27.0083 38.0091 27.0376 38.0091 27.0449 38.0091C27.0742 38.0091 27.1108 38.0091 27.1401 38.0018C27.184 37.9945 27.2206 37.9798 27.2572 37.9652C27.2938 37.9505 27.3304 37.9286 27.367 37.9066C27.4695 37.8334 27.5573 37.7383 27.6012 37.6212C27.6158 37.5919 27.6232 37.5626 27.6305 37.5333C27.6305 37.5187 27.6378 37.5114 27.6378 37.4967C27.6378 37.4675 27.6451 37.4309 27.6451 37.3943C27.6451 37.387 27.6451 37.3723 27.6451 37.365V37.3284V36.9112C27.6451 35.6669 28.6259 34.6569 29.8336 34.6569C31.0413 34.6569 32.0221 35.6669 32.0221 36.9112V37.365C32.0221 37.731 32.3148 38.0237 32.6808 38.0237C33.0468 38.0237 33.3395 37.731 33.3395 37.365V36.9112C33.3395 34.9423 31.7659 33.3394 29.8336 33.3394L29.8556 33.3321Z" fill="black"/>
<path id="Vector_8" d="M41.5372 31.0192C39.6049 31.0192 38.0312 32.5928 38.0312 34.5178C38.0312 36.4428 39.6049 38.0164 41.5372 38.0164C43.4695 38.0164 45.0431 36.4428 45.0431 34.5178C45.0431 32.5928 43.4695 31.0192 41.5372 31.0192ZM41.5372 36.7136C40.3295 36.7136 39.3487 35.7328 39.3487 34.5251C39.3487 33.3174 40.3295 32.3366 41.5372 32.3366C42.7449 32.3366 43.7257 33.3174 43.7257 34.5251C43.7257 35.7328 42.7449 36.7136 41.5372 36.7136Z" fill="black"/>
<path id="Vector_9" d="M6.49227 26.3495C4.55998 26.3495 2.98633 27.9305 2.98633 29.8701V34.5032C2.98633 36.4428 4.55998 38.0238 6.49227 38.0238C8.42457 38.0238 9.99822 36.4428 9.99822 34.5032V29.8701C9.99822 27.9305 8.42457 26.3495 6.49227 26.3495ZM8.68075 34.5032C8.68075 35.7182 7.69996 36.7063 6.49227 36.7063C5.28459 36.7063 4.3038 35.7182 4.3038 34.5032V29.8701C4.3038 28.6551 5.28459 27.667 6.49227 27.667C7.69996 27.667 8.68075 28.6551 8.68075 29.8701V34.5032Z" fill="black"/>
</g>
</g>
</g>
</g>
</svg>
