<svg width="60" height="60" viewBox="0 0 60 60" fill="none" xmlns="http://www.w3.org/2000/svg">
<g id="arrow-03-svgrepo-com 1">
<path id="Vector" d="M5.27002 1.07447C7.76301 -0.556994 10.256 -0.0417945 12.4911 0.731007C15.5859 1.84728 18.5946 3.30701 21.3455 5.02435C33.8105 13.2676 41.2894 25.0314 44.3842 39.5428C45.1579 43.2353 45.4158 47.0992 45.9318 51.3065C49.37 49.3318 51.1753 45.4678 54.6139 43.2353C55.0441 44.9526 54.1842 46.0687 53.4966 47.0132C50.6596 50.8772 47.737 54.7411 44.7281 58.5195C43.2666 60.3227 42.1491 60.4942 40.6017 58.9488C37.335 55.7716 35.3579 51.9077 34.7561 47.4426C34.7561 47.2707 35.014 47.0132 35.3578 46.5839C39.0544 47.5285 38.1947 52.2511 41.3754 53.9684C42.7508 48.0438 41.7193 42.3766 40.1719 36.8809C38.5386 31.1279 36.3894 25.6324 32.9508 20.738C29.5982 15.9294 25.3859 12.0654 20.7438 8.45903C16.1876 4.76676 11.0297 2.44835 5.27002 1.07447Z" fill="#9E9E9E"/>
</g>
</svg>
