<svg width="400" height="400" viewBox="0 0 400 400" fill="none" xmlns="http://www.w3.org/2000/svg">
<path d="M302.379 266.52L254.467 224.265C255.242 224.265 255.965 224.265 256.689 224.265C298.427 224.497 298.427 179.711 298.427 179.711C297.807 125.705 252.169 124 252.169 124L174.142 124.232C174.142 124.232 130.518 120.152 130.466 174.158C130.466 196.216 139.145 208.897 147.513 216C154.125 221.605 161.383 224.317 168.718 224.291C169.157 224.291 169.648 224.291 170.113 224.291L115.434 286.046C106.704 295.887 108.719 311.306 119.851 318.331C132.248 326.157 149.527 329.98 166.729 310.557C166.729 310.557 173.212 300.226 186.333 311.874C199.453 323.497 216.113 323.962 235.69 301.853C235.69 301.853 241.063 292.116 252.117 301.904C261.157 309.911 285.306 319.416 304.367 298.082C312.607 288.887 311.677 274.707 302.43 266.546L302.379 266.52Z" fill="#00DC00"/>
<path d="M193.435 198.179C185.738 196.268 178.997 185.239 178.997 167.599C178.997 150.991 182.819 141.28 190.955 139.265C201.519 136.682 210.326 146.264 208.57 174.417C207.563 190.534 200.356 199.935 193.435 198.179Z" fill="white"/>
<path d="M197.464 192.264C191.781 190.74 186.797 181.907 186.797 167.805C186.797 154.529 189.612 146.755 195.63 145.154C203.43 143.087 209.939 150.758 208.621 173.255C207.872 186.143 202.578 193.659 197.464 192.264Z" fill="#020202"/>
<path d="M227.089 198.179C220.038 196.268 213.84 185.239 213.84 167.599C213.84 150.991 217.352 141.28 224.817 139.265C234.502 136.682 242.586 146.264 240.959 174.417C240.029 190.534 233.443 199.935 227.089 198.179Z" fill="white"/>
<path d="M229.853 192.264C224.171 190.741 219.186 181.907 219.186 167.805C219.186 154.529 222.001 146.755 228.019 145.154C235.819 143.088 242.328 150.759 241.011 173.255C240.262 186.143 234.967 193.659 229.853 192.264Z" fill="#020202"/>
</svg>
