<svg width="58" height="41" viewBox="0 0 58 41" fill="none" xmlns="http://www.w3.org/2000/svg">
<path d="M46.4757 29.3038L36.8935 20.8528C37.0484 20.8528 37.1931 20.8528 37.3377 20.8528C45.6854 20.8993 45.6854 11.9421 45.6854 11.9421C45.5614 1.14074 36.4337 0.799805 36.4337 0.799805L20.8283 0.846295C20.8283 0.846295 12.1036 0.0301251 12.0933 10.8315C12.0933 15.2429 13.8289 17.7792 15.5026 19.1998C16.825 20.3207 18.2765 20.8631 19.7436 20.858C19.8314 20.858 19.9295 20.858 20.0225 20.858L9.08685 33.209C7.34087 35.1771 7.74379 38.261 9.97018 39.666C12.4497 41.2312 15.9055 41.9957 19.3458 38.1112C19.3458 38.1112 20.6424 36.0449 23.2665 38.3746C25.8907 40.6992 29.2225 40.7922 33.1381 36.3704C33.1381 36.3704 34.2125 34.4229 36.4234 36.3807C38.2314 37.9821 43.0612 39.883 46.8735 35.6162C48.5213 33.7772 48.3354 30.9413 46.4861 29.3089L46.4757 29.3038Z" fill="#00DC00"/>
<path d="M24.6869 15.6356C23.1475 15.2533 21.7993 13.0476 21.7993 9.51946C21.7993 6.19795 22.5638 4.25568 24.191 3.85276C26.3037 3.33619 28.0652 5.25264 27.714 10.8832C27.5125 14.1065 26.0713 15.9868 24.6869 15.6356Z" fill="white"/>
<path d="M25.4928 14.453C24.3563 14.1483 23.3594 12.3816 23.3594 9.56117C23.3594 6.90604 23.9224 5.35118 25.126 5.03091C26.686 4.61766 27.9878 6.15185 27.7243 10.6511C27.5745 13.2288 26.5156 14.732 25.4928 14.453Z" fill="#020202"/>
<path d="M31.4178 15.6356C30.0076 15.2533 28.7678 13.0476 28.7678 9.51946C28.7678 6.19795 29.4703 4.25568 30.9632 3.85276C32.9003 3.33619 34.5172 5.25264 34.1917 10.8832C34.0058 14.1065 32.6885 15.9868 31.4178 15.6356Z" fill="white"/>
<path d="M31.9706 14.453C30.8341 14.1483 29.8372 12.3816 29.8372 9.56117C29.8372 6.90604 30.4002 5.35118 31.6038 5.03091C33.1638 4.61766 34.4656 6.15185 34.2021 10.6511C34.0523 13.2288 32.9934 14.732 31.9706 14.453Z" fill="#020202"/>
<path d="M0.316104 14.6836L2.33823 15.0376C2.45903 15.0587 2.56407 15.138 2.62185 15.2489L3.50948 17.0612C3.64604 17.3413 4.04521 17.3518 4.18703 17.0824L5.11142 15.3335C5.1692 15.2278 5.27424 15.1538 5.4003 15.1433L7.42767 14.9266C7.73756 14.8949 7.86361 14.5304 7.64302 14.3084L6.19339 12.8713C6.1041 12.7815 6.06734 12.6599 6.08835 12.5437L6.456 10.594C6.51378 10.2982 6.19339 10.0551 5.90977 10.1872L4.08723 11.0484C3.97693 11.1013 3.84563 11.096 3.73533 11.0379L1.9338 10.0498C1.66068 9.8966 1.32979 10.1185 1.38231 10.4197L1.70795 12.3905C1.72896 12.512 1.68695 12.6282 1.59766 12.7128L0.116518 14.0495C-0.10933 14.2556 0.0114727 14.6307 0.321356 14.6836H0.316104Z" fill="#FFE400"/>
<path d="M18.6546 23.9855L15.6831 24.6127C15.5002 24.6505 15.3172 24.6009 15.1897 24.474L13.071 22.4133C12.7481 22.0956 12.1863 22.2996 12.1194 22.7605L11.6967 25.7422C11.6702 25.9231 11.5581 26.0864 11.3923 26.1741L8.69142 27.6076C8.2767 27.8269 8.28054 28.4132 8.69482 28.6005L11.4073 29.8178C11.5705 29.8916 11.6867 30.0436 11.7131 30.2212L12.1635 33.1668C12.2327 33.62 12.7944 33.7745 13.1163 33.4319L15.2135 31.2011C15.3403 31.0656 15.5257 31.0018 15.7074 31.0206L18.6846 31.4084C19.1375 31.4686 19.4825 30.9797 19.268 30.5814L17.8526 27.986C17.7632 27.828 17.7645 27.6358 17.8506 27.4699L19.2427 24.7636C19.4581 24.3488 19.1055 23.888 18.6546 23.9855Z" fill="#FFE400"/>
<path d="M56.785 21.9155L53.21 19.5714C52.9954 19.4295 52.8605 19.1951 52.8605 18.9422L52.8359 14.7721C52.8359 14.1368 52.0694 13.779 51.5482 14.1676L48.1326 16.7214C47.9241 16.8757 47.6543 16.925 47.4029 16.8448L43.2822 15.5802C42.6505 15.389 42.0619 15.975 42.2888 16.5734L43.7543 20.4967C43.8463 20.7373 43.8034 21.0025 43.6501 21.2061L41.1298 24.5927C40.7435 25.1109 41.1421 25.8326 41.8043 25.808L46.1274 25.6784C46.3911 25.6723 46.6425 25.7895 46.7958 25.993L49.359 29.3488C49.7515 29.8608 50.5855 29.7189 50.7694 29.1082L51.9774 25.1047C52.051 24.8642 52.2411 24.6668 52.4925 24.5866L56.5949 23.2788C57.2204 23.0814 57.3369 22.2733 56.7911 21.9093L56.785 21.9155Z" fill="#FFE400"/>
</svg>
