<svg width="200" height="172" viewBox="0 0 200 172" fill="none" xmlns="http://www.w3.org/2000/svg">
<g id="Logo 2" clip-path="url(#clip0_6778_3970)">
<g id="&#235;&#160;&#136;&#236;&#157;&#180;&#236;&#150;&#180; 3">
<g id="Group">
<path id="Vector" d="M192.376 117.72H102.736V110.693C102.736 106.507 99.3272 103.099 95.1413 103.099H54.1187V89.1357H192.376C196.561 89.1357 199.97 85.7271 199.97 81.5411V8.52571C199.97 4.33973 196.561 0.931152 192.376 0.931152H153.476C149.29 0.931152 145.881 4.33973 145.881 8.52571V20.366H104.859C100.673 20.366 97.2642 23.7746 97.2642 27.9606V34.9871H7.59456C3.40858 34.9871 0 38.3956 0 42.5816V164.184C0 168.37 3.40858 171.779 7.59456 171.779H192.376C196.561 171.779 199.97 168.37 199.97 164.184V125.285C199.97 121.099 196.561 117.69 192.376 117.69V117.72Z" fill="black"/>
<g id="Group_2">
<path id="Vector_2" d="M161.213 76.6357C162.738 76.6357 163.964 75.4098 163.964 73.8849V60.5197H182.173V73.8849C182.173 75.4098 183.399 76.6357 184.924 76.6357C186.449 76.6357 187.674 75.4098 187.674 73.8849V57.9184C187.674 57.9184 187.674 57.7988 187.674 57.7689C187.674 57.739 187.674 57.6493 187.674 57.6194V42.9087C187.674 34.6862 181.126 28.0186 173.083 28.0186C165.04 28.0186 158.492 34.6862 158.492 42.9087V73.9148C158.492 75.4397 159.718 76.6656 161.243 76.6656L161.213 76.6357ZM173.053 33.5201C178.077 33.5201 182.173 37.736 182.173 42.9087V55.048H163.964V42.9087C163.964 37.736 168.06 33.5201 173.083 33.5201H173.053Z" fill="white"/>
<path id="Vector_3" d="M61.1561 73.9144C61.1561 74.3031 61.2458 74.6619 61.3654 74.9908C61.6943 75.7682 62.3521 76.3363 63.1893 76.5755C63.4285 76.6353 63.6677 76.6951 63.9069 76.6951C63.9069 76.6951 64.0265 76.6951 64.0564 76.6951C64.176 76.6951 64.3255 76.6951 64.4451 76.6652C64.6245 76.6353 64.774 76.5755 64.9235 76.5157C65.073 76.4559 65.2225 76.3662 65.372 76.2765C65.8205 75.9775 66.1494 75.5589 66.3587 75.0805C66.4185 74.9609 66.4484 74.8413 66.4783 74.7217C66.4783 74.6619 66.5082 74.632 66.5082 74.5722C66.5082 74.4227 66.5381 74.3031 66.5381 74.1536C66.5381 74.1237 66.5381 74.0639 66.5381 74.034V73.8845V72.1503C66.5381 66.9776 70.6344 62.7618 75.6575 62.7618C80.6807 62.7618 84.777 66.9776 84.777 72.1503V74.034C84.777 75.5589 86.0029 76.7848 87.5278 76.7848C89.0527 76.7848 90.2785 75.5589 90.2785 74.034V72.1503C90.2785 63.9278 83.7305 57.2602 75.6874 57.2602C72.2489 57.2602 69.0796 58.4861 66.568 60.5193V50.3533C66.568 48.8284 65.3421 47.6025 63.8172 47.6025C62.2923 47.6025 61.0664 48.8284 61.0664 50.3533V73.735V74.034L61.1561 73.9144Z" fill="white"/>
<path id="Vector_4" d="M109.797 73.9119C109.797 75.4367 111.023 76.6626 112.548 76.6626C112.548 76.6626 112.637 76.6626 112.697 76.6626C112.847 76.6626 112.966 76.6626 113.116 76.6327C113.205 76.6327 113.265 76.5729 113.355 76.5729C113.445 76.5729 113.564 76.5131 113.654 76.4832C113.684 76.4832 113.744 76.4234 113.774 76.4234C114.7 75.9749 115.328 75.048 115.328 73.9717V67.304C115.328 62.1313 119.425 57.9154 124.448 57.9154C129.471 57.9154 133.567 62.1313 133.567 67.304V73.9717C133.567 75.4965 134.793 76.7224 136.318 76.7224C137.843 76.7224 139.069 75.4965 139.069 73.9717V67.304C139.069 59.0815 132.521 52.4139 124.478 52.4139C121.039 52.4139 117.87 53.6398 115.358 55.673V40.5735C115.358 39.0486 114.132 37.8228 112.607 37.8228C111.083 37.8228 109.857 39.0486 109.857 40.5735V70.4435V73.9717L109.797 73.9119Z" fill="white"/>
<path id="Vector_5" d="M41.6471 62.4352C41.6471 54.2127 35.099 47.5151 27.056 47.5151C19.0129 47.5151 12.4648 54.2127 12.4648 62.4352V64.5879C12.4648 64.5879 12.4648 64.6178 12.4648 64.6477C12.4648 64.6776 12.4648 64.6776 12.4648 64.7075V73.9466C12.4648 75.4715 13.6907 76.6974 15.2156 76.6974C16.7405 76.6974 17.9664 75.4715 17.9664 73.9466V67.3985H36.1754V73.9466C36.1754 75.4715 37.4013 76.6974 38.9262 76.6974C40.4511 76.6974 41.677 75.4715 41.677 73.9466V64.7374C41.677 64.7374 41.677 64.6776 41.677 64.6477C41.677 64.6178 41.677 64.5879 41.677 64.558V62.4352H41.6471ZM27.056 53.0167C31.8997 53.0167 35.8764 56.9635 36.1455 61.897H17.9664C18.2355 56.9635 22.2122 53.0167 27.056 53.0167Z" fill="white"/>
<path id="Vector_6" d="M75.7187 135.031C72.2802 135.031 69.1108 136.257 66.5992 138.29V123.191C66.5992 121.666 65.3733 120.44 63.8484 120.44C62.3235 120.44 61.0977 121.666 61.0977 123.191V152.851V156.589C61.0977 158.114 62.3235 159.34 63.8484 159.34C64.2371 159.34 64.5959 159.25 64.9248 159.13C65.9115 158.712 66.5992 157.725 66.5992 156.619V149.951C66.5992 144.778 70.6955 140.563 75.7187 140.563C80.7418 140.563 84.8381 144.778 84.8381 149.951V156.619C84.8381 158.144 86.064 159.37 87.5889 159.37C89.1138 159.37 90.3397 158.144 90.3397 156.619V149.951C90.3397 141.729 83.7916 135.061 75.7486 135.061L75.7187 135.031Z" fill="white"/>
<path id="Vector_7" d="M124.418 139.814C120.979 139.814 117.81 141.04 115.298 143.073V132.908C115.298 131.383 114.073 130.157 112.548 130.157C111.023 130.157 109.797 131.383 109.797 132.908V156.289V156.588C109.797 156.977 109.887 157.336 110.006 157.665C110.335 158.442 110.993 159.01 111.83 159.249C112.069 159.309 112.308 159.369 112.548 159.369C112.548 159.369 112.667 159.369 112.697 159.369C112.817 159.369 112.966 159.369 113.086 159.339C113.265 159.309 113.415 159.249 113.564 159.189C113.714 159.13 113.863 159.04 114.013 158.95C114.461 158.651 114.79 158.233 114.999 157.754C115.059 157.635 115.089 157.515 115.119 157.395C115.119 157.336 115.149 157.306 115.149 157.246C115.149 157.096 115.179 156.977 115.179 156.827C115.179 156.797 115.179 156.738 115.179 156.708V156.558V154.824C115.179 149.651 119.275 145.436 124.298 145.436C129.321 145.436 133.418 149.651 133.418 154.824V156.708C133.418 158.233 134.644 159.459 136.169 159.459C137.693 159.459 138.919 158.233 138.919 156.708V154.824C138.919 146.602 132.371 139.934 124.328 139.934L124.418 139.814Z" fill="white"/>
<path id="Vector_8" d="M173.083 130.188C165.04 130.188 158.492 136.736 158.492 144.779C158.492 152.822 165.04 159.37 173.083 159.37C181.126 159.37 187.674 152.822 187.674 144.779C187.674 136.736 181.126 130.188 173.083 130.188ZM173.083 153.898C168.06 153.898 163.964 149.802 163.964 144.779C163.964 139.755 168.06 135.659 173.083 135.659C178.106 135.659 182.203 139.755 182.203 144.779C182.203 149.802 178.106 153.898 173.083 153.898Z" fill="white"/>
<path id="Vector_9" d="M27.056 110.723C19.0129 110.723 12.4648 117.301 12.4648 125.374V144.659C12.4648 152.732 19.0129 159.31 27.056 159.31C35.099 159.31 41.6471 152.732 41.6471 144.659V125.374C41.6471 117.301 35.099 110.723 27.056 110.723ZM36.1754 144.689C36.1754 149.742 32.0791 153.869 27.056 153.869C22.0328 153.869 17.9365 149.742 17.9365 144.689V125.404C17.9365 120.351 22.0328 116.225 27.056 116.225C32.0791 116.225 36.1754 120.351 36.1754 125.404V144.689Z" fill="white"/>
</g>
</g>
</g>
</g>
<defs>
<clipPath id="clip0_6778_3970">
<rect width="200" height="170.878" fill="white" transform="translate(0 0.927246)"/>
</clipPath>
</defs>
</svg>
