<svg width="60" height="63" viewBox="0 0 60 63" fill="none" xmlns="http://www.w3.org/2000/svg">
<path d="M17.7091 0.524268C15.4393 1.60618 14.7008 3.63018 14.2605 5.58121C13.6838 8.30297 13.3904 11.1134 13.3951 13.8509C13.7456 26.4579 18.8196 37.0141 27.7988 45.6143C30.0897 47.7927 32.7317 49.6744 35.5042 51.8929C32.5701 53.5059 29.0128 53.1121 25.8945 54.6122C26.9288 55.6761 28.1065 55.5457 29.0854 55.4644C33.1004 55.1141 37.1535 54.7021 41.1838 54.1903C43.1186 53.9276 43.7367 53.197 43.3207 51.4028C42.5035 47.6527 40.6242 44.5311 37.7058 42.1376C37.5832 42.0621 37.2851 42.1351 36.8263 42.1947C35.8602 45.2751 39.6106 46.7276 39.4246 49.7751C34.5879 48.1671 31.0027 44.9361 27.7687 41.4084C24.3892 37.7057 21.4223 33.7441 19.4562 29.1163C17.5133 24.5883 16.6255 19.8547 16.1122 14.9243C15.4996 10.0181 16.134 5.28093 17.7091 0.524268Z" fill="white"/>
</svg>
