<svg width="40" height="40" viewBox="0 0 40 40" fill="none" xmlns="http://www.w3.org/2000/svg">
<g clip-path="url(#clip0_6825_6919)">
<mask id="mask0_6825_6919" style="mask-type:luminance" maskUnits="userSpaceOnUse" x="0" y="0" width="40" height="40">
<path d="M19.9923 39.961C31.0338 39.961 39.9847 31.0154 39.9847 19.9805C39.9847 8.94557 31.0338 0 19.9923 0C8.95087 0 0 8.94557 0 19.9805C0 31.0154 8.95087 39.961 19.9923 39.961Z" fill="white"/>
</mask>
<g mask="url(#mask0_6825_6919)">
<path d="M23.7005 26.5208C23.9349 25.0178 23.5457 23.4883 23.1732 22.0272C22.6514 19.9833 23.229 16.4183 24.1344 14.5124C25.0397 12.6065 26.4641 17.5127 26.3399 17.5852C25.3313 18.1722 25.4234 20.64 25.5224 21.8013C25.6047 22.7717 25.6884 23.7435 25.7707 24.7138C25.8265 25.3594 25.8628 26.0718 25.4722 26.5905C25.0816 27.1077 23.9014 27.282 23.7117 26.6616L23.7005 26.5221V26.5208Z" fill="black"/>
<path d="M16.6681 26.1276C17.0573 25.9757 17.141 25.464 16.8201 25.1963C15.6315 24.2064 13.4092 22.0412 13.0549 19.4619C12.5666 15.9136 14.1751 12.5508 12.1774 12.4657C9.93419 12.3709 9.32735 13.2242 9.05532 14.0259C8.78607 14.8206 6.53448 20.5354 15.7138 26.2587C15.8617 26.3507 16.0473 26.3674 16.2091 26.3047L16.6667 26.1262L16.6681 26.1276Z" fill="black"/>
<path d="M12.3712 28.0558C12.3712 28.0558 10.1363 27.5093 7.59315 27.777C5.04999 28.0447 1.99485 29.6006 1.92091 32.3709C1.84697 35.1412 4.54777 38.5905 9.64525 38.1611C13.543 37.8335 15.6286 37.9548 17.2259 38.9502C18.8232 39.9457 23 41.5755 26.828 40.2036C30.656 38.8317 31.4037 37.9743 34.7086 38.097C38.0134 38.2197 39.9832 35.8383 39.4057 33.793C38.8281 31.7477 36.6783 29.7498 33.4753 29.3552C30.2737 28.9607 29.4506 29.6062 27.1767 29.7512C24.9014 29.8962 13.55 28.7488 12.3698 28.0558H12.3712Z" fill="#F878F3"/>
<path d="M20.9505 23.0282C20.9505 23.0282 26.115 23.4535 28.0373 27.275C29.9597 31.0965 28.7362 32.5368 26.8725 33.5894C25.0087 34.642 20.8138 36.0265 15.9214 34.7522C11.0276 33.4779 10.6788 31.3182 10.9704 29.7678C11.262 28.2175 12.3292 25.4291 15.2811 24.0627C18.4325 22.6044 20.9505 23.0282 20.9505 23.0282Z" fill="#FAE161"/>
<path d="M25.1147 27.9875C24.9501 28.0502 24.1828 28.2789 23.9456 29.3524C23.7085 30.426 24.5274 30.7452 25.2081 30.4594C25.8889 30.1736 26.3144 29.3524 26.1582 28.6678C26.0019 27.9833 25.3965 27.8801 25.1133 27.9875H25.1147Z" fill="#ED794E"/>
<path d="M14.2364 31.3587C14.3564 31.5232 14.8432 32.3109 16.0792 32.2482C17.3152 32.1854 17.4045 31.1732 16.8814 30.5012C16.3582 29.8292 15.3371 29.6019 14.6451 29.9854C13.9532 30.3688 14.0299 31.077 14.2364 31.3587Z" fill="#ED794E"/>
<path d="M20.828 28.8938C20.8908 28.8729 20.9605 28.8589 21.0233 28.8812C21.0958 28.9077 21.1433 28.9788 21.1726 29.0499C21.2381 29.2103 21.2367 29.3943 21.1935 29.563C21.1502 29.7317 21.0679 29.8879 20.9773 30.0356C20.9452 30.0886 20.9131 30.1639 20.9591 30.2057C20.9842 30.228 21.0205 30.228 21.0526 30.228C21.1879 30.228 21.3246 30.2392 21.4572 30.2643C21.5799 30.288 21.7069 30.3242 21.7989 30.4093C21.9287 30.5292 21.9649 30.73 21.905 30.8959C21.845 31.0618 21.7027 31.1901 21.5395 31.2542C21.3762 31.3183 21.1935 31.3225 21.0191 31.2932C20.814 31.2584 20.6062 31.1664 20.4932 30.9907C20.4039 30.8527 20.3844 30.6798 20.309 30.5334C20.2086 30.3368 20.0077 30.182 19.9896 29.9618C19.9728 29.7624 20.1235 29.6369 20.1946 29.4682C20.2658 29.2995 20.3955 29.1433 20.5476 29.0346C20.6327 28.9746 20.7262 28.9259 20.8252 28.8938H20.828Z" fill="#F2A9A7"/>
<path d="M20.6285 30.0732C20.9354 29.8041 21.1293 29.5797 21.0442 29.2046C20.9577 28.8282 20.5825 29.153 20.4151 29.411C20.2491 29.6675 20.1542 30.0607 19.8403 29.9408C19.4204 29.7804 20.1974 28.9063 20.1974 28.9063C20.8071 28.3486 21.2284 28.5326 21.506 29.1224C21.7836 29.7121 21.1558 30.0509 21.1558 30.0509C21.1558 30.0509 21.6329 29.9003 21.9608 30.2601C22.2886 30.6198 22.1784 31.1203 21.8478 31.3754C21.5171 31.6306 21.0554 31.5804 20.8308 31.4939C20.6062 31.4075 20.3453 31.2946 20.5141 31.0924C20.6829 30.8902 20.8922 31.2221 21.1614 31.2388C21.432 31.2555 21.7892 31.1175 21.7934 30.7801C21.7975 30.4427 21.326 30.3493 21.0191 30.4399C21.0191 30.4399 20.8908 30.4873 20.7122 30.3256C20.5336 30.1639 20.6201 30.083 20.6285 30.0746V30.0732Z" fill="#211816"/>
<path d="M19.6912 29.5434C19.9772 29.7219 20.192 29.9965 20.358 30.2907C20.4682 30.4873 20.5603 30.695 20.6021 30.9167C20.644 31.1384 20.6314 31.3726 20.5422 31.5789C20.5101 31.6542 20.4654 31.7267 20.3971 31.7714C20.3287 31.816 20.2338 31.8271 20.1669 31.7797C20.0692 31.71 20.0804 31.565 20.0916 31.4451C20.1195 31.1746 20.1027 30.8972 20.0079 30.642C19.913 30.3869 19.7344 30.1596 19.4931 30.0356C19.3382 29.9561 19.1639 29.9212 19.009 29.8404C18.8263 29.7456 18.5528 29.4319 18.889 29.3719C19.1652 29.3217 19.4554 29.397 19.6912 29.5434Z" fill="#211816"/>
<path d="M20.9505 23.0282C20.9505 23.0282 26.115 23.4535 28.0373 27.275C29.9597 31.0965 28.7362 32.5368 26.8725 33.5894C25.0087 34.642 20.8138 36.0265 15.9214 34.7522C11.0276 33.4779 10.6788 31.3182 10.9704 29.7678C11.262 28.2175 12.3292 25.4291 15.2811 24.0627C18.4325 22.6044 20.9505 23.0282 20.9505 23.0282Z" fill="#FFE240"/>
<path d="M25.1147 27.9875C24.9501 28.0502 24.1828 28.2789 23.9456 29.3524C23.7085 30.426 24.5274 30.7452 25.2081 30.4594C25.8889 30.1736 26.3144 29.3524 26.1582 28.6678C26.0019 27.9833 25.3965 27.8801 25.1133 27.9875H25.1147Z" fill="#FF7140"/>
<path d="M14.2364 31.3587C14.3564 31.5232 14.8432 32.3109 16.0792 32.2482C17.3152 32.1854 17.4045 31.1732 16.8814 30.5012C16.3582 29.8292 15.3371 29.6019 14.6451 29.9854C13.9532 30.3688 14.0299 31.077 14.2364 31.3587Z" fill="#FF7140"/>
<path d="M21.1346 28.7016C21.2164 28.6744 21.3072 28.6562 21.3889 28.6853C21.4833 28.7197 21.5451 28.8123 21.5832 28.9049C21.6686 29.1136 21.6667 29.3532 21.6104 29.5728C21.5541 29.7924 21.447 29.9957 21.3289 30.1881C21.2872 30.257 21.2454 30.355 21.3053 30.4095C21.338 30.4385 21.3852 30.4385 21.427 30.4385C21.6032 30.4385 21.7811 30.4531 21.9537 30.4857C22.1135 30.5166 22.2787 30.5638 22.3986 30.6745C22.5675 30.8306 22.6147 31.0919 22.5366 31.3079C22.4585 31.5239 22.2733 31.6909 22.0608 31.7744C21.8483 31.8579 21.6104 31.8633 21.3834 31.8252C21.1165 31.7798 20.8459 31.66 20.6988 31.4313C20.5825 31.2516 20.5571 31.0266 20.4591 30.836C20.3283 30.5801 20.0668 30.3786 20.0432 30.0919C20.0214 29.8323 20.2175 29.669 20.3101 29.4494C20.4028 29.2298 20.5717 29.0265 20.7696 28.8849C20.8804 28.8069 21.0021 28.7433 21.131 28.7016H21.1346Z" fill="#F2A9A7"/>
<path d="M20.9165 30.2425C21.2707 29.9321 21.4959 29.6744 21.396 29.2388C21.2961 28.805 20.8621 29.1807 20.6714 29.4765C20.4789 29.7724 20.3699 30.2261 20.0085 30.0882C19.5236 29.9031 20.4208 28.8957 20.4208 28.8957C21.1236 28.2514 21.6103 28.4656 21.9317 29.1444C22.2532 29.8232 21.5267 30.2152 21.5267 30.2152C21.5267 30.2152 22.077 30.041 22.4566 30.4566C22.8361 30.8723 22.7072 31.4494 22.3258 31.7434C21.9444 32.0375 21.4105 31.9794 21.1526 31.8796C20.8929 31.7797 20.5915 31.6509 20.7858 31.4167C20.9892 31.1717 21.2216 31.5674 21.534 31.5855C21.8464 31.6037 22.2586 31.4458 22.2641 31.0556C22.2695 30.6653 21.7247 30.5583 21.3706 30.6635C21.3706 30.6635 21.2235 30.718 21.0164 30.531C20.8094 30.3441 20.9093 30.2497 20.9202 30.2425H20.9165Z" fill="#211816"/>
<path d="M19.6541 29.5473C20.0264 29.7797 20.3061 30.1372 20.5222 30.5202C20.6657 30.7761 20.7855 31.0465 20.84 31.3351C20.8945 31.6237 20.8781 31.9286 20.7619 32.1972C20.7201 32.2952 20.662 32.3896 20.573 32.4477C20.4841 32.5058 20.3606 32.5203 20.2734 32.4586C20.1463 32.3678 20.1608 32.1791 20.1753 32.023C20.2116 31.6709 20.1898 31.3097 20.0664 30.9775C19.9429 30.6454 19.7104 30.3496 19.3962 30.188C19.1946 30.0846 18.9676 30.0392 18.7661 29.9339C18.5282 29.8105 18.1722 29.4021 18.6099 29.3241C18.9695 29.2588 19.3472 29.3568 19.6541 29.5473Z" fill="#211816"/>
<path d="M17.8566 27.9956C17.8657 27.8975 17.8548 27.7886 17.7767 27.7197C17.6932 27.6453 17.5515 27.6434 17.4444 27.6906C17.3372 27.7378 17.2555 27.8249 17.1901 27.9157C17.0212 28.148 16.925 28.4166 16.8305 28.6798C16.7615 28.5255 16.6907 28.3713 16.6217 28.2188C16.5545 28.0718 16.4837 27.9193 16.3493 27.8177C16.2149 27.716 15.997 27.6834 15.8608 27.7886C15.7427 27.8794 15.7246 28.0355 15.73 28.1734C15.7355 28.3658 15.7681 28.5564 15.8244 28.7397C15.8426 28.7978 15.8553 28.8776 15.7954 28.9085C15.7409 28.9375 15.6755 28.8958 15.6301 28.8595C15.4975 28.7524 15.3559 28.6508 15.2106 28.5582C15.1271 28.5056 15.0199 28.4511 14.9237 28.491C14.8619 28.5165 14.8238 28.5745 14.8147 28.6326C14.8056 28.6907 14.8256 28.7506 14.8547 28.8032C14.98 29.0246 15.2887 29.1481 15.345 29.3913C15.3559 29.4385 15.3577 29.4893 15.385 29.531C15.4431 29.62 15.5847 29.62 15.7009 29.6091C16.2785 29.5528 16.8596 29.4802 17.4044 29.2914C17.4952 29.2606 17.5951 29.2188 17.655 29.1481C17.7095 29.0845 17.6623 28.9992 17.6623 28.9248C17.6605 28.7252 17.7313 28.5292 17.7876 28.335C17.8203 28.2224 17.8493 28.1099 17.8584 27.9956H17.8566Z" fill="black"/>
<path d="M24.7955 27.1062C24.8173 27.0154 24.8264 26.9102 24.7683 26.8339C24.7065 26.7504 24.5812 26.7268 24.4777 26.7541C24.3742 26.7813 24.2906 26.8521 24.218 26.9265C24.0328 27.1207 23.9056 27.3566 23.7821 27.5908C23.744 27.4347 23.7059 27.2786 23.6677 27.1225C23.6314 26.9737 23.5933 26.8194 23.4898 26.7014C23.3862 26.5835 23.1992 26.5181 23.0612 26.598C22.9431 26.6651 22.9032 26.8085 22.8868 26.9392C22.8632 27.1207 22.8614 27.3058 22.8832 27.4891C22.8905 27.5472 22.8886 27.6234 22.8305 27.6434C22.7779 27.6616 22.727 27.6126 22.6907 27.5708C22.589 27.4492 22.4818 27.3312 22.3656 27.2205C22.2984 27.157 22.2131 27.0898 22.1223 27.1116C22.0642 27.1243 22.0206 27.1733 22.0042 27.2278C21.9879 27.2822 21.9951 27.3421 22.0133 27.3948C22.0896 27.6234 22.3438 27.7868 22.3565 28.0264C22.3584 28.0736 22.3529 28.1208 22.3693 28.1643C22.4074 28.2569 22.5327 28.2787 22.6362 28.2859C23.1556 28.3222 23.6804 28.3458 24.1908 28.2532C24.2761 28.2369 24.3705 28.2151 24.4359 28.1571C24.494 28.1062 24.4668 28.0173 24.4759 27.9483C24.5049 27.7596 24.5976 27.5853 24.6756 27.4129C24.721 27.3131 24.7646 27.2096 24.7901 27.1044L24.7955 27.1062Z" fill="black"/>
<path d="M15.2727 24.0321C18.4241 22.5738 20.9421 22.9976 20.9421 22.9976C20.9421 22.9976 24.8078 23.3169 27.0943 25.8781C27.0817 25.8781 27.0678 25.8781 27.0566 25.8781C21.9759 27.0813 17.0263 26.295 12.1548 26.8011C12.8272 25.7442 13.8023 24.7097 15.2713 24.0294L15.2727 24.0321Z" fill="#FFE240"/>
<path d="M21.5659 23.0841C21.5659 23.0841 22.1002 24.8617 19.8863 25.6174C19.1344 25.867 18.5513 25.8391 18.6043 25.3399C18.6573 24.8408 19.6282 23.837 18.4634 23.0618C18.4634 23.0618 19.7133 22.7411 21.5646 23.0841H21.5659Z" fill="black"/>
<path d="M26.1219 17.8265C27.143 17.2883 27.9005 16.2942 27.6118 15.6752C27.4862 15.3531 27.2295 14.9293 26.4134 14.9934C26.4134 14.9934 28.3651 14.4957 28.7543 13.1252C29.0208 12.1869 28.008 11.9484 26.1623 12.5075C24.8845 12.8937 24.1688 14.1276 24.1214 14.6072C24.0572 15.2583 25.1384 18.3451 26.1205 17.8279L26.1219 17.8265Z" fill="#55EBB0"/>
<path d="M13.4118 13.9394C13.8024 12.6135 13.5387 11.1858 12.7296 11.0756C12.325 10.9934 11.7321 10.978 11.2718 11.8411C11.2718 11.8411 12.0279 9.55176 10.8979 8.27187C10.1237 7.39491 9.23363 8.26211 8.60725 10.4831C8.17339 12.0209 8.95601 13.5406 9.40801 13.8989C10.0218 14.3855 13.1969 14.6699 13.4118 13.9394Z" fill="#55EBB0"/>
<path d="M34.3651 13.9602L34.3051 13.6242C34.2661 13.4012 34.0457 13.2589 33.8266 13.3147L31.3365 13.9449L33.1305 12.1017C33.2881 11.94 33.2756 11.6779 33.1012 11.5329L32.8389 11.314C32.666 11.169 32.4051 11.2011 32.2726 11.3851L30.7701 13.4681L30.9598 10.9041C30.9766 10.6783 30.798 10.4872 30.572 10.4872H30.2302C30.0042 10.4872 29.8257 10.6796 29.8424 10.9041L30.0307 13.4639L28.5269 11.3781C28.3943 11.1941 28.1349 11.162 27.9605 11.307L27.6982 11.5259C27.5252 11.6709 27.5113 11.933 27.6689 12.0948L29.4602 13.9351L26.9658 13.3036C26.7468 13.2478 26.5264 13.39 26.4873 13.6131L26.4273 13.9491C26.3883 14.1722 26.5459 14.3813 26.7719 14.4036L29.3276 14.6629L27.0105 15.7811C26.8068 15.8801 26.7301 16.1296 26.8431 16.3262L27.0133 16.6218C27.1263 16.817 27.3815 16.8755 27.5685 16.7487L29.6931 15.3056L28.6371 17.6507C28.545 17.8571 28.6468 18.0983 28.8589 18.1749L29.1798 18.2921C29.3918 18.3687 29.6262 18.2502 29.6875 18.0327L30.3865 15.5622L31.0868 18.0369C31.1482 18.2544 31.3811 18.3743 31.5946 18.2962L31.9154 18.1791C32.1275 18.1024 32.2293 17.8598 32.1372 17.6549L31.084 15.314L33.2114 16.7598C33.3984 16.8867 33.6536 16.8281 33.7666 16.6329L33.9368 16.3374C34.0498 16.1422 33.9731 15.8912 33.7694 15.7922L31.4565 14.6755L34.0164 14.4161C34.241 14.3938 34.4 14.1847 34.3609 13.9616L34.3651 13.9602Z" fill="#E93ACB"/>
<path d="M33.8198 14.5878L31.4385 14.3103L33.6175 13.2995C33.9063 13.1657 34.0207 12.8143 33.8659 12.5369C33.711 12.2594 33.3525 12.1716 33.086 12.3459L31.0828 13.6634L32.1011 11.4898C32.2365 11.2012 32.0983 10.8596 31.7998 10.7467C31.5027 10.6338 31.1706 10.7969 31.08 11.1008L30.3922 13.3971L29.7742 11.0771C29.6919 10.769 29.3669 10.5961 29.0655 10.7007C28.7642 10.8053 28.6163 11.1427 28.7419 11.434L29.6919 13.6341L27.7263 12.2538C27.4654 12.0712 27.1041 12.1479 26.9409 12.4211C26.7777 12.6944 26.8809 13.0485 27.1655 13.1908L29.3083 14.2657L26.9144 14.4706C26.5977 14.4971 26.3703 14.7885 26.4205 15.1022C26.4708 15.4159 26.7777 15.6209 27.0874 15.5484L29.4213 14.9963L27.7193 16.6916C27.4933 16.9161 27.5073 17.2856 27.7472 17.4933C27.9872 17.701 28.3555 17.662 28.5452 17.4069L29.9765 15.4842L29.7631 17.8753C29.7352 18.1918 29.9821 18.4665 30.3001 18.4706C30.6182 18.4762 30.8735 18.2085 30.8554 17.892L30.7159 15.4996L32.09 17.4682C32.2727 17.7289 32.6382 17.7805 32.8852 17.5797C33.1321 17.379 33.1558 17.0109 32.9382 16.7795L31.292 15.0367L33.612 15.6627C33.9189 15.745 34.2328 15.5498 34.2927 15.2375C34.3527 14.9252 34.1351 14.6268 33.8184 14.5905L33.8198 14.5878Z" fill="#EF9AEA"/>
<path d="M21.3106 7.25677L21.2255 6.77577C21.1697 6.45649 20.8544 6.25294 20.5405 6.33241L16.9762 7.23447L19.5445 4.59661C19.7705 4.36517 19.751 3.99013 19.5026 3.78239L19.1288 3.46869C18.8804 3.26096 18.508 3.30696 18.3196 3.56908L16.1699 6.54991L16.4405 2.87894C16.4642 2.55688 16.2089 2.28082 15.8853 2.28082H15.397C15.0734 2.28082 14.8181 2.55548 14.8418 2.87894L15.1124 6.54294L12.9585 3.55653C12.7688 3.29442 12.3963 3.24701 12.1494 3.45615L11.7755 3.76984C11.5272 3.97758 11.5091 4.35263 11.735 4.58406L14.2991 7.21774L10.7292 6.31428C10.4153 6.23481 10.1001 6.43837 10.0443 6.75764L9.95916 7.23865C9.90336 7.55792 10.1294 7.85629 10.4516 7.88835L14.1094 8.25921L10.7934 9.85977C10.5018 10.0006 10.3916 10.3589 10.5534 10.6391L10.7976 11.0616C10.9594 11.3418 11.3249 11.4255 11.5928 11.2428L14.6325 9.17661L13.1217 12.5325C12.9892 12.8281 13.1343 13.1724 13.4398 13.284L13.8988 13.4513C14.2029 13.5614 14.5377 13.3913 14.6256 13.079L15.6258 9.54328L16.6275 13.0846C16.7153 13.3955 17.0502 13.567 17.3543 13.4568L17.8132 13.2895C18.1174 13.1794 18.2638 12.8336 18.1313 12.5381L16.6233 9.18776L19.6686 11.2568C19.9365 11.438 20.302 11.3544 20.4638 11.0755L20.7079 10.6531C20.8698 10.3728 20.7596 10.0145 20.468 9.87371L17.1576 8.27594L20.8209 7.90508C21.1432 7.87302 21.3692 7.57326 21.3134 7.25538L21.3106 7.25677Z" fill="#E93ACB"/>
<path d="M20.531 8.15466L17.1215 7.75591L20.2394 6.30872C20.6524 6.11631 20.8156 5.6144 20.5938 5.21705C20.372 4.8197 19.8586 4.69282 19.4778 4.94378L16.6109 6.82876L18.0688 3.71687C18.2627 3.30418 18.0646 2.81482 17.6377 2.65309C17.2122 2.49136 16.7379 2.72419 16.6068 3.16058L15.6233 6.44674L14.7388 3.12573C14.6216 2.68515 14.1557 2.43838 13.7246 2.58756C13.2935 2.73674 13.0815 3.22053 13.2615 3.6388L14.6216 6.78833L11.8092 4.81272C11.4367 4.55061 10.9192 4.66076 10.6862 5.05114C10.4518 5.44151 10.5997 5.94901 11.0071 6.15396L14.0748 7.69317L10.6485 7.98735C10.1952 8.02639 9.86872 8.44186 9.94126 8.89219C10.0138 9.34113 10.4532 9.63531 10.8955 9.53075L14.2352 8.74023L11.7995 11.1662C11.4772 11.4882 11.4953 12.0152 11.8399 12.3136C12.1845 12.612 12.709 12.5548 12.9824 12.1895L15.0318 9.43873L14.7262 12.8615C14.6858 13.3146 15.0387 13.7078 15.4949 13.7148C15.9511 13.7218 16.3166 13.3411 16.2901 12.8852L16.0906 9.46103L18.0576 12.2787C18.3185 12.6524 18.8416 12.7263 19.1946 12.4377C19.5475 12.1505 19.5824 11.6235 19.2699 11.2916L16.9151 8.79739L20.2353 9.69247C20.6747 9.81098 21.1239 9.53075 21.209 9.0846C21.2955 8.63705 20.983 8.21182 20.5296 8.15884L20.531 8.15466Z" fill="#EF9AEA"/>
</g>
</g>
<defs>
<clipPath id="clip0_6825_6919">
<rect width="40" height="40" fill="white"/>
</clipPath>
</defs>
</svg>
