<svg width="40" height="40" viewBox="0 0 40 40" fill="none" xmlns="http://www.w3.org/2000/svg">
<mask id="mask0_27961_887" style="mask-type:luminance" maskUnits="userSpaceOnUse" x="0" y="0" width="40" height="40">
<path d="M19.9714 40C31.0013 40 39.9429 31.0503 39.9429 20.0104C39.9429 8.9705 31.0013 0.020874 19.9714 0.020874C8.94151 0.020874 0 8.9705 0 20.0104C0 31.0503 8.94151 40 19.9714 40Z" fill="white"/>
</mask>
<g mask="url(#mask0_27961_887)">
<path d="M-8.57195 34.0218C-8.6709 34.0218 -8.76148 33.9577 -8.78657 33.8614C-9.26317 32.0202 -4.68943 29.6811 -0.769284 28.0449C4.67405 25.7713 12.0963 23.4824 20.1331 21.5979C35.0054 18.1108 50.8894 16.4356 51.7256 19.6717C51.7548 19.7846 51.6824 19.899 51.5639 19.9269C51.4455 19.9548 51.3256 19.8865 51.2964 19.7721C50.7013 17.4734 38.081 17.8235 20.239 22.0066C12.2273 23.8855 4.82874 26.1675 -0.590906 28.4299C-5.75831 30.5877 -8.66114 32.5796 -8.35595 33.7596C-8.32668 33.8726 -8.39915 33.987 -8.5176 34.0149C-8.53572 34.019 -8.55384 34.0204 -8.57056 34.0204L-8.57195 34.0218Z" fill="#55EBB0"/>
<path d="M16.4916 6.00623C16.4916 6.00623 14.8681 7.3411 13.2446 9.94109C11.6211 12.5411 9.03875 17.0381 9.3328 21.0441C9.3328 21.0441 -1.81029 23.2926 -2.40117 23.5032C-2.99205 23.7138 -4.24627 24.4168 -2.84433 25.5411C-1.44238 26.6653 5.64259 32.5683 5.64259 32.5683C5.64259 32.5683 1.87853 40.5789 1.58448 41.0713C1.28904 41.5637 0.625694 43.4606 3.208 42.8274C5.79031 42.1955 24.4615 35.238 24.4615 35.238C24.4615 35.238 44.5361 38.5354 45.4935 38.8214C46.7853 39.2078 47.4487 38.2593 46.2683 37.1001C45.1757 36.0275 38.7039 28.8427 38.7039 28.8427C38.7039 28.8427 45.7151 24.0639 46.4523 23.432C47.1909 22.8002 48.7405 21.8866 45.6412 20.9729C42.5419 20.0593 33.3177 17.6002 33.3177 17.6002C33.3177 17.6002 31.4726 9.02747 26.6021 4.60023C25.8175 3.97255 24.8308 3.40624 25.3478 4.81085C25.8649 6.21685 26.4544 11.6275 23.7982 14.0866C21.142 16.5457 18.706 16.5457 17.9688 10.9942C17.895 9.5882 17.9326 7.23509 18.3744 6.00484C18.3744 6.00484 18.4914 5.59894 18.6141 5.26696C18.7687 4.8499 18.8997 4.49701 18.4482 4.6351C17.6372 4.88059 16.493 6.00484 16.493 6.00484L16.4916 6.00623Z" fill="#EBFF32"/>
<path d="M33.3177 17.5613C33.3177 17.5613 31.4726 8.98853 26.6021 4.56129C25.8175 3.93361 24.8308 3.3673 25.3478 4.77191C25.8649 6.17791 26.4543 11.5885 23.7982 14.0476C21.142 16.5067 18.706 16.5067 17.9688 10.9553C17.895 9.54926 17.9326 7.19615 18.3744 5.9659C18.3744 5.9659 18.4914 5.56 18.614 5.22802C18.7687 4.81096 18.8997 4.45807 18.4482 4.59616C17.6371 4.84165 16.493 5.9659 16.493 5.9659C16.493 5.9659 14.8695 7.30077 13.246 9.90076C11.6224 12.5008 9.04014 16.9977 9.33418 21.0037C9.33418 21.0037 14.2856 25.1157 21.5838 25.4491C30.826 25.8704 33.1519 18.4916 33.3177 17.5613Z" fill="#5BB3FD"/>
<path d="M17.4546 19.0747C17.4546 19.0747 15.4284 19.0831 15.08 21.4362C14.7316 23.7893 14.7664 27.4996 16.7495 28.1287C18.7325 28.7577 20.0899 27.2346 20.2292 25.4785C20.3686 23.7223 20.7602 18.9422 17.4546 19.0747Z" fill="white"/>
<path d="M17.6385 28.4856C17.3292 28.4856 17.0072 28.434 16.6797 28.3294C14.6758 27.6933 14.4472 24.202 14.8611 21.4068C15.2193 18.9811 17.2957 18.8695 17.4462 18.8653C18.2406 18.8333 18.8955 19.0662 19.3931 19.5558C20.8117 20.952 20.5595 24.1211 20.4522 25.4755C20.363 26.6067 19.8251 27.5762 19.014 28.0909C18.5987 28.3531 18.1333 28.4856 17.6385 28.4856ZM17.456 19.2866C17.3751 19.2866 15.6137 19.334 15.2987 21.4653C14.9852 23.5869 14.9517 27.3362 16.8191 27.9291C17.5368 28.1564 18.2113 28.0909 18.7673 27.738C19.4655 27.2958 19.9296 26.4449 20.0076 25.4616C20.1121 24.1448 20.3532 21.1069 19.0725 19.8473C18.66 19.4414 18.1346 19.2573 17.4629 19.2852H17.4546L17.456 19.2866Z" fill="black"/>
<path d="M17.5591 20.3091C17.5591 20.3091 15.9412 20.3677 15.8548 22.2967C15.7767 24.0347 15.6318 26.8146 17.3515 27.0685C19.3694 27.367 19.5575 25.4282 19.4739 23.1922C19.4126 21.5603 19.0558 20.3426 17.5605 20.3091H17.5591Z" fill="#6FE1A2"/>
<path d="M17.672 21.178C17.672 21.178 16.4192 21.1278 16.3579 22.6608C16.3063 23.9663 16.2965 25.7504 17.4281 25.9666C18.8133 26.2302 19.0461 24.774 18.9611 23.1615C18.9067 22.1224 18.759 21.2548 17.6706 21.178H17.672Z" fill="black"/>
<path d="M16.8609 22.2158C16.8609 22.2158 16.3885 22.2311 16.3411 22.8309C16.2938 23.4307 16.2617 24.0472 16.7355 24.1811C17.2079 24.3164 17.5396 23.9705 17.5549 23.5353C17.5703 23.1001 17.6804 22.1391 16.8609 22.2144V22.2158Z" fill="white"/>
<path d="M24.1298 25.4672C24.1298 25.4672 24.0239 26.565 22.8436 27.215C21.6632 27.865 21.5016 27.4521 21.3078 27.2945C21.1141 27.1369 19.8961 25.4756 20.9762 24.5536C22.0548 23.6316 23.6519 24.3249 24.1312 25.4672H24.1298Z" fill="#ED794E"/>
<path d="M21.5475 27.8216C21.5085 27.8216 21.4695 27.8119 21.4333 27.7909C20.827 27.4408 20.1804 26.4031 20.2222 25.4741C20.2515 24.838 20.586 24.3512 21.1908 24.0667C22.6317 23.3888 23.8428 24.4879 24.2817 25.1644C24.3458 25.2635 24.3138 25.3932 24.2093 25.4546C24.1061 25.5159 23.9696 25.4853 23.9041 25.3862C23.8609 25.3193 22.8254 23.7682 21.3859 24.4447C20.9274 24.6595 20.6849 25.0124 20.664 25.4922C20.6306 26.2399 21.1727 27.1493 21.6618 27.4311C21.7663 27.491 21.7998 27.6208 21.7371 27.7212C21.6952 27.7867 21.6228 27.823 21.5475 27.823V27.8216Z" fill="#211816"/>
<path d="M22.3433 28.667C22.0409 28.667 21.7189 28.6224 21.3775 28.5331C21.2591 28.5024 21.1908 28.3867 21.2228 28.2737C21.2549 28.1607 21.3761 28.0951 21.4946 28.1258C22.2861 28.3323 22.9495 28.2667 23.4637 27.9292C24.449 27.2847 24.6092 25.8453 24.6106 25.8313C24.6232 25.7155 24.7291 25.6304 24.8531 25.6416C24.9744 25.6528 25.0635 25.756 25.0524 25.8718C25.0454 25.9387 24.8726 27.5163 23.7187 28.2751C23.323 28.5345 22.8631 28.6656 22.3447 28.6656L22.3433 28.667Z" fill="black"/>
<path d="M16.1962 29.8763C16.0875 29.8763 15.9941 29.8009 15.9774 29.6963C15.7238 28.042 15.1496 26.9136 14.2703 26.3403C13.4341 25.7949 12.6021 25.9693 12.5938 25.9707C12.4739 25.9972 12.3569 25.9261 12.329 25.8131C12.3011 25.7001 12.375 25.5871 12.4934 25.5606C12.5339 25.5508 13.5122 25.3402 14.5114 25.986C15.5022 26.6263 16.1432 27.8537 16.4164 29.635C16.4345 29.7507 16.3509 29.8567 16.2296 29.8735C16.2185 29.8749 16.2073 29.8763 16.1976 29.8763H16.1962Z" fill="black"/>
<path d="M29.9133 24.4224C30.0526 22.6663 30.4135 18.8026 27.108 18.9351C27.108 18.9351 25.0817 18.9435 24.7333 21.2966C24.3849 23.6497 24.4198 27.36 26.4028 27.989C26.4028 27.989 26.6537 28.1215 27.4968 28.1215C27.4968 28.1215 27.416 24.9162 29.7195 24.4503L29.9133 24.4238V24.4224Z" fill="white"/>
<path d="M27.7253 28.3308H27.4982C26.7275 28.3308 26.4126 28.2234 26.3192 28.183C24.3278 27.5344 24.102 24.0542 24.5145 21.2645C24.8852 18.7608 27.0857 18.7231 27.1079 18.7217C27.9943 18.6868 28.7064 18.9254 29.222 19.4345C30.4386 20.6327 30.2449 23.0513 30.1418 24.3513L30.1209 24.6052L29.7516 24.6554C27.6668 25.078 27.7183 28.0825 27.7197 28.1132L27.7253 28.3294V28.3308ZM26.5115 27.8036C26.5115 27.8036 26.7094 27.8886 27.2794 27.9054C27.3058 27.1424 27.5581 24.6707 29.6749 24.2411L29.707 24.2369C29.8059 22.9858 29.9578 20.7666 28.9043 19.7288C28.4737 19.3048 27.8897 19.1137 27.1191 19.1444C27.0369 19.1444 25.2698 19.189 24.9549 21.3245C24.6413 23.4461 24.6079 27.1954 26.4753 27.7882L26.5129 27.8036H26.5115Z" fill="black"/>
<path d="M27.0048 26.9276C25.2851 26.6738 25.4301 23.8938 25.5081 22.1559C25.5945 20.2254 27.2125 20.1682 27.2125 20.1682C28.7092 20.2017 29.0311 21.4459 29.0924 23.0779L29.052 24.237C29.052 24.237 28.3329 24.7559 27.8898 25.318C27.8898 25.318 27.3727 25.9945 27.2626 26.3111C27.1525 26.6277 27.0034 26.929 27.0034 26.929L27.0048 26.9276Z" fill="#55EBB0"/>
<path d="M30.4261 24.8046C30.9514 24.8311 31.5953 25.244 31.8238 25.4504C32.3771 25.9512 32.4035 26.6193 32.2948 27.2819C32.1848 27.9444 31.7193 28.639 31.1047 28.9682C30.6755 29.1984 29.9564 29.3504 29.4032 29.2054C28.8206 29.0533 28.1726 28.5958 28.0472 28.0323C27.9218 27.4688 28.0918 26.3933 28.4207 25.9107C28.4207 25.9107 29.0171 24.7335 30.4274 24.8046H30.4261Z" fill="#FF7140"/>
<path d="M29.8993 25.1073C29.8993 25.1073 29.3739 25.2133 29.2485 25.6471C29.1231 26.0809 29.3655 26.5565 29.9063 26.4115C30.4456 26.2664 30.7229 25.9958 30.7842 25.7196C30.8344 25.4992 30.5668 24.9845 29.8993 25.1073Z" fill="white"/>
<path d="M28.4681 12.2887C28.1796 13.5901 26.393 17.7174 21.882 17.3213C17.371 16.9265 17.9591 10.8631 17.9591 10.8631C18.6977 16.4146 21.1351 16.4955 23.7912 14.0364C26.4474 11.5773 25.8579 6.16529 25.3409 4.76068C24.8239 3.35607 25.8119 3.92238 26.5951 4.55006C26.5951 4.55006 29.6763 6.83342 28.4681 12.2887Z" fill="#EBFF32"/>
<path d="M21.5949 16.9321C20.1066 16.9321 18.7673 16.0631 18.2392 15.2095C18.1765 15.1091 18.2127 14.9793 18.3172 14.9208C18.4217 14.8608 18.5583 14.8942 18.621 14.9947C19.0349 15.6628 20.2836 16.5736 21.7496 16.5067C23.2519 16.4369 24.5549 15.3615 25.5179 13.3962C27.8758 8.58257 25.2419 4.25436 25.2141 4.21112C25.1513 4.11069 25.1862 3.98237 25.2921 3.92239C25.398 3.86241 25.5332 3.89589 25.5959 3.99632C25.6238 4.04095 28.3761 8.56025 25.9192 13.5747C24.6092 16.2486 22.9411 16.8735 21.7719 16.9279C21.7134 16.9307 21.6548 16.9321 21.5977 16.9321H21.5949Z" fill="#70B1F6"/>
<path d="M23.1516 17.7368C23.054 17.7368 22.9634 17.674 22.9369 17.5806C22.9063 17.4676 22.976 17.3532 23.0944 17.3225C28.096 16.0602 27.9148 10.8993 27.3616 7.93662C26.7986 4.92236 25.4231 4.34071 25.4092 4.33513C25.2963 4.2905 25.2433 4.16636 25.2907 4.05895C25.3381 3.95155 25.4677 3.90133 25.5806 3.94597C25.6461 3.97247 27.1929 4.62526 27.7978 7.8627C28.3775 10.969 28.5531 16.381 23.2087 17.7312C23.1892 17.7354 23.1711 17.7382 23.1516 17.7382V17.7368Z" fill="#70B1F6"/>
<path d="M27.0369 21.178C27.0369 21.178 25.8259 21.1306 25.7673 22.5868C25.7172 23.8268 25.6572 25.5369 26.8014 25.7266C28.0681 25.9359 28.365 24.594 28.2841 23.0625C28.2312 22.0749 28.089 21.252 27.0369 21.1794V21.178Z" fill="black"/>
<path d="M26.2704 22.2158C26.2704 22.2158 25.798 22.2311 25.7506 22.8309C25.7032 23.4307 25.6712 24.0472 26.145 24.1811C26.6188 24.315 26.9491 23.9705 26.9644 23.5353C26.9797 23.1001 27.0898 22.1391 26.2704 22.2144V22.2158Z" fill="white"/>
<path d="M-2.36077 35.6998C-6.03425 35.6998 -8.44515 35.1767 -8.75871 33.9674C-8.78797 33.8544 -8.71551 33.74 -8.59705 33.7121C-8.4786 33.6842 -8.35875 33.754 -8.32948 33.8669C-7.73582 36.1656 4.88586 35.8155 22.7279 31.631C30.7396 29.7521 38.1381 27.4702 43.5578 25.2077C48.7252 23.0499 51.628 21.0567 51.3228 19.878C51.2936 19.765 51.366 19.6507 51.4845 19.6228C51.6043 19.5963 51.7228 19.6646 51.752 19.7776C52.2286 21.6188 47.6549 23.9579 43.7348 25.5941C38.2914 27.8663 30.8692 30.1566 22.8324 32.0411C13.5149 34.2268 3.79886 35.6998 -2.36356 35.6998H-2.36077Z" fill="#55EBB0"/>
<path d="M0.333027 36.9343C1.08498 36.9343 1.69456 36.3535 1.69456 35.6371C1.69456 34.9206 1.08498 34.3398 0.333027 34.3398C-0.418926 34.3398 -1.0285 34.9206 -1.0285 35.6371C-1.0285 36.3535 -0.418926 36.9343 0.333027 36.9343Z" fill="#70B1F6"/>
<path d="M17.4825 28.0379C16.0415 27.8245 15.6123 26.2442 15.5148 24.5439C15.211 24.4434 14.9141 24.3416 14.6243 24.2356C14.7009 26.4673 15.2361 28.6573 16.7941 29.1524C17.725 29.4481 18.5988 29.3617 19.3206 28.9055C20.2265 28.3323 20.8285 27.2289 20.9288 25.954C20.933 25.8941 20.9386 25.8257 20.9442 25.7602C20.6766 25.7281 20.4146 25.6876 20.1526 25.6486C19.9241 27.2443 19.2398 28.2974 17.4811 28.0366L17.4825 28.0379Z" fill="white"/>
<path d="M19.7178 18.677C19.1841 18.1512 18.5026 17.9113 17.6302 17.9475H17.6205C17.5159 17.9489 15.2332 18.0103 14.8235 20.7735C14.6786 21.7541 14.5824 23.0011 14.6256 24.2369C14.9155 24.3429 15.2123 24.4447 15.5161 24.5452C15.4632 23.6148 15.5078 22.6496 15.544 21.8531C15.6569 19.3508 17.7542 19.2754 17.7542 19.2754C19.6941 19.3187 20.1568 20.8976 20.2348 23.0122C20.2697 23.9635 20.2655 24.8702 20.154 25.6499C20.416 25.6889 20.6766 25.7294 20.9455 25.7615C21.0849 23.9691 21.3204 20.2532 19.7192 18.6756L19.7178 18.677Z" fill="white"/>
<path d="M16.7049 29.4118C14.9824 28.865 14.3971 26.5273 14.3302 24.1267C14.2341 24.0905 14.1338 24.0556 14.0376 24.0179C14.0627 25.1854 14.2118 26.3055 14.5267 27.247C15.0047 27.7436 15.3991 28.3782 15.7015 29.158C15.9677 29.3853 16.2687 29.5639 16.6129 29.6726C17.038 29.8079 17.4547 29.8749 17.856 29.8749C18.4985 29.8749 19.1005 29.7033 19.6384 29.3616C20.4523 28.8469 21.0487 27.9765 21.333 26.9318C21.2466 26.6347 21.202 26.332 21.2076 26.0335C21.0027 28.2862 19.2524 30.2222 16.7035 29.4132L16.7049 29.4118Z" fill="black"/>
<path d="M21.2243 25.8633C21.2257 25.8424 21.2326 25.8242 21.2354 25.8033C21.234 25.8033 21.2312 25.8033 21.2298 25.8033C21.2285 25.8229 21.2271 25.8452 21.2257 25.8647L21.2243 25.8633Z" fill="black"/>
<path opacity="0.47" d="M21.2243 25.8633C21.2257 25.8424 21.2326 25.8242 21.2354 25.8033C21.234 25.8033 21.2312 25.8033 21.2298 25.8033C21.2285 25.8229 21.2271 25.8452 21.2257 25.8647L21.2243 25.8633Z" fill="white"/>
<path d="M14.5393 20.7345C14.9908 17.684 17.6177 17.6742 17.6177 17.6742C21.804 17.5068 21.418 23.407 21.2285 25.802C21.2298 25.802 21.2326 25.802 21.234 25.802C21.2758 25.4463 21.3859 25.1255 21.5796 24.8563C21.6897 22.8463 21.6465 19.7902 20.1289 18.2963C19.4837 17.6603 18.6336 17.3604 17.6051 17.4008C17.4114 17.4064 14.719 17.5515 14.2536 20.6968C14.0961 21.7653 14.0125 22.9119 14.0376 24.0194C14.1323 24.0556 14.2327 24.0919 14.3302 24.1282C14.2982 22.9439 14.3901 21.7444 14.5393 20.7359V20.7345Z" fill="black"/>
<path d="M20.9456 25.7615C20.94 25.8271 20.9358 25.8954 20.9302 25.9554C20.8299 27.2289 20.2279 28.3322 19.3221 28.9069C18.6002 29.3644 17.7264 29.4495 16.7955 29.1538C15.2375 28.6586 14.7023 26.4687 14.6257 24.237C14.5267 24.2007 14.4292 24.1644 14.3316 24.1282C14.3971 26.5287 14.9838 28.8679 16.7063 29.4132C19.2566 30.2223 21.0055 28.2862 21.2104 26.0335C21.2104 26.0126 21.2062 25.9903 21.2076 25.9694C21.209 25.9317 21.2229 25.8996 21.2257 25.8634C21.2271 25.8438 21.2285 25.8229 21.2299 25.802C21.1323 25.7908 21.0417 25.7727 20.9456 25.7615Z" fill="black"/>
<path d="M14.8235 20.7722C15.2319 18.009 17.5146 17.9476 17.6205 17.9462H17.6302C18.5026 17.9099 19.1841 18.1498 19.7178 18.6757C21.319 20.2519 21.0849 23.9677 20.9442 25.7615C21.0403 25.7727 21.1323 25.7908 21.2285 25.802C21.4166 23.4056 21.804 17.5054 17.6177 17.6742C17.6177 17.6742 14.9894 17.6854 14.5393 20.7345C14.3901 21.743 14.2982 22.9425 14.3302 24.1268C14.4278 24.163 14.5253 24.1993 14.6243 24.2356C14.5811 22.9997 14.6772 21.7527 14.8222 20.7722H14.8235Z" fill="black"/>
<path d="M17.4825 28.0378C19.2398 28.2972 19.9255 27.2455 20.154 25.6498C19.8864 25.6094 19.6175 25.5703 19.3569 25.5229C19.0879 26.3221 18.557 26.7936 17.5842 26.6081C16.7899 26.4574 16.4317 25.7084 16.2785 24.7864C16.0179 24.7083 15.767 24.6274 15.5148 24.5437C15.6123 26.244 16.0415 27.8244 17.4825 28.0378Z" fill="#55EBB0"/>
<path d="M16.1795 23.6524C16.1182 23.333 16.1433 22.9355 16.1753 22.5421C16.1781 22.5031 16.1879 22.4752 16.1935 22.4403C16.1949 22.4012 16.1963 22.3608 16.1976 22.3231C16.2771 20.3369 17.9006 20.401 17.9006 20.401C19.3109 20.5001 19.5018 21.6243 19.5729 22.9717C19.6231 23.9314 19.5841 24.845 19.3569 25.5229C19.6175 25.5703 19.8865 25.608 20.154 25.6498C20.2655 24.8701 20.2697 23.9635 20.2349 23.0122C20.1554 20.8962 19.6941 19.3172 17.7543 19.2754C17.7543 19.2754 15.6569 19.3507 15.5441 21.8531C15.5078 22.6495 15.4632 23.6148 15.5162 24.5451C15.767 24.6274 16.0193 24.7097 16.2799 24.7878C16.2199 24.428 16.1907 24.043 16.1795 23.6538V23.6524Z" fill="#55EBB0"/>
<path d="M17.5842 26.6082C18.5556 26.7937 19.0879 26.3222 19.3569 25.523C18.2727 25.3263 17.2456 25.0752 16.2784 24.7865C16.4317 25.7085 16.7899 26.4575 17.5842 26.6082Z" fill="black"/>
<path d="M19.5729 22.9718C19.5018 21.6244 19.3109 20.5001 17.9006 20.4011C17.9006 20.4011 16.2771 20.337 16.1977 22.3232C16.1963 22.3609 16.1949 22.4013 16.1935 22.4404C16.3008 21.7709 16.8498 21.7444 16.8498 21.7444C17.9132 21.6467 17.7696 22.8923 17.7487 23.4572C17.7278 24.0221 17.2986 24.4685 16.6854 24.2941C16.3816 24.2077 16.2395 23.9677 16.1795 23.6525C16.1893 24.0403 16.2199 24.4266 16.2799 24.7865C17.2456 25.0752 18.2727 25.3263 19.3583 25.523C19.5855 24.8451 19.6245 23.9315 19.5743 22.9718H19.5729Z" fill="black"/>
<path d="M16.1934 22.4403C16.1879 22.4752 16.1781 22.5045 16.1753 22.5421C16.1447 22.9341 16.1196 23.3316 16.1795 23.6524C16.1684 23.2396 16.1795 22.8267 16.1934 22.4403Z" fill="white"/>
<path opacity="0.47" d="M16.1934 22.4403C16.1879 22.4752 16.1781 22.5045 16.1753 22.5421C16.1447 22.9341 16.1196 23.3316 16.1795 23.6524C16.1684 23.2396 16.1795 22.8267 16.1934 22.4403Z" fill="white"/>
<path d="M16.6854 24.2941C17.2986 24.4698 17.7278 24.0221 17.7487 23.4572C17.7696 22.8923 17.9117 21.648 16.8498 21.7443C16.8498 21.7443 16.3021 21.7694 16.1934 22.4403C16.1795 22.8267 16.1684 23.2396 16.1795 23.6524C16.2394 23.9677 16.3816 24.2076 16.6854 24.2941Z" fill="white"/>
<path opacity="0.47" d="M16.6854 24.2941C17.2986 24.4698 17.7278 24.0221 17.7487 23.4572C17.7696 22.8923 17.9117 21.648 16.8498 21.7443C16.8498 21.7443 16.3021 21.7694 16.1934 22.4403C16.1795 22.8267 16.1684 23.2396 16.1795 23.6524C16.2394 23.9677 16.3816 24.2076 16.6854 24.2941Z" fill="white"/>
<path d="M25.9806 25.8549C25.9806 25.8549 25.9792 25.8535 25.9792 25.8521C25.0455 25.9525 24.0463 25.9874 22.9718 25.9386C22.5747 25.9204 22.1914 25.8814 21.804 25.8479C21.7971 25.8981 21.7817 25.9414 21.7789 25.993C21.7357 26.9638 22.4381 28.141 23.0722 28.5065C23.1446 28.5483 23.1878 28.6153 23.2032 28.6878C23.4763 28.7143 23.8916 28.6195 24.6037 28.2275C26.0767 27.4171 26.2579 26.0822 26.2691 25.9804C26.159 25.9971 26.0433 25.9511 25.9806 25.8549Z" fill="#FF7140"/>
<path d="M22.7168 24.6344C22.1733 24.8911 21.8751 25.3025 21.8054 25.8465C22.1914 25.8814 22.576 25.9191 22.9732 25.9372C24.0477 25.986 25.0469 25.9511 25.9806 25.8507C25.9137 25.7489 24.5758 23.7584 22.7182 24.633L22.7168 24.6344Z" fill="#FF7140"/>
<path d="M22.6137 28.3308C22.427 28.1788 21.5058 26.9471 21.6243 25.8341C21.5894 25.8313 21.5518 25.8299 21.5169 25.8257C21.5128 25.8731 21.5086 25.9261 21.5058 25.9721C21.4793 26.3055 21.4194 26.6249 21.3358 26.9318C21.5936 27.8217 22.1984 28.6405 22.7767 28.9752C22.8227 29.0017 22.8743 29.0143 22.9245 29.0143C23.022 29.0143 23.1168 28.9669 23.1697 28.8832C23.2088 28.8232 23.2171 28.7535 23.2032 28.6893C22.8701 28.6572 22.7503 28.4438 22.6123 28.3322L22.6137 28.3308Z" fill="#211816"/>
<path d="M26.2732 25.9607C26.2732 25.9607 26.2704 25.9761 26.2704 25.9803C26.3067 25.9747 26.3429 25.9621 26.3764 25.9426C26.4391 25.905 26.4795 25.8479 26.499 25.7852C26.4014 25.7991 26.3067 25.8144 26.2077 25.827C26.23 25.8716 26.2551 25.9148 26.2732 25.9607Z" fill="#211816"/>
<path d="M26.499 25.7852C26.5199 25.714 26.5143 25.6345 26.4697 25.5676C25.9011 24.6902 24.3306 23.2661 22.4632 24.1448C22.0855 24.3234 21.7929 24.5647 21.5824 24.8562C21.5629 25.2189 21.5392 25.5453 21.5169 25.8242C21.5518 25.8284 21.5894 25.8298 21.6242 25.8326C21.6647 25.4504 21.8263 25.0822 22.1831 24.7767C23.539 23.6176 25.5193 24.4294 26.2077 25.827" fill="#211816"/>
<path d="M21.5155 25.8242C21.4236 25.8144 21.326 25.813 21.2354 25.8019C21.2327 25.8228 21.2271 25.8409 21.2243 25.8619C21.2215 25.8981 21.2187 25.94 21.2159 25.9748C21.2145 25.9944 21.2104 26.0125 21.209 26.032C21.2034 26.3291 21.248 26.6332 21.3344 26.9303C21.418 26.6234 21.4779 26.3026 21.5044 25.9707C21.5086 25.926 21.5114 25.873 21.5155 25.8242Z" fill="#211816"/>
<path d="M21.5155 25.8242C21.5378 25.5453 21.5615 25.2189 21.581 24.8562C21.3859 25.1268 21.2772 25.4476 21.2354 25.8019C21.3274 25.8117 21.4235 25.8145 21.5155 25.8242Z" fill="#211816"/>
<path d="M21.209 26.0333C21.2104 26.0138 21.2145 25.9957 21.2159 25.9762C21.2187 25.9427 21.2215 25.8995 21.2243 25.8633C21.2215 25.8995 21.2076 25.9316 21.2062 25.9692C21.2062 25.9901 21.209 26.0124 21.209 26.0333Z" fill="#211816"/>
<path d="M26.2063 25.827C26.1311 25.8354 26.0544 25.8437 25.9792 25.8521L25.9806 25.8549C26.0433 25.9511 26.159 25.997 26.2691 25.9803C26.2691 25.9761 26.2718 25.9608 26.2718 25.9608C26.2523 25.9148 26.2272 25.8716 26.2063 25.827Z" fill="#211816"/>
<path d="M23.0736 28.5065C22.4395 28.1411 21.7371 26.9624 21.7803 25.993C21.7831 25.9414 21.7984 25.8968 21.8054 25.8479C21.7455 25.8424 21.6842 25.8396 21.6242 25.834C21.5072 26.9471 22.4269 28.1787 22.6137 28.3308C22.7516 28.4437 22.8701 28.6572 23.2046 28.6878C23.1892 28.6153 23.146 28.5484 23.0736 28.5065Z" fill="#211816"/>
<path d="M22.7168 24.6344C24.5759 23.7599 25.9123 25.7503 25.9792 25.8521C26.0558 25.8438 26.1311 25.8354 26.2064 25.827C25.5193 24.4294 23.5376 23.6176 22.1817 24.7767C21.8235 25.0822 21.6633 25.4504 21.6229 25.8326C21.6828 25.8382 21.7441 25.841 21.804 25.8466C21.8737 25.3026 22.1719 24.8897 22.7154 24.6344H22.7168Z" fill="#211816"/>
<path d="M14.5281 27.2469C14.3037 27.014 14.0654 26.8048 13.8021 26.6346C12.506 25.7963 11.2379 26.0711 11.1849 26.0822C11.0316 26.1171 10.9368 26.2636 10.9717 26.41C11.0079 26.5565 11.1612 26.6499 11.3159 26.6137C11.327 26.6109 12.4057 26.3863 13.4899 27.0935C14.6298 27.8355 15.374 29.3001 15.7029 31.444C15.7238 31.5793 15.8464 31.6783 15.9858 31.6783C15.9997 31.6783 16.0137 31.6783 16.0276 31.6756C16.1851 31.6532 16.2924 31.5151 16.2701 31.3659C16.1433 30.5346 15.951 29.8009 15.7015 29.1579C15.1733 28.7059 14.7915 28.0406 14.5267 27.2469H14.5281Z" fill="black"/>
<path d="M14.5281 27.2471C14.7929 28.0407 15.1747 28.7061 15.7029 29.158C15.4005 28.3797 15.0061 27.7436 14.5281 27.2471Z" fill="black"/>
<path d="M-2.16007 29.8066C-1.60403 29.4063 -0.956011 29.1552 -0.31775 28.9084C1.61515 28.1621 3.43238 27.4563 5.36389 26.7101C5.62588 26.6083 5.89205 26.4897 6.17216 26.4925C6.59303 26.4967 7.02643 26.844 7.20063 27.0644C7.51279 27.4591 7.31351 28.4202 7.06127 28.8553C6.49826 29.8262 5.61194 30.0298 4.68939 30.6673C3.54805 31.4539 2.14053 31.7803 0.755309 31.825C-0.387429 31.8626 -1.52459 31.719 -2.65061 31.5474C-3.27075 31.4526 -3.38503 31.3689 -3.05614 30.7802C-2.84013 30.3925 -2.51822 30.0661 -2.16007 29.808V29.8066Z" fill="#FFE240"/>
<path d="M9.18238 31.2152L7.89832 29.4266L5.53871 31.1237L6.82277 32.9123L9.18238 31.2152Z" fill="#718C8A"/>
<path d="M23.2032 28.688C23.2171 28.7521 23.2074 28.8219 23.1697 28.8819C23.1154 28.9669 23.0206 29.013 22.9245 29.013C22.8743 29.013 22.8227 29.0004 22.7753 28.9739C22.197 28.6405 21.5922 27.8204 21.3344 26.9305C21.0501 27.9752 20.4536 28.8456 19.6398 29.3603C19.1019 29.7006 18.4984 29.8722 17.8574 29.8736C17.456 29.8736 17.0394 29.8066 16.6143 29.6713C16.2701 29.5625 15.9691 29.3854 15.7029 29.1566C15.9524 29.7997 16.1447 30.5334 16.2715 31.3647C16.2938 31.5139 16.1865 31.6534 16.029 31.6743C16.0151 31.6757 16.0011 31.6771 15.9872 31.6771C15.8465 31.6771 15.7238 31.5795 15.7043 31.4428C15.3754 29.2989 14.6299 27.8343 13.4913 27.0923C12.4071 26.3865 11.3285 26.611 11.3173 26.6124C11.1626 26.6473 11.0093 26.5553 10.9731 26.4088C10.9369 26.2623 11.0316 26.1159 11.1863 26.081C11.2393 26.0684 12.5074 25.7951 13.8035 26.6334C14.0655 26.8035 14.3052 27.0128 14.5295 27.2457C14.2146 26.3042 14.0655 25.1841 14.0404 24.0166C12.173 23.2927 10.6289 22.4809 9.47081 21.7891C8.9524 24.0892 9.37326 26.5901 10.856 28.6559C13.607 32.4875 18.9416 33.3621 22.7698 30.6087C23.8596 29.8248 24.6999 28.8289 25.2949 27.7213C25.1012 27.8999 24.8824 28.0742 24.6051 28.2263C23.893 28.6182 23.4777 28.7117 23.2046 28.6866L23.2032 28.688Z" fill="#F0FC6C"/>
<path d="M14.255 20.6969C14.7204 17.5515 17.4114 17.4078 17.6065 17.4008C18.6364 17.3604 19.4851 17.6603 20.1303 18.2963C21.6479 19.7902 21.6911 22.8463 21.581 24.8563C21.7915 24.5648 22.0841 24.3221 22.4618 24.1449C24.077 23.3847 25.4677 24.3472 26.1827 25.1883C26.5784 22.9914 26.1241 20.6425 24.7194 18.6855C21.9685 14.8539 16.6338 13.9793 12.8057 16.7327C11.04 18.002 9.91258 19.8237 9.46942 21.7918C10.6261 22.4823 12.1716 23.2955 14.039 24.0194C14.0153 22.9119 14.0975 21.7667 14.255 20.6969Z" fill="#70B1F6"/>
<path d="M27.6194 27.4186C28.0947 26.166 28.326 24.8339 28.3051 23.4949C28.3093 24.1588 28.2591 24.8214 28.1462 25.4742C28.0306 26.1353 27.8522 26.7867 27.6194 27.4186Z" fill="#6FE1A2"/>
<path d="M26.4697 25.5676C26.3931 25.4491 26.2955 25.3193 26.1841 25.1882C26.0252 26.0698 25.7242 26.9248 25.295 27.7227C26.1269 26.9555 26.2607 26.0628 26.2705 25.9805C26.3067 25.9749 26.3429 25.9624 26.3764 25.9428C26.4391 25.9052 26.4795 25.848 26.499 25.7852C26.5199 25.7141 26.5143 25.6346 26.4697 25.5676Z" fill="black"/>
<path d="M8.25979 30.0353C7.90025 29.5346 7.59227 29.0129 7.32749 28.4773C7.24805 28.6837 7.2592 28.9222 7.39717 29.1147L9.31752 31.7901C9.50008 32.0453 9.82339 32.1234 10.1035 32.0188C9.42622 31.4441 8.8005 30.7899 8.2584 30.0353H8.25979Z" fill="#55EBB0"/>
<path d="M26.3346 17.5249C22.9426 12.8006 16.3677 11.7223 11.6476 15.1174C9.68403 16.5304 8.35873 18.4957 7.71629 20.648C7.02647 22.9578 7.12541 25.4825 8.09813 27.777L7.55464 28.1676C7.44315 28.2471 7.37486 28.3587 7.32888 28.4786C7.59366 29.0142 7.90164 29.5359 8.26118 30.0367C8.80329 30.7913 9.429 31.4455 10.1063 32.0201C10.162 31.9992 10.2178 31.9839 10.2679 31.9476L10.8114 31.557C14.4097 34.7526 19.86 35.1544 23.9306 32.2266C25.6726 30.974 26.9129 29.2862 27.6222 27.4199C27.855 26.7881 28.0333 26.1367 28.149 25.4755C28.2633 24.8227 28.312 24.1602 28.3079 23.4962C28.2744 21.4221 27.6376 19.3382 26.3359 17.5263L26.3346 17.5249ZM26.3764 25.9428C26.3429 25.9623 26.3067 25.9749 26.2705 25.9805C26.2607 26.0627 26.1269 26.9555 25.2949 27.7226C24.6999 28.8301 23.8582 29.8274 22.7698 30.6099C18.9416 33.3634 13.607 32.4888 10.856 28.6572C9.37326 26.5914 8.9524 24.0904 9.47081 21.7903C9.91397 19.8222 11.0428 18.0019 12.807 16.7312C16.6352 13.9778 21.9699 14.8524 24.7208 18.684C26.1255 20.641 26.5798 22.9885 26.184 25.1868C26.2955 25.3179 26.3931 25.4476 26.4697 25.5662C26.5143 25.6345 26.5199 25.7126 26.499 25.7838C26.4795 25.8465 26.4391 25.9037 26.3764 25.9414V25.9428Z" fill="black"/>
<path d="M17.7989 32.3521C15.0981 32.3521 12.4336 31.0968 10.7404 28.7381C9.3886 26.8536 8.84928 24.5563 9.22415 22.2674C9.59903 19.9784 10.8421 17.9713 12.7234 16.6183C14.6048 15.2653 16.9014 14.7254 19.1883 15.1007C21.4751 15.4759 23.4805 16.7201 24.8323 18.6031C27.6236 22.492 26.7345 27.9291 22.8492 30.7243C21.3205 31.8235 19.5506 32.3535 17.7975 32.3535L17.7989 32.3521ZM17.7696 15.2653C16.0262 15.2653 14.3316 15.8078 12.8879 16.847C11.0665 18.1568 9.86381 20.0984 9.50148 22.3134C9.13915 24.5284 9.66035 26.7532 10.9689 28.5763C13.6711 32.3396 18.9277 33.2016 22.6876 30.497C26.4474 27.7924 27.3087 22.531 24.6065 18.7677C23.2979 16.9446 21.3581 15.7409 19.1451 15.3782C18.6866 15.3029 18.2267 15.2653 17.7696 15.2653Z" fill="#718C8A"/>
<path d="M26.9268 20.9368C27.4787 22.7849 27.4494 24.7433 26.8808 26.5482" stroke="white" stroke-width="0.896074" stroke-miterlimit="10" stroke-linecap="round"/>
<path d="M7.17691 30.0593L8.49106 31.8898C8.81065 32.335 8.70824 32.9548 8.26461 33.2739L-1.67855 40.4253C-2.45037 40.9804 -3.52786 40.8038 -4.08247 40.0312L-4.54356 39.389C-5.09817 38.6165 -4.92173 37.538 -4.1499 36.9829L5.79326 29.8315C6.23802 29.5116 6.85732 29.6141 7.17609 30.0582L7.17691 30.0593Z" fill="black"/>
<path d="M4.55563 30.7788C5.29144 32.1318 6.42025 33.1571 7.69119 34.0233C8.06328 34.2771 8.45627 34.5073 8.77261 34.8281C9.08896 35.1489 9.32587 35.5813 9.28963 36.0304C9.25061 36.52 8.905 36.9273 8.53849 37.2523C8.23748 37.5187 7.90441 37.7573 7.52118 37.88C7.13934 38.0028 6.70175 37.9944 6.35753 37.7893C6.95259 38.3933 6.86759 39.4646 6.30458 40.0978C5.74157 40.7311 4.82738 40.9626 3.98426 40.8789C4.18773 41.2583 4.04279 41.7563 3.73342 42.0548C3.42404 42.3533 2.98646 42.4816 2.55863 42.529C1.59148 42.635 0.459893 42.4691 -0.259195 41.8121C-0.259195 41.8121 -3.27073 40.5442 -4.67685 36.7613C-6.08298 32.9785 -2.48196 30.0033 -2.48196 30.0033C-1.44235 29.2445 -0.585293 28.8554 0.702377 28.6127C1.96636 28.3755 3.81982 29.4314 4.55285 30.7802L4.55563 30.7788Z" fill="#FFE240"/>
<path opacity="0.5" d="M24.619 18.6673C21.8681 14.8357 16.5335 13.9611 12.7053 16.7145C8.87711 19.4679 8.00333 24.8074 10.7543 28.6391C13.5052 32.4707 18.8398 33.3453 22.668 30.5918C26.4962 27.8384 27.3699 22.4989 24.619 18.6673ZM22.976 28.0616C21.8946 30.1064 19.6871 31.6185 17.378 31.5055C15.9203 31.4343 14.5364 30.7425 13.4495 29.7661C11.95 28.4187 10.9633 26.4966 10.8044 24.4866C10.6456 22.4752 11.3326 20.3997 12.7053 18.9226C13.2293 18.359 13.8508 17.889 14.5295 17.5305C16.8679 16.2989 20.101 16.3281 22.0367 18.3172C22.8227 19.1248 23.2672 20.2086 23.5487 21.3008C24.1257 23.5423 24.0588 26.0167 22.9774 28.0616H22.976Z" fill="white"/>
</g>
</svg>
