<svg width="40" height="40" viewBox="0 0 40 40" fill="none" xmlns="http://www.w3.org/2000/svg">
<mask id="mask0_6825_7047" style="mask-type:luminance" maskUnits="userSpaceOnUse" x="0" y="0" width="40" height="40">
<path d="M19.9582 40C30.9808 40 39.9164 31.0566 39.9164 20.0244C39.9164 8.99215 30.9808 0.0487671 19.9582 0.0487671C8.9356 0.0487671 0 8.99215 0 20.0244C0 31.0566 8.9356 40 19.9582 40Z" fill="white"/>
</mask>
<g mask="url(#mask0_6825_7047)">
<path d="M18.5007 5.02452L21.983 1.50903L23.2104 6.2641L28.0177 4.93005L26.6592 9.64933L31.5 10.8546L27.9215 14.2756L31.5 17.6966L26.6592 18.9018L28.0177 23.6211L23.2104 22.2885L21.983 27.0421L18.5007 23.5281L15.017 27.0421L13.7896 22.2885L8.98231 23.6211L10.3408 18.9018L5.5 17.6966L9.07852 14.2756L5.5 10.8546L10.3408 9.65077L8.98231 4.93005L13.7896 6.2641L15.017 1.50903L18.5007 5.02452Z" fill="#5BB3FD"/>
<path d="M30.5994 15.8025C31.1871 14.2009 29.7179 12.6217 28.1386 11.9289C26.5593 11.2362 24.7489 11.0982 23.1724 10.3998C22.4691 10.0876 21.8215 9.66666 21.2602 9.1579C20.3648 8.34527 19.6712 7.10472 20.1238 5.9715C20.5709 4.85361 22.022 4.31976 23.2239 4.55532C24.4258 4.79089 25.3964 5.61467 26.1666 6.51929C26.9381 7.42392 27.5732 8.43866 28.4311 9.26662C29.5494 10.3441 31.0367 11.094 31.857 12.3987C33.0324 14.2692 32.3848 17.2326 30.1315 18.4857C29.8279 18.6544 29.7067 18.5847 29.3711 18.5108C28.1233 18.2334 30.0145 17.3943 30.5994 15.8011V15.8025Z" fill="black"/>
<path d="M20.8005 13.2266C19.3841 12.3206 17.6127 12.0474 16.1211 11.2571C15.2869 10.8152 14.5488 10.2117 13.9625 9.49242C13.1353 8.47908 12.6102 7.24689 11.698 6.30463C10.7859 5.36237 9.24836 4.7658 8.0632 5.43764C7.01314 6.03283 6.68029 7.4281 7.05352 8.51671C7.42676 9.60533 8.34313 10.4291 9.31381 11.0842C10.6563 11.9916 12.1688 12.6705 13.7634 13.0816C15.1574 13.4413 16.6127 13.5988 17.9789 14.0392C19.3465 14.4783 21.1779 15.8485 21.5191 17.1992C21.8213 18.3979 23.4034 18.0466 23.4061 17.3023C23.4103 15.9377 21.884 13.9235 20.7977 13.2294L20.8005 13.2266Z" fill="black"/>
<path d="M33.5671 25.4969C34.6743 26.2774 35.5057 27.4497 35.3901 28.7557C35.3303 29.4401 35.0169 30.1134 34.613 30.7322C33.2232 32.8635 30.6621 34.4539 27.9645 34.8609C26.3796 35.1006 24.7906 34.9529 23.203 35.1439C21.295 35.3738 19.4539 36.0847 17.5599 36.4527C15.6659 36.8207 13.5407 36.7844 12.2246 35.7014C10.4364 34.2323 10.6231 31.2619 8.40177 30.2987C7.9213 30.0911 7.37538 30.0046 6.84338 29.8973C5.55377 29.6367 4.27253 29.2073 3.41883 28.3627C2.56512 27.518 2.24621 26.1799 2.94811 25.1094C3.24335 24.6591 3.69875 24.2744 3.8784 23.788C4.04692 23.3336 3.94525 22.8638 3.99539 22.3983C4.13326 21.0992 5.49528 19.959 6.96593 19.6147C8.43658 19.2704 9.95041 19.5994 11.1913 20.2085C12.4321 20.8176 13.4529 21.6902 14.5016 22.5181C14.957 22.8778 15.4291 23.2346 15.9959 23.4562C17.6588 24.1044 19.7311 23.4743 21.5917 23.6374C23.7085 23.8242 25.2627 24.6187 27.4603 24.2939C29.6955 23.9622 31.8862 24.3135 33.5658 25.4982L33.5671 25.4969Z" fill="#F878F3"/>
<path d="M28.7748 17.1001C28.7748 17.1001 32.9653 18.5985 33.5475 22.2686C34.1296 25.9387 32.7272 26.8921 30.8931 27.3744C29.0589 27.858 25.1957 28.1089 21.4578 25.9498C17.7199 23.7893 18.0054 21.8783 18.6613 20.6252C19.3173 19.3721 20.9509 17.2395 23.7738 16.7294C26.7889 16.1844 28.7734 17.1001 28.7734 17.1001H28.7748Z" fill="#FFE240"/>
<path d="M27.4209 16.7399C27.4209 16.7399 27.8033 18.316 25.8511 18.965C25.1882 19.1783 24.6854 19.1481 24.7533 18.7074C24.8236 18.2538 25.684 17.3702 24.7104 16.6728C24.7104 16.6728 25.7347 16.3778 27.4208 16.7385L27.4209 16.7399Z" fill="black"/>
<path d="M27.3432 24.0651C27.4727 24.1125 28.0381 24.369 28.7679 23.8546C29.4976 23.3403 29.2052 22.734 28.6579 22.5556C28.1106 22.3771 27.4114 22.6448 27.1218 23.1312C26.8321 23.6163 27.1218 23.9871 27.3432 24.0665V24.0651Z" fill="#FF7140"/>
<path d="M29.0371 21.6702C26.9953 21.1597 27.2898 19.4751 27.4181 19.0009C27.4412 18.9564 27.4642 18.9251 27.4856 18.879C27.4856 18.879 27.3079 20.9835 29.302 21.7064C29.302 21.7064 27.2947 21.9221 25.8271 23.75C25.8271 23.75 25.8518 23.6742 25.8847 23.5557C26.9871 21.6768 29.0371 21.6702 29.0371 21.6702Z" fill="#ED794E"/>
<path d="M24.7526 20.8022C24.7526 20.8022 26.3518 21.2484 27.4558 18.8706C27.4558 18.8706 27.4394 18.92 27.418 18.999C27.2913 19.4733 26.9951 21.1579 29.0369 21.6684C29.0369 21.6684 26.9869 21.6733 25.8846 23.5538C25.8582 23.5983 25.827 23.6296 25.8023 23.674C25.8023 23.674 26.4588 21.1282 24.751 20.8005L24.7526 20.8022Z" fill="white"/>
<path d="M23.8857 20.6555C21.8439 20.145 22.1401 18.4588 22.2668 17.9845C22.2882 17.9401 22.3128 17.9104 22.3342 17.8627C22.3342 17.8627 22.1582 19.9672 24.1506 20.6901C24.1506 20.6901 22.1434 20.9058 20.6758 22.7336C20.6758 22.7336 20.7005 22.6579 20.7334 22.5393C21.8357 20.6588 23.8857 20.6538 23.8857 20.6538V20.6555Z" fill="#ED794E"/>
<path d="M19.6013 19.7878C19.6013 19.7878 21.2005 20.2341 22.3044 17.8563C22.3044 17.8563 22.288 17.9057 22.2666 17.9847C22.1399 18.459 21.8438 20.1435 23.8855 20.6557C23.8855 20.6557 21.8355 20.6606 20.7332 22.5411C20.7069 22.5856 20.6756 22.6169 20.6509 22.6613C20.6509 22.6613 21.3074 20.1155 19.5996 19.7878H19.6013Z" fill="white"/>
<path d="M21.2604 9.15789C20.188 8.57107 19.6491 7.02945 20.1031 5.89762C20.5501 4.77974 22.0709 4.16922 23.2254 4.55672C24.0443 4.83131 24.1724 5.6746 24.0262 6.77437C23.88 7.87553 21.9999 9.56212 21.2618 9.15789H21.2604Z" fill="#55EBB0"/>
<path d="M7.05512 8.51537C6.66518 7.43233 6.62479 6.16251 7.99378 5.31364C9.15108 4.5958 10.8877 5.27879 11.6996 6.30468C11.8863 6.54025 12.0506 6.82739 11.1092 7.67486C10.1677 8.52234 7.3434 9.31824 7.05512 8.51676V8.51537Z" fill="#55EBB0"/>
<path d="M24.1528 24.418C24.3687 25.0871 24.2419 25.7269 23.8701 25.8453C23.4996 25.9652 23.0233 25.5192 22.8089 24.8501C22.5944 24.181 22.7838 23.7378 23.1543 23.6193C23.5247 23.5008 23.9369 23.7489 24.1528 24.418Z" fill="black"/>
</g>
</svg>
