<svg width="40" height="40" viewBox="0 0 40 40" fill="none" xmlns="http://www.w3.org/2000/svg">
<rect x="1" y="1" width="38" height="38" rx="3" stroke="#E8CBAB" stroke-width="2"/>
<g clip-path="url(#clip0_6283_87223)">
<path d="M10.4969 10.5456C10.4969 10.5456 9.39681 11.4956 8.31813 13.3189C7.23946 15.1423 5.52952 18.2955 5.80225 21.0566C5.80225 21.0566 -1.8649 22.8002 -2.26941 22.9565C-2.67391 23.1128 -3.52888 23.6184 -2.54214 24.3723C-1.55233 25.1261 3.44572 29.0823 3.44572 29.0823C3.44572 29.0823 0.97887 34.6809 0.782748 35.0272C0.586625 35.3735 0.160673 36.6943 1.93497 36.2131C3.70926 35.732 16.5032 30.6083 16.5032 30.6083C16.5032 30.6083 30.4401 32.545 31.1082 32.7258C32.0091 32.971 32.4504 32.303 31.6138 31.5246C30.8416 30.8014 26.2419 25.9474 26.2419 25.9474C26.2419 25.9474 31.0101 22.5275 31.5096 22.077C32.0091 21.6265 33.0663 20.9708 30.9059 20.3916C28.7486 19.8124 22.3256 18.271 22.3256 18.271C22.3256 18.271 20.9037 12.3782 17.4593 9.40261C16.9077 8.98279 16.2151 8.60893 16.5951 9.57116C16.9751 10.5334 17.4777 14.2628 15.6819 16.0064C13.8862 17.7501 12.2038 17.793 11.5971 13.9686C11.5235 13.0002 11.5082 11.373 11.7932 10.515C11.7932 10.515 11.8667 10.2331 11.9464 10.0002C12.0475 9.70906 12.1303 9.4639 11.8208 9.56503C11.263 9.74889 10.4908 10.5456 10.4908 10.5456H10.4969Z" fill="#EDFF4A"/>
<path d="M22.3319 18.271C22.3319 18.271 20.91 12.3782 17.4656 9.40261C16.914 8.98279 16.2215 8.60893 16.6015 9.57116C16.9815 10.5334 17.484 14.2628 15.6883 16.0064C13.8925 17.7501 12.2102 17.793 11.6034 13.9686C11.5299 13.0002 11.5146 11.373 11.7995 10.515C11.7995 10.515 11.8731 10.2331 11.9528 10.0002C12.0539 9.70906 12.1366 9.4639 11.8271 9.56503C11.2694 9.74889 10.4972 10.5456 10.4972 10.5456C10.4972 10.5456 9.39704 11.4956 8.31837 13.3189C7.2397 15.1423 5.52976 18.2955 5.80249 21.0566C5.80249 21.0566 9.29592 23.8145 14.3491 23.9187C20.7476 24.0536 22.2308 18.9145 22.3289 18.268L22.3319 18.271Z" fill="#EEB50E"/>
<path d="M18.8871 14.7106C18.7094 15.6146 17.5449 18.4951 14.4192 18.299C11.2935 18.1029 11.5969 13.9046 11.5969 13.9046C12.2006 17.729 13.8891 17.7413 15.6848 15.9976C17.4806 14.254 16.9811 10.5246 16.598 9.56237C16.215 8.60014 16.9106 8.974 17.4622 9.39382C17.4622 9.39382 19.6318 10.9199 18.8902 14.7075L18.8871 14.7106Z" fill="#C27506"/>
<path d="M16.1687 18.0716C16.1442 18.0716 16.1196 18.0685 16.0982 18.0563L14.3484 17.2503L13.4475 17.995C13.3831 18.0471 13.2881 18.041 13.2299 17.9797C13.1747 17.9184 13.1809 17.8264 13.2452 17.7743L14.2197 16.9684C14.2657 16.9286 14.3331 16.9224 14.3882 16.947L15.9971 17.6885L15.899 15.8223C15.8959 15.7426 15.9603 15.6752 16.043 15.6691L18.1667 15.5343L16.8398 13.6435C16.8153 13.6067 16.8061 13.5608 16.8214 13.5179C16.8367 13.475 16.8704 13.4413 16.9133 13.4259C17.6488 13.1624 18.4547 12.856 18.7091 12.7334C18.5252 12.5097 17.707 11.9458 16.9715 11.5046C16.9041 11.4647 16.8796 11.382 16.9195 11.3146L17.7254 9.85591C17.7652 9.78543 17.8572 9.75785 17.9338 9.79462C18.0073 9.83139 18.038 9.92026 17.9981 9.99074L17.2565 11.3299C19.1871 12.5066 19.0768 12.7456 19.0308 12.8498C19.0033 12.9111 18.9603 13 17.2044 13.6343L18.5712 15.5833C18.6018 15.6262 18.6049 15.6814 18.5804 15.7273C18.5558 15.7733 18.5068 15.8039 18.4517 15.807L16.2116 15.948L16.3127 17.9153C16.3127 17.9674 16.2882 18.0164 16.2453 18.044C16.2208 18.0593 16.1932 18.0685 16.1656 18.0685L16.1687 18.0716Z" fill="black"/>
<path d="M3.38717 29.0547C3.38717 29.0547 0.846773 34.7055 0.650651 35.0487C0.454528 35.395 0.105185 36.7617 1.87948 36.2806C3.65377 35.7995 16.5458 30.6053 16.5458 30.6053C16.5458 30.6053 30.4367 32.6339 31.1048 32.8147C32.0057 33.0599 32.5726 32.3183 31.736 31.5369C30.9638 30.8137 26.2845 25.9443 26.2845 25.9443L24.4366 18.7215L22.5489 18.2588C22.5489 18.2588 23.0086 22.3007 23.2875 24.8718C23.4376 26.2538 23.2936 26.692 22.5336 26.9311C20.9891 27.4122 9.08085 28.5491 7.6988 28.4878C6.31981 28.4234 6.25239 27.8443 6.19111 27.3601C6.12675 26.8759 5.79273 21.029 5.79273 21.029L4.19311 21.3845L3.69055 27.881C3.69055 27.881 3.54039 28.6196 3.38717 29.0547Z" fill="#2689E9"/>
<path d="M4.95353 23.3949H4.9474C4.82176 23.3949 4.72064 23.2876 4.7237 23.1589L4.74209 22.2396C4.74209 22.1109 4.84934 22.0098 4.97805 22.0159C5.10369 22.0159 5.20481 22.1231 5.20175 22.2518L5.18336 23.1712C5.18336 23.2968 5.07917 23.3949 4.95353 23.3949Z" fill="black"/>
<path d="M3.54415 32.061C3.51351 32.061 3.4798 32.0549 3.44916 32.0396C3.33271 31.9875 3.28061 31.8526 3.33271 31.7362L4.17542 29.8516C4.22752 29.7351 4.36235 29.683 4.4788 29.7351C4.59524 29.7872 4.64734 29.922 4.59525 30.0385L3.75253 31.9231C3.71576 32.0089 3.62996 32.0579 3.54109 32.0579L3.54415 32.061ZM4.86185 27.8658H4.85572C4.73008 27.8658 4.62895 27.7586 4.63202 27.6299L4.67492 25.5675C4.67492 25.4388 4.78217 25.3408 4.91088 25.3438C5.03652 25.3438 5.13765 25.4511 5.13458 25.5798L5.09168 27.6421C5.09168 27.7678 4.98749 27.8658 4.86185 27.8658Z" fill="black"/>
<path d="M2.18306 35.0979C2.12177 35.0979 2.06049 35.0734 2.01759 35.0274C1.95323 34.96 1.93791 34.8588 1.97468 34.7761L2.35161 33.9365C2.4037 33.82 2.53853 33.7679 2.65498 33.82C2.77143 33.8721 2.82352 34.0069 2.77143 34.1234L2.62434 34.4513L2.96142 34.3226C3.07787 34.2766 3.21271 34.3348 3.25867 34.4543C3.30464 34.5739 3.24641 34.7056 3.1269 34.7516L2.26887 35.0826C2.24129 35.0917 2.21371 35.0979 2.18613 35.0979H2.18306Z" fill="black"/>
<path d="M5.12767 33.9585C5.03574 33.9585 4.94994 33.9033 4.91317 33.8114C4.8672 33.6919 4.92542 33.5601 5.04494 33.5142L6.83455 32.8216C6.95406 32.7756 7.08583 32.8339 7.1318 32.9534C7.17777 33.0729 7.11954 33.2047 7.00003 33.2506L5.21041 33.9432C5.18283 33.9524 5.15525 33.9585 5.12767 33.9585ZM9.00109 32.4569C8.90916 32.4569 8.82335 32.4018 8.78658 32.3098C8.74061 32.1903 8.79884 32.0586 8.91835 32.0126L10.708 31.32C10.8275 31.2741 10.9592 31.3323 11.0052 31.4518C11.0512 31.5713 10.993 31.7031 10.8734 31.7491L9.08383 32.4416C9.05625 32.4508 9.02867 32.4569 9.00109 32.4569ZM26.9156 31.1791C26.9156 31.1791 26.8942 31.1791 26.8819 31.1791L24.982 30.9125C24.8564 30.8941 24.7675 30.7776 24.7859 30.652C24.8043 30.5264 24.9207 30.4375 25.0463 30.4559L26.9463 30.7225C27.0719 30.7409 27.1608 30.8573 27.1424 30.983C27.1271 31.0994 27.029 31.1821 26.9156 31.1821V31.1791ZM12.8776 30.9584C12.7856 30.9584 12.6998 30.9033 12.6631 30.8114C12.6171 30.6918 12.6753 30.5601 12.7948 30.5141L14.5844 29.8215C14.704 29.7756 14.8357 29.8338 14.8817 29.9533C14.9277 30.0728 14.8694 30.2046 14.7499 30.2506L12.9603 30.9431C12.9327 30.9523 12.9052 30.9584 12.8776 30.9584ZM22.8001 30.603C22.8001 30.603 22.7787 30.603 22.7664 30.603L20.8665 30.3364C20.7408 30.318 20.652 30.2015 20.6704 30.0759C20.6888 29.9503 20.8021 29.8644 20.9308 29.8798L22.8308 30.1464C22.9564 30.1648 23.0453 30.2812 23.0269 30.4068C23.0116 30.5233 22.9135 30.606 22.8001 30.606V30.603ZM18.6877 30.0238C18.6877 30.0238 18.6662 30.0238 18.654 30.0238L16.754 29.7572C16.6284 29.7388 16.5395 29.6224 16.5579 29.4967C16.5763 29.3711 16.6897 29.2853 16.8184 29.3006L18.7183 29.5672C18.844 29.5856 18.9328 29.702 18.9145 29.8277C18.8991 29.9441 18.8011 30.0269 18.6877 30.0269V30.0238Z" fill="black"/>
<path d="M30.0417 31.6169C30.0417 31.6169 30.0202 31.6169 30.011 31.6169L29.1009 31.4882C28.9752 31.4698 28.8864 31.3534 28.9048 31.2277C28.9231 31.1021 29.0396 31.0163 29.1652 31.0316L29.4257 31.0684L29.2449 30.8784C29.1591 30.7865 29.1622 30.6394 29.2541 30.5536C29.346 30.4647 29.4931 30.4708 29.5789 30.5628L30.2102 31.2308C30.2776 31.3013 30.2929 31.4085 30.247 31.4943C30.2071 31.5709 30.1275 31.62 30.0417 31.62V31.6169Z" fill="black"/>
<path d="M27.6856 29.1316C27.6243 29.1316 27.563 29.1071 27.5201 29.0612L26.043 27.5014C25.9572 27.4095 25.9603 27.2624 26.0522 27.1766C26.1442 27.0907 26.2913 27.0938 26.3771 27.1857L27.8541 28.7455C27.9399 28.8375 27.9368 28.9846 27.8449 29.0704C27.7989 29.1133 27.7438 29.1347 27.6856 29.1347V29.1316ZM24.9766 25.4911C24.8694 25.4911 24.7744 25.4176 24.7529 25.3073L24.3208 23.1989C24.2963 23.0733 24.376 22.9538 24.4986 22.9262C24.6212 22.8986 24.7437 22.9814 24.7713 23.104L25.2034 25.2123C25.2279 25.3379 25.1482 25.4574 25.0257 25.4819C25.0103 25.485 24.995 25.4881 24.9797 25.4881L24.9766 25.4911Z" fill="black"/>
<path d="M24.0354 20.9314C23.9282 20.9314 23.8332 20.8578 23.8117 20.7475C23.6585 20.0151 23.6278 19.8864 23.6217 19.8649C23.588 19.7424 23.6585 19.6167 23.778 19.58C23.9006 19.5462 24.0262 19.6137 24.0599 19.7332C24.0661 19.7577 24.0814 19.8037 24.2591 20.6494C24.2836 20.7751 24.207 20.8946 24.0814 20.9222C24.0661 20.9252 24.0507 20.9283 24.0354 20.9283V20.9314Z" fill="black"/>
<path d="M20.6584 21.1027C20.6584 21.1027 19.1629 21.1364 18.5991 21.7677C18.0352 22.3989 17.2293 24.3448 17.5878 25.209C17.9464 26.0731 18.9852 26.0885 19.8218 25.7453C20.6584 25.402 21.8504 24.0384 21.8749 22.9781C21.8995 21.9178 21.259 21.1149 20.6584 21.0996V21.1027Z" fill="#FF7140"/>
<path d="M11.4253 19.2427C11.4253 19.2427 10.0157 19.2979 9.81652 20.9189C9.61734 22.54 9.7154 25.0896 11.1097 25.4727C12.504 25.8557 13.4172 24.7801 13.4816 23.5697C13.5459 22.3592 13.7236 19.0711 11.4253 19.2396V19.2427Z" fill="white"/>
<path d="M11.7375 25.6872C11.523 25.6933 11.2993 25.6657 11.0726 25.6044C9.67212 25.2183 9.44842 22.8342 9.68132 20.9097C9.88357 19.2427 11.3208 19.1201 11.4188 19.114C11.9674 19.0742 12.424 19.2151 12.7764 19.54C13.7876 20.4593 13.6742 22.6381 13.6252 23.5697V23.5819C13.5854 24.3419 13.233 25.0191 12.6814 25.3869C12.3994 25.5768 12.0808 25.678 11.7375 25.6872ZM11.4311 19.3745C11.3759 19.3745 10.1379 19.4511 9.96018 20.9343C9.78244 22.4021 9.83454 24.9823 11.1553 25.3501C11.664 25.491 12.1359 25.4298 12.519 25.1723C13.0001 24.8506 13.3096 24.25 13.3433 23.5697V23.5574C13.3893 22.6626 13.4996 20.5696 12.5803 19.7299C12.283 19.4603 11.9091 19.3438 11.4372 19.3775H11.4311V19.3745Z" fill="black"/>
<path d="M11.5234 20.088C11.5234 20.088 10.3987 20.1677 10.3742 21.4946C10.3528 22.6897 10.3068 24.6019 11.508 24.7337C12.9177 24.89 13.0127 23.5539 12.9115 22.0217C12.838 20.9032 12.5653 20.0758 11.5234 20.088Z" fill="#2CE69D"/>
<path d="M11.6211 20.79C11.6211 20.79 10.7478 20.787 10.7355 21.8381C10.7263 22.7359 10.7539 23.9617 11.5445 24.0812C12.5129 24.2283 12.6477 23.2232 12.5588 22.12C12.5006 21.4091 12.3811 20.8146 11.6211 20.79Z" fill="black"/>
<path d="M11.0212 21.3754C11.0212 21.3754 10.6964 21.3968 10.6749 21.8044C10.6535 22.212 10.6443 22.6318 10.9722 22.7115C11.3001 22.7911 11.5207 22.549 11.5238 22.2549C11.5268 21.9607 11.5851 21.3049 11.0212 21.3754Z" fill="white"/>
<path d="M16.1967 23.4716C16.1967 23.4716 16.1446 24.2286 15.3356 24.7035C14.499 25.1938 14.4071 24.8997 14.2692 24.7955C14.1313 24.6913 13.2518 23.582 13.9842 22.9231C14.7166 22.2643 15.8412 22.7025 16.1998 23.4747L16.1967 23.4716Z" fill="#FF7140"/>
<path d="M14.4435 25.139C14.419 25.139 14.3945 25.1359 14.37 25.1236C13.944 24.8999 13.4782 24.2074 13.4905 23.573C13.4966 23.141 13.7203 22.8039 14.1309 22.5955C15.1146 22.0991 15.9696 22.8192 16.2852 23.2697C16.3281 23.331 16.3097 23.4137 16.2454 23.4535C16.181 23.4934 16.0922 23.478 16.0493 23.4168C16.0186 23.3708 15.2617 22.3228 14.2596 22.8253C13.9409 22.9877 13.7755 23.239 13.7693 23.573C13.7601 24.0909 14.1585 24.7069 14.5079 24.8907C14.5753 24.9275 14.5998 25.0072 14.5599 25.0715C14.5354 25.1144 14.4895 25.139 14.4404 25.139H14.4435Z" fill="black"/>
<path d="M10.7603 26.6767C10.6929 26.6767 10.6316 26.6338 10.6194 26.5694C10.4079 25.4325 9.98196 24.6664 9.35375 24.2956C8.75313 23.9401 8.18008 24.0811 8.17395 24.0842C8.09734 24.1026 8.02073 24.0627 8.00235 23.9922C7.9809 23.9218 8.02686 23.8482 8.10347 23.8298C8.13105 23.8237 8.80216 23.6552 9.50697 24.0719C10.2057 24.4856 10.6745 25.3099 10.8982 26.5234C10.9105 26.5939 10.8614 26.6644 10.7848 26.6767C10.7787 26.6767 10.7726 26.6767 10.7634 26.6767H10.7603Z" fill="black"/>
<path d="M19.0125 19.0588C19.0125 19.0588 17.9676 19.5031 17.18 20.7319C17.18 20.7319 17.8511 19.5521 19.5641 19.9015C19.5641 19.9015 19.4017 19.9505 18.9574 20.0761C18.9574 20.0761 19.509 20.0792 19.748 20.26C19.748 20.26 18.5222 20.07 17.4037 21.2345C17.4037 21.2345 18.366 20.3857 19.8093 20.8116C19.8093 20.8116 19.2209 20.8208 18.7459 21.0476C18.7459 21.0476 19.4691 20.9005 19.8062 21.2222C19.8062 21.2222 17.8297 21.0905 16.3189 22.4664C16.3189 22.4664 15.9972 19.7973 18.7858 18.8105C18.7858 18.8105 18.3568 19.0251 18.1882 19.2947C18.1882 19.2947 18.5835 19.1384 19.0034 19.068L19.0125 19.0588Z" fill="black"/>
<path d="M13.6652 25.4909C13.6652 25.4909 15.5712 26.2203 16.4293 23.6094C16.4293 23.6094 17.3057 25.8954 16.0003 27.1641C15.5161 27.5104 15.0258 27.5931 14.8634 26.873C14.7009 26.1498 13.9471 25.6135 13.6621 25.4909H13.6652Z" fill="black"/>
<path d="M16.6536 25.9288C16.6046 26.3762 16.4422 26.8481 16.0223 27.1821C15.5382 27.5284 14.8885 27.6142 14.8701 26.8726C14.8701 26.8052 14.91 26.177 15.6761 25.843C16.4422 25.509 16.6873 25.6499 16.6567 25.9288H16.6536Z" fill="#912407"/>
<path d="M17.5142 24.9756H17.5111C17.4345 24.9756 17.3701 24.9174 17.3701 24.8439C17.3671 23.3668 17.7654 22.2882 18.5591 21.6354C19.5183 20.8479 20.6889 20.9888 20.7379 20.995C20.8145 21.0042 20.8666 21.0716 20.8574 21.1451C20.8452 21.2187 20.7747 21.2677 20.6981 21.2585C20.6858 21.2585 19.601 21.1298 18.743 21.8377C18.0167 22.4353 17.6521 23.4465 17.6551 24.8408C17.6551 24.9113 17.5938 24.9726 17.5172 24.9756H17.5142Z" fill="black"/>
<path d="M20.0824 21.4922C20.0824 21.4922 19.6043 21.5443 19.5032 22.0101C19.4021 22.4759 19.6717 22.6996 19.9414 22.7241C20.2111 22.7486 20.6677 22.6782 20.9097 22.2614C21.1518 21.8446 20.7994 21.3482 20.0824 21.4922Z" fill="white"/>
<path d="M31.396 21.3727C31.1662 21.057 31.0068 20.6985 30.8444 20.343C30.446 19.4666 30.0415 18.5074 30.2591 17.5697C30.3756 17.0641 30.6697 16.6106 30.7801 16.1019C30.9118 15.489 30.7678 14.8424 30.5073 14.2724C30.3664 13.9629 30.1886 13.6687 30.0936 13.3408C29.9986 13.0129 29.9986 12.6391 30.1917 12.3572C30.2806 12.2285 30.4215 12.1335 30.5717 12.0875C29.9465 12.0262 29.2662 12.348 29.0824 12.9425C28.8311 13.7545 29.539 14.5789 29.4654 15.4246C29.4287 15.8445 29.2571 16.2857 29.1498 16.6933C28.9874 17.3062 28.9016 17.4931 28.9261 17.9834C28.9261 17.9834 27.4889 17.6708 27.4521 18.6361C27.4123 19.6719 28.0006 21.3267 28.4174 22.0591C28.7637 22.6658 29.8025 22.2552 30.1396 21.5688C30.1396 21.5688 30.1427 21.5749 30.1488 21.5841C30.2469 21.7404 30.3173 22.387 32.539 22.2062C32.6187 22.2 32.6953 22.1909 32.775 22.1817C32.6126 22.1725 32.4502 22.148 32.2939 22.0928C31.9262 21.961 31.6258 21.6883 31.396 21.3727Z" fill="#E4E28B"/>
<path d="M34.5247 20.9684C34.3807 20.7508 34.3562 20.5915 34.4481 20.3463C34.54 20.1012 34.7055 19.8928 34.8679 19.6875C34.4818 19.9909 33.9854 19.902 33.7157 19.4944C33.446 19.0838 33.4705 18.4924 33.8904 18.2074C33.6054 18.2993 33.2744 18.3514 33.0201 18.1921C32.729 18.0113 32.6493 17.6006 32.7627 17.2758C32.8761 16.954 33.1427 16.7058 33.4246 16.5128C33.6238 16.3779 33.918 16.1971 34.1754 16.0347C34.4113 15.8876 34.7974 15.5076 34.7361 15.2747C34.7086 15.1675 34.6749 15.0939 34.6381 15.0327C33.8321 15.0388 33.1273 15.4218 33.1273 15.4218C32.8515 14.7783 32.6615 14.098 32.3245 13.4821C31.9874 12.8661 31.4726 12.3084 30.7953 12.1276C30.7218 12.1092 30.6452 12.0969 30.5686 12.0908C30.4184 12.1368 30.2774 12.2318 30.1886 12.3605C29.9955 12.6393 29.9955 13.0163 30.0905 13.3442C30.1855 13.6721 30.3602 13.9662 30.5042 14.2757C30.7647 14.8457 30.9118 15.4923 30.7769 16.1052C30.6666 16.6139 30.3755 17.0674 30.256 17.5731C30.0384 18.5108 30.446 19.4669 30.8413 20.3463C31.0006 20.7018 31.163 21.0604 31.3929 21.376C31.6227 21.6916 31.923 21.9674 32.2908 22.0961C32.447 22.1513 32.6094 22.1758 32.7719 22.185C33.7984 22.0777 34.7208 21.8111 35.4532 21.4342C35.0916 21.4771 34.7178 21.2718 34.5216 20.9715L34.5247 20.9684Z" fill="#E81413"/>
<path d="M35.0218 18.9333C35.0585 18.8751 34.9727 19.0068 34.841 19.1018C34.605 19.2765 34.2373 19.5094 34.2158 19.5216L35.2884 22.1999C35.2884 22.1999 35.2914 22.2153 35.2945 22.2214C35.2976 22.2275 35.3006 22.2337 35.3067 22.2398C35.4048 22.3899 35.7909 22.3716 36.1985 22.1877C36.6061 22.0069 36.8819 21.728 36.839 21.5534L36.0514 19.8924C36.0514 19.8924 35.8124 19.9844 35.5274 19.9078C35.4508 19.8863 35.1842 19.8097 35.034 19.4481C35.034 19.4481 34.9758 19.3194 34.9666 19.1723C34.9605 19.0896 34.9697 19.0068 35.0187 18.9302L35.0218 18.9333Z" fill="#BD7E47"/>
<path d="M33.1364 17.1252L30.4551 10.8983L31.9903 10.2119L34.7269 16.7759C34.3408 16.6502 33.97 16.6748 33.6329 16.7238L33.2835 16.8249C33.2835 16.8249 33.1671 17.1068 33.1395 17.1283L33.1364 17.1252Z" fill="#BD7E47"/>
<path d="M27.817 19.3832C27.7588 19.3832 27.7006 19.3495 27.6761 19.2913C27.6424 19.2147 27.6761 19.1228 27.7558 19.0891C28.1266 18.9266 28.5341 18.8684 28.9356 18.9236C29.0183 18.9358 29.0765 19.0124 29.0673 19.0952C29.0551 19.1779 28.9785 19.2362 28.8957 19.227C28.5556 19.181 28.197 19.23 27.8814 19.3679C27.8599 19.3771 27.8416 19.3802 27.8201 19.3802L27.817 19.3832Z" fill="black"/>
<path d="M28.0964 20.6093C28.0351 20.6093 27.9769 20.5725 27.9524 20.5082C27.9217 20.4285 27.9646 20.3396 28.0412 20.3121L29.0647 19.9321C29.0647 19.9321 29.0831 19.9229 29.0954 19.9198L29.1475 19.9014C29.2271 19.8769 29.313 19.9198 29.3375 19.9964C29.365 20.0761 29.3252 20.1619 29.2455 20.1895L28.1454 20.5971C28.127 20.6032 28.1086 20.6062 28.0933 20.6062L28.0964 20.6093Z" fill="black"/>
<path d="M28.5736 21.7215C28.5001 21.7215 28.4357 21.6694 28.4235 21.5958C28.4081 21.5131 28.4633 21.4334 28.546 21.4181C28.8892 21.3538 29.2049 21.173 29.4316 20.9064C29.4868 20.842 29.5849 20.8359 29.6492 20.891C29.7136 20.9462 29.7197 21.0443 29.6645 21.1086C29.3918 21.4273 29.0149 21.6449 28.6012 21.7215C28.592 21.7215 28.5828 21.7215 28.5736 21.7215Z" fill="black"/>
<path d="M34.4025 20.9987C34.5833 21.3082 34.9817 21.2867 35.3433 21.2469C36.2259 21.0447 36.6978 20.6432 36.9154 19.9997C37.2953 18.872 36.2749 18.6697 36.2749 18.6697C36.2749 18.6697 36.7652 18.2131 36.5109 17.4011C36.3607 16.92 36.1217 16.7637 35.6252 16.6625C35.6252 16.6625 36.0022 16.2948 35.6865 15.6023C35.4873 15.164 35.0828 15.0292 34.6446 15.0323C34.6814 15.0936 34.7151 15.1671 34.7427 15.2744C34.804 15.5073 34.4179 15.8872 34.1819 16.0343C33.9245 16.1968 33.6303 16.3776 33.4311 16.5124C33.1492 16.7054 32.8826 16.9506 32.7692 17.2754C32.6558 17.5972 32.7355 18.0078 33.0266 18.1917C33.281 18.351 33.6119 18.2989 33.8969 18.207C33.4648 18.443 33.3729 19.0313 33.5782 19.4787C33.6334 19.5982 33.9092 19.9231 34.4608 19.8924C34.4608 19.8924 34.0134 20.3368 34.4025 20.9987Z" fill="#E4E28B"/>
<path d="M32.2145 3.17288L32.1624 3.1974C31.5771 3.44561 31.2002 3.81028 31.4729 4.48445L31.5219 4.60703C31.0623 4.94411 30.2717 4.38639 30.0326 4.29446C29.7752 4.19639 28.4912 4.69896 28.4912 4.69896C26.2021 5.66731 24.342 7.8982 23.8333 9.04736C23.3246 10.1996 24.1428 9.81346 24.5657 9.51621C24.9702 9.23122 26.527 8.34561 27.2134 8.02997C28.3319 7.51822 29.0796 8.89107 29.0796 8.89107C29.0796 8.89107 29.7967 10.3222 29.9775 10.7083C29.9775 10.7083 30.1552 11.0668 30.3728 11.171C30.6517 11.3058 32.236 10.4509 32.236 10.4509C32.4137 10.2915 32.2268 9.70314 32.1563 9.52541C32.1563 9.52541 31.5587 8.06062 31.3044 7.28532C31.0684 6.56518 31.7211 6.10552 32.0674 5.92779C32.3524 6.48551 32.8611 6.41809 33.4158 6.1852C34.0011 5.93698 34.4239 5.59377 34.1512 4.9196L33.6057 3.57738C33.333 2.90321 32.7998 2.9216 32.2145 3.16982V3.17288Z" fill="black"/>
</g>
<defs>
<clipPath id="clip0_6283_87223">
<rect width="36" height="36" fill="white" transform="translate(2 2)"/>
</clipPath>
</defs>
</svg>
