<svg width="40" height="40" viewBox="0 0 40 40" fill="none" xmlns="http://www.w3.org/2000/svg">
<rect x="1" y="1" width="38" height="38" rx="3" fill="#F5F5F5"/>
<rect x="1" y="1" width="38" height="38" rx="3" stroke="#2CE69D" stroke-width="2"/>
<rect x="1" y="1" width="38" height="38" rx="3" stroke="#FCEB4F" stroke-width="2"/>
<g clip-path="url(#clip0_6283_90676)">
<path d="M25.9031 19.3679C25.9031 19.3679 27.5376 12.0722 35.6061 13.1027C43.6769 14.1331 44.2181 24.7368 36.6063 26.6852C36.6063 26.6852 38.2755 28.3565 36.7384 30.4261C35.2013 32.4958 28.3299 32.853 24.957 27.2849L25.9009 19.3657L25.9031 19.3679Z" fill="#CCDFF3"/>
<path d="M13.8173 18.4979C13.7805 18.0194 11.8645 10.373 3.97132 10.9467C-3.92187 11.5204 -2.96066 22.0851 2.59229 24.1374C2.59229 24.1374 0.0420442 25.4732 0.944804 28.1793C1.8454 30.8854 7.22083 31.3335 12.6807 28.3806L13.8194 18.4979H13.8173Z" fill="#CCDFF3"/>
<path d="M24.966 13.8001C24.6564 14.7483 23.0198 17.6947 19.6837 17.069C16.3476 16.4434 17.2309 11.9686 17.2309 11.9686C17.3737 16.1598 19.1879 16.4001 21.3485 14.7613C23.5112 13.1224 23.3943 8.99399 23.1107 7.90938C22.8293 6.82477 23.5957 7.37032 24.1347 7.89639C24.1347 7.89639 26.265 9.82531 24.9639 13.8022L24.966 13.8001Z" fill="#FFF046"/>
<path d="M5.42374 28.9404C5.09251 29.4946 4.71798 30.1203 4.35645 30.72C5.00591 31.3889 5.93682 32.1315 7.24874 32.7983C7.77048 33.0646 8.33119 33.3027 8.92004 33.5192C10.1519 33.2118 11.4833 32.874 12.7909 32.5385C11.8275 32.3761 10.9204 32.1553 10.0761 31.8674C7.68388 31.049 6.23341 29.8713 5.42374 28.9426V28.9404Z" fill="#3B83FF"/>
<path d="M3.71089 31.79C3.24327 32.5607 2.88173 33.1496 2.80596 33.2535C2.5505 33.5977 1.91619 34.9638 3.88841 34.6823C4.34736 34.6174 5.48177 34.3598 6.94956 34.0047C6.8673 33.9636 6.77854 33.9268 6.69844 33.8857C5.40167 33.2254 4.43396 32.4915 3.71305 31.79H3.71089Z" fill="#3B83FF"/>
<path d="M31.8848 33.7062C33.9436 34.2691 35.511 34.7086 35.7274 34.7973C36.6627 35.1805 37.2277 34.5224 36.431 33.5699C36.1907 33.2819 35.5694 32.4658 34.842 31.498C34.1146 32.1713 33.372 32.7602 32.6187 33.2559C32.3697 33.4205 32.1251 33.5677 31.8848 33.7062Z" fill="#3B83FF"/>
<path d="M37.5695 23.3944C38.167 22.9765 39.3902 22.4093 37.143 21.5023C34.898 20.5952 28.1955 18.0839 28.1955 18.0839C28.1955 18.0839 27.4465 11.5589 24.1385 7.9024C23.5995 7.37633 22.9045 6.88273 23.1881 7.96734C23.4717 9.05195 23.515 13.1284 21.3523 14.7673C19.1896 16.4061 17.3732 16.2264 17.2303 12.0352C17.278 10.983 17.4771 9.22947 17.8993 8.3462C17.8993 8.3462 18.0162 8.05177 18.1331 7.81364C18.2782 7.51488 18.4037 7.26159 18.0552 7.33086C17.4317 7.45426 16.4964 8.20981 16.4964 8.20981C16.4964 8.20981 15.1867 9.08659 13.786 10.9051C12.3853 12.7236 10.1273 15.8865 10.0559 18.8936C10.0559 18.8936 3.95624 20.3871 3.49945 20.4996C3.04266 20.6144 2.05547 21.0452 3.01884 21.9869C3.98222 22.9286 6.45784 27.2132 6.45784 27.2132C6.45784 27.2132 6.31279 27.4579 6.08114 27.8454C6.64835 28.5966 7.97975 29.8609 10.4737 30.7117C12.1537 31.2854 14.1151 31.5885 16.3168 31.6275C18.6159 31.0299 20.3023 30.584 20.3023 30.584C20.3023 30.584 21.9108 31.0126 24.0866 31.5971C28.99 30.6922 31.1116 28.7633 31.9624 27.6289C31.6139 27.1591 31.3952 26.8604 31.3952 26.8604C31.3952 26.8604 36.9763 23.8122 37.5717 23.3944H37.5695Z" fill="#3B83FF"/>
<path d="M26.5744 32.2665C27.7521 32.5826 28.9731 32.9138 30.127 33.2277C30.6921 32.9831 31.3026 32.6627 31.9455 32.2384C32.6751 31.7578 33.396 31.1798 34.1039 30.5173C33.6255 29.8765 33.1427 29.227 32.7162 28.6533C31.7853 29.7812 29.9798 31.2772 26.5723 32.2665H26.5744Z" fill="#3B83FF"/>
<path d="M6.07881 27.8449C5.90129 28.1394 5.67614 28.5182 5.42285 28.9404C6.23252 29.8691 7.683 31.0468 10.0752 31.8651C10.9173 32.1531 11.8266 32.3739 12.79 32.5363C14.0261 32.2202 15.2363 31.9063 16.3123 31.6248C14.1127 31.588 12.1492 31.285 10.4692 30.7091C7.97526 29.8561 6.64385 28.594 6.07665 27.8428L6.07881 27.8449Z" fill="#FFF046"/>
<path d="M4.35608 30.7207C4.13093 31.0952 3.91227 31.4589 3.71094 31.7902C4.43185 32.4916 5.39739 33.2255 6.69632 33.8858C6.77859 33.9269 6.86519 33.9637 6.94745 34.0048C7.55579 33.8576 8.21824 33.6931 8.91751 33.5199C8.32865 33.3034 7.76795 33.0653 7.24621 32.799C5.93428 32.1322 5.00338 31.3897 4.35391 30.7207H4.35608Z" fill="#FFF046"/>
<path d="M30.1289 33.2251C30.7394 33.3896 31.3304 33.552 31.8846 33.7035C32.1249 33.565 32.3696 33.4178 32.6185 33.2532C33.3719 32.7575 34.1145 32.1686 34.8419 31.4953C34.6037 31.1793 34.3569 30.848 34.1058 30.5146C33.3979 31.1771 32.6791 31.7551 31.9474 32.2357C31.3023 32.6601 30.6939 32.9783 30.1289 33.2251Z" fill="#FFF046"/>
<path d="M24.085 31.5952C24.86 31.803 25.7043 32.0303 26.5768 32.2642C29.9821 31.2748 31.7898 29.7767 32.7207 28.6509C32.4328 28.2634 32.1752 27.9149 31.963 27.627C31.1122 28.7592 28.9906 30.6881 24.0871 31.5952H24.085Z" fill="#FFF046"/>
<path d="M17.7634 16.9548C17.5404 16.9938 17.3239 16.8531 17.2784 16.6388C15.8582 9.84749 19.177 8.24114 19.3177 8.17403C19.5234 8.08094 19.7724 8.1632 19.872 8.36021C19.9715 8.55505 19.8893 8.79102 19.6858 8.88628C19.6403 8.91009 16.8108 10.3692 18.0902 16.4915C18.1357 16.7059 17.9885 16.9115 17.7655 16.9527H17.7634V16.9548Z" fill="#1E1412"/>
<path d="M20.6477 8.98127C20.8207 8.50859 20.6361 8.00644 20.2353 7.85969C19.8345 7.71293 19.3692 7.97713 19.1962 8.44981C19.0231 8.92249 19.2077 9.42464 19.6086 9.57139C20.0094 9.71815 20.4746 9.45394 20.6477 8.98127Z" fill="#1E1412"/>
<path d="M22.6561 17.3717C22.4309 17.3435 22.2685 17.1487 22.2924 16.9322C23.0934 10.0695 26.778 9.50012 26.9339 9.47847C27.1612 9.44816 27.3712 9.5997 27.4058 9.81403C27.4405 10.0284 27.2846 10.2275 27.0616 10.26C27.0097 10.2687 23.8403 10.8402 23.1172 17.0253C23.0912 17.2418 22.8877 17.3955 22.6582 17.3695H22.6561V17.3717Z" fill="#1E1412"/>
<path d="M27.9179 10.6688C28.2518 10.2841 28.2641 9.74802 27.9454 9.47135C27.6267 9.19467 27.0976 9.2822 26.7637 9.66683C26.4298 10.0515 26.4176 10.5876 26.7363 10.8642C27.055 11.1409 27.5841 11.0534 27.9179 10.6688Z" fill="#1E1412"/>
<path d="M19.4433 17.1943C19.4433 17.1943 14.6416 16.6834 12.5763 19.6125C10.511 22.5438 11.4072 25.9708 14.5139 27.8673C17.6205 29.7637 23.5068 29.4476 25.4466 27.798C27.3863 26.1483 28.8801 22.4334 26.1393 19.4783C25.8081 18.9284 24.0978 17.7009 19.4433 17.1943Z" fill="#FFF046"/>
<path d="M18.5282 23.4231C18.5282 23.4231 18.7685 24.4103 19.6972 24.8086C20.626 25.207 20.7494 24.8108 20.8836 24.6788C21.0157 24.5467 21.3014 22.9209 20.2969 22.5355C19.4742 22.2194 18.8031 22.5355 18.5282 23.4231Z" fill="#FF7140"/>
<path d="M20.8147 25.0419C20.8644 25.0376 20.9121 25.0095 20.9402 24.9662C21.1957 24.5678 21.3364 23.5958 20.99 22.9117C20.7779 22.4939 20.4163 22.2471 19.9444 22.1951C19.0005 22.0912 18.5199 22.8597 18.4008 23.2797C18.377 23.3641 18.4289 23.4507 18.5177 23.4724C18.6065 23.494 18.6974 23.4442 18.7212 23.3598C18.732 23.3209 19.0091 22.4138 19.9054 22.509C20.2648 22.548 20.5311 22.7298 20.6934 23.0524C20.9878 23.6304 20.8688 24.4747 20.6588 24.8038C20.6112 24.8796 20.635 24.9748 20.7129 25.0203C20.7454 25.0376 20.78 25.0463 20.8147 25.0419Z" fill="#231815"/>
<path d="M12.6629 22.5564C12.6629 22.5564 12.3446 22.617 12.1454 22.9418C11.9463 23.2665 11.9809 24.1281 12.3554 24.8274C12.3554 24.8274 12.9573 26.4121 14.135 26.2324C15.553 26.0137 14.5788 23.9896 14.5333 23.8792C14.4879 23.7687 13.9575 22.394 12.6629 22.5586V22.5564Z" fill="#FF7140"/>
<path d="M14.9794 25.8513C14.8993 25.8427 14.8343 25.7799 14.83 25.6998C14.7607 24.4442 14.4143 23.5587 13.7973 23.0694C13.2107 22.604 12.5872 22.6754 12.5807 22.6754C12.4897 22.6863 12.4053 22.6256 12.3923 22.5391C12.3793 22.4525 12.4421 22.3724 12.533 22.3615C12.5655 22.3572 13.3102 22.2728 14.0073 22.827C14.7001 23.3769 15.0876 24.3381 15.1612 25.6868C15.1656 25.7734 15.0963 25.847 15.0032 25.8513C14.9945 25.8513 14.9859 25.8513 14.9794 25.8513Z" fill="black"/>
<path d="M20.4197 25.431C20.4197 25.431 19.6295 26.0913 18.9129 25.6453C18.1422 25.1647 17.5014 24 17.5014 24C17.5014 24 17.7915 24.6863 17.9994 25.6691C18.2072 26.6542 17.456 27.7712 18.9627 27.8362C19.2095 27.8124 19.5256 27.6349 19.5408 27.2105C19.5559 26.7862 19.6836 26.403 20.4219 25.431H20.4197Z" fill="#020200"/>
<path d="M18.0293 27.2066C18.0423 27.6807 18.1679 27.986 19.0122 28.0228C19.3218 27.986 19.5794 27.7717 19.4538 27.3647C19.3716 27.094 19.1789 26.8364 18.6788 26.8321C18.209 26.8278 18.0228 27.0486 18.0272 27.2066H18.0293Z" fill="#C46372"/>
<path d="M13.1959 23.0849C13.1959 23.0849 12.83 22.8381 12.5442 23.2061C12.2585 23.5742 13.027 23.9422 13.2716 23.7279C13.5163 23.5135 13.486 23.2473 13.1959 23.0849Z" fill="white"/>
<path d="M23.2153 17.8935C23.2153 17.8935 24.7286 17.7506 25.1594 19.4782C25.5902 21.2058 25.837 23.9747 24.4038 24.5895C22.9707 25.2043 21.8471 24.1674 21.6133 22.8684C21.3816 21.5695 20.7387 18.0364 23.2153 17.8913V17.8935Z" fill="white"/>
<path d="M23.7674 24.9206C23.9991 24.8989 24.235 24.8362 24.471 24.7344C25.9193 24.1131 25.8349 21.4957 25.3218 19.4413C24.8758 17.6595 23.3193 17.7288 23.2067 17.7353C22.6114 17.77 22.1394 17.9908 21.8039 18.3934C20.8491 19.5387 21.267 21.8811 21.4467 22.8813C21.596 23.7191 22.068 24.4032 22.711 24.7258C23.04 24.8903 23.3972 24.9552 23.7653 24.9184L23.7674 24.9206ZM23.2305 18.0514C23.2911 18.0471 24.6074 17.9518 24.9992 19.517C25.3889 21.0757 25.6877 23.8685 24.339 24.4465C23.8194 24.6695 23.3128 24.6695 22.8712 24.4465C22.3169 24.1672 21.9099 23.5675 21.7779 22.8401C21.6025 21.8659 21.202 19.6188 22.0637 18.5861C22.3408 18.2527 22.7218 18.0774 23.224 18.0492H23.2305V18.0514Z" fill="black"/>
<path d="M24.6075 23.2607C25.7613 22.674 25.3522 20.7191 24.9971 19.4635C24.549 17.8809 23.17 18.2555 23.17 18.2555C22.7067 18.42 22.252 18.8811 22.3711 20.2969C22.4902 21.7128 22.7348 22.7195 23.2349 23.1481C23.735 23.5768 24.4408 23.3473 24.6096 23.2607H24.6075Z" fill="#2CE69D"/>
<path d="M23.8844 18.5862C23.8844 18.5862 24.8586 18.3784 25.1227 19.5669C25.3478 20.5801 25.6055 21.9743 24.7503 22.2947C23.7025 22.6887 23.315 21.5803 23.1548 20.3095C23.0509 19.489 23.0444 18.7919 23.8844 18.5862Z" fill="black"/>
<path d="M24.2225 18.8057C24.2225 18.8057 24.6966 18.7234 24.8742 19.3101C25.0517 19.8968 25.292 20.6567 24.7767 20.8905C24.2788 21.1178 23.9952 20.7325 23.8848 20.3038C23.7744 19.8752 23.4388 18.9399 24.2225 18.8057Z" fill="white"/>
<path d="M16.0171 18.1601C16.0171 18.1601 17.5303 18.0172 17.9611 19.7448C18.392 21.4724 18.6388 24.2413 17.2056 24.8561C15.7724 25.4709 14.6489 24.434 14.4151 23.135C14.1812 21.8361 13.5404 18.303 16.0171 18.1579V18.1601Z" fill="white"/>
<path d="M16.5692 25.1872C16.8008 25.1655 17.0368 25.1028 17.2728 25.001C18.7211 24.3797 18.6367 21.7623 18.1236 19.7079C17.6776 17.9261 16.121 17.9954 16.0085 18.0019C15.4131 18.0366 14.9412 18.2574 14.6056 18.66C13.6509 19.8053 14.0687 22.1477 14.2484 23.1479C14.3978 23.9857 14.8697 24.6698 15.5127 24.9924C15.8418 25.1569 16.199 25.2218 16.567 25.185L16.5692 25.1872ZM16.0301 18.318C16.0907 18.3137 17.407 18.2184 17.7988 19.7836C18.1885 21.3423 18.4873 24.1351 17.1385 24.7131C16.619 24.9361 16.1124 24.9361 15.6707 24.7131C15.1165 24.4338 14.7095 23.8341 14.5775 23.1067C14.4021 22.1325 14.0016 19.8854 14.8632 18.8527C15.1404 18.5193 15.5235 18.344 16.0236 18.3158H16.0301V18.318Z" fill="black"/>
<path d="M17.4131 23.5783C18.567 22.9916 18.1578 21.0367 17.8028 19.7811C17.3547 18.1985 15.9345 18.6618 15.9345 18.6618C15.3348 18.9194 15.0577 19.1446 15.1421 20.5648C15.2374 22.1624 15.5383 23.1042 16.0384 23.5307C16.5385 23.9571 17.2443 23.6649 17.4131 23.5783Z" fill="#2CE69D"/>
<path d="M16.7164 18.8567C16.7164 18.8567 17.6906 18.6489 17.9547 19.8374C18.1799 20.8506 18.4375 22.2448 17.5824 22.5652C16.5345 22.9592 16.147 21.8508 15.9868 20.58C15.8829 19.7595 15.8764 19.0624 16.7164 18.8567Z" fill="black"/>
<path d="M17.0087 19.1709C17.0087 19.1709 17.4828 19.0887 17.6603 19.6754C17.8378 20.262 18.0781 21.0219 17.5629 21.2557C17.0649 21.483 16.7813 21.0977 16.6709 20.669C16.5605 20.2404 16.225 19.3052 17.0087 19.1709Z" fill="white"/>
<path d="M13.8629 14.8952C14.9932 13.9197 15.4199 14.2011 16.4447 14.4714C17.4695 14.7417 18.1933 13.2993 17.1049 12.4544C16.0142 11.6091 15.2335 12.6585 14.5035 11.9727C14.084 11.5782 14.2061 10.8391 13.4258 10.3598C12.425 9.74848 11.9468 10.9624 11.139 10.2692C10.4473 9.67611 11.0284 8.89208 9.96057 8.23785C8.89274 7.58362 8.27285 8.69283 7.87577 8.27157C7.47869 7.85032 7.47197 6.50728 6.00703 6.33587C5.52653 6.28014 4.60914 7.11141 5.26009 7.88195C6.0519 8.82303 6.40032 9.09914 6.15499 10.4738C6.04756 11.0704 5.72769 13.604 8.27217 15.2808C10.8166 16.9577 13.1929 15.4762 13.865 14.8956L13.8629 14.8952Z" fill="#FF7EC4"/>
<path d="M7.2809 14.2403C7.26714 14.2312 7.25163 14.2196 7.24115 14.2045C6.62059 13.4241 6.56354 12.0918 7.11782 11.2369C7.1636 11.1659 7.25573 11.1429 7.32842 11.1912C7.39937 11.237 7.41986 11.3309 7.37409 11.4018C6.89532 12.1427 6.94381 13.3393 7.47996 14.0144C7.53178 14.0809 7.52129 14.1758 7.45476 14.2276C7.40333 14.2689 7.33246 14.2716 7.28129 14.2381L7.2809 14.2403Z" fill="#F9F297"/>
<path d="M8.44077 14.6649C8.41964 14.6479 8.4014 14.627 8.38896 14.5984C8.35688 14.52 8.39468 14.4322 8.47305 14.4001C9.13289 14.1318 9.65353 13.5371 9.82838 12.847C9.84974 12.7651 9.9333 12.7163 10.0131 12.7373C10.0951 12.7587 10.1438 12.8422 10.1228 12.9221C9.92258 13.7043 9.33468 14.3793 8.58506 14.6821C8.53494 14.7038 8.47955 14.6939 8.43864 14.6645L8.44077 14.6649Z" fill="#F9F297"/>
<path d="M9.62741 15.6613C9.57197 15.6271 9.54223 15.5601 9.55839 15.4949C9.57974 15.4129 9.66118 15.3638 9.74351 15.383C10.6336 15.6071 11.665 15.1813 12.1404 14.398C12.184 14.3267 12.2783 14.3041 12.3496 14.3477C12.421 14.3914 12.4436 14.4856 12.3999 14.5569C11.8492 15.4652 10.6994 15.9379 9.6681 15.6796C9.65319 15.6769 9.63904 15.67 9.62528 15.6609L9.62741 15.6613Z" fill="#F9F297"/>
<path d="M6.6605 17.3166C6.60582 16.8141 6.95073 16.841 6.29366 15.8846C6.08092 15.5757 5.11495 15.162 4.8301 14.9237C4.2734 14.4605 4.38967 13.485 4.02708 12.8478C3.8183 12.4802 3.47584 12.1832 3.06365 12.1023C2.65146 12.0215 2.17482 12.1887 1.93689 12.5572C1.75129 12.8427 1.71069 13.2269 1.44597 13.4388C1.08591 13.7281 0.567963 13.5139 0.136581 13.6496C-0.390596 13.8164 -0.650457 14.5021 -0.501435 15.0305C-0.352796 15.561 0.0914605 15.9402 0.567643 16.1909C1.15662 16.4993 1.82299 16.6589 2.49547 16.6502C2.87924 16.6445 3.26796 16.5869 3.64005 16.6584C4.01214 16.7298 4.57932 16.7439 4.9258 16.8965C5.34765 17.0824 5.67853 17.8591 5.81726 18.0293C5.85685 18.0782 6.61892 18.9523 6.64133 17.2032L6.65586 17.318L6.6605 17.3166Z" fill="#2AA463"/>
<path d="M8.09571 15.8106C9.79176 16.8485 10.8227 16.2906 11.1749 16.0571C11.1749 16.0571 10.6435 15.2949 9.6342 15.3903C9.6342 15.3903 9.85495 14.592 9.16759 14.158C8.40541 13.6754 7.87227 14.3273 7.87227 14.3273C7.87227 14.3273 7.20617 13.2989 6.48436 13.2151C6.48436 13.2151 6.06316 14.5647 8.09609 15.8085L8.09571 15.8106Z" fill="#2ADC68"/>
<path d="M4.90309 28.6518C4.75233 28.585 4.63341 28.4514 4.59128 28.27C4.04736 25.9768 4.47277 22.8814 4.77497 21.2398C5.19211 18.9723 6.21484 16.8841 7.65484 15.3617C7.88331 15.1191 8.24616 15.1074 8.46245 15.3355C8.67873 15.5636 8.6695 15.9447 8.44104 16.1874C7.17423 17.5298 6.26882 19.3817 5.89794 21.4047C5.61339 22.9482 5.21049 25.8453 5.70214 27.9158C5.77703 28.2328 5.59074 28.571 5.28516 28.6678C5.1522 28.7098 5.01955 28.7013 4.90561 28.65L4.90309 28.6518Z" fill="#2ADC68"/>
<path d="M6.65993 19.2405C7.00035 18.9015 7.40609 18.6028 7.87646 18.5071C8.43142 18.3937 9.00604 18.5741 9.57003 18.5327C10.2883 18.4773 10.9315 18.0696 11.6323 17.9032C12.556 17.6846 13.5943 17.9288 14.2683 18.5957C14.9423 19.2626 15.1929 20.3504 14.8036 21.2173C14.6783 21.4983 14.4866 21.7564 14.2226 21.9156C13.9044 22.1069 13.5142 22.1356 13.1436 22.1172C12.3458 22.077 11.559 21.8407 10.8709 21.4352C10.5806 21.2642 10.3066 21.063 9.99658 20.928C9.68654 20.793 9.32859 20.7285 9.0124 20.8476C8.87326 20.8995 8.74542 20.9865 8.60355 21.0291C8.01889 21.2098 7.44536 20.6446 6.83488 20.6754C6.50864 20.6915 5.68715 21.2101 5.68907 20.6253C5.69161 20.1836 6.36746 19.5332 6.65916 19.2448L6.65993 19.2405Z" fill="#2A9277"/>
<path d="M5.76883 20.7527C5.75894 20.7465 5.74944 20.7382 5.74245 20.7281C5.70849 20.6846 5.71574 20.6199 5.76138 20.5864C6.32838 20.1495 6.97157 19.656 7.73577 19.4923C8.26865 19.3793 8.81286 19.4355 9.34176 19.4911C9.74556 19.533 10.16 19.5769 10.5619 19.5437C10.8969 19.516 11.2311 19.431 11.5561 19.3487C11.9086 19.2604 12.275 19.168 12.6465 19.1447C13.4124 19.0935 14.1977 19.3383 14.7983 19.8138C14.8427 19.8482 14.8487 19.913 14.8146 19.9553C14.7803 19.9997 14.7146 20.0099 14.6731 19.9716C14.1108 19.5272 13.3756 19.298 12.661 19.3453C12.3069 19.3695 11.9502 19.4571 11.6066 19.5448C11.2749 19.628 10.9296 19.7132 10.5807 19.745C10.1584 19.7812 9.73332 19.7354 9.321 19.6919C8.7857 19.6351 8.28061 19.5816 7.77947 19.6893C7.06096 19.8437 6.43788 20.3232 5.88674 20.7453C5.85329 20.7723 5.80701 20.7727 5.77134 20.7509L5.76883 20.7527Z" fill="#34D999"/>
<path d="M6.24618 17.9083C6.2363 17.9022 6.22718 17.8917 6.22309 17.8778L6.2118 17.8428C6.16762 17.7094 6.13098 17.5708 6.09609 17.4348C6.00897 17.1001 5.92692 16.7862 5.73228 16.5356C5.48021 16.213 5.07795 16.0526 4.68733 15.9009C4.56623 15.8527 4.44687 15.807 4.33118 15.7531C3.83433 15.5317 3.37874 15.2033 3.01093 14.8027C2.90423 14.6867 2.8012 14.5625 2.69856 14.4363C2.372 14.0387 2.03419 13.6303 1.55319 13.5041C1.51096 13.4943 1.48629 13.4481 1.49861 13.4041C1.51093 13.3601 1.55542 13.3329 1.59939 13.3453C2.12689 13.482 2.4808 13.9109 2.82385 14.3269C2.92513 14.4485 3.02603 14.5722 3.13098 14.6857C3.48617 15.0708 3.92413 15.3873 4.40044 15.6006C4.51438 15.6519 4.63374 15.6976 4.75058 15.7451C5.15923 15.9066 5.58241 16.073 5.85932 16.4287C6.07356 16.7048 6.16515 17.0513 6.25014 17.3855C6.28542 17.5195 6.31856 17.653 6.36138 17.7817C6.37578 17.8239 6.35749 17.8888 6.31705 17.9057C6.2888 17.916 6.26208 17.9178 6.24405 17.908L6.24618 17.9083Z" fill="#2ADC68"/>
<path d="M1.73644 21.6915C1.86792 21.3522 2.08468 21.0525 2.30066 20.757C2.94976 19.8643 3.55693 19.0211 4.20603 18.1283C4.29374 18.0077 4.3791 17.8757 4.50541 17.7973C4.6942 17.6773 4.9907 17.7043 5.13387 17.7521C5.38903 17.8376 5.57922 18.3206 5.59284 18.587C5.62212 19.1818 5.28656 19.5306 5.05764 20.0811C4.77648 20.7629 4.23891 21.3172 3.63259 21.7404C3.13186 22.0902 2.58026 22.356 2.02456 22.6079C1.72021 22.7466 1.64411 22.7417 1.61814 22.3851C1.60341 22.1493 1.65064 21.9114 1.73605 21.6936L1.73644 21.6915Z" fill="#FFD60B"/>
<path d="M1.65344 22.7647L-0.973633 21.9375L0.765319 23.7266L-0.185246 24.8643L1.24663 25.5247L0.632153 27.8865L3.38925 25.5608L1.65344 22.7647Z" fill="#008DD3"/>
<path d="M5.02863 20.1684C5.75289 20.5562 6.55746 20.6813 7.37946 20.6973C7.62074 20.7012 7.86257 20.6897 8.09753 20.7408C8.3325 20.7919 8.56545 20.9153 8.67947 21.125C8.80533 21.3544 8.76786 21.6358 8.69876 21.8851C8.64199 22.0905 8.56139 22.2938 8.42613 22.4586C8.29086 22.6234 8.0924 22.7482 7.87768 22.7558C8.32029 22.8509 8.59532 23.3513 8.52617 23.7964C8.45915 24.2419 8.11549 24.6111 7.71308 24.818C7.91562 24.9271 7.99584 25.1901 7.94238 25.4137C7.88893 25.6372 7.73278 25.8203 7.55469 25.9664C7.15249 26.2943 6.59603 26.5504 6.08315 26.4669C6.08315 26.4669 4.36381 26.7798 2.63058 25.5086C0.897342 24.2374 1.64503 21.8688 1.64503 21.8688C1.89006 21.2288 2.15966 20.8066 2.66636 20.3259C3.17306 19.8452 4.30185 19.7823 5.02436 20.1676L5.02863 20.1684Z" fill="#FFD60B"/>
</g>
<defs>
<clipPath id="clip0_6283_90676">
<rect width="36" height="36" fill="white" transform="translate(2 2)"/>
</clipPath>
</defs>
</svg>
