<svg width="40" height="40" viewBox="0 0 40 40" fill="none" xmlns="http://www.w3.org/2000/svg">
<rect x="1" y="1" width="38" height="38" rx="3" fill="#F5F5F5"/>
<rect x="1" y="1" width="38" height="38" rx="3" stroke="#2CE69D" stroke-width="2"/>
<rect x="1" y="1" width="38" height="38" rx="3" stroke="#C6EBF2" stroke-width="2"/>
<g clip-path="url(#clip0_6283_92804)">
<path d="M16.8627 37.869C17.7065 37.869 18.3905 37.2176 18.3905 36.414C18.3905 35.6104 17.7065 34.959 16.8627 34.959C16.019 34.959 15.335 35.6104 15.335 36.414C15.335 37.2176 16.019 37.869 16.8627 37.869Z" fill="black"/>
<path d="M24.7113 37.162C25.5551 37.162 26.2391 36.5105 26.2391 35.707C26.2391 34.9034 25.5551 34.252 24.7113 34.252C23.8676 34.252 23.1836 34.9034 23.1836 35.707C23.1836 36.5105 23.8676 37.162 24.7113 37.162Z" fill="black"/>
<path d="M27.3139 32.0109C27.3139 32.0109 17.6604 33.0496 11.6525 34.2824C5.64458 35.513 9.2942 36.1334 11.7455 36.1031C16.5975 36.0465 28.7952 34.7896 33.0854 33.0032C34.791 32.1868 33.3785 31.3966 27.3139 32.0109Z" fill="black"/>
<path d="M27.4136 31.9016C27.4136 31.9016 17.6994 32.9322 11.6592 34.0861C5.62092 35.24 9.44838 35.4036 11.7238 35.3632C13.6376 35.3289 18.338 34.9692 22.9273 34.3488C26.9387 33.8072 30.8086 33.1343 32.8617 32.4007C34.4804 31.8935 33.5185 31.2872 27.4136 31.9016Z" fill="#5CB3FD"/>
<path d="M19.1062 30.1562C19.1062 30.1562 19.9307 32.0134 20.0176 32.1953C20.1065 32.3751 20.2803 32.848 20.06 33.0238C19.8398 33.1996 18.0008 34.6971 17.0834 34.7617C16.1659 34.8264 14.3896 33.6503 15.2727 32.4256C16.1558 31.201 17.1884 31.6597 17.1884 31.6597L16.7762 30.6817L19.1082 30.1562H19.1062Z" fill="#FF7140"/>
<path d="M18.4093 30.0448C18.4093 30.0448 16.7058 30.2368 16.7745 30.6814C16.8432 31.1259 18.7408 30.7218 18.9853 30.4813C19.2298 30.2408 19.2338 30.0206 18.4093 30.0448Z" fill="black"/>
<path d="M26.3562 29.3936C26.3562 29.3936 27.1807 31.2507 27.2676 31.4326C27.3565 31.6124 27.5303 32.0853 27.31 32.2611C27.0898 32.4369 25.2508 33.9344 24.3334 33.999C23.4159 34.0637 21.6396 32.8876 22.5227 31.6629C23.4058 30.4383 24.4384 30.8971 24.4384 30.8971L24.0262 29.919L26.3582 29.3936H26.3562Z" fill="#FF7140"/>
<path d="M25.6593 29.2821C25.6593 29.2821 23.9558 29.4741 24.0245 29.9187C24.0932 30.3633 25.9908 29.9591 26.2353 29.7186C26.4798 29.4781 26.4838 29.2579 25.6593 29.2821Z" fill="black"/>
<path d="M0.233241 29.8505C0.18272 29.8505 0.132199 29.8242 0.105928 29.7797C-0.0193632 29.5655 -0.033509 29.3008 0.0634908 28.9957C0.809177 26.6333 8.37921 21.4236 18.0651 16.612C27.8337 11.758 38.6533 7.96487 39.8516 10.0221C39.89 10.0888 39.8658 10.1736 39.795 10.21C39.7243 10.2464 39.6354 10.2221 39.597 10.1554C38.7382 8.68226 29.9354 11.0244 18.1984 16.8565C8.73286 21.561 1.05572 26.8132 0.342366 29.0745C0.269616 29.3069 0.275678 29.4988 0.360553 29.6443C0.398949 29.711 0.374699 29.7959 0.30397 29.8323C0.281741 29.8444 0.257491 29.8505 0.233241 29.8505Z" fill="black"/>
<path d="M11.0547 15.5272C11.0547 15.5272 10.7637 15.2847 10.3636 15.6303C9.96345 15.9758 9.52695 16.1496 8.94293 16.2183C8.35891 16.287 8.1063 16.4608 7.55866 16.7033C7.01303 16.9458 6.72203 16.7377 6.21279 17.0853C5.87329 17.3156 5.49741 17.4888 5.08516 17.6046C4.46679 17.7784 4.39404 17.8471 3.95754 18.0553C3.52104 18.2634 2.93904 18.0896 2.86629 18.609C2.79354 19.1283 3.41191 19.1627 3.48466 19.4739C3.55741 19.7851 4.06666 20.1327 4.61229 20.2357C5.15791 20.3388 5.26704 20.8945 5.52166 21.0663C5.77629 21.2401 6.21279 21.1694 6.54016 21.4119C6.86754 21.6544 6.94028 22.1394 7.37678 22.2081C7.81328 22.2768 8.03153 22.2424 8.21341 22.4849C8.39528 22.7274 8.75903 23.073 9.19553 23.1437C9.63203 23.2124 9.77753 23.3862 9.66841 23.6974C9.55928 24.0086 9.30466 24.3906 9.34103 24.7361C9.37741 25.0817 9.26828 25.3949 9.08641 25.7061C8.90453 26.0173 8.83178 26.2255 8.83178 26.571C8.83178 26.9166 8.79541 27.2642 8.54078 27.541C8.28616 27.8179 8.21341 28.1291 8.14066 28.406C8.06791 28.6828 8.10428 29.0647 7.84966 29.3416C7.59503 29.6185 7.66778 29.9297 7.84966 30.1035C8.03153 30.2772 8.24978 30.5197 8.54078 30.6915C8.83178 30.8653 9.08641 30.7259 9.41378 30.4834C9.74116 30.2409 10.2504 30.449 10.7233 30.2065C11.1962 29.964 11.2689 29.479 11.7418 29.4447C12.2147 29.4103 12.6512 29.2022 12.9058 28.8566C13.1604 28.511 13.3059 28.406 13.9243 28.2342C14.5427 28.0604 14.7973 27.8886 15.0155 27.6805C15.2338 27.4723 15.161 27.7492 15.743 27.4723C16.325 27.1955 15.9249 27.1955 16.5069 26.8843C17.0889 26.5731 17.3435 26.7812 17.5618 26.468C17.78 26.1547 17.8891 26.0173 18.5075 25.9143C19.1259 25.8112 19.6351 25.3949 19.6351 25.3949C19.6351 25.3949 20.1808 24.7361 20.5809 24.7018C20.981 24.6674 21.2356 24.3906 21.4175 24.2168C21.5994 24.043 22.2541 23.7661 22.5451 23.7661C22.8361 23.7661 23.1999 23.558 23.4181 23.5923C23.6364 23.6267 24.3275 23.9035 24.8388 23.8005C25.348 23.6974 25.639 23.5923 25.9664 23.7661C26.2938 23.9399 27.1304 24.1117 27.4962 23.9056C27.8619 23.6994 28.2601 23.8369 28.8421 23.9056C29.4241 23.9743 29.7151 23.9056 30.1879 23.8369C30.6608 23.7681 30.9154 24.0794 31.4974 24.0106C32.0794 23.9419 32.1885 23.7681 32.625 23.8369C33.0615 23.9056 33.6435 24.1824 33.9709 24.1137C34.2983 24.045 34.4438 23.9056 34.9167 24.0106C35.3895 24.1137 35.9715 24.2531 36.2625 24.1137C36.5535 23.9743 36.699 24.1137 37.0628 24.045C37.4265 23.9763 37.863 23.465 37.5357 23.1094C37.281 22.8325 37.572 22.59 36.9173 22.1394C36.2625 21.6887 35.6078 21.6544 35.4239 21.135C35.24 20.6157 34.8055 20.4762 34.4054 20.2701C34.0053 20.064 33.7143 19.8194 33.4597 19.4395C33.205 19.0576 33.0959 19.0232 32.5139 18.7464C31.9319 18.4695 31.3863 18.124 31.6773 17.8815C31.9683 17.639 32.7322 17.0509 32.8413 16.7741C32.9504 16.4972 33.3142 16.3578 33.7143 16.0809C34.1144 15.8041 34.2599 15.5272 34.4054 15.2847C34.5509 15.0422 34.7691 15.1109 35.242 14.6966C35.7149 14.2803 35.7877 14.1429 35.9695 13.761C36.1514 13.3791 36.7698 13.3103 36.5515 12.8961C36.3333 12.4798 36.1514 12.308 35.6421 12.2029C35.1329 12.0999 35.1693 12.2716 34.66 12.0291C34.1508 11.7866 33.9325 11.7866 33.5688 11.8897C33.205 11.9928 33.2414 11.7503 32.6958 11.6816C32.1502 11.6128 32.332 11.5785 31.8592 11.6472C31.3863 11.7159 31.2772 11.6128 30.8407 11.4047C30.4042 11.1966 30.0768 11.2653 29.713 11.3016C29.3493 11.338 29.1674 11.0591 28.7309 10.9904C28.2944 10.9217 28.2944 11.0935 27.8579 11.1299C27.4214 11.1642 27.3487 11.0612 27.0213 10.9561C26.6939 10.853 26.4999 11.1056 26.4029 11.1642C26.221 11.3037 26.0755 11.4411 26.2574 11.9261C26.4393 12.4111 26.221 12.0999 26.0392 12.4454C25.8573 12.791 25.7482 12.8617 25.7118 13.2073C25.6754 13.5528 25.7845 13.6923 25.4572 13.9348C25.1298 14.1773 25.057 14.246 24.9479 14.5228C24.8388 14.7997 24.8388 14.8684 24.5114 15.0766C24.184 15.2847 23.6748 15.3534 23.5657 15.6646C23.4565 15.9758 22.9837 16.0466 22.7654 16.184C22.5472 16.3234 22.2925 16.287 21.9652 16.772C21.6378 17.257 20.5445 16.5982 20.2535 16.9115C19.9625 17.2227 19.4533 17.3965 19.3078 17.2227C19.1623 17.0489 18.8349 16.9802 18.3984 17.257C17.9619 17.5339 17.6709 17.6026 17.3435 17.3965C17.0161 17.1883 17.0161 17.154 16.5796 17.2934C16.1431 17.4328 16.2523 16.8771 15.6703 16.9115C15.0883 16.9458 14.9064 17.0509 14.6154 16.8084C14.3244 16.5659 14.2153 16.4265 13.8152 16.4972C13.415 16.5659 13.2332 16.4972 13.0149 16.186C12.7967 15.8748 12.6148 15.9435 12.1783 15.8404C11.7418 15.7374 11.7054 15.3211 11.0507 15.5292L11.0547 15.5272Z" fill="#1CE07C"/>
<path d="M26.5566 11.1979C26.5566 11.1979 24.5176 5.78408 20.9144 3.33483C20.3425 2.99533 19.6453 2.71444 20.1182 3.58339C20.5911 4.45235 21.5045 7.9201 20.0151 9.75501C18.5258 11.5899 16.9394 11.8062 15.9169 8.2596C15.731 7.35224 15.5249 5.81641 15.6946 4.97777C15.6946 4.97777 15.731 4.70293 15.7795 4.4766C15.8401 4.19166 15.8906 3.95118 15.6097 4.08052C15.1045 4.31291 14.47 5.14549 14.47 5.14549C14.47 5.14549 13.5424 6.15793 12.7402 7.99285C11.9379 9.82776 10.6951 12.9823 11.2771 15.5609C11.2771 15.5609 14.9024 17.7979 19.6878 17.3675C25.7462 16.8239 26.5404 11.8183 26.5566 11.1979Z" fill="#5BB3FD"/>
<path d="M22.9917 8.19715C22.9311 9.07015 22.1712 11.9114 19.1945 12.0549C16.2199 12.1964 15.8945 8.17492 15.8945 8.17492C16.9171 11.7215 18.6287 11.5841 20.1181 9.74915C21.6074 7.91424 20.694 4.44649 20.2211 3.57753C19.7483 2.70858 20.4454 2.98947 21.0173 3.32897C21.0173 3.32897 23.2463 4.54147 22.9917 8.19715Z" fill="#EDFF4A"/>
<path d="M18.6228 11.8485C17.7801 11.8485 16.994 11.4483 16.6181 11.0017C16.5676 10.9411 16.5777 10.8542 16.6404 10.8077C16.703 10.7592 16.7939 10.7693 16.8445 10.83C17.1799 11.2281 18.0792 11.709 19.029 11.5372C20.001 11.3594 20.7426 10.545 21.1791 9.18096C22.2421 5.84658 20.1061 3.2579 20.0838 3.23365C20.0333 3.17302 20.0434 3.08613 20.1061 3.03965C20.1687 2.99115 20.2597 3.00125 20.3102 3.05986C20.3324 3.08613 22.5654 5.78394 21.456 9.26179C20.8639 11.1169 19.8393 11.6706 19.0835 11.8101C18.93 11.8383 18.7744 11.8505 18.6228 11.8505V11.8485Z" fill="#5BB3FD"/>
<path d="M20.0437 12.2131C19.9871 12.2131 19.9325 12.1807 19.9103 12.1282C19.878 12.0575 19.9144 11.9766 19.9871 11.9463C23.1194 10.6833 22.499 7.34084 21.8483 5.46349C21.1935 3.57199 20.2336 3.29514 20.2235 3.29312C20.1467 3.27291 20.1003 3.19612 20.1225 3.12337C20.1447 3.05062 20.2215 3.00616 20.2983 3.02637C20.3428 3.03849 21.4138 3.32545 22.1251 5.37862C22.8062 7.34893 23.4488 10.853 20.1003 12.203C20.0821 12.211 20.0619 12.2131 20.0437 12.2131Z" fill="#5BB3FD"/>
<path d="M20.8819 17.2589C20.8819 17.2589 21.1729 17.9864 20.3363 18.4371C20.3363 18.4371 19.4633 18.1259 19.2451 18.9564C19.2451 18.9564 18.1538 17.6065 18.9904 17.0164C19.8271 16.4263 20.6657 16.8083 20.884 17.2589H20.8819Z" fill="#FF7140"/>
<path d="M1.8072 30.4185C0.952386 30.4185 0.374429 30.2387 0.146075 29.8466C0.107679 29.7799 0.131929 29.6951 0.202658 29.6587C0.273387 29.6203 0.362304 29.6466 0.400699 29.7133C0.568428 30.0002 1.03524 30.1417 1.7688 30.1417C4.79803 30.1417 12.3458 27.7086 21.7993 23.0122C31.2669 18.3077 38.944 13.0555 39.6574 10.7942C39.7301 10.5618 39.724 10.3699 39.6392 10.2244C39.6008 10.1577 39.625 10.0728 39.6958 10.0364C39.7665 10.0001 39.8554 10.0243 39.8938 10.091C40.0191 10.3052 40.0332 10.5699 39.9362 10.8751C39.1905 13.2374 31.6205 18.4471 21.9347 23.2587C14.0292 27.1872 5.43459 30.4206 1.80922 30.4206L1.8072 30.4185Z" fill="black"/>
<path d="M26.8027 13.4619C26.6733 13.4781 24.1594 13.8964 21.3889 14.3612L20.14 14.5592C20.14 14.5592 20.14 14.5633 20.14 14.5693C19.6974 14.6441 19.2589 14.7168 18.8285 14.7896V14.7775L13.9502 15.608C13.9502 15.608 14.3139 18.033 15.48 19.2799C16.6399 20.5207 19.0245 21.0057 18.8325 15.3453L20.2431 15.0846C20.4189 15.8687 20.8412 17.3459 21.6698 18.2311C22.8338 19.4779 25.2365 19.9629 25.0183 14.2137V14.2015L26.9482 13.8438C27.1664 13.7044 27.0937 13.4276 26.8027 13.4619Z" fill="black"/>
<path d="M16.9153 16.0586L16.1494 17.5136" stroke="white" stroke-width="0.404166" stroke-miterlimit="10" stroke-linecap="round"/>
<path d="M17.7878 16.543L16.5146 18.9659" stroke="white" stroke-width="0.404166" stroke-miterlimit="10" stroke-linecap="round"/>
<path d="M23.1398 15.1914L22.085 17.2001" stroke="white" stroke-width="0.404166" stroke-miterlimit="10" stroke-linecap="round"/>
<path d="M24.3416 15.2275L23.5029 16.82" stroke="white" stroke-width="0.404166" stroke-miterlimit="10" stroke-linecap="round"/>
<path d="M19.2453 19.1525C19.1928 19.1525 19.1422 19.1323 19.1038 19.0919C19.0776 19.0636 18.4471 18.4048 18.4673 17.6894C18.4774 17.3742 18.6087 17.0973 18.8573 16.871C19.7485 16.0546 20.7852 16.679 21.2075 17.1216C21.2823 17.2004 21.2803 17.3257 21.2015 17.4004C21.1226 17.4752 20.9974 17.4732 20.9226 17.3944C20.8842 17.3539 19.9506 16.4042 19.124 17.162C18.9543 17.3176 18.8694 17.4934 18.8634 17.7015C18.8492 18.1582 19.2372 18.6614 19.3888 18.819C19.4635 18.8979 19.4635 19.0232 19.3847 19.0979C19.3463 19.1343 19.2978 19.1525 19.2473 19.1525H19.2453Z" fill="black"/>
<path d="M26.9244 17.4326C26.9244 17.4326 26.6819 15.9897 25.6998 16.024C24.7177 16.0584 24.0851 18.055 23.8669 18.8532C23.7214 19.1988 23.3576 20.3426 24.1579 20.48C24.9581 20.6174 26.9244 19.7525 26.9244 17.4326Z" fill="#FF7140"/>
<path d="M26.3058 16.0118C26.3058 16.0118 23.7939 15.353 23.6484 20.2717" stroke="black" stroke-width="0.404166" stroke-linecap="round" stroke-linejoin="round"/>
<path d="M25.6029 16.5089C25.6029 16.5089 25.1664 16.4867 24.8997 16.9717C24.6329 17.4567 25.4089 17.4345 25.6999 17.1799C25.9909 16.9252 25.8697 16.4867 25.6029 16.511V16.5089Z" fill="white"/>
<path d="M36.9945 9.40144C36.9299 9.40952 36.8672 9.37112 36.849 9.3105L35.4668 4.24023L35.6648 4.27257C35.7436 4.28469 37.6089 4.5959 38.496 5.56186C38.7183 5.80436 38.8133 6.07717 38.7769 6.37423C38.684 7.128 37.7705 7.7585 37.7301 7.78477C37.6715 7.82519 37.5907 7.81104 37.5483 7.75648C37.5058 7.6999 37.52 7.62311 37.5786 7.58269C37.5866 7.57663 38.4394 6.98856 38.5183 6.34392C38.5465 6.11759 38.4738 5.91348 38.3 5.72352C37.6372 5.00007 36.3236 4.66057 35.8225 4.55346L37.1016 9.24785C37.1198 9.31454 37.0774 9.38123 37.0087 9.39942C37.0047 9.39942 36.9986 9.40144 36.9945 9.40144Z" fill="black"/>
<path d="M36.9337 9.08976C37.249 9.37065 37.2166 9.89001 36.861 10.2538C36.5053 10.6175 35.9617 10.6842 35.6464 10.4033C35.3312 10.1224 35.3635 9.60305 35.7192 9.2393C36.0749 8.87555 36.6185 8.80886 36.9337 9.08976Z" fill="black"/>
<path d="M9.78506 28.6738C10.2804 28.5191 10.5823 28.0741 10.4592 27.68C10.3361 27.2858 9.83475 27.0916 9.33936 27.2463C8.84397 27.401 8.54215 27.8459 8.66523 28.2401C8.78831 28.6343 9.28967 28.8284 9.78506 28.6738Z" fill="black"/>
<path d="M6.24893 29.9452C6.74431 29.7906 7.04613 29.3456 6.92306 28.9514C6.79998 28.5573 6.29862 28.3631 5.80323 28.5178C5.30784 28.6725 5.00602 29.1174 5.1291 29.5116C5.25217 29.9058 5.75354 30.0999 6.24893 29.9452Z" fill="black"/>
<path d="M10.5133 23.5215L10.5032 27.7147C10.5032 27.7834 10.4406 27.842 10.3718 27.838C10.2991 27.838 10.2425 27.7814 10.2425 27.7147L10.2506 23.9054L6.98695 25.3018L6.96674 29.1919C6.96674 29.2606 6.90814 29.3152 6.83539 29.3152C6.76264 29.3152 6.70605 29.2586 6.70605 29.1899L6.72828 25.1402L10.5133 23.5215Z" fill="black"/>
<path d="M22.4941 25.5966L23.6885 24.7822L23.6682 26.1079L25.4021 26.1665L24.4463 27.4538L25.582 28.7431L23.5106 28.838L22.4941 25.5966Z" fill="#FF7140"/>
<path d="M15.5088 25.7624L20.2961 24.1963L22.1654 30.3154L18.5016 31.7461L15.5088 25.7624Z" fill="#FC3254"/>
<path d="M18.1485 25.7872C19.4748 25.3767 20.4425 24.6964 20.3098 24.2678C20.1771 23.8392 18.9944 23.8246 17.6681 24.2351C16.3418 24.6457 15.3742 25.326 15.5068 25.7546C15.6395 26.1832 16.8222 26.1978 18.1485 25.7872Z" fill="#FFD624"/>
<path d="M22.1527 30.3275C22.284 30.6488 21.6394 31.2146 20.6047 31.6026C19.568 31.9886 18.6202 32.0432 18.4889 31.7219C18.3575 31.4006 19.0891 30.8287 20.1258 30.4407C21.1624 30.0547 22.0213 30.0082 22.1527 30.3275Z" fill="#FC3254"/>
<path d="M19.5197 19.4414C19.5197 19.4414 17.032 20.1891 16.8502 20.2255C16.5228 20.2942 16.2318 20.5609 16.3167 21.0682C16.3652 21.3612 17.4807 25.1887 17.4807 25.1887H17.4827C17.4827 25.1887 17.4807 25.2028 17.4827 25.2089C17.5069 25.2877 17.7373 25.2937 17.996 25.223C18.2567 25.1523 18.4486 25.031 18.4244 24.9542C18.4244 24.9522 18.4224 24.9502 18.4203 24.9482H18.4264L17.5655 21.8765C17.5655 21.8765 17.2705 20.9429 17.6989 20.8095C18.4345 20.5791 19.5338 20.2619 19.7036 20.2214C19.7177 20.2174 19.7278 20.2113 19.7359 20.2012C19.8066 20.1244 20.0734 19.8153 20.0471 19.6657C20.0148 19.4919 19.9016 19.4758 19.5197 19.4414Z" fill="white"/>
<path d="M19.0434 20.4052L18.2734 19.809L18.5745 19.708L19.3748 20.3143L19.0434 20.4052Z" fill="#FF3600"/>
<path d="M17.7717 20.7851L16.9795 20.189L17.3311 20.0859L18.1091 20.6881L17.7717 20.7851Z" fill="#FF3600"/>
<path d="M17.5395 21.782L16.4442 21.5678L16.3613 21.2646L17.4829 21.491L17.5395 21.782Z" fill="#FF3600"/>
<path d="M17.9009 23.067L16.8036 22.8528L16.7188 22.5537L17.8181 22.772L17.9009 23.067Z" fill="#FF3600"/>
<path d="M18.2506 24.2858L17.1533 24.0696L17.0664 23.7705L18.1597 23.9948L18.2506 24.2858Z" fill="#FF3600"/>
<path d="M22.5933 25.5948C22.5933 25.5948 20.1986 24.7016 19.6651 26.0394C19.1316 27.3792 20.722 27.2397 20.722 27.2397C20.722 27.2397 19.6166 27.5489 19.9096 28.3815C20.0066 28.5654 20.1946 28.8524 21.0696 28.8079C21.0696 28.8079 20.1016 29.2363 20.9281 29.9295C21.7526 30.6226 23.4622 29.8102 23.8987 28.7958C24.3352 27.7793 23.7108 25.8272 22.5953 25.5968L22.5933 25.5948Z" fill="#FFE240"/>
<path d="M20.328 20.7228C20.2977 20.7228 20.2673 20.7228 20.2391 20.7167C19.9683 20.6804 19.7884 20.4924 19.7541 20.2135C19.7278 19.9872 19.7682 19.8114 19.8753 19.6841C19.651 19.6356 19.4732 19.5507 19.3438 19.4254C19.1337 19.2233 19.1377 18.999 19.1377 18.9728C19.1761 18.5827 19.3236 18.3342 19.5803 18.2291C20.1542 17.9906 21.009 18.5969 21.106 18.6656C21.1707 18.7121 21.1828 18.799 21.1323 18.8596C21.0838 18.9202 20.9928 18.9323 20.9282 18.8859C20.7059 18.7242 20.0491 18.3362 19.6955 18.4837C19.5439 18.5464 19.453 18.7181 19.4267 18.993C19.4267 18.993 19.4287 19.1203 19.554 19.2375C19.7116 19.385 20.0046 19.4578 20.3987 19.4517C20.4593 19.4477 20.5119 19.484 20.5361 19.5366C20.5604 19.5891 20.5482 19.6497 20.5058 19.6881C20.4674 19.7265 20.4209 19.7326 20.3664 19.7407C20.2188 19.7649 19.9945 19.7993 20.041 20.1832C20.0592 20.3348 20.14 20.4237 20.2754 20.4419C20.5482 20.4783 20.9524 20.2338 21.1747 19.7144C21.205 19.6437 21.2899 19.6093 21.3647 19.6376C21.4394 19.6659 21.4758 19.7467 21.4435 19.8175C21.1828 20.4257 20.7018 20.7208 20.3239 20.7208L20.328 20.7228Z" fill="black"/>
<path d="M16.2866 10.2023C16.2866 10.2023 14.9407 10.269 14.4901 11.332C14.0374 12.3949 15.741 13.084 18.0993 12.6799C21.0639 12.1706 22.5674 11.0834 22.242 9.782C21.9146 8.48058 16.2866 10.2043 16.2866 10.2043V10.2023Z" fill="#2B0612"/>
<path d="M22.2923 10.0421C22.2923 10.0421 22.1508 6.78853 18.9801 6.80672C15.8095 6.8249 16.0398 10.3513 16.0398 10.3513C16.0398 10.3513 16.3713 11.0646 17.1513 11.3374C18.4527 11.7941 20.223 11.5314 21.007 11.1818C21.7891 10.8302 22.2701 10.2866 22.2943 10.0421H22.2923Z" fill="#FF6699"/>
<path d="M21.8053 10.6914C21.5345 7.26811 19.2146 7.03976 19.1924 7.03976L19.2025 6.90234C19.2267 6.90234 21.6437 7.05391 21.9225 10.5964L21.8053 10.6934V10.6914Z" fill="#EDFF4A"/>
<path d="M19.7628 11.508L19.6132 11.5282C19.8355 7.97554 18.8675 7.21975 18.8574 7.21166L18.9463 7.10254C18.9888 7.13285 19.9871 7.88258 19.7607 11.508H19.7628Z" fill="#EDFF4A"/>
<path d="M16.6927 11.1015C16.4259 7.36294 18.4952 7.0396 18.5821 7.02344L18.6084 7.15883C18.5882 7.16287 16.5755 7.58119 16.8321 11.1884L16.6906 11.0995L16.6927 11.1015Z" fill="#EDFF4A"/>
<path d="M18.9398 7.31556C19.2598 7.28603 19.5029 7.08462 19.4828 6.86568C19.4626 6.64674 19.1867 6.49319 18.8666 6.52272C18.5466 6.55224 18.3035 6.75366 18.3237 6.97259C18.3439 7.19153 18.6197 7.34508 18.9398 7.31556Z" fill="#2B0612"/>
</g>
<defs>
<clipPath id="clip0_6283_92804">
<rect width="36" height="36" fill="white" transform="translate(2 2)"/>
</clipPath>
</defs>
</svg>
