<svg width="300" height="300" viewBox="0 0 300 300" fill="none" xmlns="http://www.w3.org/2000/svg">
<g clip-path="url(#clip0_26822_1289)">
<path d="M255.095 28.6241H147.665C139.736 28.6241 133.308 35.0518 133.308 42.9807V100.211C133.308 108.14 139.736 114.567 147.665 114.567H255.095C263.024 114.567 269.452 108.14 269.452 100.211V42.9807C269.452 35.0518 263.024 28.6241 255.095 28.6241Z" fill="#010007"/>
<path d="M257.174 90.7356H27.4068C20.4056 90.7356 14.73 96.4112 14.73 103.412V222.017C14.73 222.089 14.7587 222.156 14.8065 222.204L71.3619 277.85C71.4098 277.898 71.4768 277.926 71.5438 277.926H257.17C264.171 277.926 269.846 272.251 269.846 265.249V103.412C269.846 96.4112 264.171 90.7356 257.17 90.7356H257.174Z" fill="#010007"/>
<path d="M186.509 48.6427L194.973 51.2496L198.514 43.1313L206.982 45.7327L210.523 37.6144L218.992 40.2205L222.687 31.7447L196.434 16.2806L179.508 24.0554L174.129 54.0469L182.964 56.7665L186.509 48.6427Z" fill="#F6EDDE"/>
<path d="M189.171 12.0036C185.883 10.0668 181.667 11.9997 180.993 15.7579L179.503 24.0562L196.429 16.2814L189.167 12.0044L189.171 12.0036Z" fill="#1A3CFF"/>
<path d="M283.517 164.193L278.209 152.631L229.651 174.933L234.959 186.495C241.116 199.902 256.98 205.783 270.392 199.625C283.8 193.468 289.68 177.604 283.522 164.192L283.517 164.193Z" fill="#FF1D46"/>
<path d="M272.986 141.261L224.428 163.564L229.647 174.927L278.205 152.624L272.986 141.261Z" fill="#FFD100"/>
<path d="M222.692 31.744L222.687 31.7447L218.993 40.2206L210.523 37.6144L206.982 45.7327L198.514 43.1313L194.973 51.2496L186.509 48.6427L182.964 56.7665L174.129 54.0469L224.427 163.567L272.99 141.268L222.692 31.744Z" fill="#1A3CFF"/>
<path d="M183.401 56.5601L182.531 56.9596L230.263 160.882L231.133 160.482L183.401 56.5601Z" fill="black"/>
<path d="M195.25 51.1179L194.38 51.5174L242.112 155.44L242.982 155.04L195.25 51.1179Z" fill="black"/>
<path d="M207.091 45.6781L206.222 46.0776L253.953 150L254.823 149.6L207.091 45.6781Z" fill="black"/>
<path d="M219.395 40.0273L218.525 40.4268L266.257 144.349L267.127 143.95L219.395 40.0273Z" fill="black"/>
<path d="M255.238 182.279C256.983 182.012 258.182 180.38 257.915 178.635C257.647 176.89 256.016 175.692 254.271 175.959C252.526 176.226 251.328 177.857 251.595 179.602C251.862 181.347 253.493 182.546 255.238 182.279Z" fill="black"/>
<path d="M265.507 177.566C267.252 177.299 268.45 175.667 268.183 173.922C267.916 172.177 266.285 170.979 264.54 171.246C262.794 171.513 261.596 173.144 261.863 174.889C262.13 176.634 263.761 177.833 265.507 177.566Z" fill="black"/>
<path d="M266.219 192.503C265.273 192.648 264.255 192.421 263.265 191.837C262.046 191.113 260.999 189.903 260.323 188.428C259.647 186.954 259.41 185.373 259.656 183.975C259.926 182.447 260.729 181.303 261.919 180.758C263.108 180.213 264.499 180.344 265.835 181.137C267.054 181.86 268.101 183.07 268.777 184.545C269.453 186.02 269.69 187.6 269.444 188.998C269.174 190.526 268.371 191.67 267.182 192.215C266.874 192.359 266.55 192.452 266.219 192.503ZM263.162 182.368C263.016 182.391 262.862 182.434 262.718 182.499C261.903 182.871 261.633 183.793 261.542 184.311C261.364 185.33 261.549 186.508 262.065 187.634C262.581 188.756 263.354 189.664 264.244 190.196C264.696 190.461 265.569 190.855 266.384 190.483C267.199 190.112 267.469 189.189 267.559 188.672C267.737 187.652 267.552 186.475 267.036 185.349C266.521 184.227 265.748 183.319 264.858 182.787C264.49 182.567 263.834 182.266 263.162 182.368Z" fill="black"/>
<path d="M167.903 123.338C167.903 119.29 163.966 116 159.102 116H51.8007C46.9436 116 43 119.283 43 123.338V131.752H167.903V123.338Z" fill="#FF0AD1"/>
<path d="M43.0076 131.752L46.5 240.5C46.5 244.548 62.6355 261.787 67.5 261.787H167.346C172.203 261.787 176.146 258.504 176.146 254.449L167.91 131.752H43.0076Z" fill="#F878F3"/>
<path d="M139.235 128.187C141.34 128.187 143.045 126.482 143.045 124.377C143.045 122.273 141.34 120.568 139.235 120.568C137.131 120.568 135.426 122.273 135.426 124.377C135.426 126.482 137.131 128.187 139.235 128.187Z" fill="#1DFFEE"/>
<path d="M148.987 128.187C151.091 128.187 152.797 126.482 152.797 124.377C152.797 122.273 151.091 120.568 148.987 120.568C146.883 120.568 145.177 122.273 145.177 124.377C145.177 126.482 146.883 128.187 148.987 128.187Z" fill="#FFE500"/>
<path d="M158.738 128.187C160.843 128.187 162.548 126.482 162.548 124.377C162.548 122.273 160.843 120.568 158.738 120.568C156.634 120.568 154.928 122.273 154.928 124.377C154.928 126.482 156.634 128.187 158.738 128.187Z" fill="#FF1D46"/>
<mask id="mask0_26822_1289" style="mask-type:luminance" maskUnits="userSpaceOnUse" x="43" y="131" width="134" height="131">
<path d="M43.3418 131.44L46.5353 238.5C46.5353 242.548 59.1355 261.475 64 261.475H167.68C172.537 261.475 176.481 258.192 176.481 254.137L168.244 131.44H43.3418Z" fill="white"/>
</mask>
<g mask="url(#mask0_26822_1289)">
<path d="M224.034 235.615C223.989 235.615 223.952 235.615 223.908 235.615C223.499 235.585 223.187 235.236 223.224 234.85C223.982 226.131 179.422 213.216 111.868 207.891C81.5448 205.499 52.8999 205.187 31.1396 207.052C10.3819 208.819 -2.24353 212.555 -2.62971 217.048C-2.66685 217.442 -3.02333 217.731 -3.43923 217.702C-3.8477 217.672 -4.15962 217.323 -4.12249 216.937C-3.52092 210.022 15.3132 206.977 31.0059 205.641C52.8256 203.762 81.5893 204.081 111.994 206.48C168.237 210.913 225.779 222.781 224.717 234.976C224.687 235.325 224.39 235.6 224.034 235.63V235.615Z" fill="#2CE69D"/>
<path d="M200.477 209.97C189.73 204.972 157.602 191.032 157.602 191.032C156.444 194.329 143.566 219.929 110.153 213.394C83.7656 208.232 68.1844 190.594 68.1844 190.594C68.1844 190.594 26.2531 192.747 23.9731 193.2C21.6931 193.646 16.7098 195.525 21.1435 200.375C25.5773 205.224 47.8649 230.542 47.8649 230.542C47.8649 230.542 29.3723 257.664 28.0058 259.291C26.6393 260.925 23.0819 267.468 32.8703 266.562C42.6587 265.656 114.817 250.438 114.817 250.438C114.817 250.438 185.972 273.298 189.285 274.857C193.755 276.959 196.741 273.87 193.132 269.012C189.797 264.519 170.51 234.872 170.51 234.872C170.51 234.872 198.902 221.273 201.962 219.372C205.029 217.471 211.216 214.983 200.477 209.985V209.97Z" fill="#EBFF32"/>
<path d="M110.153 213.386C143.573 219.922 156.444 194.322 157.602 191.024C157.602 191.024 155.998 158.83 140.899 140.077C138.419 137.366 135.159 134.774 136.206 140.166C137.246 145.558 136.169 165.573 125.021 173.089C113.874 180.605 105.006 179.283 105.63 158.681C106.202 153.527 107.739 144.979 110.086 140.745C110.086 140.745 110.754 139.334 111.401 138.191C112.21 136.757 112.901 135.547 111.17 135.799C108.066 136.252 103.231 139.728 103.231 139.728C103.231 139.728 96.5174 143.709 89.0535 152.294C81.5897 160.879 69.4915 175.852 68.177 190.586C68.177 190.586 83.7583 208.225 110.145 213.386H110.153Z" fill="#5BB3FD"/>
<path d="M105.69 173.668C106.774 176.268 110.695 180.189 115.998 180.776C119.852 181.206 125.675 179.944 131.594 171.552C142.519 156.074 136.57 139.713 135.998 138.243C135.983 138.718 136.028 139.327 136.184 140.129C137.223 145.521 136.147 165.536 124.999 173.052C113.851 180.568 105.021 178.949 105.652 158.347C105.652 158.347 103.573 166.219 105.437 173.341C105.541 173.431 105.63 173.535 105.682 173.676L105.69 173.668Z" fill="#EBFF32"/>
<path d="M140.877 140.04C139.911 138.986 138.835 137.961 137.936 137.404C139.169 138.347 143.149 142.201 143.387 152.74C143.558 160.404 142.459 171.574 135.946 178.941C139.852 175.481 142.229 171.336 143.075 169.22C150.732 150.022 140.877 140.04 140.877 140.04Z" fill="#EBFF32"/>
<path d="M120.498 184.482C139.377 182.603 141.791 163.813 141.545 152.777C141.412 146.873 140.068 143.308 138.827 141.251C140.327 147.474 141.791 160.308 133.101 172.614C127.375 180.731 121.582 182.692 117.312 182.692C116.777 182.692 116.272 182.662 115.797 182.61C113.25 182.328 110.933 181.34 108.994 180.033C110.68 181.815 112.975 183.226 116.087 183.969C117.498 184.311 118.857 184.504 120.164 184.586C120.268 184.534 120.379 184.489 120.506 184.482H120.498Z" fill="#EBFF32"/>
<path d="M122.191 202.165C122.191 202.165 126.024 224.853 136.25 223.427C146.477 222.001 141.739 197.092 139.243 191.166C139.243 191.166 131.17 198.845 122.191 202.165Z" fill="white"/>
<path d="M122.659 201.957C122.659 201.957 125.4 215.718 131.386 216.075C137.372 216.431 141.612 210.854 139.243 191.166C139.243 191.166 134.253 197.924 122.659 201.957Z" fill="#2CE69D"/>
<path d="M94.1036 200.895C94.1036 200.895 88.1177 227.705 98.3443 231.025C108.571 234.345 112.804 204.927 112.804 204.927C112.804 204.927 101.835 207.059 94.1036 200.895Z" fill="white"/>
<path d="M96.1014 202.789C96.1014 202.789 92.1578 219.692 97.5348 223.487C101.397 226.212 107.635 224.675 112.812 204.92C112.812 204.92 103.394 207.764 96.1014 202.789Z" fill="#2CE69D"/>
<path d="M139.934 190.898L139.51 189.896L138.708 190.661C138.641 190.728 132.759 196.253 125.593 199.87C124.835 200.226 124.085 200.568 123.402 200.865C123.29 200.91 123.179 200.962 123.067 201.014C116.851 203.665 113.725 204.007 113.695 204.007L113.673 204.333L113.658 204.289L113.695 204.029L113.561 204.059L113.546 204.021L113.509 204.066L112.663 204.229C112.559 204.252 101.946 206.22 94.5934 200.345L93.6428 199.588L93.3828 200.746C93.1303 201.868 87.382 228.21 98.1136 231.693C98.7301 231.894 99.3465 231.998 99.948 231.998C100.958 231.998 101.938 231.716 102.889 231.159C110.345 226.784 113.435 205.908 113.561 205.024L113.613 204.668C113.613 204.668 113.643 204.675 113.68 204.675C113.725 204.675 113.777 204.675 113.829 204.675C114.772 204.616 117.453 204.014 121.493 202.432C121.805 204.229 125.526 224.207 135.336 224.207C135.671 224.207 136.02 224.185 136.369 224.133C138.396 223.851 140.015 222.737 141.166 220.828C145.778 213.201 141.79 195.288 139.948 190.898H139.934ZM102.094 229.948C100.958 230.617 99.8144 230.743 98.589 230.349C90.2487 227.638 93.6353 207.23 94.6082 202.172C95.0761 202.499 95.5663 202.744 96.049 203.019C95.6183 204.98 92.6921 219.632 100.839 219.521C105.711 219.454 109.009 214.768 110.969 210.639C109.536 217.189 106.647 227.282 102.094 229.956V229.948ZM139.859 220.123C138.931 221.653 137.713 222.507 136.138 222.729C128.236 223.836 124.308 208.596 123.238 203.613C124.382 206.428 127.293 211.797 132.752 211.092C139.273 210.253 138.938 198.801 139.124 193.067C141.1 199.231 143.632 213.884 139.852 220.123H139.859Z" fill="black"/>
<path d="M103.951 205.759C103.951 205.759 102.332 208.247 103.328 210.148C104.323 212.05 106.566 211.456 107.568 210.624C109.061 209.376 110.435 205.878 109.937 205.522L103.951 205.759Z" fill="white"/>
<path d="M132.136 197.456C132.136 197.456 132.136 201.489 134.757 201.251C137.379 201.014 138.374 198.288 137.253 193.661L132.143 197.456H132.136Z" fill="white"/>
<path d="M114.802 214.419C114.802 214.419 114.051 215.726 114.928 217.026C115.804 218.333 118.545 219.276 121.04 218.689C123.535 218.095 125.526 216.669 125.778 215.37C126.031 214.063 125.281 209.555 122.659 208.849C120.037 208.136 115.552 213.119 114.802 214.426V214.419Z" fill="#FF7140"/>
<path d="M82.7555 215.837C82.7555 215.837 79.1387 216.788 79.8888 221.296C80.6389 225.804 82.7555 232.8 89.239 235.295C95.7226 237.783 96.7177 232.094 96.7177 229.837C96.7177 227.579 91.4819 213.349 82.7555 215.837Z" fill="#FF7140"/>
<path d="M125.399 217.263C125.333 217.263 125.258 217.256 125.191 217.233C124.798 217.122 124.568 216.728 124.679 216.35C124.686 216.313 125.778 212.614 124.464 210.661C124.04 210.029 123.409 209.666 122.54 209.539C118.262 208.923 114.631 215.614 114.593 215.681C114.408 216.03 113.955 216.171 113.591 215.993C113.22 215.815 113.078 215.384 113.264 215.035C113.435 214.723 117.445 207.341 122.77 208.128C124.077 208.321 125.065 208.915 125.726 209.888C127.405 212.391 126.172 216.558 126.12 216.736C126.023 217.048 125.726 217.248 125.399 217.248V217.263Z" fill="black"/>
<path d="M118.322 228.871C117.817 228.871 117.498 228.715 117.416 228.671C117.06 228.47 116.941 228.04 117.149 227.698C117.349 227.371 117.787 227.252 118.136 227.423C118.211 227.445 119.258 227.72 121.055 225.381C123.172 222.625 125.43 219.959 127.806 220.256C129.113 220.42 130.175 221.482 130.962 223.405C131.111 223.769 130.918 224.185 130.539 224.326C130.153 224.467 129.722 224.289 129.574 223.918C129.18 222.952 128.519 221.779 127.62 221.667C125.92 221.474 123.461 224.675 122.273 226.22C120.58 228.418 119.184 228.871 118.33 228.871H118.322Z" fill="black"/>
<path d="M96.8513 235.295C96.8513 235.295 96.829 235.295 96.8215 235.295C96.4056 235.281 96.0863 234.954 96.1011 234.56C96.3611 227.943 94.8386 222.908 91.5783 219.603C87.9095 215.882 83.2901 215.726 83.2381 215.726C82.8222 215.719 82.4954 215.392 82.5103 214.998C82.5177 214.605 82.8742 214.278 83.2752 214.307C83.4906 214.307 88.5705 214.486 92.6626 218.637C96.2051 222.232 97.8613 227.609 97.5939 234.62C97.5791 235.006 97.2449 235.303 96.8438 235.303L96.8513 235.295Z" fill="black"/>
<path d="M87.3748 218.333C87.3748 218.333 85.5033 216.313 83.0079 217.263C80.5125 218.214 82.8148 220.598 84.5007 221.563C85.9043 222.365 90.9545 222.009 87.3674 218.333H87.3748Z" fill="white"/>
<path d="M112.143 240.538C114.237 238.125 116.859 235.11 119.161 232.911C121.879 230.319 127.531 228.693 128.667 233.216C128.667 233.216 130.242 237.553 120.305 249.785C120.305 249.785 127.82 249.681 126.922 256.246C126.922 256.246 129.759 255.37 131.63 257.204C133.494 259.024 132.113 262.678 132.113 262.678C132.113 262.678 128.63 272.258 117.067 277.227C105.503 282.195 95.6776 271.434 95.6776 271.434C92.8406 267.921 91.9494 263.873 92.1351 259.454C92.3207 255.058 93.9026 250.847 94.1477 246.458C94.1774 245.945 94.0289 245.44 93.8209 244.972C93.4941 244.244 93.2713 243.442 93.1302 242.685C92.9446 241.675 93.0337 240.591 93.509 239.677C94.1106 238.526 95.284 237.753 96.5242 237.367C99.3613 236.476 102.711 237.531 104.523 239.885C106.342 242.239 106.506 245.745 104.924 248.262C104.924 248.262 110.977 241.86 112.128 240.538H112.143Z" fill="#FFC20B"/>
</g>
<path d="M73.9935 94.8542L81.907 92.5896C82.5235 92.4131 83.1626 92.7678 83.339 93.3843L95.742 136.724C95.9184 137.341 95.5637 137.98 94.9472 138.156L94.8966 138.171C89.9415 139.589 84.7696 136.718 83.3515 131.763L73.1988 96.2863C73.0223 95.6697 73.377 95.0307 73.9935 94.8542Z" fill="#C9C9C9"/>
<path d="M98.7523 61.3601C96.0915 52.2676 86.5301 47.0323 77.4328 49.693C68.3403 52.3538 63.1049 61.92 65.7656 71.0125C66.1868 72.4578 66.7945 73.8216 67.5506 75.0802L74.9921 100.511C75.6813 102.865 78.6818 104.066 81.6919 103.186C84.702 102.305 86.5827 99.6826 85.8936 97.3234L81.8115 83.3688C81.9551 83.3688 82.0939 83.3831 82.2374 83.3831C83.8597 83.3831 85.4868 83.1534 87.0852 82.6844C91.4926 81.3971 95.1296 78.4684 97.3358 74.439C99.5371 70.4143 100.044 65.7676 98.7523 61.3649V61.3601ZM88.9372 69.8401C87.9609 71.6251 86.3482 72.922 84.3957 73.4914C82.4432 74.0609 80.3854 73.8408 78.6004 72.8645C76.8154 71.8883 75.5185 70.2756 74.9491 68.3231C74.3796 66.3706 74.5997 64.3128 75.576 62.5278C76.5522 60.7428 78.1649 59.4459 80.1174 58.8764C80.8305 58.6707 81.5483 58.5702 82.2518 58.5702C85.549 58.5702 88.5926 60.7284 89.5641 64.0448C90.1336 65.9973 89.9134 68.0551 88.9372 69.8401Z" fill="#F41C4B"/>
<path d="M115.836 121.466L115.814 121.509C115.526 122.065 114.842 122.282 114.285 121.994L74.5569 101.41C74.0002 101.121 73.7832 100.437 74.0716 99.8807L77.7724 92.7381C78.0608 92.1814 78.7446 91.9644 79.3012 92.2528L111.93 109.159C116.404 111.477 118.155 116.992 115.836 121.466Z" fill="#D8D8D8"/>
<path d="M84.1133 94.2654L61.0327 82.1293C60.1617 81.4211 59.2094 80.7894 58.1805 80.2486C49.7915 75.8412 39.3829 79.0762 34.9707 87.4652C30.5632 95.8542 33.7982 106.263 42.1872 110.675C44.7331 112.015 47.4609 112.647 50.1552 112.647C56.3381 112.647 62.3247 109.302 65.3971 103.458C66.292 101.76 66.8662 99.9794 67.1486 98.18L78.83 104.32C81.0027 105.464 83.9506 104.138 85.4101 101.362C86.8697 98.5868 86.2907 95.4092 84.118 94.2654H84.1133ZM56.9219 99.0031C54.9694 102.721 50.3561 104.152 46.6378 102.2C42.9194 100.247 41.4886 95.6341 43.4411 91.9157C44.8001 89.3268 47.4513 87.8433 50.1934 87.8433C51.385 87.8433 52.5958 88.1256 53.7252 88.719C57.4435 90.6715 58.8744 95.2848 56.9219 99.0031Z" fill="#FF1D46"/>
<path d="M99.1256 115.59C101.047 115.59 102.605 114.032 102.605 112.111C102.605 110.189 101.047 108.632 99.1256 108.632C97.2041 108.632 95.6465 110.189 95.6465 112.111C95.6465 114.032 97.2041 115.59 99.1256 115.59Z" fill="#FFE500"/>
<path d="M79.1697 101.472C81.0912 101.472 82.6488 99.9148 82.6488 97.9934C82.6488 96.0719 81.0912 94.5143 79.1697 94.5143C77.2483 94.5143 75.6907 96.0719 75.6907 97.9934C75.6907 99.9148 77.2483 101.472 79.1697 101.472Z" fill="#AA173D"/>
<path d="M108.699 112.798C109.643 110.975 109.371 108.959 108.089 108.295C106.808 107.631 105.003 108.571 104.059 110.394C103.114 112.217 103.387 114.234 104.668 114.898C105.949 115.562 107.754 114.622 108.699 112.798Z" fill="black"/>
<path d="M97.3674 106.922C98.3122 105.099 98.0393 103.082 96.758 102.418C95.4768 101.754 93.6722 102.694 92.7275 104.518C91.7827 106.341 92.0555 108.358 93.3368 109.021C94.6181 109.685 96.4227 108.745 97.3674 106.922Z" fill="black"/>
<path d="M57.9575 222.553H14.304L71.0173 278.352V235.613C71.0173 228.401 65.1693 222.553 57.9575 222.553Z" fill="#D3D3D3"/>
<path d="M221.09 200.225L196.794 212.983C192.188 215.398 186.502 213.628 184.081 209.022C181.998 205.061 183.027 200.289 186.291 197.497C187.627 196.36 188.809 195.057 189.722 193.562L191.524 190.604C194.507 185.717 199.937 182.861 205.655 183.18L209.111 183.372C210.862 183.468 212.606 183.232 214.299 182.784C218.451 181.686 222.962 183.545 225.038 187.512C227.453 192.118 225.683 197.804 221.077 200.225H221.09Z" fill="white"/>
<path d="M221.694 198.552L195.064 212.533C191.106 214.611 189.582 219.504 191.66 223.462L192.886 225.798C194.964 229.756 199.857 231.28 203.815 229.202L230.445 215.221C234.403 213.143 235.927 208.25 233.849 204.292L232.623 201.956C230.545 197.998 225.652 196.473 221.694 198.552Z" fill="white"/>
<path d="M229.893 214.163L203.263 228.144C199.305 230.222 197.781 235.115 199.859 239.073L201.086 241.409C203.164 245.367 208.057 246.891 212.015 244.813L238.645 230.832C242.603 228.754 244.127 223.861 242.049 219.903L240.823 217.567C238.745 213.609 233.852 212.085 229.893 214.163Z" fill="white"/>
<path d="M238.082 229.77L211.452 243.752C207.494 245.83 205.969 250.723 208.047 254.681L209.274 257.017C211.352 260.975 216.245 262.499 220.203 260.421L246.833 246.44C250.791 244.362 252.315 239.469 250.237 235.511L249.011 233.174C246.933 229.216 242.04 227.692 238.082 229.77Z" fill="white"/>
<path d="M200.53 176.642L189.053 182.668C187.325 183.575 186.66 185.71 187.567 187.438L188.099 188.45C189.006 190.178 191.141 190.843 192.869 189.936L204.346 183.911C206.073 183.004 206.738 180.868 205.831 179.14L205.3 178.128C204.393 176.4 202.257 175.735 200.53 176.642Z" fill="#00DFFF"/>
<path opacity="0.2" d="M198.551 211.98C198.091 211.98 197.65 211.731 197.42 211.296C197.094 210.67 197.331 209.897 197.957 209.571L217.621 199.248C218.247 198.922 219.02 199.158 219.346 199.784C219.671 200.41 219.435 201.183 218.809 201.509L199.145 211.833C198.953 211.935 198.755 211.98 198.551 211.98Z" fill="#11B0BC"/>
<path opacity="0.2" d="M206.748 227.587C206.288 227.587 205.847 227.338 205.617 226.904C205.291 226.277 205.527 225.504 206.153 225.179L225.817 214.855C226.443 214.529 227.216 214.765 227.542 215.391C227.868 216.017 227.632 216.79 227.006 217.116L207.342 227.44C207.15 227.542 206.952 227.587 206.748 227.587Z" fill="#11B0BC"/>
<path opacity="0.2" d="M214.938 243.194C214.478 243.194 214.037 242.945 213.807 242.511C213.481 241.885 213.717 241.112 214.343 240.786L234.007 230.462C234.633 230.136 235.406 230.373 235.732 230.999C236.058 231.625 235.822 232.398 235.196 232.724L215.532 243.047C215.34 243.15 215.142 243.194 214.938 243.194Z" fill="#11B0BC"/>
</g>
<defs>
<clipPath id="clip0_26822_1289">
<rect width="300" height="300" fill="white"/>
</clipPath>
</defs>
</svg>
