<svg width="300" height="300" viewBox="0 0 300 300" fill="none" xmlns="http://www.w3.org/2000/svg">
<g clip-path="url(#clip0_26822_2823)">
<rect y="1" width="299" height="299" rx="12" fill="white" fill-opacity="0.08"/>
<path d="M200.618 22.132H54.891C46.6387 22.132 39.9502 28.8204 39.9502 37.0727V260.333C39.9502 268.585 46.6387 275.274 54.891 275.274H239.823C248.075 275.274 254.764 268.585 254.764 260.333V75.2066L200.623 22.132H200.618Z" fill="#010007"/>
<path d="M163.045 22.9156L98.0803 12.4517C86.2448 10.5454 75.1048 18.5946 73.1984 30.4302L55.4517 140.61C53.5454 152.446 61.5946 163.586 73.4302 165.492L138.395 175.956C150.231 177.863 161.371 169.813 163.277 157.978L181.024 47.7975C182.93 35.962 174.881 24.822 163.045 22.9156Z" fill="#00DB5A"/>
<path d="M142.427 24.3974L117.186 20.3317C115.304 20.0286 113.532 21.3075 113.229 23.1884C112.926 25.0692 114.206 26.8396 116.088 27.1428L141.33 31.2085C143.212 31.5116 144.984 30.2326 145.286 28.3518C145.589 26.471 144.309 24.7005 142.427 24.3974Z" fill="#108940"/>
<path d="M107.167 168.835C110.473 168.835 113.152 166.156 113.152 162.85C113.152 159.545 110.473 156.866 107.167 156.866C103.862 156.866 101.183 159.545 101.183 162.85C101.183 166.156 103.862 168.835 107.167 168.835Z" fill="#108940"/>
<path d="M149.26 37.1969L106.788 30.181C94.9606 28.2271 83.7884 36.2316 81.8346 48.0594L68.9102 126.299C66.9563 138.127 74.9608 149.299 86.7886 151.253L129.26 158.269C141.088 160.222 152.26 152.218 154.214 140.39L167.138 62.1507C169.092 50.3229 161.088 39.1507 149.26 37.1969Z" fill="#F878F3"/>
<path d="M81.7845 48.5515L81.647 49.4111L167.06 63.0767L167.197 62.2172L81.7845 48.5515Z" fill="white"/>
<path d="M69.5719 122.137L69.4343 122.996L154.847 136.662L154.985 135.802L69.5719 122.137Z" fill="white"/>
<path d="M88.849 46.4587L87.9131 46.5718C87.887 46.241 87.8391 45.8362 87.7477 45.4532C87.3212 45.3749 86.7205 45.253 86.3201 45.2182C86.1025 45.475 85.8326 45.9363 85.7586 46.1801L84.8533 45.7884C85.1101 45.105 85.5802 44.5043 85.9849 43.9516C86.3332 43.4684 86.6465 42.9983 87.0252 42.6197C87.2211 42.4325 87.3647 42.3846 87.5606 42.4151C87.7477 42.4456 87.9262 42.5631 88.0002 42.759C88.3571 43.6643 88.7532 45.7013 88.8446 46.463L88.849 46.4587ZM86.8119 44.3781L87.578 44.5C87.5562 44.4086 87.4126 43.6077 87.3865 43.4902L86.8119 44.3781Z" fill="#F7F8F8"/>
<path d="M90.7676 43.4421L90.5804 44.4868C90.8416 44.5042 91.1114 44.5259 91.4466 44.5825C91.686 44.6217 91.8253 44.6434 92.1561 44.7131C92.1778 44.5303 92.2605 43.9601 92.2866 43.7816L93.2094 43.9122C93.2399 44.2604 93.0701 45.1788 92.9178 46.1146C92.8699 46.415 92.7872 46.872 92.7262 47.0287L91.7904 46.8807C91.847 46.5194 91.9471 46.0667 92.0124 45.6576C91.8166 45.6097 91.6381 45.5793 91.4814 45.5531C91.094 45.4922 90.7545 45.4617 90.4194 45.4617C90.3236 46.045 90.2714 46.6631 90.254 46.7675L89.3008 46.65C89.2833 46.3279 89.427 45.5314 89.5402 44.8088C89.6011 44.3605 89.7447 43.5901 89.7926 43.2898L90.7545 43.4421H90.7676Z" fill="#F7F8F8"/>
<path d="M95.1475 44.1384L94.9603 45.183C95.2215 45.2005 95.4913 45.2222 95.8265 45.2788C96.0659 45.318 96.2051 45.3397 96.5359 45.4094C96.5577 45.2266 96.6404 44.6607 96.6665 44.4779L97.5893 44.6085C97.6197 44.9567 97.45 45.8751 97.2976 46.8109C97.2498 47.1112 97.1671 47.5683 97.1061 47.725L96.1703 47.577C96.2269 47.2157 96.327 46.763 96.3923 46.3495C96.1964 46.3017 96.018 46.2712 95.8613 46.2494C95.4739 46.1885 95.1344 46.158 94.7993 46.158C94.7035 46.7413 94.6513 47.3593 94.6339 47.4638L93.6806 47.3463C93.6632 47.0242 93.8069 46.2277 93.92 45.5051C93.981 45.0568 94.1246 44.2864 94.1725 43.9861L95.1344 44.1384H95.1475Z" fill="#F7F8F8"/>
<path d="M101.546 48.4912L100.61 48.6044C100.584 48.2736 100.536 47.8688 100.444 47.4858C100.013 47.4075 99.4171 47.2856 99.0167 47.2508C98.799 47.5076 98.5335 47.9689 98.4595 48.2127L97.5542 47.8209C97.8154 47.1376 98.2811 46.5369 98.6859 45.9842C99.0341 45.501 99.3475 45.0309 99.7261 44.6523C99.922 44.4651 100.066 44.4172 100.262 44.4477C100.449 44.4782 100.627 44.5957 100.701 44.7915C101.058 45.6969 101.454 47.7339 101.546 48.5V48.4912ZM99.5085 46.4064L100.275 46.5282C100.253 46.4368 100.109 45.6359 100.083 45.5184L99.5085 46.4064Z" fill="#F7F8F8"/>
<path d="M101.937 47.1416C102.125 45.9707 103.221 44.9131 104.362 45.3179C105.08 45.566 105.655 46.2841 105.533 47.1372C105.385 48.0556 104.523 49.2613 103.361 49.0741C102.364 48.9131 101.785 48.0643 101.933 47.1459L101.937 47.1416ZM103.5 48.1122C103.922 48.1775 104.227 47.8032 104.405 47.455C104.68 46.9457 104.623 46.3102 103.953 46.2014C103.291 46.097 102.925 46.998 102.886 47.2461C102.817 47.677 103.052 48.0382 103.496 48.1122H103.5Z" fill="#F7F8F8"/>
<path d="M107.335 46.0929L107.152 47.1375C107.413 47.1549 107.683 47.1767 108.018 47.2333C108.257 47.2724 108.397 47.2942 108.727 47.3638C108.749 47.181 108.832 46.6152 108.858 46.4324L109.781 46.563C109.811 46.9112 109.641 47.8296 109.489 48.7654C109.441 49.0657 109.359 49.5184 109.298 49.6794L108.362 49.5314C108.418 49.1702 108.518 48.7175 108.584 48.304C108.388 48.2561 108.209 48.2257 108.053 48.2039C107.665 48.143 107.326 48.1125 106.991 48.1125C106.899 48.6957 106.843 49.3138 106.825 49.4183L105.876 49.3008C105.859 48.9787 106.003 48.1821 106.116 47.4596C106.177 47.0113 106.32 46.2409 106.368 45.9406L107.33 46.0929H107.335Z" fill="#F7F8F8"/>
<path d="M111.709 46.7933L111.526 47.838C111.787 47.8554 112.057 47.8771 112.392 47.9337C112.631 47.9729 112.771 47.9946 113.101 48.0643C113.123 47.8815 113.206 47.3113 113.232 47.1328L114.155 47.2634C114.185 47.6116 114.015 48.53 113.863 49.4658C113.815 49.7661 113.733 50.2232 113.672 50.3799L112.736 50.2319C112.792 49.8706 112.892 49.4179 112.958 49.0088C112.762 48.9609 112.583 48.9305 112.427 48.9043C112.039 48.8434 111.7 48.8129 111.365 48.8129C111.273 49.3962 111.217 50.0142 111.199 50.1187L110.246 50.0012C110.229 49.6791 110.372 48.8826 110.485 48.16C110.546 47.7117 110.69 46.9413 110.738 46.641L111.7 46.7933H111.709Z" fill="#F7F8F8"/>
<path d="M114.555 49.1615C114.742 47.9906 115.839 46.933 116.979 47.3378C117.697 47.5859 118.272 48.304 118.15 49.1571C118.002 50.0755 117.14 51.2812 115.978 51.094C114.981 50.933 114.403 50.0842 114.551 49.1658L114.555 49.1615ZM116.117 50.1321C116.54 50.1974 116.844 49.8231 117.023 49.4749C117.297 48.9656 117.24 48.3301 116.57 48.2213C115.909 48.1169 115.543 49.0179 115.504 49.266C115.434 49.6969 115.669 50.0581 116.117 50.1321Z" fill="#F7F8F8"/>
<path d="M153.953 56.9212C154.135 56.2813 154.684 55.7808 155.419 55.8983C156.107 56.0071 156.542 56.4076 156.434 57.104C156.29 57.9962 155.594 58.5011 154.736 58.3662C154.061 58.2574 153.787 57.5001 153.957 56.9255L153.953 56.9212Z" fill="white"/>
<path d="M156.885 57.3914C157.068 56.7515 157.617 56.251 158.352 56.3685C159.04 56.4773 159.475 56.8778 159.366 57.5742C159.223 58.4665 158.526 58.9714 157.669 58.8364C156.994 58.7276 156.72 57.9703 156.89 57.3957L156.885 57.3914Z" fill="white"/>
<path d="M159.82 57.8615C160.003 57.2216 160.551 56.7211 161.287 56.8386C161.975 56.9474 162.41 57.3479 162.301 58.0443C162.158 58.9366 161.461 59.4415 160.604 59.3065C159.929 59.1977 159.655 58.4404 159.825 57.8658L159.82 57.8615Z" fill="white"/>
<path d="M154.159 44.9999C154.107 44.9999 154.054 44.9999 153.998 44.9869L148.013 44.0293C147.752 43.9858 147.521 43.8465 147.365 43.6332C147.208 43.4199 147.147 43.1544 147.19 42.8933L147.513 40.8737C147.556 40.6125 147.695 40.3818 147.913 40.2251C148.126 40.0684 148.387 40.0075 148.653 40.051L154.638 41.0086C154.899 41.0521 155.13 41.1914 155.286 41.4047C155.443 41.618 155.504 41.8835 155.46 42.1446L155.138 44.1642C155.095 44.4254 154.955 44.6561 154.742 44.8128C154.572 44.9346 154.368 44.9999 154.163 44.9999H154.159ZM148.492 40.4732C148.374 40.4732 148.261 40.5081 148.165 40.5777C148.044 40.6647 147.965 40.7953 147.943 40.939L147.621 42.9586C147.6 43.1066 147.634 43.2545 147.721 43.3721C147.809 43.4939 147.939 43.5723 148.083 43.594L154.068 44.5516C154.216 44.5734 154.364 44.5386 154.481 44.4515C154.603 44.3645 154.681 44.2339 154.703 44.0902L155.025 42.0706C155.047 41.9226 155.012 41.7747 154.925 41.6571C154.838 41.5353 154.707 41.4569 154.564 41.4352L148.579 40.4776C148.548 40.4732 148.518 40.4689 148.488 40.4689L148.492 40.4732Z" fill="white"/>
<path d="M154.604 41.2095L151.269 40.6759C150.847 40.6083 150.449 40.896 150.382 41.3185L150.059 43.3385C149.991 43.761 150.279 44.1584 150.701 44.226L154.036 44.7596C154.459 44.8272 154.856 44.5395 154.924 44.1169L155.247 42.0969C155.315 41.6744 155.027 41.2771 154.604 41.2095Z" fill="white"/>
<path d="M144.595 39.6132L143.499 39.4379C143.247 39.3976 143.011 39.569 142.971 39.8206L142.548 42.4595C142.508 42.7111 142.679 42.9477 142.931 42.988L144.027 43.1633C144.279 43.2036 144.515 43.0322 144.555 42.7806L144.978 40.1417C145.018 39.8901 144.847 39.6535 144.595 39.6132Z" fill="white"/>
<path d="M142.17 39.6923L141.074 39.517C140.823 39.4767 140.586 39.6481 140.546 39.8997L140.197 42.083C140.156 42.3346 140.328 42.5712 140.579 42.6115L141.675 42.7868C141.927 42.8271 142.164 42.6558 142.204 42.4041L142.553 40.2208C142.593 39.9692 142.422 39.7326 142.17 39.6923Z" fill="white"/>
<path d="M139.642 40.3988L138.546 40.2234C138.295 40.1831 138.058 40.3545 138.018 40.6061L137.843 41.7021C137.802 41.9537 137.974 42.1903 138.225 42.2305L139.321 42.4059C139.573 42.4461 139.809 42.2748 139.85 42.0232L140.025 40.9272C140.065 40.6756 139.894 40.439 139.642 40.3988Z" fill="white"/>
<path d="M147.335 40.9592L147.713 41.0198L147.429 42.7948L147.051 42.7343C146.844 42.7013 146.704 42.5068 146.737 42.3005L146.9 41.2776C146.933 41.0713 147.128 40.9305 147.334 40.9635L147.335 40.9592Z" fill="white"/>
<path d="M76.0126 133.51C76.0126 133.51 75.9778 133.51 75.9604 133.51C75.9038 133.51 75.8472 133.51 75.7906 133.501C75.7645 133.501 75.7384 133.492 75.7079 133.488L75.7253 133.048L75.66 133.479C75.6296 133.479 75.6035 133.471 75.573 133.462C75.5121 133.449 75.4555 133.431 75.3989 133.41C75.3771 133.401 75.3423 133.392 75.3118 133.379L75.2857 133.37C74.4413 133.048 73.6361 132.178 73.1268 131.046C72.3172 129.236 72.5697 127.42 73.7014 126.911C74.4718 126.567 75.4206 126.907 76.2433 127.812C76.413 127.999 76.7047 128.047 76.9223 127.921C77.9887 127.316 78.9985 127.29 79.6209 127.856C80.5393 128.691 80.2128 130.493 78.8766 131.96C78.0409 132.879 77.0006 133.453 76.0953 133.492C76.0648 133.492 76.0431 133.492 76.0213 133.492L76.0126 133.51ZM75.9647 132.639L76.0474 133.075L76.0213 132.639C76.7134 132.613 77.5491 132.13 78.2237 131.386C79.2814 130.224 79.4947 128.935 79.0246 128.509C78.7069 128.217 78.0453 128.287 77.3445 128.687C76.7699 129.014 76.0344 128.896 75.5904 128.409C75.0463 127.812 74.4413 127.538 74.0496 127.716C73.4707 127.973 73.2748 129.266 73.9146 130.698C74.3238 131.616 74.9723 132.335 75.5991 132.57L75.6426 132.587H75.6557C75.6992 132.6 75.7297 132.609 75.7558 132.617L75.8733 132.635C75.9081 132.635 75.9343 132.635 75.9647 132.635V132.639Z" fill="white"/>
<path d="M87.9292 135.864C87.8813 135.864 87.8334 135.856 87.7899 135.842L86.1489 135.281C85.6658 135.407 85.174 135.429 84.6821 135.351C83.7246 135.198 82.8889 134.68 82.3187 133.897C81.7528 133.113 81.5221 132.156 81.6745 131.198C81.8268 130.241 82.3448 129.405 83.1283 128.835C83.9117 128.269 84.8693 128.038 85.8269 128.191C86.7844 128.343 87.6201 128.861 88.1903 129.644C88.7561 130.428 88.9868 131.385 88.8345 132.343C88.7126 133.1 88.3557 133.792 87.816 134.332L88.3078 135.216C88.3949 135.372 88.3775 135.568 88.26 135.708C88.1773 135.808 88.051 135.864 87.9248 135.864H87.9292ZM86.162 134.389C86.2099 134.389 86.2578 134.397 86.3013 134.41L86.9934 134.645L86.8845 134.45C86.7801 134.267 86.828 134.032 86.989 133.901C87.5157 133.47 87.8639 132.87 87.9727 132.204C88.0902 131.477 87.9161 130.75 87.4852 130.154C87.0543 129.557 86.4145 129.166 85.6919 129.048C84.9694 128.931 84.2382 129.105 83.6419 129.536C83.0456 129.966 82.6538 130.606 82.5363 131.329C82.4188 132.056 82.5929 132.783 83.0238 133.379C83.4547 133.975 84.0945 134.367 84.8171 134.484C85.2218 134.55 85.631 134.519 86.0358 134.402C86.075 134.389 86.1185 134.384 86.1577 134.384L86.162 134.389Z" fill="white"/>
<path d="M94.9297 136.947C94.7643 136.947 94.6163 136.856 94.5423 136.708L93.1626 133.966L90.5249 132.608C90.3682 132.525 90.2725 132.355 90.2899 132.181C90.3073 132.007 90.4292 131.855 90.5989 131.807L96.7143 130.018C96.8666 129.975 97.0364 130.018 97.1452 130.131C97.2584 130.244 97.2975 130.414 97.2497 130.566L95.3389 136.647C95.2866 136.817 95.1343 136.934 94.9602 136.952C94.9471 136.952 94.9384 136.952 94.9254 136.952L94.9297 136.947ZM91.8916 132.334L93.6849 133.261C93.7676 133.304 93.8329 133.37 93.8764 133.452L94.8383 135.363L96.1833 131.084L91.8916 132.338V132.334Z" fill="white"/>
<path d="M96.5368 130.124L93.1831 133.336L93.7853 133.965L97.139 130.752L96.5368 130.124Z" fill="white"/>
<path d="M129.283 88.0549L128.7 88.1811C128.613 88.1986 128.526 88.1376 128.539 88.068L130.924 77.2736L131.912 77.452L129.575 88.007C129.57 88.0375 129.318 88.0462 129.279 88.0549H129.283Z" fill="white"/>
<path d="M130.967 82.0577L131.655 84.7084C131.724 84.9739 131.916 85.1872 132.173 85.2786L134.745 86.2144C135.389 86.4495 135.485 87.32 134.906 87.6899L132.595 89.1611C132.364 89.3091 132.22 89.5572 132.212 89.8314L132.116 92.5692C132.09 93.2525 131.293 93.6138 130.762 93.1786L128.647 91.4375C128.438 91.2634 128.155 91.2068 127.894 91.2808L125.261 92.0338C124.603 92.221 124.011 91.5724 124.264 90.937L125.269 88.3864C125.369 88.1339 125.339 87.8466 125.187 87.6203L123.655 85.3482C123.272 84.7781 123.707 84.0164 124.39 84.0599L127.124 84.2253C127.393 84.2427 127.659 84.1252 127.824 83.9075L129.513 81.7487C129.935 81.2089 130.793 81.3874 130.967 82.049V82.0577Z" fill="#FFE600"/>
<path d="M87.142 105.461C87.6165 108.103 92.9702 109.352 99.0942 108.251C105.218 107.15 109.797 104.112 109.323 101.47L107.443 91.0237L85.2617 95.015L87.142 105.461Z" fill="#FF1D46"/>
<path d="M97.0951 97.1708C103.22 96.0687 107.8 93.0329 107.325 90.3902C106.849 87.7475 101.498 86.4987 95.3732 87.6008C89.248 88.7029 84.6679 91.7386 85.1434 94.3813C85.6189 97.024 90.9699 98.2729 97.0951 97.1708Z" fill="#C11B3F"/>
<path d="M92.7526 98.0051C88.3782 98.0051 85.1182 96.6732 84.7177 94.4534C84.4566 92.9953 85.4577 91.4283 87.5469 90.0442C89.5273 88.7297 92.2825 87.7112 95.2989 87.1671C98.3196 86.6231 101.253 86.6231 103.569 87.1628C106.006 87.733 107.49 88.8472 107.756 90.3097C108.017 91.7678 107.016 93.3348 104.927 94.7189C102.946 96.0334 100.191 97.0519 97.1748 97.596C95.6253 97.8745 94.1324 98.0051 92.7526 98.0051ZM99.7124 87.6285C98.3587 87.6285 96.918 87.7591 95.4512 88.0246C92.548 88.5469 89.9104 89.5219 88.0257 90.7711C86.2716 91.9332 85.3793 93.2172 85.5752 94.301C86.0017 96.6645 91.2423 97.7788 97.0225 96.7385C99.9257 96.2162 102.563 95.2412 104.448 93.992C106.202 92.8299 107.094 91.5459 106.899 90.4621C106.703 89.3826 105.419 88.486 103.373 88.0115C102.285 87.7591 101.044 87.6285 99.7167 87.6285H99.7124Z" fill="#84132B"/>
<path d="M93.0485 96.7127C89.5795 96.7127 87.0332 95.7421 86.7373 94.0924C86.3368 91.8683 90.1976 89.3786 95.5251 88.4167C100.853 87.4591 105.336 88.4515 105.736 90.6713C106.137 92.8955 102.276 95.3852 96.9484 96.3471C95.573 96.5952 94.2542 96.7127 93.0485 96.7127ZM99.4294 88.9216C98.2934 88.9216 97.0311 89.0304 95.6775 89.2741C90.5849 90.1925 87.3292 92.4689 87.5947 93.9357C87.8602 95.4069 91.7036 96.4037 96.7961 95.4896C101.889 94.5712 105.144 92.2948 104.879 90.828C104.683 89.7486 102.559 88.9216 99.4294 88.9216Z" fill="#84132B"/>
<path d="M92.8036 95.3594C92.2682 95.3594 91.7633 95.3332 91.2976 95.281C89.6132 95.0938 88.6469 94.5715 88.5033 93.7707C88.3596 92.9698 89.0822 92.1471 90.5969 91.3811C91.9374 90.7021 93.7742 90.1319 95.7634 89.775C97.7525 89.4181 99.672 89.3136 101.165 89.479C102.849 89.6662 103.816 90.1885 103.959 90.9894C104.103 91.7859 103.38 92.6129 101.866 93.3789C100.525 94.0579 98.6883 94.6281 96.6992 94.985C95.3281 95.2331 93.9875 95.3594 92.7993 95.3594H92.8036ZM99.6589 90.2712C98.5229 90.2712 97.2389 90.393 95.9201 90.6324C94.0093 90.9763 92.2595 91.5204 90.9929 92.1602C89.796 92.7652 89.3128 93.3267 89.3651 93.6183C89.4173 93.9099 90.0658 94.2668 91.4021 94.4192C92.8123 94.5759 94.6448 94.4758 96.5555 94.1319C98.4663 93.7881 100.216 93.244 101.483 92.6042C102.68 91.9992 103.163 91.4377 103.111 91.146C103.058 90.8544 102.41 90.4975 101.074 90.3452C100.638 90.2973 100.164 90.2712 99.6633 90.2712H99.6589Z" fill="#84132B"/>
<path d="M92.9346 94.0753C91.2241 94.0753 90.8933 93.6139 90.8454 93.3484C90.7758 92.9567 91.137 91.9469 95.9989 91.072C100.861 90.1971 101.553 91.0154 101.622 91.4071C101.692 91.7989 101.331 92.8087 96.4689 93.6835C94.8933 93.9665 93.7529 94.0753 92.9346 94.0753ZM91.964 93.1482C92.6125 93.2439 94.0968 93.2265 96.3166 92.8261C98.5364 92.4256 99.9336 91.9251 100.508 91.6074C99.8596 91.5116 98.3754 91.529 96.1556 91.9294C93.9357 92.3299 92.5385 92.8304 91.964 93.1482Z" fill="#84132B"/>
<path d="M123.608 94.6575C121.61 96.4507 123.364 101.661 127.525 106.288C131.686 110.914 136.679 113.213 138.672 111.415L146.568 104.32L131.503 87.5627L123.608 94.6575Z" fill="#FF1D46"/>
<path d="M147.053 103.904C149.05 102.109 147.296 96.9015 143.136 92.2728C138.976 87.6441 133.984 85.347 131.987 87.1419C129.99 88.9369 131.744 94.1443 135.904 98.7729C140.064 103.402 145.056 105.699 147.053 103.904Z" fill="#C11B3F"/>
<path d="M145.24 104.929C142.646 104.929 138.89 102.736 135.578 99.0489C131.19 94.1696 129.484 88.7899 131.695 86.8051C133.906 84.8203 139.073 87.088 143.46 91.9672C147.848 96.8465 149.554 102.226 147.343 104.211C146.803 104.699 146.08 104.929 145.24 104.929ZM133.806 86.9444C133.179 86.9444 132.657 87.1054 132.274 87.4536C130.489 89.0597 132.3 94.1044 136.226 98.47C140.152 102.836 144.975 105.169 146.759 103.567C148.544 101.961 146.733 96.9161 142.807 92.5505C139.726 89.1206 136.091 86.9487 133.806 86.9487V86.9444Z" fill="#84132B"/>
<path d="M144.473 103.193C142.428 103.193 139.316 101.309 136.521 98.2009C132.904 94.1747 131.385 89.8396 133.065 88.3292C133.923 87.5588 135.407 87.6458 137.248 88.573C138.963 89.4391 140.835 90.9451 142.515 92.8124C146.132 96.8385 147.651 101.174 145.971 102.684C145.588 103.028 145.078 103.193 144.473 103.193ZM134.589 88.6774C134.193 88.6774 133.87 88.7775 133.649 88.9777C132.539 89.9745 133.709 93.7699 137.17 97.6176C140.63 101.465 144.278 103.037 145.387 102.036C146.497 101.039 145.327 97.2433 141.866 93.3956C140.256 91.6024 138.476 90.166 136.856 89.3521C135.968 88.9037 135.194 88.6774 134.593 88.6774H134.589Z" fill="#84132B"/>
<path d="M143.89 101.652C142.306 101.652 139.69 99.6587 137.548 97.2778C136.195 95.7718 135.098 94.1962 134.453 92.8382C133.727 91.3061 133.661 90.2092 134.266 89.6651C135.559 88.503 138.876 90.8316 141.487 93.7348C142.841 95.2408 143.938 96.8164 144.582 98.1744C145.309 99.7065 145.374 100.803 144.769 101.347C144.538 101.556 144.238 101.652 143.89 101.652ZM135.172 90.2179C135.028 90.2179 134.919 90.2484 134.85 90.3137C134.632 90.5095 134.667 91.2538 135.241 92.4638C135.851 93.7479 136.9 95.2495 138.197 96.6946C141.048 99.8632 143.65 101.182 144.186 100.699C144.403 100.503 144.369 99.7588 143.794 98.5488C143.185 97.2647 142.136 95.7631 140.839 94.318C138.371 91.5716 136.09 90.2135 135.172 90.2135V90.2179Z" fill="#84132B"/>
<path d="M142.79 99.711C142.215 99.711 141.005 99.1451 138.533 96.3943C137.432 95.1712 134.968 92.2376 135.856 91.4367C136.152 91.1712 137.201 90.9492 140.505 94.6228C143.808 98.2964 143.477 99.3149 143.181 99.5804C143.107 99.6457 142.986 99.711 142.79 99.711ZM136.618 92.2811C136.879 92.8818 137.671 94.1353 139.181 95.8154C140.687 97.4911 141.854 98.4182 142.424 98.7403C142.163 98.1397 141.371 96.8861 139.86 95.206C138.354 93.5303 137.188 92.6032 136.618 92.2811Z" fill="#84132B"/>
<path d="M101.416 113.03C100.193 115.42 103.696 119.655 109.242 122.484C114.787 125.313 120.267 125.67 121.49 123.276L126.317 113.822L106.247 103.572L101.42 113.026L101.416 113.03Z" fill="#FF7800"/>
<path d="M126.611 113.241C127.832 110.85 124.329 106.617 118.786 103.786C113.243 100.956 107.76 100.6 106.539 102.992C105.318 105.383 108.821 109.616 114.364 112.446C119.907 115.277 125.39 115.632 126.611 113.241Z" fill="#A04100"/>
<path d="M122.817 115.263C122.578 115.263 122.33 115.254 122.077 115.237C119.705 115.084 116.898 114.231 114.164 112.834C108.319 109.848 104.802 105.439 106.151 102.793C107.5 100.146 113.137 100.412 118.982 103.398C124.828 106.383 128.345 110.793 126.996 113.439C126.391 114.627 124.919 115.263 122.817 115.263ZM110.295 101.844C108.628 101.844 107.392 102.283 106.926 103.193C105.833 105.33 109.333 109.391 114.56 112.064C117.189 113.404 119.879 114.227 122.134 114.37C124.232 114.505 125.72 114.022 126.221 113.047C127.313 110.91 123.814 106.849 118.586 104.177C115.583 102.645 112.545 101.844 110.295 101.844Z" fill="#F25416"/>
<path d="M122.104 113.831C121.812 113.831 121.503 113.813 121.177 113.783C119.266 113.591 116.981 112.856 114.739 111.711C109.921 109.252 106.948 105.744 107.975 103.733C109.002 101.722 113.586 102.075 118.404 104.534C120.646 105.678 122.578 107.097 123.858 108.534C125.229 110.075 125.69 111.485 125.168 112.512C124.728 113.374 123.653 113.831 122.104 113.831ZM111.044 103.289C109.855 103.289 109.028 103.585 108.754 104.125C108.075 105.457 110.53 108.577 115.139 110.932C117.285 112.029 119.462 112.73 121.268 112.912C122.913 113.078 124.054 112.786 124.397 112.112C124.741 111.437 124.31 110.344 123.214 109.108C122.008 107.75 120.162 106.401 118.017 105.304C115.287 103.911 112.78 103.285 111.048 103.285L111.044 103.289Z" fill="#F25416"/>
<path d="M121.768 112.464C121.385 112.464 120.945 112.421 120.453 112.329C118.973 112.055 117.172 111.402 115.37 110.479C111.892 108.703 108.788 106.096 109.581 104.551C110.373 103.006 114.303 103.99 117.781 105.765C119.583 106.684 121.172 107.763 122.26 108.799C123.487 109.97 123.94 110.971 123.57 111.694C123.309 112.203 122.695 112.464 121.772 112.464H121.768ZM111.335 104.638C110.799 104.638 110.455 104.747 110.355 104.947C110.025 105.591 111.97 107.768 115.766 109.705C117.494 110.588 119.213 111.215 120.614 111.472C121.933 111.715 122.66 111.559 122.795 111.298C122.93 111.036 122.63 110.357 121.659 109.43C120.632 108.451 119.113 107.424 117.385 106.54C114.751 105.195 112.549 104.638 111.339 104.638H111.335Z" fill="#F25416"/>
<path d="M120.684 110.985C120.349 110.985 119.905 110.898 119.335 110.719C118.386 110.428 117.193 109.927 115.97 109.3C114.751 108.678 113.641 108.003 112.849 107.407C111.805 106.619 111.461 106.088 111.696 105.631C111.931 105.174 112.562 105.143 113.811 105.522C114.76 105.814 115.953 106.314 117.176 106.941C118.643 107.69 121.994 109.548 121.45 110.61C121.324 110.858 121.08 110.98 120.684 110.98V110.985ZM112.706 106.149C113.163 106.615 114.355 107.503 116.366 108.53C118.373 109.557 119.792 110.001 120.44 110.097C119.983 109.631 118.791 108.743 116.78 107.716C114.769 106.689 113.354 106.245 112.706 106.149Z" fill="#F25416"/>
<path d="M150.981 87.6507C150.798 87.6507 150.615 87.6071 150.445 87.507C117.788 68.9824 91.2327 75.0107 90.9716 75.076C90.384 75.2153 89.8007 74.854 89.6614 74.2708C89.5222 73.6876 89.8791 73.0999 90.4667 72.9607C90.7452 72.8954 97.4569 71.3197 108.382 72.0858C118.423 72.7909 134.062 75.7115 151.525 85.6136C152.047 85.9096 152.23 86.5756 151.934 87.0979C151.734 87.4504 151.364 87.6507 150.985 87.6507H150.981Z" fill="white"/>
<path d="M126.472 76.5518L125.933 73.7879C122.102 71.8597 118.89 71.9511 117.793 72.06L116.117 74.4147L114.346 73.1525L116.296 70.4147C116.457 70.1883 116.696 70.036 116.966 69.9794C117.158 69.9402 121.758 69.061 127.417 72.1122C127.704 72.2689 127.904 72.5431 127.97 72.8608L128.609 76.1383L126.472 76.5562V76.5518Z" fill="white"/>
<path d="M122.598 72.4643C122.524 72.4643 122.45 72.4556 122.376 72.4426C121.789 72.3207 121.41 71.7418 121.532 71.1542L122.237 67.7592C122.294 67.4763 122.463 67.2282 122.707 67.0715C122.947 66.9148 123.242 66.8582 123.525 66.9148C124.896 67.2021 126.246 66.3185 126.533 64.9431C126.82 63.572 125.932 62.2227 124.561 61.9354C123.734 61.7657 122.877 62.0138 122.268 62.6057C121.837 63.0236 121.149 63.0149 120.727 62.584C120.309 62.1531 120.318 61.4654 120.748 61.0431C121.876 59.9463 123.469 59.4849 125.001 59.8027C127.547 60.3337 129.188 62.8364 128.657 65.3827C128.204 67.5633 126.302 69.078 124.17 69.139L123.66 71.5895C123.552 72.1031 123.099 72.4556 122.598 72.4556V72.4643Z" fill="white"/>
<path d="M96.1561 92.4684L95.2073 92.7687C95.1202 92.7992 95.0332 92.7209 95.0506 92.6295L99.0114 73.6086L100.13 73.6739L96.2345 92.377C96.2258 92.4162 96.1953 92.451 96.1561 92.4641V92.4684Z" fill="white"/>
<path d="M110.955 88.0549L110.372 88.1811C110.285 88.1986 110.197 88.1376 110.211 88.068L113.192 73.7523L114.18 73.9308L111.251 88.007C111.246 88.0375 110.994 88.0462 110.955 88.0549Z" fill="white"/>
<path d="M115.956 107.824L116.731 108.395C116.8 108.456 116.909 108.421 116.931 108.329L123.673 75.9374L122.598 75.6371L115.921 107.711C115.912 107.75 115.925 107.794 115.956 107.824Z" fill="white"/>
<path d="M139.259 95.1067L139.873 95.777C139.943 95.838 140.052 95.8032 140.073 95.7117L142.903 82.1099L141.988 81.7095L139.225 94.9936C139.216 95.0327 139.229 95.0763 139.259 95.1067Z" fill="white"/>
<path d="M112.044 84.8385L112.731 87.4892C112.801 87.7547 112.992 87.968 113.249 88.0594L115.822 88.9952C116.466 89.2302 116.562 90.1007 115.983 90.4707L113.671 91.9419C113.441 92.0899 113.297 92.338 113.288 92.6122L113.193 95.35C113.167 96.0333 112.37 96.3946 111.839 95.9593L109.724 94.2183C109.515 94.0442 109.232 93.9876 108.971 94.0616L106.337 94.8146C105.68 95.0017 105.088 94.3532 105.341 93.7177L106.346 91.1671C106.446 90.9147 106.416 90.6274 106.263 90.4011L104.731 88.129C104.348 87.5588 104.783 86.7971 105.467 86.8406L108.2 87.006C108.47 87.0235 108.736 86.9059 108.901 86.6883L110.59 84.5294C111.012 83.9897 111.869 84.1682 112.044 84.8297V84.8385Z" fill="#FFE600"/>
<path d="M199.339 105.082L131.524 137.793C119.169 143.752 113.984 158.598 119.943 170.953L175.419 285.967C181.379 298.321 196.225 303.506 208.58 297.547L276.395 264.837C288.75 258.877 293.934 244.031 287.975 231.676L232.499 116.663C226.54 104.308 211.693 99.1232 199.339 105.082Z" fill="#1A3CFF"/>
<path d="M195.643 127.385L151.279 148.783C138.924 154.742 133.74 169.589 139.699 181.943L179.119 263.669C185.078 276.023 199.924 281.208 212.279 275.249L256.643 253.85C268.997 247.891 274.182 233.045 268.223 220.69L228.803 138.965C222.844 126.61 207.998 121.425 195.643 127.385Z" fill="#5BB3FD"/>
<path d="M180.962 119.974L154.613 132.683C152.648 133.631 151.823 135.99 152.77 137.954C153.717 139.917 156.078 140.74 158.042 139.793L184.391 127.083C186.356 126.136 187.181 123.776 186.234 121.813C185.287 119.849 182.926 119.026 180.962 119.974Z" fill="#152A82"/>
<path d="M238.529 279.796C242.311 279.796 245.377 276.73 245.377 272.948C245.377 269.166 242.311 266.1 238.529 266.1C234.747 266.1 231.681 269.166 231.681 272.948C231.681 276.73 234.747 279.796 238.529 279.796Z" fill="#152A82"/>
<path d="M228.923 139.015L139.975 182.417L140.411 183.313L229.36 139.91L228.923 139.015Z" fill="white"/>
<path d="M265.929 215.929L176.98 259.331L177.417 260.226L266.366 216.824L265.929 215.929Z" fill="white"/>
<path d="M145.208 175.815L144.406 176.537C144.162 176.243 143.848 175.899 143.514 175.596C143.061 175.805 142.424 176.084 142.025 176.313C141.99 176.696 142.045 177.304 142.135 177.578L141.029 177.807C140.825 177 140.86 176.124 140.88 175.342C140.89 174.659 140.875 174.012 140.979 173.409C141.039 173.1 141.139 172.966 141.343 172.866C141.537 172.772 141.781 172.762 141.98 172.896C142.912 173.509 144.625 175.152 145.213 175.81L145.208 175.815ZM141.931 175.212L142.727 174.824C142.648 174.754 141.985 174.097 141.886 174.007L141.931 175.217V175.212Z" fill="#F7F8F8"/>
<path d="M145.018 171.73L145.536 172.831C145.79 172.671 146.059 172.517 146.407 172.348C146.656 172.223 146.801 172.154 147.159 172.004C147.06 171.82 146.761 171.232 146.671 171.048L147.617 170.565C147.876 170.869 148.32 171.84 148.798 172.816C148.952 173.13 149.171 173.608 149.221 173.797L148.245 174.275C148.061 173.902 147.857 173.414 147.647 172.98C147.433 173.065 147.244 173.155 147.085 173.234C146.681 173.428 146.348 173.628 146.034 173.847C146.333 174.454 146.686 175.072 146.741 175.177L145.775 175.694C145.546 175.406 145.157 174.564 144.789 173.812C144.555 173.349 144.176 172.537 144.022 172.223L145.023 171.735L145.018 171.73Z" fill="#F7F8F8"/>
<path d="M149.57 169.504L150.088 170.604C150.342 170.445 150.611 170.296 150.96 170.121C151.209 170.002 151.353 169.932 151.712 169.778C151.612 169.594 151.313 169.006 151.223 168.822L152.175 168.333C152.434 168.637 152.877 169.608 153.35 170.585C153.504 170.898 153.724 171.376 153.773 171.566L152.797 172.044C152.613 171.665 152.409 171.182 152.2 170.749C151.985 170.834 151.796 170.923 151.637 171.003C151.233 171.202 150.9 171.396 150.586 171.615C150.885 172.223 151.238 172.841 151.293 172.945L150.327 173.463C150.098 173.174 149.709 172.333 149.341 171.581C149.107 171.117 148.728 170.306 148.574 169.992L149.575 169.504H149.57Z" fill="#F7F8F8"/>
<path d="M158.425 169.36L157.623 170.082C157.379 169.789 157.065 169.445 156.731 169.141C156.278 169.35 155.641 169.629 155.242 169.858C155.207 170.242 155.262 170.849 155.352 171.123L154.246 171.352C154.042 170.546 154.077 169.669 154.097 168.887C154.107 168.205 154.092 167.557 154.196 166.955C154.256 166.646 154.356 166.512 154.565 166.412C154.759 166.317 155.003 166.307 155.202 166.447C156.134 167.059 157.847 168.703 158.435 169.36H158.425ZM155.148 168.753L155.944 168.364C155.865 168.294 155.202 167.642 155.103 167.547L155.148 168.753Z" fill="#F7F8F8"/>
<path d="M157.908 167.841C157.316 166.621 157.639 164.913 158.979 164.534C159.816 164.29 160.822 164.589 161.275 165.466C161.743 166.422 161.728 168.115 160.518 168.708C159.482 169.216 158.376 168.797 157.908 167.841ZM160.01 167.722C160.448 167.508 160.488 166.955 160.428 166.511C160.349 165.849 159.88 165.291 159.178 165.635C158.491 165.974 158.74 167.059 158.869 167.318C159.089 167.766 159.547 167.951 160.01 167.727V167.722Z" fill="#F7F8F8"/>
<path d="M162.266 163.304L162.784 164.404C163.038 164.245 163.307 164.096 163.655 163.921C163.904 163.797 164.049 163.727 164.407 163.578C164.308 163.393 164.009 162.806 163.919 162.621L164.865 162.133C165.124 162.437 165.568 163.408 166.046 164.384C166.2 164.698 166.419 165.176 166.469 165.366L165.493 165.844C165.309 165.47 165.104 164.982 164.895 164.549C164.681 164.634 164.492 164.723 164.333 164.803C163.929 165.002 163.595 165.196 163.282 165.415C163.58 166.023 163.934 166.641 163.989 166.745L163.023 167.263C162.794 166.974 162.405 166.133 162.037 165.381C161.803 164.917 161.424 164.106 161.27 163.792L162.271 163.304H162.266Z" fill="#F7F8F8"/>
<path d="M166.816 161.077L167.334 162.178C167.588 162.018 167.857 161.869 168.206 161.695C168.455 161.57 168.599 161.501 168.958 161.351C168.858 161.167 168.559 160.579 168.47 160.395L169.421 159.907C169.68 160.211 170.123 161.182 170.596 162.158C170.751 162.472 170.97 162.95 171.019 163.139L170.043 163.617C169.859 163.239 169.655 162.756 169.446 162.322C169.232 162.407 169.042 162.497 168.883 162.576C168.48 162.775 168.146 162.97 167.832 163.189C168.131 163.796 168.485 164.414 168.539 164.519L167.573 165.037C167.344 164.748 166.956 163.906 166.587 163.154C166.353 162.691 165.974 161.879 165.82 161.565L166.821 161.077H166.816Z" fill="#F7F8F8"/>
<path d="M171.046 161.421C170.448 160.201 170.777 158.493 172.112 158.114C172.948 157.87 173.954 158.169 174.408 159.046C174.876 160.002 174.861 161.695 173.651 162.288C172.615 162.796 171.514 162.377 171.046 161.421ZM173.148 161.302C173.586 161.088 173.626 160.535 173.566 160.087C173.486 159.429 173.018 158.871 172.316 159.21C171.629 159.549 171.878 160.634 172.007 160.893C172.226 161.342 172.684 161.526 173.148 161.302Z" fill="#F7F8F8"/>
<path d="M213.643 142.715C213.394 141.993 213.579 141.166 214.341 140.792C215.058 140.444 215.725 140.528 216.079 141.251C216.532 142.182 216.213 143.113 215.322 143.547C214.619 143.89 213.862 143.362 213.643 142.71V142.715Z" fill="white"/>
<path d="M216.696 141.226C216.447 140.504 216.631 139.677 217.393 139.303C218.11 138.955 218.777 139.039 219.131 139.761C219.584 140.693 219.265 141.624 218.374 142.057C217.672 142.401 216.915 141.873 216.696 141.221V141.226Z" fill="white"/>
<path d="M219.75 139.732C219.501 139.009 219.685 138.183 220.447 137.809C221.164 137.461 221.832 137.545 222.185 138.267C222.639 139.199 222.32 140.13 221.428 140.563C220.726 140.907 219.969 140.379 219.75 139.727V139.732Z" fill="white"/>
<path d="M198.479 134.707C198.061 134.707 197.653 134.473 197.459 134.069L196.433 131.968C196.298 131.694 196.278 131.385 196.378 131.101C196.477 130.812 196.682 130.583 196.956 130.449L203.186 127.406C203.749 127.132 204.431 127.366 204.705 127.929L205.731 130.03C205.865 130.304 205.88 130.613 205.786 130.897C205.686 131.186 205.482 131.415 205.208 131.549L198.978 134.592C198.818 134.672 198.649 134.707 198.479 134.707ZM203.684 127.784C203.589 127.784 203.495 127.804 203.405 127.849L197.175 130.892C197.02 130.967 196.906 131.096 196.851 131.255C196.796 131.415 196.806 131.589 196.881 131.744L197.907 133.845C198.061 134.159 198.445 134.293 198.758 134.139L204.989 131.096C205.143 131.021 205.258 130.892 205.312 130.733C205.367 130.573 205.357 130.399 205.283 130.244L204.257 128.143C204.147 127.919 203.918 127.784 203.684 127.784Z" fill="white"/>
<path d="M203.294 127.646L199.822 129.342C199.382 129.556 199.199 130.087 199.414 130.527L200.441 132.63C200.656 133.07 201.187 133.253 201.627 133.038L205.1 131.342C205.54 131.127 205.722 130.596 205.507 130.156L204.48 128.053C204.265 127.613 203.734 127.431 203.294 127.646Z" fill="white"/>
<path d="M192.869 132.737L191.728 133.294C191.466 133.422 191.357 133.738 191.485 134L192.827 136.748C192.955 137.01 193.271 137.119 193.533 136.991L194.674 136.434C194.936 136.306 195.045 135.99 194.917 135.728L193.575 132.98C193.447 132.718 193.131 132.609 192.869 132.737Z" fill="white"/>
<path d="M190.653 134.409L189.512 134.967C189.25 135.095 189.141 135.411 189.269 135.673L190.379 137.946C190.507 138.208 190.823 138.317 191.085 138.189L192.227 137.631C192.489 137.503 192.597 137.187 192.469 136.925L191.359 134.652C191.231 134.39 190.915 134.281 190.653 134.409Z" fill="white"/>
<path d="M188.76 136.739L187.619 137.296C187.357 137.424 187.248 137.74 187.376 138.002L187.934 139.143C188.061 139.405 188.378 139.514 188.64 139.386L189.781 138.829C190.043 138.701 190.151 138.385 190.023 138.123L189.466 136.982C189.338 136.72 189.022 136.611 188.76 136.739Z" fill="white"/>
<path d="M196.325 132.198L196.719 132.006L197.622 133.854L197.228 134.046C197.013 134.151 196.753 134.062 196.648 133.847L196.128 132.782C196.023 132.567 196.113 132.307 196.327 132.202L196.325 132.198Z" fill="white"/>
<path d="M188.96 266.186C188.098 266.186 187.112 265.892 186.191 265.339C185.305 264.811 184.582 264.109 184.159 263.357C183.686 262.52 183.636 261.718 184.005 261.091C184.498 260.264 185.608 259.955 186.978 260.259C187.257 260.324 187.561 260.174 187.685 259.915C188.283 258.645 189.209 257.958 190.165 258.078C191.575 258.252 192.456 260.159 192.172 262.411C191.993 263.83 191.395 265.055 190.569 265.688L190.489 265.742C190.409 265.797 190.354 265.837 190.295 265.867C190.275 265.882 190.24 265.897 190.21 265.912L189.931 265.493L190.155 265.942C190.125 265.956 190.101 265.971 190.071 265.981C190.006 266.011 189.941 266.031 189.876 266.051C189.837 266.066 189.802 266.076 189.772 266.081C189.518 266.146 189.244 266.181 188.96 266.181V266.186ZM189.901 264.945L190.26 265.299L189.951 264.911C190.579 264.433 191.047 263.431 191.191 262.291C191.415 260.508 190.768 259.158 190.051 259.069C189.558 259.009 188.99 259.507 188.591 260.344C188.268 261.026 187.506 261.4 186.764 261.235C185.862 261.036 185.115 261.175 184.866 261.604C184.687 261.908 184.747 262.366 185.031 262.869C185.369 263.466 185.962 264.039 186.704 264.482C187.69 265.07 188.766 265.319 189.513 265.125L189.563 265.11C189.627 265.09 189.657 265.08 189.692 265.065L189.812 265.005C189.851 264.985 189.876 264.965 189.906 264.945H189.901Z" fill="white"/>
<path d="M198.024 262.167C196.49 262.167 195.011 261.31 194.294 259.841C193.806 258.845 193.736 257.719 194.1 256.673C194.458 255.628 195.206 254.781 196.202 254.298C197.198 253.81 198.323 253.745 199.369 254.104C200.415 254.462 201.262 255.209 201.745 256.205C202.128 256.992 202.253 257.879 202.098 258.735L203.144 259.238C203.328 259.328 203.443 259.522 203.423 259.726C203.408 259.931 203.264 260.105 203.064 260.165L201.162 260.722C200.788 261.156 200.345 261.504 199.837 261.753C199.254 262.037 198.632 262.172 198.024 262.172V262.167ZM198.019 254.871C197.546 254.871 197.078 254.98 196.64 255.189C195.081 255.951 194.429 257.844 195.191 259.403C195.953 260.961 197.84 261.614 199.404 260.852C199.827 260.648 200.191 260.349 200.49 259.975C200.554 259.896 200.639 259.836 200.739 259.806L201.545 259.572L201.316 259.462C201.097 259.358 200.988 259.109 201.052 258.88C201.262 258.133 201.192 257.336 200.853 256.644C200.485 255.887 199.842 255.319 199.045 255.045C198.712 254.93 198.363 254.871 198.019 254.871Z" fill="white"/>
<path d="M210.191 256.589C210.111 256.589 210.031 256.569 209.957 256.529L206.859 254.876L203.497 255.339C203.293 255.369 203.099 255.269 202.994 255.09C202.89 254.911 202.91 254.691 203.039 254.532L207.586 248.83C207.701 248.685 207.885 248.62 208.064 248.65C208.243 248.685 208.393 248.815 208.448 248.989L210.664 255.936C210.724 256.131 210.664 256.34 210.51 256.469C210.42 256.544 210.305 256.584 210.191 256.584V256.589ZM206.954 253.86C207.033 253.86 207.118 253.88 207.188 253.919L209.344 255.075L207.785 250.184L204.598 254.183L206.889 253.87C206.889 253.87 206.934 253.87 206.959 253.87L206.954 253.86Z" fill="white"/>
<path d="M207.484 249.041L206.462 254.256L207.439 254.447L208.462 249.233L207.484 249.041Z" fill="white"/>
<path d="M236.031 219.913L240.125 201.959L238.302 201.541L238.257 201.735L224.267 185.828L222.863 187.063L235.906 201.894L219.715 199.185L219.407 201.028L220.039 201.132L218.799 202.223L232.993 218.364L234.397 217.129L220.383 201.187L237.575 204.061L237.834 202.512L238.142 202.243L234.532 218.065L212.524 226.751L214.885 202.357L215.293 202.427L215.602 200.584L201.438 198.214L220.492 187.113L215.422 203.573L217.21 204.125L222.629 186.525L221.538 186.186L220.677 184.707L200.357 196.55L210.123 175.857L208.43 175.061L197.787 197.611L197.434 197.551L197.225 198.801L196.712 199.882L197.508 200.261L197.06 200.121L196.622 201.536L194.231 201.516L195.282 200.689L183.992 186.356L206.966 177.292L206.279 175.554L180.745 185.629L181.432 187.367L183.439 186.575L182.418 187.382L182.911 188.004L181.582 187.78L178.544 205.943L180.386 206.252L180.705 204.359L191.681 216.84L192 216.561L191.642 217.721L192.558 218.005L190.446 239.809L192.309 239.988L192.419 238.863L192.533 239.057L208.445 229.784L208.246 229.44L209.207 228.23L194.809 216.745L194.53 217.099L194.869 213.608L198.853 200.669L198.47 200.55L198.878 199.683L213.46 202.123L213.032 202.083L212.902 203.428L212.723 203.119L196.811 212.393L197.752 214.006L212.723 205.281L210.572 227.523L209.785 227.836L210.392 229.38V229.405H210.402L210.467 229.574L210.796 229.445L212.25 229.584L212.32 228.842L235.353 219.753L236.031 219.908V219.913ZM183.35 188.557L193.554 201.516L181.198 201.416L183.35 188.557ZM182.264 203.299L196.054 203.408L193.255 212.507L193.101 212.492L193.026 213.249L192.503 214.947L182.264 203.304V203.299ZM206.712 228.633L192.618 236.846L194.366 218.787L206.712 228.633Z" fill="white"/>
<path d="M209.949 172.396L208.781 173.86L223.181 185.343L224.348 183.879L209.949 172.396Z" fill="white"/>
<path d="M162.572 183.852L162.262 185.699L180.427 188.739L180.736 186.892L162.572 183.852Z" fill="white"/>
<path d="M188.373 188.277C188.541 185.86 185.381 183.671 181.314 183.389C177.248 183.107 173.815 184.838 173.647 187.255C173.48 189.673 176.64 191.861 180.707 192.143C184.773 192.425 188.206 190.695 188.373 188.277Z" fill="#00DB5A"/>
<path d="M166.377 188.647C169.899 186.595 171.765 183.234 170.545 181.14C169.325 179.047 165.481 179.013 161.959 181.065C158.437 183.118 156.571 186.479 157.791 188.572C159.011 190.666 162.855 190.7 166.377 188.647Z" fill="#00DB5A"/>
<path d="M195.899 241.678C199.249 239.355 200.845 235.858 199.464 233.867C198.083 231.876 194.248 232.144 190.898 234.467C187.549 236.79 185.953 240.287 187.334 242.279C188.714 244.27 192.549 244.001 195.899 241.678Z" fill="#00DB5A"/>
<path d="M238.384 221.609C242.047 219.82 244.154 216.604 243.09 214.427C242.027 212.25 238.196 211.935 234.533 213.723C230.87 215.512 228.763 218.728 229.826 220.905C230.89 223.082 234.721 223.397 238.384 221.609Z" fill="#00DB5A"/>
<path d="M219.727 204.487C222.929 201.965 224.31 198.377 222.811 196.473C221.312 194.569 217.5 195.071 214.298 197.592C211.095 200.114 209.715 203.702 211.214 205.606C212.713 207.51 216.524 207.009 219.727 204.487Z" fill="#00DB5A"/>
<path d="M198.426 204.343C201.488 203.135 203.25 200.328 202.361 198.074C201.472 195.82 198.268 194.972 195.205 196.18C192.143 197.389 190.381 200.195 191.27 202.45C192.159 204.704 195.363 205.552 198.426 204.343Z" fill="#00DB5A"/>
<path d="M225.078 188.94C228.14 187.731 229.902 184.924 229.013 182.67C228.124 180.416 224.92 179.568 221.857 180.777C218.795 181.985 217.033 184.792 217.922 187.046C218.812 189.3 222.015 190.148 225.078 188.94Z" fill="#00DB5A"/>
<path d="M213.745 178.246C216.947 175.724 218.328 172.136 216.829 170.232C215.33 168.329 211.518 168.83 208.316 171.352C205.113 173.874 203.732 177.461 205.232 179.365C206.731 181.269 210.542 180.768 213.745 178.246Z" fill="#A53EFF"/>
<path d="M182.187 206.124C184.54 204.271 185.431 201.478 184.177 199.885C182.923 198.292 179.999 198.504 177.645 200.357C175.292 202.21 174.401 205.003 175.655 206.596C176.91 208.189 179.834 207.977 182.187 206.124Z" fill="#A53EFF"/>
<path d="M211.645 232.696C215.606 231.732 218.352 229.042 217.779 226.687C217.206 224.333 213.53 223.206 209.57 224.17C205.609 225.134 202.863 227.824 203.436 230.178C204.009 232.533 207.685 233.66 211.645 232.696Z" fill="#A53EFF"/>
<path d="M241.13 205.876C244.333 203.354 245.714 199.766 244.214 197.862C242.715 195.958 238.904 196.46 235.701 198.982C232.499 201.503 231.118 205.091 232.617 206.995C234.116 208.899 237.928 208.398 241.13 205.876Z" fill="#A53EFF"/>
<path d="M197.079 218.373C199.8 216.231 200.79 212.951 199.291 211.047C197.792 209.143 194.371 209.337 191.65 211.479C188.93 213.622 187.94 216.902 189.439 218.805C190.938 220.709 194.359 220.516 197.079 218.373Z" fill="#A53EFF"/>
<path d="M120.265 187.761L119.136 187.552C115.12 186.803 111.259 189.452 110.511 193.464L107.057 211.969L105.514 211.68L108.968 193.176C109.717 189.159 107.068 185.299 103.056 184.55L101.927 184.337C97.911 183.589 94.0504 186.237 93.3019 190.25L89.8479 208.754L88.3052 208.466L91.7592 189.961C92.5077 185.945 89.8593 182.084 85.8468 181.336L84.7183 181.127C80.7019 180.378 76.8414 183.026 76.0929 187.039L70.6364 216.286L66.2287 208.773C63.9793 204.989 59.089 203.746 55.3045 205.996L54.1304 206.695C50.3458 208.944 49.1033 213.835 51.3527 217.619L67.2091 244.639C67.3003 244.795 67.4712 244.875 67.6422 244.86C68.9417 247.949 71.3964 250.495 74.5692 251.863V268.361H106.601V257.144C111.647 256.065 115.8 252.056 116.803 246.668L120.037 229.33L126.185 196.386C126.933 192.37 124.285 188.509 120.272 187.761H120.265Z" fill="#EF9D0C"/>
<path d="M111.058 225.872C111.024 225.872 110.986 225.872 110.952 225.861L79.7904 220.002C79.4826 219.945 79.2775 219.644 79.3345 219.337C79.3915 219.029 79.6878 218.824 79.9994 218.881L111.161 224.74C111.469 224.797 111.674 225.097 111.617 225.405C111.564 225.678 111.324 225.868 111.058 225.868V225.872Z" fill="#BC7B13"/>
<path d="M110.036 231.337C110.002 231.337 109.964 231.337 109.93 231.325L78.768 225.466C78.4602 225.409 78.255 225.109 78.312 224.801C78.369 224.493 78.6654 224.288 78.977 224.345L110.139 230.204C110.446 230.261 110.652 230.561 110.595 230.869C110.541 231.143 110.302 231.333 110.036 231.333V231.337Z" fill="#BC7B13"/>
<path d="M86.4165 235.816C86.2645 235.816 86.1126 235.755 86.0024 235.637L72.1409 220.925C71.9243 220.697 71.9357 220.336 72.1637 220.119C72.3917 219.903 72.7527 219.914 72.9693 220.142L86.8307 234.855C87.0473 235.083 87.0359 235.444 86.8079 235.66C86.6977 235.763 86.5571 235.816 86.4165 235.816Z" fill="#BC7B13"/>
<path d="M92.1485 181.942H90.9972C86.9124 181.942 83.6029 185.252 83.6029 189.336V209.049H82.0336V189.336C82.0336 185.252 78.724 181.942 74.6393 181.942H73.488C69.4032 181.942 66.0937 185.252 66.0937 189.336V209.049H64.5244V189.336C64.5244 185.252 61.2148 181.942 57.1301 181.942H55.9788C51.894 181.942 48.5845 185.252 48.5845 189.336V220.456L43.1964 214.255C40.2896 210.949 35.255 210.622 31.9492 213.525L30.9233 214.43C27.6175 217.337 27.2907 222.371 30.1937 225.677L49.6028 248.023C51.0657 251.793 54.2043 254.718 58.1104 255.889V268.356H90.1422V255.889C95.5759 254.262 99.539 249.224 99.539 243.258V189.333C99.539 185.248 96.2294 181.938 92.1447 181.938L92.1485 181.942Z" fill="#FFD200"/>
<path d="M91.2675 183.796H91.8868C94.9494 183.796 97.4345 186.281 97.4345 189.344V191.563C97.4345 192.482 96.6859 193.231 95.7664 193.231H87.3841C86.4646 193.231 85.7161 192.482 85.7161 191.563V189.344C85.7161 186.281 88.2011 183.796 91.2637 183.796H91.2675Z" fill="#FC7621"/>
<path d="M73.8227 183.796H74.442C77.5046 183.796 79.9896 186.281 79.9896 189.344V191.563C79.9896 192.482 79.2411 193.231 78.3216 193.231H69.9393C69.0198 193.231 68.2712 192.482 68.2712 191.563V189.344C68.2712 186.281 70.7563 183.796 73.8189 183.796H73.8227Z" fill="#FC7621"/>
<path d="M56.2533 183.796H56.8727C59.9353 183.796 62.4203 186.281 62.4203 189.344V191.563C62.4203 192.482 61.6718 193.231 60.7522 193.231H52.37C51.4505 193.231 50.7019 192.482 50.7019 191.563V189.344C50.7019 186.281 53.1869 183.796 56.2495 183.796H56.2533Z" fill="#FC7621"/>
<path d="M32.1677 216.026L33.3866 214.955C35.6875 212.934 39.1945 213.161 41.2158 215.462L43.2146 217.737C43.8215 218.427 43.7531 219.484 43.0623 220.091L36.0143 226.283C35.3235 226.889 34.2671 226.821 33.6602 226.13L31.6614 223.855C29.6401 221.554 29.8669 218.047 32.1677 216.026Z" fill="#FC7621"/>
<path d="M60.8039 204.208H52.0607C51.7453 204.208 51.4907 203.954 51.4907 203.638C51.4907 203.323 51.7453 203.068 52.0607 203.068H60.8039C61.1193 203.068 61.3738 203.323 61.3738 203.638C61.3738 203.954 61.1193 204.208 60.8039 204.208Z" fill="#FC7621"/>
<path d="M60.8039 202.092H52.0607C51.7453 202.092 51.4907 201.837 51.4907 201.522C51.4907 201.206 51.7453 200.952 52.0607 200.952H60.8039C61.1193 200.952 61.3738 201.206 61.3738 201.522C61.3738 201.837 61.1193 202.092 60.8039 202.092Z" fill="#FC7621"/>
<path d="M60.8039 199.979H52.0607C51.7453 199.979 51.4907 199.724 51.4907 199.409C51.4907 199.093 51.7453 198.839 52.0607 198.839H60.8039C61.1193 198.839 61.3738 199.093 61.3738 199.409C61.3738 199.724 61.1193 199.979 60.8039 199.979Z" fill="#FC7621"/>
<path d="M78.5036 204.208H69.7604C69.445 204.208 69.1904 203.954 69.1904 203.638C69.1904 203.323 69.445 203.068 69.7604 203.068H78.5036C78.819 203.068 79.0735 203.323 79.0735 203.638C79.0735 203.954 78.819 204.208 78.5036 204.208Z" fill="#FC7621"/>
<path d="M78.5036 202.092H69.7604C69.445 202.092 69.1904 201.837 69.1904 201.522C69.1904 201.206 69.445 200.952 69.7604 200.952H78.5036C78.819 200.952 79.0735 201.206 79.0735 201.522C79.0735 201.837 78.819 202.092 78.5036 202.092Z" fill="#FC7621"/>
<path d="M78.5036 199.979H69.7604C69.445 199.979 69.1904 199.724 69.1904 199.409C69.1904 199.093 69.445 198.839 69.7604 198.839H78.5036C78.819 198.839 79.0735 199.093 79.0735 199.409C79.0735 199.724 78.819 199.979 78.5036 199.979Z" fill="#FC7621"/>
<path d="M95.9509 204.208H87.2077C86.8923 204.208 86.6377 203.954 86.6377 203.638C86.6377 203.323 86.8923 203.068 87.2077 203.068H95.9509C96.2662 203.068 96.5208 203.323 96.5208 203.638C96.5208 203.954 96.2662 204.208 95.9509 204.208Z" fill="#FC7621"/>
<path d="M95.9509 202.092H87.2077C86.8923 202.092 86.6377 201.837 86.6377 201.522C86.6377 201.206 86.8923 200.952 87.2077 200.952H95.9509C96.2662 200.952 96.5208 201.206 96.5208 201.522C96.5208 201.837 96.2662 202.092 95.9509 202.092Z" fill="#FC7621"/>
<path d="M95.9509 199.979H87.2077C86.8923 199.979 86.6377 199.724 86.6377 199.409C86.6377 199.093 86.8923 198.839 87.2077 198.839H95.9509C96.2662 198.839 96.5208 199.093 96.5208 199.409C96.5208 199.724 96.2662 199.979 95.9509 199.979Z" fill="#FC7621"/>
<path d="M42.0255 232.793C41.8659 232.793 41.7101 232.729 41.5961 232.6C41.3871 232.364 41.4099 232.003 41.6493 231.794L48.2191 226.022C48.4546 225.813 48.8156 225.84 49.0246 226.076C49.2336 226.311 49.2108 226.672 48.9714 226.881L42.4017 232.653C42.2915 232.748 42.1585 232.793 42.0255 232.793Z" fill="#FC7621"/>
<path d="M40.63 231.205C40.4704 231.205 40.3146 231.141 40.2006 231.012C39.9916 230.776 40.0144 230.415 40.2538 230.206L46.8236 224.434C47.0591 224.225 47.4201 224.252 47.6291 224.487C47.8381 224.723 47.8153 225.084 47.5759 225.293L41.0062 231.065C40.896 231.16 40.763 231.205 40.63 231.205Z" fill="#FC7621"/>
<path d="M39.232 229.617C39.0724 229.617 38.9167 229.553 38.8027 229.423C38.5937 229.188 38.6165 228.827 38.8559 228.618L45.4256 222.846C45.6612 222.637 46.0222 222.664 46.2311 222.899C46.4401 223.135 46.4173 223.496 46.178 223.705L39.6082 229.477C39.498 229.572 39.365 229.617 39.232 229.617Z" fill="#FC7621"/>
<path d="M77.7211 227.476C79.8826 227.476 81.6348 225.724 81.6348 223.562C81.6348 221.401 79.8826 219.648 77.7211 219.648C75.5596 219.648 73.8074 221.401 73.8074 223.562C73.8074 225.724 75.5596 227.476 77.7211 227.476Z" fill="#020202"/>
<path d="M65.694 227.476C67.8555 227.476 69.6077 225.724 69.6077 223.562C69.6077 221.401 67.8555 219.648 65.694 219.648C63.5325 219.648 61.7803 221.401 61.7803 223.562C61.7803 225.724 63.5325 227.476 65.694 227.476Z" fill="#020202"/>
<path d="M74.0691 244.058C67.7844 244.058 62.3659 239.661 61.4654 233.833C61.3704 233.217 61.549 232.586 61.9594 232.108C62.3773 231.621 62.9853 231.34 63.6274 231.34H84.5108C85.153 231.34 85.7609 231.621 86.1789 232.108C86.5893 232.586 86.7679 233.213 86.6729 233.829C85.7723 239.658 80.3539 244.054 74.0691 244.054V244.058ZM63.6274 232.86C63.4299 232.86 63.2437 232.947 63.1145 233.095C63.0423 233.179 62.9283 233.354 62.9663 233.597C63.7528 238.692 68.5253 242.534 74.0691 242.534C79.6129 242.534 84.3854 238.692 85.172 233.597C85.21 233.354 85.096 233.179 85.0238 233.095C84.8946 232.943 84.7084 232.86 84.5108 232.86H63.6274Z" fill="black"/>
<path d="M71.8887 223.631H71.7177C70.8741 223.631 70.1902 224.315 70.1902 225.158V227.753C70.1902 228.597 70.8741 229.281 71.7177 229.281H71.8887C72.7323 229.281 73.4162 228.597 73.4162 227.753V225.158C73.4162 224.315 72.7323 223.631 71.8887 223.631Z" fill="#FC7621"/>
<path d="M279.876 113.249C282.234 108.27 283.755 100.008 278.153 96.8584C274.566 94.837 270.528 96.9103 267.285 99.6335C267.935 95.451 267.612 90.9296 264.025 88.9082C259.07 86.1172 254.027 90.3076 250.631 94.0635C249.881 94.8968 247.304 99.0832 246.801 100.088C240.964 111.738 236.811 127.121 248.198 133.532C259.9 140.119 274.131 122.767 278.085 116.587C278.181 116.435 279.841 113.321 279.872 113.253L279.876 113.249Z" fill="#FF333C"/>
<path d="M215.561 74.7339H254.76L200.62 21.6592V59.7931C200.62 68.0454 207.308 74.7339 215.561 74.7339Z" fill="#D3D3D3"/>
<path d="M21.3802 166.78C21.3802 166.78 21.3802 166.775 21.3852 166.77C20.8174 167.415 21.2258 166.998 21.3802 166.78Z" fill="#FF0AD1"/>
<path d="M18.9692 149.384C18.9692 149.384 18.9642 149.384 18.9592 149.379C19.5951 149.935 19.1828 149.538 18.9692 149.384Z" fill="#FF0AD1"/>
<path d="M36.5741 134.93C36.5343 134.99 36.4646 135.099 36.355 135.273C36.355 135.273 36.36 135.268 36.3649 135.263C36.4347 135.149 36.5044 135.039 36.5741 134.93Z" fill="#FF0AD1"/>
<path d="M161.631 265.407C161.267 264.844 160.666 264.241 159.968 264.138C156.185 263.579 152.388 263.159 148.579 262.872C148.657 262.813 148.731 262.751 148.805 262.692C148.935 262.589 149.771 261.963 149.091 262.471C149.306 262.313 149.518 262.147 149.73 261.985C150.179 261.643 150.632 261.305 151.085 260.966C153.171 259.406 155.257 257.846 157.343 256.286C157.945 255.837 158.416 255.388 158.624 254.637C158.806 253.975 158.724 253.096 158.342 252.51C157.96 251.922 157.388 251.403 156.679 251.241C156 251.086 155.116 251.083 154.533 251.521C151.211 254.008 147.851 256.455 144.585 259.02C144.57 257.342 144.544 255.664 144.503 253.986C144.432 251.245 144.325 248.5 144.184 245.762C144.109 244.323 142.955 242.933 141.399 243.003C139.955 243.065 138.534 244.217 138.615 245.762C138.834 250.027 138.964 254.299 139.013 258.567C138.374 257.78 137.736 256.988 137.101 256.194C136.291 255.182 135.49 254.163 134.691 253.143C134.699 253.151 134.706 253.162 134.706 253.165C134.699 253.154 134.691 253.147 134.684 253.136C134.654 253.099 134.625 253.059 134.595 253.022C134.354 252.717 134.565 252.978 134.662 253.107C134.562 252.959 134.435 252.82 134.328 252.68C134.131 252.426 133.934 252.172 133.737 251.914C133.307 251.359 132.88 250.799 132.453 250.244C131.996 249.648 131.547 249.184 130.79 248.974C130.122 248.794 129.235 248.875 128.644 249.254C128.05 249.633 127.527 250.2 127.364 250.903C127.208 251.576 127.204 252.452 127.646 253.029C130.077 256.216 132.557 259.362 135.085 262.475C134.472 262.486 133.86 262.489 133.247 262.508C130.757 262.581 128.269 262.721 125.786 262.92C125.036 262.979 124.364 263.188 123.818 263.729C123.336 264.208 122.972 264.995 123.002 265.68C123.065 267.074 124.23 268.564 125.786 268.439C128.637 268.211 131.495 268.068 134.354 268.005C134.094 268.259 133.83 268.509 133.574 268.767C131.866 270.485 130.215 272.255 128.615 274.076C128.125 274.636 127.798 275.268 127.798 276.026C127.798 276.703 128.102 277.513 128.615 277.977C129.661 278.93 131.532 279.139 132.553 277.977C134.576 275.673 136.692 273.451 138.89 271.313C138.853 272.549 138.808 273.782 138.756 275.018C138.641 277.759 138.489 280.501 138.3 283.238C138.2 284.681 139.651 286.061 141.084 285.998C142.676 285.928 143.764 284.784 143.868 283.238C144.091 279.997 144.258 276.751 144.377 273.502C144.974 274.187 145.572 274.867 146.177 275.544C147.966 277.557 149.782 279.551 151.615 281.527C152.603 282.594 154.563 282.594 155.554 281.527C156.608 280.387 156.608 278.76 155.554 277.623C152.703 274.551 149.908 271.431 147.161 268.27C148.167 268.336 149.173 268.41 150.175 268.498C152.373 268.686 154.57 268.929 156.757 269.216C157.332 269.293 157.908 269.374 158.483 269.458C159.252 269.572 159.931 269.587 160.629 269.179C161.208 268.844 161.757 268.189 161.909 267.53C162.073 266.824 162.036 266.029 161.627 265.404L161.631 265.407Z" fill="#FF0AD1"/>
<path d="M140.835 249.879C140.835 249.879 140.815 249.85 140.795 249.831C140.805 249.845 140.815 249.855 140.825 249.87C140.825 249.87 140.83 249.874 140.835 249.879Z" fill="#FF0AD1"/>
<path d="M253.5 111C254.881 111 256 109.657 256 108C256 106.343 254.881 105 253.5 105C252.119 105 251 106.343 251 108C251 109.657 252.119 111 253.5 111Z" fill="#020202"/>
<path d="M262.5 111C263.881 111 265 109.657 265 108C265 106.343 263.881 105 262.5 105C261.119 105 260 106.343 260 108C260 109.657 261.119 111 262.5 111Z" fill="#020202"/>
<path d="M257 129C253.692 129 251 125.186 251 120.5C251 115.814 253.692 112 257 112C260.308 112 263 115.814 263 120.5C263 125.186 260.308 129 257 129ZM257 113.538C254.593 113.538 252.56 116.725 252.56 120.5C252.56 124.275 254.593 127.462 257 127.462C259.407 127.462 261.44 124.275 261.44 120.5C261.44 116.725 259.407 113.538 257 113.538Z" fill="black"/>
</g>
<defs>
<clipPath id="clip0_26822_2823">
<rect width="300" height="300" fill="white"/>
</clipPath>
</defs>
</svg>
