<svg width="300" height="300" viewBox="0 0 300 300" fill="none" xmlns="http://www.w3.org/2000/svg">
<g clip-path="url(#clip0_26822_2824)">
<path d="M270.411 215.133V243.674L239.142 274.522H154.3C146.37 274.522 139.943 268.095 139.943 260.165V215.133C139.943 207.204 146.37 200.777 154.3 200.777H256.059C263.989 200.777 270.416 207.204 270.416 215.133H270.411Z" fill="#010007"/>
<path d="M99.7926 30.4503L39.0403 91.1547V220.986C39.0403 228.916 45.4672 235.343 53.3969 235.343H229.581C237.51 235.343 243.937 228.916 243.937 220.986V44.8068C243.937 36.8772 237.51 30.4503 229.581 30.4503H99.7926Z" fill="#010007"/>
<path d="M205.754 98.9742L187.354 91.6811C184.86 90.6905 183.827 87.5081 185.214 85.0723L194.972 67.897C196.901 64.5041 194.12 60.288 190.493 61.1063L168.312 66.1024C165.163 66.8107 162.459 63.6427 163.402 60.3407L167.599 45.673C168.719 41.7632 164.814 38.3942 161.488 40.3946L148.409 48.262C146.509 49.4057 144.112 48.8171 142.867 46.9029L135.766 35.9775C133.732 32.8478 129.219 33.6518 128.228 37.3175L123.969 53.0906C123.232 55.8135 120.375 57.1583 118.011 55.8901L110.536 51.8894C107.344 50.181 103.731 53.215 104.516 56.9429L107.019 68.878C107.612 71.7111 105.602 74.4053 102.889 74.4101L84.9528 74.4197C81.0622 74.4197 79.2293 79.5833 82.1437 82.3493L96.9597 96.4188C99.1036 98.4526 98.7734 102.137 96.3137 103.707L87.1254 109.565C83.8617 111.646 84.6083 116.925 88.2979 117.868L103.707 121.806C105.851 122.352 107.263 124.577 106.904 126.903C106.129 131.942 103.621 139.79 101.592 145.647C100.429 149.002 103.19 152.405 106.459 151.644L123.055 147.767C125.467 147.203 127.812 148.964 128.142 151.582L130.487 170.063C130.961 173.782 135.225 175.332 137.675 172.647C141.259 168.723 144.738 162.397 146.964 157.932C148.256 155.338 151.476 154.735 153.515 156.697L167.508 170.149C170.092 172.638 174.222 170.901 174.547 167.192L175.921 151.481C176.127 149.15 177.95 147.365 180.137 147.365L200.944 147.356C204.428 147.356 206.424 143.087 204.333 140.101L190.282 120.021C188.598 117.614 189.531 114.144 192.158 113.068L205.811 107.459C209.458 105.961 209.429 100.424 205.773 98.9742H205.754ZM180.74 106.885L171.906 110.512C170.207 111.211 169.604 113.455 170.695 115.011L179.783 128.003C181.137 129.937 179.845 132.693 177.591 132.698L164.129 132.707C162.718 132.707 161.536 133.861 161.402 135.368L160.516 145.533C160.306 147.93 157.635 149.055 155.96 147.447L146.911 138.742C145.59 137.474 143.509 137.861 142.671 139.541C141.231 142.432 138.981 146.523 136.66 149.06C135.076 150.797 132.315 149.792 132.009 147.385L130.492 135.43C130.277 133.736 128.76 132.597 127.199 132.961L116.466 135.469C114.355 135.962 112.565 133.76 113.317 131.588C114.628 127.797 116.25 122.72 116.753 119.461C116.987 117.954 116.073 116.518 114.685 116.164L104.717 113.613C102.329 113.001 101.846 109.589 103.956 108.239L109.9 104.449C111.493 103.434 111.704 101.051 110.321 99.7351L100.735 90.6331C98.85 88.8433 100.037 85.5078 102.554 85.503H114.159C115.91 85.4934 117.217 83.7515 116.829 81.9186L115.212 74.1996C114.704 71.7876 117.045 69.8256 119.107 70.931L123.945 73.52C125.477 74.3383 127.324 73.4722 127.798 71.7111L130.554 61.5083C131.195 59.1395 134.115 58.6179 135.431 60.6421L140.025 67.7104C140.829 68.9498 142.379 69.3279 143.609 68.5909L152.07 63.5039C154.223 62.207 156.745 64.3892 156.023 66.916L153.309 76.4057C152.697 78.54 154.448 80.593 156.487 80.1336L170.834 76.9034C173.179 76.377 174.978 79.1047 173.729 81.2965L167.417 92.4037C166.522 93.9781 167.187 96.0359 168.8 96.6772L180.702 101.396C183.071 102.334 183.085 105.913 180.726 106.885H180.74Z" fill="#FFE240"/>
<path d="M180.716 101.396L168.814 96.6772C167.202 96.036 166.532 93.9782 167.431 92.4037L173.743 81.2965C174.992 79.1048 173.193 76.377 170.848 76.9034L156.501 80.1336C154.463 80.5931 152.716 78.5401 153.324 76.4057L156.037 66.916C156.76 64.3845 154.238 62.2071 152.084 63.5039L143.623 68.591C142.393 69.3279 140.843 68.9499 140.039 67.7104L135.445 60.6422C134.129 58.6179 131.21 59.1347 130.568 61.5084L127.812 71.7111C127.338 73.4722 125.486 74.3432 123.96 73.52L119.121 70.9311C117.059 69.8256 114.719 71.7877 115.226 74.1996L116.843 81.9186C117.226 83.7515 115.925 85.4934 114.173 85.4982H102.568C100.051 85.5078 98.869 88.8433 100.75 90.6331L110.335 99.7352C111.723 101.051 111.508 103.434 109.914 104.449L103.97 108.239C101.86 109.584 102.339 113.001 104.731 113.613L114.7 116.164C116.087 116.518 116.997 117.954 116.767 119.461C116.264 122.72 114.642 127.798 113.331 131.588C112.58 133.76 114.365 135.962 116.48 135.469L127.214 132.961C128.774 132.597 130.291 133.736 130.506 135.43L132.023 147.385C132.329 149.792 135.086 150.792 136.675 149.06C138.991 146.519 141.245 142.427 142.685 139.541C143.523 137.861 145.605 137.474 146.925 138.742L155.975 147.447C157.65 149.055 160.32 147.935 160.531 145.533L161.416 135.368C161.55 133.861 162.727 132.707 164.144 132.707L177.605 132.698C179.859 132.698 181.151 129.937 179.797 128.003L170.709 115.011C169.618 113.455 170.226 111.211 171.92 110.512L180.754 106.885C183.113 105.918 183.094 102.334 180.73 101.396H180.716Z" fill="#FF7140"/>
<path d="M77.181 178.768L66.6624 187.54C65.2363 188.727 62.9632 188.306 61.9391 186.655L54.7273 175.045C53.3012 172.753 49.8222 173.049 49.1187 175.519L44.8213 190.655C44.2087 192.804 41.3901 193.398 39.696 191.737L32.1683 184.334C30.1632 182.362 26.8229 183.616 26.9378 186.305L27.3924 196.857C27.4594 198.389 26.3109 199.652 24.7364 199.777L15.7444 200.48C13.1698 200.681 12.1648 203.691 14.0647 205.505L22.2432 213.31C23.6549 214.655 23.5257 216.837 21.9752 217.856L17.07 221.077C14.9787 222.45 15.6248 225.652 18.1515 226.408L26.2343 228.834C28.1533 229.409 29.1247 231.524 28.2298 233.175L22.3054 244.081C21.0181 246.45 23.5496 249.264 26.196 248.412L39.6481 244.062C41.5958 243.43 43.7254 244.851 43.8642 246.866L44.3858 254.389C44.5724 257.064 48.0276 258.356 49.8222 256.423L57.3115 248.359C58.3548 247.239 60.1685 247.115 61.4653 248.106C64.2697 250.245 68.2129 254.365 71.1034 257.533C72.7592 259.352 75.7406 258.797 76.3579 256.557L79.4924 245.186C79.9471 243.535 81.7895 242.688 83.4931 243.354L95.5 248.039C97.9167 248.981 100.271 246.904 99.4481 244.526C98.2469 241.052 95.5527 236.841 93.5762 234.012C92.4277 232.371 93.1264 230.213 94.9928 229.619L107.799 225.566C110.168 224.814 110.479 221.733 108.33 220.311L99.2327 214.282C97.8832 213.387 97.4047 211.688 98.1225 210.357L104.999 197.704C106.153 195.584 104.214 192.962 101.712 193.244L84.857 195.144C82.8375 195.374 81.0382 193.656 81.2487 191.703L82.3542 181.549C82.6509 178.835 79.2771 177.021 77.1858 178.768H77.181Z" fill="#5BB3FD"/>
<path d="M67.9067 159.195C67.9355 159.214 67.9594 159.234 67.9833 159.253C67.9594 159.234 67.9307 159.219 67.9067 159.195Z" fill="#FFE240"/>
<path d="M68.0169 159.277C68.0169 159.277 67.993 159.262 67.9834 159.253C67.9978 159.262 68.0073 159.267 68.0169 159.277Z" fill="#FFE240"/>
<path d="M68.9644 162.033C69.0314 161.961 69.0983 161.894 69.1653 161.827C69.1749 161.813 69.1797 161.803 69.1893 161.794C69.0601 161.918 68.9835 162 68.9644 162.033Z" fill="#FFE240"/>
<path d="M59.757 160.157C59.757 160.157 59.7761 160.181 59.7857 160.195C59.8336 160.258 59.8862 160.32 59.9388 160.377C59.9628 160.401 59.9867 160.425 60.0106 160.454C59.9723 160.406 59.891 160.31 59.7522 160.148C59.7522 160.148 59.7522 160.152 59.7522 160.157H59.757Z" fill="#FFE240"/>
<path d="M244.024 220.723L227.432 172.719C221.828 156.506 209.539 143.475 193.69 136.933L184.53 133.153C175.332 129.358 168.197 121.792 164.948 112.383L159.105 95.4808C156.63 88.3169 150.883 83.2203 144.121 81.2726C143.934 80.9567 143.767 80.6265 143.647 80.2772L140.929 72.405C140.441 70.9933 138.905 70.2467 137.493 70.7301L128.726 73.7593C127.314 74.2474 126.568 75.7836 127.056 77.1953L128.123 80.2868C128.362 80.9759 128.448 81.6937 128.401 82.402L125.797 83.3017C114.767 87.1157 108.919 99.1561 112.738 110.196L122.323 137.928C123.16 140.355 123.572 142.896 123.567 145.447L109.297 138.268C105.243 136.23 100.3 137.861 98.2613 141.915C96.2227 145.968 97.8545 150.912 101.908 152.95L123.72 163.923C124.074 165.589 124.529 167.235 125.089 168.853L126.008 171.518L102.329 159.602C98.2757 157.563 93.3322 159.195 91.2936 163.249C89.2549 167.302 90.8868 172.245 94.9402 174.284L133.708 193.785L153.793 251.901C155.353 256.409 160.267 258.801 164.771 257.246L238.702 231.696C243.205 230.141 245.593 225.221 244.038 220.713L244.024 220.723Z" fill="#00DB5A"/>
<path d="M133.975 115.322C137.04 114.262 138.665 110.915 137.603 107.845C136.542 104.775 133.197 103.145 130.132 104.205C127.067 105.264 125.443 108.612 126.504 111.682C127.565 114.752 130.91 116.382 133.975 115.322Z" fill="white"/>
<path d="M133.273 113.291C135.219 112.618 136.251 110.494 135.577 108.545C134.903 106.597 132.78 105.563 130.834 106.235C128.888 106.908 127.857 109.033 128.53 110.981C129.204 112.93 131.327 113.964 133.273 113.291Z" fill="#231815"/>
<path d="M130.257 108.512C130.699 108.36 130.933 107.877 130.78 107.435C130.628 106.993 130.145 106.759 129.703 106.911C129.261 107.064 129.026 107.547 129.179 107.989C129.332 108.431 129.815 108.665 130.257 108.512Z" fill="white"/>
<path d="M143.758 111.943C146.823 110.883 148.447 107.536 147.386 104.466C146.325 101.396 142.98 99.7661 139.915 100.826C136.85 101.885 135.225 105.233 136.287 108.303C137.348 111.373 140.693 113.002 143.758 111.943Z" fill="white"/>
<path d="M143.056 109.912C145.002 109.24 146.033 107.115 145.36 105.166C144.686 103.218 142.562 102.184 140.617 102.856C138.671 103.529 137.639 105.654 138.313 107.602C138.986 109.551 141.11 110.585 143.056 109.912Z" fill="#231815"/>
<path d="M140.038 105.129C140.48 104.976 140.714 104.494 140.561 104.052C140.409 103.609 139.926 103.375 139.484 103.528C139.042 103.681 138.807 104.163 138.96 104.605C139.113 105.047 139.596 105.282 140.038 105.129Z" fill="white"/>
<path d="M135.99 130.152C135.029 130.152 134.1 130.09 133.215 129.956C129.228 129.367 126.506 127.506 125.539 124.716C124.95 123.012 125.362 121.801 125.812 121.088C127.042 119.136 129.597 118.844 132.837 118.47C135.134 118.207 137.991 117.877 140.738 116.93C143.485 115.982 145.935 114.475 147.902 113.264C150.677 111.555 152.874 110.206 155.042 110.981C155.836 111.263 156.908 111.962 157.497 113.666C159.349 119.021 153.874 125.433 144.762 128.582C141.781 129.616 138.747 130.147 135.986 130.147L135.99 130.152ZM130.344 123.663C130.932 124.409 132.21 124.974 133.909 125.228C136.555 125.62 139.943 125.194 143.202 124.07C146.461 122.945 149.39 121.184 151.228 119.241C152.41 117.992 153.065 116.757 153.07 115.81C152.328 116.169 151.261 116.824 150.409 117.346C148.241 118.681 145.542 120.337 142.303 121.457C139.058 122.576 135.914 122.94 133.382 123.227C132.392 123.342 131.143 123.486 130.344 123.658V123.663Z" fill="#FF333C"/>
<path d="M99.7926 76.2956V29.943L39.0403 90.6474H85.436C93.3656 90.6474 99.7926 84.2205 99.7926 76.2908V76.2956Z" fill="#D3D3D3"/>
<path d="M185.104 262.336L230.806 262.336C236.563 262.336 241.229 257.67 241.229 251.913L241.229 243.265C241.229 237.508 236.563 232.842 230.806 232.842L210.434 232.842L199.997 219.175C198.915 217.758 196.656 218.74 196.953 220.496L199.04 232.842L185.099 232.842C179.342 232.842 174.676 237.508 174.676 243.265L174.676 251.913C174.676 257.67 179.342 262.336 185.099 262.336L185.104 262.336Z" fill="white"/>
<path d="M193.403 242.867C194.393 243.436 195.145 244.499 195.417 245.71C195.81 247.466 195.164 249.404 193.963 250.605C192.761 251.811 191.082 252.314 189.479 252.184C188.105 252.074 186.703 251.471 185.837 250.261C184.951 249.026 184.746 247.222 185.33 245.777C185.33 245.777 186.105 243.537 188.526 242.465C191.192 241.283 193.398 242.867 193.398 242.867H193.403Z" fill="#FFE240"/>
<path d="M204.304 246.514C204.304 245.375 204.85 244.188 205.764 243.35C207.089 242.135 209.09 241.733 210.736 242.173C212.377 242.613 213.655 243.819 214.339 245.274C214.928 246.523 215.1 248.035 214.488 249.39C213.856 250.773 212.396 251.849 210.851 252.065C210.851 252.065 208.525 252.505 206.386 250.94C204.031 249.217 204.309 246.514 204.309 246.514H204.304Z" fill="#FFE240"/>
<path d="M233.132 247.82C233.108 248.959 232.539 250.131 231.606 250.955C230.256 252.141 228.246 252.505 226.614 252.031C224.983 251.558 223.734 250.328 223.073 248.859C222.508 247.6 222.365 246.083 223.011 244.743C223.671 243.374 225.155 242.326 226.701 242.14C226.701 242.14 229.036 241.747 231.142 243.355C233.458 245.126 233.132 247.82 233.132 247.82Z" fill="#FFE240"/>
<path d="M253.451 243.703H270.411L239.094 274.517V258.06C239.094 250.13 245.521 243.703 253.451 243.703Z" fill="#D3D3D3"/>
<path d="M75.2285 235.28C75.6927 232.304 74.9222 229.275 74.1852 226.379C73.1516 222.331 74.2953 215.272 76.0899 211.496C77.8797 207.721 80.6983 217.44 80.4543 217.579C78.4587 218.742 78.6406 223.628 78.8368 225.93C78.9995 227.853 79.167 229.777 79.3297 231.696C79.4397 232.974 79.5115 234.386 78.7363 235.41C77.961 236.434 75.6257 236.778 75.2524 235.553L75.2285 235.276V235.28Z" fill="black"/>
<path d="M61.3121 234.505C62.0826 234.204 62.2501 233.194 61.6136 232.663C59.2639 230.701 54.8612 226.413 54.1625 221.307C53.1958 214.277 56.383 207.62 52.4254 207.453C47.9844 207.266 46.7832 208.955 46.2473 210.544C45.7113 212.133 41.2607 223.436 59.4266 234.773C59.7185 234.955 60.087 234.988 60.4076 234.864L61.3121 234.51V234.505Z" fill="black"/>
<path d="M52.8035 238.324C52.8035 238.324 48.3817 237.243 43.3473 237.774C38.3129 238.305 32.2688 241.387 32.1204 246.871C31.9721 252.355 37.3175 259.189 47.4102 258.337C55.1245 257.686 59.2544 257.93 62.4176 259.897C65.5808 261.864 73.8455 265.094 81.4257 262.381C89.0012 259.663 90.48 257.964 97.0218 258.208C103.564 258.452 107.464 253.733 106.315 249.685C105.172 245.636 100.917 241.679 94.5764 240.899C88.2403 240.119 86.6132 241.396 82.1101 241.684C77.6069 241.971 55.1388 239.698 52.8035 238.324Z" fill="#F878F3"/>
<path d="M69.7873 228.365C69.7873 228.365 80.0092 229.208 83.8137 236.773C87.6182 244.344 85.1967 247.196 81.5071 249.278C77.8175 251.365 69.5146 254.107 59.8334 251.58C50.1475 249.058 49.4584 244.78 50.0327 241.707C50.6069 238.635 52.7221 233.113 58.5653 230.409C64.8008 227.518 69.7873 228.361 69.7873 228.361V228.365Z" fill="#FFE240"/>
<path d="M78.028 238.185C77.7026 238.31 76.1856 238.76 75.7166 240.889C75.2476 243.019 76.8699 243.646 78.2147 243.081C79.5594 242.516 80.4064 240.889 80.0954 239.535C79.7843 238.181 78.5879 237.975 78.028 238.185Z" fill="#FF7140"/>
<path d="M56.4979 244.861C56.7371 245.186 57.699 246.746 60.1444 246.622C62.5898 246.498 62.7669 244.493 61.7332 243.162C60.6996 241.832 58.6753 241.382 57.3066 242.143C55.938 242.904 56.0911 244.306 56.4979 244.861Z" fill="#FF7140"/>
<path d="M69.5482 239.98C69.6726 239.941 69.8114 239.913 69.9358 239.956C70.0793 240.008 70.1751 240.147 70.2325 240.291C70.3617 240.611 70.3617 240.97 70.2756 241.305C70.1894 241.64 70.0267 241.947 69.8449 242.243C69.7779 242.349 69.7156 242.497 69.8114 242.578C69.8592 242.621 69.931 242.621 69.998 242.621C70.266 242.621 70.534 242.645 70.7972 242.693C71.0412 242.741 71.2901 242.813 71.4719 242.98C71.7304 243.215 71.7973 243.617 71.6825 243.942C71.5676 244.268 71.2805 244.526 70.9599 244.65C70.6393 244.775 70.2756 244.784 69.931 244.727C69.5242 244.655 69.1127 244.473 68.8925 244.129C68.7155 243.856 68.6772 243.511 68.5288 243.224C68.3278 242.837 67.9306 242.526 67.8971 242.09C67.8636 241.693 68.1603 241.449 68.3039 241.114C68.4475 240.779 68.7011 240.473 69.0026 240.253C69.1701 240.133 69.3567 240.037 69.5529 239.975L69.5482 239.98Z" fill="#FFA6A6"/>
<path d="M69.1509 242.32C69.7587 241.784 70.1415 241.344 69.974 240.597C69.8018 239.851 69.06 240.497 68.7298 241.004C68.3996 241.511 68.213 242.291 67.5908 242.052C66.7582 241.736 68.2991 240.004 68.2991 240.004C69.5051 238.898 70.3377 239.262 70.8881 240.43C71.4384 241.597 70.1942 242.267 70.1942 242.267C70.1942 242.267 71.1369 241.971 71.7877 242.679C72.4386 243.387 72.2184 244.383 71.5628 244.89C70.9072 245.397 69.9932 245.297 69.5481 245.124C69.1031 244.952 68.5862 244.732 68.9212 244.33C69.2562 243.928 69.6678 244.588 70.2037 244.622C70.7397 244.655 71.448 244.383 71.4528 243.713C71.4623 243.043 70.5292 242.861 69.9214 243.038C69.9214 243.038 69.6678 243.129 69.3136 242.813C68.9595 242.497 69.1318 242.33 69.1461 242.315L69.1509 242.32Z" fill="#231815"/>
<path d="M67.294 241.267C67.8635 241.621 68.2846 242.167 68.6148 242.746C68.835 243.134 69.0168 243.55 69.0982 243.985C69.1795 244.421 69.1556 244.89 68.9785 245.297C68.9163 245.445 68.8254 245.588 68.6914 245.679C68.5574 245.77 68.366 245.789 68.2368 245.694C68.0453 245.555 68.0645 245.268 68.0884 245.029C68.1458 244.493 68.1123 243.942 67.9209 243.44C67.7295 242.937 67.3802 242.483 66.9016 242.239C66.5953 242.081 66.2508 242.009 65.9445 241.851C65.5856 241.664 65.0448 241.042 65.7052 240.923C66.2508 240.822 66.825 240.97 67.294 241.262V241.267Z" fill="#231815"/>
<path d="M69.7873 228.365C69.7873 228.365 80.0092 229.208 83.8137 236.773C87.6182 244.344 85.1967 247.196 81.5071 249.278C77.8175 251.365 69.5146 254.107 59.8334 251.58C50.1475 249.058 49.4584 244.78 50.0327 241.707C50.6069 238.635 52.7221 233.113 58.5653 230.409C64.8008 227.518 69.7873 228.361 69.7873 228.361V228.365Z" fill="#FFE240"/>
<path d="M78.028 238.185C77.7026 238.31 76.1856 238.76 75.7166 240.889C75.2476 243.019 76.8699 243.646 78.2147 243.081C79.5594 242.516 80.4064 240.889 80.0954 239.535C79.7843 238.181 78.5879 237.975 78.028 238.185Z" fill="#FF7140"/>
<path d="M56.4979 244.861C56.7371 245.186 57.699 246.746 60.1444 246.622C62.5898 246.498 62.7669 244.493 61.7332 243.162C60.6996 241.832 58.6753 241.382 57.3066 242.143C55.938 242.904 56.0911 244.306 56.4979 244.861Z" fill="#FF7140"/>
<path d="M69.5482 239.98C69.6726 239.941 69.8114 239.913 69.9358 239.956C70.0793 240.008 70.1751 240.147 70.2325 240.291C70.3617 240.611 70.3617 240.97 70.2756 241.305C70.1894 241.64 70.0267 241.947 69.8449 242.243C69.7779 242.349 69.7156 242.497 69.8114 242.578C69.8592 242.621 69.931 242.621 69.998 242.621C70.266 242.621 70.534 242.645 70.7972 242.693C71.0412 242.741 71.2901 242.813 71.4719 242.98C71.7304 243.215 71.7973 243.617 71.6825 243.942C71.5676 244.268 71.2805 244.526 70.9599 244.65C70.6393 244.775 70.2756 244.784 69.931 244.727C69.5242 244.655 69.1127 244.473 68.8925 244.129C68.7155 243.856 68.6772 243.511 68.5288 243.224C68.3278 242.837 67.9306 242.526 67.8971 242.09C67.8636 241.693 68.1603 241.449 68.3039 241.114C68.4475 240.779 68.7011 240.473 69.0026 240.253C69.1701 240.133 69.3567 240.037 69.5529 239.975L69.5482 239.98Z" fill="#FFA6A6"/>
<path d="M69.2131 242.325C69.7538 241.851 70.0936 241.459 69.9405 240.798C69.7873 240.138 69.1317 240.707 68.8398 241.157C68.5479 241.607 68.3804 242.296 67.83 242.085C67.0931 241.803 68.4569 240.272 68.4569 240.272C69.5241 239.291 70.2659 239.616 70.754 240.65C71.2421 241.683 70.1367 242.282 70.1367 242.282C70.1367 242.282 70.9741 242.018 71.5484 242.65C72.1227 243.282 71.9312 244.162 71.3522 244.607C70.7731 245.053 69.9596 244.966 69.5672 244.813C69.1748 244.66 68.7154 244.464 69.0121 244.11C69.3088 243.756 69.6772 244.339 70.151 244.368C70.6248 244.397 71.2517 244.158 71.2613 243.564C71.2708 242.971 70.4429 242.808 69.9022 242.966C69.9022 242.966 69.6772 243.047 69.3662 242.765C69.0551 242.483 69.2035 242.339 69.2178 242.325H69.2131Z" fill="#231815"/>
<path d="M67.294 241.267C67.8635 241.621 68.2846 242.167 68.6148 242.746C68.835 243.134 69.0168 243.55 69.0982 243.985C69.1795 244.421 69.1556 244.89 68.9785 245.297C68.9163 245.445 68.8254 245.588 68.6914 245.679C68.5574 245.77 68.366 245.789 68.2368 245.694C68.0453 245.555 68.0645 245.268 68.0884 245.029C68.1458 244.493 68.1123 243.942 67.9209 243.44C67.7295 242.937 67.3802 242.483 66.9016 242.239C66.5953 242.081 66.2508 242.009 65.9445 241.851C65.5856 241.664 65.0448 241.042 65.7052 240.923C66.2508 240.822 66.825 240.97 67.294 241.262V241.267Z" fill="#231815"/>
<path d="M64.5615 238.908C64.5758 238.76 64.5615 238.592 64.4419 238.487C64.3126 238.372 64.1021 238.372 63.9346 238.444C63.7671 238.515 63.6475 238.649 63.547 238.788C63.2885 239.142 63.145 239.549 63.0014 239.951C62.8961 239.717 62.7908 239.482 62.6856 239.248C62.5851 239.023 62.475 238.793 62.274 238.635C62.073 238.477 61.738 238.429 61.5323 238.592C61.3552 238.731 61.3265 238.965 61.3313 239.176C61.3408 239.468 61.3887 239.76 61.4748 240.037C61.5035 240.128 61.5227 240.248 61.427 240.296C61.3408 240.339 61.2451 240.277 61.1733 240.219C60.9723 240.056 60.757 239.903 60.5369 239.76C60.4077 239.678 60.2449 239.597 60.1014 239.659C60.0105 239.697 59.9482 239.784 59.9339 239.875C59.9195 239.965 59.9482 240.056 59.9961 240.133C60.1875 240.468 60.6565 240.655 60.7426 241.028C60.757 241.1 60.7618 241.176 60.8049 241.238C60.8958 241.372 61.1111 241.372 61.2834 241.358C62.1592 241.272 63.0445 241.162 63.8724 240.875C64.0112 240.827 64.1595 240.765 64.2552 240.655C64.3366 240.559 64.2696 240.425 64.2648 240.315C64.2648 240.009 64.3701 239.712 64.4562 239.42C64.5041 239.248 64.5519 239.08 64.5663 238.903L64.5615 238.908Z" fill="black"/>
<path d="M75.1089 237.554C75.1424 237.415 75.1568 237.257 75.0658 237.137C74.9701 237.013 74.7835 236.975 74.6256 237.018C74.4676 237.061 74.3432 237.166 74.2331 237.281C73.9508 237.573 73.7594 237.936 73.5728 238.291C73.5153 238.051 73.4579 237.817 73.4005 237.578C73.3478 237.353 73.2856 237.113 73.1277 236.936C72.9698 236.759 72.6874 236.659 72.4769 236.778C72.295 236.884 72.2376 237.099 72.2089 237.3C72.1706 237.577 72.1706 237.86 72.2041 238.137C72.2137 238.228 72.2137 238.343 72.1227 238.372C72.0414 238.401 71.9648 238.324 71.9122 238.262C71.759 238.075 71.5915 237.898 71.4193 237.731C71.3188 237.635 71.1848 237.534 71.0508 237.563C70.9646 237.582 70.8976 237.659 70.8689 237.74C70.8402 237.822 70.8546 237.912 70.8833 237.994C70.9981 238.343 71.3858 238.592 71.4049 238.956C71.4049 239.028 71.4001 239.099 71.424 239.166C71.4815 239.31 71.6729 239.343 71.8308 239.353C72.6204 239.41 73.4196 239.444 74.1949 239.305C74.3241 239.281 74.4676 239.248 74.5681 239.157C74.6543 239.08 74.616 238.946 74.6303 238.836C74.6734 238.549 74.817 238.286 74.9366 238.023C75.0084 237.869 75.0706 237.716 75.1137 237.554H75.1089Z" fill="black"/>
<path d="M64.2504 240.659C64.1595 240.769 64.0064 240.832 63.8676 240.88C63.0397 241.167 62.1544 241.277 61.2786 241.363C61.1015 241.382 60.8862 241.382 60.8001 241.243C60.757 241.181 60.757 241.104 60.7378 241.033C60.6517 240.659 60.1827 240.473 59.9913 240.138C59.9482 240.056 59.9195 239.966 59.9291 239.879C59.9434 239.788 60.0009 239.702 60.0966 239.664C60.2449 239.607 60.4076 239.683 60.5321 239.765C60.757 239.908 60.9675 240.056 61.1685 240.224C61.2403 240.281 61.336 240.344 61.4222 240.3C61.5131 240.253 61.494 240.133 61.47 240.042C61.3839 239.76 61.336 239.473 61.3265 239.181C61.3217 238.97 61.3456 238.736 61.5275 238.597C61.7332 238.434 62.0682 238.487 62.2692 238.64C62.4702 238.793 62.5803 239.028 62.6808 239.252C62.786 239.487 62.8913 239.721 62.9966 239.956C63.1402 239.554 63.2885 239.147 63.5422 238.793C63.6427 238.654 63.7623 238.52 63.9298 238.448C64.0925 238.377 64.3078 238.381 64.4371 238.492C64.5519 238.597 64.571 238.76 64.5567 238.913C64.5423 239.09 64.4993 239.257 64.4466 239.43C64.3605 239.721 64.2552 240.023 64.2552 240.324C64.2552 240.434 64.327 240.568 64.2456 240.664L64.2504 240.659Z" fill="black"/>
<path d="M74.568 239.157C74.4675 239.243 74.3287 239.281 74.1947 239.305C73.4195 239.449 72.6203 239.41 71.8307 239.353C71.6728 239.343 71.4813 239.31 71.4239 239.166C71.3952 239.099 71.4096 239.028 71.4048 238.956C71.3856 238.592 70.998 238.343 70.8831 237.994C70.8544 237.912 70.8449 237.822 70.8688 237.74C70.8927 237.659 70.9597 237.582 71.0506 237.563C71.1894 237.53 71.3186 237.63 71.4191 237.731C71.5962 237.898 71.7589 238.075 71.912 238.262C71.9647 238.329 72.0412 238.401 72.1226 238.372C72.2087 238.343 72.2135 238.224 72.204 238.137C72.1705 237.86 72.1705 237.577 72.2087 237.3C72.2374 237.104 72.2949 236.884 72.4767 236.778C72.6873 236.659 72.9696 236.759 73.1276 236.936C73.2855 237.113 73.3429 237.353 73.4003 237.578L73.5726 238.291C73.7592 237.936 73.9507 237.573 74.233 237.281C74.3431 237.166 74.4723 237.061 74.6254 237.018C74.7786 236.975 74.97 237.013 75.0657 237.137C75.1518 237.252 75.1423 237.415 75.1088 237.554C75.0705 237.716 75.0035 237.869 74.9317 238.023C74.8121 238.286 74.6733 238.549 74.6254 238.836C74.6111 238.941 74.6494 239.075 74.5632 239.157H74.568Z" fill="black"/>
<path d="M58.5461 230.351C64.7817 227.461 69.7682 228.303 69.7682 228.303C69.7682 228.303 77.4203 228.935 81.9474 234.007C81.9234 234.007 81.8947 234.007 81.8708 234.007C71.8116 236.391 62.0156 234.831 52.3728 235.836C53.7032 233.74 55.6317 231.696 58.5413 230.347L58.5461 230.351Z" fill="#FFE240"/>
<path d="M71.0078 228.475C71.0078 228.475 72.0653 231.993 67.6818 233.495C66.1935 233.988 65.0402 233.936 65.1455 232.945C65.2508 231.955 67.1745 229.969 64.8679 228.432C64.8679 228.432 67.342 227.796 71.0078 228.475Z" fill="black"/>
<path d="M80.0236 218.062C82.0431 216.995 83.5458 215.028 82.9715 213.798C82.7226 213.162 82.2154 212.319 80.6027 212.449C80.6027 212.449 84.4646 211.463 85.235 208.749C85.7615 206.893 83.7611 206.419 80.105 207.524C77.5734 208.29 76.1569 210.735 76.066 211.683C75.9415 212.97 78.0807 219.086 80.0236 218.062Z" fill="#2CE69D"/>
<path d="M46.2425 210.539C45.4672 207.912 45.9888 205.089 47.592 204.868C48.3912 204.706 49.5684 204.677 50.4777 206.385C50.4777 206.385 48.9798 201.854 51.2194 199.317C52.7508 197.58 54.5119 199.298 55.7513 203.696C56.6079 206.744 55.0622 209.754 54.1673 210.463C52.9518 211.425 46.6684 211.989 46.2425 210.544V210.539Z" fill="#2CE69D"/>
<path d="M96.6773 214.813L96.5576 214.148C96.4811 213.707 96.0456 213.425 95.6101 213.535L90.681 214.784L94.2319 211.133C94.5429 210.812 94.519 210.295 94.1744 210.003L93.6576 209.568C93.313 209.281 92.801 209.343 92.5378 209.707L89.566 213.832L89.9392 208.754C89.9727 208.309 89.6186 207.926 89.1736 207.926H88.4988C88.049 207.926 87.6996 208.304 87.7331 208.754L88.1064 213.827L85.1298 209.697C84.8666 209.333 84.3545 209.271 84.01 209.558L83.4931 209.994C83.1486 210.281 83.1247 210.798 83.4357 211.123L86.9818 214.765L82.0431 213.516C81.6076 213.406 81.1722 213.688 81.0956 214.128L80.976 214.794C80.8994 215.234 81.2104 215.65 81.6555 215.693L86.7138 216.205L82.1293 218.421C81.7273 218.617 81.5741 219.11 81.7991 219.498L82.1388 220.082C82.3638 220.469 82.871 220.584 83.2395 220.335L87.446 217.478L85.3547 222.125C85.1729 222.532 85.3739 223.01 85.795 223.164L86.4315 223.393C86.8526 223.546 87.312 223.312 87.4364 222.881L88.8194 217.99L90.2025 222.891C90.3221 223.321 90.7863 223.556 91.2074 223.403L91.8439 223.173C92.265 223.02 92.466 222.541 92.2842 222.135L90.1977 217.497L94.4089 220.359C94.7774 220.613 95.2847 220.493 95.5096 220.106L95.8494 219.522C96.0743 219.134 95.9212 218.636 95.5192 218.445L90.9394 216.234L96.0073 215.722C96.4523 215.679 96.7682 215.263 96.6868 214.822L96.6773 214.813Z" fill="#FF0AD2"/>
<path d="M95.6005 216.052L90.8868 215.502L95.1985 213.501C95.768 213.238 95.9977 212.54 95.6914 211.989C95.3852 211.439 94.6769 211.267 94.1505 211.611L90.1833 214.219L92.198 209.912C92.466 209.343 92.1932 208.663 91.6046 208.438C91.016 208.213 90.3604 208.539 90.1785 209.142L88.8194 213.688L87.5991 209.094C87.4364 208.486 86.7903 208.142 86.1969 208.347C85.6035 208.553 85.3068 209.223 85.5557 209.802L87.4364 214.162L83.5458 211.429C83.0289 211.066 82.3159 211.219 81.9905 211.76C81.665 212.3 81.8708 213.004 82.4355 213.286L86.6755 215.416L81.9378 215.822C81.3109 215.875 80.8611 216.454 80.9616 217.076C81.0621 217.698 81.6698 218.105 82.2824 217.962L86.9004 216.866L83.5314 220.22C83.0864 220.665 83.1103 221.398 83.5888 221.809C84.0674 222.221 84.79 222.144 85.1681 221.637L88.0011 217.828L87.58 222.565C87.5225 223.192 88.0107 223.738 88.6423 223.747C89.274 223.757 89.7765 223.23 89.743 222.599L89.4655 217.861L92.1836 221.761C92.5426 222.278 93.27 222.379 93.7581 221.981C94.2462 221.584 94.2941 220.857 93.8634 220.397L90.6044 216.947L95.1937 218.187C95.8015 218.349 96.4236 217.962 96.5385 217.344C96.6581 216.727 96.2274 216.138 95.6005 216.062V216.052Z" fill="#FF94F0"/>
<path d="M51.1956 197.02L51.0281 196.068C50.9181 195.436 50.2912 195.034 49.6738 195.192L42.62 196.977L47.7022 191.751C48.1473 191.292 48.1138 190.55 47.6208 190.139L46.8791 189.516C46.3862 189.105 45.6492 189.196 45.2759 189.717L41.0216 195.623L41.5576 188.354C41.6054 187.712 41.0982 187.172 40.4569 187.172H39.4902C38.849 187.172 38.3417 187.717 38.3896 188.354L38.9255 195.613L34.6616 189.698C34.2884 189.177 33.5514 189.086 33.0585 189.497L32.3167 190.119C31.8238 190.531 31.7903 191.273 32.2354 191.732L37.308 196.948L30.2446 195.159C29.6225 195.001 29.0004 195.403 28.8903 196.034L28.7228 196.987C28.6127 197.618 29.0578 198.212 29.699 198.274L36.9395 199.006L30.3738 202.174C29.7947 202.452 29.5794 203.165 29.9 203.72L30.3834 204.557C30.704 205.112 31.4266 205.28 31.9578 204.916L37.9732 200.825L34.9823 207.472C34.7191 208.056 35.0062 208.74 35.6092 208.96L36.5184 209.29C37.1214 209.51 37.7818 209.171 37.9541 208.553L39.9353 201.552L41.9165 208.568C42.0888 209.185 42.754 209.525 43.3521 209.305L44.2614 208.974C44.8644 208.754 45.1515 208.07 44.8883 207.486L41.9021 200.849L47.9271 204.95C48.4583 205.309 49.1809 205.146 49.5016 204.591L49.9849 203.753C50.3055 203.198 50.0854 202.49 49.5111 202.208L42.9597 199.044L50.2098 198.312C50.8463 198.25 51.2961 197.657 51.1861 197.025L51.1956 197.02Z" fill="#FF0AD2"/>
<path d="M49.6498 198.796L42.9022 198.006L49.0755 195.139C49.8938 194.761 50.2145 193.766 49.779 192.976C49.3387 192.187 48.3242 191.938 47.5729 192.436L41.8972 196.168L44.7829 190.005C45.1657 189.186 44.7733 188.22 43.9311 187.899C43.0888 187.578 42.1509 188.038 41.8924 188.904L39.9447 195.412L38.1932 188.837C37.9635 187.966 37.0399 187.473 36.1833 187.77C35.3315 188.066 34.9104 189.023 35.2645 189.851L37.9539 196.087L32.3884 192.172C31.6514 191.656 30.6273 191.871 30.1631 192.646C29.6989 193.421 29.9908 194.426 30.7996 194.828L36.8724 197.877L30.0913 198.456C29.1916 198.532 28.5504 199.355 28.6939 200.246C28.8375 201.136 29.7085 201.719 30.5842 201.509L37.193 199.944L32.374 204.749C31.7375 205.385 31.771 206.428 32.4554 207.022C33.1397 207.615 34.1782 207.5 34.7141 206.773L38.7723 201.322L38.1693 208.099C38.0879 208.998 38.7914 209.774 39.6911 209.788C40.5908 209.802 41.3182 209.046 41.2655 208.146L40.8683 201.365L44.7638 206.945C45.2806 207.687 46.3143 207.831 47.0129 207.261C47.7116 206.692 47.7834 205.648 47.1613 204.993L42.5002 200.054L49.0707 201.825C49.9417 202.059 50.827 201.504 50.9993 200.619C51.1716 199.733 50.5495 198.891 49.6546 198.786L49.6498 198.796Z" fill="#FF94F0"/>
<path d="M212.114 67.026C208.716 66.3656 207.233 69.9021 207.233 69.9021C207.233 69.9021 205.744 66.3656 202.351 67.026C198.954 67.6864 198.25 72.1178 200.011 75.3911C201.543 78.2385 205.883 80.7892 206.979 81.4018C207.137 81.4927 207.328 81.4927 207.491 81.4018C208.587 80.7892 212.927 78.2385 214.459 75.3911C216.22 72.1178 215.516 67.6864 212.119 67.026H212.114Z" fill="#FF333C"/>
<path d="M244.531 47.0656C239.827 46.1467 237.764 51.0471 237.764 51.0471C237.764 51.0471 235.702 46.1467 230.997 47.0656C226.293 47.9844 225.317 54.1242 227.753 58.6609C229.878 62.609 235.888 66.1407 237.41 66.9925C237.63 67.1169 237.898 67.1169 238.118 66.9925C239.64 66.1455 245.651 62.609 247.775 58.6609C250.216 54.129 249.24 47.9844 244.531 47.0656Z" fill="#FF333C"/>
<path d="M227.873 93.5378C224.054 92.7913 222.384 96.768 222.384 96.768C222.384 96.768 220.713 92.7913 216.895 93.5378C213.076 94.2843 212.286 99.2661 214.263 102.946C215.985 106.148 220.862 109.014 222.096 109.703C222.274 109.804 222.489 109.804 222.671 109.703C223.905 109.014 228.782 106.148 230.505 102.946C232.486 99.2661 231.691 94.2843 227.873 93.5378Z" fill="#FF333C"/>
<path d="M275.599 84.0625C277.58 81.5262 275.852 77.8414 273.412 75.6831C270.971 73.5248 267.798 72.2327 265.367 70.0649C264.286 69.0982 263.362 67.9688 262.649 66.7294C261.51 64.7529 260.979 62.1209 262.448 60.3502C263.898 58.6035 266.812 58.4839 268.837 59.6037C270.861 60.7235 272.129 62.7622 272.99 64.8343C273.852 66.9064 274.407 69.0934 275.474 71.0794C276.862 73.6588 279.101 75.8697 279.819 78.6836C280.853 82.7226 277.972 87.6708 273.196 88.6136C272.555 88.7428 272.373 88.5466 271.813 88.2164C269.731 86.9961 273.613 86.5845 275.589 84.0625H275.599Z" fill="black"/>
<path d="M259.476 73.7689C257.457 71.3235 254.427 69.8065 252.207 67.5238C250.963 66.2461 249.986 64.7338 249.345 63.1068C248.445 60.8097 248.216 58.2925 247.12 56.072C246.024 53.8516 243.607 51.8895 241.09 52.4111C238.86 52.8705 237.453 55.1867 237.496 57.3546C237.539 59.5272 238.707 61.5323 240.075 63.2743C241.966 65.6814 244.292 67.7727 246.919 69.438C249.216 70.8928 251.743 72.0174 253.944 73.5966C256.145 75.1759 258.648 78.698 258.481 81.3205C258.332 83.6463 261.376 83.9334 261.811 82.5982C262.611 80.148 261.027 75.6496 259.476 73.7737V73.7689Z" fill="black"/>
<path d="M285.064 102.669C286.457 104.76 287.199 107.411 286.328 109.742C285.873 110.962 285.007 112.015 284.026 112.915C280.643 116.011 275.642 117.418 271.033 116.566C268.325 116.068 265.817 114.853 263.127 114.264C259.902 113.556 256.528 113.771 253.25 113.326C249.972 112.881 246.531 111.555 244.952 108.785C242.808 105.023 244.67 99.673 241.554 96.5815C240.88 95.9115 240.037 95.433 239.224 94.9209C237.257 93.6767 235.395 92.1262 234.453 90.0684C233.505 88.0106 233.687 85.3594 235.391 83.8041C236.108 83.1533 237.051 82.713 237.597 81.9282C238.109 81.1912 238.19 80.2676 238.516 79.4397C239.42 77.1331 242.239 75.841 244.813 76.0803C247.388 76.3196 249.685 77.8174 251.384 79.6742C253.087 81.531 254.293 83.7371 255.566 85.8811C256.121 86.8142 256.701 87.7474 257.509 88.4892C259.878 90.6666 263.582 90.7336 266.53 92.1405C269.88 93.7389 271.995 96.1221 275.747 96.8256C279.561 97.5434 282.944 99.4815 285.06 102.659L285.064 102.669Z" fill="#F878F3"/>
<path d="M269.889 84.7947C269.889 84.7947 276.556 89.9104 275.479 96.8351C274.402 103.76 271.33 104.664 267.755 104.468C264.18 104.277 257.088 102.492 251.623 96.4522C246.153 90.4129 247.771 87.1444 249.675 85.2732C251.58 83.4021 255.748 80.5164 261.118 81.2343C266.851 81.9999 269.889 84.7947 269.889 84.7947Z" fill="#FFE240"/>
<path d="M269.416 84.4166C269.416 84.4166 268.789 87.4123 264.936 86.9386C263.635 86.7663 262.797 86.3069 263.271 85.613C263.745 84.9191 265.941 84.0864 264.846 82.11C264.846 82.11 266.831 82.4354 269.416 84.4166Z" fill="black"/>
<path d="M263.821 95.9306C264.027 96.0886 264.893 96.8782 266.506 96.3757C268.114 95.8732 267.942 94.6146 267.056 93.9782C266.171 93.3417 264.764 93.4182 263.965 94.1217C263.166 94.8252 263.472 95.6579 263.821 95.9306Z" fill="#FF7140"/>
<path d="M268.167 93.0353C265.31 91.2599 266.583 88.8432 267.008 88.1828C267.066 88.1254 267.114 88.0919 267.171 88.0297C267.171 88.0297 265.874 91.1403 268.549 93.2172C268.549 93.2172 265.391 92.5616 262.261 94.6193C262.261 94.6193 262.338 94.5188 262.443 94.3513C265.042 92.0352 268.162 93.0305 268.162 93.0305L268.167 93.0353Z" fill="#FF7140"/>
<path d="M262.075 89.6185C262.075 89.6185 264.29 91.0828 267.133 88.0057C267.133 88.0057 267.085 88.0727 267.013 88.1828C266.587 88.8432 265.315 91.2551 268.171 93.0353C268.171 93.0353 265.051 92.0399 262.453 94.3561C262.391 94.4088 262.328 94.4423 262.271 94.4997C262.271 94.4997 264.515 90.9536 262.079 89.6185H262.075Z" fill="#FFFFDB"/>
<path d="M260.371 88.8241C257.514 87.0487 258.787 84.632 259.213 83.9716C259.27 83.9142 259.318 83.8807 259.376 83.8185C259.376 83.8185 258.079 86.9291 260.754 89.006C260.754 89.006 257.595 88.3504 254.466 90.4082C254.466 90.4082 254.542 90.3077 254.647 90.1402C257.246 87.824 260.366 88.8194 260.366 88.8194L260.371 88.8241Z" fill="#FF7140"/>
<path d="M254.279 85.4073C254.279 85.4073 256.495 86.8717 259.337 83.7946C259.337 83.7946 259.29 83.8616 259.218 83.9716C258.792 84.632 257.519 87.0439 260.376 88.8241C260.376 88.8241 257.256 87.8288 254.657 90.1449C254.595 90.1976 254.533 90.2311 254.475 90.2885C254.475 90.2885 256.72 86.7424 254.284 85.4073H254.279Z" fill="#FFFFDB"/>
<path d="M258.557 94.0403C258.624 94.0403 258.691 94.0403 258.758 94.0307C259.706 93.9302 260.481 93.1454 260.529 92.2457C260.543 91.9251 260.285 91.6571 259.95 91.6379C259.624 91.6092 259.328 91.8676 259.313 92.1883C259.294 92.5232 258.974 92.8439 258.624 92.8822C258.275 92.9157 257.887 92.6668 257.796 92.3462C257.71 92.0351 257.37 91.8533 257.05 91.9394C256.724 92.0255 256.533 92.3414 256.624 92.6477C256.858 93.4612 257.682 94.0403 258.557 94.0403Z" fill="#231815"/>
<path d="M262.654 66.7293C261.065 65.0544 260.988 61.9773 262.457 60.2066C263.907 58.4599 266.994 58.2398 268.841 59.6036C270.153 60.5703 269.894 62.1591 268.999 64.0494C268.1 65.9397 263.745 67.8826 262.654 66.7293Z" fill="#2CE69D"/>
<path d="M237.496 57.3544C237.424 55.1818 238.085 52.88 241.033 52.1478C243.526 51.5305 246.254 53.7605 247.12 56.0719C247.321 56.6031 247.445 57.2157 245.268 58.1919C243.09 59.1682 237.549 58.9624 237.496 57.3592V57.3544Z" fill="#2CE69D"/>
</g>
<defs>
<clipPath id="clip0_26822_2824">
<rect width="300" height="300" fill="white"/>
</clipPath>
</defs>
</svg>
