<svg width="60" height="48" viewBox="0 0 60 48" fill="none" xmlns="http://www.w3.org/2000/svg">
<g clip-path="url(#clip0_9714_72575)">
<mask id="mask0_9714_72575" style="mask-type:luminance" maskUnits="userSpaceOnUse" x="0" y="12" width="64" height="40">
<path d="M64 12H0V51.3547H64V12Z" fill="white"/>
</mask>
<g mask="url(#mask0_9714_72575)">
<path d="M63.8301 30.1339C63.8301 30.1339 63.8084 30.1411 63.7939 30.1447C63.6782 30.1664 63.5696 30.0941 63.5479 29.9856C63.1066 27.5436 49.9528 27.3338 31.0794 30.9117C22.6069 32.5179 14.7457 34.5655 8.93214 36.6999C3.38627 38.7294 0.209961 40.6938 0.437874 41.9492C0.45958 42.0577 0.379991 42.1662 0.264226 42.1879C0.148461 42.2096 0.0399312 42.1373 0.0182253 42.0287C-0.332688 40.0933 4.59095 37.854 8.78743 36.3201C14.6155 34.1784 22.5092 32.1236 31.0035 30.5137C46.7186 27.5364 63.3453 26.4945 63.9603 29.906C63.9784 30.0036 63.9169 30.1013 63.8229 30.1339H63.8301Z" fill="#2CE69D"/>
<path d="M59.6551 29.1934C60.0856 29.7324 60.9032 29.8229 61.4748 29.396C62.05 28.9691 62.1622 28.1841 61.7317 27.645C61.3012 27.106 60.4836 27.0156 59.912 27.4424C59.3368 27.8693 59.2246 28.6544 59.6551 29.1934Z" fill="#F878F3"/>
<path d="M6.39541 45.2462C7.09131 45.0566 7.50941 44.3669 7.32927 43.7057C7.14913 43.0445 6.43896 42.6622 5.74306 42.8518C5.04715 43.0414 4.62904 43.7311 4.80919 44.3923C4.98933 45.0535 5.6995 45.4358 6.39541 45.2462Z" fill="#5BB3FD"/>
<path d="M28.284 14.0981C28.284 14.0981 26.647 15.4428 25.0065 18.0669C23.3694 20.6876 20.7625 25.2239 21.0583 29.2615C21.0583 29.2615 9.8121 31.5279 9.21711 31.7411C8.62213 31.9544 7.35651 32.6628 8.77002 33.7943C10.1835 34.9293 17.3336 40.8791 17.3336 40.8791C17.3336 40.8791 13.5367 48.9578 13.2375 49.453C12.9383 49.9482 12.2677 51.8604 14.8746 51.2242C17.4815 50.5879 36.3249 43.572 36.3249 43.572C36.3249 43.572 56.5852 46.8977 57.5516 47.1866C58.855 47.5752 59.5257 46.6191 58.3323 45.4498C57.2283 44.3699 50.6973 37.1235 50.6973 37.1235C50.6973 37.1235 57.7717 32.3052 58.518 31.6689C59.2643 31.0327 60.8257 30.111 57.6995 29.1893C54.5698 28.2675 45.2633 25.7879 45.2633 25.7879C45.2633 25.7879 43.4027 17.1418 38.4847 12.6811C37.6937 12.0483 36.6963 11.4774 37.219 12.8943C37.7418 14.3113 38.3368 19.7659 35.6542 22.249C32.9716 24.7286 30.5161 24.7286 29.7697 19.1296C29.6941 17.7127 29.7319 15.3396 30.179 14.0981C30.179 14.0981 30.2959 13.6888 30.4198 13.3552C30.5745 12.9356 30.7087 12.5779 30.2512 12.7189C29.4327 12.9666 28.2771 14.1015 28.2771 14.1015L28.284 14.0981Z" fill="#EDFF4A"/>
<path d="M45.2632 25.7879C45.2632 25.7879 43.4026 17.1418 38.4845 12.6811C37.6935 12.0483 36.6961 11.4774 37.2189 12.8943C37.7416 14.3113 38.3366 19.7659 35.654 22.249C32.9715 24.7286 30.5159 24.7286 29.7696 19.1296C29.6939 17.7127 29.7318 15.3396 30.1788 14.0981C30.1788 14.0981 30.2958 13.6888 30.4196 13.3552C30.5744 12.9356 30.7085 12.5779 30.2511 12.7189C29.4325 12.9666 28.277 14.1015 28.277 14.1015C28.277 14.1015 26.6399 15.4462 24.9994 18.0703C23.3624 20.691 20.7554 25.2273 21.0512 29.2649C21.0512 29.2649 26.0484 33.4091 33.4151 33.7462C42.7422 34.1726 45.0878 26.7302 45.2563 25.7913L45.2632 25.7879Z" fill="#5BB3FD"/>
<path d="M40.3691 20.4709C40.0767 21.7847 38.2746 25.9461 33.7211 25.5472C29.1676 25.1482 29.7626 19.0333 29.7626 19.0333C30.5089 24.6323 32.9679 24.7114 35.6471 22.2318C38.3296 19.7521 37.7312 14.2976 37.2119 12.8772C36.6926 11.4568 37.6865 12.0311 38.4775 12.6639C38.4775 12.6639 41.5866 14.9682 40.3656 20.4675L40.3691 20.4709Z" fill="#EDFF4A"/>
<path d="M33.4325 25.1517C31.9295 25.1517 30.5779 24.2747 30.0449 23.4149C29.983 23.3151 30.0173 23.1844 30.124 23.1225C30.2306 23.0641 30.3681 23.095 30.4301 23.1982C30.8496 23.8723 32.1084 24.7906 33.5872 24.7218C35.1039 24.653 36.4177 23.5662 37.391 21.5852C39.7709 16.7325 37.1124 12.3682 37.0849 12.3235C37.023 12.2237 37.0574 12.093 37.164 12.0311C37.2706 11.9692 37.4082 12.0036 37.4701 12.1068C37.4976 12.1515 40.2765 16.7084 37.7968 21.7641C36.4762 24.4604 34.791 25.0898 33.6113 25.1448C33.5528 25.1448 33.4944 25.1482 33.4359 25.1482L33.4325 25.1517Z" fill="#5BB3FD"/>
<path d="M35.0041 25.9667C34.9044 25.9667 34.8149 25.9048 34.7874 25.8085C34.7565 25.695 34.8253 25.5781 34.9456 25.5471C39.9944 24.2746 39.8086 19.0711 39.2515 16.0825C38.684 13.0422 37.2946 12.4576 37.2808 12.4507C37.1673 12.406 37.1123 12.2822 37.1605 12.1721C37.2086 12.0655 37.3393 12.0139 37.4528 12.0586C37.5181 12.0861 39.0795 12.743 39.6917 16.0068C40.2764 19.1399 40.4552 24.5979 35.0591 25.9564C35.0385 25.9598 35.0213 25.9633 35.0007 25.9633L35.0041 25.9667Z" fill="#5BB3FD"/>
<path d="M42.2319 31.1279C42.2319 31.1279 40.0911 31.037 39.2315 31.898C38.372 32.759 37.0513 35.5015 37.4896 36.7848C37.9277 38.0716 39.414 38.1867 40.6348 37.7706C41.8589 37.3545 43.6821 35.4913 43.8055 33.9606C43.929 32.4298 43.0829 31.2025 42.2285 31.1277L42.2319 31.1279Z" fill="#FF7140"/>
<path d="M29.2061 27.5665C29.2061 27.5665 27.1847 27.5104 26.7644 29.844C26.3443 32.1741 26.2635 35.8705 28.2204 36.5612C30.1775 37.2484 31.5757 35.7746 31.7712 34.0293C31.9632 32.2839 32.5034 27.5386 29.2027 27.5664L29.2061 27.5665Z" fill="white"/>
<path d="M29.0967 36.9258C28.7908 36.9163 28.4727 36.8547 28.1528 36.7415C26.1855 36.0505 26.0701 32.5751 26.5657 29.8138C26.9981 27.4221 29.0606 27.3763 29.2016 27.3772C29.9898 27.3708 30.6288 27.6213 31.1054 28.1178C32.4682 29.547 32.1226 32.688 31.9741 34.0288L31.9735 34.0494C31.8498 35.1466 31.287 36.0925 30.4667 36.5762C30.0496 36.8213 29.5848 36.941 29.0933 36.9257L29.0967 36.9258ZM29.2 27.7591C29.121 27.7566 27.3458 27.746 26.9628 29.8778C26.584 31.9855 26.4364 35.728 28.2913 36.3811C29.0061 36.6305 29.6854 36.5863 30.2567 36.2497C30.9718 35.8281 31.4624 34.9901 31.5721 34.0094L31.5728 33.9888C31.7162 32.6995 32.0513 29.6751 30.8084 28.3735C30.4052 27.9515 29.8815 27.7528 29.207 27.7559L29.2001 27.7557L29.2 27.7591Z" fill="black"/>
<path d="M29.2704 28.8004C29.2704 28.8004 27.6564 28.8086 27.5106 30.7275C27.3776 32.4541 27.147 35.2169 28.8544 35.5247C30.8561 35.883 31.1053 33.9604 31.0888 31.7302C31.0776 30.1024 30.7612 28.8813 29.2704 28.8004Z" fill="#2CE69D"/>
<path d="M29.3523 29.8249C29.3523 29.8249 28.106 29.7379 27.9965 31.2622C27.9045 32.56 27.8388 34.3369 28.9596 34.5852C30.3334 34.8895 30.6089 33.446 30.5763 31.8416C30.5536 30.8052 30.4326 29.9377 29.3522 29.8284L29.3523 29.8249Z" fill="black"/>
<path d="M28.4467 30.6156C28.4467 30.6156 27.9788 30.6148 27.9157 31.2047C27.8491 31.7944 27.7993 32.3984 28.2627 32.5471C28.726 32.6957 29.0632 32.3656 29.0903 31.9363C29.1174 31.5071 29.2569 30.5652 28.4468 30.6122L28.4467 30.6156Z" fill="white"/>
<path d="M35.6589 34.1402C35.6589 34.1402 35.5183 35.23 34.3225 35.8396C33.0848 36.4686 32.9779 36.0351 32.7903 35.871C32.6028 35.7069 31.4408 34.0156 32.5454 33.1313C33.6499 32.247 35.22 32.9876 35.6623 34.1403L35.6589 34.1402Z" fill="#FF7140"/>
<path d="M33.0118 36.3872C32.9775 36.3861 32.94 36.3746 32.9096 36.3565C32.3223 35.9906 31.7148 34.9463 31.7848 34.0264C31.8318 33.4016 32.1767 32.9341 32.7836 32.6708C34.2276 32.0449 35.3935 33.1685 35.8057 33.8523C35.8613 33.9435 35.8268 34.0594 35.7321 34.115C35.6342 34.167 35.5113 34.1356 35.4556 34.0444C35.413 33.9777 34.4235 32.3847 32.9515 33.0236C32.4807 33.2257 32.2255 33.5756 32.1863 34.0595C32.1286 34.8078 32.6467 35.7392 33.1294 36.0364C33.224 36.0944 33.2513 36.2123 33.1899 36.3033C33.1503 36.3605 33.0839 36.3929 33.0152 36.3907L33.0118 36.3872Z" fill="black"/>
<path d="M27.6166 38.2663C27.5169 38.2632 27.4331 38.1917 27.4223 38.0951C27.2196 36.4303 26.6773 35.2813 25.8082 34.683C24.9797 34.1101 24.1525 34.2633 24.1421 34.2664C24.0313 34.287 23.9267 34.2218 23.9024 34.1178C23.8816 34.014 23.9501 33.9129 24.0608 33.8922C24.1024 33.8832 25.0748 33.7071 26.0449 34.3773C27.0082 35.0439 27.6062 36.2806 27.8227 38.0559C27.8366 38.163 27.7579 38.2569 27.6441 38.2671C27.6338 38.2668 27.6235 38.2665 27.6131 38.2662L27.6166 38.2663Z" fill="black"/>
<path d="M40.0615 28.0116C40.0615 28.0116 38.5306 28.5557 37.3007 30.2619C37.3007 30.2619 38.3601 28.6158 40.7789 29.283C40.7789 29.283 40.5431 29.341 39.8988 29.4792C39.8988 29.4792 40.6885 29.5348 41.0135 29.8167C41.0135 29.8167 39.2777 29.4254 37.5802 31.007C37.5802 31.007 39.0265 29.8684 41.0538 30.6197C41.0538 30.6197 40.2156 30.5764 39.5151 30.8608C39.5151 30.8608 40.5621 30.718 41.0182 31.2104C41.0182 31.2104 38.205 30.8337 35.928 32.6828C35.928 32.6828 35.695 28.7873 39.7675 27.6205C39.7675 27.6205 39.1363 27.8899 38.8735 28.2636C38.8735 28.2636 39.4505 28.0751 40.0581 28.0115L40.0615 28.0116Z" fill="black"/>
<path d="M31.8694 36.8264C31.8694 36.8264 34.5285 38.0619 35.9823 34.3636C35.9823 34.3636 37.0362 37.7547 35.0662 39.4688C34.3466 39.9247 33.6389 39.9989 33.4689 38.9407C33.2989 37.8791 32.269 37.0315 31.8694 36.8264Z" fill="black"/>
<path d="M36.0974 37.7392C35.9879 38.3827 35.7159 39.0486 35.0861 39.4935C34.3666 39.9494 33.4322 40.0097 33.4655 38.9407C33.4685 38.8444 33.5794 37.936 34.7037 37.5238C35.8279 37.1115 36.1648 37.3422 36.0974 37.7392Z" fill="#912407"/>
<path d="M37.4109 36.4382L37.4075 36.4381C37.2975 36.4347 37.2109 36.3425 37.2176 36.2361C37.3394 34.0962 38.0028 32.5719 39.1894 31.704C40.626 30.6546 42.2885 30.9679 42.3568 30.9838C42.4663 31.0044 42.5354 31.1063 42.5149 31.2124C42.491 31.3148 42.3856 31.3838 42.2763 31.3598C42.2625 31.3593 40.7198 31.0669 39.4309 32.0143C38.3428 32.8131 37.734 34.2427 37.6194 36.2624C37.6162 36.3655 37.5208 36.4451 37.4108 36.4417L37.4109 36.4382Z" fill="black"/>
<path d="M41.3799 31.6346C41.3799 31.6346 40.6941 31.6683 40.505 32.3265C40.3159 32.9847 40.6867 33.3403 41.0701 33.4039C41.4535 33.4674 42.1127 33.4054 42.492 32.8254C42.8714 32.2454 42.4132 31.4913 41.3765 31.6345L41.3799 31.6346Z" fill="white"/>
<path d="M55.0247 35.7955C49.2147 37.9046 41.4042 39.9377 33.004 41.5295C24.5097 43.1393 16.4206 44.1052 10.2308 44.25C5.77746 44.3549 0.398006 44.0727 0.0470928 42.1336C0.0290046 42.0251 0.104975 41.9166 0.22074 41.8949C0.336506 41.8732 0.445035 41.9455 0.466741 42.054C0.694654 43.313 4.34487 43.9822 10.2344 43.8448C16.4025 43.7001 24.4627 42.7378 32.9352 41.1315C41.3137 39.5434 49.0989 37.5175 54.8872 35.4156C54.9523 35.3903 55.0174 35.3686 55.0825 35.3433C60.6284 33.3138 63.8047 31.3494 63.5768 30.0941C63.5587 29.9855 63.6347 29.877 63.7504 29.8553C63.8662 29.8336 63.9747 29.9059 63.9964 30.0145C64.3474 31.9499 59.4237 34.1892 55.2272 35.7231C55.1621 35.7485 55.097 35.7702 55.0319 35.7955H55.0247Z" fill="#2CE69D"/>
<path d="M16.3019 30.2037L19.8512 32.1262L16.2159 33.636L17.8117 36.9755L13.6606 35.5379L11.7828 38.922L10.2661 34.3238L16.3019 30.2037Z" fill="#FF7140"/>
<path d="M16.4326 30.6749C15.9339 32.116 15.1394 33.3059 13.7844 34.0763C13.7844 34.0763 9.27561 36.2946 6.18721 33.2406C3.10226 30.1866 3.19167 26.6717 3.19167 26.6717C3.19167 26.6717 3.20887 25.3235 4.03772 24.9762C4.86656 24.6288 5.67133 25.2616 5.67133 25.2616C6.20785 23.0434 8.60841 24.0201 8.60841 24.0201C7.8965 22.3933 7.67983 20.5843 7.75205 18.8097C7.783 18.06 7.85866 17.2999 8.12692 16.5983C8.39518 15.8967 8.87323 15.2501 9.54043 14.9131C10.2076 14.5761 11.0846 14.5933 11.6624 15.0713C12.0889 15.4221 12.3159 15.9621 12.419 16.5054C12.5222 17.0488 12.5188 17.6025 12.5738 18.1528C12.6942 19.3634 13.1069 20.5465 13.7706 21.5679C14.455 22.6272 15.4008 23.5145 15.9889 24.6288C16.9794 26.5066 17.1273 28.6664 16.4326 30.6715V30.6749Z" fill="#FFE240"/>
<path d="M12.1608 31.318C12.0094 31.318 11.8822 31.2045 11.865 31.0498C11.7412 29.7945 12.2158 28.5185 13.0928 27.6243C12.9862 27.6484 12.8796 27.6759 12.7695 27.7034C12.5803 27.7516 12.3912 27.7997 12.1986 27.8376C11.2838 28.0164 10.5168 27.8307 10.0904 27.3251C9.72237 26.8918 9.62607 26.2143 9.83931 25.5608C10.1351 24.6563 10.9398 23.8859 11.9922 23.5076C12.969 23.1534 14.0007 23.1499 14.8846 23.1947C15.0497 23.2015 15.1735 23.3425 15.1666 23.5042C15.1597 23.6693 15.0153 23.7896 14.8571 23.7862C14.0317 23.7449 13.0721 23.7484 12.1952 24.0648C11.3113 24.3846 10.6441 25.014 10.4033 25.7465C10.2864 26.1077 10.2623 26.6132 10.5443 26.9468C10.9467 27.4249 11.7549 27.3251 12.0851 27.2598C12.2639 27.2254 12.4428 27.1772 12.6216 27.1325C13.0928 27.0122 13.5812 26.8884 14.097 26.9331C14.2243 26.9434 14.3309 27.0362 14.3584 27.1635C14.3859 27.2873 14.3309 27.418 14.2208 27.4833C13.0446 28.1849 12.319 29.6294 12.4565 30.9913C12.4737 31.153 12.3534 31.3008 12.1917 31.3146C12.1814 31.3146 12.1711 31.3146 12.1608 31.3146V31.318Z" fill="#B16101"/>
<path d="M5.51626 30.9226C5.39245 30.9226 5.2652 30.9123 5.13795 30.8847C4.38476 30.7334 3.71068 30.1694 3.33925 29.3681C3.05379 28.7559 2.93342 28.0199 2.97469 27.1119C2.98157 26.9469 3.12946 26.823 3.28422 26.8299C3.4493 26.8368 3.57311 26.9744 3.56623 27.1395C3.5284 27.9477 3.63158 28.5942 3.87576 29.117C4.16465 29.736 4.69085 30.19 5.25488 30.3001C5.84298 30.417 6.47923 30.1178 6.69246 29.6294L6.69934 29.5744C6.71654 29.4128 6.86442 29.2958 7.02607 29.313C7.18771 29.3302 7.30464 29.4781 7.28744 29.6397L7.27713 29.736C7.27713 29.7601 7.26681 29.7876 7.25993 29.8117C6.99855 30.4789 6.27632 30.9191 5.5197 30.9191L5.51626 30.9226Z" fill="#B16101"/>
<path d="M7.94427 29.9045C7.41807 29.9045 6.89531 29.7635 6.45509 29.4746C5.47148 28.8281 4.99687 27.4902 5.35455 26.3691C5.4027 26.2143 5.57122 26.1249 5.72598 26.1765C5.88075 26.2246 5.97017 26.3931 5.91858 26.5479C5.64 27.4283 6.01144 28.4738 6.78182 28.9794C7.5522 29.4884 8.65962 29.4162 9.35777 28.8143C9.48159 28.7077 9.6673 28.7215 9.77736 28.8453C9.88397 28.9691 9.87021 29.1548 9.7464 29.2649C9.2546 29.6913 8.59771 29.908 7.9477 29.908L7.94427 29.9045Z" fill="#B16101"/>
<path d="M4.17813 48.3283C3.93051 48.2836 3.75511 48.1151 3.78263 47.9535L4.04056 46.5228C4.07152 46.3611 4.29507 46.2648 4.54269 46.3095C4.79031 46.3542 4.96571 46.5228 4.93819 46.6844L4.68026 48.1151C4.6493 48.2768 4.42575 48.3731 4.17813 48.3283Z" fill="#FFC200"/>
</g>
</g>
<defs>
<clipPath id="clip0_9714_72575">
<rect width="60" height="48" fill="white"/>
</clipPath>
</defs>
</svg>
