<svg width="60" height="48" viewBox="0 0 60 48" fill="none" xmlns="http://www.w3.org/2000/svg">
<g clip-path="url(#clip0_9714_72573)">
<mask id="mask0_9714_72573" style="mask-type:luminance" maskUnits="userSpaceOnUse" x="0" y="7" width="64" height="43">
<path d="M64 7H0V49.1493H64V7Z" fill="white"/>
</mask>
<g mask="url(#mask0_9714_72573)">
<path d="M63.8296 26.1338C63.8296 26.1338 63.8079 26.1411 63.7934 26.1447C63.6777 26.1664 63.5691 26.094 63.5474 25.9855C63.1061 23.5436 49.9523 23.3338 31.079 26.9116C22.6064 28.5179 14.7452 30.5655 8.93165 32.6999C3.38578 34.7294 0.209473 36.6938 0.437385 37.9491C0.459091 38.0576 0.379503 38.1662 0.263738 38.1879C0.147973 38.2096 0.0394429 38.1372 0.017737 38.0287C-0.333176 36.0932 4.59046 33.8539 8.78694 32.32C14.615 30.1784 22.5087 28.1235 31.003 26.5137C46.7181 23.5363 63.3448 22.4945 63.9599 25.9059C63.9779 26.0036 63.9164 26.1013 63.8224 26.1338H63.8296Z" fill="#2CE69D"/>
<path d="M56.6815 25.4139C53.4907 24.3648 43.9762 21.5141 43.9762 21.5141C43.7592 22.48 40.9917 30.1169 31.3651 29.397C23.7644 28.8254 18.7865 24.3793 18.7865 24.3793C18.7865 24.3793 7.05441 26.3871 6.42855 26.5897C5.8027 26.7923 4.46055 27.4869 5.87143 28.706C7.28232 29.9252 14.4019 36.3067 14.4019 36.3067C14.4019 36.3067 10.1041 44.5586 9.77127 45.0651C9.44206 45.5715 8.66065 47.5323 11.3847 46.9499C14.1088 46.3674 33.9155 39.6711 33.9155 39.6711C33.9155 39.6711 54.7134 43.7265 55.6974 44.0557C57.0287 44.4971 57.7631 43.5276 56.5874 42.2795C55.4985 41.1254 49.0771 33.4234 49.0771 33.4234C49.0771 33.4234 56.6163 28.6445 57.4158 28.0078C58.2153 27.3711 59.8758 26.4631 56.6815 25.4139Z" fill="#EDFF4A"/>
<path d="M31.3651 29.3933C40.9917 30.1169 43.7592 22.48 43.9762 21.5105C43.9762 21.5105 42.4496 12.4989 37.5694 7.72718C36.7807 7.04706 35.775 6.42482 36.2489 7.90806C36.7228 9.3913 37.0882 15.0638 34.2013 17.5491C31.3144 20.0381 28.7748 19.9621 28.2611 14.1413C28.2503 12.6725 28.3986 10.2125 28.9159 8.94271C28.9159 8.94271 29.057 8.52306 29.2017 8.17938C29.3826 7.74888 29.5345 7.3835 29.057 7.51373C28.1996 7.74526 26.9515 8.88483 26.9515 8.88483C26.9515 8.88483 25.197 10.2306 23.3809 12.8968C21.5648 15.563 18.6635 20.1828 18.7829 24.3756C18.7829 24.3756 23.7608 28.8217 31.3615 29.3933H31.3651Z" fill="#5BB3FD"/>
<path d="M28.7824 18.363C29.1767 19.0576 30.4104 20.0308 31.9225 20.0199C33.0223 20.0127 34.6177 19.4628 36.0033 16.9015C38.5609 12.1805 36.3397 7.77055 36.1299 7.37622C36.1407 7.51007 36.1733 7.6801 36.2456 7.90078C36.7195 9.38402 37.0849 15.0565 34.198 17.5418C31.3112 20.0308 28.7716 19.8716 28.2578 14.0508C28.2578 14.0508 27.9359 16.3372 28.6992 18.2798C28.7318 18.3015 28.7607 18.3305 28.7788 18.363H28.7824Z" fill="#EDFF4A"/>
<path d="M37.5661 7.71633C37.2586 7.45224 36.9222 7.19901 36.6509 7.07239C37.0271 7.29668 38.2788 8.24813 38.6985 11.2074C39.0024 13.3599 39.0675 16.5398 37.4793 18.8334C38.4633 17.73 38.9951 16.4819 39.1615 15.8597C40.6773 10.198 37.5661 7.71995 37.5661 7.71995V7.71633Z" fill="#EDFF4A"/>
<path d="M33.3116 20.9099C38.5645 19.7487 38.6151 14.3801 38.1774 11.2797C37.9422 9.61922 37.4466 8.66415 37.027 8.12512C37.6564 9.82542 38.4993 13.3924 36.4626 17.1476C35.1204 19.622 33.554 20.3709 32.3529 20.512C32.2046 20.5301 32.0599 20.5373 31.9224 20.5409C31.1953 20.5482 30.5116 20.3456 29.9219 20.0417C30.4573 20.4867 31.1483 20.8086 32.0491 20.9135C32.4579 20.9606 32.8449 20.9714 33.2176 20.9497C33.2465 20.9316 33.2754 20.9172 33.3116 20.9099Z" fill="#EDFF4A"/>
<path d="M55.0242 31.7955C49.2142 33.9046 41.4037 35.9377 33.0035 37.5295C24.5092 39.1393 16.4201 40.1052 10.2303 40.25C5.77698 40.3549 0.397517 40.0727 0.0466046 38.1336C0.0285163 38.0251 0.104487 37.9166 0.220252 37.8949C0.336017 37.8732 0.444547 37.9455 0.466253 38.054C0.694165 39.313 4.34438 39.9822 10.2339 39.8448C16.402 39.7001 24.4622 38.7378 32.9347 37.1315C41.3132 35.5434 49.0984 33.5175 54.8867 31.4156C54.9518 31.3903 55.0169 31.3686 55.082 31.3433C60.6279 29.3138 63.8042 27.3494 63.5763 26.0941C63.5582 25.9855 63.6342 25.877 63.75 25.8553C63.8657 25.8336 63.9743 25.9059 63.996 26.0145C64.3469 27.9499 59.4232 30.1892 55.2268 31.7231C55.1616 31.7485 55.0965 31.7702 55.0314 31.7955H55.0242Z" fill="#2CE69D"/>
<path d="M59.6549 25.1933C60.0854 25.7323 60.903 25.8227 61.4746 25.3959C62.0498 24.969 62.1619 24.1839 61.7314 23.6449C61.3009 23.1059 60.4833 23.0154 59.9118 23.4423C59.3365 23.8692 59.2244 24.6542 59.6549 25.1933Z" fill="#F878F3"/>
<path d="M6.39491 41.2461C7.09082 41.0565 7.50892 40.3668 7.32878 39.7056C7.14864 39.0444 6.43846 38.6621 5.74256 38.8517C5.04665 39.0412 4.62855 39.731 4.80869 40.3922C4.98883 41.0534 5.699 41.4357 6.39491 41.2461Z" fill="#5BB3FD"/>
<path d="M29.1662 26.4016C29.1662 26.4016 28.612 33.8228 25.2782 33.6716C21.9443 33.5205 22.7205 25.3565 23.3469 23.3722C23.3469 23.3722 26.176 25.605 29.1704 26.4051L29.1662 26.4016Z" fill="white"/>
<path d="M29.0106 26.35C29.0106 26.35 28.5424 30.8627 26.6246 31.1581C24.7069 31.4534 23.1766 29.7829 23.3475 23.3721C23.3475 23.3721 25.1558 25.4011 29.0106 26.35Z" fill="#2CE69D"/>
<path d="M38.174 25.1498C38.174 25.1498 40.9078 33.6039 37.7126 34.9813C34.5213 36.3583 32.2712 27.0127 32.2712 27.0127C32.2712 27.0127 35.8691 27.3722 38.1744 25.1537L38.174 25.1498Z" fill="white"/>
<path d="M37.5887 25.8179C37.5887 25.8179 39.3666 31.1423 37.7486 32.5279C36.5871 33.5215 34.5315 33.2124 32.2717 27.0088C32.2717 27.0088 35.3904 27.6421 37.5887 25.8179Z" fill="#2CE69D"/>
<path d="M23.6185 32.9838C24.0493 33.5649 24.6023 33.8744 25.265 33.9019C25.378 33.9069 25.4904 33.9041 25.602 33.8937C28.7623 33.599 29.3595 27.0552 29.4053 26.4646C30.7538 26.8514 31.634 26.9634 31.9402 26.9582C31.9595 26.9564 31.9749 26.9549 31.9864 26.9538C31.998 26.9528 31.998 26.9528 32.0095 26.9517L32.0357 27.0657C32.1046 27.3466 33.7249 33.9787 36.2582 35.1635C36.5792 35.316 36.9069 35.3748 37.2303 35.3446C37.4228 35.3267 37.62 35.2772 37.8103 35.1935C41.1621 33.7471 38.5193 25.436 38.4047 25.0817L38.2852 24.7162L38.0002 24.9913C35.8092 27.1021 32.3322 26.7896 32.2968 26.7851L32.0185 26.7567L32.0055 26.7424L32.0066 26.7539L31.9558 26.7509L31.9753 26.8345L31.969 26.8506L31.9513 26.7436C31.9513 26.7436 30.925 26.7306 28.8437 26.0627C28.8076 26.0506 28.7677 26.0388 28.7316 26.0266C28.4994 25.9512 28.2507 25.8657 27.9974 25.7728C25.579 24.8219 23.5193 23.2202 23.4983 23.2027L23.2174 22.9804L23.1128 23.3163C22.6518 24.7843 21.9043 30.6742 23.6192 32.9915L23.6185 32.9838ZM33.0355 28.7935C33.7906 30.0626 34.9941 31.4763 36.5664 31.3491C39.191 31.1392 37.8081 26.5118 37.6145 25.8931C37.7602 25.7902 37.9105 25.6947 38.0548 25.5764C38.5223 27.1752 40.2249 33.6481 37.6196 34.7725C37.2388 34.9361 36.8653 34.9283 36.4795 34.7468C34.9325 34.0214 33.698 30.8595 33.0393 28.7931L33.0355 28.7935ZM23.4389 23.9809C23.6728 25.8228 23.9089 29.5205 26.0319 29.5943C27.8122 29.6573 28.5902 27.8414 28.8712 26.8988C28.678 28.5321 27.8697 33.5619 25.2919 33.4412C24.7773 33.4193 24.3589 33.1788 24.0165 32.7137C22.6127 30.8178 22.9886 26.0225 23.4385 23.9771L23.4389 23.9809Z" fill="black"/>
<path d="M35.1484 27.0085C35.1484 27.0085 35.7466 27.7603 35.4803 28.4025C35.2179 29.0444 34.4763 28.9194 34.1282 28.684C33.6097 28.3285 33.0618 27.242 33.2127 27.1114L35.1484 27.0085Z" fill="white"/>
<path d="M25.8228 25.1838C25.8228 25.1838 25.9438 26.481 25.094 26.4864C24.2442 26.4919 23.8387 25.6406 24.0616 24.1172L25.8232 25.1876L25.8228 25.1838Z" fill="white"/>
<path d="M31.9132 30.1252C31.9132 30.1252 32.1949 30.5221 31.953 30.9679C31.7112 31.4137 30.8545 31.8042 30.0359 31.6864C29.2173 31.5686 28.5279 31.1709 28.4118 30.7585C28.2957 30.3461 28.399 28.8727 29.2205 28.5631C30.0419 28.2535 31.6389 29.7236 31.9167 30.121L31.9132 30.1252Z" fill="#FF7140"/>
<path d="M42.2766 29.6208C42.2766 29.6208 43.4713 29.8161 43.3645 31.2937C43.2574 32.7675 42.7864 35.0867 40.7748 36.082C38.7632 37.0772 38.2689 35.2751 38.2011 34.5476C38.1332 33.8201 39.3916 29.0783 42.2766 29.6208Z" fill="#FF7140"/>
<path d="M28.5844 31.3597C28.6075 31.3575 28.6306 31.3553 28.6492 31.3459C28.773 31.2994 28.8342 31.1655 28.7881 31.0456C28.787 31.034 28.322 29.8776 28.6865 29.2069C28.8022 28.9903 28.9954 28.8558 29.2725 28.7872C30.6319 28.4585 32.0031 30.505 32.0168 30.527C32.0888 30.6329 32.2355 30.6658 32.3495 30.5969C32.4634 30.5281 32.4967 30.3852 32.4247 30.2793C32.3615 30.1842 30.8462 27.926 29.1531 28.3402C28.7393 28.4409 28.4378 28.6632 28.2555 28.9986C27.7878 29.8537 28.3134 31.1597 28.3342 31.216C28.3743 31.3132 28.4767 31.3697 28.5806 31.36L28.5844 31.3597Z" fill="black"/>
<path d="M31.2164 34.8845C31.378 34.8694 31.4773 34.8097 31.5028 34.7918C31.6122 34.7156 31.6378 34.5734 31.5623 34.4717C31.4871 34.3739 31.345 34.3483 31.2345 34.413C31.2121 34.4228 30.8817 34.543 30.2339 33.8424C29.47 33.0206 28.6621 32.2262 27.9054 32.3977C27.4909 32.4907 27.1799 32.8614 26.9836 33.5048C26.9486 33.6285 27.0185 33.754 27.1498 33.7883C27.2773 33.823 27.4144 33.752 27.4494 33.6284C27.5474 33.3047 27.7239 32.9078 28.0132 32.8458C28.5541 32.7333 29.4429 33.6871 29.8706 34.1519C30.4794 34.8096 30.9434 34.9138 31.2206 34.888L31.2164 34.8845Z" fill="black"/>
<path d="M38.3223 36.3106L38.33 36.3098C38.4644 36.2934 38.5544 36.1763 38.5387 36.0496C38.2551 33.925 38.5967 32.2585 39.5485 31.0981C40.6185 29.7908 42.1035 29.6018 42.1186 29.5965C42.2533 29.584 42.3472 29.4665 42.3315 29.3398C42.3196 29.2128 42.1945 29.1196 42.0643 29.1395C41.995 29.146 40.3645 29.3563 39.1687 30.8152C38.1332 32.0766 37.7636 33.8583 38.0629 36.1096C38.0782 36.2324 38.1949 36.3186 38.3258 36.3063L38.3223 36.3106Z" fill="black"/>
<path d="M40.8652 30.5601C40.8652 30.5601 41.405 29.8535 42.2382 30.0864C43.0715 30.3194 42.4 31.1546 41.8863 31.5171C41.46 31.817 39.821 31.8534 40.8656 30.5639L40.8652 30.5601Z" fill="white"/>
<path d="M21.0621 45.104L18.6052 45.9868L21.3048 47.0929L20.1323 49.5742L23.1995 48.4966L24.6019 51.0013L25.7149 47.5896L21.0621 45.104Z" fill="#FF7140"/>
<path d="M25.5074 37.9404C26.0249 37.3113 26.6758 36.5227 27.2513 35.9461C27.9303 35.2642 29.3617 34.8108 29.6815 35.959C29.6815 35.959 30.111 37.0577 27.6557 40.2485C27.6557 40.2485 29.5762 40.1712 29.3887 41.8549C29.3887 41.8549 30.1083 41.6142 30.5971 42.067C31.0858 42.5198 30.7559 43.462 30.7559 43.462C30.7559 43.462 29.9288 45.9324 27.0085 47.2767C24.0882 48.6211 21.509 45.9383 21.509 45.9383C20.7616 45.0595 20.5082 44.0308 20.526 42.8997C20.5427 41.7757 20.9199 40.687 20.9545 39.5657C20.9593 39.4347 20.916 39.3076 20.8603 39.1896C20.7743 39.005 20.7094 38.8015 20.6685 38.609C20.6151 38.3523 20.6304 38.0767 20.7462 37.8378C20.8926 37.5414 21.1863 37.3362 21.5026 37.2259C22.2233 36.978 23.0825 37.2261 23.5618 37.8165C24.0411 38.4069 24.1065 39.2979 23.7203 39.9538C23.7203 39.9538 25.2232 38.2786 25.5084 37.9332L25.5074 37.9404Z" fill="#FFC20B"/>
</g>
</g>
<defs>
<clipPath id="clip0_9714_72573">
<rect width="60" height="48" fill="white"/>
</clipPath>
</defs>
</svg>
