<svg width="60" height="48" viewBox="0 0 60 48" fill="none" xmlns="http://www.w3.org/2000/svg">
<g clip-path="url(#clip0_9714_72574)">
<path d="M1.93284 44.3149C1.83803 44.3149 1.74976 44.2528 1.72688 44.1612C1.26917 42.3958 5.65659 40.1563 9.41956 38.5871C14.6406 36.4097 21.7645 34.2127 29.4735 32.4081C43.7408 29.0636 58.979 27.4616 59.7833 30.5609C59.8127 30.6688 59.7408 30.78 59.6263 30.8061C59.5119 30.8323 59.3975 30.7669 59.3681 30.659C58.7992 28.4555 46.6897 28.7922 29.5716 32.8004C21.8854 34.6018 14.7878 36.7889 9.5863 38.9565C4.63002 41.026 1.84457 42.9352 2.13554 44.0664C2.16496 44.1743 2.09304 44.2855 1.97861 44.3116C1.96227 44.3149 1.94592 44.3182 1.9263 44.3182L1.93284 44.3149Z" fill="#2CE69D"/>
<path d="M5.43767 42.3546C5.38435 42.2155 5.4491 42.0556 5.54812 41.9451C5.64715 41.8347 5.77665 41.7604 5.89091 41.6671C6.26797 41.3586 6.45269 40.8539 6.44508 40.3626C6.43746 39.9494 6.29463 39.5285 6.00326 39.2371C5.67762 38.9115 5.20343 38.782 4.74639 38.7553C4.17127 38.721 3.55616 38.8486 3.14292 39.2505C2.80585 39.578 2.63636 40.0598 2.62874 40.534C2.62303 40.8692 2.69349 41.21 2.86488 41.4995C3.03628 41.789 3.3105 42.0175 3.63043 42.1013C3.76755 42.1375 3.91228 42.147 4.04558 42.1965C4.17889 42.246 4.30648 42.3488 4.32933 42.4917" fill="#FFC200"/>
<path d="M4.91412 42.7087C5.19025 42.0079 5.56541 40.932 5.8225 40.2121C5.83202 40.1874 5.82631 40.1607 5.81298 40.1417C5.73109 40.0255 5.63587 39.9303 5.52351 39.8484C5.11217 39.5304 4.66846 39.7798 4.44755 40.1836L4.60181 40.174C4.50468 40.0484 4.39804 39.9398 4.27045 39.8446C3.69724 39.4047 3.36016 39.8693 3.28589 40.4464C3.35826 40.6635 3.55822 40.8577 3.67439 41.0615C4.04193 41.6023 4.44755 42.1946 4.82843 42.7202C4.50468 42.1584 4.13143 41.5414 3.78864 40.9872C3.67057 40.7968 3.55631 40.6025 3.43443 40.414L3.44586 40.4711C3.47252 40.3302 3.5068 40.1912 3.56584 40.0693C3.77722 39.5837 4.24569 40.0255 4.45327 40.2845C4.49135 40.3378 4.57705 40.3321 4.60752 40.275C4.90079 39.736 5.33308 39.7684 5.68158 40.2293L5.67205 40.1588C5.44544 40.892 5.11598 41.9737 4.91602 42.7049L4.91412 42.7087Z" fill="white"/>
<path d="M5.61852 42.2841C5.61852 42.2841 5.61852 42.2213 5.5214 42.2384C5.42428 42.2556 4.24167 42.427 4.24167 42.427C4.24167 42.427 4.09694 42.4327 4.11598 42.5069C4.13503 42.5812 4.26643 43.0326 4.26643 43.0326C4.26643 43.0326 4.28357 43.1335 4.48543 43.1125C4.68729 43.0916 5.52902 42.9297 5.52902 42.9297C5.52902 42.9297 5.6547 42.9031 5.65661 42.8307C5.65851 42.7583 5.62043 42.286 5.62043 42.286L5.61852 42.2841Z" fill="#FF7300"/>
<path d="M4.25296 38.3173C4.41102 38.2925 4.52719 38.1878 4.51005 38.083L4.37103 37.1537C4.3558 37.0471 4.21297 36.9804 4.05491 37.0052C3.89685 37.0299 3.78068 37.1347 3.79782 37.2394L3.93684 38.1687C3.95207 38.2754 4.0949 38.342 4.25296 38.3173Z" fill="#FFC200"/>
<path d="M6.50039 39.2599C6.60704 39.378 6.7632 39.4141 6.84508 39.338L7.57255 38.6791C7.65634 38.6048 7.63539 38.4467 7.52875 38.3287C7.4221 38.2106 7.26595 38.1744 7.18406 38.2506L6.4566 38.9095C6.3728 38.9838 6.39375 39.1418 6.50039 39.2599Z" fill="#FFC200"/>
<path d="M2.66486 41.9203C2.56964 41.7909 2.43063 41.7318 2.35636 41.787L1.68983 42.2765C1.61366 42.3317 1.62889 42.4821 1.72411 42.6116C1.81933 42.7411 1.95834 42.8002 2.03261 42.7449L2.69914 42.2555C2.77531 42.2003 2.76008 42.0498 2.66486 41.9203Z" fill="#FFC200"/>
<path d="M2.29706 39.875C2.3618 39.7284 2.33133 39.5741 2.2285 39.5284L1.33536 39.138C1.23252 39.0942 1.09922 39.1761 1.03447 39.3227C0.969719 39.4694 1.00019 39.6236 1.10302 39.6693L1.99617 40.0597C2.099 40.1035 2.23231 40.0216 2.29706 39.875Z" fill="#FFC200"/>
<path d="M7.94946 41.7394C8.0104 41.5908 7.97993 41.4385 7.88281 41.3985L7.02775 41.0462C6.93063 41.0062 6.80113 41.0938 6.74019 41.2423C6.67925 41.3909 6.70973 41.5432 6.80685 41.5832L7.66191 41.9355C7.75903 41.9755 7.88852 41.8879 7.94946 41.7394Z" fill="#FFC200"/>
<path d="M25.8869 14.9994C25.8869 14.9994 24.3307 16.2777 22.7712 18.7722C21.215 21.2634 18.7369 25.5756 19.0181 29.4138C19.0181 29.4138 8.32741 31.5683 7.76182 31.771C7.19623 31.9737 5.99313 32.6472 7.33681 33.7228C8.6805 34.8016 15.4774 40.4575 15.4774 40.4575C15.4774 40.4575 11.8681 48.1371 11.5836 48.6079C11.2992 49.0787 10.6617 50.8964 13.1398 50.2916C15.618 49.6868 33.5305 43.0174 33.5305 43.0174C33.5305 43.0174 52.79 46.1788 53.7087 46.4534C54.9478 46.8229 55.5853 45.914 54.4508 44.8024C53.4014 43.7759 47.193 36.8874 47.193 36.8874C47.193 36.8874 53.9179 32.3071 54.6274 31.7023C55.3368 31.0975 56.8211 30.2213 53.8493 29.3451C50.8742 28.469 42.0275 26.1118 42.0275 26.1118C42.0275 26.1118 40.2588 17.8928 35.5836 13.6525C34.8317 13.0509 33.8836 12.5082 34.3805 13.8552C34.8775 15.2021 35.4431 20.3872 32.893 22.7477C30.3429 25.1049 28.0087 25.1049 27.2992 19.7824C27.2273 18.4355 27.2633 16.1796 27.6883 14.9994C27.6883 14.9994 27.7994 14.6104 27.9171 14.2932C28.0642 13.8944 28.1917 13.5544 27.7569 13.6884C26.9788 13.9238 25.8803 15.0027 25.8803 15.0027L25.8869 14.9994Z" fill="#EDFF4A"/>
<path d="M42.0277 26.1118C42.0277 26.1118 40.259 17.8928 35.5839 13.6525C34.8319 13.0509 33.8838 12.5082 34.3808 13.8552C34.8777 15.2021 35.4433 20.3872 32.8932 22.7477C30.3432 25.1049 28.0089 25.1049 27.2994 19.7824C27.2275 18.4355 27.2635 16.1796 27.6885 14.9994C27.6885 14.9994 27.7996 14.6104 27.9173 14.2932C28.0645 13.8944 28.192 13.5544 27.7571 13.6884C26.9791 13.9238 25.8806 15.0027 25.8806 15.0027C25.8806 15.0027 24.3244 16.281 22.7649 18.7755C21.2087 21.2667 18.7306 25.5789 19.0117 29.4171C19.0117 29.4171 23.7621 33.3566 30.7649 33.677C39.6313 34.0824 41.8609 27.0076 42.0211 26.1151L42.0277 26.1118Z" fill="#5BB3FD"/>
<path d="M37.3749 21.0574C37.097 22.3063 35.3839 26.2622 31.0553 25.8829C26.7268 25.5037 27.2923 19.6908 27.2923 19.6908C28.0018 25.0133 30.3393 25.0885 32.8861 22.7313C35.4362 20.3741 34.8673 15.189 34.3737 13.8388C33.88 12.4886 34.8248 13.0345 35.5768 13.6361C35.5768 13.6361 38.5322 15.8265 37.3716 21.0541L37.3749 21.0574Z" fill="#EDFF4A"/>
<path d="M30.7812 25.507C29.3525 25.507 28.0677 24.6733 27.5609 23.856C27.5021 23.7612 27.5348 23.6369 27.6361 23.5781C27.7375 23.5225 27.8682 23.5519 27.9271 23.65C28.3259 24.2908 29.5225 25.1637 30.9283 25.0983C32.3701 25.0329 33.619 23.9998 34.5442 22.1167C36.8065 17.5037 34.2794 13.3549 34.2532 13.3124C34.1944 13.2176 34.227 13.0934 34.3284 13.0346C34.4297 12.9757 34.5605 13.0084 34.6194 13.1065C34.6455 13.149 37.2871 17.4808 34.9299 22.2867C33.6745 24.8498 32.0726 25.4481 30.9512 25.5004C30.8956 25.5004 30.84 25.5037 30.7845 25.5037L30.7812 25.507Z" fill="#5BB3FD"/>
<path d="M32.275 26.2818C32.1802 26.2818 32.0952 26.2229 32.069 26.1314C32.0396 26.0235 32.105 25.9123 32.2194 25.8829C37.0188 24.6733 36.8422 19.7268 36.3126 16.8858C35.7732 13.9957 34.4524 13.4399 34.4393 13.4334C34.3314 13.3909 34.2791 13.2732 34.3249 13.1686C34.3706 13.0672 34.4949 13.0182 34.6028 13.0607C34.6649 13.0868 36.1491 13.7113 36.7311 16.8138C37.2869 19.7922 37.4569 24.9806 32.3273 26.272C32.3077 26.2752 32.2914 26.2785 32.2717 26.2785L32.275 26.2818Z" fill="#5BB3FD"/>
<path d="M7.88919 45.9201C4.36487 45.9201 2.0502 45.4199 1.75269 44.2593C1.72327 44.1514 1.79519 44.0402 1.90962 44.0141C2.02405 43.9879 2.13847 44.0533 2.1679 44.1612C2.73675 46.3647 14.8463 46.028 31.9644 42.0198C39.6505 40.2184 46.7482 38.0312 51.9497 35.8637C56.9059 33.7942 59.6914 31.8849 59.4004 30.7538C59.371 30.6459 59.4429 30.5347 59.5574 30.5086C59.6718 30.4824 59.7862 30.5478 59.8156 30.6557C60.2733 32.4211 55.8859 34.6606 52.1229 36.2299C46.9019 38.4072 39.778 40.6042 32.069 42.4088C23.1307 44.5045 13.8099 45.9168 7.89573 45.9168L7.88919 45.9201Z" fill="#2CE69D"/>
<path d="M26.2137 28.4526C26.2137 28.4526 24.2685 28.4592 23.935 30.715C23.6015 32.9708 23.6342 36.5278 25.537 37.1294C27.4397 37.7342 28.7409 36.2728 28.8749 34.5891C29.009 32.9054 29.3849 28.3251 26.2137 28.4526Z" fill="white"/>
<path d="M26.3903 37.4726C26.0928 37.4726 25.7855 37.4236 25.4716 37.3222C23.5493 36.7109 23.3302 33.3664 23.7258 30.6855C24.0691 28.3611 26.0634 28.2532 26.204 28.2499C26.9657 28.2205 27.5934 28.4428 28.0707 28.9136C29.4308 30.2507 29.1888 33.2912 29.0875 34.5858C29.0025 35.6712 28.4859 36.5997 27.7078 37.0934C27.309 37.3451 26.8644 37.4726 26.387 37.4726H26.3903ZM26.2138 28.6553C26.1353 28.6553 24.4483 28.7011 24.1443 30.7444C23.8435 32.7779 23.8108 36.3709 25.6024 36.9397C26.2922 37.1588 26.9363 37.0934 27.4724 36.7566C28.1427 36.3316 28.5873 35.5176 28.6625 34.576C28.7638 33.3141 28.9927 30.4011 27.7667 29.1947C27.3711 28.8057 26.8676 28.6291 26.2203 28.6553H26.2138Z" fill="black"/>
<path d="M25.9684 28.7567C25.9684 28.7567 24.4154 28.8122 24.3337 30.6627C24.2585 32.33 24.1179 34.9912 25.7689 35.2364C27.7044 35.5209 27.8842 33.6639 27.8057 31.5192C27.7469 29.9565 27.4036 28.7893 25.9684 28.7567Z" fill="#2CE69D"/>
<path d="M26.0765 29.5903C26.0765 29.5903 24.8734 29.5413 24.8178 31.0125C24.7687 32.2646 24.7589 33.9745 25.8443 34.1805C27.175 34.4322 27.3973 33.0362 27.3155 31.4931C27.2632 30.4959 27.1226 29.6655 26.0765 29.5936V29.5903Z" fill="black"/>
<path d="M25.5763 29.9172C25.5763 29.9172 25.1219 29.9303 25.0761 30.5057C25.0303 31.0811 25.0009 31.6696 25.4553 31.8004C25.9098 31.9311 26.2269 31.5977 26.2432 31.1825C26.2596 30.7673 26.3642 29.8453 25.5763 29.9172Z" fill="white"/>
<path d="M32.6181 34.5826C32.6181 34.5826 32.5168 35.6353 31.3823 36.2565C30.2119 36.9005 30.0942 36.4853 29.9079 36.3317C29.7215 36.178 28.5544 34.5891 29.5908 33.7064C30.6271 32.8237 32.1572 33.4874 32.6181 34.5826Z" fill="#FF7140"/>
<path d="M30.1402 36.8383C30.1043 36.8383 30.065 36.8285 30.0291 36.8089C29.4471 36.4721 28.8292 35.4783 28.8685 34.589C28.8946 33.9809 29.2183 33.5134 29.797 33.2388C31.1799 32.5882 32.3405 33.6409 32.7622 34.2915C32.8243 34.3863 32.7916 34.5106 32.6936 34.5694C32.5955 34.6283 32.4647 34.5988 32.4026 34.504C32.3601 34.4419 31.3695 32.9544 29.9866 33.6017C29.5485 33.8077 29.3131 34.1477 29.2935 34.6054C29.2608 35.3213 29.7806 36.1943 30.2514 36.4623C30.3527 36.5212 30.3854 36.6454 30.3233 36.7402C30.2841 36.8023 30.2122 36.8383 30.1402 36.8383Z" fill="black"/>
<path d="M25.0072 38.8066C24.9026 38.8066 24.8143 38.7346 24.798 38.6333C24.5528 37.0477 24.0036 35.9655 23.1601 35.4163C22.3591 34.8932 21.5581 35.0599 21.5516 35.0632C21.4371 35.0894 21.3227 35.0207 21.2966 34.9128C21.2704 34.8049 21.3391 34.697 21.4535 34.6709C21.4927 34.6611 22.431 34.4584 23.3889 35.0795C24.3403 35.6942 24.9549 36.8711 25.2165 38.5777C25.2328 38.6889 25.1543 38.7902 25.0367 38.8066C25.0268 38.8066 25.017 38.8066 25.0072 38.8066Z" fill="black"/>
<path d="M38.1666 33.5788C38.3006 31.8951 38.6472 28.191 35.4759 28.3185C35.4759 28.3185 33.5307 28.3251 33.1972 30.5809C32.8637 32.8367 32.8964 36.3937 34.7992 36.9953C34.7992 36.9953 35.0411 37.1228 35.8486 37.1228C35.8486 37.1228 35.7702 34.0496 37.9802 33.605L38.1666 33.5788Z" fill="white"/>
<path d="M36.0644 37.3255H35.8453C35.1065 37.3255 34.8024 37.2242 34.7142 37.1849C32.8049 36.5638 32.5858 33.2291 32.9814 30.5548C33.3378 28.1551 35.4465 28.1192 35.4694 28.1192C36.3194 28.0865 37.0027 28.3153 37.4963 28.8024C38.6635 29.95 38.4771 32.2712 38.379 33.5168L38.3594 33.7587L38.0063 33.8078C36.0055 34.2131 36.0546 37.0934 36.0578 37.1228L36.0644 37.3288V37.3255ZM34.9005 36.8188C34.9005 36.8188 35.0901 36.9005 35.6361 36.9169C35.6623 36.1845 35.9042 33.8143 37.9344 33.4056H37.9671C38.0619 32.2025 38.209 30.0742 37.1956 29.0803C36.7836 28.6749 36.2213 28.4919 35.4824 28.5213C35.404 28.5213 33.7072 28.5638 33.4064 30.6104C33.1057 32.6439 33.073 36.2369 34.8645 36.8057L34.9005 36.8221V36.8188Z" fill="black"/>
<path d="M35.4101 35.6157C33.7591 35.3737 33.5957 32.1927 33.6709 30.5286C33.7559 28.6782 35.3055 28.6226 35.3055 28.6226C36.7407 28.6553 37.0938 30.3129 37.1494 31.8789L37.2246 33.2552C37.2246 33.2552 36.4563 33.6279 36.0313 34.1641C36.0313 34.1641 35.7207 34.527 35.6128 34.831C35.5049 35.1351 35.4069 35.6157 35.4069 35.6157H35.4101Z" fill="#2CE69D"/>
<path d="M38.6569 33.945C39.1604 33.9712 39.7783 34.3668 39.9973 34.5629C40.5269 35.0435 40.5531 35.6843 40.4485 36.3185C40.3438 36.9528 39.896 37.6197 39.3075 37.9336C38.8955 38.1526 38.2057 38.2997 37.6761 38.1624C37.117 38.0153 36.4959 37.5772 36.3749 37.0378C36.2539 36.4984 36.4174 35.4685 36.7345 35.0043C36.7345 35.0043 37.3067 33.8764 38.6602 33.945H38.6569Z" fill="#FF7140"/>
<path d="M38.1532 34.236C38.1532 34.236 37.6497 34.3373 37.5287 34.7526C37.4078 35.1678 37.6432 35.6255 38.1597 35.4849C38.6763 35.3443 38.9443 35.086 39.0032 34.8212C39.0522 34.6087 38.794 34.115 38.1532 34.2327V34.236Z" fill="white"/>
<path d="M35.116 29.2994C35.116 29.2994 33.9554 29.2536 33.8965 30.6496C33.8475 31.8396 33.7919 33.4775 34.8871 33.6574C36.1033 33.8568 36.3877 32.5719 36.3093 31.104C36.2602 30.1559 36.1229 29.368 35.1127 29.2994H35.116Z" fill="black"/>
<path d="M34.5797 29.623C34.5797 29.623 34.1253 29.6361 34.0795 30.2115C34.0337 30.7869 34.0043 31.3753 34.4588 31.5061C34.9132 31.6369 35.2303 31.3034 35.2467 30.8882C35.263 30.473 35.3676 29.5511 34.5797 29.623Z" fill="white"/>
<path d="M33.8637 37.7734C33.8637 37.7048 33.8343 37.6459 33.8082 37.5871C33.8082 37.5871 33.8082 37.5871 33.8049 37.5871C33.5858 37.0934 32.8699 37.7375 31.9937 38.0873C31.0129 38.4796 30.225 38.5352 30.31 39.1956C30.3263 39.3231 30.3787 39.431 30.4506 39.5225C30.4506 39.5225 30.4506 39.5225 30.4539 39.5193C30.5617 39.6598 30.7219 39.7579 30.9214 39.8168C31.2352 39.4441 32.2324 38.4436 33.6905 38.4436C33.8049 38.2213 33.8703 37.9925 33.8637 37.7734Z" fill="black"/>
<path d="M32.2393 39.6892C32.9193 39.4179 33.4358 38.9471 33.6876 38.4469C32.2295 38.4469 31.2323 39.4473 30.9185 39.82C31.2683 39.9214 31.7358 39.8887 32.2393 39.6892Z" fill="#912407"/>
<path d="M13.6766 29.754L17.0505 31.5816L13.5949 33.0168L15.1118 36.1913L11.1658 34.8247L9.38073 38.0417L7.93896 33.6707L13.6766 29.754Z" fill="#FF7140"/>
<path d="M13.8005 30.202C13.3264 31.5718 12.5712 32.703 11.2831 33.4353C11.2831 33.4353 6.99704 35.544 4.0612 32.6409C1.12863 29.7377 1.21363 26.3965 1.21363 26.3965C1.21363 26.3965 1.22998 25.1149 2.01788 24.7847C2.80579 24.4545 3.57081 25.0561 3.57081 25.0561C4.08082 22.9474 6.3628 23.8759 6.3628 23.8759C5.68605 22.3295 5.48008 20.6098 5.54874 18.9229C5.57816 18.2102 5.65009 17.4876 5.90509 16.8207C6.1601 16.1538 6.61453 15.5391 7.24878 15.2187C7.88303 14.8984 8.7167 14.9147 9.26594 15.3691C9.67134 15.7026 9.88711 16.2159 9.98519 16.7324C10.0833 17.249 10.08 17.7753 10.1323 18.2984C10.2467 19.4492 10.6391 20.5739 11.27 21.5449C11.9206 22.5518 12.8197 23.3953 13.3787 24.4545C14.3203 26.2396 14.4609 28.2927 13.8005 30.1987V30.202Z" fill="#FFE240"/>
<path d="M9.74027 30.8133C9.59643 30.8133 9.47546 30.7054 9.45911 30.5583C9.34142 29.365 9.79258 28.1521 10.6263 27.3021C10.5249 27.325 10.4236 27.3511 10.3189 27.3773C10.1391 27.423 9.95932 27.4688 9.77624 27.5048C8.9066 27.6748 8.17754 27.4982 7.77215 27.0176C7.42233 26.6057 7.33079 25.9617 7.53349 25.3405C7.81465 24.4807 8.57967 23.7483 9.58008 23.3887C10.5086 23.052 11.4894 23.0487 12.3296 23.0912C12.4865 23.0977 12.6042 23.2318 12.5977 23.3854C12.5911 23.5424 12.4538 23.6568 12.3034 23.6535C11.5188 23.6143 10.6066 23.6176 9.77297 23.9183C8.93275 24.2224 8.29851 24.8207 8.06966 25.517C7.9585 25.8603 7.93562 26.3409 8.2037 26.658C8.58621 27.1125 9.3545 27.0176 9.66835 26.9555C9.83835 26.9228 10.0084 26.8771 10.1784 26.8346C10.6263 26.7201 11.0905 26.6024 11.5809 26.6449C11.7019 26.6547 11.8032 26.743 11.8294 26.864C11.8555 26.9817 11.8032 27.1059 11.6986 27.168C10.5805 27.835 9.89066 29.2081 10.0214 30.5027C10.0378 30.6564 9.92336 30.797 9.7697 30.81C9.75989 30.81 9.75008 30.81 9.74027 30.81V30.8133Z" fill="#B16101"/>
<path d="M3.42353 30.4372C3.30583 30.4372 3.18487 30.4274 3.0639 30.4013C2.34792 30.2574 1.70714 29.7213 1.35405 28.9595C1.0827 28.3776 0.968271 27.6779 1.00751 26.8149C1.01404 26.6579 1.15462 26.5402 1.30174 26.5468C1.45867 26.5533 1.57637 26.6841 1.56983 26.841C1.53386 27.6093 1.63194 28.2239 1.86407 28.7209C2.13869 29.3093 2.63889 29.7409 3.17506 29.8455C3.73411 29.9567 4.33893 29.6722 4.54163 29.208L4.54817 29.1557C4.56451 29.002 4.7051 28.8909 4.85875 28.9072C5.01241 28.9236 5.12357 29.0641 5.10722 29.2178L5.09741 29.3093C5.09741 29.3322 5.0876 29.3584 5.08107 29.3813C4.8326 30.0155 4.14604 30.434 3.42679 30.434L3.42353 30.4372Z" fill="#B16101"/>
<path d="M5.73186 29.4696C5.23166 29.4696 4.73472 29.3356 4.31625 29.0609C3.38123 28.4463 2.93007 27.1746 3.27007 26.1088C3.31584 25.9616 3.47604 25.8766 3.62316 25.9257C3.77028 25.9714 3.85528 26.1316 3.80624 26.2788C3.54143 27.1157 3.89451 28.1096 4.62684 28.5902C5.35916 29.074 6.41188 29.0054 7.07555 28.4332C7.19324 28.3319 7.36979 28.345 7.47441 28.4627C7.57575 28.5804 7.56268 28.7569 7.44498 28.8615C6.97747 29.2669 6.35303 29.4729 5.73513 29.4729L5.73186 29.4696Z" fill="#B16101"/>
<path d="M54.4074 37.1458C54.2839 36.9355 54.3444 36.664 54.4716 36.463C54.5988 36.262 54.7879 36.1063 54.9451 35.9257C55.4626 35.3298 55.6205 34.4704 55.4727 33.6866C55.3489 33.0286 55.0035 32.3929 54.4593 32.0091C53.8466 31.5771 53.0563 31.5024 52.3174 31.5804C51.3904 31.6834 50.4393 32.0539 49.8891 32.8097C49.4399 33.4266 49.3013 34.2401 49.4159 35.0022C49.4984 35.5386 49.7045 36.0654 50.0579 36.4807C50.4114 36.896 50.9131 37.1885 51.4497 37.2335C51.6804 37.2536 51.9113 37.2275 52.1403 37.2701C52.3693 37.3126 52.5993 37.4444 52.6725 37.6643" fill="#FFC200"/>
<path d="M53.6683 37.856C53.9256 36.6604 54.238 34.8399 54.4555 33.6198C54.4636 33.573 54.4479 33.5278 54.4155 33.4949C53.6017 32.6617 52.5947 32.808 52.204 33.9358L52.4865 33.8697C51.4094 32.8831 50.3498 33.0536 50.4185 34.6837C50.4178 34.722 50.433 34.7593 50.4602 34.7862C51.3595 35.7095 52.6122 37.021 53.5308 37.8984C52.7376 36.9157 51.5304 35.5423 50.6859 34.5804L50.7276 34.6829C50.7328 33.3347 51.3581 33.3707 52.2499 34.1288C52.3368 34.2156 52.4953 34.1783 52.5324 34.0627C52.8427 33.1441 53.5332 33.0803 54.2011 33.7015L54.1611 33.5767C54.0035 34.8104 53.7788 36.6333 53.6669 37.8593L53.6683 37.856Z" fill="white"/>
<path d="M54.6774 36.9814C54.6774 36.9814 54.6614 36.8821 54.5086 36.9334C54.3558 36.9847 52.513 37.585 52.513 37.585C52.513 37.585 52.2803 37.6335 52.3323 37.748C52.3844 37.8626 52.717 38.5468 52.717 38.5468C52.717 38.5468 52.7748 38.7024 53.0894 38.6152C53.404 38.5279 54.7073 38.0358 54.7073 38.0358C54.7073 38.0358 54.9029 37.9562 54.8813 37.8429C54.8596 37.7296 54.6741 36.98 54.6741 36.98L54.6774 36.9814Z" fill="#FF7300"/>
<path d="M51.4107 31.0127C51.6572 30.9315 51.8147 30.7317 51.7578 30.5649L51.2802 29.1173C51.2265 28.9519 50.9815 28.8833 50.735 28.9645C50.4885 29.0458 50.331 29.2456 50.3879 29.4124L50.8655 30.86C50.9192 31.0254 51.1642 31.094 51.4107 31.0127Z" fill="#FFC200"/>
<path d="M55.2601 31.9033C55.4631 32.0623 55.7223 32.079 55.8326 31.9364L56.8159 30.6843C56.9294 30.5431 56.8528 30.2947 56.6498 30.1358C56.4467 29.9769 56.1875 29.9602 56.0773 30.1027L55.0939 31.3548C54.9804 31.496 55.057 31.7444 55.2601 31.9033Z" fill="#FFC200"/>
<path d="M49.8549 37.2093C49.6681 37.0302 49.4301 36.9723 49.3257 37.0826L48.394 38.0478C48.2863 38.1567 48.3526 38.393 48.5394 38.5721C48.7262 38.7512 48.9642 38.8091 49.0686 38.6988L50.0003 37.7336C50.108 37.6247 50.0417 37.3884 49.8549 37.2093Z" fill="#FFC200"/>
<path d="M48.7069 34.0392C48.7703 33.7881 48.6783 33.5487 48.5035 33.5059L46.9701 33.1254C46.7953 33.0826 46.6007 33.2513 46.5405 33.5037C46.4804 33.7562 46.569 33.9942 46.7439 34.0371L48.2773 34.4175C48.4521 34.4603 48.6467 34.2916 48.7069 34.0392Z" fill="#FFC200"/>
<path d="M58.2568 35.4743C58.3137 35.2204 58.2236 34.9857 58.0586 34.947L56.5923 34.618C56.4259 34.5825 56.2444 34.7568 56.1875 35.0106C56.1306 35.2644 56.2207 35.4992 56.3857 35.5379L57.852 35.8669C58.0184 35.9023 58.1999 35.7281 58.2568 35.4743Z" fill="#FFC200"/>
</g>
<defs>
<clipPath id="clip0_9714_72574">
<rect width="60" height="48" fill="white"/>
</clipPath>
</defs>
</svg>
