<svg width="60" height="48" viewBox="0 0 60 48" fill="none" xmlns="http://www.w3.org/2000/svg">
<g clip-path="url(#clip0_9714_72350)">
<mask id="mask0_9714_72350" style="mask-type:luminance" maskUnits="userSpaceOnUse" x="4" y="5" width="56" height="47">
<path d="M60 5H4V51.3419H60V5Z" fill="white"/>
</mask>
<g mask="url(#mask0_9714_72350)">
<path d="M42.4172 36.0737C45.4105 37.2581 47.0794 33.0589 51.1386 31.8315C54.0673 30.9378 59.4509 34.2218 58.4818 39.3146C57.5128 44.4075 54.5841 43.6323 49.7174 44.7198C44.8506 45.7965 47.607 48.7359 43.2248 50.5879C38.8425 52.4398 36.4092 50.5879 34.2988 48.2729C32.1884 45.958 28.1292 47.6592 23.424 47.9607C18.7187 48.2622 16.6083 44.4075 16.2853 42.5556C15.9623 40.7036 14.498 38.0764 9.30821 36.5367C4.12921 34.9863 3.48318 32.3698 4.29072 29.2797C5.09825 26.1895 8.62988 27.5031 11.2248 26.1141C13.8197 24.7251 11.9569 21.0212 16.253 19.9445C19.8923 19.0293 22.7026 22.8732 22.961 25.9311C23.1225 27.7723 24.7268 29.2581 26.3526 30.1518C27.9785 31.0455 29.8089 31.4654 31.5747 31.993C35.1709 33.0697 35.4939 33.0374 38.9179 34.5879C39.284 34.8032 42.0727 35.9445 42.4172 36.0737Z" fill="#F878F3"/>
<path d="M29.2064 24.8007C28.2481 22.5504 28.2912 20.0201 28.345 17.6082C28.4096 14.2381 27.8066 10.6742 25.5994 8.04701C23.3921 5.41982 19.2037 4.06316 16.135 5.74283C14.5846 6.58267 13.5079 8.04701 12.7219 9.57594C11.6882 11.5679 11.1498 14.1628 12.6465 15.8747C13.6263 17.0053 15.349 17.436 16.8457 17.0807C18.3423 16.7253 19.5913 15.6486 20.2696 14.335C20.4419 14.012 20.6142 13.6459 20.9695 13.506C21.1956 13.4198 21.4433 13.4629 21.6801 13.5275C23.5536 14.0766 24.1458 16.2731 24.4258 18.1143C24.6626 19.654 24.8995 21.1937 25.1364 22.7334C25.2979 23.7563 25.5025 24.8868 26.3423 25.5436C27.1821 26.2004 29.1741 26.0497 29.2494 25.0161L29.2171 24.7899L29.2064 24.8007Z" fill="black"/>
<path d="M38.5414 29.4736L39.4135 30.335C39.6612 30.5719 40.0057 30.6903 40.3503 30.658C58.3099 28.483 59.785 19.2448 59.9357 17.9097C60.0865 16.5745 60.388 12.5476 56.9209 11.1371C53.7338 9.84509 51.5373 12.3323 51.2143 14.4857C50.9882 16.0147 52.3772 17.7589 49.1255 22.5826C46.6168 26.3081 41.2439 27.9339 38.9075 28.483C38.6921 28.5369 38.4768 28.6768 38.4014 28.8814C38.326 29.086 38.3799 29.3336 38.5522 29.4736H38.5414Z" fill="black"/>
<path d="M32.8887 24.6823C32.8887 24.6823 25.7824 23.4979 21.7554 27.9986C17.7285 32.4993 19.1605 34.5128 21.2709 36.5585C23.3813 38.6043 28.1942 42.2328 35.2575 42.179C42.3207 42.1251 43.602 39.3364 43.7958 37.1507C43.9896 34.965 43.5912 30.8412 40.135 27.9986C36.4418 24.9623 32.8887 24.6823 32.8887 24.6823Z" fill="#FFE240"/>
<path d="M32.8238 24.6177C32.8238 24.6177 31.2733 26.9111 33.8682 28.8061C34.7511 29.4414 35.5371 29.6352 35.6879 28.9568C35.8386 28.2785 35.128 26.5558 37.023 25.9959C37.023 25.9959 35.6017 24.8976 32.8238 24.6177Z" fill="black"/>
<path d="M31.0266 31.9309C31.7102 30.6376 31.5569 29.2153 30.6842 28.754C29.8115 28.2927 28.5498 28.9671 27.8662 30.2604C27.1826 31.5537 27.3359 32.9761 28.2086 33.4374C29.0813 33.8987 30.343 33.2242 31.0266 31.9309Z" fill="white"/>
<path d="M38.3046 33.9096C38.0785 33.8881 37.0879 33.6943 36.1835 34.7495C35.2791 35.8046 36.0005 36.623 36.9264 36.6983C37.8524 36.7737 38.8215 36.1169 39.0583 35.2663C39.2952 34.4157 38.6815 33.9635 38.3046 33.9204V33.9096Z" fill="#FF7140"/>
<path d="M58.245 17.6081C57.2114 17.7803 56.3823 17.9526 54.2181 17.2958C50.9664 16.316 51.171 14.5717 51.171 14.5717C51.4294 12.3644 53.6259 9.7265 56.8238 10.997C60.0216 12.2675 59.9678 14.7225 60.0001 16.2083C60.0001 16.2083 60.0432 17.2958 58.245 17.5973V17.6081Z" fill="#2CE69D"/>
<path d="M16.8778 11.4278C18.396 12.0416 20.4741 13.8397 20.2587 14.335C19.645 15.6809 18.2991 16.7576 16.8025 17.1237C15.3058 17.4897 13.6046 17.016 12.614 15.8854C11.5158 14.6257 11.4081 12.806 12.0003 11.2663C12.0003 11.2663 12.8617 9.81275 16.8778 11.4386V11.4278Z" fill="#2CE69D"/>
<path d="M30.0893 28.526C30.0893 28.526 28.9588 28.4507 28.0974 29.6889C27.236 30.9271 27.2468 31.6593 27.6559 32.0469C28.0651 32.4345 29.4002 32.1976 30.337 31.1963C31.2737 30.1949 31.5537 28.5691 30.0893 28.5368V28.526Z" fill="black"/>
<path d="M34.0838 32.8438C34.0838 32.8438 34.5898 31.0134 38.1968 31.9609C38.1968 31.9609 39.1336 32.3701 38.1968 32.6177C38.1968 32.6177 38.9505 32.8869 38.4014 33.1991C38.0353 33.4037 37.3462 32.1332 35.462 32.4239C35.462 32.4239 34.6867 32.5423 34.3422 33.0807C34.3422 33.0807 33.9761 33.253 34.0838 32.8438Z" fill="black"/>
<path d="M29.7231 34.1576C29.7231 34.1576 30.3369 34.8896 32.0381 34.3513C32.3611 34.2005 32.8887 34.0067 33.1363 33.7375C33.1363 33.7375 32.6949 34.3943 32.5657 35.1265C32.4365 35.8587 32.6087 36.7848 32.0812 37.2154C31.5536 37.6461 30.5845 37.6784 30.423 37.0647C30.2615 36.451 30.5091 35.062 29.7339 34.1683L29.7231 34.1576Z" fill="black"/>
<path d="M32.4363 36.5259C32.3609 36.7951 32.2856 37.0428 32.081 37.2043C31.5534 37.6242 30.5844 37.6673 30.4229 37.0535C30.4229 37.0535 30.3152 36.4613 31.2304 36.2352C31.2304 36.2352 32.6409 35.8045 32.4471 36.5259H32.4363Z" fill="#FF3F12"/>
</g>
</g>
<defs>
<clipPath id="clip0_9714_72350">
<rect width="60" height="48" fill="white"/>
</clipPath>
</defs>
</svg>
