<svg width="60" height="48" viewBox="0 0 60 48" fill="none" xmlns="http://www.w3.org/2000/svg">
<g clip-path="url(#clip0_9714_72348)">
<mask id="mask0_9714_72348" style="mask-type:luminance" maskUnits="userSpaceOnUse" x="0" y="0" width="64" height="64">
<path d="M64 0H0V64H64V0Z" fill="white"/>
</mask>
<g mask="url(#mask0_9714_72348)">
<mask id="mask1_9714_72348" style="mask-type:luminance" maskUnits="userSpaceOnUse" x="6" y="-5" width="58" height="65">
<path d="M6.23306 7.28133L48.6138 -4.54565L63.1179 47.4284L20.7372 59.2554L6.23306 7.28133Z" fill="white"/>
</mask>
<g mask="url(#mask1_9714_72348)">
<path d="M46.8777 23.6348C47.8971 21.1518 45.6898 18.5862 43.2488 17.4004C40.8078 16.2145 37.9771 15.8887 35.5332 14.6926C34.4447 14.1568 33.455 13.4608 32.6036 12.6268C31.2481 11.2927 30.2285 9.30146 31.0124 7.55814C31.789 5.82792 34.1001 5.08355 35.9683 5.52333C37.8365 5.9631 39.3191 7.31696 40.4691 8.78571C41.6192 10.2545 42.5621 11.8915 43.8561 13.2427C45.5511 15.0013 47.8395 16.2739 49.0456 18.3788C50.7796 21.3859 49.5701 25.9988 45.9617 27.8343C45.4778 28.0798 45.2914 27.9662 44.7661 27.8255C42.8209 27.3078 45.8451 26.1103 46.8703 23.6479L46.8777 23.6348Z" fill="black"/>
<path d="M31.6273 18.9866C29.4587 17.4707 26.6922 16.9392 24.3968 15.6022C23.1166 14.8547 21.9899 13.8655 21.1114 12.6967C19.8791 11.052 19.1209 9.08722 17.752 7.54697C16.3831 6.00671 13.9982 4.98201 12.0963 5.9657C10.4057 6.83521 9.79599 9.00494 10.3232 10.7359C10.8504 12.4668 12.2322 13.8157 13.7178 14.9035C15.7724 16.4071 18.1069 17.5674 20.59 18.3106C22.761 18.9642 25.042 19.2998 27.1596 20.0788C29.2771 20.8577 32.0725 23.1157 32.5285 25.2642C32.926 27.1639 35.4414 26.716 35.4896 25.5426C35.5759 23.3974 33.3084 20.1415 31.6375 18.9838L31.6273 18.9866Z" fill="black"/>
<path d="M58.6397 36.4486C60.2259 37.8177 61.4124 39.7735 61.2389 41.8436C61.1445 42.9305 60.6923 43.9625 60.1034 44.9002C58.0795 48.1385 54.3895 50.3945 50.4979 50.7403C48.2135 50.947 45.9329 50.5339 43.6388 50.6659C40.8884 50.8259 38.2312 51.7552 35.5073 52.1287C32.7731 52.505 29.7186 52.2085 27.827 50.3391C25.2614 47.7961 25.5594 43.084 22.3692 41.3119C21.6773 40.9305 20.8921 40.7298 20.132 40.5C18.2762 39.9463 16.4309 39.1135 15.2119 37.675C13.993 36.2365 13.5416 34.0646 14.5586 32.4441C14.9867 31.7612 15.6479 31.2011 15.9113 30.4426C16.1554 29.7338 16.0212 28.9758 16.0915 28.2381C16.3015 26.1799 18.2675 24.5155 20.3921 24.1324C22.5168 23.7494 24.6861 24.4366 26.464 25.5423C28.2419 26.6481 29.7104 28.1495 31.2056 29.5882C31.8551 30.2134 32.5353 30.83 33.3469 31.2443C35.7321 32.4678 38.729 31.6867 41.4009 32.1563C44.4438 32.688 46.68 34.1299 49.8506 33.8527C53.0753 33.5714 56.2261 34.3714 58.6294 36.4515L58.6397 36.4486Z" fill="#E971FF"/>
<path d="M42.4622 25.5077C42.4622 25.5077 48.9592 28.1246 49.6485 33.92C50.3378 39.7153 48.0708 41.1323 45.1581 41.7795C42.2454 42.4266 36.1566 42.5791 30.4171 38.9554C24.6775 35.3316 25.2367 32.3474 26.3565 30.422C27.4763 28.4966 30.1609 25.2507 34.636 24.6205C39.4096 23.9512 42.4753 25.5151 42.4753 25.5151L42.4622 25.5077Z" fill="#FFE240"/>
<path d="M41.9869 25.3092C41.9869 25.3092 42.1569 27.8579 38.9529 28.3323C37.8674 28.4805 37.0983 28.2974 37.323 27.6382C37.5478 26.9789 39.1248 25.8207 37.8 24.4781C37.8 24.4781 39.4733 24.2983 41.9869 25.3092Z" fill="black"/>
<path d="M40.0749 35.7964C40.2732 35.8737 41.1475 36.3146 42.3273 35.5545C43.5072 34.7944 43.0805 33.8198 42.2303 33.5047C41.3801 33.1896 40.2699 33.5657 39.7815 34.3096C39.2931 35.0535 39.725 35.651 40.0749 35.7964Z" fill="#FF7140"/>
<path d="M42.923 32.505C40.2296 31.7211 40.7139 29.4979 40.9034 28.8706C40.9301 28.8079 40.9654 28.776 41.0024 28.7104C41.0024 28.7104 40.6548 31.503 43.2705 32.5627C43.2705 32.5627 40.5931 32.7465 38.5425 35.0974C38.5425 35.0974 38.5811 34.9982 38.6259 34.8421C40.1888 32.4063 42.923 32.505 42.923 32.505Z" fill="#FF7140"/>
<path d="M37.2678 31.1225C37.2678 31.1225 39.3698 31.8064 40.9661 28.6985C40.9661 28.6985 40.9394 28.7612 40.9036 28.8706C40.7142 29.4979 40.2298 31.721 42.9232 32.505C42.9232 32.505 40.1993 32.4035 38.6261 34.8421C38.5863 34.8974 38.5437 34.9424 38.5141 34.9948C38.5141 34.9948 39.5228 31.6421 37.2678 31.1225Z" fill="white"/>
<path d="M35.7166 30.8704C33.0232 30.0864 33.5075 27.8633 33.697 27.2359C33.7237 27.1732 33.759 27.1413 33.7959 27.0757C33.7959 27.0757 33.4484 29.8683 36.0641 30.928C36.0641 30.928 33.3866 31.1118 31.3361 33.4627C31.3361 33.4627 31.3747 33.3635 31.4195 33.2074C32.9824 30.7717 35.7166 30.8704 35.7166 30.8704Z" fill="#FF7140"/>
<path d="M30.0613 29.488C30.0613 29.488 32.1634 30.1719 33.7597 27.064C33.7597 27.064 33.733 27.1266 33.6972 27.236C33.5077 27.8634 33.0234 30.0865 35.7168 30.8705C35.7168 30.8705 32.9929 30.7689 31.4197 33.2075C31.3799 33.2628 31.3372 33.3079 31.3077 33.3603C31.3077 33.3603 32.3164 30.0076 30.0613 29.488Z" fill="white"/>
<path d="M35.4285 35.4581C35.4797 35.4438 35.531 35.4295 35.5925 35.4124C36.3281 35.1187 36.7788 34.319 36.6167 33.5799C36.5555 33.3208 36.2904 33.1628 36.0182 33.2167C35.7562 33.2677 35.5675 33.5413 35.6287 33.8004C35.6928 34.0697 35.5007 34.4106 35.2297 34.5083C34.9513 34.6191 34.5866 34.4999 34.4434 34.2637C34.303 34.0378 33.9965 33.9687 33.7574 34.1017C33.5212 34.2449 33.439 34.544 33.5793 34.77C33.9469 35.3745 34.7418 35.6498 35.4388 35.4553L35.4285 35.4581Z" fill="#231815"/>
<path d="M32.6036 12.6269C30.958 11.6389 30.2072 9.18606 30.9883 7.43249C31.7649 5.70227 34.1863 4.83873 35.9785 5.52067C37.2516 6.00501 37.4013 7.33311 37.0969 9.05308C36.7925 10.773 33.7425 13.3034 32.6036 12.6269Z" fill="#2CE69D"/>
<path d="M10.313 10.7387C9.76532 9.01346 9.78345 7.01986 11.9851 5.7647C13.8464 4.71499 16.5374 5.88628 17.7521 7.5469C18.0362 7.93161 18.2731 8.38471 16.7407 9.663C15.2083 10.9413 10.7218 12.0055 10.3233 10.7358L10.313 10.7387Z" fill="#2CE69D"/>
</g>
</g>
</g>
<defs>
<clipPath id="clip0_9714_72348">
<rect width="60" height="48" fill="white"/>
</clipPath>
</defs>
</svg>
