<svg width="60" height="48" viewBox="0 0 60 48" fill="none" xmlns="http://www.w3.org/2000/svg">
<g clip-path="url(#clip0_9714_88025)">
<mask id="mask0_9714_88025" style="mask-type:luminance" maskUnits="userSpaceOnUse" x="8" y="13" width="48" height="39">
<path d="M56 13H8V51.2121H56V13Z" fill="white"/>
</mask>
<g mask="url(#mask0_9714_88025)">
<path d="M51.7918 13.0352C50.4786 13.2394 49.3813 14.4126 48.5467 15.5274C46.6965 17.9962 45.0622 20.6344 43.0311 22.9515C40.9942 25.2686 38.4786 27.2939 35.4961 28.076L34.1537 28.7355C34.6323 29.6052 35.8755 29.5935 36.8502 29.3951C39.7743 28.7997 42.57 27.5974 45.0039 25.8756C46.679 24.6908 48.3249 23.2141 50.3677 23.0332C51.1498 22.9632 51.9669 23.0857 52.7198 22.9223C54.2957 19.5663 53.4903 15.9768 51.7918 13.0352Z" fill="black"/>
<path d="M55.7374 15.2706C55.358 14.0974 53.7063 13.1519 52.4806 13.0118C52.2471 12.9885 52.0195 12.9943 51.7977 13.0293C53.4962 15.971 54.3016 19.5604 52.7257 22.9165C52.8833 22.8815 53.0409 22.8406 53.1927 22.7706C54.5468 22.1869 55.6674 20.3951 55.86 18.9359C56.0234 17.7103 56.1226 16.4379 55.7374 15.2647V15.2706Z" fill="#2CE69D"/>
<path d="M37.0661 14.3601C35.9046 14.5469 34.8015 15.2356 33.9552 16.0819C32.0642 17.9729 31.0836 20.5586 29.8346 22.9224C29.07 24.3815 28.142 25.8056 26.893 26.8971C26.1401 27.5508 24.3949 28.5605 24.5233 29.7979C24.6926 31.4321 27.0214 29.9087 27.6576 29.4126C28.9941 28.3737 30.0214 26.9963 31.0895 25.7006C32.426 24.0722 33.9611 22.4496 35.9864 21.8543C36.8443 21.6033 37.7607 21.5391 38.6011 21.2589C39.2081 18.7667 40.1303 16.0294 37.0661 14.3601Z" fill="black"/>
<path d="M41.1284 17.4592C40.9825 15.9883 39.8152 14.6751 38.3677 14.3775C37.93 14.2899 37.4922 14.2957 37.0662 14.3658C40.1362 16.035 39.214 18.7724 38.6012 21.2646C38.7588 21.2121 38.9222 21.1537 39.0739 21.0778C40.4047 20.4417 41.2743 18.93 41.1284 17.465V17.4592Z" fill="#2CE69D"/>
<path d="M11.0058 29.4535C12.1089 28.1111 13.6731 26.9671 15.2957 27.2648C17.3735 27.6442 18.4824 30.0605 19.7548 31.9107C22.212 35.5002 26.3735 37.5955 30.4591 37.2979C34.5388 37.0002 38.4143 34.3212 40.4221 30.4049C40.9474 29.3835 41.3501 28.292 41.9338 27.3115C42.5174 26.3309 43.3346 25.4555 44.3618 25.1461C45.389 24.8426 46.5097 25.1461 47.3968 25.794C48.284 26.4418 48.961 27.3699 49.5155 28.3679C52.4455 33.6617 51.7626 41.0566 47.928 45.5975C44.4377 49.7356 39.0038 51.259 33.8676 51.2123C28.7315 51.1656 23.7003 49.759 18.6225 48.9418C16.8715 48.6617 15.0914 48.4399 13.4221 47.8095C12.1322 47.3193 10.889 46.5547 9.96102 45.4399C9.1906 44.506 8.81122 43.2337 8.49021 42.0372C7.7548 39.2823 7.87153 36.2706 8.77036 33.58C9.27231 32.0683 10.0311 30.6559 11.0116 29.4594L11.0058 29.4535Z" fill="#F878F3"/>
<path d="M39.9495 33.5274C39.3541 31.327 38.1868 28.7939 33.7977 27.2589C30.821 26.2142 28.2996 26.2317 26.8522 26.3834C26.0234 26.471 25.5448 26.5994 25.5448 26.5994C25.5448 26.5994 24.5234 26.7336 23.1343 27.2239C20.8755 28.0177 17.6479 29.7394 16.2121 33.3348C13.895 39.148 16.4047 41.6986 18.2724 42.7492C20.9397 44.255 26.5195 45.9068 33.2374 42.9651C38.7821 40.5313 40.5448 35.7278 39.9495 33.5274Z" fill="#FFE240"/>
<path d="M28.9708 34.2629C28.9708 34.2629 29.5486 35.3426 31.2938 35.1734C33.0389 35.0041 36.214 32.9671 36.5584 30.4924C36.9086 28.0177 35.6245 27.5274 34.6673 27.7201C33.7101 27.9127 29.1342 28.8757 28.9708 34.2629Z" fill="#FF7140"/>
<path d="M21.8386 30.9535C21.6926 30.8426 24.821 33.3815 26.0117 29.7454C26.0117 29.7454 27.6518 34.5839 25.8658 35.8796C24.6985 36.7259 23.4319 36.078 23.3444 35.1675C23.2568 34.257 24.6985 33.1306 21.8386 30.9535Z" fill="black"/>
<path d="M26.461 35.115C26.3735 35.436 26.1459 35.7161 25.8891 35.9029C24.7217 36.7492 23.3501 36.0722 23.3268 35.1617C23.3151 34.8056 23.6945 34.2979 24.4883 34.1461C25.2821 33.9944 26.7062 34.1986 26.461 35.115Z" fill="#FF3F12"/>
<path d="M29.0817 34.6596C29.0817 34.6596 29.0525 34.6596 29.0409 34.6596C28.8774 34.6538 28.7549 34.5195 28.7607 34.3561C28.8541 32.0507 29.572 30.2647 30.9027 29.0507C32.8405 27.2763 35.356 27.3756 35.4611 27.3814C35.6245 27.3872 35.7471 27.5273 35.7354 27.6849C35.7296 27.8483 35.5953 27.9709 35.4319 27.9651C35.4086 27.9651 33.0506 27.8775 31.2938 29.4884C30.0856 30.5974 29.4319 32.2433 29.3444 34.3795C29.3385 34.5254 29.2218 34.6421 29.0817 34.6596Z" fill="black"/>
<path d="M34.3638 29.7746C32.9338 30.5041 32.7762 29.3135 33.0039 28.9866C33.1965 28.7123 33.6225 28.3037 34.5097 28.4146C35.3968 28.5255 35.07 29.4127 34.3579 29.7746H34.3638Z" fill="white"/>
<path d="M24.4883 28.0117C24.4883 28.0117 15.5758 22.9572 14.2509 22.1518C13.8541 21.9125 20.0525 30.6849 20.0525 30.6849L24.6926 28.6245L29.1576 30.8366L39.2723 23.1965L25.0544 28.0526L24.4883 28.0117Z" fill="black"/>
<path d="M28.5915 29.3775C28.5915 29.3775 28.5331 29.3775 28.5039 29.36C28.4339 29.3191 28.4105 29.2316 28.4514 29.1615L29.5195 27.2646C29.5603 27.1946 29.6479 27.1713 29.7179 27.2063C29.788 27.2471 29.8113 27.3347 29.7704 27.4047L28.7024 29.3016C28.679 29.3425 28.6323 29.3716 28.5915 29.3775Z" fill="white"/>
<path d="M30.3657 29.179C30.3657 29.179 30.3132 29.179 30.284 29.1615C30.214 29.1265 30.1848 29.0389 30.2198 28.9631L31.5564 26.395C31.5914 26.3249 31.6789 26.2957 31.7548 26.3308C31.8249 26.3658 31.854 26.4533 31.819 26.5292L30.4824 29.0973C30.4591 29.144 30.4124 29.1732 30.3657 29.1732V29.179Z" fill="white"/>
<path d="M18.8794 27.6149C18.821 27.6149 18.7626 27.5916 18.7335 27.5332C18.6984 27.4631 18.7335 27.3756 18.8035 27.3406L20.5195 26.5118C20.5953 26.4768 20.677 26.5118 20.7121 26.5818C20.7471 26.6519 20.7121 26.7394 20.642 26.7744L18.9261 27.6032C18.9261 27.6032 18.8911 27.6149 18.8735 27.6149H18.8794Z" fill="white"/>
<path d="M19.9592 28.5722C19.895 28.578 19.8308 28.543 19.8074 28.4788C19.7783 28.4029 19.8191 28.3212 19.895 28.292L22.0195 27.5041C22.0954 27.4749 22.1771 27.5158 22.2063 27.5916C22.2355 27.6675 22.1946 27.7492 22.1187 27.7784L19.9942 28.5663C19.9942 28.5663 19.9709 28.5722 19.9592 28.5722Z" fill="white"/>
</g>
</g>
<defs>
<clipPath id="clip0_9714_88025">
<rect width="60" height="48" fill="white"/>
</clipPath>
</defs>
</svg>
