<svg width="60" height="48" viewBox="0 0 60 48" fill="none" xmlns="http://www.w3.org/2000/svg">
<g clip-path="url(#clip0_9714_72351)">
<mask id="mask0_9714_72351" style="mask-type:luminance" maskUnits="userSpaceOnUse" x="12" y="11" width="44" height="40">
<path d="M56 11H12V50.7937H56V11Z" fill="white"/>
</mask>
<g mask="url(#mask0_9714_72351)">
<path d="M30.4002 29.2633C29.0014 27.4927 28.434 25.2722 27.8862 23.1397C27.1232 20.1659 25.7243 17.1726 23.1321 15.3531C20.5398 13.5239 16.5487 13.2695 14.2597 15.4216C13.0956 16.5074 12.5087 18.0334 12.1957 19.5497C11.7848 21.5354 11.9707 23.8734 13.7021 25.0472C14.8466 25.82 16.4118 25.8396 17.6345 25.1939C18.8573 24.5483 19.7083 23.3647 19.9822 22.0539C20.0507 21.7311 20.1094 21.3691 20.3931 21.1735C20.5692 21.0463 20.8039 21.0268 21.0191 21.0365C22.7995 21.0952 23.856 22.9049 24.5603 24.4603C25.1472 25.7613 25.7341 27.0623 26.3211 28.3634C26.7123 29.234 27.1721 30.1633 28.0721 30.5643C28.972 30.9654 30.6839 30.3785 30.498 29.4492L30.41 29.2633H30.4002Z" fill="black"/>
<path d="M40.916 31.9826C41.0627 32.0706 41.2388 32.0804 41.3953 32.0217C56.851 26.1328 55.8826 17.6224 55.687 16.4094C55.4913 15.1964 54.7577 11.5477 51.3633 11.0782C48.2526 10.6477 46.9418 13.3672 47.1863 15.3334C47.3624 16.7322 49.0058 17.955 47.333 22.9047C46.0516 26.7002 41.767 29.3218 39.8399 30.3392C39.8399 30.3392 39.5073 30.5544 39.8693 31.0826C40.2312 31.6108 40.916 31.9826 40.916 31.9826Z" fill="black"/>
<path d="M24.981 34.575C24.981 34.575 22.4278 34.0174 19.5812 34.575C16.7346 35.1325 13.3891 37.4705 13.487 41.217C13.5848 44.9538 16.8618 49.3949 22.5746 48.4167C26.9472 47.6732 29.3047 47.6732 31.173 48.8862C33.0414 50.0992 37.8542 51.9676 42.0801 49.8253C46.306 47.6732 47.0886 46.4602 50.8253 46.3624C54.5621 46.2646 56.6261 42.8996 55.8338 40.1899C55.0414 37.4803 52.4883 34.9565 48.8591 34.6728C45.23 34.3891 44.3398 35.3282 41.7866 35.6999C39.2335 36.0716 26.3602 35.4162 24.981 34.575Z" fill="#F878F3"/>
<path d="M33.5305 28.0796C33.5305 28.0796 26.9961 28.6177 24.5603 33.4598C22.1246 38.302 23.6799 40.1214 26.0374 41.4518C28.3949 42.7822 33.6968 44.5332 39.8889 42.9289C46.081 41.3149 46.5212 38.5856 46.1495 36.6194C45.7778 34.6532 44.4278 31.1317 40.7008 29.4002C36.7097 27.5514 33.5305 28.0894 33.5305 28.0894V28.0796Z" fill="#FFE240"/>
<path d="M32.6303 28.2067C32.6303 28.2067 31.9554 30.4565 34.7531 31.4152C35.7019 31.7282 36.4454 31.6989 36.3769 31.063C36.3084 30.4272 35.115 29.136 36.5921 28.1577C36.5921 28.1577 35.115 27.7176 32.6303 28.2067Z" fill="black"/>
<path d="M31.7403 37.4509C32.6479 37.4509 33.3837 36.3823 33.3837 35.0641C33.3837 33.7459 32.6479 32.6772 31.7403 32.6772C30.8327 32.6772 30.0969 33.7459 30.0969 35.0641C30.0969 36.3823 30.8327 37.4509 31.7403 37.4509Z" fill="white"/>
<path d="M31.76 33.5872C31.76 33.5872 30.7818 33.6067 30.684 34.7512C30.596 35.7784 30.9383 36.5414 31.8676 36.5022C32.8948 36.4533 32.973 35.5925 32.9437 34.9175C32.9143 34.2426 32.5719 33.6067 31.76 33.5872Z" fill="#231815"/>
<path d="M38.4217 37.4509C39.3293 37.4509 40.0651 36.3823 40.0651 35.0641C40.0651 33.7459 39.3293 32.6772 38.4217 32.6772C37.5141 32.6772 36.7783 33.7459 36.7783 35.0641C36.7783 36.3823 37.5141 37.4509 38.4217 37.4509Z" fill="white"/>
<path d="M38.4409 33.5872C38.4409 33.5872 37.4627 33.6067 37.3649 34.7512C37.2769 35.7784 37.6192 36.5414 38.5485 36.5022C39.5757 36.4533 39.6539 35.5925 39.6246 34.9175C39.5952 34.2426 39.2529 33.6067 38.4409 33.5872Z" fill="#231815"/>
<path d="M41.3269 35.7977C41.1312 35.8271 40.2117 35.876 39.6639 37.0009C39.1161 38.1259 39.9574 38.6834 40.7986 38.5465C41.6399 38.4095 42.3247 37.6074 42.3247 36.8151C42.3247 36.0227 41.6692 35.7488 41.3269 35.7977Z" fill="#FF7140"/>
<path d="M26.683 46.0102C26.683 46.0102 26.0373 43.5451 24.3059 44.0929C22.056 44.807 23.2299 48.3579 24.6678 48.7687C26.1058 49.1796 27.5438 47.9275 26.683 46.0102Z" fill="black"/>
<path d="M48.2233 47.1059C48.2233 47.1059 49.2895 44.7778 47.5679 44.2104C45.3278 43.4767 43.8213 47.2233 44.7115 48.3776C45.2788 49.121 47.1668 49.659 48.233 47.1059H48.2233Z" fill="black"/>
<path d="M34.9293 35.7684C34.9293 35.7684 33.7554 36.5901 34.2152 36.8934C34.5575 37.1184 34.7825 36.6782 35.0467 36.4238C35.3108 36.1695 35.8586 35.8858 35.8586 36.3554C35.8586 36.8249 35.5651 37.0303 35.1249 37.2651C34.9293 37.3629 34.7825 37.314 34.7336 37.5488C34.6847 37.7836 35.1053 37.8325 35.4966 37.8031C35.8879 37.7738 36.4259 38.0183 36.3281 38.4194C36.2303 38.8205 35.7607 38.8792 35.4477 38.7911C35.1347 38.7031 34.9782 38.2433 34.7141 38.439C34.4499 38.6346 34.7434 38.84 34.988 38.9965C35.2325 39.1531 35.7705 39.3487 36.2401 39.1335C36.7096 38.9183 36.9737 38.3607 36.6803 37.852C36.3868 37.3434 35.7705 37.3825 35.7705 37.3825C35.7705 37.3825 36.6216 37.1575 36.4455 36.3847C36.2694 35.6119 35.8194 35.2793 34.939 35.7684H34.9293Z" fill="#231815"/>
<path d="M54.1413 16.5172C53.3196 16.9867 52.586 17.2313 50.5317 17.1335C47.4406 16.9965 47.1569 15.2846 47.1569 15.2846C46.9124 13.3184 48.1547 10.6479 51.2752 11.0294C54.3957 11.4109 54.9728 13.2597 55.2761 14.6097C55.2761 14.6097 55.5206 15.7346 54.1511 16.5172H54.1413Z" fill="#2CE69D"/>
<path d="M16.3041 20.254C17.791 20.4595 20.0605 21.5746 19.9822 22.054C19.7768 23.3745 18.8475 24.6169 17.6247 25.2625C16.4019 25.9081 14.7879 25.869 13.6434 25.0962C12.3815 24.2452 11.9706 22.68 12 21.154C12 21.154 12.3815 19.716 16.3041 20.254Z" fill="#2CE69D"/>
</g>
</g>
<defs>
<clipPath id="clip0_9714_72351">
<rect width="60" height="48" fill="white"/>
</clipPath>
</defs>
</svg>
