<svg width="60" height="48" viewBox="0 0 60 48" fill="none" xmlns="http://www.w3.org/2000/svg">
<g clip-path="url(#clip0_9714_72461)">
<mask id="mask0_9714_72461" style="mask-type:luminance" maskUnits="userSpaceOnUse" x="0" y="0" width="64" height="64">
<path d="M64 0H0V64H64V0Z" fill="white"/>
</mask>
<g mask="url(#mask0_9714_72461)">
<path d="M48.323 27.6071C48.323 27.6071 51.8059 26.8416 55.6906 27.6071C59.5752 28.3726 64.1304 31.5569 63.9974 36.655C63.8643 41.7531 59.4015 47.8013 51.605 46.4684C45.6437 45.4477 42.4296 45.4477 39.8832 47.1063C37.3369 48.7623 30.7729 51.3113 25.0124 48.3795C19.252 45.4477 18.1797 43.7918 13.0898 43.6642C7.99981 43.5366 5.18473 38.9488 6.25702 35.2515C7.3293 31.5542 10.8122 28.1147 15.7691 27.732C20.726 27.3492 21.9313 28.6251 25.4142 29.1327C28.8971 29.6431 46.4472 28.7499 48.3203 27.6044L48.323 27.6071Z" fill="#F878F3"/>
<path d="M40.2796 18.8225C40.2796 18.8225 48.8687 21.2982 50.8178 28.416C52.767 35.5365 50.2098 37.5562 46.6997 38.7018C43.1897 39.8473 35.6267 40.7649 27.7869 36.9454C19.947 33.1259 20.0909 29.3526 21.1116 26.8279C22.1323 24.3033 24.8849 19.9491 30.3413 18.6406C36.1669 17.2453 40.2796 18.8198 40.2796 18.8198V18.8225Z" fill="#FFE240"/>
<path d="M41.4472 19.2216C41.4472 19.2216 41.7404 22.4303 37.739 22.9596C36.3817 23.1252 35.4071 22.8809 35.665 22.0557C35.9338 21.2033 37.8367 19.7889 36.1292 18.0814C36.1292 18.0814 38.2521 17.8996 41.4445 19.2243L41.4472 19.2216Z" fill="black"/>
<path d="M45.4513 31.0546C45.2639 30.851 44.4903 29.8656 42.8153 30.1317C41.1377 30.3977 41.1594 31.7686 41.9657 32.5966C42.7719 33.4245 44.1971 33.5765 45.0875 32.9576C45.9779 32.3387 45.7716 31.4021 45.454 31.0519L45.4513 31.0546Z" fill="#FF7140"/>
<path d="M42.652 19.8323C42.1471 19.6396 43.8818 18.1411 49.7617 19.5853C53.4373 20.4865 56.9337 24.3332 58.2449 28.0984C59.6782 32.2111 59.7407 37.548 58.4811 42.3801C57.2215 47.2094 53.3613 52.8287 47.7963 53.2468C42.2313 53.6676 39.2913 51.6723 38.5556 47.9967C37.82 44.3211 38.3466 42.6407 37.611 41.0662C36.8753 39.4917 37.611 38.0204 39.3972 38.0204C41.1834 38.0204 44.2265 38.3353 45.6979 37.2847C47.1692 36.2341 48.008 35.8134 49.1617 35.8134C49.1617 35.8134 51.9958 35.4985 50.2123 38.6475C48.4261 41.7964 47.7963 42.7439 48.9527 43.2678C50.1091 43.7917 51.328 42.7438 52.7994 37.9118C54.2707 33.0825 53.4699 27.36 49.0993 24.0128C48.3175 23.4401 47.9809 23.0111 47.6958 23.0627C47.6198 23.0763 47.5438 23.0627 47.4895 23.0084C47.0253 22.5687 45.0111 20.7254 42.6548 19.8269L42.652 19.8323Z" fill="black"/>
<path d="M17.4608 26.6596C18.0581 22.2728 21.0035 17.7067 25.3089 17.0769C29.6143 16.4471 30.8087 18.5076 30.8087 18.5076C30.8087 18.5076 29.1012 19.0993 27.7955 20.0033C26.3187 21.0267 25.8409 21.5778 25.545 21.8547C25.545 21.8547 23.5226 24.1377 22.6974 27.683C22.4096 28.9209 21.2152 36.378 18.7992 38.6556C16.0167 41.2807 9.76756 41.4381 6.19782 37.2901C2.62807 33.1422 0.31791 27.1591 0.108883 24.4798C-0.100144 21.8031 0.84455 19.1781 2.41904 18.9663C3.20628 18.8089 4.46588 18.9663 5.35899 20.6467C5.35899 20.6467 4.15098 13.309 6.35526 10.8278C7.8646 9.1285 10.1883 10.5645 10.6607 15.0274C11.133 19.4903 9.26807 22.3651 10.6091 28.3101C11.2389 31.1062 12.0804 33.0879 14.1789 32.982C16.28 32.8761 16.8555 31.0926 17.4608 26.6542V26.6596Z" fill="black"/>
<path d="M37.6086 41.0527C36.5906 39.4782 37.5027 37.882 39.289 37.882C41.0752 37.882 44.2567 38.2024 45.7281 37.1545C47.1994 36.1067 48.0762 35.6587 49.2327 35.6587C49.2327 35.6587 52.1183 35.5149 50.2751 38.6313C50.0199 39.0656 47.6799 40.575 45.5109 41.0527C43.1872 41.5658 42.1448 41.7015 40.3531 41.7015C39.5061 41.7015 37.7172 41.2183 37.6086 41.0527Z" fill="#2CE69D"/>
<path d="M0.0299191 24.4554C-0.187252 21.7787 0.817164 19.0478 2.39165 18.8388C3.1789 18.6813 4.33533 18.6542 5.22574 20.3346C5.22574 20.3346 4.16974 13.1543 6.37403 10.6732C7.88337 8.97378 10.351 10.5211 10.8233 14.984C11.1409 17.9782 10.2505 20.1961 10.1609 23.1686C10.1148 24.6915 0.238946 27.0289 0.0272044 24.4554H0.0299191Z" fill="#2CE69D"/>
<path d="M41.1536 31.8935C42.3875 31.8935 43.3877 30.4387 43.3877 28.6441C43.3877 26.8495 42.3875 25.3947 41.1536 25.3947C39.9197 25.3947 38.9194 26.8495 38.9194 28.6441C38.9194 30.4387 39.9197 31.8935 41.1536 31.8935Z" fill="white"/>
<path d="M41.1294 26.6379C41.1294 26.6379 42.4677 26.6705 42.6034 28.2314C42.7228 29.6376 42.2559 30.6773 40.9963 30.6203C39.5902 30.5579 39.4897 29.377 39.5223 28.454C39.5549 27.5311 40.0245 26.6705 41.1294 26.6379Z" fill="black"/>
<path d="M32.0188 30.843C33.2527 30.843 34.253 29.3881 34.253 27.5935C34.253 25.7989 33.2527 24.3441 32.0188 24.3441C30.7849 24.3441 29.7847 25.7989 29.7847 27.5935C29.7847 29.3881 30.7849 30.843 32.0188 30.843Z" fill="white"/>
<path d="M31.9921 25.5873C31.9921 25.5873 33.3305 25.6199 33.4662 27.1808C33.5856 28.587 33.1187 29.6267 31.8591 29.5697C30.4529 29.5072 30.3525 28.3264 30.3851 27.4034C30.4177 26.4804 30.8873 25.6199 31.9921 25.5873Z" fill="black"/>
<path d="M37.8146 30.3082C37.801 29.0486 39.0253 28.5899 40.9853 28.4053C40.9853 28.4053 41.007 28.4053 41.0178 28.4025C41.0368 28.4025 41.0558 28.3971 41.0776 28.3971C43.0457 28.2451 44.5794 28.7745 44.6555 29.9173C44.7477 31.3316 43.7922 31.7416 41.6205 31.9343V31.918C39.3701 32.1705 37.8336 31.7578 37.8173 30.3082H37.8146Z" fill="black"/>
<path d="M27.6351 29.0186C27.8414 27.7753 29.1254 27.5364 31.0854 27.6939C31.0854 27.6939 31.1071 27.6939 31.118 27.6939C31.137 27.6939 31.156 27.6939 31.1777 27.6993C33.1431 27.8893 34.5629 28.6793 34.438 29.8167C34.2833 31.2256 33.2707 31.4618 31.099 31.2772V31.2609C28.8404 31.1225 27.3989 30.4465 27.6351 29.0186Z" fill="black"/>
<path d="M50.1609 27.0017L43.9335 30.8375L38.0319 30.5253C38.0319 30.5253 36.452 27.4469 33.9925 30.1317L28.175 27.7863L22.6616 23.6627" stroke="black" stroke-width="0.542928" stroke-miterlimit="10" stroke-linecap="round"/>
<path d="M33.9495 32.4907C33.9495 32.4907 34.449 32.8708 36.1212 32.8708C36.5827 32.8871 37.4459 32.8762 37.8694 32.8083C37.8694 32.8083 37.8341 33.0255 37.5301 33.7883C37.112 34.8389 36.4171 34.942 36.0479 35.0479C35.353 35.2434 34.3513 35.0533 34.3648 34.1358C34.3757 33.4626 34.601 33.4028 33.9468 32.4934L33.9495 32.4907Z" fill="black"/>
<path d="M37.147 34.2579C37.0656 34.5593 36.7779 34.7764 36.4874 34.9203C35.7463 35.2922 34.56 35.1619 34.4378 34.467C34.4378 34.467 34.2994 33.9512 35.521 33.8535C35.521 33.8535 37.2828 33.7585 37.147 34.2552V34.2579Z" fill="#FF3F12"/>
</g>
</g>
<defs>
<clipPath id="clip0_9714_72461">
<rect width="60" height="48" fill="white"/>
</clipPath>
</defs>
</svg>
