<svg width="20" height="20" viewBox="0 0 20 20" fill="none" xmlns="http://www.w3.org/2000/svg">
<g id="icon/48/0">
<path id="Vector" fill-rule="evenodd" clip-rule="evenodd" d="M9.16671 5.83317C8.24625 5.83317 7.50004 6.57938 7.50004 7.49984V12.2418L11.354 5.91588C11.1903 5.86217 11.0154 5.83317 10.8334 5.83317H9.16671ZM12.4837 7.26496L8.39433 13.9773C8.62529 14.0984 8.88787 14.1665 9.16671 14.1665H10.8334C11.7538 14.1665 12.5 13.4203 12.5 12.4998V7.49984C12.5 7.42009 12.4945 7.34171 12.4837 7.26496ZM5.83337 7.49984C5.83337 5.65888 7.32575 4.1665 9.16671 4.1665H10.8334C11.6866 4.1665 12.4666 4.48813 13.0558 5.01546C13.7364 5.62463 14.1667 6.51255 14.1667 7.49984V12.4998C14.1667 14.3408 12.6743 15.8332 10.8334 15.8332H9.16671C8.17942 15.8332 7.2915 15.4029 6.68233 14.7223C6.155 14.1331 5.83337 13.353 5.83337 12.4998V7.49984Z" fill="black"/>
</g>
</svg>
