<svg width="20" height="20" viewBox="0 0 20 20" fill="none" xmlns="http://www.w3.org/2000/svg">
<g id="icon/48/2">
<path id="Vector" fill-rule="evenodd" clip-rule="evenodd" d="M10.8333 5.83317C11.7537 5.83317 12.4999 6.57938 12.4999 7.49984C12.4999 7.99338 12.2865 8.43596 11.9442 8.7423C11.9363 8.74938 11.9285 8.75663 11.9209 8.764L6.08757 14.4005C5.84328 14.6366 5.76674 14.9972 5.89399 15.3121C6.02128 15.627 6.32695 15.8332 6.66661 15.8332H13.3333C13.7935 15.8332 14.1666 15.4601 14.1666 14.9998C14.1666 14.5396 13.7935 14.1665 13.3333 14.1665H8.72828L13.0684 9.9728C13.7417 9.364 14.1666 8.481 14.1666 7.49984C14.1666 5.65888 12.6742 4.1665 10.8333 4.1665H9.16661C7.71395 4.1665 6.48036 5.09525 6.02316 6.3888C5.86978 6.82271 6.09724 7.29884 6.53116 7.45221C6.96511 7.60559 7.4412 7.37813 7.59457 6.94421C7.82378 6.29575 8.44224 5.83317 9.16661 5.83317H10.8333Z" fill="black"/>
</g>
</svg>
