<svg width="20" height="20" viewBox="0 0 20 20" fill="none" xmlns="http://www.w3.org/2000/svg">
<g id="Parts/icon/20/3">
<path id="Vector" fill-rule="evenodd" clip-rule="evenodd" d="M10.7787 5.83317C11.7464 5.83317 12.4999 6.59621 12.4999 7.49984C12.4999 8.40346 11.7464 9.1665 10.7787 9.1665H9.07574C8.61549 9.1665 8.24241 9.53959 8.24241 9.99984C8.24241 10.4601 8.61549 10.8332 9.07574 10.8332H10.7787C11.7464 10.8332 12.4999 11.5962 12.4999 12.4998C12.4999 13.4035 11.7464 14.1665 10.7787 14.1665H9.07574C8.31637 14.1665 7.68241 13.6926 7.45037 13.0501C7.29403 12.6172 6.81637 12.393 6.38349 12.5494C5.95062 12.7057 5.72645 13.1834 5.88279 13.6163C6.35212 14.9158 7.61058 15.8332 9.07574 15.8332H10.7787C12.6327 15.8332 14.1666 14.3576 14.1666 12.4998C14.1666 11.4983 13.7208 10.6079 13.0195 9.99984C13.7208 9.3918 14.1666 8.50138 14.1666 7.49984C14.1666 5.64205 12.6327 4.1665 10.7787 4.1665H9.07574C7.61058 4.1665 6.35212 5.08392 5.88279 6.38342C5.72645 6.8163 5.95062 7.29396 6.38349 7.4503C6.81637 7.60663 7.29403 7.38246 7.45037 6.94959C7.68241 6.30709 8.31637 5.83317 9.07574 5.83317H10.7787Z" fill="black"/>
</g>
</svg>
