<svg width="20" height="20" viewBox="0 0 20 20" fill="none" xmlns="http://www.w3.org/2000/svg">
<g id="icon/48/4">
<path id="Vector" fill-rule="evenodd" clip-rule="evenodd" d="M11.9081 4.20233C12.2595 4.30875 12.4999 4.63267 12.4999 4.99992V11.6666H13.3332C13.7935 11.6666 14.1666 12.0397 14.1666 12.4999C14.1666 12.9602 13.7935 13.3333 13.3332 13.3333H12.4999V14.9999C12.4999 15.4601 12.1268 15.8333 11.6666 15.8333C11.2063 15.8333 10.8332 15.4601 10.8332 14.9999V13.3333H6.66658C6.35925 13.3333 6.07687 13.1641 5.93187 12.8931C5.78683 12.6222 5.80275 12.2934 5.9732 12.0377L10.9732 4.53767C11.1769 4.23208 11.5566 4.09591 11.9081 4.20233ZM10.8332 11.6666V7.75221L8.22366 11.6666H10.8332Z" fill="black"/>
</g>
</svg>
