<svg width="20" height="20" viewBox="0 0 20 20" fill="none" xmlns="http://www.w3.org/2000/svg">
<g id="icon/48/5">
<path id="Vector" fill-rule="evenodd" clip-rule="evenodd" d="M14.1666 4.99984C14.1666 4.53959 13.7935 4.1665 13.3332 4.1665H7.49991C7.10266 4.1665 6.76066 4.44688 6.68274 4.83642L5.84941 9.00309C5.78333 9.33359 5.92283 9.67138 6.20287 9.85892C6.48291 10.0465 6.84837 10.0468 7.12883 9.85988C7.40883 9.67321 8.49804 9.1665 9.99991 9.1665C11.3806 9.1665 12.4999 10.2858 12.4999 11.6665C12.4999 13.0472 11.3806 14.1665 9.99991 14.1665H9.0757C8.31637 14.1665 7.68237 13.6926 7.45033 13.0501C7.29399 12.6172 6.81637 12.393 6.38349 12.5494C5.95062 12.7057 5.72645 13.1834 5.88279 13.6163C6.35212 14.9158 7.61058 15.8332 9.0757 15.8332H9.99991C12.3011 15.8332 14.1666 13.9677 14.1666 11.6665C14.1666 9.36534 12.3011 7.49984 9.99991 7.49984C9.16091 7.49984 8.4102 7.62667 7.78979 7.79959L8.18308 5.83317H13.3332C13.7935 5.83317 14.1666 5.46009 14.1666 4.99984Z" fill="black"/>
</g>
</svg>
