<svg width="20" height="20" viewBox="0 0 20 20" fill="none" xmlns="http://www.w3.org/2000/svg">
<g id="icon/48/6">
<path id="Vector" fill-rule="evenodd" clip-rule="evenodd" d="M10.8199 5.83317C11.5529 5.83317 12.1751 6.29859 12.405 6.94555C12.5591 7.37921 13.0356 7.60584 13.4693 7.45175C13.9029 7.29763 14.1296 6.82117 13.9755 6.38746C13.5153 5.09242 12.2756 4.1665 10.8199 4.1665H9.17996C7.33584 4.1665 5.83325 5.65471 5.83325 7.49984V12.4998C5.83325 14.345 7.33584 15.8332 9.17996 15.8332H10.8199C12.664 15.8332 14.1666 14.345 14.1666 12.4998C14.1666 10.6547 12.664 9.1665 10.8199 9.1665H9.17996C8.56825 9.1665 7.99413 9.33025 7.49992 9.61646V7.49984C7.49992 6.58355 8.24792 5.83317 9.17996 5.83317H10.8199ZM7.49992 12.4998C7.49992 11.5835 8.24792 10.8332 9.17996 10.8332H10.8199C11.7519 10.8332 12.4999 11.5835 12.4999 12.4998C12.4999 13.4161 11.7519 14.1665 10.8199 14.1665H9.17996C8.24792 14.1665 7.49992 13.4161 7.49992 12.4998Z" fill="black"/>
</g>
</svg>
