<svg width="20" height="20" viewBox="0 0 20 20" fill="none" xmlns="http://www.w3.org/2000/svg">
<g id="icon/48/7">
<path id="Vector" fill-rule="evenodd" clip-rule="evenodd" d="M5.83325 4.99984C5.83325 4.53959 6.20634 4.1665 6.66659 4.1665H13.3333C13.6591 4.1665 13.955 4.35638 14.0908 4.65259C14.2265 4.94875 14.1773 5.29692 13.9646 5.54375C13.231 6.3953 12.1468 7.92825 11.1818 9.70046C10.2124 11.4805 9.40392 13.4284 9.15792 15.1198C9.09167 15.5752 8.66875 15.8908 8.21329 15.8245C7.75788 15.7583 7.44233 15.3353 7.50858 14.8799C7.79592 12.9046 8.70963 10.7553 9.71804 8.90338C10.3411 7.75921 11.0158 6.70059 11.6342 5.83317H6.66659C6.20634 5.83317 5.83325 5.46009 5.83325 4.99984Z" fill="black"/>
</g>
</svg>
