<svg width="20" height="20" viewBox="0 0 20 20" fill="none" xmlns="http://www.w3.org/2000/svg">
<g id="icon/48/8">
<path id="Vector" fill-rule="evenodd" clip-rule="evenodd" d="M10.8199 5.83317C11.7519 5.83317 12.4999 6.58355 12.4999 7.49984C12.4999 8.41613 11.7519 9.1665 10.8199 9.1665H9.17996C8.24792 9.1665 7.49992 8.41613 7.49992 7.49984C7.49992 6.58355 8.24792 5.83317 9.17996 5.83317H10.8199ZM6.96634 9.99984C6.272 9.38971 5.83325 8.49688 5.83325 7.49984C5.83325 5.65471 7.33584 4.1665 9.17996 4.1665H10.8199C12.664 4.1665 14.1666 5.65471 14.1666 7.49984C14.1666 8.49688 13.7278 9.38971 13.0335 9.99984C13.7278 10.61 14.1666 11.5028 14.1666 12.4998C14.1666 14.345 12.664 15.8332 10.8199 15.8332H9.17996C7.33584 15.8332 5.83325 14.345 5.83325 12.4998C5.83325 11.5028 6.272 10.61 6.96634 9.99984ZM9.17996 10.8332H10.8199C11.7519 10.8332 12.4999 11.5835 12.4999 12.4998C12.4999 13.4161 11.7519 14.1665 10.8199 14.1665H9.17996C8.24792 14.1665 7.49992 13.4161 7.49992 12.4998C7.49992 11.5835 8.24792 10.8332 9.17996 10.8332Z" fill="black"/>
</g>
</svg>
