<svg width="20" height="20" viewBox="0 0 20 20" fill="none" xmlns="http://www.w3.org/2000/svg">
<g id="icon/48/9">
<path id="Vector" fill-rule="evenodd" clip-rule="evenodd" d="M9.17996 14.1665C8.44696 14.1665 7.82471 13.7011 7.59484 13.0541C7.44075 12.6205 6.96425 12.3938 6.53059 12.5479C6.09692 12.702 5.87025 13.1785 6.02438 13.6122C6.48454 14.9073 7.72425 15.8332 9.17996 15.8332H10.8199C12.664 15.8332 14.1666 14.345 14.1666 12.4998V7.49984C14.1666 5.65471 12.664 4.1665 10.8199 4.1665H9.17996C7.33584 4.1665 5.83325 5.65471 5.83325 7.49984C5.83325 9.34496 7.33584 10.8332 9.17996 10.8332H10.8199C11.4316 10.8332 12.0057 10.6694 12.4999 10.3832V12.4998C12.4999 13.4161 11.7519 14.1665 10.8199 14.1665H9.17996ZM12.4999 7.49984C12.4999 8.41613 11.7519 9.1665 10.8199 9.1665H9.17996C8.24792 9.1665 7.49992 8.41613 7.49992 7.49984C7.49992 6.58355 8.24792 5.83317 9.17996 5.83317H10.8199C11.7519 5.83317 12.4999 6.58355 12.4999 7.49984Z" fill="black"/>
</g>
</svg>
