<svg width="56" height="57" viewBox="0 0 56 57" fill="none" xmlns="http://www.w3.org/2000/svg">
<g clip-path="url(#clip0_7232_78461)">
<g clip-path="url(#clip1_7232_78461)">
<path d="M54.4789 16.6963L55.9315 9.47852C55.9326 9.47298 55.9319 9.46678 55.9286 9.46177L52.1651 3.89985L52.1514 3.89071L41.1431 1.6933C39.7205 1.40961 38.3308 2.30876 38.0064 3.72185L35.9002 12.8981C35.5621 14.3695 36.5057 15.8294 37.9865 16.1258L51.3265 18.7951C52.7768 19.0853 54.1877 18.1458 54.4798 16.6962L54.4789 16.6963Z" fill="#010007"/>
<path d="M43.9659 12.0625H12.6719V47.3192H43.9659V12.0625Z" fill="#494949"/>
<path d="M25.1344 30.8641C25.3548 29.0918 24.3826 27.5119 22.9628 27.3353C21.543 27.1587 20.2133 28.4523 19.9929 30.2246C19.7724 31.9969 20.7447 33.5768 22.1645 33.7533C23.5843 33.9299 24.914 32.6364 25.1344 30.8641Z" fill="white"/>
<path d="M28.669 32.158C29.8457 31.3441 29.976 29.4936 28.9601 28.0248C27.9441 26.5559 26.1667 26.025 24.99 26.8389C23.8133 27.6527 23.683 29.5032 24.6989 30.9721C25.7148 32.4409 27.4923 32.9719 28.669 32.158Z" fill="white"/>
<path d="M31.0536 13.8623C31.0536 13.8623 32.2837 14.8726 33.5138 16.8406C34.7439 18.8085 36.7002 22.2129 36.4769 25.2447C36.4769 25.2447 44.9185 26.9465 45.3661 27.1064C45.8136 27.2663 46.7641 27.7978 45.702 28.6491C44.6398 29.5004 39.2729 33.9678 39.2729 33.9678C39.2729 33.9678 42.1243 40.0315 42.3476 40.404C42.5709 40.7765 43.0748 42.212 41.1175 41.7341C39.1603 41.2553 25.0158 35.9893 25.0158 35.9893C25.0158 35.9893 9.80742 38.4852 9.08207 38.7023C8.1039 38.9944 7.60008 38.2771 8.49517 37.3989C9.32236 36.5869 14.2257 31.1494 14.2257 31.1494C14.2257 31.1494 8.91413 27.5325 8.35492 27.0537C7.79572 26.5748 6.62192 25.8834 8.96951 25.192C11.318 24.5006 18.3063 22.639 18.3063 22.639C18.3063 22.639 19.7043 16.1501 23.3936 12.7984C23.9876 12.3232 24.7353 11.8944 24.3441 12.9583C23.9528 14.0222 23.5053 18.118 25.5179 19.9796C27.5305 21.8413 29.3751 21.8413 29.9343 17.6392C29.9906 16.5753 29.962 14.7931 29.627 13.8623C29.627 13.8623 29.5386 13.555 29.4457 13.304C29.3287 12.9878 29.2286 12.7216 29.5717 12.8252C30.1862 13.011 31.0536 13.8623 31.0536 13.8623Z" fill="#EBFF32"/>
<path d="M18.3047 22.6077C18.3047 22.6077 19.7027 16.1188 23.392 12.7671C23.9861 12.2919 24.7338 11.8631 24.3425 12.927C23.9512 13.991 23.5037 18.0867 25.5163 19.9484C27.5289 21.81 29.3736 21.81 29.9328 17.6079C29.989 16.544 29.9604 14.7619 29.6255 13.8311C29.6255 13.8311 29.537 13.5238 29.4441 13.2728C29.3271 12.9565 29.2271 12.6903 29.5701 12.7939C30.1847 12.9798 31.0521 13.8311 31.0521 13.8311C31.0521 13.8311 32.2821 14.8414 33.5122 16.8093C34.7423 18.7773 36.6986 22.1816 36.4753 25.2135C36.4753 25.2135 32.7243 28.3257 27.1948 28.5776C20.1922 28.8966 18.4315 23.3116 18.3056 22.6068L18.3047 22.6077Z" fill="#5BB3FD"/>
<path d="M30.3266 23.7529C30.3266 23.7529 31.8622 23.7592 32.1257 25.5395C32.3892 27.3199 32.3633 30.1293 30.8608 30.6054C29.3583 31.0815 28.3301 29.9283 28.2247 28.5991C28.1193 27.2698 27.8227 23.652 30.3266 23.752V23.7529Z" fill="white"/>
<path d="M29.1409 30.5749C28.5263 30.1855 28.119 29.4512 28.0511 28.5954C27.9698 27.5708 27.7795 25.1714 28.8542 24.1146C29.2312 23.7439 29.7278 23.5679 30.329 23.592C30.4425 23.5956 32.0156 23.6796 32.2871 25.5162C32.6007 27.6324 32.4274 30.2748 30.9088 30.7563C30.6604 30.8349 30.4175 30.8742 30.1825 30.8742C29.8073 30.8742 29.4554 30.7741 29.1409 30.5749Z" fill="black"/>
<path d="M30.243 24.6875C30.243 24.6875 31.4686 24.7313 31.5347 26.1927C31.5937 27.5085 31.7036 29.6123 30.4011 29.8043C28.8718 30.0303 28.7298 28.5626 28.7932 26.8698C28.8396 25.6344 29.1094 24.7125 30.243 24.6875Z" fill="#2CE69D"/>
<path d="M30.1606 25.3439C30.1606 25.3439 31.1092 25.3064 31.1557 26.4659C31.195 27.4539 31.2021 28.8045 30.3455 28.968C29.2958 29.1681 29.1199 28.0649 29.1833 26.8446C29.2244 26.0576 29.336 25.4011 30.1606 25.3439Z" fill="black"/>
<path d="M30.7776 26.1321C30.7776 26.1321 31.1358 26.1437 31.1715 26.5975C31.2073 27.0522 31.2314 27.5176 30.8732 27.6203C30.515 27.7231 30.2639 27.4613 30.2523 27.1317C30.2407 26.8021 30.1567 26.0749 30.7776 26.1321Z" fill="white"/>
<path d="M25.2656 28.5932C25.2656 28.5932 25.346 29.424 26.2402 29.9162C27.1639 30.4245 27.2568 30.0957 27.4042 29.976C27.5516 29.8563 28.4735 28.5995 27.6561 27.9018C26.8387 27.2032 25.6292 27.7285 25.2656 28.5932Z" fill="#FF7140"/>
<path d="M27.2214 30.3749C27.2509 30.3749 27.2812 30.3677 27.308 30.3516C27.7672 30.0872 28.2567 29.3011 28.2255 28.5972C28.204 28.1157 27.9503 27.7477 27.4912 27.5324C26.3996 27.0187 25.4821 27.8513 25.1498 28.3632C25.1016 28.4382 25.1257 28.5365 25.2043 28.5829C25.2829 28.6294 25.3865 28.6061 25.4348 28.5311C25.4678 28.4811 26.2522 27.3064 27.342 27.8191C27.6886 27.9826 27.8726 28.2488 27.8896 28.6115C27.9155 29.1778 27.5046 29.8657 27.1338 30.0792C27.0543 30.1247 27.0293 30.223 27.0776 30.298C27.1088 30.3472 27.1642 30.3749 27.2214 30.3749Z" fill="#231815"/>
<path d="M26.623 31.0121C26.8517 31.0121 27.0965 30.9782 27.3546 30.9112C27.444 30.8879 27.4967 30.8004 27.4716 30.7155C27.4475 30.6307 27.3546 30.5807 27.2653 30.6039C26.665 30.7602 26.163 30.7102 25.7735 30.4547C25.0267 29.9661 24.9061 28.878 24.9052 28.8664C24.8963 28.7789 24.8159 28.7146 24.7221 28.7235C24.6301 28.7324 24.5622 28.8101 24.5711 28.8977C24.5765 28.9486 24.7069 30.1429 25.5823 30.7164C25.8825 30.913 26.2309 31.0121 26.623 31.0121Z" fill="black"/>
<path d="M31.2773 31.9293C31.3595 31.9293 31.431 31.8721 31.4426 31.7926C31.6346 30.5411 32.0697 29.6862 32.7361 29.253C33.3694 28.8402 34.0001 28.9716 34.0063 28.9734C34.0966 28.9939 34.1868 28.9394 34.2073 28.8545C34.2288 28.7688 34.1734 28.683 34.0832 28.6634C34.0519 28.6562 33.3114 28.4963 32.5538 28.9859C31.8035 29.47 31.3175 30.3999 31.1112 31.7479C31.0978 31.8355 31.1612 31.9159 31.2532 31.9293C31.2612 31.9302 31.2693 31.9311 31.2773 31.9311V31.9293Z" fill="black"/>
<path d="M20.8927 27.8009C20.7873 26.4716 20.5139 23.547 23.0178 23.647C23.0178 23.647 24.5534 23.6533 24.8169 25.4336C25.0805 27.214 25.0546 30.0234 23.552 30.4995C23.552 30.4995 23.3627 30.5996 22.7231 30.5996C22.7231 30.5996 22.7847 28.1734 21.0392 27.8205L20.8927 27.8009Z" fill="white"/>
<path d="M22.5511 30.5958C22.5511 30.5726 22.5913 28.2983 21.0111 27.9785L20.7306 27.9401L20.7154 27.748C20.6368 26.7645 20.4903 24.9332 21.4122 24.0265C21.8035 23.6415 22.343 23.4602 23.0139 23.487C23.0309 23.487 24.6977 23.5156 24.9782 25.4111C25.2909 27.522 25.1194 30.1572 23.6106 30.6476C23.5409 30.6789 23.3024 30.7593 22.7182 30.7593H22.5467L22.5511 30.5958ZM23.4659 30.36L23.4945 30.3484C24.9095 29.9 24.8844 27.0619 24.6468 25.4558C24.4074 23.8398 23.0693 23.8068 23.0067 23.8059C22.4225 23.7826 21.9803 23.9274 21.6534 24.2481C20.8548 25.0342 20.97 26.7136 21.045 27.6605L21.0701 27.664C22.6735 27.9883 22.8638 29.8598 22.8843 30.4368C23.3158 30.4234 23.4659 30.3591 23.4659 30.3591V30.36Z" fill="black"/>
<path d="M23.0898 29.6988C24.3923 29.5068 24.2824 27.4031 24.2234 26.0872C24.1573 24.6267 22.9317 24.582 22.9317 24.582C21.7981 24.607 21.5534 25.5495 21.5078 26.784L21.5382 27.6612C21.5382 27.6612 22.0831 28.0534 22.419 28.4786C22.419 28.4786 22.8102 28.9905 22.8942 29.2299C22.9782 29.4693 23.0898 29.6971 23.0898 29.6971V29.6988Z" fill="#2CE69D"/>
<path d="M20.5008 28.0883C20.1024 28.1079 19.6147 28.4206 19.4423 28.5769C19.0233 28.9557 19.0028 29.4613 19.0858 29.9633C19.1689 30.4653 19.5218 30.9915 19.9872 31.2398C20.3123 31.414 20.8572 31.5292 21.2762 31.4194C21.7175 31.3041 22.2088 30.9575 22.3035 30.5314C22.3982 30.1053 22.2695 29.2906 22.0203 28.9262C22.0203 28.9262 21.5683 28.0347 20.4999 28.0883H20.5008Z" fill="#FF7140"/>
<path d="M20.8931 28.3179C20.8931 28.3179 21.2915 28.3974 21.3862 28.7271C21.4809 29.0558 21.2969 29.4149 20.8886 29.3059C20.4795 29.196 20.2705 28.9915 20.2231 28.7824C20.1856 28.6154 20.3875 28.2259 20.894 28.3188L20.8931 28.3179Z" fill="white"/>
<path d="M21.9776 18.6167C22.1965 19.602 23.5498 22.7259 26.9676 22.4266C30.3854 22.1274 29.9396 17.5385 29.9396 17.5385C29.3804 21.7406 27.5339 21.8022 25.5213 19.9406C23.5087 18.0789 23.9563 13.9832 24.3476 12.9192C24.7388 11.8553 23.9911 12.2841 23.3971 12.7593C23.3971 12.7593 21.0629 14.4879 21.9785 18.6167H21.9776Z" fill="#EBFF32"/>
<path d="M27.1883 22.1302C28.3157 22.1302 29.3305 21.4728 29.7307 20.8269C29.778 20.751 29.7512 20.6527 29.6717 20.608C29.5922 20.5634 29.4895 20.5884 29.4421 20.6643C29.1277 21.1708 28.1826 21.8596 27.0722 21.8086C25.9341 21.7559 24.9471 20.9421 24.2172 19.4548C22.4306 15.811 24.4272 12.5353 24.4468 12.5031C24.4941 12.4272 24.4682 12.3298 24.3878 12.2843C24.3083 12.2387 24.2056 12.2646 24.1583 12.3397C24.1368 12.3736 22.0519 15.7949 23.9126 19.5897C24.9051 21.613 26.1691 22.0865 27.0552 22.1275C27.0999 22.1293 27.1437 22.1302 27.1874 22.1302H27.1883Z" fill="#5BB3FD"/>
<path d="M26.0056 22.7414C26.0798 22.7414 26.1477 22.6941 26.1673 22.6226C26.1905 22.5377 26.1378 22.4502 26.0485 22.4279C22.2591 21.472 22.3967 17.5665 22.8166 15.3226C23.2427 13.0411 24.2851 12.6007 24.2959 12.5962C24.3816 12.5623 24.4218 12.4685 24.3852 12.3872C24.3495 12.3059 24.2512 12.2675 24.1654 12.3014C24.1154 12.3211 22.9443 12.8151 22.486 15.2663C22.0465 17.6174 21.9143 21.7141 25.9628 22.7351C25.977 22.7387 25.9913 22.7405 26.0056 22.7405V22.7414Z" fill="#5BB3FD"/>
<path d="M23.063 25.3439C23.063 25.3439 23.9805 25.3082 24.0251 26.4096C24.0635 27.3484 24.1091 28.6428 23.2417 28.7858C22.2823 28.9439 22.0572 27.9282 22.1188 26.7696C22.159 26.0219 22.2671 25.3984 23.063 25.3439Z" fill="black"/>
<path d="M23.6448 26.1321C23.6448 26.1321 24.003 26.1437 24.0387 26.5975C24.0744 27.0522 24.0986 27.5176 23.7404 27.6203C23.3821 27.7222 23.1311 27.4613 23.1195 27.1317C23.1079 26.8021 23.0239 26.0749 23.6448 26.1321Z" fill="white"/>
<path d="M43.2974 37.2721C43.8672 37.2721 44.3291 36.8325 44.3291 36.2903C44.3291 35.7481 43.8672 35.3086 43.2974 35.3086C42.7276 35.3086 42.2656 35.7481 42.2656 36.2903C42.2656 36.8325 42.7276 37.2721 43.2974 37.2721Z" fill="#5BB3FD"/>
<path d="M28.1458 28.7775C28.1494 28.8267 28.1538 28.8785 28.1574 28.924C28.2342 29.8888 28.6898 30.7232 29.3759 31.1573C29.9226 31.503 30.5845 31.5682 31.2902 31.344C32.4711 30.9697 32.8767 29.3117 32.9348 27.6225C32.9669 26.6872 32.8946 25.743 32.7847 25.0007C32.4747 22.9095 30.7453 22.863 30.6658 22.8621H30.6577C29.9976 22.8344 29.4804 23.0158 29.0757 23.4142C27.8626 24.6076 28.0404 27.4197 28.1458 28.7775Z" fill="white"/>
<path d="M27.9299 28.8542C27.9281 28.8381 27.9237 28.8238 27.9219 28.8086C27.9237 28.8086 27.9246 28.8086 27.9263 28.8086C27.9272 28.8238 27.929 28.8399 27.9299 28.855V28.8542Z" fill="black"/>
<path opacity="0.47" d="M27.9299 28.8542C27.9281 28.8381 27.9237 28.8238 27.9219 28.8086C27.9237 28.8086 27.9246 28.8086 27.9263 28.8086C27.9272 28.8238 27.929 28.8399 27.9299 28.855V28.8542Z" fill="white"/>
<path d="M31.7422 26.2656C31.7467 26.2924 31.7538 26.3139 31.7565 26.3433C31.7797 26.6408 31.7994 26.941 31.7529 27.183C31.7609 26.8704 31.7529 26.5577 31.7422 26.2656Z" fill="white"/>
<path d="M29.7327 28.8403C29.906 30.0481 30.4241 30.8449 31.756 30.6484C32.8476 30.4876 33.1728 29.2906 33.246 28.0042C33.2862 27.3003 33.2523 26.5696 33.2255 25.9666C33.1397 24.0728 31.5506 24.0156 31.5506 24.0156C30.0811 24.0478 29.7309 25.243 29.6711 26.8447C29.6443 27.5647 29.6478 28.2516 29.7327 28.8412V28.8403Z" fill="#2CE69D"/>
<path d="M30.3986 26.8403C30.4522 25.8202 30.5969 24.9689 31.6653 24.8947C31.6653 24.8947 32.8954 24.8456 32.9552 26.3499C32.9561 26.3785 32.957 26.4089 32.9588 26.4383C32.8775 25.9309 32.4621 25.9122 32.4621 25.9122C31.6573 25.8389 31.7654 26.7814 31.7805 27.2084C31.7957 27.6354 32.1209 27.9739 32.5854 27.8417C32.8159 27.7756 32.924 27.5943 32.9686 27.3558C32.9615 27.6496 32.9383 27.9409 32.8927 28.2142C32.7766 28.9119 32.505 29.4791 31.9038 29.5935C31.1677 29.7337 30.7649 29.3773 30.5612 28.7716C30.3888 28.258 30.3593 27.5666 30.3977 26.8403H30.3986Z" fill="black"/>
<path d="M32.5915 27.8398C32.127 27.972 31.8018 27.6335 31.7867 27.2065C31.7715 26.7795 31.6625 25.837 32.4682 25.9103C32.4682 25.9103 32.8836 25.9299 32.9649 26.4364C32.9756 26.7285 32.9837 27.0412 32.9756 27.3539C32.9301 27.5924 32.822 27.7737 32.5924 27.8398H32.5915Z" fill="white"/>
<path d="M24.33 28.8491L24.3309 28.8473C25.0384 28.9233 25.7959 28.9501 26.6088 28.9125C26.9099 28.8991 27.2002 28.8697 27.4932 28.8438C27.4977 28.8813 27.5102 28.9143 27.5119 28.9536C27.545 29.6879 27.0126 30.5794 26.532 30.8564C26.4775 30.8876 26.4445 30.9385 26.4328 30.9939C26.2256 31.0136 25.9112 30.9421 25.3716 30.6455C24.2559 30.0318 24.1183 29.0215 24.1094 28.9447C24.1933 28.9572 24.2809 28.9224 24.3282 28.8491H24.33Z" fill="#FF7140"/>
<path d="M26.7999 27.9263C27.2117 28.1202 27.4377 28.4319 27.4904 28.8437C27.1974 28.8696 26.9071 28.8991 26.606 28.9125C25.7922 28.95 25.0356 28.9232 24.3281 28.8473C24.379 28.7705 25.392 27.2635 26.7999 27.9254V27.9263Z" fill="#FF7140"/>
<path d="M26.8807 30.7246C27.0227 30.6094 27.7195 29.6768 27.631 28.8344C27.6578 28.8317 27.6855 28.8308 27.7123 28.8281C27.715 28.8648 27.7186 28.9049 27.7212 28.9389C27.7409 29.1908 27.7865 29.4329 27.8499 29.666C27.6542 30.3396 27.1969 30.9595 26.7583 31.2123C26.7234 31.2329 26.6841 31.2427 26.6457 31.2427C26.5725 31.2427 26.5001 31.207 26.4599 31.1427C26.4304 31.0971 26.4242 31.0444 26.434 30.9962C26.6868 30.972 26.777 30.8104 26.8815 30.7255L26.8807 30.7246Z" fill="#231815"/>
<path d="M24.109 28.93C24.109 28.93 24.1108 28.9416 24.1108 28.9443C24.0831 28.9398 24.0554 28.9309 24.0304 28.9157C23.9831 28.8871 23.9518 28.8442 23.9375 28.7969C24.0116 28.8067 24.0831 28.8192 24.1581 28.8281C24.1412 28.8621 24.1224 28.8951 24.1081 28.93H24.109Z" fill="#231815"/>
<path d="M23.9386 28.7987C23.9226 28.7442 23.927 28.6853 23.961 28.6335C24.3916 27.9698 25.5814 26.8906 26.9964 27.557C27.2832 27.6919 27.5047 27.8751 27.6637 28.0957C27.6789 28.3708 27.6968 28.6174 27.7137 28.8282C27.6869 28.8309 27.6592 28.8318 27.6324 28.8345C27.6021 28.545 27.4797 28.2663 27.209 28.035C26.1817 27.1577 24.681 27.7714 24.1602 28.83" fill="#231815"/>
<path d="M27.7109 28.8256C27.7806 28.8184 27.8539 28.8166 27.9235 28.8086C27.9253 28.8238 27.9298 28.8381 27.9316 28.8542C27.9334 28.8809 27.936 28.914 27.9378 28.9399C27.9387 28.9542 27.9423 28.9685 27.9432 28.9837C27.9477 29.2088 27.9137 29.4384 27.8485 29.6635C27.7851 29.4312 27.7395 29.1891 27.7199 28.9363C27.7172 28.9024 27.7145 28.8622 27.7109 28.8256Z" fill="#231815"/>
<path d="M27.7141 28.8263C27.6971 28.6145 27.6792 28.368 27.6641 28.0938C27.8115 28.2983 27.8945 28.5413 27.9267 28.8102C27.857 28.8182 27.7838 28.82 27.7141 28.8271V28.8263Z" fill="#231815"/>
<path d="M27.9491 28.985C27.9473 28.9707 27.9446 28.9564 27.9438 28.9412C27.942 28.9153 27.9393 28.8832 27.9375 28.8555C27.9402 28.8832 27.95 28.9073 27.9518 28.9359C27.9518 28.9519 27.9491 28.968 27.95 28.9841L27.9491 28.985Z" fill="#231815"/>
<path d="M24.1585 28.8281C24.2157 28.8353 24.2728 28.8406 24.3309 28.8469L24.33 28.8487C24.2827 28.9219 24.1951 28.9568 24.1112 28.9443C24.1112 28.9416 24.1094 28.93 24.1094 28.93C24.1237 28.8951 24.1424 28.8621 24.1594 28.8281H24.1585Z" fill="#231815"/>
<path d="M26.5367 30.8554C27.0172 30.5784 27.5497 29.6869 27.5166 28.9526C27.5148 28.9133 27.5023 28.8803 27.4978 28.8428C27.5434 28.8383 27.5899 28.8365 27.6354 28.832C27.7247 29.6744 27.0271 30.607 26.885 30.7223C26.7805 30.8071 26.6903 30.9688 26.4375 30.9929C26.4491 30.9375 26.4822 30.8866 26.5367 30.8554Z" fill="#231815"/>
<path d="M26.8004 27.9242C25.3926 27.2622 24.3787 28.7692 24.3287 28.8461C24.2706 28.8398 24.2134 28.8336 24.1562 28.8273C24.677 27.7687 26.1778 27.1551 27.2051 28.0323C27.4757 28.2636 27.5981 28.5423 27.6285 28.8318C27.5829 28.8362 27.5365 28.838 27.4909 28.8425C27.4382 28.4307 27.2122 28.118 26.8004 27.9251V27.9242Z" fill="#231815"/>
<path d="M33.0109 29.9015C33.1806 29.7255 33.362 29.5665 33.5612 29.4379C34.5429 28.8037 35.5032 29.0109 35.5434 29.0198C35.6604 29.0457 35.7319 29.1574 35.7042 29.2682C35.6765 29.3789 35.5604 29.4495 35.4434 29.4227C35.4353 29.4209 34.6171 29.2512 33.797 29.7854C32.9341 30.3473 32.3695 31.4559 32.1203 33.079C32.1042 33.1817 32.0113 33.2559 31.9059 33.2559C31.8952 33.2559 31.8845 33.2559 31.8737 33.2541C31.7549 33.238 31.6727 33.1326 31.6897 33.0191C31.7862 32.3903 31.9318 31.8346 32.1203 31.3478C32.5205 31.0056 32.8099 30.5027 33.01 29.9015H33.0109Z" fill="black"/>
<path d="M33.0069 29.9023C32.8059 30.5026 32.5174 31.0065 32.1172 31.3486C32.3468 30.759 32.6451 30.2784 33.0069 29.9023Z" fill="black"/>
<path d="M27.9306 28.8549C27.9333 28.8826 27.9431 28.9067 27.9449 28.9353C27.9449 28.9514 27.9422 28.9674 27.9431 28.9835C27.9476 29.2086 27.9136 29.4382 27.8484 29.6633C28.0637 30.4539 28.5166 31.1131 29.1321 31.5026C29.5394 31.7608 29.9968 31.8903 30.4828 31.8903C30.7865 31.8903 31.1018 31.8394 31.4243 31.7376C31.6843 31.6554 31.9129 31.5205 32.1148 31.3481C32.3444 30.7585 32.6428 30.2779 33.0045 29.9018C33.2431 29.189 33.3556 28.3421 33.3753 27.4578C33.394 26.6198 33.3306 25.7525 33.2109 24.9431C32.858 22.5625 30.8195 22.4535 30.6721 22.4481C29.8923 22.4169 29.2491 22.6447 28.7596 23.1262C27.6099 24.2571 27.5778 26.5698 27.6608 28.092C27.8082 28.2966 27.8913 28.5395 27.9235 28.8084C27.9253 28.8084 27.9261 28.8084 27.9279 28.8084C27.9288 28.8236 27.9306 28.8397 27.9315 28.8549H27.9306ZM28.1539 28.9246C28.1504 28.879 28.1468 28.8272 28.1423 28.7781C28.036 27.4211 27.8591 24.6081 29.0722 23.4147C29.4769 23.0172 29.9932 22.8358 30.6543 22.8626H30.6623C30.7418 22.8635 32.4712 22.91 32.7812 25.0012C32.8911 25.7426 32.9635 26.6877 32.9313 27.623C32.8732 29.3123 32.4677 30.9702 31.2867 31.3445C30.581 31.5678 29.92 31.5035 29.3724 31.1578C28.6863 30.7237 28.2308 29.8884 28.1539 28.9246Z" fill="black"/>
<path d="M52.711 12.9075L10.1846 5.04375C8.89916 4.80614 7.66462 5.65566 7.427 6.94023L0.453911 44.6499C0.216293 45.9354 1.06582 47.1699 2.35038 47.4076L44.8759 55.2713C46.1613 55.5089 47.3959 54.6593 47.6335 53.3748L54.6066 15.6651C54.8442 14.3796 53.9947 13.1451 52.7101 12.9075H52.711ZM24.6266 45.3208L24.564 45.2324L10.7554 25.7451L10.7536 25.7433L26.9849 13.2442L43.9352 27.73L44.0156 27.7988L24.6266 45.3217V45.3208Z" fill="#010007"/>
<path d="M44.0151 27.7969L26.9844 13.2415L32.1959 11.9346C33.1928 11.6845 34.2362 12.1061 34.7802 12.978L44.016 27.7969H44.0151Z" fill="#D3D3D3"/>
<path d="M26.9873 13.2422L10.7578 25.7439L14.666 15.0904C14.9992 14.1819 15.8514 13.5682 16.8179 13.5397L26.9873 13.2422Z" fill="#D3D3D3"/>
<path d="M39.2324 40.7514L24.6797 45.2769L44.0687 27.7539L40.8037 39.1435C40.584 39.9099 39.9935 40.5147 39.2315 40.7514H39.2324Z" fill="#D3D3D3"/>
<path d="M12.0366 13.161C12.0295 13.1709 12.0179 13.187 12 13.2111C12.0054 13.2039 12.0116 13.1959 12.0179 13.187C12.0241 13.178 12.0295 13.1691 12.0357 13.1602L12.0366 13.161Z" fill="#2CE69D"/>
<path d="M9.94444 14.2442C9.9364 14.2335 9.92836 14.2219 9.92121 14.2112C9.91853 14.2085 9.91674 14.2058 9.91406 14.2031C9.97749 14.3085 9.96766 14.2808 9.94444 14.2442Z" fill="#2CE69D"/>
<path d="M9.62223 13.9176C9.62223 13.9176 9.62134 13.9167 9.62044 13.9158C9.61866 13.914 9.61598 13.9122 9.6133 13.9104C9.599 13.9006 9.5856 13.8908 9.57131 13.8809C9.5463 13.8649 9.54005 13.8631 9.62134 13.9176H9.62223Z" fill="#2CE69D"/>
<path d="M11.5116 13.6975C11.5116 13.6975 11.517 13.693 11.5197 13.6903C11.5429 13.6698 11.5474 13.6617 11.4688 13.7305C11.4732 13.7269 11.4786 13.7234 11.4839 13.7198C11.4938 13.7127 11.5027 13.7046 11.5116 13.6975Z" fill="#2CE69D"/>
<path d="M8.72011 13.707C8.72011 13.707 8.71386 13.7106 8.71118 13.7124C8.70582 13.7178 8.69957 13.7222 8.69421 13.7276C8.68617 13.7347 8.67902 13.7428 8.67188 13.7508C8.67188 13.7508 8.67188 13.7508 8.67188 13.7517C8.6817 13.7437 8.69778 13.7294 8.72011 13.707Z" fill="#2CE69D"/>
<path d="M50.1943 11.5995C50.1943 8.45434 47.6134 5.91965 44.4781 6.04341C41.6665 6.15459 39.3647 8.44525 39.2115 11.2876C39.0836 13.6615 40.4289 15.7326 42.4056 16.6528C42.6916 16.7856 42.8783 17.0723 42.8783 17.3911V17.5848C42.8783 17.9023 43.1328 18.1596 43.446 18.1596H45.9514C46.2653 18.1596 46.5191 17.9023 46.5191 17.5848V17.3911C46.5191 17.0758 46.6995 16.7884 46.9834 16.6569C48.8783 15.7794 50.195 13.8461 50.195 11.6002L50.1943 11.5995Z" fill="#FFC20B"/>
<path d="M46.2545 19.8531H43.1387C42.6479 19.8531 42.25 19.4503 42.25 18.9539C42.25 18.4574 42.6479 18.0547 43.1387 18.0547H46.2545C46.7453 18.0547 47.1432 18.4574 47.1432 18.9539C47.1432 19.4503 46.7453 19.8531 46.2545 19.8531Z" fill="#FF1D46"/>
<path d="M43.14 17.7387C43.0491 17.7387 42.9715 17.668 42.9631 17.575L42.3757 10.8702C42.3694 10.8009 42.4037 10.7345 42.4631 10.6996C42.5226 10.6646 42.5967 10.6667 42.6533 10.7058C42.6603 10.7107 43.0973 11.0072 43.7008 11.175C43.7455 10.7366 44.0014 10.3625 44.4014 10.1695C44.8279 9.96397 45.2517 9.98215 45.5355 10.2185C45.7572 10.4031 45.8523 10.687 45.7831 10.9583C45.6992 11.2862 45.4013 11.5211 44.9643 11.6037C44.6643 11.6603 44.3699 11.6589 44.0937 11.6232C44.1923 11.9589 44.4482 12.2323 44.7909 12.3518C45.2831 12.5224 45.6754 12.3875 45.918 12.2441C46.2809 12.0295 46.5592 11.6512 46.6277 11.2799C46.6452 11.182 46.7375 11.1177 46.8347 11.1359C46.9312 11.1541 46.9948 11.2477 46.9773 11.3456C46.8913 11.8155 46.5459 12.2903 46.0977 12.5553C45.7908 12.7364 45.2943 12.9077 44.6755 12.693C44.1644 12.5154 43.8001 12.0777 43.7134 11.5533C43.3197 11.4568 42.9862 11.3058 42.7603 11.1862L43.3176 17.5443C43.326 17.6429 43.254 17.7303 43.1561 17.7394C43.1505 17.7394 43.1456 17.74 43.14 17.74V17.7387ZM44.0504 11.2526C44.3196 11.296 44.6084 11.3051 44.8985 11.2505C45.1936 11.1946 45.3901 11.0562 45.4383 10.8688C45.4726 10.7338 45.423 10.5912 45.309 10.4961C45.1321 10.3485 44.8573 10.3478 44.5538 10.494C44.2525 10.6394 44.07 10.9177 44.0504 11.2526Z" fill="#FFFFD3"/>
<path d="M46.2564 17.74C46.2508 17.74 46.2459 17.74 46.2403 17.7393C46.1424 17.7302 46.0704 17.6435 46.0788 17.5442L46.6661 10.8394C46.6745 10.7401 46.7605 10.6681 46.8591 10.6764C46.957 10.6855 47.029 10.7722 47.0206 10.8715L46.4333 17.5764C46.4249 17.6701 46.3473 17.74 46.2564 17.74Z" fill="#FFFFD3"/>
<path d="M46.8425 18.4117H42.5528C42.0619 18.4117 41.6641 18.0089 41.6641 17.5125C41.6641 17.016 42.0619 16.6133 42.5528 16.6133H46.8425C47.3334 16.6133 47.7312 17.016 47.7312 17.5125C47.7312 18.0089 47.3334 18.4117 46.8425 18.4117Z" fill="#FF1D46"/>
<path d="M10.7431 25.7344L24.6303 45.3208L16.3575 44.3284C15.3534 44.2078 14.5369 43.4628 14.3252 42.4739L10.7422 25.7344H10.7431Z" fill="#D3D3D3"/>
<path d="M14.0987 28.315L15.0501 25.8307C15.4279 24.8445 14.632 23.8145 13.5806 23.9173C11.8324 24.0879 10.1843 24.4345 8.69246 24.9571C7.62675 25.3305 7.17295 26.9268 8.04749 27.2278C9.14536 27.6057 10.5157 28.1792 12.0941 29.0466C12.8463 29.4602 13.7914 29.1163 14.0987 28.315Z" fill="#EBFF32"/>
<path d="M53.0153 8.84587L55.9726 9.44109L52.1992 3.86328L51.6191 6.74505C51.4252 7.71051 52.0497 8.65102 53.0151 8.84498L53.0153 8.84587Z" fill="#D3D3D3"/>
<path d="M46.0819 31.236C45.6066 31.026 45.0876 30.9421 44.5758 30.859C43.0268 30.608 41.5689 30.3703 40.0199 30.1202C39.81 30.0863 39.5938 30.0398 39.3866 30.0854C39.0757 30.1542 38.8086 30.4793 38.7139 30.6696C38.5442 31.01 38.8417 31.6915 39.0972 31.9738C39.6671 32.6045 40.3549 32.617 41.1392 32.9439C42.1085 33.3486 43.2028 33.3692 44.2363 33.186C45.0885 33.0342 45.9094 32.7501 46.7179 32.4464C47.1619 32.2793 47.2342 32.1989 46.8992 31.8148C46.6786 31.562 46.3892 31.37 46.0827 31.2351L46.0819 31.236Z" fill="#FFC20B"/>
<path d="M38.9023 34.1857L39.875 32.832L38.0868 31.5471L37.1141 32.9007L38.9023 34.1857Z" fill="#698E8B"/>
<path d="M26.4901 30.99C26.4802 31.0391 26.4865 31.0909 26.516 31.1365C26.5571 31.2008 26.6285 31.2365 26.7018 31.2365C26.7402 31.2365 26.7795 31.2267 26.8143 31.2061C27.2529 30.9533 27.7112 30.3334 27.9059 29.6598C28.1212 30.4504 28.5741 31.1097 29.1896 31.4991C29.597 31.7573 30.0543 31.8868 30.5403 31.8868C30.844 31.8868 31.1593 31.8359 31.4818 31.7341C31.7418 31.6519 31.9705 31.517 32.1723 31.3446C31.983 31.8315 31.8382 32.3871 31.7418 33.016C31.7248 33.1294 31.807 33.2339 31.9258 33.2509C31.9365 33.2527 31.9472 33.2527 31.958 33.2527C32.0643 33.2527 32.1572 33.1785 32.1723 33.0758C32.4216 31.4527 32.9861 30.345 33.8491 29.7831C34.67 29.2489 35.4883 29.4187 35.4954 29.4204C35.6124 29.4472 35.7286 29.3767 35.7563 29.2659C35.7839 29.1551 35.7116 29.0444 35.5955 29.0176C35.5553 29.0086 34.595 28.8014 33.6132 29.4356C33.414 29.5643 33.2336 29.7233 33.063 29.8992C33.3015 29.1864 33.414 28.3396 33.4337 27.4552C34.8478 26.9067 36.0189 26.2921 36.8952 25.7695C37.2874 27.5106 36.9685 29.4035 35.8456 30.9667C33.7615 33.8673 29.7202 34.5292 26.8197 32.4452C25.9943 31.852 25.3574 31.0972 24.9062 30.2592C25.0528 30.3941 25.2189 30.5263 25.4297 30.6416C25.9693 30.9382 26.2837 31.0096 26.491 30.99H26.4901Z" fill="#EBFF32"/>
<path d="M33.2733 24.9379C32.9204 22.5573 30.8819 22.4483 30.7345 22.4429C29.9547 22.4117 29.3115 22.6395 28.822 23.1209C27.6723 24.2519 27.6401 26.5646 27.7232 28.0868C27.5642 27.8653 27.3427 27.683 27.0559 27.5481C25.8321 26.9729 24.778 27.7009 24.2367 28.3378C23.9365 26.6745 24.2813 24.8968 25.3452 23.4166C27.4293 20.5161 31.4706 19.8542 34.3711 21.9382C35.7084 22.8994 36.5633 24.2778 36.8992 25.7669C36.0228 26.2895 34.8526 26.905 33.4376 27.4526C33.4564 26.6146 33.393 25.7472 33.2733 24.9379Z" fill="#5BB3FD"/>
<path d="M23.1459 30.0288C22.7859 29.081 22.6099 28.0716 22.626 27.0586C22.6233 27.5615 22.6608 28.0627 22.7466 28.5567C22.8341 29.0578 22.969 29.55 23.1459 30.0288Z" fill="#2CE69D"/>
<path d="M24.0157 28.6275C24.0737 28.5373 24.147 28.4399 24.2318 28.3398C24.3524 29.0071 24.5802 29.6548 24.9054 30.2587C24.2756 29.678 24.1738 29.0027 24.1666 28.9401C24.1389 28.9357 24.1113 28.9267 24.0862 28.9116C24.0389 28.883 24.0076 28.8401 23.9933 28.7927C23.9773 28.7391 23.9817 28.6793 24.0157 28.6275Z" fill="#2CE69D"/>
<path d="M37.8121 32.0073C38.0845 31.6276 38.3177 31.2328 38.5178 30.8281C38.5785 30.9845 38.5696 31.1649 38.4651 31.3114L37.0099 33.3365C36.8714 33.5295 36.6267 33.5884 36.4141 33.5089C36.9277 33.0739 37.4021 32.5781 37.8121 32.0073Z" fill="#2CE69D"/>
<path d="M22.6251 27.058C22.6225 27.5609 22.66 28.0621 22.7457 28.5561C22.8333 29.0572 22.9682 29.5494 23.145 30.0282C23.6819 31.4414 24.6217 32.7188 25.9411 33.6666C29.0256 35.8829 33.1536 35.5783 35.8799 33.1592L36.2917 33.4549C36.3292 33.4826 36.3721 33.4942 36.4141 33.5103C36.9277 33.0753 37.4021 32.5795 37.8121 32.0087C38.0846 31.629 38.3177 31.2342 38.5178 30.8295C38.483 30.7393 38.4312 30.6553 38.3472 30.5946L37.9354 30.2989C38.6724 28.5623 38.7465 26.6515 38.2239 24.9034C37.7371 23.274 36.733 21.7866 35.2457 20.7174C31.6698 18.1482 26.6879 18.9638 24.1187 22.5397C23.1334 23.9109 22.6501 25.4894 22.6251 27.0589V27.058ZM23.9946 28.791C23.9785 28.7374 23.9829 28.6775 24.0169 28.6257C24.075 28.5355 24.1482 28.4381 24.2331 28.3381C23.9329 26.6748 24.2777 24.8971 25.3417 23.4169C27.4257 20.5164 31.467 19.8544 34.3675 21.9385C35.7048 22.8997 36.5597 24.2781 36.8956 25.7672C37.2877 27.5082 36.9688 29.4011 35.846 30.9644C33.7619 33.8649 29.7206 34.5269 26.8201 32.4428C25.9947 31.8497 25.3577 31.0948 24.9066 30.2569C24.2768 29.6763 24.175 29.0009 24.1679 28.9384C24.1402 28.9339 24.1125 28.925 24.0875 28.9098C24.0401 28.8812 24.0089 28.8383 23.9946 28.791Z" fill="#2CE69D"/>
<path d="M26.7585 32.5308C23.8151 30.4154 23.1416 26.3 25.256 23.3566C26.2806 21.9309 27.7992 20.9893 29.5322 20.7053C31.2652 20.4212 33.0045 20.8294 34.4302 21.8541C35.8559 22.8787 36.7974 24.3973 37.0815 26.1303C37.3656 27.8633 36.9573 29.6025 35.9327 31.0282C34.6499 32.813 32.632 33.7635 30.5854 33.7635C29.2571 33.7635 27.9171 33.3633 26.7585 32.5308ZM29.5662 20.9143C27.8895 21.1885 26.42 22.0997 25.4284 23.4799C23.3819 26.3286 24.034 30.3109 26.8818 32.3584C29.7305 34.4049 33.7129 33.7528 35.7603 30.9041C36.7519 29.5239 37.1467 27.8409 36.8725 26.1642C36.5982 24.4875 35.6862 23.018 34.3069 22.0265C33.2135 21.2404 31.9289 20.8294 30.6087 20.8294C30.2629 20.8294 29.9146 20.858 29.5671 20.9143H29.5662Z" fill="#698E8B"/>
<path d="M23.6684 25.1211C23.2503 26.52 23.2726 28.002 23.7032 29.3678" stroke="white" stroke-width="0.678014" stroke-miterlimit="10" stroke-linecap="round"/>
<path d="M48.6681 39.8099L48.3188 40.2959C47.8987 40.8806 47.0821 41.0143 46.4974 40.5942L38.9645 35.1812C38.6279 34.9394 38.5509 34.4694 38.7928 34.1328L39.7884 32.7472C40.0303 32.4106 40.5003 32.3336 40.8369 32.5755L48.3698 37.9884C48.9545 38.4086 49.0883 39.2252 48.6681 39.8099Z" fill="#2CE69D"/>
<path d="M47.25 32.2397L49.042 28.7656L49.1081 32.3174L51.2046 32.5094L50.44 34.6132L53.4352 36.381L48.3345 36.8017L47.25 32.2397Z" fill="#FF7140"/>
<path d="M41.2552 33.0099C40.9211 34.1265 40.2458 35.0627 39.4382 35.9033C39.2024 36.149 38.9469 36.3812 38.7629 36.668C38.5789 36.9547 38.4708 37.3129 38.5673 37.6399C38.6727 37.9963 38.9925 38.2437 39.3159 38.4269C39.5803 38.5769 39.8652 38.702 40.1681 38.7324C40.47 38.7627 40.7934 38.6886 41.0167 38.4822C40.6701 39.0218 40.9006 39.8034 41.4169 40.184C41.9332 40.5654 42.647 40.5931 43.2589 40.3984C43.1669 40.711 43.3527 41.0567 43.6287 41.2291C43.9047 41.4015 44.2496 41.4283 44.5738 41.3962C45.3081 41.3229 46.1201 41.0228 46.5498 40.4234C46.5498 40.4234 48.5838 39.0129 49.0341 35.9908C49.4843 32.9688 46.3497 31.3296 46.3497 31.3296C45.46 30.9303 44.7641 30.7767 43.7716 30.799C42.7979 30.8213 41.5893 31.8933 41.2561 33.0072L41.2552 33.0099Z" fill="#FFC20B"/>
<path opacity="0.5" d="M26.8971 32.4269C29.7976 34.511 33.8389 33.849 35.923 30.9485C38.0071 28.0479 37.3451 24.0067 34.4446 21.9226C31.544 19.8385 27.5028 20.5005 25.4187 23.401C23.3346 26.3015 23.9966 30.3428 26.8971 32.4269ZM26.2307 25.3948C26.4433 24.5677 26.7801 23.7485 27.3759 23.1366C28.8418 21.6314 31.2921 21.6099 33.0635 22.5417C33.579 22.8123 34.0497 23.1687 34.4464 23.5949C35.4862 24.7124 36.007 26.2837 35.8864 27.8059C35.7658 29.328 35.0181 30.7823 33.8818 31.8025C33.0591 32.5412 32.0103 33.0647 30.9062 33.1183C29.1563 33.2041 27.4849 32.0598 26.6648 30.5117C25.8448 28.9636 25.7948 27.0903 26.2316 25.3948H26.2307Z" fill="white"/>
</g>
</g>
<defs>
<clipPath id="clip0_7232_78461">
<rect width="56" height="56" fill="white" transform="translate(0 0.4375)"/>
</clipPath>
<clipPath id="clip1_7232_78461">
<rect width="56" height="56" fill="white" transform="translate(0 0.4375)"/>
</clipPath>
</defs>
</svg>
