<svg width="300" height="380" viewBox="0 0 300 380" fill="none" xmlns="http://www.w3.org/2000/svg">
<path d="M14.1715 281.774L43.6923 367.169C45.9963 373.834 53.2669 377.369 59.9318 375.065L159.209 340.746C165.874 338.442 169.409 331.171 167.105 324.506L137.584 239.111C135.28 232.446 128.01 228.911 121.345 231.215L22.0675 265.534C15.4027 267.838 11.8675 275.109 14.1715 281.774Z" fill="black"/>
<path d="M104.329 130.647L221.952 113.141C228.979 112.094 235.504 116.985 236.479 124.02L262.501 311.9C263.463 318.833 258.658 325.251 251.733 326.281L78.822 352.014C71.795 353.061 65.2703 348.171 64.2957 341.135L45.3345 204.236L104.329 130.647Z" fill="black"/>
<path d="M79.1844 278.55L80.6113 275.431C81.0202 274.535 80.6642 273.495 79.8132 273.023L95.5479 238.628C96.4653 238.943 97.4956 238.519 97.9044 237.624L99.3313 234.504C99.7627 233.559 99.3406 232.445 98.3863 232.021L96.809 231.319L95.5637 230.766L87.5869 227.219L84.4371 225.818L78.369 223.118L75.8326 221.989L46.9657 209.149C46.0113 208.725 44.8829 209.146 44.4515 210.091L43.0247 213.211C42.5933 214.156 43.0154 215.27 43.9697 215.694L61.2692 223.39L45.5404 257.767L28.2409 250.071C27.2866 249.648 26.1582 250.069 25.7268 251.014L24.2999 254.133C23.8685 255.079 24.2906 256.193 25.245 256.616L76.6697 279.489C77.624 279.912 78.7525 279.491 79.1838 278.546L79.1844 278.55ZM70.5983 268.913L86.3271 234.535L88.936 235.696L73.2072 270.073L70.5983 268.913ZM61.3762 264.812L77.105 230.435L79.7139 231.595L63.9851 265.973L61.3762 264.812ZM67.887 226.334L70.496 227.494L54.7672 261.871L52.1583 260.711L67.887 226.334Z" fill="#FF1D46"/>
<path d="M127.021 311.324C120.434 308.109 110.245 303.137 102.066 299.134C103.743 295.372 104.283 290.879 103.291 286.404C101.315 277.522 94.0291 271.881 86.5182 273.038C86.0709 266.304 82.2535 260.698 76.3727 259.187C70.3291 257.635 63.8601 260.854 59.8805 266.738C51.0416 262.696 42.5167 262.771 36.1717 274.792C29.7946 286.874 35.451 295.062 45.081 300.146C45.4864 300.359 45.8973 300.554 46.3108 300.74C42.82 309.174 45.0522 318.33 51.7617 321.873C58.075 325.206 66.2588 322.464 71.3636 315.761C74.7428 322.427 80.6298 327.564 86.5911 326.01C93.9779 324.084 97.3984 318.386 98.4874 312.002L126.693 314.097C127.876 314.184 128.153 311.879 127.021 311.328L127.021 311.324Z" fill="white"/>
<path d="M101.426 184.079L45.2876 203.955L104.282 130.366L109.811 170.293C110.641 176.298 107.138 182.057 101.426 184.083V184.079Z" fill="#D2D2D2"/>
<path d="M290.753 225.694C290.725 225.701 290.69 225.7 290.661 225.702C290.358 225.706 290.11 225.476 290.105 225.184C289.994 218.771 256.519 212.218 206.867 212.68C184.579 212.891 163.667 214.504 147.95 217.269C132.952 219.894 124.034 223.433 124.093 226.741C124.097 227.028 123.854 227.264 123.552 227.268C123.249 227.271 123.001 227.041 122.996 226.749C122.907 221.659 136.403 218.226 147.746 216.242C163.51 213.465 184.5 211.847 206.853 211.639C248.194 211.253 291.051 216.207 291.206 225.174C291.213 225.431 291.02 225.65 290.758 225.692L290.753 225.694Z" fill="#2CE69D"/>
<path d="M201.219 252.468C200.451 251.84 199.41 251.699 198.501 252.092C186.936 257.043 148.097 272.702 145.871 274.044C142.369 276.153 139.703 273.869 142.296 269.577C144.697 265.603 158.284 239.641 158.284 239.641C158.284 239.641 134.944 210.047 133.001 207.83C128.721 202.942 128.143 195.968 133.531 200C141.376 205.872 165.628 202.585 165.628 202.585C165.628 202.585 164.582 176.037 175.549 159.372C177.38 156.937 179.851 154.532 179.394 159.046C178.938 163.56 181.281 179.883 190.937 185.096C200.592 190.31 207.745 188.472 205.728 171.622C204.883 167.443 203.001 160.565 200.777 157.287C200.777 157.287 200.126 156.186 199.516 155.303C198.749 154.197 198.096 153.261 199.529 153.321C202.099 153.431 206.305 155.867 206.305 155.867C206.305 155.867 212.081 158.561 218.809 164.964C225.537 171.367 236.515 182.617 238.666 194.592C238.666 194.592 273.086 192.782 274.981 192.956C276.876 193.131 281.087 194.247 277.82 198.603C274.547 202.96 258.193 225.624 258.193 225.624C258.193 225.624 275.285 246.29 276.525 247.513C277.763 248.732 281.144 253.801 273.081 253.894C267.626 253.957 243.777 251.088 225.949 249.222C224.437 249.064 222.935 249.703 222.043 250.937C220.56 252.984 217.827 255.532 212.75 256.249C208.132 256.899 203.317 254.187 201.231 252.475L201.219 252.468Z" fill="#EBFF32"/>
<path d="M165.63 202.59C165.63 202.59 164.583 176.041 175.55 159.377C177.381 156.942 179.852 154.537 179.395 159.051C178.939 163.565 181.282 179.888 190.938 185.101C200.593 190.314 207.746 188.477 205.729 171.627C204.884 167.447 203.003 160.57 200.778 157.292C200.778 157.292 200.127 156.191 199.517 155.308C198.75 154.202 198.097 153.266 199.53 153.325C202.1 153.436 206.306 155.871 206.306 155.871C206.306 155.871 212.082 158.565 218.81 164.969C225.538 171.372 236.516 182.622 238.667 194.597C238.667 194.597 227.225 210.399 206.041 216.881C179.215 225.092 166.827 205.197 165.634 202.589L165.63 202.59Z" fill="#5BB3FD"/>
<path d="M175.899 183.459C177.73 187.062 186.084 197.822 199.036 193.256C211.984 188.691 205.686 171.344 205.686 171.344C207.702 188.189 200.606 190.266 190.952 185.058C181.296 179.844 178.948 163.522 179.409 159.007C179.866 154.493 177.395 156.899 175.564 159.334C175.564 159.334 168.239 168.358 175.897 183.454L175.899 183.459Z" fill="#F0FC6C"/>
<path d="M195.617 195.433C195.906 195.358 196.12 195.109 196.128 194.809C196.136 194.454 195.84 194.172 195.472 194.172C179.832 194.241 176.474 178.964 175.864 169.85C175.242 160.58 178.844 157.834 178.882 157.81C179.18 157.594 179.241 157.19 179.024 156.908C178.804 156.631 178.387 156.579 178.09 156.795C177.917 156.919 173.866 160.004 174.534 169.958C175.172 179.508 178.739 195.521 195.452 195.45C195.511 195.45 195.569 195.44 195.625 195.425L195.617 195.433Z" fill="#70B1F6"/>
<path d="M214.629 190.493C214.629 190.493 221.151 188.852 224.486 197.206C227.827 205.564 231.218 219.226 225.439 223.177C219.661 227.129 213.863 222.645 211.757 216.308C209.652 209.97 203.885 192.731 214.628 190.488L214.629 190.493Z" fill="white"/>
<path d="M218.133 224.9C215.04 223.681 212.398 220.56 211.045 216.476C209.422 211.591 205.623 200.153 208.862 193.85C210 191.637 211.885 190.243 214.467 189.704C214.952 189.599 221.729 188.296 225.171 196.911C229.141 206.843 231.704 219.857 225.861 223.85C224.905 224.503 223.923 224.959 222.929 225.215C221.338 225.623 219.72 225.522 218.138 224.899L218.133 224.9ZM214.801 191.274C212.614 191.727 211.1 192.842 210.157 194.671C207.236 200.355 210.873 211.317 212.452 216.069C213.632 219.616 215.924 222.359 218.585 223.406C220.705 224.244 222.932 223.931 225.026 222.497C230.466 218.777 226.819 205.027 223.809 197.494C220.784 189.921 215.08 191.202 214.824 191.268L214.796 191.276L214.801 191.274Z" fill="black"/>
<path d="M215.459 195.114C215.459 195.114 220.712 193.993 222.814 201.013C224.707 207.336 227.797 217.429 222.513 219.781C216.309 222.544 213.877 215.574 212.032 207.29C210.688 201.244 210.686 196.475 215.46 195.119L215.459 195.114Z" fill="#2CE69D"/>
<path d="M215.92 198.398C215.92 198.398 219.899 197.181 221.542 202.762C222.942 207.515 224.655 214.063 221.224 215.79C217.022 217.904 214.901 212.745 213.649 206.75C212.845 202.883 212.497 199.575 215.92 198.398Z" fill="black"/>
<path d="M219.503 201.54C219.503 201.54 221.038 201.206 221.754 203.374C222.475 205.541 223.153 207.774 221.765 208.663C220.371 209.549 218.983 208.557 218.525 206.969C218.062 205.382 216.802 201.946 219.508 201.544L219.503 201.54Z" fill="white"/>
<path d="M199.217 219.49C199.217 219.49 200.594 223.438 205.001 224.852C209.408 226.267 209.536 224.617 210.011 223.873C210.482 223.131 212.83 216.027 208.493 213.531C204.156 211.034 199.683 214.899 199.221 219.489L199.217 219.49Z" fill="#FF7140"/>
<path d="M209.739 226.008C209.865 225.975 209.981 225.906 210.079 225.801C211.695 224.018 212.79 219.668 211.782 216.286C211.088 213.973 209.556 212.462 207.342 211.916C202.069 210.615 199.221 215.654 198.449 218.499C198.338 218.915 198.563 219.365 198.956 219.502C199.345 219.641 199.755 219.416 199.871 218.999C199.949 218.72 201.809 212.159 207.073 213.463C208.746 213.878 209.862 214.969 210.381 216.716C211.194 219.437 210.312 223.224 209.006 224.664C208.728 224.974 208.743 225.478 209.041 225.789C209.239 225.997 209.506 226.068 209.744 226.006L209.739 226.008Z" fill="#211816"/>
<path d="M228.872 229.144C229.218 229.055 229.455 228.701 229.407 228.3C228.662 222.016 229.438 217.39 231.725 214.559C233.898 211.867 236.736 211.82 236.765 211.817C237.173 211.817 237.488 211.457 237.47 211.019C237.452 210.581 237.112 210.226 236.705 210.226C236.566 210.227 233.227 210.259 230.621 213.455C228.043 216.624 227.145 221.665 227.945 228.437C227.998 228.876 228.365 229.2 228.772 229.16C228.806 229.156 228.844 229.151 228.877 229.143L228.872 229.144Z" fill="black"/>
<path d="M179.652 220.424C177.546 214.086 172.736 200.187 183.485 197.943C183.485 197.943 190.006 196.302 193.341 204.656C196.682 213.014 200.073 226.676 194.294 230.627C194.294 230.627 193.612 231.32 190.906 232.015C190.906 232.015 188.142 220.172 180.301 220.356L179.655 220.418L179.652 220.424Z" fill="white"/>
<path d="M190.187 232.18C190.158 232.068 187.489 220.981 180.396 221.153L179.158 221.272L178.853 220.355C177.294 215.663 174.39 206.934 177.165 201.531C178.345 199.234 180.406 197.769 183.286 197.168C183.356 197.15 190.465 195.473 194.018 204.368C197.977 214.278 200.535 227.253 194.75 231.276C194.494 231.501 193.582 232.153 191.105 232.79L190.377 232.977L190.192 232.179L190.187 232.18ZM193.775 230.04L193.882 229.952C199.322 226.232 195.676 212.487 192.666 204.949C189.638 197.367 183.918 198.662 183.651 198.726C181.145 199.25 179.449 200.432 178.464 202.346C176.056 207.029 178.641 215.058 180.14 219.577L180.248 219.569C187.449 219.395 190.596 228.275 191.4 231.053C193.212 230.518 193.766 230.042 193.771 230.041L193.775 230.04Z" fill="black"/>
<path d="M191.362 227.228C196.646 224.875 193.556 214.782 191.662 208.46C189.56 201.44 184.308 202.561 184.308 202.561C179.533 203.917 179.668 208.756 181.013 214.807L182.238 219.033C182.238 219.033 185.037 220.343 186.991 222.044C186.991 222.044 189.291 224.104 189.944 225.175C190.597 226.246 191.358 227.234 191.358 227.234L191.362 227.228Z" fill="#2CE69D"/>
<path d="M178.365 222.251C176.702 222.783 175.024 224.83 174.486 225.774C173.181 228.069 173.723 230.546 174.703 232.891C175.683 235.235 177.832 237.404 180.116 238.105C181.714 238.594 184.167 238.561 185.808 237.572C187.535 236.532 189.185 234.318 189.058 232.142C188.929 229.972 187.366 226.156 185.856 224.654C185.856 224.654 182.827 220.821 178.363 222.242L178.365 222.251Z" fill="#FF7140"/>
<path d="M180.339 222.928C180.339 222.928 182.128 222.881 182.939 224.373C183.75 225.866 183.419 227.811 181.547 227.725C179.675 227.639 178.533 226.873 178.071 225.908C177.704 225.137 178.072 223.028 180.338 222.923L180.339 222.928Z" fill="white"/>
<path d="M185.831 206.128C185.831 206.128 189.678 204.956 191.238 210.255C192.573 214.771 194.378 221.002 190.88 222.642C187.009 224.457 184.785 219.771 183.601 214.077C182.836 210.404 182.522 207.262 185.831 206.128Z" fill="black"/>
<path d="M189.274 209.307C189.274 209.307 190.809 208.972 191.525 211.141C192.246 213.308 192.925 215.541 191.537 216.43C190.143 217.315 188.754 216.324 188.296 214.736C187.834 213.149 186.573 209.713 189.28 209.311L189.274 209.307Z" fill="white"/>
<path d="M265.93 236.07C250.226 238.772 229.455 240.374 207.351 240.582C185.004 240.793 163.96 239.55 148.103 237.089C136.701 235.318 123.087 232.137 122.998 227.047C122.993 226.759 123.236 226.523 123.539 226.52C123.841 226.517 124.089 226.746 124.095 227.039C124.152 230.341 133.191 233.714 148.277 236.06C164.071 238.512 185.05 239.752 207.337 239.541C229.377 239.334 250.085 237.739 265.73 235.042C265.907 235.012 266.083 234.981 266.254 234.952C281.252 232.327 290.17 228.788 290.111 225.48C290.107 225.193 290.35 224.957 290.652 224.953C290.955 224.95 291.203 225.18 291.208 225.472C291.298 230.562 277.801 233.995 266.459 235.979C266.282 236.009 266.106 236.04 265.93 236.07Z" fill="#2CE69D"/>
<path d="M142.944 235.241C143.065 233.473 141.656 231.937 139.798 231.811C137.94 231.684 136.337 233.014 136.216 234.782C136.096 236.55 137.504 238.085 139.362 238.212C141.22 238.339 142.824 237.008 142.944 235.241Z" fill="#5BB3FD"/>
<path d="M274.666 219.392C275.542 220.963 277.587 221.566 279.225 220.742C280.864 219.919 281.489 217.977 280.608 216.408C279.728 214.839 277.687 214.234 276.049 215.058C274.41 215.882 273.785 217.823 274.666 219.392Z" fill="#F878F3"/>
<path d="M207.697 238.116C209.1 243.574 211.166 247.763 212.314 247.469C213.461 247.174 213.252 242.507 211.85 237.049C210.447 231.59 208.794 229.006 207.646 229.301C206.498 229.596 206.295 232.657 207.697 238.116Z" fill="black"/>
<path d="M149.576 301.203L136.116 304.662C133.539 305.324 131.987 307.949 132.649 310.526L133.616 314.291C134.278 316.868 136.904 318.42 139.481 317.758L152.941 314.3C155.518 313.638 157.07 311.012 156.408 308.435L155.44 304.67C154.778 302.093 152.153 300.541 149.576 301.203Z" fill="#EBFF32"/>
<path d="M160.563 311.521L118.154 260.306C116.849 258.732 117.054 256.391 118.607 255.082L133.144 242.842C134.697 241.533 137.016 241.748 138.32 243.323L187.486 302.698C189.261 304.844 188.152 308.118 185.451 308.697L169.504 312.118C169.042 312.217 168.615 312.411 168.219 312.672C165.792 314.295 162.481 313.838 160.563 311.521Z" fill="#FF333C"/>
<path d="M281.506 256.912L148.489 291.088C145.912 291.75 144.36 294.375 145.022 296.952L149.242 313.375C149.904 315.952 152.529 317.504 155.106 316.842L288.123 282.666C290.699 282.004 292.252 279.378 291.59 276.801L287.37 260.378C286.708 257.802 284.082 256.249 281.506 256.912Z" fill="#1A3CFF"/>
<path d="M190.216 325.846C194.588 324.722 197.213 320.229 196.077 315.81C194.942 311.391 190.477 308.719 186.104 309.842C181.731 310.966 179.107 315.459 180.242 319.878C181.378 324.297 185.843 326.969 190.216 325.846Z" fill="#292524"/>
<g style="mix-blend-mode:screen">
<path d="M188.99 321.077C190.758 320.623 191.819 318.807 191.36 317.022C190.902 315.236 189.097 314.156 187.329 314.611C185.561 315.065 184.5 316.881 184.959 318.666C185.418 320.452 187.223 321.531 188.99 321.077Z" fill="white"/>
</g>
<path d="M207.492 321.407C211.865 320.283 214.489 315.79 213.354 311.371C212.219 306.952 207.753 304.28 203.381 305.404C199.008 306.527 196.384 311.02 197.519 315.439C198.654 319.858 203.12 322.53 207.492 321.407Z" fill="#292524"/>
<g style="mix-blend-mode:screen">
<path d="M206.267 316.638C208.035 316.184 209.096 314.368 208.637 312.583C208.178 310.797 206.374 309.718 204.606 310.172C202.838 310.626 201.777 312.442 202.236 314.227C202.695 316.013 204.5 317.092 206.267 316.638Z" fill="white"/>
</g>
<path d="M243.707 312.102C248.079 310.978 250.704 306.485 249.568 302.066C248.433 297.647 243.968 294.975 239.595 296.099C235.222 297.222 232.598 301.716 233.733 306.135C234.869 310.554 239.334 313.225 243.707 312.102Z" fill="#292524"/>
<g style="mix-blend-mode:screen">
<path d="M242.482 307.334C244.249 306.879 245.31 305.064 244.852 303.278C244.393 301.492 242.588 300.413 240.82 300.867C239.053 301.321 237.992 303.137 238.45 304.923C238.909 306.708 240.714 307.788 242.482 307.334Z" fill="white"/>
</g>
<path d="M260.979 307.664C265.351 306.541 267.976 302.047 266.84 297.628C265.705 293.209 261.24 290.538 256.867 291.661C252.494 292.785 249.87 297.278 251.005 301.697C252.141 306.116 256.606 308.788 260.979 307.664Z" fill="#292524"/>
<g style="mix-blend-mode:screen">
<path d="M259.754 302.896C261.521 302.442 262.582 300.626 262.124 298.84C261.665 297.055 259.86 295.975 258.092 296.429C256.325 296.883 255.264 298.699 255.722 300.485C256.181 302.271 257.986 303.35 259.754 302.896Z" fill="white"/>
</g>
<path d="M199.804 264.217L142.831 278.855C141.873 279.101 141.365 280.345 141.696 281.634L143.031 286.831C143.362 288.12 144.407 288.964 145.366 288.718L202.338 274.08C203.297 273.834 203.805 272.59 203.474 271.301L202.139 266.104C201.808 264.816 200.762 263.971 199.804 264.217Z" fill="#292524"/>
<path d="M150.345 279.768L146.025 280.878L148.638 291.049L152.959 289.939L150.345 279.768Z" fill="#292524"/>
<path d="M268.943 247.265L255.053 245.08L254.101 251.128L267.992 253.313L268.943 247.265Z" fill="#FF333C"/>
<path d="M270.369 252.696L281.486 244.086L277.736 239.245L266.62 247.856L270.369 252.696Z" fill="#FF333C"/>
<path d="M271.225 248.258L265.09 249.834L268.417 262.786L274.553 261.21L271.225 248.258Z" fill="#FF333C"/>
<path d="M269.885 255.779C273.42 254.871 275.55 251.269 274.641 247.733C273.733 244.198 270.131 242.068 266.595 242.977C263.06 243.885 260.93 247.487 261.839 251.023C262.747 254.558 266.349 256.687 269.885 255.779Z" fill="#231815"/>
<path d="M272.169 264.672C263.631 266.865 254.884 261.643 252.671 253.03C250.458 244.417 255.605 235.625 264.143 233.431C272.681 231.237 281.428 236.46 283.641 245.073C285.854 253.685 280.708 262.478 272.169 264.672ZM265.482 238.642C259.822 240.096 256.413 245.951 257.886 251.685C259.359 257.419 265.164 260.906 270.828 259.451C276.492 257.996 279.897 252.142 278.424 246.408C276.951 240.674 271.146 237.187 265.482 238.642Z" fill="#FF333C"/>
<g filter="url(#filter0_i_26807_4206)">
<path d="M138.371 190.839C138.008 190.676 137.675 190.441 137.39 190.14C136.819 189.536 136.523 188.749 136.548 187.924L137.989 140.377C138.015 139.552 138.362 138.782 138.963 138.214C139.569 137.644 140.354 137.348 141.187 137.371L141.566 137.382C143.276 137.431 144.858 138.92 144.806 140.625L143.365 188.172C143.313 189.877 141.648 191.166 139.938 191.117L139.559 191.106C139.14 191.095 138.74 191.001 138.371 190.839Z" fill="white"/>
</g>
<path d="M136.62 189.162L143.409 189.361C144.464 189.392 145.291 190.274 145.26 191.324L144.607 213.594C144.527 216.305 142.262 218.441 139.551 218.361L138.771 218.338C136.06 218.259 133.925 215.994 134.004 213.283L134.657 191.013C134.688 189.959 135.57 189.131 136.62 189.162Z" fill="#2CE69D"/>
<path d="M77.7563 283.223C78.897 275.979 79.7567 276.984 83.0936 272.545C81.4507 273.766 80.0079 272.783 78.6161 271.783C77.4499 270.944 75.9475 269.063 75.5687 267.854C75.109 266.39 75.3516 266.284 75.8624 265.075C75.4027 265.39 74.4408 266.067 73.862 266.718C67.15 274.213 76.488 288.08 70.5847 294.851C70.9763 295.949 72.5809 295.362 73.0405 296.222C76.8923 290.152 76.5731 290.727 77.7563 283.223Z" fill="black"/>
<path d="M75.5643 267.863C75.9559 269.063 77.4541 270.927 78.6117 271.795C79.995 272.83 81.3697 273.715 82.9445 272.736C82.9658 272.723 83.1701 272.485 83.2212 272.413C85.2215 269.552 85.3535 266.59 82.4508 264.666C80.2546 263.211 78.0967 263.93 75.8623 265.075C75.3387 266.203 75.0876 266.403 75.5643 267.858V267.863Z" fill="#2CE69D"/>
<path d="M55.5861 285.479C54.3731 278.078 55.5435 278.784 57.3949 273.409C56.1692 275.12 54.4327 274.626 52.7387 274.094C51.3171 273.651 49.2359 272.298 48.4698 271.246C47.5419 269.97 47.7505 269.791 47.8611 268.454C47.5079 268.91 46.7843 269.872 46.4183 270.685C42.226 280.104 55.8925 290.599 52.2663 299.056C53.0026 299.997 54.3986 298.916 55.1264 299.605C56.9608 292.48 56.8331 293.144 55.5776 285.479H55.5861Z" fill="black"/>
<path d="M48.474 271.255C49.2487 272.298 51.3214 273.63 52.743 274.102C54.4369 274.664 56.0798 275.09 57.3098 273.638C57.3269 273.621 57.4545 273.323 57.4801 273.238C58.5271 269.821 57.7014 266.905 54.2241 265.96C51.5896 265.245 49.6998 266.633 47.8697 268.454C47.7207 269.719 47.5334 269.991 48.474 271.255Z" fill="#2CE69D"/>
<path d="M64.6985 292.914L69.2654 294C70.1677 294.213 71.3296 294.132 72.4107 293.774L77.8841 291.97C79.7738 291.344 81.7444 291.595 82.336 292.536L84.0428 295.251C84.379 295.787 85.1919 296.124 86.2474 296.158L91.5719 296.332C93.4106 296.392 94.3767 297.349 93.7553 298.494L91.9507 301.806C91.5932 302.461 91.7507 303.082 92.3721 303.495L95.5174 305.581C96.6027 306.3 96.1984 307.598 94.598 308.513L89.9716 311.156C89.0565 311.68 88.4947 312.352 88.4479 312.987L88.2095 316.187C88.1287 317.294 86.5028 318.434 84.5407 318.766L78.8587 319.733C77.7351 319.924 76.6711 320.392 75.9731 321.005L72.4447 324.099C71.2232 325.168 69.0057 325.721 67.4267 325.346L62.8598 324.261C61.9575 324.048 60.7956 324.129 59.7145 324.487L54.2411 326.291C52.3514 326.917 50.3808 326.666 49.7892 325.725L48.0824 323.01C47.7462 322.474 46.9333 322.137 45.8778 322.103L40.5533 321.929C38.7146 321.869 37.7485 320.912 38.3699 319.767L40.1745 316.455C40.532 315.8 40.3745 315.178 39.7531 314.766L36.6078 312.68C35.5225 311.961 35.9268 310.663 37.5272 309.748L42.1536 307.105C43.0687 306.581 43.6305 305.909 43.6773 305.274L43.9157 302.074C43.9965 300.967 45.6224 299.826 47.5845 299.495L53.2664 298.528C54.3901 298.337 55.4541 297.869 56.1521 297.256L59.6805 294.162C60.902 293.093 63.1195 292.54 64.6985 292.914Z" fill="#F878F3"/>
<path d="M60.4892 292.693C60.4892 292.693 51.9386 295.617 50.3765 303.227C48.8145 310.833 51.5172 312.884 55.1392 313.974C58.7569 315.064 66.4648 315.766 74.1813 311.442C81.8977 307.117 81.5359 303.129 80.3569 300.49C79.178 297.852 76.1391 293.34 70.5422 292.148C64.5666 290.876 60.4934 292.689 60.4934 292.689L60.4892 292.693Z" fill="#FAE161"/>
<path d="M59.34 293.178C59.34 293.178 59.2208 296.566 63.3025 296.983C64.6857 297.111 65.6604 296.817 65.3497 295.953C65.039 295.089 62.9918 293.659 64.6219 291.791C64.6219 291.791 62.498 291.663 59.3442 293.178H59.34Z" fill="black"/>
<path d="M57.1225 309.548C57.314 309.748 58.1142 310.731 59.8719 310.39C61.6255 310.05 61.617 308.641 60.7828 307.824C59.9486 307.007 58.4589 306.904 57.5226 307.577C56.5862 308.245 56.7947 309.203 57.1225 309.548Z" fill="#FF7140"/>
<path d="M68.0641 302.025C67.1397 300.276 67.347 298.352 68.5271 297.729C69.7071 297.105 71.4131 298.017 72.3375 299.766C73.2619 301.515 73.0546 303.438 71.8745 304.062C70.6944 304.685 68.9884 303.773 68.0641 302.025Z" fill="white"/>
<path d="M69.3315 297.421C69.3315 297.421 70.8602 297.319 72.0249 298.993C73.1897 300.667 73.1751 301.657 72.6219 302.181C72.0686 302.706 70.2633 302.385 68.9966 301.031C67.7299 299.677 67.3514 297.479 69.3315 297.435V297.421Z" fill="black"/>
<path d="M63.9302 303.259C63.9302 303.259 63.2459 300.784 58.3686 302.065C58.3686 302.065 57.1019 302.618 58.3686 302.953C58.3686 302.953 57.3494 303.317 58.0919 303.739C58.587 304.016 59.5188 302.298 62.0666 302.691C62.0666 302.691 63.1149 302.851 63.5808 303.579C63.5808 303.579 64.0758 303.812 63.9302 303.259Z" fill="black"/>
<path d="M69.8267 305.035C69.8267 305.035 68.9968 306.025 66.6964 305.297C66.2596 305.093 65.5462 304.831 65.2114 304.467C65.2114 304.467 65.8083 305.355 65.983 306.345C66.1577 307.335 65.9248 308.588 66.6382 309.17C67.3516 309.752 68.6619 309.796 68.8803 308.966C69.0987 308.136 68.7638 306.258 69.8121 305.05L69.8267 305.035Z" fill="black"/>
<path d="M66.1579 308.238C66.2598 308.602 66.3617 308.937 66.6383 309.155C67.3517 309.723 68.6621 309.781 68.8805 308.952C68.8805 308.952 69.0261 308.151 67.7885 307.845C67.7885 307.845 65.8812 307.263 66.1433 308.238H66.1579Z" fill="#FF3F12"/>
<path d="M57.5055 319.673C56.1819 319.141 54.5688 319.418 53.5005 320.358C53.1813 320.639 52.9004 320.997 52.8365 321.418C52.7812 321.805 52.9174 322.188 53.0749 322.546C53.4792 323.465 54.0283 324.325 54.7007 325.074C55.3987 325.857 56.2542 326.538 57.2672 326.802C58.2802 327.066 59.4676 326.828 60.1444 326.032C61.0467 324.968 60.3955 323.823 59.9656 322.733C59.4464 321.414 58.9101 320.243 57.5013 319.673H57.5055Z" fill="black"/>
<path d="M78.8929 316.647C79.2589 315.281 80.1229 313.974 81.4296 313.433C82.2084 313.11 83.1831 313.114 83.813 313.672C84.4302 314.217 84.5664 315.123 84.5706 315.949C84.5749 317.336 84.3067 318.758 83.5662 319.937C82.8256 321.112 81.5743 322.01 80.1868 322.099C79.8165 322.125 79.4292 322.086 79.1057 321.903C78.3268 321.461 78.6205 320.439 78.6035 319.698C78.5822 318.677 78.6248 317.647 78.8886 316.655L78.8929 316.647Z" fill="black"/>
<path d="M86.3973 360.281C86.8844 360.71 87.6231 360.658 88.0524 360.171L91.0742 356.72C91.5034 356.233 92.2386 356.185 92.7292 356.61L95.5939 359.117C96.0809 359.546 96.1294 360.281 95.704 360.772L92.6822 364.223C92.253 364.71 92.3053 365.448 92.7924 365.878C95.0939 367.891 98.5925 367.661 100.613 365.359L103.124 362.491C105.116 360.22 104.91 356.78 102.685 354.753L111.075 345.173C113.378 347.109 116.813 346.855 118.805 344.584L121.315 341.715C123.329 339.414 123.099 335.915 120.797 333.895C120.31 333.465 119.571 333.518 119.142 334.005L116.12 337.455C115.691 337.942 114.956 337.991 114.465 337.565L111.6 335.059C111.113 334.629 111.065 333.894 111.49 333.404L114.512 329.953C114.941 329.466 114.889 328.727 114.402 328.298C112.1 326.285 108.602 326.515 106.581 328.816L104.071 331.685C102.079 333.956 102.285 337.396 104.509 339.423L96.1192 349.002C93.8163 347.067 90.3814 347.321 88.3894 349.592L85.879 352.46C83.8657 354.762 84.0955 358.26 86.3973 360.281ZM99.6316 348.383L104.767 342.517C105.554 341.619 106.917 341.529 107.815 342.316C108.713 343.103 108.803 344.466 108.016 345.364L102.881 351.23C102.094 352.128 100.731 352.218 99.8328 351.431C98.935 350.644 98.8449 349.281 99.6316 348.383Z" fill="#70B1F6"/>
<path d="M99.8289 351.428C100.727 352.214 102.09 352.124 102.877 351.226L108.012 345.36C108.799 344.462 108.709 343.099 107.811 342.312C106.913 341.526 105.55 341.616 104.763 342.514L99.6277 348.38C98.841 349.278 98.931 350.641 99.8289 351.428Z" fill="white"/>
<path d="M35.3727 134.069C26.9242 134.069 20.0505 127.195 20.0505 118.747V72.7805C20.0505 64.332 26.9242 57.4583 35.3727 57.4583C43.8212 57.4583 50.6949 64.332 50.6949 72.7805V118.747C50.6949 127.195 43.8212 134.069 35.3727 134.069ZM35.3727 65.1194C31.1464 65.1194 27.7116 68.5584 27.7116 72.7805V118.747C27.7116 122.969 31.1506 126.408 35.3727 126.408C39.5948 126.408 43.0338 122.969 43.0338 118.747V72.7805C43.0338 68.5584 39.5991 65.1194 35.3727 65.1194Z" fill="black"/>
<path d="M161.781 53.6277C159.665 53.6277 157.95 51.9125 157.95 49.7972C157.95 45.575 154.511 42.1361 150.289 42.1361C146.067 42.1361 142.628 45.575 142.628 49.7972C142.628 51.9125 140.913 53.6277 138.797 53.6277C136.682 53.6277 134.967 51.9125 134.967 49.7972C134.967 41.3487 141.84 34.475 150.289 34.475C158.737 34.475 165.611 41.3487 165.611 49.7972C165.611 51.9125 163.896 53.6277 161.781 53.6277Z" fill="black"/>
<path d="M161.781 84.2721C153.332 84.2721 146.458 77.3984 146.458 68.9499V65.1193C146.458 63.004 148.174 61.2888 150.289 61.2888C152.404 61.2888 154.12 63.004 154.12 65.1193V68.9499C154.12 73.172 157.559 76.611 161.781 76.611C163.896 76.611 165.611 78.3262 165.611 80.4415C165.611 82.5568 163.896 84.2721 161.781 84.2721Z" fill="black"/>
<path d="M108.153 84.2721C106.038 84.2721 104.323 82.5569 104.323 80.4415C104.323 71.9931 111.196 65.1194 119.645 65.1194H123.475C125.591 65.1194 127.306 66.8346 127.306 68.9499C127.306 71.0652 125.591 72.7805 123.475 72.7805H119.645C115.418 72.7805 111.984 76.2194 111.984 80.4415C111.984 82.5569 110.268 84.2721 108.153 84.2721Z" fill="black"/>
<path d="M150.289 65.1194C141.84 65.1194 134.967 58.2457 134.967 49.7972C134.967 47.6819 136.682 45.9666 138.797 45.9666C140.913 45.9666 142.628 47.6819 142.628 49.7972C142.628 54.0193 146.067 57.4583 150.289 57.4583C154.511 57.4583 157.95 54.0193 157.95 49.7972C157.95 47.6819 159.665 45.9666 161.781 45.9666C163.896 45.9666 165.611 47.6819 165.611 49.7972C165.611 58.2457 158.737 65.1194 150.289 65.1194Z" fill="black"/>
<path d="M96.6615 76.611C94.5462 76.611 92.8309 74.8958 92.8309 72.7805C92.8309 68.5584 89.3962 65.1194 85.1698 65.1194C80.9435 65.1194 77.5087 68.5584 77.5087 72.7805C77.5087 74.8958 75.7935 76.611 73.6782 76.611C71.5629 76.611 69.8477 74.8958 69.8477 72.7805C69.8477 64.332 76.7214 57.4583 85.1698 57.4583C93.6183 57.4583 100.492 64.332 100.492 72.7805C100.492 74.8958 98.7768 76.611 96.6615 76.611Z" fill="black"/>
<path d="M85.1698 88.1026C76.7214 88.1026 69.8477 81.2289 69.8477 72.7804C69.8477 70.6651 71.5629 68.9499 73.6782 68.9499C75.7935 68.9499 77.5087 70.6651 77.5087 72.7804C77.5087 77.0025 80.9435 80.4415 85.1698 80.4415C89.3962 80.4415 92.8309 77.0025 92.8309 72.7804C92.8309 70.6651 94.5462 68.9499 96.6615 68.9499C98.7768 68.9499 100.492 70.6651 100.492 72.7804C100.492 81.2289 93.6183 88.1026 85.1698 88.1026Z" fill="black"/>
<path d="M58.3559 134.069C56.2406 134.069 54.5254 132.354 54.5254 130.239V61.2888C54.5254 59.1735 56.2406 57.4583 58.3559 57.4583C60.4712 57.4583 62.1865 59.1735 62.1865 61.2888V130.239C62.1865 132.354 60.4712 134.069 58.3559 134.069Z" fill="black"/>
<path d="M108.153 84.2721C106.038 84.2721 104.323 82.5569 104.323 80.4416V61.2888C104.323 59.1735 106.038 57.4583 108.153 57.4583C110.268 57.4583 111.984 59.1735 111.984 61.2888V80.4416C111.984 82.5569 110.268 84.2721 108.153 84.2721Z" fill="black"/>
<path d="M96.6615 65.1194H73.6782C71.5629 65.1194 69.8477 63.4041 69.8477 61.2888C69.8477 59.1735 71.5629 57.4583 73.6782 57.4583H96.6615C98.7768 57.4583 100.492 59.1735 100.492 61.2888C100.492 63.4041 98.7768 65.1194 96.6615 65.1194Z" fill="black"/>
<path d="M203.917 15.3223H180.934C178.818 15.3223 177.103 13.607 177.103 11.4917C177.103 9.3764 178.818 7.66116 180.934 7.66116H203.917C206.032 7.66116 207.747 9.3764 207.747 11.4917C207.747 13.607 206.032 15.3223 203.917 15.3223Z" fill="black"/>
<path d="M165.611 84.2721H134.967C132.852 84.2721 131.136 82.5569 131.136 80.4416C131.136 78.3262 132.852 76.611 134.967 76.611H165.611C167.727 76.611 169.442 78.3262 169.442 80.4416C169.442 82.5569 167.727 84.2721 165.611 84.2721Z" fill="black"/>
<path d="M192.425 65.1194C183.977 65.1194 177.103 58.2457 177.103 49.7972V34.475C177.103 26.0265 183.977 19.1528 192.425 19.1528C200.874 19.1528 207.747 26.0265 207.747 34.475V49.7972C207.747 58.2457 200.874 65.1194 192.425 65.1194ZM192.425 26.8139C188.203 26.8139 184.764 30.2529 184.764 34.475V49.7972C184.764 54.0193 188.203 57.4583 192.425 57.4583C196.647 57.4583 200.086 54.0193 200.086 49.7972V34.475C200.086 30.2529 196.647 26.8139 192.425 26.8139Z" fill="black"/>
<path d="M203.917 84.2721C195.468 84.2721 188.594 77.3984 188.594 68.9499V65.1193C188.594 63.004 190.31 61.2888 192.425 61.2888C194.54 61.2888 196.256 63.004 196.256 65.1193V68.9499C196.256 73.172 199.695 76.611 203.917 76.611C206.032 76.611 207.747 78.3262 207.747 80.4415C207.747 82.5568 206.032 84.2721 203.917 84.2721Z" fill="black"/>
<path d="M207.747 84.2721H177.103C174.988 84.2721 173.272 82.5569 173.272 80.4416C173.272 78.3262 174.988 76.611 177.103 76.611H207.747C209.863 76.611 211.578 78.3262 211.578 80.4416C211.578 82.5569 209.863 84.2721 207.747 84.2721Z" fill="black"/>
<path d="M85.1699 65.1194C83.0546 65.1194 81.3394 63.4041 81.3394 61.2888V53.6277C81.3394 51.5124 83.0546 49.7972 85.1699 49.7972C87.2852 49.7972 89.0004 51.5124 89.0004 53.6277V61.2888C89.0004 63.4041 87.2852 65.1194 85.1699 65.1194Z" fill="black"/>
<path d="M192.425 15.3223C190.31 15.3223 188.594 13.607 188.594 11.4917V3.83063C188.594 1.71531 190.31 8.01086e-05 192.425 8.01086e-05C194.54 8.01086e-05 196.256 1.71531 196.256 3.83063V11.4917C196.256 13.607 194.54 15.3223 192.425 15.3223Z" fill="black"/>
<path d="M58.3559 111.086C56.2406 111.086 54.5254 109.371 54.5254 107.255C54.5254 98.8068 61.3991 91.9331 69.8476 91.9331H73.6781C75.7934 91.9331 77.5087 93.6484 77.5087 95.7637C77.5087 97.879 75.7934 99.5942 73.6781 99.5942H69.8476C65.6212 99.5942 62.1865 103.033 62.1865 107.255C62.1865 109.371 60.4712 111.086 58.3559 111.086Z" fill="black"/>
<defs>
<filter id="filter0_i_26807_4206" x="136.547" y="137.37" width="11.261" height="57.749" filterUnits="userSpaceOnUse" color-interpolation-filters="sRGB">
<feFlood flood-opacity="0" result="BackgroundImageFix"/>
<feBlend mode="normal" in="SourceGraphic" in2="BackgroundImageFix" result="shape"/>
<feColorMatrix in="SourceAlpha" type="matrix" values="0 0 0 0 0 0 0 0 0 0 0 0 0 0 0 0 0 0 127 0" result="hardAlpha"/>
<feOffset dx="3" dy="4"/>
<feGaussianBlur stdDeviation="3"/>
<feComposite in2="hardAlpha" operator="arithmetic" k2="-1" k3="1"/>
<feColorMatrix type="matrix" values="0 0 0 0 0.921569 0 0 0 0 1 0 0 0 0 0.196078 0 0 0 1 0"/>
<feBlend mode="normal" in2="shape" result="effect1_innerShadow_26807_4206"/>
</filter>
</defs>
</svg>
