<svg width="24" height="24" viewBox="0 0 24 24" fill="none" xmlns="http://www.w3.org/2000/svg">
<path d="M14.5576 17.8984C13.8176 17.965 13.0685 18 12.3115 18C11.5543 18 10.8047 17.9651 10.0644 17.8984C10.0629 17.9321 10.0615 17.9659 10.0615 18C10.0615 19.2426 11.0689 20.25 12.3115 20.25C13.5541 20.25 14.5615 19.2426 14.5615 18C14.5615 17.9659 14.5591 17.9321 14.5576 17.8984ZM17.5615 9C17.5615 6.10051 15.211 3.75 12.3115 3.75C9.412 3.75 7.0615 6.10051 7.0615 9V9.75C7.0615 11.8587 6.38818 13.8101 5.24997 15.4053C6.62967 15.8446 8.06446 16.1616 9.54294 16.3369C10.4504 16.4445 11.3745 16.5 12.3115 16.5C13.2486 16.5 14.1725 16.4446 15.0801 16.3369C16.5578 16.1616 17.992 15.8453 19.3711 15.4062C18.2329 13.8111 17.5615 11.8587 17.5615 9.75V9ZM19.0615 9.75C19.0615 11.873 19.8623 13.8071 21.1797 15.2695C21.3461 15.4543 21.41 15.7098 21.3506 15.9512C21.291 16.1926 21.116 16.3894 20.8828 16.4756C19.3384 17.0457 17.7211 17.4645 16.0498 17.7178C16.0567 17.811 16.0615 17.9051 16.0615 18C16.0615 20.0711 14.3826 21.75 12.3115 21.75C10.2404 21.75 8.5615 20.0711 8.5615 18C8.5615 17.9055 8.56533 17.8117 8.57224 17.7188C6.90109 17.4654 5.28441 17.0456 3.74021 16.4756C3.50685 16.3894 3.33105 16.1927 3.27146 15.9512C3.21205 15.7098 3.27596 15.4542 3.44236 15.2695C4.6776 13.8984 5.45897 12.1129 5.55173 10.1455L5.5615 9.75V9C5.5615 5.27208 8.58358 2.25 12.3115 2.25C16.0394 2.25 19.0615 5.27208 19.0615 9V9.75Z" fill="black"/>
</svg>
