<svg width="24" height="24" viewBox="0 0 24 24" fill="none" xmlns="http://www.w3.org/2000/svg">
<path d="M3.75 20.625V3.375C3.75 2.33947 4.58947 1.5 5.625 1.5H10.5C15.8848 1.5 20.25 5.86522 20.25 11.25V20.625C20.25 21.6605 19.4105 22.5 18.375 22.5H5.625C4.58947 22.5 3.75 21.6605 3.75 20.625ZM12 17.25C12.4142 17.25 12.75 17.5858 12.75 18C12.75 18.4142 12.4142 18.75 12 18.75H8.25C7.83579 18.75 7.5 18.4142 7.5 18C7.5 17.5858 7.83579 17.25 8.25 17.25H12ZM15.75 14.25C16.1642 14.25 16.5 14.5858 16.5 15C16.5 15.4142 16.1642 15.75 15.75 15.75H8.25C7.83579 15.75 7.5 15.4142 7.5 15C7.5 14.5858 7.83579 14.25 8.25 14.25H15.75ZM14.25 7.125C14.25 7.33211 14.4179 7.5 14.625 7.5H16.125C16.8325 7.5 17.4982 7.67837 18.0801 7.99219C17.2466 6.05545 15.6937 4.50214 13.7568 3.66895C14.071 4.25111 14.25 4.91706 14.25 5.625V7.125ZM5.25 20.625C5.25 20.8321 5.41789 21 5.625 21H18.375C18.5821 21 18.75 20.8321 18.75 20.625V11.625C18.75 10.1753 17.5747 9 16.125 9H14.625C13.5895 9 12.75 8.16053 12.75 7.125V5.625C12.75 4.17525 11.5747 3 10.125 3H5.625C5.41789 3 5.25 3.16789 5.25 3.375V20.625Z" fill="#0F172A"/>
</svg>
