<svg width="24" height="24" viewBox="0 0 24 24" fill="none" xmlns="http://www.w3.org/2000/svg">
<path d="M9 11.25C9 9.95696 9.13219 8.69407 9.38184 7.47363C9.00661 7.49053 8.6293 7.5 8.25 7.5H7.5C5.42893 7.5 3.75 9.17893 3.75 11.25C3.75 13.3211 5.42893 15 7.5 15H8.25C8.62928 15 9.00663 15.0085 9.38184 15.0254C9.13232 13.8052 9 12.5427 9 11.25ZM8.18848 16.5C8.48841 17.6205 8.88088 18.7033 9.35938 19.7383C9.42981 19.89 9.63603 19.9761 9.83008 19.8643L10.4863 19.4854C10.6515 19.39 10.7419 19.156 10.6406 18.9307C10.2953 18.1625 10.0006 17.3668 9.75977 16.5479C9.26073 16.5159 8.7573 16.5 8.25 16.5H8.18848ZM10.5 11.25C10.5 12.5901 10.6528 13.8936 10.9414 15.1445C13.6872 15.4416 16.2982 16.1892 18.7002 17.3096C19.0804 15.8974 19.3332 14.4324 19.4404 12.9268C19.4799 12.3731 19.5 11.814 19.5 11.25C19.5 10.686 19.4799 10.1269 19.4404 9.57324C19.3332 8.06729 19.0805 6.60191 18.7002 5.18945C16.2982 6.30994 13.6873 7.05744 10.9414 7.35449C10.6526 8.60569 10.5 9.90958 10.5 11.25ZM21.75 11.25C21.75 12.0582 21.4289 12.7913 20.9102 13.3301C20.7588 15.1482 20.414 16.9117 19.8906 18.5977C19.7693 18.9886 19.639 19.3755 19.499 19.7578L19.4688 19.8281C19.3028 20.1703 18.9009 20.3376 18.5361 20.2041C18.1475 20.0615 17.9476 19.631 18.0898 19.2422C18.1484 19.0823 18.2047 18.9213 18.2598 18.7598C16.1278 17.7412 13.8167 17.0376 11.3857 16.71C11.5683 17.2575 11.7743 17.7939 12.0088 18.3154C12.4024 19.1909 12.1164 20.2761 11.2363 20.7842L10.5801 21.1631C9.67163 21.6874 8.46207 21.3709 7.99805 20.3672C7.41823 19.1131 6.95441 17.7944 6.62012 16.4248C4.13967 16.0061 2.25 13.8496 2.25 11.25C2.25 8.3505 4.60051 6 7.5 6H8.25C8.93276 6 9.60888 5.97068 10.2764 5.91309C13.1146 5.66814 15.8057 4.91176 18.2598 3.73926L18.0898 3.25781L18.0674 3.18457C17.9734 2.81636 18.1718 2.42956 18.5361 2.2959C18.9009 2.16238 19.3028 2.32973 19.4688 2.67187L19.499 2.74219L19.7021 3.31934C19.7675 3.51256 19.83 3.70701 19.8906 3.90234C20.4139 5.58797 20.7587 7.35114 20.9102 9.16895C21.4292 9.70773 21.75 10.4415 21.75 11.25Z" fill="#0F172A"/>
</svg>
