<svg width="24" height="24" viewBox="0 0 24 24" fill="none" xmlns="http://www.w3.org/2000/svg">
<path d="M20.25 12C20.25 7.44365 16.5563 3.75 12 3.75C7.44365 3.75 3.75 7.44365 3.75 12C3.75 16.5563 7.44365 20.25 12 20.25C16.5563 20.25 20.25 16.5563 20.25 12ZM12.0078 16.5C12.4219 16.5002 12.7578 16.8359 12.7578 17.25V17.2578C12.7576 17.6718 12.4218 18.0076 12.0078 18.0078H12C11.5859 18.0078 11.2502 17.6719 11.25 17.2578V17.25C11.25 16.8358 11.5858 16.5 12 16.5H12.0078ZM11.25 14.25V13.5C11.25 12.221 12.3099 11.3925 13.125 10.998C13.3075 10.9097 13.4769 10.7992 13.6279 10.667C14.458 9.94068 14.458 8.80932 13.6279 8.08301C12.7392 7.30539 11.2619 7.30555 10.373 8.08301C10.0613 8.35577 9.58721 8.32442 9.31445 8.0127C9.04172 7.70097 9.07305 7.22686 9.38477 6.9541C10.839 5.68163 13.1609 5.68178 14.6152 6.9541C16.1283 8.27804 16.1283 10.472 14.6152 11.7959C14.3587 12.0203 14.0762 12.2045 13.7783 12.3486C13.102 12.6759 12.75 13.1222 12.75 13.5V14.25C12.75 14.6642 12.4142 15 12 15C11.5859 14.9999 11.25 14.6641 11.25 14.25ZM21.75 12C21.75 17.3848 17.3848 21.75 12 21.75C6.61522 21.75 2.25 17.3848 2.25 12C2.25 6.61522 6.61522 2.25 12 2.25C17.3848 2.25 21.75 6.61522 21.75 12Z" fill="black"/>
</svg>
