<svg width="24" height="24" viewBox="0 0 24 24" fill="none" xmlns="http://www.w3.org/2000/svg">
<path d="M12.499 11.75C17.007 11.7501 20.6708 15.3657 20.748 19.8555C20.7532 20.1532 20.5811 20.4256 20.3105 20.5498C17.9316 21.6414 15.2852 22.25 12.499 22.25C9.7127 22.25 7.0665 21.6415 4.68749 20.5498C4.41686 20.4256 4.24491 20.1532 4.24999 19.8555C4.32733 15.3657 7.991 11.75 12.499 11.75ZM12.499 13.25C8.97655 13.25 6.08632 15.9485 5.77831 19.3906C7.84298 20.265 10.1134 20.75 12.499 20.75C14.8845 20.75 17.1552 20.2658 19.2197 19.3916C18.9122 15.949 16.0217 13.2501 12.499 13.25ZM15.499 5.75C15.499 4.0932 14.1558 2.75009 12.499 2.75C10.8422 2.75 9.49901 4.09315 9.49901 5.75C9.49901 7.40685 10.8422 8.75 12.499 8.75C14.1558 8.74991 15.499 7.4068 15.499 5.75ZM16.999 5.75C16.999 8.23523 14.9842 10.2499 12.499 10.25C10.0137 10.25 7.99901 8.23528 7.99901 5.75C7.99901 3.26472 10.0137 1.25 12.499 1.25C14.9842 1.25009 16.999 3.26477 16.999 5.75Z" fill="black"/>
</svg>
