<svg width="24" height="24" viewBox="0 0 24 24" fill="none" xmlns="http://www.w3.org/2000/svg">
<path d="M18.2197 8.46973C18.5126 8.17683 18.9874 8.17684 19.2803 8.46973L22.2803 11.4697C22.5732 11.7626 22.5732 12.2374 22.2803 12.5303L19.2803 15.5303C18.9874 15.8232 18.5126 15.8232 18.2197 15.5303C17.9268 15.2374 17.9268 14.7626 18.2197 14.4697L19.9395 12.75H9C8.58579 12.75 8.25 12.4142 8.25 12C8.25 11.5858 8.58579 11.25 9 11.25H19.9395L18.2197 9.53027C17.9268 9.23738 17.9268 8.76262 18.2197 8.46973ZM15 9V5.25C15 4.42157 14.3284 3.75 13.5 3.75H7.5C6.67157 3.75 6 4.42157 6 5.25V18.75C6 19.5784 6.67157 20.25 7.5 20.25H13.5C14.2767 20.25 14.9154 19.6597 14.9922 18.9033L15 18.75V15C15 14.5858 15.3358 14.25 15.75 14.25C16.1642 14.25 16.5 14.5858 16.5 15V18.75C16.5 20.3551 15.2394 21.6658 13.6543 21.7461L13.5 21.75H7.5C5.84315 21.75 4.5 20.4069 4.5 18.75V5.25C4.5 3.59315 5.84315 2.25 7.5 2.25H13.5C15.1569 2.25 16.5 3.59315 16.5 5.25V9C16.5 9.41421 16.1642 9.75 15.75 9.75C15.3358 9.75 15 9.41421 15 9Z" fill="#0F172A"/>
</svg>
