<svg width="24" height="24" viewBox="0 0 24 24" fill="none" xmlns="http://www.w3.org/2000/svg">
<path d="M2.23413 19.6445V14.6513C2.23434 14.2373 2.57004 13.9013 2.98413 13.9013H7.97632C8.39041 13.9013 8.72611 14.2373 8.72632 14.6513C8.72632 15.0656 8.39053 15.4013 7.97632 15.4013H4.79272L6.69507 17.3047H6.69604C7.59585 18.2061 8.73747 18.8901 10.0583 19.2441C14.0593 20.3162 18.1718 17.9423 19.2439 13.9414C19.3511 13.5413 19.7627 13.3039 20.1628 13.4111C20.5627 13.5184 20.8 13.9292 20.6931 14.3291C19.4067 19.1301 14.4717 21.9796 9.67065 20.6933C8.08814 20.2693 6.71571 19.4474 5.63452 18.3642V18.3652L3.73413 16.4629V19.6445C3.73405 20.0586 3.3983 20.3945 2.98413 20.3945C2.56997 20.3945 2.23421 20.0586 2.23413 19.6445ZM3.43726 9.22653C4.90076 4.69555 9.67767 2.06041 14.3289 3.30661C15.9109 3.73052 17.283 4.55199 18.364 5.63474L20.2654 7.53513V4.35544C20.2656 3.94138 20.6013 3.60544 21.0154 3.60544C21.4295 3.60545 21.7652 3.94139 21.7654 4.35544V9.3486C21.7653 9.7627 21.4295 10.0986 21.0154 10.0986H16.0232C15.6091 10.0986 15.2733 9.76271 15.2732 9.3486C15.2732 8.93439 15.609 8.5986 16.0232 8.5986H19.2068L17.3035 6.69626V6.69528C16.4037 5.79384 15.262 5.10982 13.9412 4.75583C9.94031 3.68381 5.82787 6.05784 4.75562 10.0586L4.7312 10.1318C4.59623 10.4872 4.21177 10.6893 3.83667 10.5888C3.43665 10.4816 3.19928 10.0709 3.3064 9.67087L3.43726 9.22653Z" fill="#0F172A"/>
</svg>
