<svg width="24" height="24" viewBox="0 0 24 24" fill="none" xmlns="http://www.w3.org/2000/svg">
<path d="M13.9521 1.48828C14.1875 1.23634 14.5641 1.17688 14.8652 1.34473C15.1664 1.51266 15.3143 1.86455 15.2236 2.19727L13.2324 9.5H20.5C20.7986 9.5 21.0685 9.6773 21.1875 9.95117C21.3065 10.2251 21.2516 10.5434 21.0479 10.7617L10.5479 22.0117C10.3125 22.2637 9.93591 22.3231 9.63477 22.1553C9.33355 21.9873 9.18567 21.6354 9.27637 21.3027L11.2676 14H4C3.70137 14 3.43154 13.8227 3.3125 13.5488C3.19347 13.2749 3.24838 12.9566 3.45215 12.7383L13.9521 1.48828ZM5.72559 12.5H12.25C12.4837 12.5 12.7038 12.6092 12.8457 12.7949C12.9876 12.9807 13.0351 13.2218 12.9736 13.4473L11.5215 18.7705L18.7744 11H12.25C12.0163 11 11.7962 10.8908 11.6543 10.7051C11.5124 10.5193 11.4649 10.2782 11.5264 10.0527L12.9775 4.72852L5.72559 12.5Z" fill="black"/>
</svg>
