<svg width="24" height="24" viewBox="0 0 24 24" fill="none" xmlns="http://www.w3.org/2000/svg">
<path d="M10.6884 15.208C10.7974 14.8084 11.2098 14.5728 11.6093 14.6816C12.0089 14.7906 12.2447 15.2029 12.1357 15.6025L11.2714 18.7695L12.9462 16.9756C13.2289 16.6728 13.704 16.6568 14.0068 16.9395C14.3094 17.2221 14.3255 17.6963 14.0429 17.999L10.2978 22.0117C10.0625 22.2637 9.68585 22.3231 9.38471 22.1553C9.0835 21.9873 8.93561 21.6354 9.02631 21.3027L10.6884 15.208ZM13.7021 1.48828C13.9374 1.23634 14.314 1.17688 14.6152 1.34473C14.9164 1.51266 15.0643 1.86455 14.9736 2.19727L12.9824 9.5H20.2499C20.5486 9.5 20.8184 9.6773 20.9374 9.95117C21.0565 10.2251 21.0016 10.5434 20.7978 10.7617L16.5849 15.2744L21.5302 20.2197L21.582 20.2764C21.8223 20.5709 21.8048 21.0057 21.5302 21.2803C21.2556 21.5549 20.8209 21.5723 20.5263 21.332L20.4697 21.2803L2.46967 3.28027C2.17678 2.98738 2.17678 2.51262 2.46967 2.21973C2.74427 1.94512 3.17899 1.92766 3.47358 2.16797L3.53022 2.21973L8.43744 7.12695L13.7021 1.48828ZM15.5244 14.2139L18.5244 11H12.3105L15.5244 14.2139ZM5.91596 9.83594C6.20209 9.586 6.63708 9.58867 6.92084 9.85352C7.22321 10.1362 7.23944 10.6104 6.95697 10.9131L5.47553 12.5H9.25776L9.33393 12.5039C9.71215 12.5423 10.0078 12.8617 10.0078 13.25C10.0078 13.6383 9.71215 13.9577 9.33393 13.9961L9.25776 14H3.74994C3.45132 14 3.18148 13.8227 3.06244 13.5488C2.94342 13.2749 2.99832 12.9566 3.20209 12.7383L5.86029 9.88965L5.91596 9.83594ZM9.49897 8.18848L11.2949 9.98438L12.7275 4.72852L9.49897 8.18848Z" fill="black"/>
</svg>
