<svg width="24" height="24" viewBox="0 0 24 24" fill="none" xmlns="http://www.w3.org/2000/svg">
<path d="M20.75 9.57422C20.75 8.85576 20.2489 8.257 19.5752 8.14453C19.2046 8.08277 18.8315 8.02574 18.458 7.97266C17.5729 7.84674 16.7701 7.34608 16.2871 6.57227L15.4658 5.25586C15.2116 4.84853 14.7854 4.59405 14.3252 4.56934C13.4727 4.52356 12.6141 4.5 11.75 4.5C10.8859 4.5 10.0273 4.52356 9.1748 4.56934C8.71462 4.59405 8.28836 4.84853 8.03418 5.25586L7.21289 6.57227C6.72987 7.34608 5.92715 7.84674 5.04199 7.97266C4.66848 8.02574 4.29544 8.08277 3.9248 8.14453C3.25112 8.257 2.75 8.85576 2.75 9.57422V18C2.75 18.8284 3.42157 19.5 4.25 19.5H19.25C20.0784 19.5 20.75 18.8284 20.75 18V9.57422ZM15.5 12.75C15.5 10.6789 13.8211 9 11.75 9C9.67893 9 8 10.6789 8 12.75C8 14.8211 9.67893 16.5 11.75 16.5C13.8211 16.5 15.5 14.8211 15.5 12.75ZM18.5078 9.75C18.9219 9.75017 19.2578 10.0859 19.2578 10.5V10.5078C19.2576 10.9218 18.9218 11.2576 18.5078 11.2578H18.5C18.0859 11.2578 17.7502 10.9219 17.75 10.5078V10.5C17.75 10.0858 18.0858 9.75 18.5 9.75H18.5078ZM17 12.75C17 15.6495 14.6495 18 11.75 18C8.8505 18 6.5 15.6495 6.5 12.75C6.5 9.8505 8.8505 7.5 11.75 7.5C14.6495 7.5 17 9.8505 17 12.75ZM22.25 18C22.25 19.6569 20.9069 21 19.25 21H4.25C2.59315 21 1.25 19.6569 1.25 18V9.57422C1.25 8.15804 2.24685 6.90364 3.67871 6.66504C4.06102 6.60133 4.44483 6.54206 4.83008 6.4873C5.29499 6.42124 5.70131 6.16123 5.94043 5.77832L6.76172 4.46191C7.2645 3.65619 8.12711 3.12325 9.09473 3.07129C9.97391 3.02409 10.8592 3 11.75 3C12.6408 3 13.5261 3.02409 14.4053 3.07129C15.3729 3.12325 16.2355 3.65619 16.7383 4.46191L17.5596 5.77832C17.7987 6.16123 18.205 6.42123 18.6699 6.4873C19.0552 6.54206 19.439 6.60133 19.8213 6.66504C21.2531 6.90364 22.25 8.15804 22.25 9.57422V18Z" fill="white"/>
</svg>
