<svg width="20" height="20" viewBox="0 0 20 20" fill="none" xmlns="http://www.w3.org/2000/svg">
<path d="M6.27907 8.37209C6.79282 8.37209 7.2093 8.78857 7.2093 9.30233C7.2093 9.81608 6.79282 10.2326 6.27907 10.2326C5.76532 10.2326 5.34884 9.81608 5.34884 9.30233C5.34884 8.78857 5.76532 8.37209 6.27907 8.37209Z" fill="#0F1729"/>
<path d="M10 8.37209C10.5138 8.37209 10.9302 8.78857 10.9302 9.30233C10.9302 9.81608 10.5138 10.2326 10 10.2326C9.48625 10.2326 9.06977 9.81608 9.06977 9.30233C9.06977 8.78857 9.48625 8.37209 10 8.37209Z" fill="#0F1729"/>
<path d="M13.7209 8.37209C14.2347 8.37209 14.6512 8.78857 14.6512 9.30233C14.6512 9.81608 14.2347 10.2326 13.7209 10.2326C13.2072 10.2326 12.7907 9.81608 12.7907 9.30233C12.7907 8.78857 13.2072 8.37209 13.7209 8.37209Z" fill="#0F1729"/>
<path fill-rule="evenodd" clip-rule="evenodd" d="M10 0C15.3866 0 20 4.03435 20 9.30233C20 14.5703 15.3866 18.6047 10 18.6047C9.28466 18.6047 8.58531 18.5339 7.9097 18.4003C6.87444 18.9742 5.68337 19.3023 4.4186 19.3023C4.18042 19.3023 3.94403 19.2906 3.71094 19.2678C3.51956 19.2491 3.32966 19.2232 3.14226 19.1897C2.56914 19.0871 2.09392 18.6856 1.8968 18.1377C1.69986 17.59 1.8103 16.9785 2.18659 16.5343C2.40781 16.2732 2.57506 15.9684 2.67714 15.6359C1.03338 13.9919 0 11.7695 0 9.30233C0 4.03435 4.61339 0 10 0ZM10 1.62791C5.37622 1.62791 1.62791 5.06386 1.62791 9.30233C1.62791 11.3382 2.49314 13.1893 3.90443 14.563C4.2148 14.8653 4.42296 15.2782 4.33866 15.7031C4.19809 16.4118 3.8782 17.0563 3.42842 17.5872C3.57354 17.6132 3.72138 17.6336 3.86991 17.6481C4.05031 17.6657 4.23345 17.6744 4.4186 17.6744C5.61117 17.6744 6.71656 17.3005 7.62355 16.6633C8.37688 16.8674 9.17451 16.9767 10 16.9767C14.6238 16.9767 18.3721 13.5408 18.3721 9.30233C18.3721 5.06386 14.6238 1.62791 10 1.62791Z" fill="#0F1729"/>
</svg>
