<svg width="18" height="16" viewBox="0 0 18 16" fill="none" xmlns="http://www.w3.org/2000/svg">
<path d="M8.52637 9.33203C8.82095 9.57234 9.25567 9.55487 9.53028 9.28027L17.0303 1.78027L17.082 1.72363C17.3223 1.42905 17.3049 0.994327 17.0303 0.719724C16.7557 0.44512 16.321 0.427657 16.0264 0.667966L15.9697 0.719724L9 7.68945L2.03028 0.719724C1.73738 0.42683 1.26262 0.42683 0.969731 0.719724C0.676838 1.01262 0.676838 1.48738 0.969731 1.78027L8.46973 9.28027L8.52637 9.33203ZM8.52637 15.332C8.82095 15.5723 9.25567 15.5549 9.53028 15.2803L17.0303 7.78027L17.082 7.72363C17.3223 7.42905 17.3049 6.99433 17.0303 6.71972C16.7557 6.44512 16.321 6.42766 16.0264 6.66797L15.9697 6.71972L9 13.6895L2.03028 6.71972C1.73738 6.42683 1.26262 6.42683 0.969731 6.71972C0.676838 7.01262 0.676838 7.48738 0.969731 7.78027L8.46973 15.2803L8.52637 15.332Z" fill="#0F172A"/>
</svg>
