<svg width="24" height="24" viewBox="0 0 24 24" fill="none" xmlns="http://www.w3.org/2000/svg">
<path d="M10 11.5C10.4142 11.5 10.75 11.8358 10.75 12.25V13.75H12.25C12.6642 13.75 13 14.0858 13 14.5C13 14.9142 12.6642 15.25 12.25 15.25H10.75V16.75C10.75 17.1642 10.4142 17.5 10 17.5C9.58579 17.5 9.25 17.1642 9.25 16.75V15.25H7.75C7.33579 15.25 7 14.9142 7 14.5C7 14.0858 7.33579 13.75 7.75 13.75H9.25V12.25C9.25 11.8358 9.58579 11.5 10 11.5Z" fill="black"/>
<path fill-rule="evenodd" clip-rule="evenodd" d="M15.25 1.25C16.4102 1.25 17.4139 1.90888 17.9131 2.87109C18.1377 2.88663 18.3622 2.90037 18.5859 2.91895C20.1252 3.0467 21.25 4.353 21.25 5.8584V16.25C21.25 17.9069 19.9069 19.25 18.25 19.25H16.75V20.375C16.75 21.4105 15.9105 22.25 14.875 22.25H5.125C4.08947 22.25 3.25 21.4105 3.25 20.375V9.125C3.25 8.08947 4.08947 7.25 5.125 7.25H7.75V5.8584C7.75 4.353 8.87477 3.0467 10.4141 2.91895C10.6375 2.9004 10.8616 2.88662 11.0859 2.87109C11.5851 1.90866 12.5896 1.25 13.75 1.25H15.25ZM5.125 8.75C4.91789 8.75 4.75 8.91789 4.75 9.125V20.375C4.75 20.5821 4.91789 20.75 5.125 20.75H14.875C15.0821 20.75 15.25 20.5821 15.25 20.375V9.125C15.25 8.91789 15.0821 8.75 14.875 8.75H5.125ZM18.2422 4.39746C18.1681 5.15665 17.5286 5.75 16.75 5.75H12.25C11.4713 5.75 10.8309 5.15669 10.7568 4.39746C10.6839 4.40317 10.6109 4.40802 10.5381 4.41406C9.81523 4.47409 9.25 5.09385 9.25 5.8584V7.25H14.875C15.9105 7.25 16.75 8.08947 16.75 9.125V17.75H18.25C19.0784 17.75 19.75 17.0784 19.75 16.25V5.8584C19.75 5.09385 19.1848 4.47409 18.4619 4.41406C18.3888 4.40799 18.3154 4.4032 18.2422 4.39746ZM13.75 2.75C13.0767 2.75 12.5054 3.19457 12.3164 3.80762C12.2736 3.94656 12.25 4.09482 12.25 4.25H16.75C16.75 4.09482 16.7264 3.94656 16.6836 3.80762C16.4946 3.19457 15.9233 2.75 15.25 2.75H13.75Z" fill="black"/>
</svg>
