<svg width="24" height="24" viewBox="0 0 24 24" fill="none" xmlns="http://www.w3.org/2000/svg">
<path d="M4.25 11.75C4.25 10.9216 4.92157 10.25 5.75 10.25C6.57843 10.25 7.25 10.9216 7.25 11.75C7.25 12.5784 6.57843 13.25 5.75 13.25C4.92157 13.25 4.25 12.5784 4.25 11.75ZM10.25 11.75C10.25 10.9216 10.9216 10.25 11.75 10.25C12.5784 10.25 13.25 10.9216 13.25 11.75C13.25 12.5784 12.5784 13.25 11.75 13.25C10.9216 13.25 10.25 12.5784 10.25 11.75ZM16.25 11.75C16.25 10.9216 16.9216 10.25 17.75 10.25C18.5784 10.25 19.25 10.9216 19.25 11.75C19.25 12.5784 18.5784 13.25 17.75 13.25C16.9216 13.25 16.25 12.5784 16.25 11.75Z" fill="black"/>
</svg>
