<svg width="24" height="24" viewBox="0 0 24 24" fill="none" xmlns="http://www.w3.org/2000/svg">
<path d="M2.46946 2.46973C2.76232 2.17687 3.2371 2.17694 3.53001 2.46973L6.33762 5.27734C8.00117 4.30659 9.93633 3.75003 11.9997 3.75C17.0965 3.75 21.4005 7.13857 22.7839 11.7842C22.8254 11.9236 22.8253 12.0725 22.7839 12.2119C22.1097 14.4786 20.7395 16.4432 18.9245 17.8633L21.53 20.4697C21.8229 20.7626 21.8229 21.2374 21.53 21.5303C21.2371 21.8231 20.7623 21.8231 20.4695 21.5303L2.46946 3.53027C2.17671 3.23741 2.17671 2.76259 2.46946 2.46973ZM3.40696 7.73828C3.67447 7.42204 4.14833 7.38288 4.46458 7.65039C4.78045 7.91797 4.81987 8.39092 4.55247 8.70703C3.74184 9.66533 3.11542 10.7822 2.72141 12.0029C3.9878 15.9187 7.663 18.7499 11.9988 18.75C12.9216 18.75 13.8135 18.6216 14.6579 18.3828C15.0564 18.2701 15.4708 18.5021 15.5837 18.9004C15.6964 19.299 15.4647 19.7135 15.0661 19.8262C14.0902 20.1021 13.061 20.25 11.9988 20.25C6.90217 20.2499 2.59899 16.8613 1.21555 12.2158C1.17402 12.0764 1.17414 11.9276 1.21555 11.7881C1.66374 10.2813 2.41842 8.90694 3.40696 7.73828ZM14.2497 12C14.2497 10.7574 13.2424 9.75 11.9997 9.75C11.6523 9.75003 11.3245 9.83025 11.031 9.9707L14.029 12.9678C14.1692 12.6744 14.2497 12.3471 14.2497 12ZM15.7497 12C15.7497 12.7637 15.5198 13.4738 15.1277 14.0664L17.8542 16.793C19.4431 15.5972 20.6525 13.9289 21.2761 11.9971C20.0096 8.08146 16.3355 5.25 11.9997 5.25C10.3515 5.25003 8.80035 5.65876 7.44016 6.37988L9.93137 8.87109C10.5241 8.47863 11.2357 8.25004 11.9997 8.25C14.0708 8.25 15.7497 9.92893 15.7497 12Z" fill="#0F172A"/>
</svg>
