<svg width="20" height="20" viewBox="0 0 20 20" fill="none" xmlns="http://www.w3.org/2000/svg">
<path d="M5.43871 1.00488C7.29855 0.0880262 9.40257 -0.211916 11.4446 0.148438C11.8523 0.220547 12.1249 0.609758 12.053 1.01758C11.9809 1.42531 11.5916 1.69778 11.1838 1.62598C9.45589 1.32105 7.67557 1.57469 6.1018 2.35059C4.52801 3.12652 3.24216 4.38405 2.43188 5.94043C1.62189 7.49671 1.32896 9.27086 1.59594 11.0049C1.86299 12.7391 2.6764 14.3434 3.91723 15.584C5.15789 16.8246 6.76222 17.6374 8.49633 17.9043C10.2304 18.1711 12.0046 17.8776 13.5608 17.0674C15.1169 16.2571 16.3738 14.9719 17.1497 13.3984C17.9256 11.8249 18.1799 10.0452 17.8752 8.31738C17.8033 7.90948 18.0757 7.5202 18.4836 7.44824C18.8915 7.3763 19.2808 7.64875 19.3528 8.05664C19.7129 10.0986 19.4124 12.2028 18.4954 14.0625C17.5783 15.922 16.0922 17.441 14.2532 18.3984C12.4139 19.3559 10.3172 19.7021 8.26782 19.3867C6.34652 19.091 4.56083 18.2279 3.13696 16.9131L2.85668 16.6445C1.39026 15.1784 0.429131 13.2829 0.11352 11.2334C-0.202072 9.184 0.144471 7.08738 1.1018 5.24805C2.0594 3.40869 3.57879 1.92189 5.43871 1.00488ZM12.4026 12.4014C12.6954 12.1087 13.1703 12.1087 13.4631 12.4014C13.756 12.6942 13.7559 13.169 13.4631 13.4619C12.9756 13.9494 12.397 14.3367 11.76 14.6006C11.1232 14.8644 10.4405 15 9.75121 15C9.06177 15 8.37841 14.8644 7.74145 14.6006C7.1046 14.3367 6.52576 13.9494 6.03832 13.4619C5.74579 13.169 5.74555 12.6941 6.03832 12.4014C6.3311 12.1086 6.80595 12.1088 7.09887 12.4014C7.44707 12.7496 7.86073 13.0264 8.31567 13.2148C8.77064 13.4033 9.25875 13.5 9.75121 13.5C10.2435 13.5 10.731 13.4032 11.1858 13.2148C11.6408 13.0264 12.0544 12.7496 12.4026 12.4014ZM7.22485 6.00488C7.70221 6.05192 7.96095 6.43315 8.06176 6.63477C8.19179 6.89495 8.25121 7.2018 8.25121 7.5C8.25121 7.7982 8.19179 8.10505 8.06176 8.36523C7.95422 8.58033 7.66691 8.99987 7.12621 9C6.58535 9 6.29726 8.58036 6.18969 8.36523C6.05973 8.10509 6.00121 7.79813 6.00121 7.5C6.00121 7.20187 6.05973 6.89491 6.18969 6.63477C6.29726 6.41964 6.58535 6 7.12621 6L7.22485 6.00488ZM12.4748 6.00488C12.9522 6.05192 13.211 6.43315 13.3118 6.63477C13.4418 6.89495 13.5012 7.2018 13.5012 7.5C13.5012 7.7982 13.4418 8.10505 13.3118 8.36523C13.2042 8.58033 12.9169 8.99987 12.3762 9C11.8354 9 11.5473 8.58036 11.4397 8.36523C11.3097 8.10509 11.2512 7.79813 11.2512 7.5C11.2512 7.20187 11.3097 6.89491 11.4397 6.63477C11.5473 6.41964 11.8354 6 12.3762 6L12.4748 6.00488ZM15.5012 5.75V4H13.7512C13.337 4 13.0012 3.66421 13.0012 3.25C13.0012 2.83579 13.337 2.5 13.7512 2.5H15.5012V0.75C15.5012 0.335786 15.837 0 16.2512 0C16.6653 0.000138609 17.0012 0.335872 17.0012 0.75V2.5H18.7512C19.1653 2.50014 19.5012 2.83587 19.5012 3.25C19.5012 3.66413 19.1653 3.99986 18.7512 4H17.0012V5.75C17.0012 6.16413 16.6653 6.49986 16.2512 6.5C15.837 6.5 15.5012 6.16421 15.5012 5.75Z" fill="black"/>
</svg>
