<svg width="20" height="20" viewBox="0 0 20 20" fill="none" xmlns="http://www.w3.org/2000/svg">
<path d="M18 9.75C18 5.19365 14.3063 1.5 9.75 1.5C5.19365 1.5 1.5 5.19365 1.5 9.75C1.5 14.3063 5.19365 18 9.75 18C14.3063 18 18 14.3063 18 9.75ZM12.4014 12.4014C12.6941 12.1086 13.169 12.1088 13.4619 12.4014C13.7548 12.6943 13.7548 13.169 13.4619 13.4619C11.4757 15.4481 8.2943 15.5106 6.2334 13.6484L6.03809 13.4619L5.98633 13.4053C5.74605 13.1107 5.76349 12.676 6.03809 12.4014C6.31269 12.1271 6.74656 12.1104 7.04102 12.3506L7.09863 12.4014L7.23828 12.5342C8.71035 13.8644 10.9826 13.8201 12.4014 12.4014ZM7.125 6C7.66521 6 7.95261 6.41817 8.06055 6.63379C8.1907 6.8941 8.25 7.20171 8.25 7.5C8.25 7.79829 8.1907 8.1059 8.06055 8.36621C7.95261 8.58183 7.66521 9 7.125 9C6.58479 9 6.29739 8.58183 6.18945 8.36621C6.0593 8.1059 6 7.79829 6 7.5C6 7.20171 6.0593 6.8941 6.18945 6.63379C6.29739 6.41817 6.58479 6 7.125 6ZM12.375 6C12.9152 6 13.2026 6.41817 13.3105 6.63379C13.4407 6.8941 13.5 7.20171 13.5 7.5C13.5 7.79829 13.4407 8.1059 13.3105 8.36621C13.2026 8.58183 12.9152 9 12.375 9C11.8348 9 11.5474 8.58183 11.4395 8.36621C11.3093 8.1059 11.25 7.79829 11.25 7.5C11.25 7.20171 11.3093 6.8941 11.4395 6.63379C11.5474 6.41817 11.8348 6 12.375 6ZM19.5 9.75C19.5 15.1348 15.1348 19.5 9.75 19.5C4.36522 19.5 0 15.1348 0 9.75C0 4.36522 4.36522 0 9.75 0C15.1348 0 19.5 4.36522 19.5 9.75Z" fill="#0F172A"/>
</svg>
