<svg width="24" height="24" viewBox="0 0 24 24" fill="none" xmlns="http://www.w3.org/2000/svg">
<path d="M20 18.2402C20.4142 18.2402 20.75 18.576 20.75 18.9902C20.7499 19.4043 20.4141 19.7402 20 19.7402H4.11426C4.07695 19.7459 4.0389 19.75 4 19.75C3.58579 19.75 3.25 19.4142 3.25 19V18.9902C3.25 18.576 3.58579 18.2402 4 18.2402H20ZM20 11.2451C20.4142 11.2451 20.75 11.5809 20.75 11.9951C20.7499 12.4093 20.4142 12.7451 20 12.7451H4.11719C4.07897 12.7511 4.03991 12.7549 4 12.7549C3.58579 12.7549 3.25 12.4191 3.25 12.0049V11.9951C3.25 11.5809 3.58579 11.2451 4 11.2451H20ZM20 4.25L20.0771 4.25391C20.4551 4.29253 20.75 4.61183 20.75 5C20.75 5.38817 20.4551 5.70747 20.0771 5.74609L20 5.75H4.11719C4.07896 5.75601 4.03991 5.75977 4 5.75977C3.58579 5.75977 3.25 5.42398 3.25 5.00977V5C3.25 4.58579 3.58579 4.25 4 4.25H20Z" fill="#0F172A"/>
</svg>
