<svg width="24" height="24" viewBox="0 0 24 24" fill="none" xmlns="http://www.w3.org/2000/svg">
<path d="M5.6 15.2C5.16 15.2 4.78333 15.0433 4.47 14.73C4.15667 14.4167 4 14.04 4 13.6V5.6C4 5.16 4.15667 4.78333 4.47 4.47C4.78333 4.15667 5.16 4 5.6 4H18.4C18.84 4 19.2167 4.15667 19.53 4.47C19.8433 4.78333 20 5.16 20 5.6V13.6C20 14.04 19.8433 14.4167 19.53 14.73C19.2167 15.0433 18.84 15.2 18.4 15.2H5.6ZM5.6 13.6H18.4V5.6H5.6V13.6ZM8.8 12C8.8 12.4418 9.15817 12.8 9.6 12.8H14.4C14.8418 12.8 15.2 12.4418 15.2 12C15.2 11.5582 14.8418 11.2 14.4 11.2H9.6C9.15817 11.2 8.8 11.5582 8.8 12ZM6.4 9.6C6.4 10.0418 6.75817 10.4 7.2 10.4C7.64183 10.4 8 10.0418 8 9.6C8 9.15817 7.64183 8.8 7.2 8.8C6.75817 8.8 6.4 9.15817 6.4 9.6ZM8.8 9.6C8.8 10.0418 9.15817 10.4 9.6 10.4C10.0418 10.4 10.4 10.0418 10.4 9.6C10.4 9.15817 10.0418 8.8 9.6 8.8C9.15817 8.8 8.8 9.15817 8.8 9.6ZM11.2 9.6C11.2 10.0418 11.5582 10.4 12 10.4C12.4418 10.4 12.8 10.0418 12.8 9.6C12.8 9.15817 12.4418 8.8 12 8.8C11.5582 8.8 11.2 9.15817 11.2 9.6ZM13.6 9.6C13.6 10.0418 13.9582 10.4 14.4 10.4C14.8418 10.4 15.2 10.0418 15.2 9.6C15.2 9.15817 14.8418 8.8 14.4 8.8C13.9582 8.8 13.6 9.15817 13.6 9.6ZM16 9.6C16 10.0418 16.3582 10.4 16.8 10.4C17.2418 10.4 17.6 10.0418 17.6 9.6C17.6 9.15817 17.2418 8.8 16.8 8.8C16.3582 8.8 16 9.15817 16 9.6ZM6.4 7.2C6.4 7.64183 6.75817 8 7.2 8C7.64183 8 8 7.64183 8 7.2C8 6.75817 7.64183 6.4 7.2 6.4C6.75817 6.4 6.4 6.75817 6.4 7.2ZM8.8 7.2C8.8 7.64183 9.15817 8 9.6 8C10.0418 8 10.4 7.64183 10.4 7.2C10.4 6.75817 10.0418 6.4 9.6 6.4C9.15817 6.4 8.8 6.75817 8.8 7.2ZM11.2 7.2C11.2 7.64183 11.5582 8 12 8C12.4418 8 12.8 7.64183 12.8 7.2C12.8 6.75817 12.4418 6.4 12 6.4C11.5582 6.4 11.2 6.75817 11.2 7.2ZM13.6 7.2C13.6 7.64183 13.9582 8 14.4 8C14.8418 8 15.2 7.64183 15.2 7.2C15.2 6.75817 14.8418 6.4 14.4 6.4C13.9582 6.4 13.6 6.75817 13.6 7.2ZM16 7.2C16 7.64183 16.3582 8 16.8 8C17.2418 8 17.6 7.64183 17.6 7.2C17.6 6.75817 17.2418 6.4 16.8 6.4C16.3582 6.4 16 6.75817 16 7.2Z" fill="#616161"/>
<path fill-rule="evenodd" clip-rule="evenodd" d="M9.5 17.075C9.73431 16.8407 10.1142 16.8407 10.3485 17.075L12 18.7265L13.7265 17C13.9608 16.7657 14.3407 16.7657 14.575 17C14.8093 17.2343 14.8093 17.6142 14.575 17.8485L12.4243 19.9993C12.3117 20.1118 12.1591 20.175 12 20.175C11.8409 20.175 11.6883 20.1118 11.5757 19.9993L9.5 17.9235C9.26569 17.6892 9.26569 17.3093 9.5 17.075Z" fill="#616161"/>
</svg>
