<svg width="24" height="24" viewBox="0 0 24 24" fill="none" xmlns="http://www.w3.org/2000/svg">
<path d="M12.5136 8.36523C12.6922 7.99148 13.1399 7.83317 13.5136 8.01172C14.0384 8.2624 14.529 8.60518 14.9619 9.03809C17.0121 11.0883 17.0121 14.4117 14.9619 16.4619L10.4619 20.9619C8.41163 23.0122 5.08831 23.0122 3.03806 20.9619C0.987803 18.9117 0.987803 15.5883 3.03806 13.5381L4.79489 11.7803C5.08776 11.4878 5.56265 11.4876 5.85544 11.7803C6.14833 12.0732 6.14833 12.5489 5.85544 12.8418L4.0986 14.5986C2.63414 16.0631 2.63414 18.4369 4.0986 19.9014C5.56307 21.3658 7.93687 21.3658 9.40134 19.9014L13.9013 15.4014C15.3658 13.9369 15.3658 11.5631 13.9013 10.0986C13.5905 9.78782 13.2403 9.54353 12.8672 9.36523C12.4934 9.18669 12.3351 8.73899 12.5136 8.36523ZM13.5381 3.03809C15.5883 0.987834 18.9116 0.987834 20.9619 3.03809C23.0121 5.08834 23.0121 8.41166 20.9619 10.4619L19.205 12.2197C18.9122 12.5122 18.4373 12.5124 18.1445 12.2197C17.8516 11.9268 17.8516 11.4511 18.1445 11.1582L19.9013 9.40137C21.3658 7.9369 21.3658 5.5631 19.9013 4.09863C18.4369 2.63417 16.0631 2.63417 14.5986 4.09863L10.0986 8.59863C8.63414 10.0631 8.63414 12.4369 10.0986 13.9014C10.4094 14.2122 10.7596 14.4565 11.1328 14.6348C11.5065 14.8133 11.6648 15.261 11.4863 15.6348C11.3078 16.0085 10.8601 16.1668 10.4863 15.9883C9.96158 15.7376 9.47096 15.3948 9.03806 14.9619C6.9878 12.9117 6.9878 9.58834 9.03806 7.53809L13.5381 3.03809Z" fill="#0F172A"/>
</svg>
