<svg width="24" height="24" viewBox="0 0 24 24" fill="none" xmlns="http://www.w3.org/2000/svg">
<path d="M19.25 12.5C19.25 11.6716 18.5784 11 17.75 11H7.25C6.42157 11 5.75 11.6716 5.75 12.5V19.25C5.75 20.0784 6.42157 20.75 7.25 20.75H17.75C18.5784 20.75 19.25 20.0784 19.25 19.25V12.5ZM16.25 6.5C16.25 4.42893 14.5711 2.75 12.5 2.75C10.4289 2.75 8.75 4.42893 8.75 6.5V9.5H16.25V6.5ZM17.75 9.5C19.4069 9.5 20.75 10.8431 20.75 12.5V19.25C20.75 20.9069 19.4069 22.25 17.75 22.25H7.25C5.59315 22.25 4.25 20.9069 4.25 19.25V12.5C4.25 10.8431 5.59315 9.5 7.25 9.5V6.5C7.25 3.6005 9.60051 1.25 12.5 1.25C15.3995 1.25 17.75 3.60051 17.75 6.5V9.5Z" fill="black"/>
</svg>
