<svg width="24" height="24" viewBox="0 0 24 24" fill="none" xmlns="http://www.w3.org/2000/svg">
<path d="M17.25 10.5C17.25 6.77208 14.2279 3.75 10.5 3.75C6.77208 3.75 3.75 6.77208 3.75 10.5C3.75 14.2279 6.77208 17.25 10.5 17.25C12.3642 17.25 14.0511 16.4958 15.2734 15.2734C16.4958 14.0511 17.25 12.3642 17.25 10.5ZM18.75 10.5C18.75 12.5078 18.0309 14.3481 16.8389 15.7783L21.5303 20.4697L21.582 20.5264C21.8223 20.8209 21.8049 21.2557 21.5303 21.5303C21.2557 21.8049 20.8209 21.8223 20.5264 21.582L20.4697 21.5303L15.7783 16.8389C14.3481 18.0309 12.5078 18.75 10.5 18.75C5.94365 18.75 2.25 15.0563 2.25 10.5C2.25 5.94365 5.94365 2.25 10.5 2.25C15.0563 2.25 18.75 5.94365 18.75 10.5Z" fill="black"/>
</svg>
