<svg width="21" height="21" viewBox="0 0 21 21" fill="none" xmlns="http://www.w3.org/2000/svg">
<path d="M0.25 17.5V7C0.25 5.34315 1.59315 4 3.25 4H8L8.07715 4.00391C8.45512 4.04253 8.75 4.36183 8.75 4.75C8.75 5.13816 8.45512 5.45747 8.07715 5.49609L8 5.5H3.25C2.42157 5.5 1.75 6.17157 1.75 7V17.5C1.75 18.3284 2.42158 19 3.25 19H13.75C14.5784 19 15.25 18.3284 15.25 17.5V12.75C15.25 12.3358 15.5858 12 16 12C16.4142 12 16.75 12.3358 16.75 12.75V17.5C16.75 19.1569 15.4069 20.5 13.75 20.5H3.25C1.59315 20.5 0.250004 19.1569 0.25 17.5ZM16.0186 1.01855C17.0437 -0.00657117 18.7063 -0.00657058 19.7314 1.01855C20.7566 2.04368 20.7566 3.70632 19.7314 4.73145L9.1123 15.3496C8.49561 15.9663 7.73523 16.4199 6.89941 16.6689L4.21387 17.4688C3.95 17.5473 3.6644 17.4749 3.46973 17.2803C3.27505 17.0856 3.20274 16.8 3.28125 16.5361L4.08105 13.8506C4.3301 13.0148 4.7837 12.2544 5.40039 11.6377L16.0186 1.01855ZM6.46094 12.6982C6.02037 13.1388 5.69643 13.6822 5.51855 14.2793L5.11426 15.6348L6.4707 15.2314C7.06782 15.0536 7.6112 14.7296 8.05176 14.2891L16.4521 5.8877L14.8613 4.29688L6.46094 12.6982ZM18.6709 2.0791C18.2316 1.63976 17.5184 1.63976 17.0791 2.0791L15.9219 3.23633L17.5127 4.82715L18.6709 3.6709C19.1102 3.23156 19.1102 2.51844 18.6709 2.0791Z" fill="black"/>
</svg>
