<svg width="44" height="40" viewBox="0 0 44 40" fill="none" xmlns="http://www.w3.org/2000/svg">
<path d="M14.5 3.37578C14.5 2.50593 15.2052 1.80078 16.075 1.80078H40.225C41.0948 1.80078 41.8 2.50593 41.8 3.37578V21.2258C41.8 22.0956 41.0948 22.8008 40.225 22.8008H16.075C15.2052 22.8008 14.5 22.0956 14.5 21.2258V3.37578Z" fill="#FAFAFA"/>
<path d="M14.5 3.37578C14.5 2.50593 15.2052 1.80078 16.075 1.80078H18.175C19.0448 1.80078 19.75 2.50593 19.75 3.37578V5.47578C19.75 6.34563 19.0448 7.05078 18.175 7.05078H16.075C15.2052 7.05078 14.5 6.34563 14.5 5.47578V3.37578Z" fill="#FAFAFA"/>
<path d="M36.55 3.37578C36.55 2.50593 37.2551 1.80078 38.125 1.80078H40.225C41.0948 1.80078 41.8 2.50593 41.8 3.37578V5.47578C41.8 6.34563 41.0948 7.05078 40.225 7.05078H38.125C37.2551 7.05078 36.55 6.34563 36.55 5.47578V3.37578Z" fill="#FAFAFA"/>
<path d="M19.75 3.37578C19.75 2.50593 20.4552 1.80078 21.325 1.80078H34.975C35.8448 1.80078 36.55 2.50593 36.55 3.37578V10.7258C36.55 11.5956 35.8448 12.3008 34.975 12.3008H21.325C20.4552 12.3008 19.75 11.5956 19.75 10.7258V3.37578Z" fill="#FAFAFA"/>
<path d="M19.75 13.8758C19.75 13.0059 20.4552 12.3008 21.325 12.3008H34.975C35.8448 12.3008 36.55 13.0059 36.55 13.8758V21.2258C36.55 22.0956 35.8448 22.8008 34.975 22.8008H21.325C20.4552 22.8008 19.75 22.0956 19.75 21.2258V13.8758Z" fill="#FAFAFA"/>
<path d="M14.5 8.62578C14.5 7.75593 15.2052 7.05078 16.075 7.05078H18.175C19.0448 7.05078 19.75 7.75593 19.75 8.62578V10.7258C19.75 11.5956 19.0448 12.3008 18.175 12.3008H16.075C15.2052 12.3008 14.5 11.5956 14.5 10.7258V8.62578Z" fill="#FAFAFA"/>
<path d="M36.55 8.62578C36.55 7.75593 37.2551 7.05078 38.125 7.05078H40.225C41.0948 7.05078 41.8 7.75593 41.8 8.62578V10.7258C41.8 11.5956 41.0948 12.3008 40.225 12.3008H38.125C37.2551 12.3008 36.55 11.5956 36.55 10.7258V8.62578Z" fill="#FAFAFA"/>
<path d="M14.5 13.8758C14.5 13.0059 15.2052 12.3008 16.075 12.3008H18.175C19.0448 12.3008 19.75 13.0059 19.75 13.8758V15.9758C19.75 16.8456 19.0448 17.5508 18.175 17.5508H16.075C15.2052 17.5508 14.5 16.8456 14.5 15.9758V13.8758Z" fill="#FAFAFA"/>
<path d="M36.55 13.8758C36.55 13.0059 37.2551 12.3008 38.125 12.3008H40.225C41.0948 12.3008 41.8 13.0059 41.8 13.8758V15.9758C41.8 16.8456 41.0948 17.5508 40.225 17.5508H38.125C37.2551 17.5508 36.55 16.8456 36.55 15.9758V13.8758Z" fill="#FAFAFA"/>
<path d="M14.5 19.1258C14.5 18.2559 15.2052 17.5508 16.075 17.5508H18.175C19.0448 17.5508 19.75 18.2559 19.75 19.1258V21.2258C19.75 22.0956 19.0448 22.8008 18.175 22.8008H16.075C15.2052 22.8008 14.5 22.0956 14.5 21.2258V19.1258Z" fill="#FAFAFA"/>
<path d="M36.55 19.1258C36.55 18.2559 37.2551 17.5508 38.125 17.5508H40.225C41.0948 17.5508 41.8 18.2559 41.8 19.1258V21.2258C41.8 22.0956 41.0948 22.8008 40.225 22.8008H38.125C37.2551 22.8008 36.55 22.0956 36.55 21.2258V19.1258Z" fill="#FAFAFA"/>
<path d="M16.075 22.8008H40.225M16.075 22.8008C15.2052 22.8008 14.5 22.0956 14.5 21.2258M16.075 22.8008H18.175C19.0448 22.8008 19.75 22.0956 19.75 21.2258M14.5 21.2258V3.37578M14.5 21.2258V19.1258C14.5 18.2559 15.2052 17.5508 16.075 17.5508M41.8 21.2258V3.37578M41.8 21.2258C41.8 22.0956 41.0948 22.8008 40.225 22.8008M41.8 21.2258V19.1258C41.8 18.2559 41.0948 17.5508 40.225 17.5508M40.225 22.8008H38.125C37.2552 22.8008 36.55 22.0956 36.55 21.2258M40.225 1.80078H16.075M40.225 1.80078C41.0948 1.80078 41.8 2.50593 41.8 3.37578M40.225 1.80078H38.125C37.2552 1.80078 36.55 2.50593 36.55 3.37578M41.8 3.37578V5.47578C41.8 6.34563 41.0948 7.05078 40.225 7.05078M16.075 1.80078C15.2052 1.80078 14.5 2.50593 14.5 3.37578M16.075 1.80078H18.175C19.0448 1.80078 19.75 2.50593 19.75 3.37578M14.5 3.37578V5.47578C14.5 6.34563 15.2052 7.05078 16.075 7.05078M16.075 7.05078H18.175M16.075 7.05078C15.2052 7.05078 14.5 7.75593 14.5 8.62578V10.7258C14.5 11.5956 15.2052 12.3008 16.075 12.3008M18.175 7.05078C19.0448 7.05078 19.75 6.34563 19.75 5.47578V3.37578M18.175 7.05078C19.0448 7.05078 19.75 7.75593 19.75 8.62578V10.7258M19.75 3.37578V10.7258M19.75 3.37578C19.75 2.50593 20.4552 1.80078 21.325 1.80078H34.975C35.8448 1.80078 36.55 2.50593 36.55 3.37578M38.125 7.05078H40.225M38.125 7.05078C37.2552 7.05078 36.55 6.34563 36.55 5.47578V3.37578M38.125 7.05078C37.2552 7.05078 36.55 7.75593 36.55 8.62578V10.7258M40.225 7.05078C41.0948 7.05078 41.8 7.75593 41.8 8.62578V10.7258C41.8 11.5956 41.0948 12.3008 40.225 12.3008M36.55 3.37578V10.7258M21.325 12.3008H34.975M21.325 12.3008C20.4552 12.3008 19.75 11.5956 19.75 10.7258M21.325 12.3008C20.4552 12.3008 19.75 13.0059 19.75 13.8758M19.75 10.7258C19.75 11.5956 19.0448 12.3008 18.175 12.3008M36.55 10.7258C36.55 11.5956 35.8448 12.3008 34.975 12.3008M36.55 10.7258C36.55 11.5956 37.2552 12.3008 38.125 12.3008M34.975 12.3008C35.8448 12.3008 36.55 13.0059 36.55 13.8758M19.75 21.2258V13.8758M19.75 21.2258C19.75 22.0956 20.4552 22.8008 21.325 22.8008H34.975C35.8448 22.8008 36.55 22.0956 36.55 21.2258M19.75 21.2258V19.1258C19.75 18.2559 19.0448 17.5508 18.175 17.5508M36.55 21.2258V13.8758M36.55 21.2258V19.1258C36.55 18.2559 37.2552 17.5508 38.125 17.5508M36.55 13.8758V15.9758C36.55 16.8456 37.2552 17.5508 38.125 17.5508M36.55 13.8758C36.55 13.0059 37.2552 12.3008 38.125 12.3008M19.75 13.8758V15.9758C19.75 16.8456 19.0448 17.5508 18.175 17.5508M19.75 13.8758C19.75 13.0059 19.0448 12.3008 18.175 12.3008M16.075 12.3008H18.175M16.075 12.3008C15.2052 12.3008 14.5 13.0059 14.5 13.8758V15.9758C14.5 16.8456 15.2052 17.5508 16.075 17.5508M38.125 12.3008H40.225M40.225 12.3008C41.0948 12.3008 41.8 13.0059 41.8 13.8758V15.9758C41.8 16.8456 41.0948 17.5508 40.225 17.5508M16.075 17.5508H18.175M38.125 17.5508H40.225" stroke="black" stroke-width="2.1" stroke-linecap="round" stroke-linejoin="round"/>
<path d="M1.90039 19.3012C1.90039 18.1414 2.84059 17.2012 4.00039 17.2012H27.1004C28.2602 17.2012 29.2004 18.1414 29.2004 19.3012V36.1012C29.2004 37.261 28.2602 38.2012 27.1004 38.2012H4.00039C2.84059 38.2012 1.90039 37.261 1.90039 36.1012V19.3012Z" fill="#FAFAFA"/>
<path d="M18.7004 22.4512H18.7109V22.4617H18.7004V22.4512Z" fill="#FAFAFA"/>
<path d="M19.2254 22.4512C19.2254 22.7411 18.9903 22.9762 18.7004 22.9762C18.4104 22.9762 18.1754 22.7411 18.1754 22.4512C18.1754 22.1612 18.4104 21.9262 18.7004 21.9262C18.9903 21.9262 19.2254 22.1612 19.2254 22.4512Z" fill="#FAFAFA"/>
<path d="M1.90039 32.9512L9.12301 25.7286C10.3532 24.4984 12.3476 24.4984 13.5778 25.7286L20.8004 32.9512M18.7004 30.8512L20.673 28.8786C21.9032 27.6484 23.8976 27.6484 25.1278 28.8786L29.2004 32.9512M4.00039 38.2012H27.1004C28.2602 38.2012 29.2004 37.261 29.2004 36.1012V19.3012C29.2004 18.1414 28.2602 17.2012 27.1004 17.2012H4.00039C2.84059 17.2012 1.90039 18.1414 1.90039 19.3012V36.1012C1.90039 37.261 2.84059 38.2012 4.00039 38.2012ZM18.7004 22.4512H18.7109V22.4617H18.7004V22.4512ZM19.2254 22.4512C19.2254 22.7411 18.9903 22.9762 18.7004 22.9762C18.4104 22.9762 18.1754 22.7411 18.1754 22.4512C18.1754 22.1612 18.4104 21.9262 18.7004 21.9262C18.9903 21.9262 19.2254 22.1612 19.2254 22.4512Z" stroke="black" stroke-width="2.1" stroke-linecap="round" stroke-linejoin="round"/>
</svg>
