<svg width="24" height="24" viewBox="0 0 24 24" fill="none" xmlns="http://www.w3.org/2000/svg">
<path d="M8.01372 3.09942C10.1575 2.13894 12.5759 1.9844 14.8243 2.66485C16.7608 3.25102 18.4581 4.42367 19.6915 6.00762C19.7224 5.73153 19.753 5.39953 19.7872 4.992L19.96 2.93828C19.9948 2.52567 20.357 2.21919 20.7696 2.25371C21.1823 2.28848 21.4889 2.65151 21.4541 3.06426L21.2813 5.11797C21.221 5.8368 21.1714 6.44908 21.0674 6.9295C20.9595 7.42814 20.7716 7.8982 20.3565 8.25664C19.9365 8.61914 19.4439 8.72902 18.9385 8.74786C18.4581 8.76571 17.8634 8.70234 17.1749 8.63164L15.1299 8.42168C14.7182 8.3791 14.4187 8.01127 14.461 7.59942C14.5033 7.18754 14.8714 6.88745 15.2833 6.9295L17.3282 7.13946C17.9691 7.20526 18.41 7.24662 18.7452 7.24786C17.6876 5.74564 16.1559 4.635 14.3897 4.10039C12.4873 3.5247 10.4409 3.65498 8.627 4.46758C6.81297 5.28032 5.35337 6.72114 4.51665 8.52422C3.67997 10.3274 3.52267 12.372 4.07329 14.282C4.62397 16.1921 5.84549 17.8397 7.51372 18.9207C9.18183 20.0016 11.1842 20.4435 13.1524 20.1658C15.1206 19.8881 16.9226 18.9092 18.2266 17.409C19.5306 15.9086 20.2493 13.9876 20.25 11.9998C20.2502 11.5857 20.586 11.2498 21 11.2498C21.4141 11.25 21.7499 11.5858 21.75 11.9998C21.7492 14.3489 20.9003 16.6193 19.3594 18.3924C17.8184 20.1655 15.6886 21.3229 13.3624 21.6512C11.0363 21.9794 8.66976 21.4569 6.69829 20.1795C4.72682 18.902 3.28272 16.9553 2.63188 14.6981C1.98113 12.4409 2.16667 10.0243 3.15532 7.89336C4.14415 5.76232 5.86979 4.05997 8.01372 3.09942Z" fill="black"/>
</svg>
