<svg width="24" height="24" viewBox="0 0 24 24" fill="none" xmlns="http://www.w3.org/2000/svg">
<path d="M17.25 17.5V7C17.25 6.58579 17.5858 6.25 18 6.25C18.4142 6.25 18.75 6.58579 18.75 7V17.5C18.75 17.9142 18.4142 18.25 18 18.25C17.5858 18.25 17.25 17.9142 17.25 17.5ZM5.25 8.18848C5.25007 6.74887 6.80571 5.84629 8.05566 6.56055L15.1631 10.6221C16.4224 11.3419 16.4224 13.1581 15.1631 13.8779L8.05566 17.9395C6.80571 18.6537 5.25007 17.7511 5.25 16.3115V8.18848ZM6.75 16.3115C6.75007 16.5994 7.06156 16.7796 7.31152 16.6367L14.4189 12.5752C14.6702 12.4311 14.6702 12.0689 14.4189 11.9248L7.31152 7.86328C7.06156 7.72044 6.75007 7.9006 6.75 8.18848V16.3115Z" fill="#0F172A"/>
</svg>
