<svg width="24" height="24" viewBox="0 0 24 24" fill="none" xmlns="http://www.w3.org/2000/svg">
<path d="M7.03027 8.78221C6.88962 8.92286 6.69891 9.00194 6.5 9.00194H4.25879C3.64167 9.00204 3.17129 9.35091 3.0459 9.80565C2.85351 10.504 2.75004 11.2404 2.75 12.0019C2.75 12.7636 2.85348 13.5007 3.0459 14.1992C3.17135 14.6539 3.64174 15.0018 4.25879 15.0019H6.5C6.69881 15.0019 6.88964 15.0811 7.03027 15.2217L11.75 19.9414V4.06346L7.03027 8.78221ZM18.334 5.10838C18.6085 4.83387 19.0423 4.81656 19.3369 5.05663L19.3945 5.10838L19.7402 5.47166C23.1983 9.299 23.083 15.2078 19.3945 18.8965C19.1017 19.1893 18.6269 19.1893 18.334 18.8965C18.0411 18.6036 18.0411 18.1288 18.334 17.8359C21.455 14.7147 21.5521 9.71505 18.626 6.47655L18.334 6.16893L18.2822 6.11131C18.0422 5.81675 18.0595 5.3829 18.334 5.10838ZM15.6826 7.75975C15.9571 7.48543 16.391 7.46812 16.6855 7.70799L16.7432 7.75975L16.9561 7.98338C19.0841 10.3387 19.013 13.9752 16.7432 16.2451C16.4503 16.5379 15.9755 16.5378 15.6826 16.2451C15.3897 15.9522 15.3897 15.4774 15.6826 15.1846C17.385 13.4821 17.4379 10.7547 15.8418 8.98827L15.6826 8.8203L15.6309 8.76366C15.3905 8.46907 15.408 8.03438 15.6826 7.75975ZM13.25 19.9414C13.25 21.2777 11.6344 21.9469 10.6895 21.0019L6.18945 16.5019H4.25879C3.11766 16.5018 1.94148 15.8379 1.59961 14.5976C1.37178 13.7706 1.25 12.8995 1.25 12.0019C1.25004 11.1046 1.37181 10.2342 1.59961 9.40721C1.94143 8.16686 3.11762 7.50204 4.25879 7.50194H6.18945L10.6895 3.00194C11.6344 2.05738 13.25 2.72723 13.25 4.06346V19.9414Z" fill="black"/>
</svg>
