<svg width="24" height="24" viewBox="0 0 24 24" fill="none" xmlns="http://www.w3.org/2000/svg">
<path d="M6.98855 8.7807C6.84665 8.92135 6.65426 9.00043 6.45358 9.00043H4.19253C3.56995 9.00053 3.09541 9.3494 2.9689 9.80414C2.77481 10.5025 2.67042 11.2389 2.67038 12.0004C2.67038 12.7621 2.77478 13.4992 2.9689 14.1977C3.09546 14.6524 3.57001 15.0003 4.19253 15.0004H6.45358C6.65416 15.0004 6.84667 15.0796 6.98855 15.2202L11.7501 19.9399V4.06195L6.98855 8.7807ZM21.0514 9.22015C21.3468 8.92754 21.8259 8.92754 22.1213 9.22015C22.4168 9.51298 22.4166 9.98779 22.1213 10.2807L20.3864 12.0004L22.1213 13.7202C22.4168 14.013 22.4166 14.4878 22.1213 14.7807C21.8442 15.0554 21.4057 15.0729 21.1086 14.8325L21.0514 14.7807L19.3165 13.061L17.5815 14.7807C17.286 15.0736 16.8071 15.0736 16.5116 14.7807C16.2163 14.4878 16.2162 14.013 16.5116 13.7202L18.2465 12.0004L16.5116 10.2807L16.4594 10.2241C16.2171 9.92948 16.2346 9.49468 16.5116 9.22015C16.807 8.92754 17.2861 8.92754 17.5815 9.22015L19.3165 10.9399L21.0514 9.22015ZM13.2633 19.9399C13.2633 21.2762 11.6334 21.9454 10.6801 21.0004L6.14029 16.5004H4.19253C3.0413 16.5003 1.8547 15.8364 1.50981 14.5961C1.27996 13.7691 1.1571 12.8979 1.1571 12.0004C1.15714 11.1031 1.27999 10.2326 1.50981 9.4057C1.85465 8.16535 3.04125 7.50053 4.19253 7.50043H6.14029L10.6801 3.00043C11.6335 2.05587 13.2633 2.72572 13.2633 4.06195V19.9399Z" fill="black"/>
</svg>
