<svg width="24" height="24" viewBox="0 0 24 24" fill="none" xmlns="http://www.w3.org/2000/svg">
<path d="M19.75 10.75C19.75 9.92157 19.0784 9.25 18.25 9.25H10.75C9.92157 9.25 9.25 9.92157 9.25 10.75V18.25C9.25 19.0784 9.92157 19.75 10.75 19.75H18.25C19.0784 19.75 19.75 19.0784 19.75 18.25V10.75ZM16 6.25C16 5.42157 15.3284 4.75 14.5 4.75H6.25C5.42157 4.75 4.75 5.42157 4.75 6.25V14.5C4.75 15.3284 5.42157 16 6.25 16H7.75V10.75C7.75 9.09315 9.09315 7.75 10.75 7.75H16V6.25ZM17.5 7.75H18.25C19.9069 7.75 21.25 9.09315 21.25 10.75V18.25C21.25 19.9069 19.9069 21.25 18.25 21.25H10.75C9.09315 21.25 7.75 19.9069 7.75 18.25V17.5H6.25C4.59315 17.5 3.25 16.1569 3.25 14.5V6.25C3.25 4.59315 4.59315 3.25 6.25 3.25H14.5C16.1569 3.25 17.5 4.59315 17.5 6.25V7.75Z" fill="black"/>
</svg>
