<svg width="24" height="24" viewBox="0 0 24 24" fill="none" xmlns="http://www.w3.org/2000/svg">
<path d="M18.7644 10.3955C19.0441 10.3955 19.3062 10.448 19.5509 10.5528C19.7956 10.6577 20.0088 10.801 20.1905 10.9828C20.3723 11.1645 20.5156 11.3777 20.6205 11.6224C20.7253 11.8671 20.7778 12.1292 20.7778 12.4089V16.4355C20.7778 17.2674 20.6205 18.0504 20.3059 18.7844C19.9913 19.5184 19.5579 20.1581 19.0056 20.7034C18.4533 21.2487 17.8137 21.6786 17.0866 21.9932C16.3596 22.3077 15.5767 22.4685 14.7378 22.4755C13.7311 22.4755 12.7943 22.2833 11.9275 21.8988C11.0606 21.5143 10.2707 20.969 9.55763 20.263L4.60819 15.3135C4.41245 15.1178 4.26215 14.8906 4.15729 14.6319C4.05243 14.3733 4 14.1076 4 13.835C4 13.5414 4.05593 13.2687 4.16778 13.0171C4.27963 12.7654 4.42993 12.5417 4.61868 12.346C4.80743 12.1502 5.02764 12.0034 5.2793 11.9055C5.53097 11.8077 5.80361 11.7517 6.09722 11.7378C6.67046 11.7378 7.16331 11.944 7.57576 12.3564L8.69777 13.468V9.94464C8.28532 9.7489 7.91481 9.50422 7.58625 9.21061C7.25768 8.917 6.97805 8.58494 6.74736 8.21443C6.51666 7.84393 6.3349 7.44545 6.20208 7.01902C6.06926 6.59259 6.00634 6.15217 6.01333 5.69777C6.01333 5.04763 6.13567 4.43944 6.38034 3.87319C6.62502 3.30694 6.96057 2.8071 7.38701 2.37368C7.81344 1.94025 8.30979 1.6047 8.87604 1.36701C9.44228 1.12933 10.054 1.00699 10.7111 1C11.3612 1 11.9694 1.12234 12.5357 1.36701C13.1019 1.61169 13.6018 1.94724 14.0352 2.37368C14.4686 2.80011 14.8042 3.29646 15.0419 3.8627C15.2795 4.42895 15.4019 5.04064 15.4089 5.69777C15.4089 6.34791 15.2795 6.97008 15.0209 7.5643C14.7622 8.15851 14.3952 8.67932 13.9198 9.12673C14.1645 9.18964 14.3847 9.2945 14.5805 9.44131C14.7762 9.58811 14.9475 9.76987 15.0943 9.98659C15.4089 9.81182 15.7374 9.72443 16.08 9.72443C16.4295 9.72443 16.7546 9.80483 17.0552 9.96561C17.3558 10.1264 17.597 10.3571 17.7787 10.6577C18.0933 10.4829 18.4219 10.3955 18.7644 10.3955ZM7.35555 5.69777C7.35555 6.22208 7.47439 6.72191 7.71208 7.19728C7.94976 7.67265 8.27833 8.06763 8.69777 8.38221V5.69777C8.69777 5.41814 8.7502 5.15599 8.85506 4.91131C8.95992 4.66664 9.10323 4.45342 9.28499 4.27166C9.46675 4.0899 9.67997 3.94659 9.92464 3.84173C10.1693 3.73687 10.4315 3.68444 10.7111 3.68444C10.9907 3.68444 11.2529 3.73687 11.4976 3.84173C11.7422 3.94659 11.9555 4.0899 12.1372 4.27166C12.319 4.45342 12.4623 4.66664 12.5671 4.91131C12.672 5.15599 12.7244 5.41814 12.7244 5.69777V8.38221C13.1439 8.06763 13.4724 7.67265 13.7101 7.19728C13.9478 6.72191 14.0667 6.22208 14.0667 5.69777C14.0667 5.23638 13.9793 4.80296 13.8045 4.3975C13.6297 3.99203 13.3886 3.639 13.081 3.3384C12.7734 3.0378 12.4168 2.79662 12.0114 2.61486C11.6059 2.4331 11.1725 2.34222 10.7111 2.34222C10.2497 2.34222 9.81629 2.4296 9.41083 2.60437C9.00536 2.77914 8.64884 3.02032 8.34124 3.32791C8.03365 3.63551 7.79247 3.99203 7.6177 4.3975C7.44294 4.80296 7.35555 5.23638 7.35555 5.69777ZM19.4355 12.4089C19.4355 12.2271 19.3691 12.0698 19.2363 11.937C19.1035 11.8042 18.9462 11.7378 18.7644 11.7378C18.5267 11.7378 18.3625 11.8042 18.2716 11.937C18.1807 12.0698 18.1248 12.2341 18.1038 12.4298C18.0828 12.6256 18.0793 12.8423 18.0933 13.08C18.1073 13.3177 18.1073 13.5309 18.0933 13.7196C18.0793 13.9084 18.0234 14.0762 17.9255 14.223C17.8277 14.3698 17.6599 14.4362 17.4222 14.4222C17.1635 14.4222 16.9888 14.3418 16.8979 14.181C16.807 14.0202 16.7511 13.8105 16.7301 13.5519C16.7091 13.2932 16.7161 13.0241 16.7511 12.7444C16.786 12.4648 16.793 12.1957 16.7721 11.937C16.7511 11.6783 16.6987 11.4721 16.6148 11.3183C16.5309 11.1645 16.3526 11.0806 16.08 11.0667C15.8423 11.0667 15.678 11.1331 15.5871 11.2659C15.4963 11.3987 15.4403 11.563 15.4194 11.7587C15.3984 11.9545 15.3949 12.1712 15.4089 12.4089C15.4229 12.6466 15.4229 12.8598 15.4089 13.0485C15.3949 13.2373 15.339 13.4051 15.2411 13.5519C15.1432 13.6987 14.9754 13.7651 14.7378 13.7511C14.4791 13.7511 14.3043 13.6707 14.2135 13.5099C14.1226 13.3491 14.0667 13.1394 14.0457 12.8807C14.0247 12.6221 14.0317 12.3529 14.0667 12.0733C14.1016 11.7937 14.1086 11.5245 14.0876 11.2659C14.0667 11.0072 14.0142 10.801 13.9303 10.6472C13.8464 10.4934 13.6682 10.4095 13.3955 10.3955C13.1579 10.3955 12.9936 10.462 12.9027 10.5948C12.8118 10.7276 12.7559 10.8919 12.7349 11.0876C12.7139 11.2834 12.7105 11.5001 12.7244 11.7378C12.7384 11.9754 12.7384 12.1887 12.7244 12.3774C12.7105 12.5662 12.6545 12.7339 12.5567 12.8807C12.4588 13.0276 12.291 13.094 12.0533 13.08C11.8716 13.08 11.7143 13.0136 11.5814 12.8807C11.4486 12.7479 11.3822 12.5906 11.3822 12.4089V5.69777C11.3822 5.51601 11.3158 5.35872 11.183 5.2259C11.0502 5.09307 10.8929 5.02666 10.7111 5.02666C10.5293 5.02666 10.3721 5.09307 10.2392 5.2259C10.1064 5.35872 10.04 5.51601 10.04 5.69777V13.9503C10.04 14.1111 10.012 14.2579 9.9561 14.3907C9.90018 14.5236 9.81978 14.6459 9.71492 14.7578C9.61006 14.8696 9.48772 14.95 9.34791 14.9989C9.2081 15.0479 9.06129 15.0793 8.90749 15.0933C8.7537 15.0933 8.60689 15.0654 8.46708 15.0094C8.32726 14.9535 8.19793 14.8696 8.07909 14.7578L6.62152 13.3002C6.47472 13.1534 6.29995 13.08 6.09722 13.08C5.89449 13.08 5.71972 13.1534 5.57291 13.3002C5.42611 13.447 5.34921 13.6253 5.34222 13.835C5.34222 14.0377 5.41562 14.2125 5.56243 14.3593L10.5119 19.3192C11.0991 19.9064 11.7422 20.3538 12.4413 20.6614C13.1404 20.969 13.9059 21.1263 14.7378 21.1333C15.3879 21.1333 15.9961 21.011 16.5623 20.7663C17.1286 20.5216 17.6249 20.1861 18.0514 19.7596C18.4778 19.3332 18.8134 18.8369 19.058 18.2706C19.3027 17.7044 19.4285 17.0927 19.4355 16.4355V12.4089Z" fill="black"/>
</svg>
