<svg width="24" height="24" viewBox="0 0 24 24" fill="none" xmlns="http://www.w3.org/2000/svg">
<path d="M15.25 4.22852C15.25 3.4343 14.6413 2.80057 13.8867 2.77637C13.3434 2.75899 12.7977 2.75 12.25 2.75C11.7024 2.75 11.1567 2.75899 10.6133 2.77637C9.85873 2.80057 9.25001 3.4343 9.25001 4.22852V4.3418C10.2424 4.28153 11.2426 4.25 12.25 4.25C13.2574 4.25 14.2576 4.28153 15.25 4.3418V4.22852ZM12.25 5.75C11.0073 5.75 9.77586 5.79844 8.55763 5.89258C7.63878 5.96359 6.7275 6.06177 5.82423 6.18457L6.8379 19.3652C6.8981 20.1466 7.55025 20.75 8.334 20.75H16.166C16.9498 20.75 17.6019 20.1466 17.6621 19.3652L18.6748 6.18457C17.7719 6.06183 16.8609 5.96356 15.9424 5.89258C14.7242 5.79844 13.4927 5.75 12.25 5.75ZM9.48048 8.00098C9.89423 7.98506 10.2426 8.30703 10.2588 8.7207L10.6055 17.7207C10.6214 18.1345 10.2986 18.483 9.88478 18.499C9.47103 18.5149 9.12262 18.193 9.10646 17.7793L8.75978 8.7793C8.74386 8.3655 9.06673 8.01707 9.48048 8.00098ZM15.3936 17.7793C15.3774 18.193 15.029 18.5149 14.6152 18.499C14.2014 18.483 13.8786 18.1345 13.8945 17.7207L15.3936 17.7793ZM15.0195 8.00098C15.4333 8.01707 15.7562 8.3655 15.7402 8.7793L15.3936 17.7793L13.8945 17.7207L14.2412 8.7207C14.2574 8.30703 14.6058 7.98506 15.0195 8.00098ZM16.75 4.45605C17.7047 4.54345 18.6518 4.65716 19.5899 4.79883C19.9371 4.85127 20.2831 4.90804 20.6279 4.96777C21.036 5.03845 21.3097 5.42598 21.2393 5.83398C21.1686 6.24209 20.7802 6.51596 20.3721 6.44531C20.3023 6.43322 20.232 6.42292 20.1621 6.41113L19.1572 19.4805C19.0368 21.0433 17.7335 22.25 16.166 22.25H8.334C6.76652 22.25 5.46321 21.0433 5.34278 19.4805L4.33692 6.41113C4.26732 6.42287 4.19744 6.43327 4.12794 6.44531C3.71984 6.51596 3.33145 6.24209 3.26075 5.83398C3.19027 5.42598 3.46406 5.03845 3.87208 4.96777C4.21692 4.90804 4.56289 4.85127 4.91017 4.79883C5.84824 4.65716 6.79532 4.54345 7.75001 4.45605V4.22852C7.75001 2.66405 8.96255 1.32863 10.5654 1.27734C11.1248 1.25945 11.6864 1.25 12.25 1.25C12.8137 1.25 13.3752 1.25945 13.9346 1.27734C15.5375 1.32863 16.75 2.66405 16.75 4.22852V4.45605Z" fill="black"/>
</svg>
