<svg width="24" height="24" viewBox="0 0 24 24" fill="none" xmlns="http://www.w3.org/2000/svg">
<path d="M8.625 12C10.9405 12 12.9961 13.1056 14.2969 14.8145C15.1677 14.0003 16.3376 13.5 17.625 13.5C20.3174 13.5 22.5 15.6826 22.5 18.375C22.5 18.4432 22.4989 18.5115 22.4961 18.5791C22.4846 18.8538 22.3231 19.1006 22.0762 19.2217C20.7319 19.8806 19.2205 20.25 17.625 20.25C16.8018 20.25 16.0009 20.1508 15.2334 19.9648C13.2917 21.0987 11.0337 21.75 8.625 21.75C6.15351 21.75 3.83945 21.0662 1.86426 19.877C1.6428 19.7436 1.50537 19.5055 1.50098 19.2471C1.50029 19.2065 1.5 19.1657 1.5 19.125C1.5 15.19 4.68997 12 8.625 12ZM8.625 13.5C5.62557 13.5 3.17433 15.8476 3.00879 18.8057C4.67304 19.7258 6.58678 20.25 8.625 20.25C10.6626 20.25 12.5754 19.7253 14.2393 18.8057C14.191 17.9422 13.9502 17.1321 13.5566 16.417C12.5986 14.6766 10.7486 13.5 8.625 13.5ZM17.625 15C16.6183 15 15.7139 15.4399 15.0947 16.1406C15.4366 16.8806 15.6533 17.6885 15.7227 18.5381C16.3342 18.6757 16.9706 18.75 17.625 18.75C18.8184 18.75 19.9533 18.5074 20.9854 18.0703C20.8313 16.3492 19.3862 15 17.625 15ZM19.5 8.625C19.5 7.58947 18.6605 6.75 17.625 6.75C16.5895 6.75 15.75 7.58947 15.75 8.625C15.75 9.66053 16.5895 10.5 17.625 10.5C18.6605 10.5 19.5 9.66053 19.5 8.625ZM11.25 6.375C11.25 4.92525 10.0747 3.75 8.625 3.75C7.17525 3.75 6 4.92525 6 6.375C6 7.82475 7.17525 9 8.625 9C10.0747 9 11.25 7.82475 11.25 6.375ZM21 8.625C21 10.489 19.489 12 17.625 12C15.761 12 14.25 10.489 14.25 8.625C14.25 6.76104 15.761 5.25 17.625 5.25C19.489 5.25 21 6.76104 21 8.625ZM12.75 6.375C12.75 8.65317 10.9032 10.5 8.625 10.5C6.34683 10.5 4.5 8.65317 4.5 6.375C4.5 4.09683 6.34683 2.25 8.625 2.25C10.9032 2.25 12.75 4.09683 12.75 6.375Z" fill="#0F172A"/>
</svg>
