<svg width="14" height="14" viewBox="0 0 14 14" fill="none" xmlns="http://www.w3.org/2000/svg">
<path d="M12.4697 0.469727C12.7626 0.176834 13.2373 0.176834 13.5302 0.469727C13.8231 0.76262 13.8231 1.23738 13.5302 1.53027L8.06049 7L13.5302 12.4697L13.582 12.5264C13.8223 12.8209 13.8048 13.2557 13.5302 13.5303C13.2556 13.8049 12.8209 13.8223 12.5263 13.582L12.4697 13.5303L6.99994 8.06055L1.53022 13.5303C1.23732 13.8232 0.762563 13.8232 0.46967 13.5303C0.176777 13.2374 0.176777 12.7626 0.46967 12.4697L5.9394 7L0.46967 1.53027C0.176777 1.23738 0.176777 0.76262 0.46967 0.469727C0.762563 0.176833 1.23732 0.176833 1.53022 0.469727L6.99994 5.93945L12.4697 0.469727Z" fill="black"/>
</svg>
