<svg width="20" height="20" viewBox="0 0 20 20" fill="none" xmlns="http://www.w3.org/2000/svg">
<path d="M4.16667 9.16667C3.70833 9.16667 3.31583 9.00333 2.98917 8.67667C2.66306 8.35056 2.5 7.95833 2.5 7.5V4.16667C2.5 3.70833 2.66306 3.31583 2.98917 2.98917C3.31583 2.66306 3.70833 2.5 4.16667 2.5H15.8333C16.2917 2.5 16.6842 2.66306 17.0108 2.98917C17.3369 3.31583 17.5 3.70833 17.5 4.16667V7.5C17.5 7.95833 17.3369 8.35056 17.0108 8.67667C16.6842 9.00333 16.2917 9.16667 15.8333 9.16667H4.16667ZM4.16667 7.5H15.8333V4.16667H4.16667V7.5Z" fill="black"/>
<path d="M17.5 12.5003C17.5 12.9587 17.0179 13.3337 16.4286 13.3337H10H3.57143C2.98214 13.3337 2.5 12.9587 2.5 12.5003C2.5 12.042 2.98214 11.667 3.57143 11.667H16.4286C17.0179 11.667 17.5 12.042 17.5 12.5003Z" fill="black"/>
<path d="M17.5 16.6663C17.5 17.1247 17.0179 17.4997 16.4286 17.4997H10H3.57143C2.98214 17.4997 2.5 17.1247 2.5 16.6663C2.5 16.208 2.98214 15.833 3.57143 15.833H16.4286C17.0179 15.833 17.5 16.208 17.5 16.6663Z" fill="black"/>
</svg>
