<svg width="24" height="24" viewBox="0 0 24 24" fill="none" xmlns="http://www.w3.org/2000/svg">
<path fill-rule="evenodd" clip-rule="evenodd" d="M7.50183 6.5H11.2477L11.25 6.5H14.6299C16.4915 6.50268 17.9999 8.01269 17.9999 9.875V19.25C19.6567 19.25 20.9999 17.9068 20.9999 16.25V6.60821C20.9999 5.10282 19.8751 3.7966 18.3358 3.66884C18.1121 3.65027 17.8879 3.63321 17.6632 3.61767C17.1633 2.65647 16.1583 2 15 2H13.5C12.3417 2 11.3367 2.65647 10.8368 3.61765C10.6121 3.63319 10.3878 3.65026 10.1639 3.66884C8.66165 3.79353 7.55421 5.04069 7.50183 6.5ZM13.5 3.5C12.6716 3.5 12 4.17157 12 5H16.5C16.5 4.17157 15.8284 3.5 15 3.5H13.5Z" fill="black"/>
<path fill-rule="evenodd" clip-rule="evenodd" d="M3 9.875C3 8.83947 3.83947 8 4.875 8H14.625C15.6605 8 16.5 8.83947 16.5 9.875V21.125C16.5 22.1605 15.6605 23 14.625 23H4.875C3.83947 23 3 22.1605 3 21.125V9.875ZM12.5857 14.4685C12.8444 14.1451 12.792 13.6731 12.4685 13.4143C12.1451 13.1556 11.6731 13.208 11.4143 13.5315L8.93781 16.6272L8.03033 15.7197C7.73744 15.4268 7.26256 15.4268 6.96967 15.7197C6.67678 16.0126 6.67678 16.4874 6.96967 16.7803L8.46967 18.2803C8.62052 18.4312 8.82847 18.5106 9.04148 18.4989C9.25448 18.4871 9.45238 18.3851 9.58565 18.2185L12.5857 14.4685Z" fill="black"/>
</svg>
