<svg width="16" height="16" viewBox="0 0 16 16" fill="none" xmlns="http://www.w3.org/2000/svg">
<path d="M14.4421 5.28751C14.0915 4.45084 13.5815 3.69036 12.9405 3.04845C12.3014 2.40544 11.5423 1.8942 10.7061 1.54376C9.8496 1.18303 8.9293 0.998117 7.99989 1.00001H7.96864C7.02333 1.0047 6.10927 1.1922 5.24833 1.56095C4.41938 1.91498 3.66735 2.42713 3.03427 3.06876C2.39947 3.70922 1.89532 4.46705 1.54989 5.30001C1.19133 6.16621 1.00964 7.09537 1.01552 8.03283C1.02021 9.1172 1.27958 10.1938 1.76396 11.1563V13.5313C1.76396 13.9281 2.08583 14.25 2.48114 14.25H4.85302C5.82001 14.738 6.88709 14.9947 7.97021 15H8.00302C8.93739 15 9.84208 14.8188 10.6952 14.4641C11.5271 14.1178 12.2834 13.6125 12.9218 12.9766C13.5655 12.3375 14.0718 11.5906 14.4265 10.7578C14.7936 9.89533 14.9811 8.97814 14.9858 8.03126C14.989 7.0797 14.8046 6.15626 14.4421 5.28751ZM4.88114 8.75001C4.46864 8.75001 4.13271 8.41408 4.13271 8.00001C4.13271 7.58595 4.46864 7.25001 4.88114 7.25001C5.29364 7.25001 5.62958 7.58595 5.62958 8.00001C5.62958 8.41408 5.29521 8.75001 4.88114 8.75001ZM7.99989 8.75001C7.58739 8.75001 7.25146 8.41408 7.25146 8.00001C7.25146 7.58595 7.58739 7.25001 7.99989 7.25001C8.41239 7.25001 8.74833 7.58595 8.74833 8.00001C8.74833 8.41408 8.41239 8.75001 7.99989 8.75001ZM11.1186 8.75001C10.7061 8.75001 10.3702 8.41408 10.3702 8.00001C10.3702 7.58595 10.7061 7.25001 11.1186 7.25001C11.5311 7.25001 11.8671 7.58595 11.8671 8.00001C11.8671 8.41408 11.5311 8.75001 11.1186 8.75001Z" fill="white"/>
</svg>
