<svg width="24" height="24" viewBox="0 0 24 24" fill="none" xmlns="http://www.w3.org/2000/svg">
<path d="M12.0238 21.4762C10.7064 21.4762 9.46826 21.2262 8.30952 20.7262C7.15079 20.2262 6.14286 19.5476 5.28571 18.6905C4.42857 17.8333 3.75 16.8254 3.25 15.6667C2.75 14.5079 2.5 13.2698 2.5 11.9524C2.5 10.6349 2.75 9.39682 3.25 8.23809C3.75 7.07936 4.42857 6.07142 5.28571 5.21428C6.14286 4.35714 7.15079 3.67856 8.30952 3.17856C9.46826 2.67856 10.7064 2.42856 12.0238 2.42856C12.7064 2.42856 13.3651 2.49602 14 2.63095C14.4392 2.72428 14.8671 2.8461 15.2835 2.99641C15.6212 3.11831 15.8333 3.44674 15.8333 3.80581C15.8333 4.49706 15.0744 4.94554 14.4191 4.72571C14.293 4.68345 14.1653 4.64392 14.0357 4.60714C13.3929 4.4246 12.7222 4.33333 12.0238 4.33333C9.9127 4.33333 8.11508 5.07539 6.63095 6.55952C5.14683 8.04364 4.40476 9.84126 4.40476 11.9524C4.40476 14.0635 5.14683 15.8611 6.63095 17.3452C8.11508 18.8294 9.9127 19.5714 12.0238 19.5714C14.1349 19.5714 15.9325 18.8294 17.4167 17.3452C18.9008 15.8611 19.6429 14.0635 19.6429 11.9524C19.6429 11.4444 19.5913 10.9524 19.4881 10.4762C19.4824 10.4498 19.4766 10.4235 19.4706 10.3973C19.3264 9.75851 19.7798 9.09523 20.4346 9.09523C20.8416 9.09523 21.2059 9.35922 21.2988 9.7555C21.3558 9.99861 21.4031 10.2428 21.4405 10.4881C21.5119 10.9563 21.5476 11.4444 21.5476 11.9524C21.5476 13.2698 21.2976 14.5079 20.7976 15.6667C20.2976 16.8254 19.6191 17.8333 18.7619 18.6905C17.9048 19.5476 16.8968 20.2262 15.7381 20.7262C14.5794 21.2262 13.3413 21.4762 12.0238 21.4762ZM15.3571 11C15.754 11 16.0913 10.8611 16.369 10.5833C16.6468 10.3055 16.7857 9.96825 16.7857 9.57142C16.7857 9.1746 16.6468 8.8373 16.369 8.55952C16.0913 8.28174 15.754 8.14285 15.3571 8.14285C14.9603 8.14285 14.623 8.28174 14.3452 8.55952C14.0675 8.8373 13.9286 9.1746 13.9286 9.57142C13.9286 9.96825 14.0675 10.3055 14.3452 10.5833C14.623 10.8611 14.9603 11 15.3571 11ZM8.69048 11C9.0873 11 9.4246 10.8611 9.70238 10.5833C9.98016 10.3055 10.119 9.96825 10.119 9.57142C10.119 9.1746 9.98016 8.8373 9.70238 8.55952C9.4246 8.28174 9.0873 8.14285 8.69048 8.14285C8.29365 8.14285 7.95635 8.28174 7.67857 8.55952C7.40079 8.8373 7.26191 9.1746 7.26191 9.57142C7.26191 9.96825 7.40079 10.3055 7.67857 10.5833C7.95635 10.8611 8.29365 11 8.69048 11ZM12.0238 17.1905C13.1032 17.1905 14.0833 16.8849 14.9643 16.2738C15.8452 15.6627 16.4841 14.8571 16.881 13.8571H7.16667C7.56349 14.8571 8.20238 15.6627 9.08333 16.2738C9.96429 16.8849 10.9444 17.1905 12.0238 17.1905Z" fill="black"/>
<path d="M19.3421 2.42856C19.7781 2.42856 20.1316 2.78202 20.1316 3.21804V4.79699H21.7105C22.1465 4.79699 22.5 5.15044 22.5 5.58646C22.5 6.02247 22.1465 6.37593 21.7105 6.37593H20.1316V7.95488C20.1316 8.39089 19.7781 8.74435 19.3421 8.74435C18.9061 8.74435 18.5526 8.39089 18.5526 7.95488V6.37593H16.9737C16.5377 6.37593 16.1842 6.02247 16.1842 5.58646C16.1842 5.15044 16.5377 4.79699 16.9737 4.79699H18.5526V3.21804C18.5526 2.78202 18.9061 2.42856 19.3421 2.42856Z" fill="black"/>
</svg>
