<svg width="27" height="28" viewBox="0 0 27 28" fill="none" xmlns="http://www.w3.org/2000/svg">
<path fill-rule="evenodd" clip-rule="evenodd" d="M21.6668 16.6666C24.6123 16.6666 27.0001 19.0545 27.0002 22C27.0002 24.9455 24.6123 27.3333 21.6668 27.3333C18.7213 27.3333 16.3335 24.9455 16.3335 22C16.3335 19.0545 18.7213 16.6666 21.6668 16.6666ZM21.6668 23.6406C21.4404 23.6406 21.257 23.8244 21.2567 24.0507C21.2567 24.2773 21.4403 24.4609 21.6668 24.4609C21.8934 24.4609 22.077 24.2773 22.077 24.0507C22.0767 23.8244 21.8932 23.6406 21.6668 23.6406ZM21.6668 19.9492C21.4403 19.9492 21.2567 20.1328 21.2567 20.3593V22.4101C21.2567 22.6367 21.4403 22.8203 21.6668 22.8203C21.8934 22.8203 22.077 22.6367 22.077 22.4101V20.3593C22.077 20.1328 21.8934 19.9492 21.6668 19.9492Z" fill="#9E9E9E"/>
<path d="M11.2424 19.8737H13.4246V11.3711H23.2424V15.5208C22.7372 15.3984 22.2096 15.3333 21.6668 15.3333C17.985 15.3333 15.0002 18.3181 15.0002 22H3.60563C3.02737 21.9998 2.47296 21.7759 2.06396 21.3776C1.65481 20.9789 1.42464 20.4375 1.42464 19.8737V11.3711H11.2424V19.8737Z" fill="#9E9E9E"/>
<path fill-rule="evenodd" clip-rule="evenodd" d="M9.12647 0.66667C10.0753 0.677365 11.0239 1.09212 11.7111 2.03776L12.3335 2.86719L12.9559 2.05859C15.1707 -0.937807 19.9691 1.51795 18.6929 4.99349H22.1512C22.7298 4.99349 23.285 5.21721 23.6942 5.61588C24.1033 6.01447 24.3334 6.5548 24.3335 7.11848V9.24478C24.3335 9.52648 24.2188 9.7968 24.0145 9.99608C23.8099 10.1954 23.5317 10.3073 23.2424 10.3073H13.4246V7.11848H11.2424V10.3073H1.42464C1.13531 10.3073 0.857092 10.1954 0.652507 9.99608C0.44819 9.7968 0.333517 9.52648 0.333496 9.24478V7.11848C0.333599 6.5548 0.56374 6.01447 0.972819 5.61588C1.38199 5.21721 1.93714 4.99349 2.51579 4.99349H5.97412C5.05779 2.59125 7.06466 0.65604 9.12647 0.66667ZM9.06136 2.86719C8.77204 2.86719 8.49381 2.97906 8.28923 3.17838C8.08478 3.37764 7.97031 3.64794 7.97022 3.92969C7.97022 4.87553 9.14747 5.35401 9.8348 4.68489C10.5219 4.01537 10.0319 2.86765 9.06136 2.86719ZM15.6056 2.86719C15.3165 2.86734 15.0392 2.97919 14.8348 3.17838C14.6303 3.37764 14.5159 3.64791 14.5158 3.92969C14.5158 4.87556 15.6931 5.3541 16.3804 4.68489C17.0676 4.01524 16.5765 2.86719 15.6056 2.86719Z" fill="#9E9E9E"/>
</svg>
