<svg width="24" height="25" viewBox="0 0 24 25" fill="none" xmlns="http://www.w3.org/2000/svg">
<path d="M18.7644 11.0205C19.0441 11.0205 19.3062 11.073 19.5509 11.1778C19.7956 11.2827 20.0088 11.426 20.1905 11.6078C20.3723 11.7895 20.5156 12.0027 20.6205 12.2474C20.7253 12.4921 20.7778 12.7542 20.7778 13.0339V17.0605C20.7778 17.8924 20.6205 18.6754 20.3059 19.4094C19.9913 20.1434 19.5579 20.7831 19.0056 21.3284C18.4533 21.8737 17.8137 22.3036 17.0866 22.6182C16.3596 22.9327 15.5767 23.0935 14.7378 23.1005C13.7311 23.1005 12.7943 22.9083 11.9275 22.5238C11.0606 22.1393 10.2707 21.594 9.55763 20.888L4.60819 15.9385C4.41245 15.7428 4.26215 15.5156 4.15729 15.2569C4.05243 14.9983 4 14.7326 4 14.46C4 14.1664 4.05593 13.8937 4.16778 13.6421C4.27963 13.3904 4.42993 13.1667 4.61868 12.971C4.80743 12.7752 5.02764 12.6284 5.2793 12.5305C5.53097 12.4327 5.80361 12.3767 6.09722 12.3628C6.67046 12.3628 7.16331 12.569 7.57576 12.9814L8.69777 14.093V10.5696C8.28532 10.3739 7.91481 10.1292 7.58625 9.83561C7.25768 9.542 6.97805 9.20994 6.74736 8.83943C6.51666 8.46893 6.3349 8.07045 6.20208 7.64402C6.06926 7.21759 6.00634 6.77717 6.01333 6.32277C6.01333 5.67263 6.13567 5.06444 6.38034 4.49819C6.62502 3.93194 6.96057 3.4321 7.38701 2.99868C7.81344 2.56525 8.30979 2.2297 8.87604 1.99201C9.44228 1.75433 10.054 1.63199 10.7111 1.625C11.3612 1.625 11.9694 1.74734 12.5357 1.99201C13.1019 2.23669 13.6018 2.57224 14.0352 2.99868C14.4686 3.42511 14.8042 3.92146 15.0419 4.4877C15.2795 5.05395 15.4019 5.66564 15.4089 6.32277C15.4089 6.97291 15.2795 7.59508 15.0209 8.1893C14.7622 8.78351 14.3952 9.30432 13.9198 9.75173C14.1645 9.81464 14.3847 9.9195 14.5805 10.0663C14.7762 10.2131 14.9475 10.3949 15.0943 10.6116C15.4089 10.4368 15.7374 10.3494 16.08 10.3494C16.4295 10.3494 16.7546 10.4298 17.0552 10.5906C17.3558 10.7514 17.597 10.9821 17.7787 11.2827C18.0933 11.1079 18.4219 11.0205 18.7644 11.0205ZM7.35555 6.32277C7.35555 6.84708 7.47439 7.34691 7.71208 7.82228C7.94976 8.29765 8.27833 8.69263 8.69777 9.00721V6.32277C8.69777 6.04314 8.7502 5.78099 8.85506 5.53631C8.95992 5.29164 9.10323 5.07842 9.28499 4.89666C9.46675 4.7149 9.67997 4.57159 9.92464 4.46673C10.1693 4.36187 10.4315 4.30944 10.7111 4.30944C10.9907 4.30944 11.2529 4.36187 11.4976 4.46673C11.7422 4.57159 11.9555 4.7149 12.1372 4.89666C12.319 5.07842 12.4623 5.29164 12.5671 5.53631C12.672 5.78099 12.7244 6.04314 12.7244 6.32277V9.00721C13.1439 8.69263 13.4724 8.29765 13.7101 7.82228C13.9478 7.34691 14.0667 6.84708 14.0667 6.32277C14.0667 5.86138 13.9793 5.42796 13.8045 5.0225C13.6297 4.61703 13.3886 4.264 13.081 3.9634C12.7734 3.6628 12.4168 3.42162 12.0114 3.23986C11.6059 3.0581 11.1725 2.96722 10.7111 2.96722C10.2497 2.96722 9.81629 3.0546 9.41083 3.22937C9.00536 3.40414 8.64884 3.64532 8.34124 3.95291C8.03365 4.26051 7.79247 4.61703 7.6177 5.0225C7.44294 5.42796 7.35555 5.86138 7.35555 6.32277ZM19.4355 13.0339C19.4355 12.8521 19.3691 12.6948 19.2363 12.562C19.1035 12.4292 18.9462 12.3628 18.7644 12.3628C18.5267 12.3628 18.3625 12.4292 18.2716 12.562C18.1807 12.6948 18.1248 12.8591 18.1038 13.0548C18.0828 13.2506 18.0793 13.4673 18.0933 13.705C18.1073 13.9427 18.1073 14.1559 18.0933 14.3446C18.0793 14.5334 18.0234 14.7012 17.9255 14.848C17.8277 14.9948 17.6599 15.0612 17.4222 15.0472C17.1635 15.0472 16.9888 14.9668 16.8979 14.806C16.807 14.6452 16.7511 14.4355 16.7301 14.1769C16.7091 13.9182 16.7161 13.6491 16.7511 13.3694C16.786 13.0898 16.793 12.8207 16.7721 12.562C16.7511 12.3033 16.6987 12.0971 16.6148 11.9433C16.5309 11.7895 16.3526 11.7056 16.08 11.6917C15.8423 11.6917 15.678 11.7581 15.5871 11.8909C15.4963 12.0237 15.4403 12.188 15.4194 12.3837C15.3984 12.5795 15.3949 12.7962 15.4089 13.0339C15.4229 13.2716 15.4229 13.4848 15.4089 13.6735C15.3949 13.8623 15.339 14.0301 15.2411 14.1769C15.1432 14.3237 14.9754 14.3901 14.7378 14.3761C14.4791 14.3761 14.3043 14.2957 14.2135 14.1349C14.1226 13.9741 14.0667 13.7644 14.0457 13.5057C14.0247 13.2471 14.0317 12.9779 14.0667 12.6983C14.1016 12.4187 14.1086 12.1495 14.0876 11.8909C14.0667 11.6322 14.0142 11.426 13.9303 11.2722C13.8464 11.1184 13.6682 11.0345 13.3955 11.0205C13.1579 11.0205 12.9936 11.087 12.9027 11.2198C12.8118 11.3526 12.7559 11.5169 12.7349 11.7126C12.7139 11.9084 12.7105 12.1251 12.7244 12.3628C12.7384 12.6004 12.7384 12.8137 12.7244 13.0024C12.7105 13.1912 12.6545 13.3589 12.5567 13.5057C12.4588 13.6526 12.291 13.719 12.0533 13.705C11.8716 13.705 11.7143 13.6386 11.5814 13.5057C11.4486 13.3729 11.3822 13.2156 11.3822 13.0339V6.32277C11.3822 6.14101 11.3158 5.98372 11.183 5.8509C11.0502 5.71807 10.8929 5.65166 10.7111 5.65166C10.5293 5.65166 10.3721 5.71807 10.2392 5.8509C10.1064 5.98372 10.04 6.14101 10.04 6.32277V14.5753C10.04 14.7361 10.012 14.8829 9.9561 15.0157C9.90018 15.1486 9.81978 15.2709 9.71492 15.3828C9.61006 15.4946 9.48772 15.575 9.34791 15.6239C9.2081 15.6729 9.06129 15.7043 8.90749 15.7183C8.7537 15.7183 8.60689 15.6904 8.46708 15.6344C8.32726 15.5785 8.19793 15.4946 8.07909 15.3828L6.62152 13.9252C6.47472 13.7784 6.29995 13.705 6.09722 13.705C5.89449 13.705 5.71972 13.7784 5.57291 13.9252C5.42611 14.072 5.34921 14.2503 5.34222 14.46C5.34222 14.6627 5.41562 14.8375 5.56243 14.9843L10.5119 19.9442C11.0991 20.5314 11.7422 20.9788 12.4413 21.2864C13.1404 21.594 13.9059 21.7513 14.7378 21.7583C15.3879 21.7583 15.9961 21.636 16.5623 21.3913C17.1286 21.1466 17.6249 20.8111 18.0514 20.3846C18.4778 19.9582 18.8134 19.4619 19.058 18.8956C19.3027 18.3294 19.4285 17.7177 19.4355 17.0605V13.0339Z" fill="white"/>
</svg>
