<svg width="643" height="397" viewBox="0 0 643 397" fill="none" xmlns="http://www.w3.org/2000/svg">
<rect width="643" height="397" rx="15" fill="#FEF7EF"/>
<path d="M117 324.897C117 326.567 119.22 328.18 122.927 329.621C124.863 330.376 127.279 330.948 130.066 331.612C132.247 332.127 134.633 332.882 137.264 333.339C139.542 333.728 141.987 333.991 144.569 334.323C146.897 334.632 149.342 334.861 151.894 335.112C154.251 335.353 156.706 335.444 159.229 335.627C161.606 335.81 164.051 336.165 166.564 336.302C169.077 336.439 171.415 336.394 173.918 336.485C176.422 336.577 178.779 336.783 181.273 336.828C183.767 336.874 186.143 337 188.627 337C191.111 337 193.556 336.691 195.972 336.657C198.387 336.622 200.92 336.691 203.326 336.611C205.732 336.531 208.285 336.485 210.681 336.359C213.077 336.234 215.639 335.959 218.015 335.776C220.539 335.581 223.003 335.604 225.36 335.364C227.903 335.112 230.348 334.769 232.675 334.46C235.257 334.117 237.643 333.374 239.922 332.973C242.563 332.516 244.959 331.932 247.14 331.417C249.927 330.754 252.284 330.056 254.22 329.301C257.917 327.86 260 326.556 260 324.885C260 323.215 258.073 321.339 254.377 319.898C252.44 319.143 249.986 318.628 247.198 317.964C245.017 317.45 242.563 317.164 239.932 316.706C237.653 316.317 235.238 315.848 232.656 315.516C230.328 315.208 227.903 314.716 225.36 314.464C223.003 314.224 220.539 314.338 218.015 314.144C215.639 313.961 213.204 313.434 210.69 313.297C208.177 313.16 205.84 313.183 203.336 313.091C200.832 313 198.466 313.286 195.982 313.24C193.497 313.194 191.111 313.194 188.627 313.194C186.143 313.194 183.688 312.977 181.273 313.023C178.857 313.068 176.324 312.954 173.918 313.023C171.513 313.091 168.96 313.16 166.564 313.286C164.168 313.411 161.625 314.109 159.249 314.292C156.725 314.487 154.271 314.578 151.914 314.819C149.371 315.07 146.916 315.242 144.589 315.539C142.007 315.882 139.552 316.043 137.273 316.432C134.633 316.889 132.178 317.244 130.007 317.759C127.22 318.422 124.804 319.131 122.868 319.886C119.152 321.362 117 323.238 117 324.897Z" fill="#F0E1DA"/>
<path d="M371 324.897C371 326.567 373.22 328.18 376.927 329.621C378.863 330.376 381.279 330.948 384.066 331.612C386.247 332.127 388.633 332.882 391.264 333.339C393.542 333.728 395.987 333.991 398.569 334.323C400.897 334.632 403.342 334.861 405.894 335.112C408.251 335.353 410.706 335.444 413.229 335.627C415.606 335.81 418.051 336.165 420.564 336.302C423.077 336.439 425.415 336.394 427.918 336.485C430.422 336.577 432.779 336.783 435.273 336.828C437.767 336.874 440.143 337 442.627 337C445.111 337 447.556 336.691 449.972 336.657C452.387 336.622 454.92 336.691 457.326 336.611C459.732 336.531 462.285 336.485 464.681 336.359C467.077 336.234 469.639 335.959 472.015 335.776C474.539 335.581 477.003 335.604 479.36 335.364C481.903 335.112 484.348 334.769 486.675 334.46C489.257 334.117 491.643 333.374 493.922 332.973C496.563 332.516 498.959 331.932 501.14 331.417C503.927 330.754 506.284 330.056 508.22 329.301C511.917 327.86 514 326.556 514 324.885C514 323.215 512.073 321.339 508.377 319.898C506.44 319.143 503.986 318.628 501.198 317.964C499.017 317.45 496.563 317.164 493.932 316.706C491.653 316.317 489.238 315.848 486.656 315.516C484.328 315.208 481.903 314.716 479.36 314.464C477.003 314.224 474.539 314.338 472.015 314.144C469.639 313.961 467.204 313.434 464.69 313.297C462.177 313.16 459.84 313.183 457.336 313.091C454.832 313 452.466 313.286 449.982 313.24C447.497 313.194 445.111 313.194 442.627 313.194C440.143 313.194 437.688 312.977 435.273 313.023C432.857 313.068 430.324 312.954 427.918 313.023C425.513 313.091 422.96 313.16 420.564 313.286C418.168 313.411 415.625 314.109 413.249 314.292C410.725 314.487 408.271 314.578 405.914 314.819C403.371 315.07 400.916 315.242 398.589 315.539C396.007 315.882 393.552 316.043 391.273 316.432C388.633 316.889 386.178 317.244 384.007 317.759C381.22 318.422 378.804 319.131 376.868 319.886C373.152 321.362 371 323.238 371 324.897Z" fill="#F0E1DA"/>
<path d="M263.331 246.308C263.871 243.344 263.444 240.431 262.109 237.782C260.866 235.327 258.829 233.3 255.977 231.752C253.909 230.631 251.862 229.399 249.58 228.808C247.298 228.217 244.904 228.125 242.602 227.718C240.127 227.28 237.641 226.852 235.176 226.383C232.701 225.915 230.246 225.406 227.77 224.957C225.295 224.509 222.85 223.888 220.375 223.501C217.9 223.114 215.404 222.665 212.908 222.401C210.413 222.136 207.866 222.462 205.36 222.36C202.854 222.258 200.359 222.003 197.843 222.115C195.276 222.217 192.719 222.095 190.172 222.003C187.615 221.922 185.059 221.881 182.502 221.728C179.945 221.575 177.388 221.647 174.831 221.565C172.274 221.484 169.728 221.036 167.161 221.148C164.594 221.26 162.078 221.555 159.521 221.983C157.28 222.36 155.059 222.971 152.828 223.48C150.587 224 148.275 224.316 146.167 225.141C144.058 225.966 142.102 227.249 140.228 228.584C138.394 229.877 136.601 231.416 135.287 233.29C133.953 235.185 132.873 237.324 132.384 239.514C131.885 241.745 132.048 244.118 132.761 246.339C133.545 248.794 135.257 250.76 137.213 252.451C139.168 254.142 141.43 255.242 143.834 256.046C146.095 256.81 148.357 257.585 150.74 258.002C153.124 258.42 155.457 258.776 157.881 258.95C160.305 259.123 162.679 258.878 165.093 258.919C167.507 258.96 169.901 259.316 172.305 259.296C174.709 259.276 177.144 258.919 179.507 258.929C181.87 258.939 184.376 258.96 186.719 259.113C189.123 259.265 191.558 259.999 194.084 260.294C196.61 260.59 198.963 260.926 201.449 261.282C203.934 261.639 206.369 261.771 208.844 262.118C211.319 262.464 213.754 262.861 216.219 263.146C218.684 263.432 221.17 263.778 223.625 263.941C226.08 264.104 228.626 264.206 231.071 264.185C233.516 264.165 236.093 264.053 238.517 263.758C240.942 263.462 243.498 263.004 245.851 262.321C248.408 261.588 250.996 260.61 253.339 259.327C255.702 258.033 257.912 256.362 259.695 254.356C261.814 251.962 262.843 249.059 263.352 246.308H263.331Z" fill="#FCFCFC"/>
<path d="M159.684 280.881C158.635 282.409 156.964 284.314 155.334 286.606C154.02 288.46 152.686 290.517 151.26 292.524C149.844 294.531 148.489 296.588 147.195 298.453C145.596 300.765 144.404 302.986 143.406 304.554C143.264 304.778 142.724 304.901 142.754 305.165C142.785 305.451 143.172 305.654 143.396 305.838C144.914 307.091 146.36 308.415 147.878 309.658C149.396 310.9 150.863 312.214 152.38 313.457C153.745 314.568 155.365 315.403 156.73 316.472C157.27 316.9 158.482 318.51 159.144 318.52C159.633 318.52 159.908 317.766 160.244 317.41C161.813 315.8 163.351 314.201 164.849 312.54C166.346 310.88 168.017 309.372 169.453 307.661C170.889 305.95 172.173 304.116 173.578 302.374C174.984 300.643 176.349 298.87 177.745 297.118" fill="#FFE6D9"/>
<path d="M161.284 316.422C160.927 316.065 160.398 315.862 159.98 315.576C158.839 314.792 157.566 314.201 156.425 313.417C154.642 312.205 152.911 310.931 151.118 309.75C149.325 308.568 147.573 307.315 145.729 306.205C143.478 304.84 140.982 303.465 138.456 303.791C136.826 304.005 135.217 304.962 135.369 306.806C135.482 308.161 136.602 309.383 137.621 310.28C139.291 311.736 141.298 312.836 143.152 314.15C144.975 315.444 146.839 316.707 148.734 317.909C150.649 319.121 152.442 320.507 154.316 321.678C155.131 322.188 156.079 322.564 157.138 322.463C158.941 322.289 162.893 319.478 161.915 317.318C161.773 316.992 161.539 316.666 161.284 316.412V316.422Z" fill="#828282"/>
<path d="M222.86 291.516C223.023 293.359 223.156 295.875 223.441 298.677C223.675 300.928 223.655 303.403 223.909 305.848C224.164 308.293 224.368 310.748 224.572 312.999C224.836 315.8 225.244 318.286 225.346 320.14C225.356 320.405 225.57 320.843 225.417 321.056C225.244 321.281 224.755 321.311 224.48 321.362C222.544 321.708 220.568 321.79 218.633 322.126C216.697 322.462 214.782 322.88 212.837 323.206C211.105 323.501 209.333 323.756 207.621 324.011C206.939 324.112 205.146 324.764 204.565 324.449C204.138 324.214 203.913 323.603 203.791 323.134C203.221 320.965 202.823 318.754 202.345 316.585C201.866 314.394 201.458 312.204 201.041 310.004C200.623 307.804 199.93 305.665 199.564 303.454C199.197 301.254 199.217 298.982 198.871 296.772" fill="#FFE6D9"/>
<path d="M203.649 321.638C204.138 321.505 204.719 321.709 205.228 321.668C206.614 321.546 207.958 321.108 209.344 320.986C211.493 320.802 213.642 320.629 215.781 320.476C217.921 320.323 220.09 320.334 222.24 320.262C224.868 320.181 227.873 320.201 229.92 321.729C231.234 322.707 231.968 324.52 230.929 326.048C230.165 327.179 228.545 327.281 227.211 327.556C225.041 328.004 222.861 328.656 220.61 328.89C218.359 329.125 216.128 329.318 213.887 329.43C211.646 329.542 209.354 329.359 207.143 329.461C206.176 329.501 205.31 329.43 204.444 328.819C202.957 327.78 200.736 323.553 202.651 322.147C202.936 321.933 203.303 321.719 203.649 321.627V321.638Z" fill="#828282"/>
<path d="M221.892 276.552C223.003 273.608 220.986 268.637 220.945 265.938C220.914 263.748 220.599 261.568 220.619 259.378C220.639 257.188 220.996 255.008 221.037 252.818C221.077 250.628 220.782 248.437 220.802 246.247C220.823 244.027 221.006 241.256 221.159 238.465C221.301 235.765 221.403 233.086 220.751 230.794C220.048 228.329 218.806 226.098 216.106 225.212C214.028 224.53 211.757 224.662 209.556 224.825C207.356 224.988 205.227 225.182 203.108 224.713C200.226 224.071 197.679 223.053 194.684 222.645C192.84 222.401 190.762 221.81 188.582 221.728C186.535 221.657 184.416 221.759 182.42 222.105C180.301 222.472 178.314 223.246 176.664 224.387C175.014 225.528 173.659 227.209 172.895 229.491C172.172 231.65 171.255 233.749 170.542 235.918C169.839 238.088 169.534 240.41 168.831 242.59C168.138 244.77 167.191 246.848 166.508 249.028C165.826 251.208 165.082 253.368 164.4 255.548C163.809 257.452 162.984 259.643 162.22 261.741C161.364 264.074 160.549 266.366 160.875 268.189C161.201 270.012 162.668 271.133 165.622 271.693C167.731 272.09 169.849 272.427 171.968 272.773C174.087 273.119 176.185 273.588 178.314 273.883C180.443 274.179 182.542 274.637 184.681 274.902C186.82 275.167 188.949 275.37 191.078 275.615C193.207 275.859 195.316 276.348 197.455 276.572C199.594 276.807 201.754 276.674 203.893 276.909C206.032 277.143 208.151 277.428 210.28 277.683C212.409 277.937 214.558 278.09 216.677 278.365C217.92 278.528 219.142 278.589 220.222 277.887C220.874 277.469 221.648 277.214 221.902 276.532L221.892 276.552Z" fill="#FCFCFC"/>
<path d="M147.105 294.908C148.225 292.851 149.651 290.986 150.782 288.959C151.923 286.922 152.565 284.64 153.563 282.542C154.561 280.443 155.6 278.386 156.324 276.155C156.935 274.26 157.923 272.498 158.666 270.644C159.41 268.79 160.062 266.895 160.785 265.042C161.641 262.841 162.232 260.6 163.098 258.481C163.974 256.332 165.053 254.285 166.011 252.176C166.958 250.098 167.722 247.908 168.822 245.82C169.148 245.208 169.831 244.903 170.442 244.587C171.043 244.281 171.624 244.251 172.286 244.322C174.547 244.577 176.819 244.75 179.08 245.015C181.342 245.28 183.593 245.616 185.844 245.911C188.095 246.207 190.387 246.309 192.638 246.624C194.89 246.94 197.12 247.439 199.372 247.765C201.623 248.091 203.905 248.254 206.146 248.601C208.387 248.947 210.658 249.232 212.899 249.599C216.037 250.098 219.072 251.035 222.21 251.218C223.992 251.32 225.317 250.363 226.692 252.094C228.739 254.682 226.865 259.449 226.885 262.383C226.895 264.991 226.916 267.598 226.906 270.206C226.895 272.814 227.109 275.422 227.079 278.029C227.048 280.637 226.519 283.235 226.478 285.842C226.437 288.521 226.651 291.2 226.61 293.89C226.569 296.579 226.376 299.248 226.376 301.927C226.376 304.606 226.651 307.285 226.732 309.964C226.743 310.412 226.529 310.84 226.233 311.176C225.968 311.471 225.632 311.767 225.245 311.828C222.688 312.205 220.111 312.388 217.554 312.704C214.998 313.02 212.451 313.499 209.874 313.733C207.297 313.967 204.73 314.201 202.152 314.364C201.378 314.415 200.665 313.998 199.983 313.621C199.086 313.132 198.669 312.297 198.516 311.278C198.098 308.517 197.192 305.787 196.631 303.007C196.071 300.226 195.572 297.445 194.502 294.837C193.708 292.891 192.547 290.742 190.509 290.212C189.399 289.927 188.054 289.988 187.015 290.487C184.204 291.852 182.768 294.256 180.924 296.681C179.376 298.708 178.021 300.888 176.503 302.945C174.985 305.003 173.478 307.061 171.99 309.139C171.399 309.974 170.228 310.382 169.199 310.412C168.425 310.432 167.783 310.015 167.111 309.618C164.89 308.303 162.517 307.234 160.337 305.859C158.157 304.484 156.211 302.742 154.062 301.305C151.913 299.869 149.753 298.474 147.655 296.976C147.329 296.742 146.932 296.579 146.82 296.192C146.697 295.764 146.881 295.306 147.095 294.918L147.105 294.908Z" fill="#4D5469"/>
<path d="M183.805 231.467C183.734 231.894 183.235 232.22 183.184 232.577C182.817 234.93 182.023 237.263 181.187 239.646C180.362 242.01 179.853 244.495 179.14 246.767C178.6 248.498 178.223 250.689 177.368 252.471C176.492 254.284 174.913 255.364 172.712 255.741C170.614 256.098 168.403 255.415 167.201 253.653C166.672 252.868 166.254 251.952 166.224 251.004C166.193 249.833 166.967 248.814 167.415 247.734C168.342 245.453 168.852 242.998 169.779 240.716C170.706 238.434 171.663 236.173 172.6 233.891C173.537 231.609 174.831 229.48 175.758 227.199C176.685 224.917 177.459 222.574 178.366 220.282C178.478 220.017 178.641 219.956 178.906 219.844C179.12 219.762 179.283 219.416 179.507 219.477C181.065 219.915 182.624 220.761 183.49 222.136C184.895 224.356 184.325 228.564 183.805 231.477V231.467Z" fill="#4D5469"/>
<path d="M182.339 231.06C182.146 231.549 181.81 231.864 181.677 232.404C181.504 233.097 181.402 233.82 181.219 234.523C180.852 235.959 180.363 237.365 179.884 238.771C178.957 241.45 178.285 244.21 177.501 246.93C176.9 249.039 176.645 251.932 174.74 253.337C173.11 254.539 170.401 254.743 168.883 253.266C168.099 252.502 167.559 251.361 167.905 250.282C168.333 248.957 169.087 247.735 169.525 246.4C170.421 243.691 171.297 241.032 172.387 238.394C173.497 235.715 174.628 233.087 175.922 230.489C177.205 227.912 178.142 225.213 179.141 222.523C179.253 222.228 179.406 221.902 179.487 221.596C179.752 220.618 179.314 221.484 179.681 221.148C179.721 221.107 180.19 220.822 180.19 220.761C179.344 220.904 179.212 221.036 179.823 221.158L180.159 221.291C181.219 221.77 182.146 222.493 182.523 223.613C183.307 225.905 182.747 228.717 182.339 231.029C182.003 232.954 184.947 233.779 185.283 231.844C185.762 229.104 186.23 226.19 185.629 223.43C185.039 220.72 182.869 218.846 180.271 218.072C176.91 217.074 175.973 222.289 175.178 224.459C173.976 227.708 172.265 230.703 170.951 233.902C169.545 237.314 168.088 240.686 166.998 244.221C166.54 245.718 165.99 247.103 165.338 248.519C164.686 249.935 164.533 251.422 165.134 252.94C167.365 258.573 175.657 258.634 178.529 253.511C179.426 251.901 179.823 250.057 180.292 248.295C180.75 246.584 181.259 244.873 181.718 243.161C182.268 241.134 182.991 239.178 183.623 237.182C183.918 236.255 184.183 235.318 184.397 234.36C184.489 233.963 184.489 233.311 184.672 232.954C184.855 232.598 185.13 232.262 185.293 231.844C186.027 230.021 183.073 229.226 182.349 231.029L182.339 231.06Z" fill="#352F2E"/>
<path d="M171.144 250.821C174.139 252.654 176.431 247.164 172.58 246.991C169.84 246.869 168.73 249.344 171.144 250.821Z" fill="#FCFCFC"/>
<path d="M217.585 232.841C217.503 233.269 217.727 233.717 217.656 234.074C217.177 236.407 216.984 238.902 216.922 241.418C216.861 243.924 216.698 246.43 216.566 248.804C216.464 250.617 216.332 252.766 216.505 254.742C216.688 256.749 217.483 258.42 219.408 259.55C221.242 260.63 223.686 260.803 225.428 259.581C226.202 259.041 226.915 258.236 227.262 257.36C227.7 256.27 227.72 255.007 227.69 253.836C227.628 251.371 227.323 248.916 227.252 246.461C227.18 244.006 227.231 241.541 227.16 239.075C227.089 236.61 226.895 234.155 226.834 231.69C226.773 229.225 227.089 226.76 227.048 224.295C227.048 224.01 226.752 223.663 226.539 223.47C226.376 223.317 226.101 223.409 225.876 223.388C224.267 223.246 222.525 223.246 221.231 224.224C219.133 225.813 218.124 229.928 217.585 232.841Z" fill="#4D5469"/>
<path d="M216.056 232.842C216.056 234.472 215.751 236.051 215.598 237.681C215.435 239.422 215.404 241.175 215.343 242.927C215.211 246.4 214.803 249.884 214.895 253.358C214.966 256.149 215.629 258.746 218.002 260.458C220.212 262.057 223.268 262.485 225.723 261.191C228.728 259.602 229.319 256.454 229.207 253.347C229.075 249.731 228.759 246.146 228.739 242.519C228.718 238.893 228.433 235.297 228.362 231.691C228.331 230.041 228.453 228.401 228.525 226.761C228.596 225.192 228.932 223.114 227.312 222.146C226.161 221.464 223.89 221.698 222.627 221.973C221.17 222.279 219.968 223.104 219.072 224.275C217.309 226.577 216.637 229.643 216.107 232.435C215.741 234.36 218.685 235.185 219.051 233.249C219.428 231.253 219.846 229.165 220.763 227.341C221.139 226.587 221.588 225.773 222.331 225.324C222.779 225.049 223.309 224.927 223.839 224.876C224.297 224.835 225.489 224.672 225.886 224.917C225.285 224.54 225.52 225.854 225.499 226.272C225.469 227.015 225.428 227.749 225.387 228.492C225.316 229.969 225.296 231.446 225.357 232.923C225.469 235.796 225.662 238.658 225.683 241.541C225.703 244.343 225.734 247.123 225.937 249.915C226.11 252.329 227.007 256.138 224.99 257.992C223.38 259.48 220.813 259.031 219.306 257.605C217.645 256.026 217.9 253.337 217.961 251.259C218.063 248.152 218.338 245.045 218.43 241.928C218.522 238.883 219.102 235.857 219.112 232.842C219.112 230.876 216.067 230.876 216.056 232.842Z" fill="#352F2E"/>
<path d="M222.647 255.375C219.194 256.037 219.041 250.027 222.698 251.229C225.306 252.084 225.418 254.845 222.647 255.375Z" fill="#FCFCFC"/>
<path d="M199.758 316.055C202.681 316.147 205.605 316.045 208.518 315.903C211.432 315.76 214.376 315.75 217.279 315.373C219.968 315.027 222.616 313.875 225.316 313.682C227.119 313.55 228.28 314.711 228.433 312.022C228.525 310.351 229.421 306.541 227.944 305.248C226.559 304.025 220.518 305.4 218.705 305.533C216.474 305.706 214.243 305.757 212.012 305.93C209.781 306.103 207.571 306.419 205.34 306.592C203.109 306.765 200.889 306.959 198.658 307.132C198.291 307.163 197.792 307.132 197.497 307.356C196.977 307.723 197.059 308.64 197.089 309.271C197.171 310.687 197.71 314.884 199.096 315.719C199.32 315.852 199.483 316.055 199.748 316.066L199.758 316.055Z" fill="#4D5469"/>
<path d="M169.077 312.052C166.449 310.769 163.841 309.434 161.325 307.937C158.809 306.439 156.394 304.779 154.011 303.088C153.074 302.426 151.159 301.081 149.284 299.777C147.349 298.423 145.79 297.007 145.638 295.713C145.597 295.326 145.515 295 145.648 294.623C146.259 292.963 146.911 291.292 147.97 289.876C149.957 287.207 155.529 292.769 157.26 293.869C159.145 295.061 161.05 296.243 162.934 297.434C164.819 298.626 166.683 299.869 168.567 301.071C170.452 302.273 172.245 303.607 174.129 304.809C174.435 305.003 174.781 305.135 174.944 305.461C175.229 306.032 175.189 306.816 174.863 307.356C174.129 308.568 171.501 312.337 169.881 312.419C169.617 312.429 169.321 312.164 169.087 312.052H169.077Z" fill="#4D5469"/>
<path d="M262.986 162.015C260.714 161.944 258.443 162.545 256.466 163.36C255.825 160.966 255.254 158.409 254.327 156.148C253.39 153.856 252.321 151.615 251.108 149.476C249.886 147.326 248.541 145.228 247.064 143.262C245.587 141.286 243.805 139.554 242.083 137.792C240.372 136.019 238.62 134.277 236.695 132.739C234.769 131.201 232.671 129.897 230.562 128.614C228.454 127.33 226.437 125.863 224.175 124.855C221.914 123.846 219.52 123.235 217.136 122.532C214.794 121.84 212.369 121.412 209.904 121.014C207.439 120.617 205.065 120.291 202.57 120.21C200.074 120.128 197.599 120.159 195.174 120.393C192.75 120.627 190.305 121.279 187.922 121.819C185.497 122.369 183.154 123.062 180.852 123.907C178.55 124.753 176.095 125.374 173.915 126.515C171.725 127.656 169.555 128.909 167.538 130.315C165.511 131.731 163.841 133.605 162.017 135.265C160.194 136.926 158.564 138.749 156.965 140.623C155.366 142.498 153.43 144.138 152.075 146.206C150.731 148.263 149.732 150.555 148.643 152.786C147.553 155.017 146.677 157.339 145.882 159.703C143.926 158.725 141.716 157.778 139.393 157.696C136.531 157.604 133.903 158.725 131.55 159.988C129.125 161.292 127.129 163.156 125.682 165.499C124.287 167.76 123.064 170.327 122.962 173.19C122.861 176.052 123.706 178.802 124.959 181.166C126.253 183.6 128.086 185.862 130.419 187.328C132.68 188.744 135.492 189.223 138.354 189.315C140.228 189.376 142.032 189.233 143.712 188.673C144.14 191.036 144.731 193.349 145.434 195.61C146.147 197.902 146.717 200.255 147.695 202.425C148.683 204.605 150.252 206.489 151.495 208.516C152.738 210.554 153.96 212.601 155.447 214.465C156.934 216.329 158.32 218.316 160.021 219.986C161.722 221.657 163.627 223.134 165.522 224.591C167.406 226.037 169.535 227.158 171.593 228.37C173.64 229.572 175.677 230.825 177.878 231.772C180.078 232.719 182.38 233.259 184.693 233.921C187.005 234.584 189.195 235.582 191.568 235.949C193.942 236.315 196.315 236.417 198.729 236.499C201.144 236.58 203.538 236.407 205.88 236.193C208.223 235.979 210.658 235.653 212.96 235.154C215.262 234.655 217.544 233.799 219.785 233.015C222.046 232.22 224.318 231.456 226.437 230.397C228.556 229.338 230.552 227.973 232.528 226.659C234.515 225.334 236.369 223.847 238.172 222.289C239.975 220.73 241.991 219.375 243.601 217.603C245.2 215.84 246.545 213.834 247.93 211.878C249.316 209.922 250.487 207.854 251.618 205.746C252.738 203.657 253.716 201.478 254.582 199.236C255.438 197.026 256.018 194.551 256.599 192.218C258.208 192.85 260.093 193.675 261.916 193.736C264.779 193.827 267.478 192.88 269.831 191.617C272.184 190.354 274.425 188.48 275.872 186.126C277.318 183.773 277.889 181.125 277.98 178.263C278.072 175.4 277.624 172.65 276.371 170.287C275.077 167.852 272.989 165.967 270.656 164.511C268.324 163.054 265.818 162.086 262.955 161.985L262.986 162.015Z" fill="#FFE6D9"/>
<path d="M174.23 185.036C174.159 187.226 173.67 189.203 172.6 190.945C171.49 192.737 169.972 194.184 168.118 195.182C166.315 196.15 164.309 196.567 162.108 196.496C159.908 196.425 157.871 195.977 156.139 194.897C154.356 193.776 152.686 192.299 151.698 190.435C150.71 188.571 150.424 186.452 150.496 184.262C150.567 182.072 151.3 180.086 152.38 178.354C153.46 176.622 155.1 175.257 156.954 174.259C158.808 173.261 160.703 172.497 162.893 172.568C165.083 172.639 167.11 173.342 168.842 174.432C170.624 175.553 171.928 177.213 172.916 179.077C173.904 180.941 174.291 182.856 174.22 185.047L174.23 185.036Z" fill="#EDBBA6"/>
<path d="M250.406 187.553C250.335 189.743 249.52 191.719 248.44 193.451C247.33 195.243 245.842 196.741 243.989 197.749C242.186 198.717 240.128 199.542 237.938 199.471C235.748 199.4 233.608 198.676 231.867 197.586C230.125 196.496 228.729 194.704 227.731 192.839C226.773 191.036 226.183 188.958 226.254 186.758C226.325 184.568 227.201 182.622 228.281 180.891C229.391 179.098 230.685 177.285 232.539 176.286C234.393 175.288 236.532 175.227 238.732 175.298C240.933 175.37 242.929 175.899 244.661 176.979C246.443 178.1 247.819 179.689 248.817 181.553C249.774 183.356 250.477 185.363 250.406 187.553Z" fill="#EDBBA6"/>
<path d="M189.255 170.48C189.184 172.497 187.585 174.228 185.578 174.157C183.571 174.086 181.901 172.252 181.972 170.235C182.043 168.218 183.816 166.527 185.833 166.589C187.85 166.65 189.327 168.453 189.265 170.47L189.255 170.48Z" fill="#352F2E"/>
<path d="M224.053 171.631C223.982 173.648 222.158 175.288 220.152 175.217C218.145 175.146 216.729 173.404 216.79 171.387C216.861 169.37 218.369 168.066 220.376 168.127C222.382 168.188 224.114 169.604 224.053 171.621V171.631Z" fill="#352F2E"/>
<path d="M201.438 173.404C202.151 173.954 203.038 174.229 204.25 173.342C206.633 171.601 205.258 169.431 202.579 169.624C199.798 169.818 200.022 172.324 201.428 173.404H201.438Z" fill="#C66A5C"/>
<path d="M194.736 180.494C195.327 177.54 196.794 177.723 199.147 177.774C202.182 177.845 205.248 177.53 208.304 177.489C208.681 177.489 209.18 177.326 209.486 177.56C209.731 177.754 209.995 178.11 210.087 178.416C210.586 180.056 210.556 181.93 210.23 183.611C209.619 186.789 207.408 189.611 204.434 190.894C200.96 192.392 198.362 191.312 196.6 188.979C194.858 186.667 194.166 183.387 194.746 180.504L194.736 180.494Z" fill="#C66A5C"/>
<path d="M252.311 163.889C252.443 163.563 252.667 163.146 252.728 162.789C254.042 165.764 257.689 167.261 260.776 166.212C263.862 165.163 266.144 161.964 266.073 158.704C266.032 156.82 265.044 154.803 264.188 152.654C263.414 150.728 262.548 148.742 261.55 146.888C260.439 144.851 259.492 142.844 258.616 141.255C257.495 139.218 256.049 137.364 254.735 135.428C253.421 133.493 252.239 131.466 250.691 129.724C249.143 127.982 247.268 126.576 245.445 125.109C243.418 123.469 241.248 122.104 238.946 120.882C236.644 119.66 234.443 118.162 231.989 117.327C229.727 116.553 227.119 116.318 224.624 115.748C222.128 115.178 219.653 114.638 217.239 114.617C215.201 114.597 213.123 114.597 211.086 114.964C209.049 115.33 207.052 116.176 205.015 116.084C202.183 115.962 199.565 114.923 196.886 114.352C194.227 113.782 191.538 113.67 188.635 113.894C186.363 114.067 184.061 114.057 181.82 114.495C179.579 114.933 177.43 115.728 175.25 116.42C173.08 117.113 170.859 117.704 168.771 118.631C166.683 119.558 164.574 120.485 162.598 121.626C160.622 122.766 158.707 124.05 156.863 125.395C154.531 127.096 152.789 129.214 151.108 131.211C149.325 133.32 147.583 135.408 146.218 137.771C144.874 140.094 143.957 142.681 142.714 145.167C141.533 147.54 140.351 149.985 138.976 152.44C137.988 154.202 137.427 156.321 137.407 158.358C137.376 160.569 137.733 162.83 139.597 163.991C141.044 164.898 142.989 164.704 144.69 164.613C146.728 164.511 148.724 164.134 150.68 163.574C152.636 163.013 154.622 162.29 156.395 161.292C155.508 163.39 157.108 166.049 159.277 166.752C161.437 167.455 163.943 166.955 166.062 166.13C168.517 165.183 170.615 163.482 172.795 161.995C174.975 160.507 177.104 158.969 178.886 157.034C178.031 158.266 179.1 160.181 180.537 160.63C181.973 161.068 183.511 160.446 184.886 159.866C187.127 158.918 189.052 157.604 190.968 156.321C192.944 154.986 195.022 153.835 196.713 152.195C198.404 150.555 199.921 148.742 201.378 146.857C202.835 144.973 204.047 142.895 205.3 140.858C205.728 143.058 206.553 145.442 207.948 147.499C209.232 149.374 211.035 151.014 212.797 152.664C214.529 154.294 216.301 155.934 218.186 157.248C220.274 158.704 222.352 160.008 224.237 160.945C225.999 161.821 228.006 162.473 229.982 162.382C231.958 162.29 233.955 160.874 234.474 158.969C235.625 160.558 237.041 162.158 238.406 163.574C239.771 164.989 241.207 166.375 243.082 167.078C246.453 168.341 250.997 167.078 252.3 163.91L252.311 163.889Z" fill="#494342"/>
<path d="M141.462 213.921C141.321 212.957 168.965 222.564 189.229 193.185C189.229 193.185 207.005 210.012 237.93 193.275C237.93 193.275 262.956 266.273 210.142 304.265C210.142 304.265 153.538 297.463 141.462 213.921Z" fill="#4D5469"/>
<path d="M143.299 213.073C143.158 212.109 170.802 221.716 191.066 192.337C191.066 192.337 208.842 209.164 239.767 192.427C239.767 192.427 264.792 265.426 211.979 303.417C211.979 303.417 155.375 296.615 143.299 213.073Z" fill="#FF7333"/>
<path d="M152.354 220.94C165.425 290.365 209.83 293.667 209.83 293.667L192.61 202.201C175.919 226.4 152.206 220.153 152.354 220.94Z" fill="#FFA770"/>
<path d="M206.907 278.211L209.82 293.682C228.461 280.276 235.314 261.581 237.084 244.59L206.907 278.211Z" fill="white"/>
<path d="M192.597 202.204L196.638 223.667L210.362 208.376C198.875 208.149 192.597 202.204 192.597 202.204Z" fill="white"/>
<path d="M232.702 202.283C223.916 207.032 216.413 208.499 210.362 208.376L196.638 223.667L200.16 242.377L233.554 205.15C233.044 203.305 232.687 202.272 232.687 202.272L232.702 202.283Z" fill="#FFA770"/>
<path d="M236.831 222.047L203.368 259.342L206.92 278.209L237.097 244.588C237.948 236.417 237.614 228.66 236.846 222.058L236.831 222.047Z" fill="#FFA770"/>
<path d="M233.571 205.161L200.177 242.388L203.368 259.342L236.831 222.047C235.953 214.501 234.498 208.503 233.571 205.161Z" fill="white"/>
<path d="M191.638 195.378C193.318 195.062 194.424 193.444 194.108 191.764C193.791 190.084 192.173 188.978 190.493 189.295C188.813 189.611 187.708 191.229 188.024 192.909C188.34 194.589 189.958 195.695 191.638 195.378Z" fill="white"/>
<path d="M143.412 214.613C145.092 214.297 146.197 212.679 145.881 210.999C145.565 209.319 143.946 208.213 142.266 208.53C140.586 208.846 139.481 210.464 139.797 212.144C140.114 213.824 141.732 214.93 143.412 214.613Z" fill="white"/>
<path d="M242.385 192.056C242.701 193.734 241.594 195.354 239.916 195.67C238.238 195.986 236.617 194.879 236.301 193.201C235.985 191.523 237.092 189.902 238.77 189.586C240.449 189.271 242.069 190.377 242.385 192.056Z" fill="white"/>
<path d="M196.313 223.742C189.311 225.06 184.799 232.318 186.236 239.948C187.393 246.098 192.058 250.609 197.483 251.448L198.89 258.921L193.777 259.884C192.846 260.059 192.239 260.947 192.414 261.878L192.985 264.907C193.143 265.746 193.953 266.3 194.792 266.142L200.076 265.147L201.308 271.689C201.446 272.424 202.278 272.878 203.17 272.71L207.772 271.844C208.663 271.676 209.273 270.95 209.135 270.216L205.326 249.985C210.075 247.231 212.78 241.332 211.622 235.182C210.185 227.552 203.343 222.432 196.341 223.75L196.313 223.742Z" fill="#4D5469"/>
<path d="M158.417 253.149C155.83 254.982 153.477 255.155 151.266 254.463C149.056 253.77 146.703 252.313 145.205 249.95C143.891 247.862 142.944 245.244 142.526 242.657C142.109 240.049 142.322 237.299 143.097 234.935C143.871 232.572 145.674 230.657 148.037 229.282C150.461 227.876 153.487 227.357 156.054 228.487C157.297 229.037 158.295 230.239 158.112 231.574C157.887 233.255 155.962 233.886 155.341 235.465C156.747 234.65 158.876 235.404 159.466 236.911C160.057 238.429 158.692 240.426 157.103 240.772C158.733 240.905 160.852 241.332 161.269 242.921C161.524 243.879 161.239 245.061 160.485 245.713C159.731 246.365 158.641 246.548 157.714 246.874C159.171 246.212 160.628 247.719 160.648 249.319C160.668 250.918 159.701 252.212 158.397 253.139L158.417 253.149Z" fill="#FFE6D9"/>
<path d="M234.096 254.101C236.684 255.934 238.955 256.331 241.166 255.629C243.376 254.926 245.291 253.143 246.789 250.78C248.103 248.692 249.183 246.288 249.6 243.7C250.018 241.113 250.11 238.383 249.335 236.02C248.531 233.585 246.901 231.466 244.527 230.091C242.103 228.685 238.925 228.492 236.358 229.623C235.115 230.173 233.954 231.354 234.137 232.699C234.361 234.38 236.449 235.011 237.081 236.59C235.675 235.775 233.475 236.488 232.884 238.006C232.293 239.524 233.271 241.5 234.86 241.846C233.23 241.979 231.407 242.417 230.989 243.996C230.735 244.953 231.478 245.809 232.232 246.451C232.986 247.092 233.893 247.439 234.82 247.765C233.363 247.103 231.489 248.824 231.468 250.423C231.448 252.023 232.792 253.184 234.096 254.101Z" fill="#FFE6D9"/>
<path d="M530.362 188.046C531.513 188.26 532.746 188.25 533.795 188.759C536.596 190.124 537.951 193.048 538.155 196.185C538.338 199.058 537.605 202.297 536.362 204.874C535.313 207.054 533.693 208.868 532.257 210.793C530.82 212.708 529.354 214.592 527.632 216.273C525.921 217.944 524.22 219.675 522.315 221.152C520.41 222.63 518.24 223.74 516.244 225.054C514.237 226.368 512.291 227.764 510.213 228.955C508.135 230.147 506.047 231.319 503.908 232.398C501.769 233.478 499.599 234.497 497.399 235.444C495.198 236.391 493.008 237.38 490.757 238.215C488.506 239.05 486.234 239.814 483.942 240.507C481.65 241.199 479.287 241.627 476.954 242.198C474.622 242.768 472.32 243.42 469.966 243.858C467.613 244.296 465.22 244.51 462.846 244.806C460.595 245.091 458.15 245.254 455.593 245.396C453.23 245.529 450.785 245.875 448.31 245.804C445.835 245.732 443.471 245.274 441.067 244.948C438.663 244.622 436.168 244.429 433.876 243.756C431.492 243.064 429.241 242.076 427.142 240.945C424.973 239.773 423.007 238.327 421.306 236.605C419.655 234.935 418.189 232.806 416.681 230.514C415.326 228.466 414.063 226.225 412.871 223.882C411.71 221.621 410.477 219.349 409.51 216.996C408.542 214.643 407.574 212.137 406.82 209.805C405.965 207.166 405.455 204.62 404.966 202.369C404.457 199.995 403.754 197.652 403.479 195.248C403.204 192.844 402.99 190.41 402.939 187.985C402.878 185.561 402.909 183.116 403.072 180.702C403.235 178.288 403.938 175.924 404.325 173.531C404.702 171.137 404.956 168.723 405.547 166.37C406.138 164.016 407.085 161.786 407.89 159.494C408.685 157.212 409.387 154.889 410.386 152.679C411.384 150.479 412.667 148.411 413.869 146.312C415.071 144.214 416.447 142.238 417.842 140.262C419.391 138.072 420.715 135.668 422.518 133.681C424.321 131.695 426.399 129.912 428.507 128.262C430.616 126.612 432.908 125.155 435.332 123.973C437.421 122.955 439.58 122.221 441.74 121.661C443.971 121.08 446.222 120.805 448.473 120.704C450.724 120.602 452.986 120.836 455.227 121.243C457.468 121.651 459.637 122.17 461.756 123.077C463.875 123.984 465.708 125.145 467.613 126.5C469.946 128.15 472.218 129.851 474.173 131.919C476.119 133.977 478.085 136.095 479.725 138.428C481.365 140.761 482.506 143.419 483.922 145.874C485.338 148.329 486.805 150.631 488.119 152.964C489.484 155.399 491.093 157.619 492.519 159.932C493.956 162.264 495.372 164.567 497.042 166.787C498.713 169.008 500.098 171.279 502.084 173.317C503.959 175.222 506.027 176.913 508.115 178.491C510.234 180.091 512.526 181.446 514.848 182.678C517.171 183.911 519.656 184.807 522.162 185.683C524.668 186.559 527.123 187.415 529.751 187.914C529.955 187.955 530.158 188.026 530.362 188.057V188.046Z" fill="#8E816E"/>
<path d="M377.427 268.442C379.374 269.349 381.375 270.236 383.445 270.589C385.516 270.942 387.674 270.922 389.762 270.72C391.851 270.519 393.842 269.662 395.843 268.925C397.843 268.189 399.729 267.242 401.519 265.981C403.677 264.459 405.836 262.734 407.073 260.193C408.249 257.794 408.74 254.97 408.45 252.238C408.161 249.546 406.871 247.105 405.459 244.938C404.028 242.739 402.388 240.773 400.308 239.432C398.247 238.101 395.957 237.123 393.649 236.558C391.342 235.994 388.938 235.711 386.56 235.681C384.182 235.651 381.787 235.711 379.427 235.923C377.427 236.105 375.146 236.76 372.882 237.415C370.697 238.051 368.565 238.958 366.767 240.319C364.889 241.731 363.38 243.576 362.599 246.087C361.845 248.497 362.327 250.907 363.257 253.357C364.073 255.525 365.275 257.652 366.846 259.599C368.416 261.545 370.127 263.037 371.847 264.469C373.891 266.163 375.795 267.665 377.427 268.431V268.442Z" fill="#FCFCFC"/>
<path d="M443.319 251.284C441.546 252.965 439.346 254.503 436.789 255.348C434.426 256.133 431.747 256.336 429.139 256.408C426.531 256.479 423.924 256.245 421.489 255.613C418.892 254.951 416.386 253.983 414.43 252.517C412.321 250.948 410.824 248.748 410.04 246.252C409.357 244.072 409.164 241.485 409.907 238.602C410.478 236.412 411.914 234.425 413.513 232.826C415.581 230.768 418.148 229.22 420.796 227.987C423.435 226.755 426.318 226.235 429.221 225.971C431.126 225.797 433.081 225.4 434.976 225.716C436.871 226.032 438.613 226.969 440.324 227.855C442.025 228.741 443.472 229.953 444.745 231.38C446.028 232.816 446.976 234.405 447.556 236.239C448.392 238.897 448.371 241.627 447.546 244.286C446.731 246.914 445.346 249.379 443.339 251.274L443.319 251.284Z" fill="#FCFCFC"/>
<path d="M442.238 250.205C439.824 252.456 437.053 253.963 433.773 254.503C430.371 255.074 426.663 255.104 423.271 254.452C420.225 253.862 416.925 252.823 414.582 250.694C412.392 248.707 411.088 245.865 410.945 242.911C410.772 239.376 412.086 236.382 414.572 233.916C416.843 231.655 419.858 229.842 422.874 228.782C426.042 227.672 429.688 227.234 433.04 227.142C436.391 227.051 439.844 228.915 442.197 231.023C444.887 233.427 446.618 236.606 446.608 240.273C446.598 243.97 444.856 247.648 442.228 250.205C440.812 251.58 442.982 253.739 444.388 252.364C450.041 246.853 451.549 237.685 446.567 231.258C444.235 228.243 441.016 226.205 437.481 224.861C435.485 224.097 433.468 223.995 431.359 224.219C429.25 224.443 427.203 224.616 425.155 225.013C417.903 226.45 409.407 231.798 408.113 239.621C407.512 243.257 408.154 247.077 410.181 250.184C412.249 253.342 415.417 255.267 418.932 256.459C423.383 257.967 428.16 258.232 432.816 257.692C437.471 257.152 441.077 255.43 444.388 252.354C445.834 251.009 443.664 248.86 442.228 250.194L442.238 250.205Z" fill="#352F2E"/>
<path d="M467.898 281.283C468.948 282.811 470.048 285.113 471.667 287.415C472.981 289.269 474.632 291.103 476.058 293.11C477.474 295.116 478.614 297.317 479.908 299.181C481.507 301.493 483.3 303.317 484.299 304.885C484.441 305.109 484.299 305.435 484.268 305.7C484.237 305.985 484.227 306.322 484.013 306.505C482.496 307.758 480.835 308.827 479.317 310.07C477.8 311.313 476.272 312.556 474.754 313.788C473.389 314.899 471.81 315.775 470.445 316.844C469.905 317.272 468.835 318.698 468.173 318.708C467.684 318.708 467.379 318.362 467.032 318.016C465.464 316.406 464.058 314.675 462.571 313.014C461.073 311.344 459.494 309.765 458.058 308.053C456.622 306.342 454.992 304.794 453.586 303.052C452.181 301.32 451.04 299.374 449.654 297.612" fill="#FFE6D9"/>
<path d="M466.086 317.038C466.442 316.681 466.789 316.223 467.206 315.938C468.347 315.153 469.488 314.369 470.629 313.585C472.412 312.372 474.5 311.619 476.293 310.427C478.085 309.235 479.878 308.074 481.722 306.953C483.973 305.588 486.367 303.958 488.893 304.284C490.523 304.498 492.082 305.537 491.929 307.381C491.817 308.736 490.513 309.704 489.494 310.61C487.824 312.067 486.163 313.605 484.32 314.919C482.496 316.213 480.632 317.496 478.737 318.698C476.843 319.9 474.948 321.184 473.084 322.355C472.269 322.864 471.25 323.292 470.191 323.18C468.388 323.007 464.385 320.033 465.363 317.873C465.505 317.547 465.841 317.282 466.096 317.028L466.086 317.038Z" fill="#D66D5F"/>
<path d="M404.621 292.102C404.458 293.945 404.407 296.472 404.122 299.273C403.888 301.524 403.327 303.938 403.083 306.393C402.838 308.838 402.828 311.313 402.614 313.564C402.349 316.366 402.095 318.861 401.993 320.715C401.983 320.98 402.074 321.184 402.227 321.398C402.4 321.622 402.614 321.632 402.9 321.683C404.835 322.029 406.781 322.264 408.716 322.6C410.651 322.936 412.526 323.639 414.461 323.965C416.193 324.26 417.965 324.556 419.677 324.81C420.359 324.912 422.04 325.075 422.621 324.759C423.048 324.525 423.16 324.118 423.293 323.649C423.863 321.479 424.75 319.391 425.228 317.211C425.707 315.021 425.901 312.78 426.318 310.58C426.736 308.38 427.286 306.21 427.653 303.999C428.019 301.799 428.417 299.599 428.763 297.388" fill="#FFE6D9"/>
<path d="M423.628 322.386C423.139 322.253 422.609 322.274 422.1 322.233C420.714 322.111 419.349 321.897 417.964 321.775C415.815 321.591 413.686 321.245 411.536 321.092C409.387 320.939 407.217 321.306 405.068 321.235C402.44 321.153 399.73 321.163 397.693 322.691C396.379 323.669 395.289 325.146 396.328 326.674C397.092 327.805 398.712 328.223 400.046 328.498C402.216 328.946 404.508 328.854 406.759 329.089C409.01 329.323 411.21 329.639 413.451 329.751C415.692 329.863 417.964 330.036 420.174 330.138C421.142 330.178 422.079 330.117 422.945 329.506C424.432 328.467 426.551 324.168 424.646 322.773C424.361 322.559 423.974 322.477 423.628 322.386Z" fill="#D66D5F"/>
<path d="M400.953 276.923C399.751 273.979 401.89 269.212 401.931 266.523C401.972 264.333 401.717 262.143 401.686 259.953C401.666 257.763 401.564 255.583 401.513 253.393C401.462 251.202 401.666 249.012 401.636 246.822C401.615 244.602 401.218 241.841 401.055 239.05C400.892 236.259 400.627 233.549 401.33 231.257C402.084 228.792 403.815 226.735 406.729 225.838C408.97 225.156 411.384 225.553 413.778 225.716C416.141 225.879 418.586 226.215 420.868 225.746C423.985 225.105 426.582 223.139 429.822 222.741C431.808 222.497 434.12 222.314 436.483 222.242C438.694 222.171 440.966 222.497 443.125 222.843C445.417 223.21 447.689 223.679 449.481 224.819C451.274 225.96 452.772 227.743 453.607 230.025C454.391 232.184 454.962 234.436 455.726 236.605C456.49 238.775 457.6 240.833 458.344 243.002C459.097 245.182 459.586 247.444 460.33 249.624C461.074 251.803 461.552 254.065 462.296 256.255C462.938 258.16 464.242 260.207 465.077 262.296C466.004 264.628 466.798 266.951 466.452 268.774C466.106 270.598 464.568 271.952 461.369 272.513C459.087 272.91 456.806 273.297 454.503 273.633C452.211 273.979 449.93 274.356 447.628 274.652C445.336 274.947 443.023 275.212 440.721 275.477C438.419 275.742 436.096 275.793 433.784 276.037C431.472 276.282 429.18 276.618 426.878 276.852C424.565 277.086 422.263 277.31 419.961 277.545C417.659 277.779 415.347 277.962 413.044 278.217C410.742 278.472 408.471 279.052 406.179 279.327C404.834 279.49 403.388 279.307 402.216 278.604C401.503 278.186 401.248 277.585 400.973 276.913L400.953 276.923Z" fill="#FCFCFC"/>
<path d="M480.428 295.371C479.308 293.314 477.708 291.541 476.578 289.524C475.437 287.487 474.418 285.389 473.42 283.29C472.421 281.192 471.841 278.93 471.128 276.699C470.517 274.805 469.824 272.92 469.07 271.056C468.327 269.202 467.563 267.348 466.839 265.505C465.984 263.304 465.036 261.206 464.17 259.087C463.294 256.938 462.5 254.768 461.542 252.659C460.595 250.581 459.637 248.473 458.527 246.395C458.201 245.783 457.641 245.193 457.03 244.877C456.429 244.571 455.665 244.571 454.992 244.643C452.731 244.897 450.51 245.508 448.249 245.783C445.988 246.059 443.675 245.906 441.424 246.201C439.163 246.497 436.911 246.833 434.66 247.138C432.409 247.444 430.198 248.116 427.947 248.442C425.696 248.768 423.394 248.788 421.143 249.135C418.892 249.481 416.62 249.705 414.379 250.062C411.241 250.561 408.216 251.508 405.079 251.692C403.296 251.794 401.962 250.938 400.586 252.67C398.539 255.257 400.678 260.034 400.668 262.968C400.658 265.576 400.637 268.184 400.648 270.781C400.658 273.379 400.607 275.997 400.637 278.604C400.668 281.212 400.566 283.82 400.597 286.428C400.637 289.107 400.943 291.786 400.984 294.465C401.024 297.144 400.546 299.833 400.556 302.512C400.556 305.191 400.617 307.87 400.535 310.549C400.525 310.997 400.841 311.364 401.147 311.7C401.411 311.996 401.737 311.955 402.135 312.016C404.692 312.393 407.177 313.228 409.744 313.534C412.311 313.839 414.878 314.165 417.445 314.4C420.012 314.634 422.61 314.644 425.187 314.807C425.961 314.858 426.868 314.94 427.55 314.573C428.446 314.084 428.905 312.912 429.058 311.904C429.475 309.143 429.791 306.301 430.351 303.531C430.912 300.75 431.665 297.999 432.735 295.392C433.529 293.446 434.844 291.551 436.881 291.032C437.991 290.747 439.183 290.777 440.222 291.286C443.033 292.651 444.684 294.77 446.527 297.195C448.076 299.222 449.522 301.341 451.04 303.398C452.558 305.456 453.994 307.575 455.481 309.653C456.072 310.488 457.111 311.069 458.13 311.099C458.904 311.12 459.515 310.559 460.188 310.162C462.408 308.848 464.659 307.595 466.839 306.22C469.019 304.845 471.179 303.439 473.328 302.003C475.467 300.566 477.739 299.313 479.847 297.816C480.173 297.582 480.336 297.174 480.448 296.787C480.571 296.359 480.662 295.809 480.448 295.422L480.428 295.371Z" fill="#FF7333"/>
<path d="M443.573 232.042C443.644 232.47 443.98 232.816 444.041 233.183C444.408 235.536 445.029 237.96 445.865 240.334C446.69 242.697 447.658 245.03 448.36 247.301C448.9 249.033 449.155 251.243 450.021 253.036C450.887 254.829 452.425 255.98 454.625 256.357C456.724 256.713 458.965 256.021 460.167 254.258C460.696 253.474 461.002 252.537 461.022 251.59C461.053 250.418 460.533 249.328 460.095 248.248C459.168 245.967 458.476 243.593 457.549 241.311C456.611 239.03 455.297 236.911 454.37 234.629C453.433 232.347 452.802 229.954 451.875 227.662C450.948 225.38 449.919 223.139 449.002 220.847C448.89 220.582 448.778 220.327 448.513 220.225C448.299 220.144 448.045 219.94 447.821 220.001C446.262 220.439 444.856 221.427 443.99 222.792C442.585 225.013 443.063 229.118 443.583 232.032L443.573 232.042Z" fill="#EFCB9C"/>
<path d="M456.072 251.203C453.077 253.037 450.887 247.414 454.738 247.24C457.478 247.118 458.486 249.726 456.072 251.203Z" fill="#FCFCFC"/>
<path d="M409.663 233.428C409.744 233.855 409.438 234.324 409.52 234.681C409.999 237.013 410.518 239.468 410.579 241.994C410.64 244.5 410.304 247.037 410.437 249.4C410.539 251.213 411.129 253.363 410.956 255.339C410.773 257.346 409.978 259.21 408.053 260.33C406.22 261.41 403.805 261.176 402.053 259.963C401.279 259.424 400.322 258.863 399.965 257.987C399.527 256.897 399.782 255.593 399.812 254.422C399.873 251.957 399.751 249.492 399.812 247.027C399.884 244.572 400.301 242.117 400.372 239.652C400.444 237.186 400.413 234.721 400.474 232.266C400.535 229.801 400.556 227.346 400.597 224.881C400.597 224.596 400.444 224.097 400.658 223.903C400.821 223.75 401.208 223.791 401.432 223.771C403.041 223.628 404.732 223.913 406.026 224.891C408.124 226.48 409.112 230.514 409.663 233.428Z" fill="#EFCB9C"/>
<path d="M360.034 163.996C362.306 163.833 364.414 164.21 366.421 164.944C366.971 162.519 368 160.37 368.835 158.068C369.681 155.745 370.516 153.433 371.637 151.253C372.757 149.073 373.857 146.832 375.253 144.805C376.659 142.778 378.441 141.046 380.081 139.213C381.721 137.379 383.361 135.545 385.225 133.926C387.089 132.316 389.025 130.798 391.083 129.434C393.13 128.079 395.269 126.846 397.49 125.756C399.711 124.666 401.931 123.637 404.284 122.833C406.637 122.028 408.99 121.396 411.425 120.907C413.809 120.429 416.284 120.306 418.769 120.123C421.255 119.94 423.73 119.767 426.155 119.909C428.579 120.052 431.075 120.5 433.469 120.948C435.913 121.407 438.266 122.079 440.599 122.833C442.932 123.586 445.356 124.238 447.577 125.288C449.808 126.347 451.835 127.783 453.903 129.118C455.981 130.452 458.14 131.675 460.035 133.253C461.93 134.832 463.651 136.615 465.332 138.428C467.013 140.241 468.551 142.167 469.987 144.184C471.413 146.18 472.585 148.36 473.756 150.54C474.917 152.699 475.997 155.022 476.883 157.344C478.798 156.285 481.029 155.44 483.352 155.266C486.204 155.063 488.975 155.603 491.369 156.774C493.844 157.986 495.84 159.952 497.389 162.234C498.886 164.444 500.129 167.001 500.333 169.853C500.536 172.706 499.986 175.568 498.825 177.972C497.623 180.458 495.718 182.709 493.447 184.257C491.175 185.806 488.455 186.335 485.593 186.539C483.718 186.671 481.966 186.671 480.265 186.182C479.929 188.566 479.216 190.797 478.605 193.089C477.984 195.411 477.423 197.734 476.527 199.924C475.62 202.145 474.418 204.202 473.257 206.28C472.096 208.369 470.731 210.304 469.325 212.219C467.919 214.134 466.738 216.263 465.098 218.005C463.468 219.747 461.624 221.285 459.78 222.813C457.947 224.331 456.001 225.726 453.994 227.02C451.988 228.314 449.879 229.404 447.709 230.433C445.57 231.451 443.339 232.276 441.057 233.03C438.816 233.774 436.504 234.293 434.141 234.762C431.778 235.23 429.496 235.658 427.082 235.831C424.667 236.005 422.304 235.913 419.951 235.791C417.598 235.668 415.153 235.648 412.831 235.241C410.467 234.823 408.074 234.456 405.812 233.763C403.551 233.071 401.442 231.787 399.283 230.809C397.103 229.821 394.923 228.864 392.896 227.621C390.869 226.378 388.719 225.237 386.855 223.75C384.991 222.263 383.27 220.572 381.599 218.861C379.928 217.16 378.696 215.081 377.239 213.187C375.782 211.292 374.397 209.397 373.185 207.33C371.983 205.282 370.832 203.204 369.885 201.004C368.947 198.834 368.01 196.705 367.338 194.393C365.759 195.085 364.099 195.36 362.285 195.493C359.433 195.697 356.785 195.034 354.391 193.863C351.997 192.692 349.705 190.98 348.157 188.688C346.659 186.478 345.804 183.84 345.59 180.977C345.376 178.115 345.692 175.303 346.853 172.899C348.055 170.414 350.051 168.346 352.323 166.798C354.533 165.29 357.162 164.2 360.014 163.996H360.034Z" fill="#FFE6D9"/>
<path d="M449.563 183.707C449.716 185.897 450.337 187.842 451.488 189.544C452.64 191.245 454.178 192.793 456.072 193.72C457.916 194.616 460.015 195.177 462.205 195.024C464.395 194.871 466.452 194.097 468.143 192.946C469.834 191.795 471.301 190.063 472.218 188.158C473.104 186.314 473.593 184.175 473.44 181.995C473.288 179.805 472.208 177.951 471.067 176.26C469.885 174.508 468.581 172.746 466.687 171.809C464.843 170.912 462.643 170.536 460.463 170.688C458.283 170.841 456.215 171.626 454.524 172.777C452.782 173.968 451.58 175.761 450.663 177.656C449.777 179.5 449.421 181.506 449.573 183.696L449.563 183.707Z" fill="#EDBBA6"/>
<path d="M373.603 189.157C373.755 191.347 374.591 193.323 375.732 195.014C376.872 196.705 378.451 198.304 380.346 199.231C382.19 200.128 384.298 200.25 386.489 200.087C388.679 199.924 390.757 199.517 392.448 198.355C394.19 197.163 395.575 195.473 396.492 193.568C397.378 191.724 397.745 189.615 397.592 187.425C397.439 185.235 396.675 183.269 395.534 181.568C394.352 179.816 392.916 178.105 391.022 177.178C389.178 176.281 386.957 176.006 384.777 176.159C382.597 176.312 380.57 177.116 378.879 178.268C377.188 179.419 375.548 181.018 374.621 182.913C373.735 184.756 373.45 186.946 373.603 189.137V189.157Z" fill="#EDBBA6"/>
<path d="M399.211 172.238C399.354 174.255 401.35 175.67 403.357 175.518C405.364 175.375 407.024 173.694 406.871 171.688C406.729 169.671 404.834 168.122 402.837 168.275C400.841 168.428 399.068 170.231 399.221 172.238H399.211Z" fill="#352F2E"/>
<path d="M422.141 173.316C421.449 173.887 420.46 173.948 419.208 173.113C416.753 171.462 418.006 169.344 420.685 169.425C423.465 169.517 423.506 172.186 422.141 173.316Z" fill="#C66A5C"/>
<path d="M416.65 178.349C418.82 181.191 421.988 183.646 425.777 182.535C427.427 182.046 428.884 181.007 429.831 179.571C430.962 177.85 430.728 175.853 430.545 173.918C430.473 173.093 429.893 172.39 429.017 172.39C428.253 172.39 427.417 173.093 427.489 173.918C427.56 174.682 427.662 175.456 427.672 176.22C427.672 176.841 427.611 177.32 427.315 177.829C426.837 178.634 425.899 179.316 424.973 179.591C424.82 179.632 424.667 179.673 424.514 179.704C424.453 179.714 424.025 179.765 424.3 179.744C424.015 179.765 423.73 179.775 423.445 179.744C423.343 179.744 423.343 179.744 423.445 179.744C423.363 179.734 423.282 179.714 423.2 179.693C423.068 179.663 422.925 179.632 422.793 179.591C422.487 179.5 422.395 179.469 422.069 179.286C421.01 178.715 419.981 177.697 419.299 176.8C418.8 176.148 417.985 175.802 417.21 176.25C416.569 176.627 416.161 177.687 416.66 178.339L416.65 178.349Z" fill="#C66A5C"/>
<path d="M436.983 164.995C435.913 166.024 434.803 167.002 433.733 168.031C433.03 168.703 433.193 169.956 434.039 170.435C435.363 171.178 436.677 171.942 438.001 172.686C438.694 173.083 439.702 172.879 440.089 172.136C440.476 171.392 440.283 170.465 439.539 170.047C438.215 169.304 436.901 168.54 435.577 167.796C435.679 168.601 435.781 169.395 435.882 170.2C436.952 169.171 438.062 168.193 439.132 167.165C439.713 166.615 439.733 165.555 439.132 165.005C438.531 164.455 437.584 164.414 436.972 165.005L436.983 164.995Z" fill="#352F2E"/>
<path d="M369.732 168.478C367.287 168.173 365.474 166.736 364.7 164.078C364.129 162.132 364.201 159.646 364.578 156.906C364.904 154.574 365.067 152.251 365.637 150.092C366.238 147.82 367.46 145.823 368.357 143.756C369.274 141.627 370.139 139.518 371.403 137.613C372.655 135.708 374.214 134.058 375.834 132.387C377.382 130.778 378.961 129.128 380.876 127.732C382.964 126.214 385.236 124.992 387.487 123.749C389.748 122.507 391.979 121.213 394.363 120.235C396.747 119.257 399.263 118.656 401.738 117.933C404.213 117.21 406.658 116.334 409.174 115.834C411.68 115.345 414.227 115.172 416.753 115.009C419.279 114.846 421.826 114.765 424.372 114.826C426.919 114.887 429.445 115.07 431.982 115.264C434.518 115.458 437.075 115.447 439.601 115.671C442.127 115.896 444.664 116.67 447.231 117.332C449.798 117.994 452.202 118.758 454.616 119.766C457.01 120.775 459.292 122.028 461.502 123.372C463.712 124.717 466.015 126.072 467.94 127.763C469.977 129.545 471.811 131.695 473.461 133.997C475.06 136.238 476.232 138.785 477.342 141.331C478.452 143.878 479.328 146.536 479.817 149.216C480.337 152.047 481.355 157.192 479.715 159.718C478.157 162.122 474.989 162.876 471.821 162.733C468.653 162.59 465.546 161.368 463.376 160.808C461.339 160.278 459.322 159.697 457.346 158.933C455.37 158.169 453.424 157.385 451.519 156.478C449.614 155.572 447.862 154.35 445.988 153.402C443.869 152.322 441.536 151.681 439.418 150.581C437.299 149.48 435.302 148.187 433.214 147.066C431.126 145.935 429.089 144.703 427.041 143.511C424.994 142.319 422.875 141.209 420.878 139.936C418.872 138.662 416.834 137.43 414.899 136.044C412.974 134.669 411.191 133.253 409.347 131.746C407.728 133.579 406.159 135.321 404.539 137.155C402.92 138.988 401.249 140.791 399.629 142.625C398.01 144.458 396.207 146.139 394.587 147.973C392.967 149.806 391.429 151.721 389.81 153.555C388.19 155.389 386.621 157.273 385.001 159.117C383.728 160.563 382.241 161.826 380.856 163.161C379.47 164.495 377.993 165.687 376.323 166.645C373.654 168.193 371.576 168.733 369.763 168.509L369.732 168.478Z" fill="#8E816E"/>
<path d="M404.681 255.97C408.134 256.632 408.246 250.47 404.589 251.672C401.981 252.527 401.9 255.43 404.681 255.97Z" fill="#FCFCFC"/>
<path d="M427.581 316.865C424.657 316.956 421.734 316.508 418.82 316.365C415.907 316.223 412.963 316.284 410.06 315.907C407.371 315.561 404.712 314.43 402.023 314.226C400.22 314.094 399.537 315.255 399.385 312.556C399.293 310.885 397.887 307.065 399.364 305.771C400.75 304.549 406.8 306.138 408.614 306.281C410.844 306.454 413.055 306.78 415.286 306.953C417.516 307.126 419.758 307.075 421.988 307.259C424.219 307.442 426.45 307.524 428.671 307.697C429.037 307.727 429.424 307.86 429.72 308.074C430.239 308.44 430.097 309.184 430.066 309.826C429.985 311.242 429.73 315.632 428.345 316.467C428.121 316.6 427.856 316.854 427.591 316.865H427.581Z" fill="#FF7333"/>
<path d="M458.312 312.759C460.94 311.475 463.528 310.07 466.044 308.582C468.56 307.085 470.832 305.221 473.215 303.53C474.152 302.868 476.322 301.88 478.196 300.576C480.132 299.221 481.629 297.601 481.782 296.308C481.823 295.921 481.863 295.564 481.731 295.187C481.12 293.527 480.407 291.877 479.347 290.461C477.361 287.792 472.003 293.669 470.271 294.77C468.387 295.961 466.37 296.96 464.485 298.152C462.601 299.343 460.584 300.331 458.689 301.523C456.805 302.715 454.89 303.876 453.005 305.068C452.7 305.262 452.272 305.567 452.109 305.893C451.824 306.464 452.353 307.258 452.689 307.798C453.423 309.01 455.857 312.565 457.477 312.657C457.742 312.667 458.078 312.871 458.323 312.759H458.312Z" fill="#FF7333"/>
<path d="M461.501 247.647C461.481 246.445 461.399 245.243 461.328 244.052C461.206 242.025 461.043 239.936 460.676 237.94C460.309 235.913 459.515 233.998 458.456 232.235C457.243 230.218 455.41 229.016 453.393 228.273C451.325 227.519 449.125 227.356 446.975 227.937C444.897 228.497 442.88 229.526 441.434 231.339C439.315 234.008 438.928 237.919 435.465 239.437C433.478 240.303 431.095 239.885 428.721 238.989C426.388 238.113 423.974 237.104 422.314 236.198C421.132 235.556 420.002 234.833 418.708 235.179C417.557 235.495 416.62 236.3 415.968 237.339C414.104 240.354 412.739 243.705 411.822 247.169C411.425 248.666 411.312 250.225 411.669 251.732C412.341 254.574 415.01 256.174 417.516 257.539C419.411 258.567 421.295 259.973 423.434 261.063C425.441 262.092 427.631 262.897 429.77 263.773C431.91 264.649 434.049 265.576 436.249 266.116C438.521 266.676 440.843 266.92 443.094 266.9C445.345 266.88 447.566 266.248 449.746 265.392C452.415 264.353 454.758 262.723 456.673 260.584C458.588 258.435 460.289 256.021 460.921 253.209C461.328 251.396 461.522 249.501 461.501 247.637V247.647Z" fill="#FCFCFC"/>
<path d="M446.344 126.225C443.849 125.338 441.292 124.707 438.715 124.136C436.137 123.566 433.54 123.158 430.912 122.873C428.284 122.588 425.666 122.344 423.017 122.323C420.369 122.303 417.73 122.384 415.102 122.608C412.933 122.792 410.712 122.72 408.563 123.087C406.413 123.454 404.325 124.157 402.227 124.758C399.945 125.41 397.826 126.469 395.666 127.427C393.507 128.384 391.296 129.26 389.28 130.493C387.263 131.725 385.246 133.009 383.412 134.496C381.986 135.647 380.071 137.236 378.156 139.049C376.485 140.628 374.682 142.299 373.338 144.102C371.779 146.19 370.964 148.502 370.832 150.519C370.822 150.723 370.618 151.008 370.74 151.171C371.117 151.691 372.044 151.018 372.37 150.468C373.623 148.36 375.11 146.465 376.781 144.723C378.451 142.981 380.244 141.331 382.23 139.925C384.207 138.54 386.376 137.44 388.566 136.37C390.757 135.301 392.875 134.068 395.167 133.294C397.459 132.52 399.935 132.194 402.267 131.685C404.376 131.226 406.495 130.819 408.654 130.544C410.814 130.269 412.943 130.004 415.112 129.861C417.73 129.698 420.369 129.576 422.997 129.586C425.625 129.596 428.233 130.065 430.851 130.269C433.468 130.472 436.107 130.605 438.684 131.033C441.292 131.471 443.869 131.96 446.395 132.632C448.942 133.314 451.376 134.302 453.831 135.27C456.286 136.228 458.874 136.931 461.186 138.204C463.213 139.314 465.199 140.353 467.135 141.453C469.07 142.554 470.863 143.918 472.534 145.559C473.43 144.194 471.454 141.81 468.999 139.722C466.788 137.847 464.252 136.116 463.274 135.331C461.604 133.987 459.821 132.764 458.008 131.623C456.195 130.483 454.32 129.403 452.385 128.476C450.449 127.549 448.382 126.927 446.354 126.214L446.344 126.225Z" fill="#FBE100"/>
<path d="M395.879 206.726L401.939 193.163C398.937 191.492 395.634 190.331 392.179 189.774L385.724 204.224C389.414 203.819 392.982 204.781 395.879 206.726Z" fill="#FFFFA3"/>
<path d="M375.397 228.858L369.026 243.129C371.754 245.243 374.84 246.876 378.153 247.952L384.241 234.333C380.739 233.596 377.606 231.643 375.407 228.858H375.397Z" fill="#FFFFA3"/>
<path d="M401.938 193.163L395.879 206.726C399.22 208.972 401.674 212.521 402.42 216.797C403.854 225.102 398.286 233.002 389.97 234.437C388.007 234.777 386.063 234.72 384.222 234.333L378.135 247.953C382.618 249.406 387.507 249.831 392.472 248.972C408.8 246.15 419.758 230.624 416.936 214.286C415.331 204.98 409.583 197.42 401.929 193.163H401.938Z" fill="#FBE100"/>
<path d="M270.405 233.729C266.243 234.446 263.459 238.401 264.176 242.563C264.893 246.725 268.848 249.509 273.01 248.792L277.38 248.037L284.884 231.227L270.396 233.729H270.405Z" fill="#FBE100"/>
<path d="M284.884 231.227L277.381 248.037L289.604 245.923L297.107 229.113L284.884 231.227Z" fill="#FFFFA3"/>
<path d="M372.331 221.997C370.896 213.692 376.465 205.792 384.78 204.357C385.091 204.3 385.412 204.263 385.724 204.225L392.179 189.775C388.98 189.256 385.639 189.246 382.269 189.822C367.885 192.304 357.682 204.64 357.371 218.703L297.107 229.114L289.604 245.924L296.39 244.753L298.447 256.683C298.995 259.826 301.977 261.931 305.12 261.393L306.243 261.195C309.386 260.647 311.491 257.665 310.953 254.522L308.895 242.592L324.563 239.883L328.905 265.008C329.405 267.887 332.142 269.821 335.021 269.321L337.097 268.963C339.976 268.462 341.911 265.725 341.411 262.846L337.069 237.722L360.948 233.597C362.958 237.344 365.733 240.581 369.027 243.12L375.398 228.85C373.869 226.915 372.784 224.583 372.331 221.978V221.997Z" fill="#FBE100"/>
<path d="M403.163 252.338C405.628 254.345 408.297 254.813 410.549 254.263C412.8 253.713 414.827 251.767 416.477 249.506C417.924 247.51 418.932 245.085 419.513 242.528C420.093 239.961 420.48 237.303 419.859 234.888C419.217 232.403 417.72 230.243 415.448 228.726C413.115 227.157 410.121 226.963 407.482 227.921C406.209 228.39 405.027 229.194 405.119 230.549C405.231 232.24 407.238 233.157 407.747 234.766C406.392 233.86 404.457 234.481 403.764 235.958C403.082 237.435 404.039 239.36 405.598 239.819C403.958 239.839 401.819 240.155 401.299 241.703C400.983 242.64 401.065 243.832 401.768 244.525C402.471 245.218 403.54 245.503 404.447 245.89C403.041 245.136 401.36 246.491 401.228 248.08C401.106 249.679 401.91 251.329 403.153 252.338H403.163Z" fill="#FFE6D9"/>
<path d="M384.208 252.625C383.353 255.681 381.814 257.413 379.655 258.268C377.424 259.154 374.765 259.297 372.117 258.391C369.774 257.596 367.37 256.262 365.414 254.509C363.448 252.747 362.104 250.404 361.217 248.082C360.301 245.678 360.005 243.121 360.983 240.564C361.981 237.936 364.253 235.654 366.962 234.911C368.266 234.554 370.171 234.737 370.874 235.889C371.76 237.335 370.324 239.281 370.833 240.89C371.414 239.372 373.574 238.527 374.989 239.332C376.405 240.136 376.894 242.286 375.886 243.559C377.241 242.632 378.972 241.756 380.297 242.724C381.091 243.304 380.979 244.527 380.806 245.494C380.633 246.462 380.286 247.359 379.767 248.194C380.48 246.758 382.945 246.829 383.964 248.061C384.982 249.294 384.646 251.087 384.218 252.625H384.208Z" fill="#FFE6D9"/>
<path d="M287.49 130.654C278.218 123.342 272.398 112.758 272.398 100.988C272.398 78.8957 292.919 61 318.239 61C343.56 61 364.08 78.9087 364.08 100.988C364.08 123.068 343.56 140.977 318.239 140.977C313.44 140.977 308.817 140.325 304.471 139.139C302.324 140.923 295.113 146.554 286.046 149.709C283.299 150.665 281.333 147.072 282.883 144.611C285.179 140.967 287.314 136.144 287.49 130.654Z" fill="#F0E1DA"/>
<path d="M294.701 118.417H344.632L344.555 84.9962H342.516C342.007 84.9962 341.568 84.6368 341.475 84.1398L340.6 79.5216L327.214 79.5369L326.354 84.1398C326.262 84.6368 325.822 84.9962 325.314 84.9962H294.624L294.701 118.417Z" fill="#C3521E"/>
<path d="M295.749 120.269C294.819 120.269 293.843 119.521 293.581 118.603L286.355 93.2264C286.094 92.3088 286.643 91.5606 287.574 91.5606H336.096C337.026 91.5606 338.003 92.3088 338.264 93.2264L345.494 118.603C345.755 119.521 345.206 120.269 344.276 120.269H295.749Z" fill="#FF7333"/>
<path d="M433.866 68.0976L434.403 70.5347C434.521 71.0658 434.934 71.4789 435.465 71.5969L437.902 72.1339C439.366 72.4585 439.366 74.5415 437.902 74.8661L435.465 75.4031C434.934 75.5211 434.521 75.9342 434.403 76.4653L433.866 78.9024C433.542 80.3659 431.458 80.3659 431.134 78.9024L430.597 76.4653C430.479 75.9342 430.066 75.5152 429.535 75.4031L427.098 74.8661C425.634 74.5415 425.634 72.4585 427.098 72.1339L429.535 71.5969C430.066 71.4789 430.479 71.0658 430.597 70.5347L431.134 68.0976C431.458 66.6341 433.542 66.6341 433.866 68.0976Z" fill="#F0E1DA"/>
<path d="M113.978 240.338L112.635 242.441C112.343 242.9 112.343 243.484 112.635 243.943L113.978 246.046C114.784 247.311 113.311 248.784 112.046 247.978L109.943 246.635C109.484 246.343 108.9 246.343 108.441 246.635L106.338 247.978C105.074 248.784 103.601 247.311 104.406 246.046L105.75 243.943C106.042 243.484 106.046 242.896 105.75 242.441L104.406 240.338C103.601 239.074 105.074 237.601 106.338 238.406L108.441 239.75C108.9 240.042 109.484 240.042 109.943 239.75L112.046 238.406C113.311 237.601 114.784 239.074 113.978 240.338Z" fill="#F0E1DA"/>
<path d="M217.74 82.87C217.74 84.45 216.46 85.74 214.87 85.74C213.28 85.74 212 84.46 212 82.87C212 81.28 213.28 80 214.87 80C216.46 80 217.74 81.29 217.74 82.87Z" fill="#F0E1DA"/>
<path d="M544 157C544 159.753 541.77 162 539 162C536.23 162 534 159.77 534 157C534 154.23 536.23 152 539 152C541.77 152 544 154.247 544 157Z" fill="#F0E1DA"/>
</svg>
