<svg width="646" height="397" viewBox="0 0 646 397" fill="none" xmlns="http://www.w3.org/2000/svg">
<rect width="646" height="397" rx="15" fill="#FEF7EF"/>
<path d="M373.866 78.0976L374.403 80.5347C374.521 81.0658 374.934 81.4789 375.465 81.5969L377.902 82.1339C379.366 82.4585 379.366 84.5415 377.902 84.8661L375.465 85.4031C374.934 85.5211 374.521 85.9342 374.403 86.4653L373.866 88.9024C373.542 90.3659 371.458 90.3659 371.134 88.9024L370.597 86.4653C370.479 85.9342 370.066 85.5152 369.535 85.4031L367.098 84.8661C365.634 84.5415 365.634 82.4585 367.098 82.1339L369.535 81.5969C370.066 81.4789 370.479 81.0658 370.597 80.5347L371.134 78.0976C371.458 76.6341 373.542 76.6341 373.866 78.0976Z" fill="#F0E1DA"/>
<path d="M518 223C518 225.753 515.77 228 513 228C510.23 228 508 225.77 508 223C508 220.23 510.23 218 513 218C515.77 218 518 220.247 518 223Z" fill="#F0E1DA"/>
<path d="M150 323.897C150 325.567 152.22 327.18 155.927 328.621C157.863 329.376 160.279 329.948 163.066 330.612C165.247 331.127 167.633 331.882 170.264 332.339C172.542 332.728 174.987 332.991 177.569 333.323C179.897 333.632 182.342 333.861 184.894 334.112C187.251 334.353 189.706 334.444 192.229 334.627C194.606 334.81 197.051 335.165 199.564 335.302C202.077 335.439 204.415 335.394 206.918 335.485C209.422 335.577 211.779 335.783 214.273 335.828C216.767 335.874 219.143 336 221.627 336C224.111 336 226.556 335.691 228.972 335.657C231.387 335.622 233.92 335.691 236.326 335.611C238.732 335.531 241.285 335.485 243.681 335.359C246.077 335.234 248.639 334.959 251.015 334.776C253.539 334.581 256.003 334.604 258.36 334.364C260.903 334.112 263.348 333.769 265.675 333.46C268.257 333.117 270.643 332.374 272.922 331.973C275.563 331.516 277.959 330.932 280.14 330.417C282.927 329.754 285.284 329.056 287.22 328.301C290.917 326.86 293 325.556 293 323.885C293 322.215 291.073 320.339 287.377 318.898C285.44 318.143 282.986 317.628 280.198 316.964C278.017 316.45 275.563 316.164 272.932 315.706C270.653 315.317 268.238 314.848 265.656 314.516C263.328 314.208 260.903 313.716 258.36 313.464C256.003 313.224 253.539 313.338 251.015 313.144C248.639 312.961 246.204 312.434 243.69 312.297C241.177 312.16 238.84 312.183 236.336 312.091C233.832 312 231.466 312.286 228.982 312.24C226.497 312.194 224.111 312.194 221.627 312.194C219.143 312.194 216.688 311.977 214.273 312.023C211.857 312.068 209.324 311.954 206.918 312.023C204.513 312.091 201.96 312.16 199.564 312.286C197.168 312.411 194.625 313.109 192.249 313.292C189.725 313.487 187.271 313.578 184.914 313.819C182.371 314.07 179.916 314.242 177.589 314.539C175.007 314.882 172.552 315.043 170.273 315.432C167.633 315.889 165.178 316.244 163.007 316.759C160.22 317.422 157.804 318.131 155.868 318.886C152.152 320.362 150 322.238 150 323.897Z" fill="#F0E1DA"/>
<path d="M352 323.897C352 325.567 354.22 327.18 357.927 328.621C359.863 329.376 362.279 329.948 365.066 330.612C367.247 331.127 369.633 331.882 372.264 332.339C374.542 332.728 376.987 332.991 379.569 333.323C381.897 333.632 384.342 333.861 386.894 334.112C389.251 334.353 391.706 334.444 394.229 334.627C396.606 334.81 399.051 335.165 401.564 335.302C404.077 335.439 406.415 335.394 408.918 335.485C411.422 335.577 413.779 335.783 416.273 335.828C418.767 335.874 421.143 336 423.627 336C426.111 336 428.556 335.691 430.972 335.657C433.387 335.622 435.92 335.691 438.326 335.611C440.732 335.531 443.285 335.485 445.681 335.359C448.077 335.234 450.639 334.959 453.015 334.776C455.539 334.581 458.003 334.604 460.36 334.364C462.903 334.112 465.348 333.769 467.675 333.46C470.257 333.117 472.643 332.374 474.922 331.973C477.563 331.516 479.959 330.932 482.14 330.417C484.927 329.754 487.284 329.056 489.22 328.301C492.917 326.86 495 325.556 495 323.885C495 322.215 493.073 320.339 489.377 318.898C487.44 318.143 484.986 317.628 482.198 316.964C480.017 316.45 477.563 316.164 474.932 315.706C472.653 315.317 470.238 314.848 467.656 314.516C465.328 314.208 462.903 313.716 460.36 313.464C458.003 313.224 455.539 313.338 453.015 313.144C450.639 312.961 448.204 312.434 445.69 312.297C443.177 312.16 440.84 312.183 438.336 312.091C435.832 312 433.466 312.286 430.982 312.24C428.497 312.194 426.111 312.194 423.627 312.194C421.143 312.194 418.688 311.977 416.273 312.023C413.857 312.068 411.324 311.954 408.918 312.023C406.513 312.091 403.96 312.16 401.564 312.286C399.168 312.411 396.625 313.109 394.249 313.292C391.725 313.487 389.271 313.578 386.914 313.819C384.371 314.07 381.916 314.242 379.589 314.539C377.007 314.882 374.552 315.043 372.273 315.432C369.633 315.889 367.178 316.244 365.007 316.759C362.22 317.422 359.804 318.131 357.868 318.886C354.152 320.362 352 322.238 352 323.897Z" fill="#F0E1DA"/>
<path d="M192 286C192.112 288.087 191.933 290.932 192.067 294.098C192.169 296.644 192.719 299.397 192.831 302.161C192.944 304.925 192.888 307.701 193.011 310.247C193.169 313.413 193.494 316.223 193.674 318.299C193.697 318.597 193.416 319.124 193.618 319.331C193.843 319.56 194.371 319.377 194.685 319.388C196.854 319.457 199.011 319.48 201.18 319.537C203.348 319.595 205.506 319.755 207.674 319.801C209.618 319.847 211.584 319.778 213.494 319.801C214.258 319.801 216.36 320.249 216.944 319.801C217.371 319.48 217.427 318.689 217.483 318.138C217.764 315.626 217.865 313.114 218.045 310.602C218.225 308.091 218.528 305.579 218.629 303.067C218.73 300.555 218.449 298.032 218.506 295.508C218.562 292.985 218.978 290.485 219 287.961" fill="#FFE6D9"/>
<path d="M220.991 297.584C221.474 296.478 221.373 294.775 221.788 293.647C222.575 291.502 223.766 289.512 224.597 287.377C225.383 285.354 225.833 283.308 225.922 281.129C226.012 278.973 226.102 276.794 225.709 274.671C225.417 273.123 224.743 271.641 223.429 270.734C221.62 269.495 219.71 270.347 217.733 270.336C215.239 270.336 212.734 269.916 210.24 270.015C207.746 270.115 205.275 270.601 202.792 270.8C200.31 270.999 197.782 270.867 195.299 271.176C192.817 271.486 188.413 271.331 188.054 274.007C187.874 275.39 188.188 277.303 188.368 278.685C188.773 281.892 189.278 285.099 189.683 288.306C190.087 291.513 191.008 294.665 191.413 297.872C191.469 298.347 191.929 298.845 192.839 298.79C197.321 298.779 197.321 298.933 201.804 298.944C206.286 298.956 206.297 298.989 210.779 299C215.262 299.011 215.273 298.569 219.755 298.557C220.553 298.502 220.71 298.148 220.968 297.562L220.991 297.584Z" fill="#FF7333"/>
<path d="M252 286C251.887 288.094 251.469 290.913 251.333 294.088C251.231 296.642 251.22 299.427 251.095 302.2C250.982 304.972 250.813 307.745 250.677 310.299C250.519 313.475 250.202 316.294 250.021 318.376C249.999 318.675 250.101 318.848 249.897 319.066C249.671 319.296 249.49 319.319 249.173 319.331C246.991 319.4 244.82 319.791 242.649 319.849C240.479 319.906 238.285 319.584 236.103 319.63C234.147 319.676 232.168 319.803 230.246 319.814C229.477 319.814 227.431 320.24 226.843 319.803C226.413 319.481 226.323 318.779 226.266 318.226C225.984 315.707 226.052 313.176 225.871 310.656C225.69 308.136 225.384 305.628 225.283 303.108C225.181 300.589 225.17 298.069 225.113 295.538C225.057 293.018 225.034 290.499 225 287.967" fill="#FFE6D9"/>
<path d="M221 272.41C221.834 270.587 224.948 270.555 227.129 270.17C229.509 269.753 231.956 269.709 234.358 269.467C236.761 269.226 239.174 269.061 241.588 269.006C244.001 268.951 246.404 269.281 248.817 269.412C249.54 269.456 250.274 269.325 250.997 269.379C252.188 269.467 253.3 269.72 254.301 270.357C256.214 271.565 256.181 274.64 255.78 278.044C255.391 281.295 254.568 284.644 254.356 286.368C253.889 290.091 253.745 293.847 253.278 297.57C253.222 298.042 252.365 298.163 251.453 298.108C246.927 298.218 246.938 298.591 242.4 298.734C237.862 298.877 237.862 298.811 233.335 298.954C228.808 299.096 228.797 298.855 224.259 298.954C223.336 298.899 222.746 298.679 222.768 298.196C222.635 296.175 222.535 294.155 222.401 292.134C222.268 290.113 222.268 288.082 222.135 286.061" fill="#FF7333"/>
<path d="M215.63 316.218C215.083 316.153 214.559 316.218 214.013 316.24C212.497 316.327 210.959 315.946 209.443 316.033C207.091 316.175 204.75 316.414 202.398 316.588C200.046 316.762 197.672 316.752 195.342 317.013C192.478 317.329 189.223 317.906 187.25 319.843C185.979 321.084 185.433 323.175 186.793 324.633C187.796 325.711 189.635 325.493 191.118 325.58C193.537 325.722 195.989 326.081 198.475 325.983C200.96 325.885 203.357 325.363 205.798 325.145C208.239 324.927 210.758 324.971 213.166 324.742C214.214 324.644 215.139 324.241 215.986 323.469C217.424 322.14 219.185 317.231 216.9 316.044C216.555 315.87 216.02 316.273 215.63 316.229V316.218Z" fill="#828282"/>
<path d="M228.304 316.158C228.855 316.092 229.44 315.973 230.003 316.006C231.533 316.092 233.03 316.57 234.56 316.657C236.934 316.798 239.319 316.657 241.693 316.831C244.068 317.005 246.442 317.146 248.805 317.407C251.696 317.722 254.768 318.319 256.76 320.253C258.042 321.491 258.56 323.109 257.187 324.565C256.175 325.64 254.599 325.705 253.092 325.792C250.65 325.933 248.174 326.064 245.677 325.966C243.179 325.868 240.715 325.792 238.25 325.564C235.786 325.336 233.288 324.923 230.858 324.695C229.8 324.597 228.518 324.749 227.662 323.967C226.211 322.642 224.973 317.798 227.28 316.614C227.629 316.44 227.921 316.201 228.315 316.158H228.304Z" fill="#828282"/>
<path d="M387 262C387.221 265.856 387.704 265.824 387.925 269.68C388.145 273.535 388.166 273.535 388.387 277.391C388.608 281.247 388.639 281.247 388.86 285.102C389.08 288.958 388.923 288.968 389.143 292.824C389.364 296.679 389.322 296.679 389.553 300.535C389.784 304.391 389.553 304.411 389.763 308.267C389.973 312.123 390.226 312.112 390.446 315.968C390.509 316.968 391.171 318.021 392.033 318C395.962 317.885 395.952 317.77 399.881 317.656C403.811 317.541 403.811 317.5 407.74 317.385C411.67 317.27 411.67 317.218 415.6 317.104C416.472 317.083 416.871 316.145 416.839 315.124C417.07 311.362 417.501 311.383 417.774 307.631C418.048 303.88 417.732 303.849 418.006 300.087C418.279 296.325 418.52 296.346 418.794 292.584C419.067 288.822 419.308 288.843 419.582 285.081C419.855 281.32 419.582 281.299 419.855 277.537C420.128 273.775 420.286 273.786 420.559 270.013C420.832 266.241 420.727 266.241 421 262.469" fill="#828282"/>
<path d="M407 266.268C408.368 269.878 408.347 269.889 409.715 273.499C411.083 277.11 411.282 277.036 412.65 280.647C414.018 284.257 413.997 284.268 415.365 287.889C416.733 291.51 416.816 291.468 418.184 295.079C419.552 298.689 419.354 298.773 420.722 302.383C422.09 305.994 422.184 305.963 423.552 309.584C424.92 313.205 425.275 313.068 426.612 316.7C426.873 317.673 427.416 318.155 428.241 317.956C432.032 317.045 432.126 317.433 435.927 316.522C439.728 315.612 439.728 315.632 443.529 314.722C447.33 313.812 447.351 313.906 451.153 312.985C451.998 312.786 452.134 311.561 451.894 310.557C451.341 306.81 451.863 306.737 451.351 302.98C450.839 299.223 450.651 299.254 450.14 295.497C449.628 291.74 449.795 291.719 449.283 287.973C448.772 284.226 448.886 284.205 448.375 280.459C447.863 276.712 447.351 276.775 446.84 273.018C446.328 269.261 446.641 269.219 446.13 265.462C445.618 261.705 445.263 261.757 444.751 258" fill="#828282"/>
<path d="M454.85 269.005C454.84 266.524 454.757 263.97 454.57 261.385C454.383 258.8 453.875 256.381 453.533 253.837C453.191 251.294 453.056 248.771 452.538 246.279C452.019 243.788 451.241 241.358 450.546 238.919C449.852 236.479 449.323 233.946 448.431 231.589C447.539 229.232 446.191 226.99 445.071 224.737C443.951 222.484 442.769 220.179 441.4 218.072C440.352 216.463 439.139 214.853 437.376 214.116C436.059 213.566 434.597 213.618 433.166 213.67C430.117 213.784 427.068 213.774 424.019 213.981C420.97 214.189 417.921 214.324 414.893 214.635C412.788 214.843 410.631 215.539 408.391 215.705C406.151 215.871 404.014 215.985 401.816 216.016C399.617 216.047 397.419 215.653 395.262 215.466C393.105 215.279 390.875 214.957 388.801 214.449C386.001 213.753 383.17 213.068 380.473 212.019C377.777 210.971 375.185 209.621 372.436 208.77C369.688 207.918 366.868 207.077 363.933 207.005C360.241 206.911 356.238 208.178 353.977 211.095C352.131 213.473 351.613 216.473 352.276 219.432C352.899 222.204 354.423 225.017 356.051 227.322C357.43 229.284 359.204 230.945 360.853 232.689C362.502 234.434 364.213 236.105 366.079 237.61C367.946 239.116 369.802 240.673 371.856 241.898C373.909 243.123 376.108 244.141 378.327 245.065C379.623 245.615 381.106 246.103 381.853 247.297C382.361 248.106 382.475 249.124 382.579 250.069C382.89 252.778 383.087 255.312 383.419 257.772C383.771 260.357 384.362 262.859 384.362 265.465C384.362 267.915 383.896 270.417 383.253 273.127C382.351 276.729 383.149 279.127 384.912 280.539C386.675 281.951 389.537 282.273 392.545 282.325C395.324 282.367 398.103 282.387 400.882 282.418C403.662 282.45 406.441 282.439 409.22 282.46C411.502 282.481 413.773 282.709 416.054 282.72C418.336 282.73 420.617 282.917 422.888 282.917C425.16 282.917 427.451 282.512 429.723 282.512C431.994 282.512 434.286 283.01 436.567 283C438.849 282.989 441.13 282.865 443.401 282.854C446.564 282.834 451.988 282.958 453.917 279.885C455.545 277.29 454.86 271.881 454.84 268.995L454.85 269.005Z" fill="#FFE02C"/>
<path d="M185.15 268.821C185.16 266.307 185.243 263.72 185.43 261.1C185.617 258.481 186.125 256.031 186.467 253.454C186.809 250.877 186.944 248.321 187.462 245.796C187.981 243.272 188.759 240.81 189.454 238.339C190.148 235.867 190.677 233.3 191.569 230.913C192.461 228.525 193.809 226.253 194.929 223.97C196.049 221.688 197.231 219.353 198.6 217.218C199.648 215.587 200.861 213.957 202.624 213.21C203.941 212.653 205.403 212.705 206.834 212.758C209.883 212.873 212.932 212.863 215.981 213.073C219.03 213.284 222.079 213.42 225.107 213.736C227.212 213.946 229.369 214.651 231.609 214.819C233.849 214.988 235.986 215.103 238.184 215.135C240.383 215.166 242.581 214.767 244.738 214.577C246.895 214.388 249.125 214.062 251.199 213.547C253.999 212.842 256.83 212.148 259.527 211.085C262.223 210.023 264.815 208.656 267.564 207.793C270.312 206.93 273.132 206.078 276.067 206.005C279.759 205.91 283.762 207.193 286.023 210.149C287.869 212.558 288.387 215.598 287.724 218.595C287.101 221.404 285.577 224.254 283.949 226.589C282.57 228.577 280.796 230.26 279.147 232.027C277.498 233.795 275.787 235.488 273.921 237.013C272.054 238.538 270.198 240.116 268.144 241.357C266.091 242.599 263.892 243.629 261.673 244.565C260.377 245.123 258.894 245.617 258.147 246.827C257.639 247.647 257.525 248.678 257.421 249.635C257.11 252.381 256.913 254.947 256.581 257.44C256.229 260.059 255.638 262.594 255.638 265.234C255.638 267.717 256.104 270.251 256.747 272.997C257.649 276.647 256.851 279.076 255.088 280.507C253.325 281.937 250.463 282.264 247.455 282.316C244.676 282.358 241.897 282.379 239.118 282.411C236.338 282.442 233.559 282.432 230.78 282.453C228.498 282.474 226.227 282.705 223.946 282.716C221.664 282.726 219.383 282.916 217.111 282.916C214.84 282.916 212.549 282.505 210.277 282.505C208.006 282.505 205.714 283.01 203.433 283C201.151 282.989 198.87 282.863 196.599 282.853C193.436 282.832 188.012 282.958 186.083 279.844C184.455 277.215 185.139 271.735 185.16 268.81L185.15 268.821Z" fill="#4D5469"/>
<path d="M272.151 297.612C270.479 298.354 268.244 298.167 266.205 297.612C270.667 288.689 271.784 268.607 271.784 268.607H277.73C277.73 268.607 276.246 291.657 272.151 297.612Z" fill="url(#paint0_linear_1_10250)"/>
<path d="M285.831 268.607H279.885V302.029H285.831V268.607Z" fill="url(#paint1_linear_1_10250)"/>
<path d="M295.049 268.607H289.104V298.73H295.049V268.607Z" fill="url(#paint2_linear_1_10250)"/>
<path d="M304.267 261.91H298.321V295.332H304.267V261.91Z" fill="url(#paint3_linear_1_10250)"/>
<path d="M313.495 268.607H307.549V298.73H313.495V268.607Z" fill="url(#paint4_linear_1_10250)"/>
<path d="M322.712 261.91H316.767V302.664H322.712V261.91Z" fill="url(#paint5_linear_1_10250)"/>
<path d="M331.94 268.607H325.994V298.73H331.94V268.607Z" fill="url(#paint6_linear_1_10250)"/>
<path d="M341.159 268.607H335.213V302.029H341.159V268.607Z" fill="url(#paint7_linear_1_10250)"/>
<path d="M350.376 268.607H344.431V298.73H350.376V268.607Z" fill="url(#paint8_linear_1_10250)"/>
<path d="M359.604 261.91H353.658V295.332H359.604V261.91Z" fill="url(#paint9_linear_1_10250)"/>
<path d="M373.105 298.542C370.869 299.66 369.197 299.847 367.525 299.66C361.946 294.268 362.322 268.607 362.322 268.607H368.268C368.268 268.607 368.08 288.501 373.105 298.542Z" fill="url(#paint10_linear_1_10250)"/>
<path d="M288.692 240.344L267.743 271.763H291.437L312.377 240.344H288.692Z" fill="#FFA770"/>
<path d="M264.426 240.344C261.833 240.344 259.723 242.445 259.723 245.047V270.976C259.723 271.244 259.749 271.512 259.794 271.772H267.743L288.692 240.353H264.426V240.344Z" fill="#FF7333"/>
<path d="M375.867 240.344H312.377L291.428 271.763H380.49C380.534 271.504 380.561 271.235 380.561 270.967V245.038C380.561 242.445 378.46 240.335 375.858 240.335L375.867 240.344Z" fill="#FF7333"/>
<path d="M259.794 271.763C260.169 273.98 262.101 275.67 264.425 275.67H375.876C378.2 275.67 380.123 273.98 380.507 271.763H259.794Z" fill="#828282"/>
<path d="M371.182 245.726H269.11V194.61H354.399C359.773 197.212 370.189 204.276 371.182 211.974V245.726Z" fill="#ACE6FF"/>
<path d="M353 206.5L354.5 194.5C365.7 199.3 372.5 210 371 214C366.5 209 357.333 206 353 206.5Z" fill="white"/>
<path d="M374.526 244.681H265.767V246.666H374.526V244.681Z" fill="#828282"/>
<path d="M313.914 204.088H279.84C278.571 204.088 277.542 205.117 277.542 206.386V207.924C277.542 209.193 278.571 210.221 279.84 210.221H313.914C315.183 210.221 316.212 209.193 316.212 207.924V206.386C316.212 205.117 315.183 204.088 313.914 204.088Z" fill="white"/>
<path d="M341.569 220.28H279.688C278.499 220.28 277.533 219.315 277.533 218.125C277.533 216.936 278.499 215.971 279.688 215.971H341.56C342.749 215.971 343.715 216.936 343.715 218.125C343.715 219.315 342.749 220.28 341.56 220.28H341.569Z" fill="white"/>
<path d="M332.109 227.156H279.688C278.499 227.156 277.533 226.191 277.533 225.001C277.533 223.812 278.499 222.847 279.688 222.847H332.101C333.29 222.847 334.255 223.812 334.255 225.001C334.255 226.191 333.29 227.156 332.101 227.156H332.109Z" fill="white"/>
<path d="M354.891 234.04H279.688C278.499 234.04 277.533 233.074 277.533 231.885C277.533 230.696 278.499 229.73 279.688 229.73H354.882C356.072 229.73 357.037 230.696 357.037 231.885C357.037 233.074 356.072 234.04 354.882 234.04H354.891Z" fill="white"/>
<path d="M366.408 258.101C368.052 258.101 369.385 256.768 369.385 255.124C369.385 253.48 368.052 252.146 366.408 252.146C364.764 252.146 363.431 253.48 363.431 255.124C363.431 256.768 364.764 258.101 366.408 258.101Z" fill="#4D5469"/>
<path d="M366.408 266.658C368.052 266.658 369.385 265.325 369.385 263.681C369.385 262.036 368.052 260.703 366.408 260.703C364.764 260.703 363.431 262.036 363.431 263.681C363.431 265.325 364.764 266.658 366.408 266.658Z" fill="white"/>
<path d="M443.543 113.762C443.574 111.392 443.784 109.001 444.905 106.934C446.027 104.868 447.578 102.947 449.422 101.475C451.267 100.003 453.604 99.2931 455.868 98.6772C458.132 98.0613 460.458 97.863 462.806 98.0926C465.154 98.3223 467.491 98.6876 469.671 99.6167C471.851 100.546 473.769 101.955 475.571 103.469C477.489 105.076 478.988 107.028 480.34 109.116C481.692 111.204 482.813 113.386 483.547 115.766C484.281 118.146 485.088 120.568 485.14 123.052C485.193 125.537 484.511 128.167 483.83 130.568C485.717 129.566 487.97 128.71 490.087 128.669C492.204 128.627 494.353 129.19 496.333 129.973C498.314 130.756 500.148 131.946 501.647 133.429C503.146 134.911 504.424 136.707 505.294 138.638C506.164 140.569 506.835 142.657 507.066 144.765C507.296 146.874 506.919 149.108 506.521 151.175C509.287 150.413 512.212 149.505 515.052 149.954C517.892 150.403 520.554 152.49 520.952 155.33C521.173 156.885 520.596 158.357 519.904 159.766C518.783 162.052 517.211 164.015 515.261 165.654C514.433 166.353 513.605 166.907 512.516 166.99C510.818 167.115 509.497 166.03 508.355 164.777C506.196 162.376 504.215 159.892 502.821 156.99C501.867 159.025 500.159 160.153 498.209 161.134C496.26 162.115 494.227 163.065 492.005 163.034C489.783 163.002 487.53 162.418 485.612 161.426C483.694 160.434 482.227 158.649 480.738 157.031C479.25 155.413 477.825 153.785 476.766 151.843C475.708 149.901 474.859 147.678 474.125 145.632C472.029 147.292 469.66 148.889 467.134 149.714C464.609 150.538 461.884 151.06 459.222 151.05C456.56 151.039 453.793 150.611 451.277 149.766C448.762 148.92 446.362 147.511 444.276 145.83C442.191 144.15 440.356 142.083 439.004 139.796C437.652 137.51 436.971 134.859 436.416 132.26C435.86 129.66 435.934 127.019 436.217 124.389C436.5 121.758 436.887 119.096 438.093 116.716" fill="#8E816E"/>
<path d="M414.011 317.257C413.511 317.178 412.989 316.99 412.478 317C411.088 317.04 409.708 317.307 408.318 317.346C406.162 317.406 403.985 317.139 401.828 317.228C399.671 317.317 397.515 317.564 395.358 317.722C392.731 317.93 390.064 318.582 388.203 320.283C387.007 321.37 386.476 322.567 387.682 323.931C388.571 324.93 389.818 325.592 391.178 325.721C393.396 325.918 395.675 326.017 397.954 325.998C400.233 325.978 402.451 325.503 404.7 325.375C406.949 325.246 409.228 325.009 411.436 324.87C412.407 324.811 413.367 324.831 414.165 324.149C415.524 322.982 417.057 318.731 414.993 317.584C414.686 317.416 414.359 317.317 414.001 317.267L414.011 317.257Z" fill="#D66D5F"/>
<path d="M449.425 313.038C448.908 313.059 448.349 312.935 447.832 313.048C446.439 313.366 445.036 313.664 443.632 313.992C441.459 314.495 439.391 315.357 437.227 315.89C435.064 316.424 432.901 316.896 430.759 317.511C428.142 318.26 425.156 318.958 423.637 321.061C422.666 322.415 422.75 323.995 424.27 325.134C425.388 325.965 426.771 326.098 428.174 325.944C430.453 325.688 432.806 325.555 435.107 325.062C437.407 324.57 439.654 324.057 441.902 323.462C444.149 322.867 446.323 321.902 448.528 321.307C449.489 321.051 450.333 320.671 450.998 319.809C452.116 318.342 452.749 314.013 450.407 313.274C450.058 313.161 449.795 313.038 449.415 313.048L449.425 313.038Z" fill="#D66D5F"/>
<path d="M394.097 215.938C393.394 217.67 392.423 219.34 391.948 221.155C391.472 222.969 391.41 224.876 391.162 226.742C390.801 229.453 390.914 232.526 392.857 234.278C394.706 235.938 397.578 235.67 399.49 234.093C401.401 232.515 402.259 229.917 403.23 227.536C404.201 225.155 405.234 222.979 406.877 221.072C406.98 223.567 407.621 225.814 408.582 228.082C409.543 230.35 410.844 232.701 412.673 234.34C415.08 236.495 417.725 237.01 420.102 237C422.705 236.99 425.174 236.051 427.293 234.041C429.08 232.35 430.878 230.196 432.035 227.515C433.006 225.268 433.275 222.742 433.791 220.299C434.308 217.856 434.638 215.443 435 213" fill="#FCFCFC"/>
<path d="M370.989 161.834C370.844 164.724 370.067 167.459 368.596 169.732C367.125 172.005 364.816 173.835 362.33 175.111C359.844 176.386 357.192 177.126 354.292 176.982C351.381 176.838 348.605 176.026 346.327 174.555C344.048 173.085 341.925 170.904 340.651 168.426C339.377 165.947 338.879 163.15 339.024 160.27C339.169 157.391 340.35 154.81 341.811 152.537C343.271 150.264 345.26 148.104 347.746 146.829C350.232 145.554 352.976 144.875 355.887 145.019C358.798 145.163 361.511 146.181 363.78 147.652C366.048 149.122 367.985 151.344 369.259 153.822C370.533 156.301 371.124 158.954 370.979 161.844L370.989 161.834Z" fill="#FFE6D9"/>
<path d="M269.011 158.834C269.156 161.724 269.933 164.459 271.404 166.732C272.875 169.005 275.184 170.835 277.67 172.111C280.156 173.386 282.808 174.126 285.708 173.982C288.619 173.838 291.395 173.026 293.673 171.555C295.952 170.085 298.075 167.904 299.349 165.426C300.623 162.947 301.121 160.15 300.976 157.27C300.831 154.391 299.65 151.81 298.189 149.537C296.729 147.264 294.74 145.104 292.254 143.829C289.768 142.554 287.024 141.875 284.113 142.019C281.202 142.163 278.489 143.181 276.22 144.652C273.952 146.122 272.015 148.344 270.741 150.822C269.467 153.301 268.876 155.954 269.021 158.844L269.011 158.834Z" fill="#FFE6D9"/>
<path d="M420.7 107.427C423.128 107.698 425.494 108.032 427.807 108.575C430.121 109.118 432.56 109.567 434.8 110.403C437.041 111.238 439.198 112.418 441.324 113.525C443.45 114.632 445.555 115.854 447.524 117.211C449.494 118.569 451.266 120.24 453.069 121.827C454.871 123.414 456.674 125.012 458.269 126.808C459.863 128.604 461.562 130.348 462.938 132.332C464.313 134.316 465.491 136.436 466.616 138.576C467.742 140.717 468.794 142.889 469.649 145.155C470.503 147.421 471.16 149.635 471.744 151.995C473.859 151.128 476.1 150.992 478.528 151.117C481.456 151.264 484.093 152.099 486.385 153.592C488.678 155.086 490.783 157.143 492.065 159.659C493.347 162.176 494.128 164.922 493.983 167.846C493.837 170.78 492.732 173.495 491.252 175.803C489.772 178.111 487.501 179.97 484.999 181.264C482.498 182.559 479.841 183.583 476.923 183.437C474.943 183.343 472.952 182.403 471.243 181.661C470.587 184.157 469.909 186.778 468.961 189.117C468.013 191.456 466.637 193.67 465.376 195.873C464.115 198.077 462.938 200.374 461.406 202.41C459.874 204.446 457.998 206.201 456.216 208.028C454.434 209.856 452.777 211.819 450.766 213.406C448.754 214.993 446.545 216.278 444.356 217.593C442.168 218.909 440 220.287 437.656 221.3C435.311 222.313 432.883 223.128 430.423 223.838C427.964 224.548 425.473 224.987 422.93 225.362C420.387 225.738 417.897 225.937 415.312 225.989C412.728 226.041 410.248 225.905 407.684 225.624C405.12 225.342 402.473 225.122 399.993 224.517C397.513 223.911 395.105 222.731 392.719 221.791C390.332 220.851 387.998 219.703 385.747 218.45C383.475 217.186 381.256 215.881 379.182 214.346C377.108 212.811 375.034 211.234 373.179 209.438C371.324 207.642 369.49 205.783 367.885 203.747C366.28 201.711 364.779 199.58 363.435 197.356C362.091 195.132 360.882 192.835 359.84 190.443C358.798 188.052 357.776 185.661 357.057 183.155C356.338 180.648 356.224 178.038 355.838 175.459C355.452 172.879 355.338 170.352 355.296 167.731C355.254 165.11 354.806 162.552 355.098 159.941C355.39 157.331 356.234 154.835 356.838 152.339C357.443 149.844 358.193 147.316 359.121 144.925C360.048 142.534 360.965 140.038 362.195 137.783C363.425 135.527 364.727 133.209 366.249 131.12C367.77 129.032 369.855 127.372 371.637 125.492C373.419 123.612 375.159 121.691 377.17 120.062C379.182 118.433 381.318 116.961 383.527 115.614C385.737 114.266 387.936 112.857 390.301 111.802C392.667 110.747 395.116 109.86 397.607 109.118C400.097 108.377 402.682 108.22 405.266 107.824C407.851 107.427 410.352 107.061 412.957 107.009C415.562 106.957 418.084 107.134 420.69 107.427H420.7Z" fill="#FFE6D9"/>
<path d="M219.3 105.423C216.872 105.692 214.506 106.024 212.193 106.562C209.879 107.101 207.44 107.546 205.2 108.374C202.959 109.203 200.802 110.373 198.676 111.47C196.55 112.568 194.445 113.779 192.476 115.125C190.506 116.472 188.734 118.128 186.931 119.702C185.129 121.276 183.326 122.86 181.731 124.641C180.137 126.422 178.438 128.151 177.062 130.119C175.687 132.086 174.509 134.188 173.384 136.311C172.258 138.434 171.206 140.587 170.351 142.834C169.497 145.081 168.84 147.276 168.256 149.617C166.141 148.757 163.9 148.622 161.472 148.747C158.544 148.892 155.907 149.72 153.615 151.201C151.322 152.681 149.217 154.721 147.935 157.217C146.653 159.712 145.872 162.436 146.017 165.335C146.163 168.244 147.268 170.937 148.748 173.225C150.228 175.513 152.499 177.356 155.001 178.64C157.502 179.924 160.159 180.939 163.077 180.794C165.057 180.701 167.048 179.769 168.757 179.034C169.413 181.509 170.091 184.108 171.039 186.427C171.987 188.746 173.363 190.942 174.624 193.126C175.885 195.311 177.062 197.589 178.594 199.608C180.126 201.628 182.002 203.367 183.784 205.179C185.566 206.991 187.223 208.938 189.234 210.512C191.246 212.086 193.455 213.359 195.644 214.664C197.832 215.969 200 217.335 202.344 218.34C204.689 219.344 207.117 220.152 209.577 220.856C212.036 221.56 214.527 221.995 217.07 222.368C219.613 222.741 222.103 222.937 224.688 222.989C227.272 223.041 229.752 222.906 232.316 222.627C234.88 222.347 237.527 222.13 240.007 221.529C242.487 220.929 244.895 219.758 247.281 218.827C249.668 217.895 252.002 216.756 254.253 215.513C256.525 214.26 258.744 212.966 260.818 211.444C262.892 209.922 264.966 208.358 266.821 206.577C268.676 204.796 270.51 202.953 272.115 200.934C273.72 198.915 275.221 196.802 276.565 194.597C277.909 192.391 279.118 190.113 280.16 187.742C281.202 185.371 282.224 183 282.943 180.515C283.662 178.03 283.776 175.441 284.162 172.883C284.548 170.326 284.662 167.82 284.704 165.221C284.746 162.622 285.194 160.085 284.902 157.496C284.61 154.908 283.766 152.433 283.162 149.958C282.557 147.483 281.807 144.978 280.879 142.606C279.952 140.235 279.035 137.761 277.805 135.524C276.575 133.287 275.273 130.989 273.751 128.918C272.23 126.847 270.145 125.2 268.363 123.337C266.581 121.473 264.841 119.568 262.83 117.952C260.818 116.337 258.682 114.877 256.473 113.541C254.263 112.205 252.064 110.808 249.699 109.762C247.333 108.716 244.884 107.836 242.393 107.101C239.903 106.365 237.318 106.21 234.734 105.817C232.149 105.423 229.648 105.061 227.043 105.009C224.438 104.957 221.916 105.133 219.31 105.423H219.3Z" fill="#FFE6D9"/>
<path d="M426.894 182.308C426.643 184.541 426.529 186.764 427.374 188.683C428.219 190.603 429.742 192.419 431.485 193.702C433.227 194.985 435.272 195.705 437.505 195.956C439.738 196.206 441.793 195.549 443.713 194.693C445.633 193.838 447.313 192.533 448.596 190.791C449.879 189.048 450.735 187.202 450.985 184.969C451.236 182.736 450.954 180.597 450.119 178.677C449.284 176.758 447.855 175.026 446.123 173.742C444.391 172.459 442.45 171.749 440.218 171.499C437.985 171.249 435.752 171.269 433.843 172.115C431.933 172.96 430.055 174.441 428.772 176.184C427.488 177.926 427.155 180.065 426.915 182.298L426.894 182.308Z" fill="#EDBBA6"/>
<path d="M358.991 176.685C358.97 179.94 360.023 182.84 361.797 185.063C363.738 187.494 366.44 188.882 369.539 188.902C372.638 188.923 375.424 187.64 377.396 185.23C379.201 183.039 380.161 180.086 380.181 176.831C380.202 173.575 379.086 170.758 377.323 168.546C375.382 166.115 372.794 164.279 369.706 164.258C366.618 164.237 363.811 165.875 361.829 168.285C360.023 170.477 359.022 173.44 358.991 176.695V176.685Z" fill="#EDBBA6"/>
<path d="M213.109 179.627C213.36 181.859 213.474 184.082 212.629 186.002C211.784 187.921 210.261 189.737 208.518 191.02C206.776 192.304 204.731 193.024 202.498 193.274C200.265 193.524 198.21 192.867 196.29 192.011C194.37 191.156 192.69 189.852 191.407 188.109C190.124 186.367 189.268 184.52 189.018 182.287C188.767 180.054 189.049 177.916 189.884 175.996C190.718 174.076 192.148 172.344 193.88 171.061C195.612 169.777 197.553 169.068 199.785 168.817C202.018 168.567 204.251 168.588 206.16 169.433C208.07 170.278 209.948 171.76 211.231 173.502C212.514 175.245 212.848 177.383 213.088 179.616L213.109 179.627Z" fill="#EDBBA6"/>
<path d="M281.012 174.003C281.033 177.258 279.979 180.159 278.206 182.381C276.265 184.812 273.563 186.2 270.464 186.221C267.365 186.242 264.579 184.958 262.607 182.548C260.802 180.357 259.842 177.404 259.822 174.149C259.801 170.894 260.917 168.077 262.68 165.865C264.621 163.434 267.209 161.597 270.297 161.576C273.385 161.556 276.192 163.194 278.174 165.604C279.979 167.795 280.981 170.758 281.012 174.013V174.003Z" fill="#EDBBA6"/>
<path d="M417.879 172.772C417.649 174.827 418.933 176.622 420.978 176.841C423.023 177.06 424.89 175.62 425.12 173.565C425.35 171.51 423.847 169.673 421.792 169.454C419.736 169.235 418.109 170.717 417.879 172.772Z" fill="#352F2E"/>
<path d="M382.196 168.839C381.966 170.894 383.74 172.584 385.785 172.803C387.83 173.022 389.927 171.77 390.157 169.715C390.386 167.66 388.633 165.719 386.588 165.5C384.543 165.281 382.425 166.783 382.196 168.839Z" fill="#352F2E"/>
<path d="M222.124 170.089C222.353 172.145 221.07 173.939 219.025 174.159C216.98 174.378 215.112 172.938 214.883 170.882C214.653 168.827 216.156 166.991 218.211 166.771C220.267 166.552 221.894 168.034 222.124 170.089Z" fill="#352F2E"/>
<path d="M257.807 166.156C258.037 168.211 256.263 169.902 254.218 170.121C252.173 170.34 250.076 169.088 249.846 167.032C249.617 164.977 251.369 163.036 253.414 162.817C255.459 162.598 257.578 164.1 257.807 166.156Z" fill="#352F2E"/>
<path d="M404.786 173.804C404.004 174.209 403.058 174.002 401.991 173.032C399.888 171.121 401.402 169.577 404.014 170.104C406.727 170.65 406.331 173.004 404.786 173.804Z" fill="#C66A5C"/>
<path d="M235.214 171.755C235.996 172.261 236.942 172.002 238.009 170.79C240.112 168.402 238.598 166.472 235.986 167.131C233.273 167.813 233.669 170.755 235.214 171.755Z" fill="#C66A5C"/>
<path d="M395.19 178.394C396.829 181.661 400.177 183.576 403.606 183.949C407.239 184.342 410.628 182.438 412.775 179.469C413.274 178.777 412.877 177.681 412.226 177.287C411.442 176.809 410.638 177.17 410.14 177.862C408.634 179.948 406.079 181.086 403.606 180.767C401.133 180.448 398.956 179.043 397.826 176.798C396.91 174.978 394.275 176.596 395.19 178.405V178.394Z" fill="#C66A5C"/>
<path d="M403.932 240.352C406.673 242.569 411.242 238.553 407.718 236.466C404.806 234.74 401.291 238.209 403.932 240.352Z" fill="#FCFCFC"/>
<path d="M236.068 238.223C233.327 240.883 228.758 236.063 232.282 233.559C235.194 231.488 238.709 235.651 236.068 238.223Z" fill="#FCFCFC"/>
<path d="M402.898 253.255C405.591 255.861 410.227 250.986 406.765 248.533C403.904 246.504 400.293 250.746 402.898 253.255Z" fill="#FCFCFC"/>
<path d="M237.102 250.255C234.409 252.861 229.773 247.986 233.235 245.533C236.096 243.504 239.707 247.746 237.102 250.255Z" fill="#FCFCFC"/>
<path d="M348.566 189C347.836 189 347.136 189.146 346.416 189.24C344.549 189.48 342.154 189.886 340.125 190.918C337.954 192.023 336.331 193.618 336.026 195.723C335.864 196.87 336.463 199.34 337.508 201.321C338.553 203.302 339.993 204.98 341.911 203.343C341.728 204.677 342.652 205.97 344.204 206.189C345.726 206.397 347.39 205.511 347.481 204.125C347.095 205.605 348.658 207.127 350.342 206.992C352.026 206.856 353.396 204.928 353.173 203.427C353.142 204.605 354.309 205.73 355.618 205.741C356.926 205.751 357.921 204.792 358.57 203.771C360.102 201.394 360.315 199.132 359.625 196.87C358.935 194.608 357.484 192.596 355.364 191.158C353.406 189.834 351.072 189.021 348.566 189.01V189Z" fill="#FFE6D9"/>
<path d="M392.506 257.39C391.798 254.811 390.437 252.325 388.651 250.248C387.464 248.877 385.591 248.324 384.437 247.086C383.282 245.848 383.054 244.559 381.17 243.71C379.874 243.117 378.153 242.615 376.977 243.413C375.572 244.375 375.322 246.646 376.062 248.12C376.258 248.519 376.672 248.703 376.825 249.123C375.572 250.279 373.525 250.197 372.207 251.394C371.205 252.315 370.879 253.809 371.249 255.077C371.619 256.346 372.882 257.533 374.244 257.185C372.447 257.369 370.748 258.935 371.031 260.612C371.314 262.29 373.808 263.436 375.42 262.649C373.841 263.119 373.024 264.92 373.666 266.352C374.32 267.815 375.855 268.409 377.358 267.867C375.921 270.261 378.349 271.294 381.104 271.755C383.609 272.174 386.538 272.021 387.78 271.56C390.067 270.721 391.733 268.849 392.463 266.506C393.192 264.163 393.04 261.533 392.811 259.589C392.724 258.853 392.68 258.106 392.484 257.4L392.506 257.39Z" fill="#FFE6D9"/>
<path d="M247.494 254.886C248.202 252.219 249.563 249.647 251.349 247.498C252.536 246.08 254.409 245.508 255.563 244.227C256.718 242.947 256.946 241.613 258.83 240.735C260.126 240.121 261.847 239.602 263.023 240.428C264.428 241.423 264.678 243.772 263.938 245.296C263.742 245.709 263.328 245.9 263.175 246.334C264.428 247.53 266.475 247.445 267.793 248.683C268.795 249.636 269.121 251.181 268.751 252.494C268.381 253.806 267.118 255.034 265.756 254.674C267.553 254.865 269.252 256.484 268.969 258.22C268.686 259.956 266.192 261.141 264.58 260.326C266.159 260.813 266.976 262.676 266.334 264.158C265.68 265.671 264.145 266.285 262.642 265.724C264.079 268.201 261.651 269.27 258.896 269.746C256.391 270.18 253.462 270.021 252.22 269.545C249.933 268.677 248.267 266.74 247.537 264.316C246.808 261.893 246.96 259.172 247.189 257.161C247.276 256.399 247.32 255.627 247.516 254.896L247.494 254.886Z" fill="#FFE6D9"/>
<path d="M429.215 103.463C426.725 102.995 424.225 102.318 421.673 102.109C419.12 101.901 416.557 102.047 414.005 102.088C411.452 102.13 408.89 102.172 406.348 102.463C403.806 102.755 401.347 103.536 398.868 104.078C396.389 104.619 393.795 104.911 391.389 105.713C388.983 106.515 386.577 107.494 384.265 108.556C381.953 109.618 379.642 110.795 377.487 112.117C375.332 113.44 373.145 114.877 371.179 116.471C369.212 118.064 367.507 120.032 365.781 121.897C364.055 123.761 362.643 125.864 361.22 127.978C359.798 130.093 358.626 132.269 357.549 134.602C356.471 136.935 355.54 139.174 354.829 141.673C354.117 144.173 353.542 146.506 353.218 149.099C353.04 150.515 352.747 152.098 353.427 153.358C354.002 154.42 355.048 155.337 356.126 155.889C358.218 156.961 360.572 157.493 362.883 157.701C365.195 157.909 367.497 157.472 369.808 157.076C372.12 156.68 374.443 156.316 376.597 155.566C378.742 154.827 380.844 153.931 382.895 152.973C384.945 152.015 387.006 151.015 388.952 149.848C390.897 148.682 392.686 147.255 394.506 145.912C396.326 144.568 398.021 143.058 399.684 141.527C401.347 139.997 402.927 138.476 404.433 136.789C405.155 138.789 405.982 140.673 406.871 142.6C407.76 144.527 408.733 146.433 410.072 148.109C411.411 149.786 413.126 151.077 414.999 152.067C416.871 153.056 418.974 153.931 421.118 153.733C423.388 153.525 425.522 152.504 427.374 151.161C429.225 149.817 430.721 147.932 432.217 146.297C432.604 148.422 432.96 150.734 433.838 152.702C434.717 154.67 436.286 156.274 437.604 157.972C438.221 158.774 438.587 159.982 439.508 160.419C441.381 161.304 443.368 160.325 444.906 158.867C446.255 157.586 447.343 155.712 448.107 154.066C449.467 156.649 450.973 159.18 452.647 161.565C454.32 163.949 456.297 166.105 458.264 168.271C460.241 170.448 462.501 172.843 465.451 172.989C467.951 173.114 469.949 172.156 471.528 170.677C473.108 169.198 474.258 167.313 475.085 165.116C475.848 163.075 476.392 160.815 476.685 158.669C477.02 156.212 477.051 153.848 476.947 152.035C476.8 149.567 476.152 147.214 475.618 144.87C475.085 142.527 474.478 140.132 473.578 137.893C472.679 135.654 471.476 133.529 470.231 131.436C468.986 129.343 467.857 127.177 466.329 125.271C464.802 123.365 462.94 121.782 461.183 120.084C459.425 118.387 457.574 116.856 455.617 115.388C453.661 113.919 451.716 112.482 449.613 111.243C447.51 110.003 445.356 108.879 443.127 107.889C440.899 106.9 438.587 106.119 436.265 105.379C433.943 104.64 431.6 103.901 429.215 103.453V103.463Z" fill="#8E816E"/>
<path d="M282.736 155.929C285.327 155.795 287.56 152.487 289.012 148.698C290.463 144.91 290.798 140.719 290.921 138.942C291.111 136.047 290.966 133.298 290.396 130.56C289.827 127.822 288.833 125.195 287.593 122.636C286.376 120.11 284.969 117.708 283.249 115.417C281.563 113.181 279.888 110.879 277.822 108.912C275.79 106.968 273.422 105.369 271.133 103.704C268.833 102.028 266.454 100.519 263.997 99.1557C261.474 97.7587 259.095 96.1271 256.527 95.0989C253.802 94.0037 250.976 93.456 248.341 92.819C245.661 92.1708 242.992 91.2656 240.211 90.8744C237.431 90.4833 234.661 90.4721 231.87 90.338C229.078 90.2039 226.297 89.9133 223.517 90.0251C220.736 90.1368 217.955 90.4721 215.197 90.8297C212.439 91.1873 209.792 92.182 207.079 92.7967C204.365 93.4113 201.562 93.7131 198.927 94.5736C196.291 95.4342 193.611 96.3394 191.087 97.4682C188.563 98.5969 186.029 99.8822 183.65 101.29C181.16 102.766 179.027 104.822 176.771 106.666C174.515 108.51 172.326 110.421 170.417 112.589C168.507 114.757 166.933 117.216 165.47 119.719C164.007 122.223 162.377 124.681 161.472 127.453C160.769 129.599 160.422 132.091 160.132 134.639C159.853 137.008 160.076 139.467 160.255 141.903C160.422 144.362 160.858 146.731 161.584 148.989C162.343 151.38 163.013 153.783 164.487 155.638C165.85 157.348 168.317 158.455 170.417 157.818C172.516 157.17 173.968 155.069 174.85 153.057C175.989 150.442 176.816 147.86 177.508 145.1C178.591 146.754 179.306 148.307 180.4 149.972C180.758 150.52 181.506 150.699 182.042 151.056C182.701 151.492 183.36 151.895 184.152 151.917C187.022 151.984 190.015 151.179 193.064 150.598C196.112 150.017 199.15 149.659 201.998 149.302C205.66 148.844 206.755 148.207 207.458 147.234C208.195 146.206 208.564 144.954 209.937 141.937C212.93 143.077 211.132 147.167 213.756 148.855C214.538 149.358 215.655 148.911 216.593 148.888C219.898 148.788 223.204 148.844 226.509 148.743C229.815 148.642 233.12 148.587 236.426 148.486C239.072 148.408 242.847 148.452 245.058 146.698C247.113 145.055 248.04 142.06 249.67 139.914C250.787 141.613 250.753 143.803 252.149 145.278C253.065 146.251 254.315 146.519 255.611 146.81C257.208 147.167 259.597 148.296 262.077 148.642C264.556 148.989 267.001 148.62 268.609 147.771C270.787 146.687 270.966 143.468 273.266 142.663C274.249 144.485 275.432 146.038 276.415 147.86C277.398 149.682 278.034 151.682 279.017 153.504C279.486 154.376 280.201 155.191 281.105 155.605C281.675 155.862 282.2 155.974 282.725 155.94L282.736 155.929Z" fill="#352F2E"/>
<path d="M229.361 191.866C225.666 190.256 223.095 187.351 222.16 183.5C221.337 180.084 223.819 179.747 226.546 179.213C229.35 178.659 232.311 178.213 235.282 178.06C238.254 177.908 241.237 178.039 244.075 178.517C246.212 178.876 248.571 179.681 249.595 181.542C250.396 183 249.862 184.74 249.25 186.285C247.892 189.69 244.987 192.562 241.381 193.531C239.334 194.075 237.186 194.096 235.182 193.846C233.179 193.596 231.253 192.704 229.361 191.877V191.866Z" fill="#C66A5C"/>
<path d="M209.65 230C206.488 229.795 203.326 229.579 200.164 229.374C197.003 229.169 193.852 228.781 190.69 228.576C187.202 228.35 183.242 228.123 181.115 225.459C179.889 223.917 179.72 221.824 180.384 219.99C181.048 218.157 182.342 216.636 184.299 216.151C182.117 213.26 184.119 211.933 186.764 211.351C189.408 210.768 192.558 211.016 193.841 211.34C196.676 212.052 199.366 213.044 201.987 214.231C204.609 215.417 207.253 216.582 209.818 217.909C212.384 219.235 214.904 220.616 217.56 221.716C220.733 223.032 223.827 224.531 227 225.847" fill="#4D5469"/>
<path d="M137.978 249.338L136.635 251.441C136.343 251.9 136.343 252.484 136.635 252.943L137.978 255.046C138.784 256.311 137.311 257.784 136.046 256.978L133.943 255.635C133.484 255.343 132.9 255.343 132.441 255.635L130.338 256.978C129.074 257.784 127.601 256.311 128.406 255.046L129.75 252.943C130.042 252.484 130.046 251.896 129.75 251.441L128.406 249.338C127.601 248.074 129.074 246.601 130.338 247.406L132.441 248.75C132.9 249.042 133.484 249.042 133.943 248.75L136.046 247.406C137.311 246.601 138.784 248.074 137.978 249.338Z" fill="#F0E1DA"/>
<path d="M218.74 67.87C218.74 69.45 217.46 70.74 215.87 70.74C214.28 70.74 213 69.46 213 67.87C213 66.28 214.28 65 215.87 65C217.46 65 218.74 66.29 218.74 67.87Z" fill="#F0E1DA"/>
<defs>
<linearGradient id="paint0_linear_1_10250" x1="271.951" y1="276.633" x2="272.699" y2="298.075" gradientUnits="userSpaceOnUse">
<stop stop-color="#81C0DB"/>
<stop offset="1" stop-color="#ACE6FF"/>
</linearGradient>
<linearGradient id="paint1_linear_1_10250" x1="282.849" y1="277.702" x2="284.703" y2="301.888" gradientUnits="userSpaceOnUse">
<stop stop-color="#81C0DB"/>
<stop offset="1" stop-color="#ACE6FF"/>
</linearGradient>
<linearGradient id="paint2_linear_1_10250" x1="292.068" y1="276.804" x2="293.576" y2="298.626" gradientUnits="userSpaceOnUse">
<stop stop-color="#81C0DB"/>
<stop offset="1" stop-color="#ACE6FF"/>
</linearGradient>
<linearGradient id="paint3_linear_1_10250" x1="301.286" y1="271.005" x2="303.14" y2="295.19" gradientUnits="userSpaceOnUse">
<stop stop-color="#81C0DB"/>
<stop offset="1" stop-color="#ACE6FF"/>
</linearGradient>
<linearGradient id="paint4_linear_1_10250" x1="310.513" y1="276.804" x2="312.021" y2="298.626" gradientUnits="userSpaceOnUse">
<stop stop-color="#81C0DB"/>
<stop offset="1" stop-color="#ACE6FF"/>
</linearGradient>
<linearGradient id="paint5_linear_1_10250" x1="319.731" y1="273" x2="322.48" y2="302.407" gradientUnits="userSpaceOnUse">
<stop stop-color="#81C0DB"/>
<stop offset="1" stop-color="#ACE6FF"/>
</linearGradient>
<linearGradient id="paint6_linear_1_10250" x1="328.958" y1="276.804" x2="330.466" y2="298.626" gradientUnits="userSpaceOnUse">
<stop stop-color="#81C0DB"/>
<stop offset="1" stop-color="#ACE6FF"/>
</linearGradient>
<linearGradient id="paint7_linear_1_10250" x1="338.177" y1="277.702" x2="340.031" y2="301.888" gradientUnits="userSpaceOnUse">
<stop stop-color="#81C0DB"/>
<stop offset="1" stop-color="#ACE6FF"/>
</linearGradient>
<linearGradient id="paint8_linear_1_10250" x1="347.395" y1="276.804" x2="348.903" y2="298.626" gradientUnits="userSpaceOnUse">
<stop stop-color="#81C0DB"/>
<stop offset="1" stop-color="#ACE6FF"/>
</linearGradient>
<linearGradient id="paint9_linear_1_10250" x1="356.623" y1="271.005" x2="358.477" y2="295.19" gradientUnits="userSpaceOnUse">
<stop stop-color="#81C0DB"/>
<stop offset="1" stop-color="#ACE6FF"/>
</linearGradient>
<linearGradient id="paint10_linear_1_10250" x1="367.695" y1="277.075" x2="368.585" y2="299.689" gradientUnits="userSpaceOnUse">
<stop stop-color="#81C0DB"/>
<stop offset="1" stop-color="#ACE6FF"/>
</linearGradient>
</defs>
</svg>
